<svg xmlns="http://www.w3.org/2000/svg" width="755" height="100" viewBox="0 0 755 100"><title>microphones</title><path d="M17.18,32.8l-1.11,10-.88,8a2.06,2.06,0,0,1-2,1.83H11.69a2.06,2.06,0,0,1-2-1.83l-1-9.12-1-9.12Z" fill="#484c65"/><path d="M7.61,32.48l.12,1L8,36.05H8l.62,5.55,1,9.12a2.06,2.06,0,0,0,2,1.83h.72V32.64Z" fill="#33374a"/><path d="M17.18,32.8,16.82,36a5.1,5.1,0,0,1-1.84.34H9.85A5.17,5.17,0,0,1,8,36.05l-.4-3.57Z" fill="#292b38"/><path d="M18.06,27.09v4.16A3.08,3.08,0,0,1,15,34.33H9.85a3.08,3.08,0,0,1-3.08-3.08V27.09Z" fill="#dfe3ea"/><path d="M6.77,29.65v1.6a3.11,3.11,0,0,0,3.08,3.08h2.56V29.65Z" fill="#8da2ad"/><path d="M18.06,30.32a12.7,12.7,0,0,1-5.65,1.19,12.69,12.69,0,0,1-5.64-1.2V27.09H18.06Z" fill="#5f7991"/><path d="M5.74,17.39v8.73c0,1.84,3,3.33,6.68,3.34s6.67-1.5,6.67-3.34V17.39c0-1.84-3-3.33-6.67-3.33S5.74,15.55,5.74,17.39Z" fill="#484c65"/><path d="M9.28,14.45C7.79,15.06,6.83,16,6.83,17v8.73c0,1.84,3,3.33,6.67,3.33a12.27,12.27,0,0,0,3.14-.39,11.36,11.36,0,0,1-4.22.76c-3.69,0-6.68-1.5-6.68-3.34V17.39C5.74,16.12,7.18,15,9.28,14.45Z" fill="#33374a"/><path d="M12.42,15.6c2.77,0,4.65,1,5,1.6l.08.12v7.86a.52.52,0,1,1-1,0V17.66a6.87,6.87,0,0,0-4.1-1,.51.51,0,1,1,0-1Z" fill="#8da2ad"/><path d="M15.33,47.65l-3,1.23a1.7,1.7,0,0,0-.93,2.23h0a1.72,1.72,0,0,0,2.24.93l3-1.23a1.72,1.72,0,0,0,.93-2.24h0A1.72,1.72,0,0,0,15.33,47.65Z" fill="#f9a67f"/><path d="M12.69,49.67a.86.86,0,0,0,.66,1.58l.79-.33-.66-1.58Z" fill="#ffd9c7"/><path d="M16.51,43.45l-4,1.64a1.71,1.71,0,0,0-.92,2.24h0a1.71,1.71,0,0,0,2.23.92l4-1.64a1.7,1.7,0,0,0,.93-2.23h0A1.71,1.71,0,0,0,16.51,43.45Z" fill="#f9a67f"/><path d="M12.89,45.88a.86.86,0,0,0,.66,1.58l.79-.33-.66-1.58Z" fill="#ffd9c7"/><path d="M16.51,39.75l-4,1.64a1.71,1.71,0,0,0-.92,2.23h0a1.71,1.71,0,0,0,2.23.93l4-1.64a1.71,1.71,0,0,0,.93-2.24h0A1.71,1.71,0,0,0,16.51,39.75Z" fill="#f9a67f"/><path d="M12.89,42.18a.85.85,0,0,0-.46,1.11.86.86,0,0,0,1.12.47l.79-.33-.66-1.58Z" fill="#ffd9c7"/><path d="M16.51,36l-3,1.23a1.72,1.72,0,0,0-.93,2.24h0a1.71,1.71,0,0,0,2.24.92l3-1.22A1.72,1.72,0,0,0,18.75,37h0A1.72,1.72,0,0,0,16.51,36Z" fill="#f9a67f"/><path d="M13.88,38.06a.85.85,0,1,0,.65,1.58l.79-.32-.65-1.58Z" fill="#ffd9c7"/><path d="M1.45,53.39l1.25-3A12.87,12.87,0,0,1,3.62,43c1-2.3,1.54-3.59,3.19-7.27A1.71,1.71,0,0,1,9,34.82H9A1.71,1.71,0,0,1,10,37.05l-1.48,3.3.27,2.41.88,8a2.06,2.06,0,0,0,2,1.83h.76l-1.67.69L9.36,56.66Z" fill="#f9a67f"/><path d="M10.41,55.24l-8.7-3.6a1.71,1.71,0,0,0-2.23.92L-1,53.73a9.29,9.29,0,0,1,.06.94V83H.77L11.34,57.47A1.71,1.71,0,0,0,10.41,55.24Z" fill="#479aad"/><path d="M-.94,54.67V70.32l7-16.88-4.35-1.8a1.71,1.71,0,0,0-2.23.92L-1,53.73A9.29,9.29,0,0,1-.94,54.67Z" fill="#60bcd8"/><path d="M199.48,67.81l1.59,5.8,2.1,7.74a2,2,0,0,0,2.3,1.48l1.44-.22a2.06,2.06,0,0,0,1.74-2.12l-.42-9.18L208,66.47Z" fill="#484c65"/><path d="M208,66.47l.1,2.06.12,2.79.42,9.17a2.06,2.06,0,0,1-1.74,2.12l-.72.11-2.44-15.58Z" fill="#33374a"/><polygon points="200.03 69.8 208.11 68.53 208.02 66.47 199.48 67.81 200.03 69.8" fill="#292b38"/><path d="M207.54,49.92l.8,5.07a6.42,6.42,0,0,1-12.68,2l-.79-5.07a6.41,6.41,0,1,1,12.67-2Z" fill="#8da2ad"/><path d="M196.92,59.9A6.42,6.42,0,0,0,208,58.16Z" fill="#5f7991"/><path d="M195.42,55.46l12.68-2a1,1,0,0,0-.32-2l-12.67,2a1,1,0,0,0,.31,2Z" fill="#dfe3ea"/><path d="M208.34,55l-.24-1.52h0l-12.68,2,.24,1.52c0,.17.07.34.11.5l12.62-2C208.38,55.33,208.36,55.16,208.34,55Z" fill="#5f7991"/><path d="M200.61,47.11a3.87,3.87,0,0,0-3.17,3,.51.51,0,0,1-.43.4h-.18a.51.51,0,0,1-.4-.61,4.9,4.9,0,0,1,4-3.82.52.52,0,0,1,.59.43A.51.51,0,0,1,200.61,47.11Z" fill="#dfe3ea"/><rect x="195.45" y="59.49" width="15.4" height="7.7" rx="1.54" ry="1.54" transform="translate(-7.36 32.25) rotate(-8.92)" fill="#484c65"/><path d="M210.4,59.86l.72,4.57a1.56,1.56,0,0,1-1.29,1.76l-6.08,1-1.19-7.61,6.08-1A1.55,1.55,0,0,1,210.4,59.86Z" fill="#33374a"/><rect x="196.48" y="60.51" width="13.34" height="5.65" rx="0.51" ry="0.51" transform="translate(-7.36 32.25) rotate(-8.92)" fill="#c32b45"/><path d="M208.8,59.59,196.63,61.5a.52.52,0,0,0-.43.59L209.39,60A.52.52,0,0,0,208.8,59.59Z" fill="#ab263c"/><path d="M204.93,63.06a1.8,1.8,0,1,1-2.06-1.5A1.8,1.8,0,0,1,204.93,63.06Z" fill="#dfe3ea"/><path d="M209.34,77.9l-4.23.66a1.71,1.71,0,0,0-1.42,2h0a1.7,1.7,0,0,0,1.95,1.42l4.23-.66a1.71,1.71,0,0,0,1.42-2h0A1.71,1.71,0,0,0,209.34,77.9Z" fill="#f9a67f"/><path d="M210.92,74.19l-6.34,1a1.72,1.72,0,0,0-1.43,2h0a1.72,1.72,0,0,0,2,1.42l6.34-1a1.71,1.71,0,0,0,1.42-2h0A1.7,1.7,0,0,0,210.92,74.19Z" fill="#f9a67f"/><path d="M210.39,70.81l-6.34,1a1.72,1.72,0,0,0-1.43,2h0a1.72,1.72,0,0,0,2,1.42l6.34-1a1.71,1.71,0,0,0,1.42-2h0A1.7,1.7,0,0,0,210.39,70.81Z" fill="#f9a67f"/><path d="M209.86,67.43l-4.23.66a1.71,1.71,0,0,0-1.42,2h0a1.7,1.7,0,0,0,1.95,1.42l4.23-.66a1.72,1.72,0,0,0,1.42-2h0A1.7,1.7,0,0,0,209.86,67.43Z" fill="#f9a67f"/><path d="M205.76,68.94a.86.86,0,0,0,.27,1.69l.84-.14-.26-1.69Z" fill="#ffd9c7"/><path d="M204.18,72.65a.86.86,0,0,0,.27,1.69l.84-.14L205,72.51Z" fill="#ffd9c7"/><path d="M204.71,76a.86.86,0,0,0,.27,1.69l.84-.14-.26-1.69Z" fill="#ffd9c7"/><path d="M205.24,79.41a.86.86,0,1,0,.27,1.69l.84-.14-.26-1.69Z" fill="#ffd9c7"/><path d="M205.47,82.83a2,2,0,0,1-2.3-1.48l-2.1-7.74-1.48-5.42A7.64,7.64,0,0,0,197.2,75l.47,3a6,6,0,0,1-.48,3.44l-1,2.16,7,3.23,1.84-4,1.18-.19h0Z" fill="#f9a67f"/><path d="M199.5,100.94l6.24-13.48a1.72,1.72,0,0,0-.84-2.27l-8.54-4a1.71,1.71,0,0,0-2.27.83l-8.73,18.87Z" fill="#333332"/><path d="M199.5,100.94l6.24-13.48a1.72,1.72,0,0,0-.84-2.27l-4.27-2-8.2,17.72Z" fill="#4c5054"/><path d="M173.13,59.7l.28,3.16.68,8A2.05,2.05,0,0,1,172.45,73l-1.43.28a2,2,0,0,1-2.36-1.39l-2.77-8.75-.53-1.65Z" fill="#484c65"/><path d="M165.36,61.53l.09.28.44,1.37.2.65,2.57,8.1A2,2,0,0,0,171,73.32l.71-.14-2-10.07-.5-2.49Z" fill="#33374a"/><path d="M173.36,62.38a.35.35,0,0,1-.11,0l-7.05,1.41h-.11l-.2-.65-.53-1.65,7.77-1.83Z" fill="#292b38"/><path d="M169.62,38.93l4,20.26a1,1,0,0,1-.81,1.21l-7,1.4a1,1,0,0,1-1.2-.8l-4-20.27Z" fill="#484c65"/><path d="M160.56,40.73l3.18,16,.84,4.27v0a1,1,0,0,0,1.21.81l3.53-.7-2.82-14.16-.4-2-.15-.74-.87-4.36Z" fill="#33374a"/><path d="M169.62,38.93l1.23,6.15a11.39,11.39,0,0,1-9.06,1.8l-1.23-6.15Z" fill="#292b38"/><path d="M158.57,36l1.4,7c.33,1.67,3.08,2.53,6.14,1.92s5.26-2.45,4.94-4.12l-1.41-7.05c-.33-1.67-3.08-2.53-6.14-1.92S158.23,34.3,158.57,36Z" fill="#8da2ad"/><path d="M159.14,35.11l1.4,7c.33,1.66,3.08,2.52,6.14,1.91A7.8,7.8,0,0,0,170.89,42c-.57,1.3-2.42,2.51-4.78,3-3.06.61-5.81-.25-6.14-1.92l-1.4-7a2.31,2.31,0,0,1,.72-2A1.85,1.85,0,0,0,159.14,35.11Z" fill="#5f7991"/><path d="M163.8,33.35a5.91,5.91,0,0,1,4,.38l.17.13.12.12,1.4,7.05a.52.52,0,0,1-.4.61.53.53,0,0,1-.39-.08.52.52,0,0,1-.22-.32l-1.33-6.7a5.24,5.24,0,0,0-3.18-.18.51.51,0,0,1-.2-1Z" fill="#dfe3ea"/><path d="M158.56,66.34a6,6,0,0,0,.34-3.46l-.6-3a7.68,7.68,0,0,1,1.1-5.71l.09-.13,2.76-4.13a1.71,1.71,0,1,1,2.85,1.9l-1.79,2.68L164.6,61a1,1,0,0,0,.85.81l.44,1.37,1.3,4.11-.76.15-1.67,4-7.11-2.94Z" fill="#a67c52"/><path d="M173.48,58.35l-2.67,1.78a1.71,1.71,0,0,0-.47,2.38h0a1.72,1.72,0,0,0,2.37.47l2.67-1.78a1.72,1.72,0,0,0,.47-2.38h0A1.72,1.72,0,0,0,173.48,58.35Z" fill="#a67c52"/><path d="M171.29,60.85a.84.84,0,0,0-.24,1.18.86.86,0,0,0,1.19.24l.71-.48L172,60.37Z" fill="#8c6239"/><path d="M173.82,54l-3.55,2.37a1.72,1.72,0,0,0-.48,2.38h0a1.73,1.73,0,0,0,2.38.47l3.55-2.38a1.7,1.7,0,0,0,.47-2.37h0A1.7,1.7,0,0,0,173.82,54Z" fill="#a67c52"/><path d="M170.74,57.09a.86.86,0,0,0,.95,1.43l.71-.48-1-1.42Z" fill="#8c6239"/><path d="M173.1,50.37l-3.56,2.38a1.72,1.72,0,0,0-.47,2.37h0a1.71,1.71,0,0,0,2.37.48L175,53.22a1.7,1.7,0,0,0,.47-2.37h0A1.71,1.71,0,0,0,173.1,50.37Z" fill="#a67c52"/><path d="M170,53.46a.87.87,0,0,0-.24,1.19.85.85,0,0,0,1.19.23l.71-.47-1-1.42Z" fill="#8c6239"/><path d="M172.38,46.74l-2.67,1.78a1.71,1.71,0,0,0-.47,2.38h0a1.71,1.71,0,0,0,2.37.47l2.67-1.78a1.73,1.73,0,0,0,.47-2.38h0A1.72,1.72,0,0,0,172.38,46.74Z" fill="#a67c52"/><path d="M170.19,49.24a.84.84,0,0,0-.24,1.18.86.86,0,0,0,1.19.24l.71-.48-.95-1.42Z" fill="#8c6239"/><path d="M155.24,100.94l11.41-27.5a1.71,1.71,0,0,0-.93-2.23L157,67.6a1.73,1.73,0,0,0-2.24.93l-13.44,32.41Z" fill="#59b254"/><path d="M148.3,100.94,161.38,69.4,157,67.6a1.73,1.73,0,0,0-2.24.93l-13.44,32.41Z" fill="#70d16d"/><path d="M133.15,71.09l1.41,7a1,1,0,1,0,2-.4l-1.41-7Z" fill="#8da2ad"/><path d="M135.16,70.69l.1.49.41,2,.9,4.51a1,1,0,0,1-.81,1.21l-1.09-5.48-.4-2-.11-.55Z" fill="#5f7991"/><path d="M133.65,73.62a3.24,3.24,0,0,0,.52-.07l1-.2a4.07,4.07,0,0,0,.5-.13l-.51-2.53-2,.4Z" fill="#484c65"/><path d="M127.15,48.92l4.2,21a2,2,0,0,0,2.41,1.61l1-.2a2,2,0,0,0,1.61-2.41l-4.19-21Z" fill="#8da2ad"/><path d="M132.19,47.92l.51,2.55.41,2.07.85,4.27,2.42,12.11a2.06,2.06,0,0,1-1.12,2.26,2,2,0,0,1-.49.16l-.5.1-4-20.12-.4-2-.09-.43-.09-.45,1.71-.33Z" fill="#5f7991"/><path d="M127.66,51.47a9.86,9.86,0,0,0,2.59-.15,9.49,9.49,0,0,0,2.45-.85l-.51-2.55-5,1Z" fill="#484c65"/><path d="M134.87,35.14l1,5.11a7.7,7.7,0,0,1-15.1,3l-1-5.1a7.7,7.7,0,1,1,15.1-3Z" fill="#33374a"/><path d="M127.76,29a7.69,7.69,0,0,1,6,6l1,5.11a7.69,7.69,0,0,1-6,9,7.6,7.6,0,0,1-2,.13,7.48,7.48,0,0,0,3.09,0,7.69,7.69,0,0,0,6-9l-1-5.11A7.7,7.7,0,0,0,127.76,29Z" fill="#292b38"/><path d="M126.11,30.61a6.17,6.17,0,0,0-4.83,7.25l1,5.1a6.13,6.13,0,0,0,2.62,3.92.53.53,0,0,0,.72-.15.52.52,0,0,0-.15-.71,5.06,5.06,0,0,1-2.18-3.26l-1-5.11a5.12,5.12,0,0,1,4-6,.53.53,0,0,0,.4-.61A.51.51,0,0,0,126.11,30.61Z" fill="#484c65"/><path d="M135.91,64.86l-2.67,1.78a1.73,1.73,0,0,0-.47,2.38h0a1.72,1.72,0,0,0,2.37.47l2.67-1.79a1.7,1.7,0,0,0,.47-2.37h0A1.7,1.7,0,0,0,135.91,64.86Z" fill="#f9a67f"/><path d="M133.72,67.35a.86.86,0,1,0,.95,1.43l.71-.48-.95-1.42Z" fill="#ffd9c7"/><path d="M136.25,60.51l-3.56,2.38a1.73,1.73,0,0,0-.47,2.38h0a1.73,1.73,0,0,0,2.38.47l3.55-2.38a1.71,1.71,0,0,0,.47-2.38h0A1.72,1.72,0,0,0,136.25,60.51Z" fill="#f9a67f"/><path d="M133.17,63.6a.87.87,0,0,0-.24,1.19.86.86,0,0,0,1.19.23l.71-.47-1-1.42Z" fill="#ffd9c7"/><path d="M135.52,56.88,132,59.26a1.7,1.7,0,0,0-.47,2.37h0a1.7,1.7,0,0,0,2.37.47l3.56-2.38a1.71,1.71,0,0,0,.47-2.37h0A1.73,1.73,0,0,0,135.52,56.88Z" fill="#f9a67f"/><path d="M132.45,60a.85.85,0,1,0,1,1.42l.71-.47-1-1.43Z" fill="#ffd9c7"/><path d="M134.8,53.25,132.13,55a1.73,1.73,0,0,0-.47,2.38h0a1.73,1.73,0,0,0,2.38.47l2.66-1.79a1.7,1.7,0,0,0,.47-2.37h0A1.7,1.7,0,0,0,134.8,53.25Z" fill="#f9a67f"/><path d="M132.61,55.74a.86.86,0,0,0,.95,1.43l.71-.48-1-1.42Z" fill="#ffd9c7"/><path d="M131.35,69.93,129,58.26,130.77,54a1.72,1.72,0,0,0-.93-2.24h0a1.71,1.71,0,0,0-2.23.93l-2.29,5.53a7.67,7.67,0,0,0-.81,5.23l.59,3a5.93,5.93,0,0,1-.33,3.46l-.91,2.2L131,75.06l1.52-3.67A2,2,0,0,1,131.35,69.93Z" fill="#f9a67f"/><path d="M123,100.94,132.86,77a1.71,1.71,0,0,0-.92-2.23l-8.7-3.6a1.71,1.71,0,0,0-2.23.92l-11.93,28.83Z" fill="#ffaf10"/><path d="M123,100.94,132.86,77a1.71,1.71,0,0,0-.92-2.23L127.59,73l-11.58,28Z" fill="#ef9900"/><path d="M99.25,21a3.08,3.08,0,0,0-3.08-3.08H84.37A3.08,3.08,0,0,0,81.29,21l0,32.31a3.08,3.08,0,0,0,3.08,3.08h11.8a3.08,3.08,0,0,0,3.08-3.08Z" fill="#484c65"/><path d="M99.25,21V53.29a3.08,3.08,0,0,1-3.08,3.08h-5.9V17.9h5.92A3.08,3.08,0,0,1,99.25,21Z" fill="#33374a"/><path d="M99.23,52.27a3.09,3.09,0,0,1-3.08,3.08H84.35a3.08,3.08,0,0,1-3.08-3v1a3.08,3.08,0,0,0,3.08,3.08h11.8a3.08,3.08,0,0,0,3.08-3.08l0-32.31v-.05Z" fill="#292b38"/><rect x="83.32" y="39.18" width="13.86" height="15.14" rx="1.03" ry="1.03" fill="#292b38"/><rect x="83.32" y="26.09" width="13.86" height="11.03" rx="1.03" ry="1.03" fill="#292b38"/><rect x="84.35" y="40.2" width="11.8" height="13.09" fill="#484c65"/><rect x="85.37" y="47.9" width="9.75" height="4.36" fill="#292b38"/><rect x="85.37" y="42.26" width="4.11" height="4.11" fill="#292b38"/><rect x="91.02" y="42.26" width="4.11" height="4.11" fill="#292b38"/><rect x="85.37" y="47.39" width="9.75" height="4.36" fill="#dfe3ea"/><rect x="85.37" y="41.74" width="4.11" height="4.11" fill="#dfe3ea"/><rect x="91.02" y="41.74" width="4.11" height="4.11" fill="#dfe3ea"/><rect x="84.35" y="27.12" width="11.8" height="8.98" fill="#639ca9"/><rect x="84.35" y="27.12" width="11.8" height="2.05" fill="#2d7b8c"/><circle cx="87.42" cy="43.8" r="1.03" fill="#639ca9"/><rect x="92.04" y="42.77" width="2.05" height="2.05" fill="#639ca9"/><rect x="90.25" y="48.55" width="1.03" height="2.05" fill="#639ca9"/><rect x="91.79" y="48.55" width="1.03" height="2.05" fill="#639ca9"/><polygon points="87.68 48.55 87.68 50.6 89.73 49.57 87.68 48.55" fill="#639ca9"/><path d="M81.29,21v3.08h7.95V17.9H84.37A3.08,3.08,0,0,0,81.29,21Z" fill="#8da2ad"/><path d="M96.17,17.9H91.3v6.16h8V21A3.08,3.08,0,0,0,96.17,17.9Z" fill="#8da2ad"/><rect x="81.29" y="23.55" width="7.96" height="0.51" fill="#5f7991"/><rect x="91.3" y="23.55" width="7.96" height="0.51" fill="#5f7991"/><path d="M88.22,25.09H81.29v-1h7.95A1,1,0,0,1,88.22,25.09Z" fill="#292b38"/><path d="M99.25,25.09H92.32a1,1,0,0,1-1-1h8Z" fill="#292b38"/><path d="M83.2,19.44h2a.51.51,0,0,1,.52.51h0a.52.52,0,0,1-.52.52h-2a.51.51,0,0,1-.51-.52h0A.51.51,0,0,1,83.2,19.44Z" fill="#dfe3ea"/><path d="M93.22,19.44h2a.51.51,0,0,1,.52.51h0a.52.52,0,0,1-.52.52h-2a.51.51,0,0,1-.51-.52h0A.51.51,0,0,1,93.22,19.44Z" fill="#dfe3ea"/><path d="M98.86,50.53l-2.17.9a1.71,1.71,0,0,0-.93,2.23h0a1.7,1.7,0,0,0,2.23.93l2.18-.9a1.71,1.71,0,0,0,.93-2.23h0A1.72,1.72,0,0,0,98.86,50.53Z" fill="#c7b299"/><path d="M97,52.22a.85.85,0,1,0,.65,1.58l.79-.32-.65-1.59Z" fill="#e0c7ad"/><path d="M100.05,46.34l-3.56,1.47A1.71,1.71,0,0,0,95.57,50h0A1.7,1.7,0,0,0,97.8,51l3.56-1.47a1.71,1.71,0,0,0,.93-2.23h0A1.71,1.71,0,0,0,100.05,46.34Z" fill="#c7b299"/><path d="M96.82,48.6a.85.85,0,0,0,.65,1.58l.8-.33-.66-1.58Z" fill="#e0c7ad"/><path d="M100.06,42.63,96.5,44.1a1.72,1.72,0,0,0-.93,2.24h0a1.71,1.71,0,0,0,2.23.93l3.56-1.47a1.71,1.71,0,0,0,.93-2.24h0A1.71,1.71,0,0,0,100.06,42.63Z" fill="#c7b299"/><path d="M96.83,44.89a.86.86,0,1,0,.65,1.59l.79-.33-.65-1.58Z" fill="#e0c7ad"/><path d="M83.43,40.71l-2.53,1a4.3,4.3,0,0,0-2.33,5.61l3,7.23h0a3,3,0,0,1-.29-1.31V46.44a1.72,1.72,0,0,1,1.06-1.58l2.49-1a1.71,1.71,0,0,0,.86-2.38A1.76,1.76,0,0,0,83.43,40.71Z" fill="#c7b299"/><path d="M83.84,41.46a.86.86,0,0,1,.65,1.59l-.79.32-.65-1.58Z" fill="#e0c7ad"/><path d="M99.27,39.26,97.49,40a1.72,1.72,0,0,0-.93,2.24h0a1.71,1.71,0,0,0,2.24.92l1.78-.73a1.7,1.7,0,0,0,.92-2.23h0A1.7,1.7,0,0,0,99.27,39.26Z" fill="#c7b299"/><path d="M97.82,40.78a.85.85,0,1,0,.65,1.58l.79-.32-.65-1.58Z" fill="#e0c7ad"/><path d="M84.35,56.37a3.07,3.07,0,0,1-2.24-1l.28.67a4.26,4.26,0,0,1,0,3.27l-.14.35L90.14,63l1.42-3.41.11,0a10.23,10.23,0,0,0,4.15-3.14H84.35Z" fill="#c7b299"/><polygon points="64.6 100.94 80.72 87.33 90.77 63.12 81.69 59.35 64.41 100.94 64.6 100.94" fill="#dfe3ea"/><path d="M76.68,100.94l8-19.18,6.11-14.71a1.71,1.71,0,0,0-.92-2.23l-8.69-3.61a1.71,1.71,0,0,0-2.24.92L62.79,100.94Z" fill="#b50000"/><path d="M76.72,100.94l14-33.89a1.7,1.7,0,0,0-.93-2.23L85.49,63,69.78,100.94Z" fill="#d60000"/><path d="M33.94,50.22l-10,15h0a1.54,1.54,0,0,0,.43,2.14l.86.57a1.53,1.53,0,0,0,2.13-.43l10-15Z" fill="#484c65"/><path d="M37.36,52.5l-.14.21-.39.59L27.39,67.45a1.54,1.54,0,0,1-2.14.43l-.42-.29L33.9,54,35,52.28l.61-.92,1.5,1Z" fill="#33374a"/><path d="M33.94,50.22l-1.73,2.59a3.22,3.22,0,0,0,.41.32l2.56,1.71a2.46,2.46,0,0,0,.45.25l1.73-2.59Z" fill="#292b38"/><path d="M37.48,44l-4,6a1,1,0,0,0,.29,1.42l2.56,1.71a1,1,0,0,0,1.42-.28l4-6Z" fill="#484c65"/><path d="M38.65,49.09l-.35-1.72-1,1.49-.06.1-1.6,2.4-.61.92,1.28.85a1,1,0,0,0,.51.17.89.89,0,0,0,.48-.1,1,1,0,0,0,.43-.35l2.75-4.13Z" fill="#33374a"/><path d="M37.48,44l-2.06,3.09a4.86,4.86,0,0,0,1.47,1.49l.85.58a5.23,5.23,0,0,0,1.95.78l2.06-3.1Z" fill="#292b38"/><rect x="31.6" y="30.75" width="30.79" height="7.19" rx="3.08" ry="3.08" transform="translate(-7.65 54.4) rotate(-56.31)" fill="#8da2ad"/><path d="M56.29,22.07a3.08,3.08,0,0,1-.18,3.11L42.45,45.68a3.09,3.09,0,0,1-4.27.85L37.32,46a4.08,4.08,0,0,1-.33-.25,3.16,3.16,0,0,0,1,1.16l.86.57a3.08,3.08,0,0,0,4.27-.86L56.81,26.09A3.07,3.07,0,0,0,56.29,22.07Z" fill="#5f7991"/><path d="M39.3,45.82l-.41-.27a1.53,1.53,0,0,1-.65-1,1.5,1.5,0,0,1,.23-1.15L52.15,22.93a1.54,1.54,0,0,1,.94-.65.51.51,0,0,1,.61.39h0a.51.51,0,0,1-.39.6.55.55,0,0,0-.32.22L39.32,44a.53.53,0,0,0,.14.71l.41.27a.51.51,0,0,1-.57.85Z" fill="#dfe3ea"/><path d="M25.66,61.72l2.49,1.66a1.71,1.71,0,0,1,.48,2.37h0a1.72,1.72,0,0,1-2.38.48l-2.49-1.66a1.71,1.71,0,0,1-.47-2.37h0A1.71,1.71,0,0,1,25.66,61.72Z" fill="#603813"/><path d="M26.85,58.4l3.2,2.13a1.72,1.72,0,0,1,.47,2.38h0a1.71,1.71,0,0,1-2.37.47L25,61.25a1.72,1.72,0,0,1-.48-2.38h0A1.73,1.73,0,0,1,26.85,58.4Z" fill="#603813"/><path d="M28,55.08,32,57.69a1.71,1.71,0,0,1,.47,2.37h0a1.7,1.7,0,0,1-2.37.47l-3.92-2.6a1.73,1.73,0,0,1-.47-2.38h0A1.71,1.71,0,0,1,28,55.08Z" fill="#603813"/><path d="M29.93,52.23l2.13,1.42A1.72,1.72,0,0,1,32.54,56h0a1.71,1.71,0,0,1-2.37.47L28,55.08a1.71,1.71,0,0,1-.47-2.37h0A1.71,1.71,0,0,1,29.93,52.23Z" fill="#603813"/><path d="M31.59,54.37a.85.85,0,0,1,.24,1.18.87.87,0,0,1-1.19.24l-.71-.47.95-1.43Z" fill="#b50000"/><path d="M31.47,58.4a.85.85,0,1,1-.95,1.42l-.71-.47,1-1.43Z" fill="#b50000"/><path d="M29.57,61.25a.84.84,0,0,1,.24,1.18.85.85,0,0,1-1.18.24l-.72-.47.95-1.43Z" fill="#b50000"/><path d="M27.68,64.09a.86.86,0,0,1-.95,1.43L26,65,27,63.62Z" fill="#b50000"/><path d="M38.13,57.84l0-.14-.84-4.21a1.71,1.71,0,1,0-3.35.67l.54,2.7L27.39,67.45a1.51,1.51,0,0,1-1.09.67v3.8H34V69.54a6,6,0,0,1,1-3.33l1.93-2.89A7.68,7.68,0,0,0,38.13,57.84Z" fill="#603813"/><path d="M36.57,100.94V71.38a1.71,1.71,0,0,0-1.72-1.71h-9.4a1.71,1.71,0,0,0-1.72,1.71v29.56Z" fill="#ae75c3"/><path d="M36.57,100.94V71.38a1.71,1.71,0,0,0-1.72-1.71h-4.7v31.27Z" fill="#9160a5"/><path d="M552.57,46.9a7.29,7.29,0,1,1-7.75-6.81A7.29,7.29,0,0,1,552.57,46.9Z" fill="#22353d"/><path d="M544.82,40.09l.94,14.55a7.29,7.29,0,1,0-.94-14.55Z" fill="#172830"/><polygon points="550.18 92.48 546.21 92.74 542.99 66.34 550 65.89 550.18 92.48" fill="#172830"/><rect x="538.6" y="54.37" width="15.26" height="15.26" rx="2.9" ry="2.9" transform="translate(-2.86 35.24) rotate(-3.69)" fill="#14b0bf"/><path d="M543.89,65.25a.63.63,0,0,1-.59.68h0a.63.63,0,0,1-.68-.6l-.4-6.17a.64.64,0,0,1,.6-.68h0a.65.65,0,0,1,.68.6Z" fill="#fff"/><path d="M540.53,59.91a.64.64,0,0,1-.68-.6h0a.65.65,0,0,1,.6-.68l4.74-.3a.63.63,0,0,1,.67.6h0a.63.63,0,0,1-.59.68Z" fill="#fff"/><path d="M550.16,64.62a.64.64,0,0,1-.32.85h0a.64.64,0,0,1-.85-.31l-2.63-6a.64.64,0,0,1,.31-.85h0a.64.64,0,0,1,.85.31Z" fill="#fff"/><path d="M549.12,64.68a.65.65,0,0,0,.42.81h0a.64.64,0,0,0,.8-.42l1.84-6.33a.64.64,0,0,0-.42-.81h0a.65.65,0,0,0-.8.42Z" fill="#fff"/><path d="M542.65,82.25a1.52,1.52,0,1,1,.22-3h.24s0,0,0,0,0,0,0,0a1.52,1.52,0,1,1,.23-3l7.56.57h0a0,0,0,0,0,0,0,16.51,16.51,0,0,0-.52-2.75,7.16,7.16,0,0,1-.32-2.49,2.26,2.26,0,0,1,2.47-2.11.72.72,0,0,1,.52.21c.19.22.19.55.13,1.19v.18c-.1,1.25.77,2.82,1.6,4.34.64,1.17,5.75,9.74,5.75,9.74l-5,3s0,0,0,0a1.52,1.52,0,0,1-1.64,1.4l-9.11-.69a1.53,1.53,0,0,1-1.41-1.64,1.37,1.37,0,0,1,1.45-1.4,0,0,0,0,0,0,0s0,0,0,0l-1.1-.1a1.53,1.53,0,0,1-1.41-1.64c.07-.92.62-1.47,1.41-1.41,0,0,0,0,0,0s0-.05,0-.05Z" fill="#ffd098"/><path d="M574.3,100.94,557.53,81.39a7.3,7.3,0,0,0-10.3-.78l17.45,20.33Z" fill="#ffd098"/><path d="M561.24,100.94H576L562.11,83.85a.63.63,0,0,0-.89-.09l-7.9,6.4a.63.63,0,0,0-.09.89Z" fill="#324d5c"/><path d="M561.24,100.94h6.86l-11-13.88-3.83,3.1a.63.63,0,0,0-.09.89Z" fill="#283c44"/><path d="M600.38,38.2A6.86,6.86,0,1,1,595,30.14,6.84,6.84,0,0,1,600.38,38.2Z" fill="#22353d"/><path d="M595,30.14l-2.67,13.45A6.86,6.86,0,0,0,595,30.14Z" fill="#172830"/><path d="M601,38.33a1,1,0,0,1-1.17.78l-12.75-2.53a1,1,0,0,1-.79-1.17h0a1,1,0,0,1,1.18-.79l12.75,2.53a1,1,0,0,1,.78,1.18Z" fill="#cc330a"/><polygon points="587.44 77.79 583.77 77.06 587.22 52.29 593.71 53.57 587.44 77.79" fill="#172830"/><rect x="586.1" y="38.8" width="10.46" height="19.53" rx="2.73" ry="2.73" transform="translate(428.51 619.11) rotate(-78.77)" fill="#cc330a"/><path d="M588.43,50.25a.46.46,0,0,1-.54.36h0a.46.46,0,0,1-.36-.54l.87-4.34a.44.44,0,0,1,.53-.36h0a.46.46,0,0,1,.36.54Z" fill="#fff"/><path d="M595.21,46.64a.46.46,0,0,0-.63.15l-1.81,3-.53-3.47a.46.46,0,0,0-.53-.37.45.45,0,0,0-.37.53l.7,4.66a.47.47,0,0,0,.38.37.45.45,0,0,0,.49-.2l2.44-4A.47.47,0,0,0,595.21,46.64Z" fill="#fff"/><path d="M599.05,50.57a.46.46,0,1,0,.18-.9l-2.88-.57.25-1.27,2.88.57a.46.46,0,1,0,.18-.9l-3.33-.66a.28.28,0,0,0-.13,0,.44.44,0,0,0-.41.36l-.86,4.34h0v.08a.45.45,0,0,0,.28.42s0,0,.08,0l3.33.67a.47.47,0,0,0,.54-.36.46.46,0,0,0-.36-.54l-2.88-.57.25-1.28Z" fill="#fff"/><path d="M586.51,49.4l-2.88-.57.77-3.89a.46.46,0,0,0-.36-.54.45.45,0,0,0-.53.36l-.87,4.34a.47.47,0,0,0,.36.54h0l3.34.66a.45.45,0,0,0,.53-.36A.46.46,0,0,0,586.51,49.4Z" fill="#fff"/><path d="M582.36,63.51a1.53,1.53,0,0,1,1.31-2.76l.23.1s0,0,.05,0a0,0,0,0,0,0-.06A1.53,1.53,0,1,1,585.25,58l6.83,3.27h0l0,0a15.06,15.06,0,0,0,.51-2.75,6.9,6.9,0,0,1,.61-2.43A2.25,2.25,0,0,1,596.32,55a.72.72,0,0,1,.41.39c.09.27,0,.58-.31,1.15l-.08.16c-.54,1.13-.3,2.91-.07,4.63.17,1.32,1.83,11.16,1.83,11.16l-5.77,1a0,0,0,0,0-.06,0,1.52,1.52,0,0,1-2,.72l-8.25-4a1.53,1.53,0,0,1-.72-2,1.37,1.37,0,0,1,1.86-.78,0,0,0,0,0,.06,0s0,0,0,0l-1-.49a1.53,1.53,0,0,1-.73-2,1.34,1.34,0,0,1,1.84-.8s0,0,.05,0a0,0,0,0,0,0-.05Z" fill="#754c24"/><path d="M608.12,100.94,596.55,68.09a7.31,7.31,0,0,0-9.32-4.46l13.15,37.31Z" fill="#754c24"/><path d="M597.43,100.94h12.11l-10.17-29a.63.63,0,0,0-.81-.39L589,74.88a.64.64,0,0,0-.39.81Z" fill="#1a9ae2"/><path d="M597.43,100.94h6l-9.86-27.67L589,74.88a.64.64,0,0,0-.39.81Z" fill="#0071bc"/><rect x="622.36" y="56.44" width="5.68" height="12.35" rx="1.31" ry="1.31" transform="translate(4.92 162.88) rotate(-14.9)" fill="#22353d"/><rect x="622.09" y="57.46" width="8.26" height="17.97" rx="1.91" ry="1.91" transform="matrix(0.97, -0.26, 0.26, 0.97, 3.96, 163.19)" fill="#b8c7d8"/><rect x="622.42" y="59.25" width="5.44" height="6.31" transform="translate(4.97 162.83) rotate(-14.9)" fill="#fff"/><path d="M629.26,68.55a2.41,2.41,0,1,1-3-1.71A2.41,2.41,0,0,1,629.26,68.55Z" fill="#fff"/><path d="M626.31,66.84l1.24,4.66a2.41,2.41,0,0,0-1.24-4.66Z" fill="#b8c7d8"/><path d="M629.44,68.27a2.65,2.65,0,0,0-3-1.72h0l-.22.06-.22.06h0a2.65,2.65,0,0,0-1.71,3h0l.06.22.06.22h0a2.65,2.65,0,0,0,3,1.72h0l.21-.06.22,0v0a2.67,2.67,0,0,0,1.72-3h0l-.06-.22-.06-.22Zm-.44.11-1.9.51-.51-1.9A2.2,2.2,0,0,1,629,68.38Zm-2.84-1.28.51,1.9-1.91.51A2.21,2.21,0,0,1,626.16,67.1ZM624.88,70l1.9-.51.51,1.9A2.21,2.21,0,0,1,624.88,70Zm2.84,1.28-.5-1.9,1.9-.51A2.2,2.2,0,0,1,627.72,71.23Z" fill="#22353d"/><path d="M626.3,69.33a.67.67,0,0,1,.47-.81l-.13-.47a1.15,1.15,0,1,0,.6,2.23l-.13-.47A.67.67,0,0,1,626.3,69.33Z" fill="#b8c7d8"/><path d="M626.3,69.33a.67.67,0,0,0,.81.48l-.34-1.29A.67.67,0,0,0,626.3,69.33Z" fill="#fff"/><path d="M628.06,68.87a1.15,1.15,0,0,0-1.42-.82l.13.47a.67.67,0,0,1,.34,1.29l.13.47A1.15,1.15,0,0,0,628.06,68.87Z" fill="#fff"/><path d="M627.58,69a.67.67,0,0,0-.81-.47l.34,1.29A.66.66,0,0,0,627.58,69Z" fill="#b8c7d8"/><rect x="624.91" y="72.07" width="6.16" height="2.07" rx="0.65" ry="0.65" transform="translate(2.32 163.97) rotate(-14.9)" fill="#b8c7d8"/><path d="M625.43,72.91a.46.46,0,0,0-.33.57l.19.73a.46.46,0,0,0,.57.33l4.69-1.25a.46.46,0,0,0,.33-.56l-.2-.74a.47.47,0,0,0-.56-.33Z" fill="#fff"/><path d="M626.38,73.53a.48.48,0,0,1-.34.59.49.49,0,0,1-.58-.34.48.48,0,0,1,.34-.59A.49.49,0,0,1,626.38,73.53Z" fill="#cc330a"/><polygon points="626.73 72.94 626.98 73.87 627.75 73.17 626.73 72.94" fill="#cc330a"/><rect x="628.21" y="72.44" width="0.95" height="0.95" transform="translate(2.4 164.2) rotate(-14.91)" fill="#cc330a"/><rect x="629.62" y="72.16" width="0.24" height="0.95" transform="translate(2.22 162.46) rotate(-14.73)" fill="#cc330a"/><rect x="630.29" y="71.98" width="0.24" height="0.95" transform="translate(2.65 165.13) rotate(-14.95)" fill="#cc330a"/><path d="M621.55,78.86a1.7,1.7,0,1,1,.31-3.38l.27,0s0,0,0,0a.07.07,0,0,0,0,0,1.68,1.68,0,0,1-1.53-1.85A1.7,1.7,0,0,1,622.46,72l8.39.8h0s0,0,0,0a18,18,0,0,0-.51-3.06,7.88,7.88,0,0,1-.31-2.78,2.52,2.52,0,0,1,2.79-2.3.77.77,0,0,1,.58.25c.2.25.19.61.12,1.33l0,.19c-.13,1.39.8,3.16,1.69,4.87.69,1.31,6.19,11,6.19,11l-5.65,3.25s0,0,0,0a1.71,1.71,0,0,1-1.86,1.53l-10.13-1a1.7,1.7,0,0,1-1.53-1.85,1.53,1.53,0,0,1,1.65-1.53s0,0,0,0a0,0,0,0,0,0,0l-1.22-.13a1.71,1.71,0,0,1-1.54-1.86c.1-1,.73-1.62,1.61-1.53a.07.07,0,0,0,0,0,0,0,0,0,0,0,0Z" fill="#42210b"/><path d="M656.87,100.94,638.12,78.22a8.12,8.12,0,0,0-11.44-1.09l19.65,23.81Z" fill="#42210b"/><path d="M641.37,100.94h16.12L641.14,80a.7.7,0,0,0-1-.13l-8.92,7a.7.7,0,0,0-.12,1Z" fill="#333332"/><path d="M641.37,100.94h8.47L635.7,83.29l-4.47,3.48a.7.7,0,0,0-.12,1Z" fill="#4c5054"/><path d="M663.78,49.85a1.87,1.87,0,1,0-3.29,1.76l.14.26s0,.05,0,.07a0,0,0,0,1-.06,0,1.86,1.86,0,0,0-3.28,1.77l4.39,8.14s0,0,0,0l0,0a19.29,19.29,0,0,1-3.31.79,8.48,8.48,0,0,0-2.93.88,2.76,2.76,0,0,0-1.14,3.8.92.92,0,0,0,.5.48c.34.09.7-.07,1.4-.45l.18-.1c1.35-.73,3.53-.55,5.64-.38a17.07,17.07,0,0,0,4.65,0s0,0,0,0l.73,1.35,10-5.4-.82-1.48a.06.06,0,0,1,0-.07,1.85,1.85,0,0,0,.75-2.52L672,49a1.86,1.86,0,0,0-2.53-.75,1.67,1.67,0,0,0-.84,2.31.06.06,0,0,1,0,.07,0,0,0,0,1-.06,0l-.66-1.17a1.88,1.88,0,0,0-2.54-.76,1.62,1.62,0,0,0-.86,2.28s0,.05,0,.06a0,0,0,0,1-.06,0Z" fill="#ffd098"/><path d="M683.35,100.94h14.49L677.91,63.07a.65.65,0,0,0-.88-.25l-10,5.66a.65.65,0,0,0-.25.88Z" fill="#ffaf10"/><path d="M655.37,48.28l1.14.68-1.15,1.22a.93.93,0,0,1-.68,1.14l-.87.22a.94.94,0,0,1-1.14-.68l1.15-1.22.68-1.14Z" fill="#cc330a"/><path d="M658.62,47.46l1.15.68-1.15,1.22a1,1,0,0,1-.68,1.14l-.88.22a.94.94,0,0,1-1.14-.68l1.15-1.22.68-1.14Z" fill="#cc330a"/><path d="M661.88,46.64l1.14.68-1.15,1.22a.94.94,0,0,1-.68,1.14l-.87.22a.93.93,0,0,1-1.14-.68L660.32,48l.69-1.14Z" fill="#cc330a"/><rect x="652.05" y="47.58" width="22.61" height="13.48" rx="1.88" ry="1.88" transform="translate(6.84 163.77) rotate(-14.15)" fill="#22353d"/><rect x="652.75" y="49.46" width="11.31" height="12.23" rx="1.88" ry="1.88" transform="translate(6.39 162.63) rotate(-14.15)" fill="#b8c7d8"/><rect x="664.47" y="46.68" width="9.45" height="12.36" rx="1.88" ry="1.88" transform="translate(7.37 165.11) rotate(-14.14)" fill="#22353d"/><rect x="665.63" y="48.2" width="3.62" height="10.2" transform="translate(7.22 164.74) rotate(-14.15)" fill="#cc330a"/><path d="M668.33,49.42a1.69,1.69,0,0,1,2,1.22l.91,3.61a1.67,1.67,0,0,1-1.22,2h0a1.67,1.67,0,0,1-2-1.21l-.91-3.61a1.68,1.68,0,0,1,1.21-2Z" fill="#fff"/><path d="M667.12,51.46l.91,3.61a1.67,1.67,0,0,0,2,1.21l-1.73-6.86A1.68,1.68,0,0,0,667.12,51.46Z" fill="#b8c7d8"/><path d="M668.5,50.09a1,1,0,1,1-.72,1.21A1,1,0,0,1,668.5,50.09Z" fill="#22353d"/><path d="M669.41,53.68a1,1,0,1,1-.73,1.21A1,1,0,0,1,669.41,53.68Z" fill="#22353d"/><path d="M674.08,57.12l-.07,0-7,1.77a.25.25,0,0,1-.29-.18l-2.49-9.89a.25.25,0,0,1,.17-.29l7-1.77a.24.24,0,0,1,.29.18l2.5,9.88a.31.31,0,0,1,0,.19A.3.3,0,0,1,674.08,57.12Zm-7,1.27,6.55-1.65-2.37-9.42L664.73,49Z" fill="#fff"/><path d="M653.12,51.86a.43.43,0,0,1,.84-.21.44.44,0,0,1-.31.53A.44.44,0,0,1,653.12,51.86Zm1.59-.4a.42.42,0,0,1,.31-.52.43.43,0,0,1,.53.31.43.43,0,1,1-.84.21Zm1.59-.4a.42.42,0,0,1,.31-.52.43.43,0,1,1,.21.84A.43.43,0,0,1,656.3,51.06Zm1.58-.4a.44.44,0,1,1,.85-.21.44.44,0,0,1-.32.53A.44.44,0,0,1,657.88,50.66Zm-5.27,2.53a.43.43,0,0,1,.84-.21.43.43,0,1,1-.84.21Zm1.59-.4a.42.42,0,0,1,.32-.52.43.43,0,0,1,.52.31.44.44,0,0,1-.31.53A.43.43,0,0,1,654.2,52.79Zm1.59-.4a.44.44,0,0,1,.31-.53.45.45,0,0,1,.53.32.44.44,0,0,1-.32.53A.43.43,0,0,1,655.79,52.39Zm1.58-.4a.44.44,0,1,1,.85-.21.44.44,0,0,1-.32.53A.44.44,0,0,1,657.37,52Zm-3.65,2.24a.42.42,0,0,1,.31-.52.43.43,0,0,1,.53.31.44.44,0,0,1-.31.53A.43.43,0,0,1,653.72,54.23Zm1.59-.4a.42.42,0,0,1,.31-.52.43.43,0,1,1,.21.84A.43.43,0,0,1,655.31,53.83Zm1.58-.4a.44.44,0,0,1,.85-.21.45.45,0,0,1-.32.53A.44.44,0,0,1,656.89,53.43Zm1.59-.4a.43.43,0,0,1,.84-.21.43.43,0,1,1-.84.21Zm-5.26,2.57a.43.43,0,1,1,.84-.21.42.42,0,0,1-.31.52A.43.43,0,0,1,653.22,55.6Zm1.59-.4a.43.43,0,1,1,.84-.21.42.42,0,0,1-.32.52A.43.43,0,0,1,654.81,55.2Zm1.58-.4a.45.45,0,0,1,.32-.53.44.44,0,0,1,.53.32.43.43,0,0,1-.32.52A.44.44,0,0,1,656.39,54.8Zm1.59-.4a.44.44,0,1,1,.53.31A.44.44,0,0,1,658,54.4Zm-3.66,2.2a.43.43,0,0,1,.31-.52.43.43,0,1,1,.21.84A.43.43,0,0,1,654.32,56.6Zm1.58-.4a.44.44,0,1,1,.53.32A.44.44,0,0,1,655.9,56.2Zm1.59-.4a.43.43,0,0,1,.84-.21.43.43,0,1,1-.84.21Zm1.59-.4a.42.42,0,0,1,.31-.52.43.43,0,0,1,.53.31.44.44,0,0,1-.31.53A.43.43,0,0,1,659.08,55.4ZM653.83,58a.43.43,0,1,1,.84-.21.43.43,0,0,1-.84.21Zm1.58-.4a.45.45,0,0,1,.32-.53.43.43,0,1,1-.32.53Zm1.59-.4a.44.44,0,0,1,.32-.53.42.42,0,0,1,.52.31.43.43,0,0,1-.31.53A.44.44,0,0,1,657,57.21Zm1.59-.4a.43.43,0,1,1,.53.31A.43.43,0,0,1,658.59,56.81ZM654.91,59a.44.44,0,0,1,.85-.21.45.45,0,0,1-.32.53A.44.44,0,0,1,654.91,59Zm1.59-.4a.43.43,0,0,1,.84-.21.43.43,0,1,1-.84.21Zm1.59-.4a.42.42,0,0,1,.31-.52.43.43,0,0,1,.53.31.44.44,0,0,1-.31.53A.43.43,0,0,1,658.09,58.17Zm1.59-.4a.42.42,0,0,1,.31-.52.43.43,0,1,1,.21.84A.43.43,0,0,1,659.68,57.77Zm-5.25,2.64a.44.44,0,0,1,.85-.21.45.45,0,0,1-.32.53A.44.44,0,0,1,654.43,60.41ZM656,60a.43.43,0,0,1,.84-.21A.43.43,0,1,1,656,60Zm1.59-.4a.43.43,0,0,1,.31-.52.43.43,0,1,1-.31.52Zm1.59-.4a.42.42,0,0,1,.31-.52A.44.44,0,0,1,660,59a.43.43,0,0,1-.32.53A.42.42,0,0,1,659.2,59.21Zm-3.69,2.13a.43.43,0,0,1,.84-.21.43.43,0,1,1-.84.21Zm1.59-.4a.43.43,0,0,1,.31-.52.43.43,0,0,1,.53.31.44.44,0,0,1-.31.53A.43.43,0,0,1,657.1,60.94Zm1.59-.4A.43.43,0,0,1,659,60a.43.43,0,1,1,.21.84A.43.43,0,0,1,658.69,60.54Zm1.58-.4a.44.44,0,0,1,.85-.21.44.44,0,0,1-.85.21Z" fill="#152328"/><path d="M656.32,51.06a.43.43,0,0,1,.32-.53.43.43,0,0,1,.52.31.43.43,0,0,1-.31.53A.44.44,0,0,1,656.32,51.06Zm1.59-.4a.43.43,0,1,1,.53.31A.43.43,0,0,1,657.91,50.66Zm1.59-.4a.43.43,0,0,1,.31-.53.44.44,0,0,1,.53.31.43.43,0,0,1-.32.53A.43.43,0,0,1,659.5,50.26Zm1.58-.4a.45.45,0,0,1,.32-.53.44.44,0,0,1,.53.31.45.45,0,0,1-.32.53A.44.44,0,0,1,661.08,49.86Zm-5.27,2.53a.43.43,0,0,1,.32-.53.42.42,0,0,1,.52.31.43.43,0,0,1-.31.53A.44.44,0,0,1,655.81,52.39Zm1.59-.4a.43.43,0,1,1,.53.31A.43.43,0,0,1,657.4,52Zm1.59-.4a.43.43,0,1,1,.52.31A.43.43,0,0,1,659,51.59Zm1.58-.4a.45.45,0,0,1,.32-.53.44.44,0,0,1,.53.31.43.43,0,0,1-.32.53A.44.44,0,0,1,660.57,51.19Zm-3.65,2.24a.43.43,0,1,1,.53.31A.43.43,0,0,1,656.92,53.43Zm1.59-.4a.43.43,0,0,1,.31-.53.44.44,0,0,1,.53.31.43.43,0,0,1-.32.53A.43.43,0,0,1,658.51,53Zm1.58-.4a.44.44,0,0,1,.85-.22.45.45,0,0,1-.32.53A.44.44,0,0,1,660.09,52.63Zm1.59-.4a.43.43,0,0,1,.32-.53.42.42,0,0,1,.52.31.43.43,0,0,1-.31.53A.44.44,0,0,1,661.68,52.23Zm-5.26,2.56a.42.42,0,0,1,.31-.52.43.43,0,0,1,.53.31.44.44,0,0,1-.31.53A.43.43,0,0,1,656.42,54.79Zm1.59-.4a.42.42,0,0,1,.31-.52.43.43,0,1,1,.21.84A.42.42,0,0,1,658,54.39Zm1.58-.4a.43.43,0,0,1,.32-.52.44.44,0,0,1,.53.31.44.44,0,0,1-.32.53A.44.44,0,0,1,659.59,54Zm1.59-.4a.43.43,0,0,1,.84-.21.43.43,0,1,1-.84.21Zm-3.66,2.21a.43.43,0,0,1,.31-.53.44.44,0,0,1,.53.31.43.43,0,0,1-.32.53A.42.42,0,0,1,657.52,55.8Zm1.58-.4a.45.45,0,0,1,.32-.53.44.44,0,0,1,.53.31.45.45,0,0,1-.32.53A.44.44,0,0,1,659.1,55.4Zm1.59-.4a.43.43,0,0,1,.32-.53.43.43,0,0,1,.52.31.43.43,0,0,1-.31.53A.44.44,0,0,1,660.69,55Zm1.59-.4a.43.43,0,1,1,.53.31A.43.43,0,0,1,662.28,54.6ZM657,57.2a.44.44,0,0,1,.31-.53.45.45,0,0,1,.53.32.43.43,0,1,1-.84.21Zm1.58-.4a.44.44,0,0,1,.32-.53.45.45,0,0,1,.53.32.44.44,0,0,1-.32.53A.45.45,0,0,1,658.61,56.8Zm1.59-.4a.43.43,0,1,1,.53.32A.45.45,0,0,1,660.2,56.4Zm1.59-.4a.43.43,0,1,1,.53.32A.45.45,0,0,1,661.79,56Zm-3.68,2.17a.45.45,0,0,1,.32-.53A.44.44,0,0,1,659,58a.44.44,0,0,1-.85.21Zm1.59-.4a.43.43,0,0,1,.32-.53.42.42,0,0,1,.52.32.43.43,0,0,1-.31.52A.44.44,0,0,1,659.7,57.77Zm1.59-.4a.43.43,0,1,1,.84-.21.43.43,0,0,1-.31.52A.43.43,0,0,1,661.29,57.37Zm1.59-.4a.43.43,0,1,1,.84-.21.43.43,0,0,1-.84.21Zm-5.25,2.64a.44.44,0,0,1,.32-.53.42.42,0,0,1,.52.32.43.43,0,0,1-.31.52A.44.44,0,0,1,657.63,59.61Zm1.59-.4a.44.44,0,0,1,.31-.53.43.43,0,0,1,.53.32.43.43,0,0,1-.31.52A.43.43,0,0,1,659.22,59.21Zm1.59-.4a.44.44,0,0,1,.31-.53.43.43,0,0,1,.53.32.42.42,0,0,1-.32.52A.43.43,0,0,1,660.81,58.81Zm1.59-.4a.43.43,0,1,1,.84-.21.43.43,0,0,1-.84.21Zm-3.69,2.13A.43.43,0,0,1,659,60a.43.43,0,0,1,.21.84A.44.44,0,0,1,658.71,60.54Zm1.59-.4a.43.43,0,1,1,.84-.21.43.43,0,0,1-.31.52A.43.43,0,0,1,660.3,60.14Zm1.59-.4a.43.43,0,1,1,.84-.21.43.43,0,0,1-.84.21Zm1.58-.4a.45.45,0,0,1,.32-.53.44.44,0,0,1,.53.32.44.44,0,0,1-.85.21Z" fill="#152328"/><path d="M683.35,100.94h7.11L671.93,65.69,667,68.48a.65.65,0,0,0-.25.88Z" fill="#ef9900"/><rect x="712" y="57.34" width="3.07" height="1.28" fill="#152328"/><path d="M707.12,60.3a1.38,1.38,0,0,0,1.13-.89,2.1,2.1,0,0,1,1.92-1.23h7.08a2.11,2.11,0,0,1,1.92,1.22,1.37,1.37,0,0,0,1.13.9h3.23a3.26,3.26,0,0,1,3.26,3.26V77.92a3.25,3.25,0,0,1-3.25,3.26H703.61a3.25,3.25,0,0,1-3.26-3.25V63.56a3.26,3.26,0,0,1,3.25-3.25Z" fill="#22353d"/><path d="M705.75,66l9.74,9.91-5.29,5.29h-6.59a3.25,3.25,0,0,1-3.26-3.25V71.39Z" fill="#152328"/><path d="M723.07,60.3h.12a3.46,3.46,0,0,0-1.43,2.8V78.38a3.46,3.46,0,0,0,1.44,2.8h-.12a3.26,3.26,0,0,1-3.26-3.26V63.56A3.26,3.26,0,0,1,723.07,60.3Z" fill="#152328"/><path d="M710.79,77.68a6.94,6.94,0,1,0-6.93-6.94A6.94,6.94,0,0,0,710.79,77.68Z" fill="#152328"/><rect x="712.37" y="59.32" width="2.95" height="1.1" rx="0.46" ry="0.46" fill="#fff"/><path d="M704.55,70.78a6.19,6.19,0,1,1,6.2,6.18A6.19,6.19,0,0,1,704.55,70.78Z" fill="#14b0bf"/><path d="M704.55,70.78a6.19,6.19,0,1,0,6.19-6.19A6.2,6.2,0,0,0,704.55,70.78Zm1.51,0a4.69,4.69,0,1,1,4.68,4.68A4.69,4.69,0,0,1,706.06,70.78Z" fill="#2c5871"/><path d="M713,68.56a4.25,4.25,0,0,0-4.22-1.07,3.77,3.77,0,0,1,5.37,5A4.25,4.25,0,0,0,713,68.56Z" fill="#fff"/><rect x="709.48" y="43.74" width="8.09" height="13.78" rx="1.45" ry="1.45" fill="#22353d"/><path d="M717.15,48.76l-7.63,7.63a1.55,1.55,0,0,1,0-.31V47.21Z" fill="#152328"/><rect x="709.48" y="43.74" width="8.09" height="5.44" rx="1.45" ry="1.45" fill="#2c5871"/><rect x="713.62" y="44.67" width="1.88" height="3.59" fill="#fff"/><rect x="711.56" y="44.67" width="1.88" height="3.59" fill="#fff"/><path d="M710.93,44.67h.45v3.59h-.45a.52.52,0,0,1-.52-.52V45.19A.52.52,0,0,1,710.93,44.67Z" fill="#fff"/><path d="M715.68,44.67h.45a.52.52,0,0,1,.52.52v2.55a.52.52,0,0,1-.52.51h-.45Z" fill="#fff"/><path d="M718.6,73a1.7,1.7,0,1,1,.07-3.4h.27a0,0,0,0,0,0,0,0,0,0,0,0,0,0,1.7,1.7,0,1,1,.08-3.4l8.43.19,0,0s0,0,0,0a18.09,18.09,0,0,0-.73-3,7.82,7.82,0,0,1-.51-2.75,2.53,2.53,0,0,1,2.62-2.5.84.84,0,0,1,.59.21c.22.24.24.6.22,1.32v.19c0,1.39,1,3.09,2,4.73a61.42,61.42,0,0,0,4.06,4.85l-2.5,9.28s0,0,0,0a1.7,1.7,0,0,1-1.73,1.66L721.31,80a1.7,1.7,0,0,1-1.66-1.73,1.53,1.53,0,0,1,1.53-1.65,0,0,0,0,0,.05,0,0,0,0,0,0,0,0l-1.23,0a1.71,1.71,0,0,1-1.67-1.74,1.47,1.47,0,0,1,1.49-1.64,0,0,0,1,0,0-.09Z" fill="#c69c6d"/><path d="M744.51,100.94l-7.62-29.6c-1.12-4.35-6.3-3.86-10.65-2.74l8.41,32.34Z" fill="#c69c6d"/><path d="M733.15,100.94h13.18l-6.11-22.46a.71.71,0,0,0-.87-.49l-10.91,3a.7.7,0,0,0-.5.86Z" fill="#9160a5"/><path d="M746.33,100.94l-6.11-22.46a.71.71,0,0,0-.87-.49l-5.58,1.52,5.62,21.43Z" fill="#ae75c3"/><path d="M725.9,15.55a1.86,1.86,0,1,0-3.08,2.09l.17.25a0,0,0,0,1,0,.07s-.06,0-.07,0a1.86,1.86,0,1,0-3.08,2.1l5.23,7.63a0,0,0,0,1,0,0,.05.05,0,0,1,0,0,19.47,19.47,0,0,1-3.22,1.13A8.57,8.57,0,0,0,719,30.08a2.75,2.75,0,0,0-.73,3.89.83.83,0,0,0,.55.42c.35.06.69-.14,1.34-.59l.17-.12c1.26-.86,3.45-.91,5.57-1a17.52,17.52,0,0,0,4.62-.53s0,0,0,0l.86,1.26,9.36-6.42-1-1.38a0,0,0,0,1,0-.07,1.86,1.86,0,0,0,.49-2.59L734,13.82a1.86,1.86,0,0,0-2.59-.48,1.67,1.67,0,0,0-.6,2.39,0,0,0,0,1,0,.07.06.06,0,0,1-.07,0l-.78-1.1a1.85,1.85,0,0,0-2.59-.49,1.62,1.62,0,0,0-.62,2.35,0,0,0,0,1,0,.07s-.06,0-.07,0Z" fill="#c69c6d"/><path d="M755.94,49,741.46,27.13a.65.65,0,0,0-.9-.16l-9.43,6.65a.64.64,0,0,0-.15.9l25,38.19Z" fill="#324d5c"/><rect x="720.68" y="13.32" width="2.78" height="2.78" rx="0.94" ry="0.94" transform="translate(39.22 249.89) rotate(-20.17)" fill="#22353d"/><rect x="723.83" y="12.16" width="2.78" height="2.78" rx="0.94" ry="0.94" transform="translate(39.93 251.25) rotate(-20.2)" fill="#22353d"/><rect x="726.98" y="11" width="2.78" height="2.78" rx="0.94" ry="0.94" transform="translate(40.31 251.66) rotate(-20.15)" fill="#22353d"/><path d="M734,10a1.89,1.89,0,0,1,2.42,1.11l3.35,9.13a1.87,1.87,0,0,1-1.12,2.41L721,29.13A1.88,1.88,0,0,1,718.56,28l-3.36-9.12a1.88,1.88,0,0,1,1.12-2.41Z" fill="#b8c7d8"/><rect x="717.15" y="15.77" width="8.02" height="12.23" rx="1.88" ry="1.88" transform="translate(36.67 249.96) rotate(-20.17)" fill="#22353d"/><rect x="725.21" y="13.4" width="12.36" height="9.45" rx="1.88" ry="1.88" transform="matrix(0.94, -0.34, 0.34, 0.94, 38.6, 253.28)" fill="#22353d"/><rect x="725.66" y="14.62" width="10.2" height="3.62" transform="matrix(0.94, -0.34, 0.34, 0.94, 39.15, 252.97)" fill="#14b0bf"/><path d="M734.71,16.9a1.67,1.67,0,0,1-1,2.15l-3.5,1.29a1.68,1.68,0,0,1-2.15-1h0a1.67,1.67,0,0,1,1-2.14l3.5-1.29a1.68,1.68,0,0,1,2.15,1Z" fill="#fff"/><path d="M732.56,15.91l-3.5,1.29a1.67,1.67,0,0,0-1,2.14l6.65-2.44A1.68,1.68,0,0,0,732.56,15.91Z" fill="#b8c7d8"/><path d="M734.06,17.14a1,1,0,1,1-1.28-.59A1,1,0,0,1,734.06,17.14Z" fill="#22353d"/><path d="M730.58,18.42a1,1,0,1,1-1.28-.59A1,1,0,0,1,730.58,18.42Z" fill="#22353d"/><path d="M737.66,19.77a.23.23,0,0,1-.16.22l-9.57,3.52a.22.22,0,0,1-.18,0,.25.25,0,0,1-.13-.14l-2.49-6.79a.24.24,0,0,1,.14-.31l9.57-3.52a.25.25,0,0,1,.19,0,.28.28,0,0,1,.12.14l2.5,6.79A.28.28,0,0,1,737.66,19.77ZM728,23l9.12-3.35-2.33-6.34-9.12,3.35Z" fill="#fff"/><path d="M717.06,18.18a.43.43,0,0,1,.26-.56.43.43,0,0,1,.55.26.44.44,0,0,1-.25.56A.44.44,0,0,1,717.06,18.18Zm1.54-.57a.42.42,0,0,1,.25-.55.43.43,0,1,1,.3.81A.42.42,0,0,1,718.6,17.61Zm1.53-.56a.44.44,0,1,1,.56.26A.45.45,0,0,1,720.13,17.05Zm1.54-.56a.43.43,0,0,1,.26-.56.43.43,0,0,1,.3.81A.43.43,0,0,1,721.67,16.49Zm-5,3.06a.44.44,0,0,1,.82-.3.44.44,0,0,1-.26.56A.43.43,0,0,1,716.69,19.55Zm1.54-.56a.44.44,0,0,1,.26-.56.44.44,0,0,1,.3.82A.43.43,0,0,1,718.23,19Zm1.53-.56a.44.44,0,0,1,.26-.56.43.43,0,0,1,.56.26.42.42,0,0,1-.26.55A.44.44,0,0,1,719.76,18.43Zm1.54-.57a.45.45,0,0,1,.26-.56.44.44,0,0,1,.56.26.44.44,0,1,1-.82.3Zm-3.4,2.61a.43.43,0,0,1,.26-.55.44.44,0,0,1,.56.25.44.44,0,0,1-.26.56A.43.43,0,0,1,717.9,20.47Zm1.54-.56a.43.43,0,0,1,.26-.56.43.43,0,0,1,.55.26.44.44,0,0,1-.25.56A.44.44,0,0,1,719.44,19.91Zm1.54-.57a.42.42,0,0,1,.25-.55.43.43,0,1,1-.25.55Zm1.53-.56a.45.45,0,0,1,.26-.56.44.44,0,0,1,.3.82A.45.45,0,0,1,722.51,18.78Zm-5,3.11a.43.43,0,0,1,.26-.56.43.43,0,0,1,.3.81A.43.43,0,0,1,717.55,21.89Zm1.54-.57a.43.43,0,1,1,.55.26A.43.43,0,0,1,719.09,21.32Zm1.53-.56a.44.44,0,1,1,.56.25A.43.43,0,0,1,720.62,20.76Zm1.54-.57a.44.44,0,0,1,.26-.56.43.43,0,0,1,.55.26.43.43,0,0,1-.25.56A.43.43,0,0,1,722.16,20.19Zm-3.42,2.58a.44.44,0,0,1,.26-.56.43.43,0,0,1,.56.26.44.44,0,0,1-.26.56A.45.45,0,0,1,718.74,22.77Zm1.54-.57a.43.43,0,0,1,.26-.55.44.44,0,0,1,.56.25.44.44,0,0,1-.26.56A.43.43,0,0,1,720.28,22.2Zm1.54-.56a.43.43,0,0,1,.26-.56.43.43,0,0,1,.55.26.43.43,0,0,1-.25.56A.44.44,0,0,1,721.82,21.64Zm1.54-.57a.42.42,0,0,1,.25-.55.43.43,0,0,1,.56.25.43.43,0,0,1-.26.56A.43.43,0,0,1,723.36,21.07Zm-5,3.15a.44.44,0,0,1,.26-.56.43.43,0,0,1,.56.26.43.43,0,0,1-.26.55A.44.44,0,0,1,718.4,24.22Zm1.54-.57a.44.44,0,0,1,.26-.56.45.45,0,0,1,.56.26.44.44,0,0,1-.26.56A.43.43,0,0,1,719.94,23.65Zm1.54-.56a.43.43,0,1,1,.81-.3.43.43,0,0,1-.81.3Zm1.53-.57a.43.43,0,0,1,.26-.55.43.43,0,0,1,.56.25.43.43,0,0,1-.26.56A.44.44,0,0,1,723,22.52Zm-3.42,2.54a.43.43,0,0,1,.26-.55.42.42,0,0,1,.55.25.43.43,0,1,1-.81.3Zm1.53-.56a.44.44,0,0,1,.26-.56.43.43,0,0,1,.56.26.44.44,0,0,1-.26.56A.45.45,0,0,1,721.12,24.5Zm1.54-.57a.43.43,0,0,1,.26-.55.44.44,0,0,1,.56.25.44.44,0,0,1-.26.56A.43.43,0,0,1,722.66,23.93Zm1.54-.56a.43.43,0,0,1,.26-.56.43.43,0,0,1,.55.26.43.43,0,0,1-.25.56A.44.44,0,0,1,724.2,23.37Zm-4.94,3.18a.43.43,0,0,1,.26-.56.44.44,0,0,1,.56.26.43.43,0,0,1-.26.55A.43.43,0,0,1,719.26,26.55ZM720.8,26a.44.44,0,0,1,.25-.56.44.44,0,0,1,.56.26.43.43,0,1,1-.81.3Zm1.53-.56a.44.44,0,0,1,.26-.56.43.43,0,0,1,.56.26.44.44,0,0,1-.26.56A.45.45,0,0,1,722.33,25.42Zm1.54-.57a.44.44,0,0,1,.26-.56.45.45,0,0,1,.56.26.44.44,0,0,1-.26.56A.43.43,0,0,1,723.87,24.85Zm-3.44,2.51a.43.43,0,0,1,.26-.56.44.44,0,0,1,.56.26.43.43,0,0,1-.26.55A.43.43,0,0,1,720.43,27.36Zm1.54-.57a.43.43,0,0,1,.81-.3.43.43,0,1,1-.81.3Zm1.53-.56a.44.44,0,0,1,.26-.56.43.43,0,0,1,.56.26.44.44,0,0,1-.26.56A.45.45,0,0,1,723.5,26.23Zm1.54-.57a.43.43,0,0,1,.26-.55.44.44,0,0,1,.56.25.44.44,0,0,1-.26.56A.43.43,0,0,1,725,25.66Z" fill="#152328"/><path d="M755.94,60,735.59,30.48l-4.46,3.14a.64.64,0,0,0-.15.9l25,38.19Z" fill="#22353d"/></svg>