<svg xmlns="http://www.w3.org/2000/svg" width="370" height="126" viewBox="0 0 370 126"><title>microphones-mobile</title><path d="M313.84,68.24l1.36,12.2,1.08,9.76a2.52,2.52,0,0,0,2.5,2.24h1.79a2.53,2.53,0,0,0,2.51-2.24L324.31,79l1.25-11.17Z" fill="#484c65"/><path d="M325.56,67.84l-.14,1.22-.34,3.16h0l-.76,6.8L323.08,90.2a2.53,2.53,0,0,1-2.51,2.24h-.89V68Z" fill="#33374a"/><path d="M313.84,68.24l.44,4a6.25,6.25,0,0,0,2.25.42h6.29a6.12,6.12,0,0,0,2.25-.42l.49-4.36Z" fill="#292b38"/><path d="M312.76,61.23v5.11a3.77,3.77,0,0,0,3.77,3.77h6.29a3.77,3.77,0,0,0,3.78-3.77V61.23Z" fill="#dfe3ea"/><path d="M326.6,64.38v2a3.8,3.8,0,0,1-3.78,3.77h-3.14V64.38Z" fill="#8da2ad"/><path d="M312.76,65.2a15.64,15.64,0,0,0,6.92,1.46,15.8,15.8,0,0,0,6.92-1.48v-4H312.76Z" fill="#5f7991"/><path d="M327.85,49.36V60.05c0,2.26-3.66,4.09-8.17,4.09s-8.18-1.83-8.18-4.09V49.36c0-2.26,3.66-4.09,8.18-4.1S327.85,47.1,327.85,49.36Z" fill="#484c65"/><path d="M323.51,45.74c1.84.75,3,1.89,3,3.17V59.6c0,2.26-3.66,4.09-8.18,4.1a15.19,15.19,0,0,1-3.83-.49,13.76,13.76,0,0,0,5.17.93c4.51,0,8.17-1.83,8.17-4.09V49.36C327.85,47.79,326.09,46.43,323.51,45.74Z" fill="#33374a"/><path d="M319.68,47.15c-3.41,0-5.71,1.18-6.2,2l-.09.15V58.9a.63.63,0,1,0,1.25,0V49.68a8.5,8.5,0,0,1,5-1.27.63.63,0,0,0,.63-.63A.64.64,0,0,0,319.68,47.15Z" fill="#8da2ad"/><path d="M316.1,86.43l3.64,1.51a2.1,2.1,0,0,1,1.13,2.74h0a2.1,2.1,0,0,1-2.74,1.13L314.5,90.3a2.08,2.08,0,0,1-1.13-2.73h0A2.09,2.09,0,0,1,316.1,86.43Z" fill="#f9a67f"/><path d="M319.33,88.9a1,1,0,1,1-.8,1.94l-1-.4.81-1.94Z" fill="#ffd9c7"/><path d="M314.65,81.29l4.85,2A2.1,2.1,0,0,1,320.63,86h0a2.1,2.1,0,0,1-2.74,1.13l-4.84-2a2.1,2.1,0,0,1-1.14-2.74h0A2.1,2.1,0,0,1,314.65,81.29Z" fill="#f9a67f"/><path d="M319.09,84.27a1,1,0,1,1-.8,1.93l-1-.4.81-1.94Z" fill="#ffd9c7"/><path d="M314.65,76.75l4.85,2a2.1,2.1,0,0,1,1.13,2.74h0a2.09,2.09,0,0,1-2.74,1.13l-4.84-2a2.1,2.1,0,0,1-1.14-2.74h0A2.1,2.1,0,0,1,314.65,76.75Z" fill="#f9a67f"/><path d="M319.09,79.73a1,1,0,1,1-.8,1.93l-1-.4.81-1.93Z" fill="#ffd9c7"/><path d="M314.66,72.21l3.63,1.51a2.1,2.1,0,0,1,1.13,2.74h0a2.1,2.1,0,0,1-2.74,1.13l-3.63-1.5a2.09,2.09,0,0,1-1.13-2.74h0A2.1,2.1,0,0,1,314.66,72.21Z" fill="#f9a67f"/><path d="M317.89,74.69a1,1,0,1,1-.81,1.93l-1-.4.81-1.94Z" fill="#ffd9c7"/><path d="M333.11,93.46l-1.53-3.7a15.71,15.71,0,0,0-1.13-9c-1.25-2.82-1.88-4.4-3.9-8.91a2.1,2.1,0,0,0-2.74-1.13h0a2.09,2.09,0,0,0-1.13,2.74l1.81,4-.33,3-1.08,9.76a2.52,2.52,0,0,1-2.51,2.24h-.92l2,.85,1.73,4.18Z" fill="#f9a67f"/><path d="M332.79,91.32l-10.65,4.41A2.1,2.1,0,0,0,321,98.47L334,129.76h17l-15.44-37.3A2.1,2.1,0,0,0,332.79,91.32Z" fill="#479aad"/><path d="M332.79,91.32l-5.33,2.21,15,36.23H351l-15.47-37.3A2.1,2.1,0,0,0,332.79,91.32Z" fill="#60bcd8"/><path d="M264.2,69.52l3.95,4.7,5.27,6.26a2.1,2.1,0,0,0,2.77.4l1.24-.83a2.1,2.1,0,0,0,.7-2.71L273.81,69l-2.28-4.4Z" fill="#484c65"/><path d="M271.53,64.62l1,1.87L273.81,69l4.32,8.32a2.1,2.1,0,0,1-.7,2.71l-.62.41-8.94-13.39Z" fill="#33374a"/><polygon points="265.56 71.13 272.5 66.5 271.53 64.62 264.2 69.52 265.56 71.13" fill="#292b38"/><path d="M264,49.49l2.91,4.36A6.55,6.55,0,0,1,256,61.12l-2.91-4.35A6.55,6.55,0,0,1,264,49.49Z" fill="#8da2ad"/><path d="M258.43,63.29A6.55,6.55,0,0,0,268,56.91Z" fill="#5f7991"/><path d="M255.14,59.82,266,52.54a1,1,0,1,0-1.16-1.74L254,58.07a1.06,1.06,0,0,0-.29,1.46A1,1,0,0,0,255.14,59.82Z" fill="#dfe3ea"/><path d="M266.91,53.85,266,52.54h0l-10.89,7.28.87,1.3a4.63,4.63,0,0,0,.32.42l10.85-7.24A4.87,4.87,0,0,0,266.91,53.85Z" fill="#5f7991"/><path d="M256.37,49.86A4,4,0,0,0,254.72,54a.51.51,0,0,1-.22.55.51.51,0,0,1-.8-.32A5,5,0,0,1,255.78,49a.53.53,0,1,1,.59.87Z" fill="#dfe3ea"/><rect x="257.82" y="59.87" width="15.72" height="7.86" rx="1.57" ry="1.57" transform="matrix(0.83, -0.56, 0.56, 0.83, 9.32, 158.33)" fill="#484c65"/><path d="M270.91,57.48l2.62,3.92a1.58,1.58,0,0,1-.44,2.18l-5.22,3.49-4.37-6.53,5.23-3.5A1.58,1.58,0,0,1,270.91,57.48Z" fill="#33374a"/><rect x="258.87" y="60.92" width="13.63" height="5.76" rx="0.52" ry="0.52" transform="translate(9.32 158.33) rotate(-33.74)" fill="#c32b45"/><path d="M269.31,57.91l-10.46,7a.53.53,0,0,0-.14.73L270,58.06A.53.53,0,0,0,269.31,57.91Z" fill="#ab263c"/><path d="M267.21,62.78a1.83,1.83,0,1,1-3,2,1.82,1.82,0,0,1,.5-2.54A1.84,1.84,0,0,1,267.21,62.78Z" fill="#dfe3ea"/><path d="M277.65,74.65,274,77.07a1.76,1.76,0,0,0-.48,2.43h0A1.75,1.75,0,0,0,276,80l3.64-2.43a1.75,1.75,0,0,0,.48-2.42h0A1.75,1.75,0,0,0,277.65,74.65Z" fill="#f9a67f"/><path d="M277.53,70.53l-5.45,3.64a1.74,1.74,0,0,0-.48,2.42h0a1.74,1.74,0,0,0,2.42.48l5.45-3.64A1.74,1.74,0,0,0,280,71h0A1.74,1.74,0,0,0,277.53,70.53Z" fill="#f9a67f"/><path d="M275.59,67.62l-5.45,3.64a1.75,1.75,0,0,0-.48,2.43h0a1.75,1.75,0,0,0,2.42.48l5.45-3.64a1.74,1.74,0,0,0,.48-2.42h0A1.74,1.74,0,0,0,275.59,67.62Z" fill="#f9a67f"/><path d="M273.65,64.72,270,67.15a1.74,1.74,0,0,0-.49,2.42h0a1.75,1.75,0,0,0,2.43.48l3.63-2.43a1.74,1.74,0,0,0,.48-2.42h0A1.74,1.74,0,0,0,273.65,64.72Z" fill="#f9a67f"/><path d="M270.5,67.87a.87.87,0,1,0,1,1.45l.73-.48-1-1.45Z" fill="#ffd9c7"/><path d="M270.63,72a.87.87,0,1,0,1,1.45l.72-.48-1-1.46Z" fill="#ffd9c7"/><path d="M272.57,74.89a.88.88,0,0,0,1,1.46l.72-.49-1-1.45Z" fill="#ffd9c7"/><path d="M274.51,77.8a.87.87,0,1,0,1,1.45l.73-.48-1-1.46Z" fill="#ffd9c7"/><path d="M276.19,80.88a2.1,2.1,0,0,1-2.77-.4l-5.27-6.26-3.69-4.4a7.86,7.86,0,0,0,.72,7.38l1.73,2.59a6.09,6.09,0,0,1,1,3.39v2.43h7.86V81.14l1-.68h0Z" fill="#f9a67f"/><path d="M276.67,83.3h-9.61a1.75,1.75,0,0,0-1.74,1.75v44.71h13.1V85.05A1.75,1.75,0,0,0,276.67,83.3Z" fill="#333332"/><path d="M276.67,83.3h-4.8v46.46h6.55V85.05A1.75,1.75,0,0,0,276.67,83.3Z" fill="#4c5054"/><path d="M195.5,82.09l-.31,3.58-.78,9a2.33,2.33,0,0,0,1.87,2.48l1.62.32a2.33,2.33,0,0,0,2.67-1.58L203.71,86l.6-1.87Z" fill="#484c65"/><path d="M204.3,84.16l-.1.31L203.71,86l-.23.74-2.91,9.17a2.33,2.33,0,0,1-2.67,1.58l-.81-.16L199.36,86l.56-2.82Z" fill="#33374a"/><path d="M195.24,85.13l.13,0,8,1.59.13,0,.23-.74.6-1.87-8.81-2.07Z" fill="#292b38"/><path d="M199.48,58.56l-4.57,23a1.17,1.17,0,0,0,.91,1.37l8,1.59a1.16,1.16,0,0,0,1.36-.91l4.57-23Z" fill="#484c65"/><path d="M209.74,60.6l-3.6,18.08-.95,4.83,0,0a1.16,1.16,0,0,1-1,.92,1,1,0,0,1-.39,0l-4-.8,3.19-16,.45-2.29.17-.83,1-4.94Z" fill="#33374a"/><path d="M199.48,58.56l-1.39,7a11.91,11.91,0,0,0,4.91,2.1,12.15,12.15,0,0,0,5.35-.06l1.39-7Z" fill="#292b38"/><path d="M212,55.2l-1.59,8c-.38,1.89-3.49,2.87-6.95,2.17s-6-2.77-5.59-4.66l1.59-8c.37-1.88,3.49-2.86,6.95-2.17S212.38,53.31,212,55.2Z" fill="#8da2ad"/><path d="M211.36,54.23l-1.59,8c-.38,1.89-3.49,2.86-7,2.17A8.93,8.93,0,0,1,198,62c.65,1.46,2.74,2.83,5.42,3.36,3.46.7,6.57-.28,6.95-2.17l1.59-8a2.64,2.64,0,0,0-.82-2.26A2.17,2.17,0,0,1,211.36,54.23Z" fill="#5f7991"/><path d="M206.07,52.24a6.67,6.67,0,0,0-4.56.43l-.19.15-.13.13-1.59,8a.57.57,0,0,0,.45.68.56.56,0,0,0,.44-.09.62.62,0,0,0,.25-.37l1.51-7.58a6,6,0,0,1,3.59-.21.58.58,0,0,0,.69-.45A.59.59,0,0,0,206.07,52.24Z" fill="#dfe3ea"/><path d="M212,89.61a6.74,6.74,0,0,1-.39-3.92l.67-3.38a8.7,8.7,0,0,0-1.24-6.46L211,75.7,207.83,71a1.94,1.94,0,0,0-3.23,2.15l2,3-1.46,7.35a1.16,1.16,0,0,1-1,.92L203.71,86l-1.47,4.65.85.17,1.9,4.58,8-3.33Z" fill="#a67c52"/><path d="M195.11,80.56l3,2a1.94,1.94,0,0,1,.54,2.69h0a1.94,1.94,0,0,1-2.69.53l-3-2a1.92,1.92,0,0,1-.53-2.68h0A1.93,1.93,0,0,1,195.11,80.56Z" fill="#a67c52"/><path d="M197.6,83.39a1,1,0,0,1,.26,1.34,1,1,0,0,1-1.34.27l-.81-.54,1.08-1.61Z" fill="#8c6239"/><path d="M194.72,75.64l4,2.69a2,2,0,0,1,.54,2.69h0a1.94,1.94,0,0,1-2.69.53l-4-2.69a1.93,1.93,0,0,1-.53-2.69h0A1.92,1.92,0,0,1,194.72,75.64Z" fill="#a67c52"/><path d="M198.21,79.14a1,1,0,0,1,.27,1.34,1,1,0,0,1-1.34.27l-.81-.54,1.08-1.61Z" fill="#8c6239"/><path d="M195.54,71.52l4,2.7a1.92,1.92,0,0,1,.53,2.68h0a1.93,1.93,0,0,1-2.68.54l-4-2.69a2,2,0,0,1-.54-2.69h0A2,2,0,0,1,195.54,71.52Z" fill="#a67c52"/><path d="M199,75A1,1,0,1,1,198,76.63l-.8-.54,1.08-1.61Z" fill="#8c6239"/><path d="M196.36,67.41l3,2a1.94,1.94,0,0,1,.54,2.69h0a1.94,1.94,0,0,1-2.69.53l-3-2a1.94,1.94,0,0,1-.54-2.69h0A1.94,1.94,0,0,1,196.36,67.41Z" fill="#a67c52"/><path d="M198.84,70.23a1,1,0,0,1-1.07,1.62l-.81-.54L198,69.7Z" fill="#8c6239"/><path d="M213.74,91l-9.84,4.08a2,2,0,0,0-1.05,2.54L216.27,130H232L216.27,92.09A1.93,1.93,0,0,0,213.74,91Z" fill="#59b254"/><path d="M213.74,91l-4.92,2L224.13,130H232L216.27,92.09A1.93,1.93,0,0,0,213.74,91Z" fill="#70d16d"/><path d="M152.48,92.72l1.59,8a1.16,1.16,0,0,0,1.37.91,1.15,1.15,0,0,0,.91-1.36l-1.59-8Z" fill="#8da2ad"/><path d="M154.76,92.27l.11.55.46,2.32,1,5.11a1.15,1.15,0,0,1-.91,1.36L154.2,95.4l-.46-2.28-.12-.62Z" fill="#5f7991"/><path d="M153.05,95.59a5.73,5.73,0,0,0,.58-.07l1.14-.23a3.58,3.58,0,0,0,.56-.16l-.57-2.86-2.28.45Z" fill="#484c65"/><path d="M145.69,67.62l4.75,23.79a2.32,2.32,0,0,0,2.74,1.82l1.14-.22a2.33,2.33,0,0,0,1.82-2.74l-4.75-23.79Z" fill="#8da2ad"/><path d="M151.39,66.48l.58,2.89.46,2.35,1,4.83,2.74,13.72a2.32,2.32,0,0,1-1.27,2.55,2.11,2.11,0,0,1-.55.19l-.58.11-4.55-22.79-.45-2.28-.1-.49-.1-.51,1.93-.38Z" fill="#5f7991"/><path d="M146.27,70.5a10.68,10.68,0,0,0,2.92-.17,11.43,11.43,0,0,0,2.78-1l-.58-2.89-5.7,1.14Z" fill="#484c65"/><path d="M154.43,52l1.15,5.78a8.72,8.72,0,1,1-17.1,3.41l-1.16-5.78A8.72,8.72,0,0,1,154.43,52Z" fill="#33374a"/><path d="M146.37,45a8.75,8.75,0,0,1,6.77,6.83l1.15,5.79a8.72,8.72,0,0,1-6.84,10.26,9.2,9.2,0,0,1-2.21.14,8.59,8.59,0,0,0,3.5,0,8.72,8.72,0,0,0,6.84-10.26L154.43,52A8.75,8.75,0,0,0,146.37,45Z" fill="#292b38"/><path d="M144.51,46.87A7,7,0,0,0,139,55.08l1.15,5.78a6.93,6.93,0,0,0,3,4.44.59.59,0,0,0,.81-.17.58.58,0,0,0-.16-.8,5.74,5.74,0,0,1-2.48-3.7l-1.15-5.78a5.74,5.74,0,0,1,.86-4.36,5.82,5.82,0,0,1,3.7-2.48.58.58,0,1,0-.23-1.14Z" fill="#484c65"/><path d="M155.6,85.67l-3,2a1.93,1.93,0,0,0-.53,2.68h0a2,2,0,0,0,2.69.54l3-2a1.94,1.94,0,0,0,.53-2.69h0A1.93,1.93,0,0,0,155.6,85.67Z" fill="#f9a67f"/><path d="M153.12,88.49a1,1,0,0,0-.26,1.35,1,1,0,0,0,1.34.26l.81-.54L153.93,88Z" fill="#ffd9c7"/><path d="M156,80.74l-4,2.7a1.94,1.94,0,0,0-.53,2.69h0a1.94,1.94,0,0,0,2.69.53l4-2.7a1.94,1.94,0,0,0,.53-2.68h0A2,2,0,0,0,156,80.74Z" fill="#f9a67f"/><path d="M152.5,84.24a1,1,0,0,0-.26,1.35,1,1,0,0,0,1.34.26l.81-.54-1.08-1.61Z" fill="#ffd9c7"/><path d="M155.17,76.63l-4,2.69a1.94,1.94,0,0,0-.53,2.69h0a1.94,1.94,0,0,0,2.69.53l4-2.69a2,2,0,0,0,.54-2.69h0A1.94,1.94,0,0,0,155.17,76.63Z" fill="#f9a67f"/><path d="M151.68,80.13a1,1,0,1,0,1.08,1.61l.8-.54-1.07-1.61Z" fill="#ffd9c7"/><path d="M154.35,72.52l-3,2a1.92,1.92,0,0,0-.53,2.68h0a1.93,1.93,0,0,0,2.68.54l3-2a2,2,0,0,0,.54-2.69h0A1.94,1.94,0,0,0,154.35,72.52Z" fill="#f9a67f"/><path d="M151.87,75.34A1,1,0,1,0,152.94,77l.81-.54-1.08-1.61Z" fill="#ffd9c7"/><path d="M150.44,91.41,147.8,78.19l2-4.79a1.93,1.93,0,0,0-1.05-2.53h0a1.93,1.93,0,0,0-2.53,1l-2.59,6.26a8.7,8.7,0,0,0-.92,5.92l.68,3.38A6.74,6.74,0,0,1,143,91.4l-1,2.49,8,3.33,1.72-4.16A2.33,2.33,0,0,1,150.44,91.41Z" fill="#f9a67f"/><path d="M151.11,96.91l-9.85-4.08a1.93,1.93,0,0,0-2.53,1L123.78,130h15.73l12.64-30.56A1.94,1.94,0,0,0,151.11,96.91Z" fill="#f63"/><path d="M151.11,96.91l-4.93-2L131.63,130h7.87l12.65-30.56A1.94,1.94,0,0,0,151.11,96.91Z" fill="#e24920"/><path d="M98.94,51.46a3,3,0,0,0-3-3H84.55a3,3,0,0,0-3,3l0,31.22a3,3,0,0,0,3,3H95.94a3,3,0,0,0,3-3Z" fill="#484c65"/><path d="M98.94,51.46V82.68a3,3,0,0,1-3,3h-5.7V48.48H96A3,3,0,0,1,98.94,51.46Z" fill="#33374a"/><path d="M98.92,81.69a3,3,0,0,1-3,3H84.53a3,3,0,0,1-3-2.93v.94a3,3,0,0,0,3,3H95.94a3,3,0,0,0,3-3l0-31.22v-.05Z" fill="#292b38"/><rect x="83.54" y="69.04" width="13.39" height="14.63" rx="0.99" ry="0.99" fill="#292b38"/><rect x="83.54" y="56.4" width="13.39" height="10.66" rx="0.99" ry="0.99" fill="#292b38"/><rect x="84.53" y="70.04" width="11.41" height="12.65" fill="#484c65"/><rect x="85.52" y="77.48" width="9.42" height="4.22" fill="#292b38"/><rect x="85.52" y="72.02" width="3.97" height="3.97" fill="#292b38"/><rect x="90.98" y="72.02" width="3.97" height="3.97" fill="#292b38"/><rect x="85.52" y="76.98" width="9.42" height="4.22" fill="#dfe3ea"/><rect x="85.52" y="71.52" width="3.97" height="3.97" fill="#dfe3ea"/><rect x="90.98" y="71.52" width="3.97" height="3.97" fill="#dfe3ea"/><rect x="84.53" y="57.39" width="11.41" height="8.68" fill="#639ca9"/><rect x="84.53" y="57.39" width="11.41" height="1.98" fill="#2d7b8c"/><circle cx="87.51" cy="73.51" r="0.99" fill="#639ca9"/><rect x="91.97" y="72.52" width="1.98" height="1.98" fill="#639ca9"/><rect x="90.24" y="78.1" width="0.99" height="1.98" fill="#639ca9"/><rect x="91.72" y="78.1" width="0.99" height="1.98" fill="#639ca9"/><polygon points="87.75 78.1 87.75 80.08 89.74 79.09 87.75 78.1" fill="#639ca9"/><path d="M81.58,51.46v3h7.68v-6H84.55A3,3,0,0,0,81.58,51.46Z" fill="#8da2ad"/><path d="M96,48.48H91.25v6h7.69v-3A3,3,0,0,0,96,48.48Z" fill="#8da2ad"/><rect x="81.58" y="53.94" width="7.69" height="0.5" fill="#5f7991"/><rect x="91.25" y="53.94" width="7.69" height="0.5" fill="#5f7991"/><path d="M88.27,55.42H81.58v-1h7.68A1,1,0,0,1,88.27,55.42Z" fill="#292b38"/><path d="M98.94,55.42h-6.7a1,1,0,0,1-1-1h7.69Z" fill="#292b38"/><path d="M83.43,50h2a.5.5,0,0,1,.5.49h0a.5.5,0,0,1-.5.5h-2a.5.5,0,0,1-.5-.5h0A.49.49,0,0,1,83.43,50Z" fill="#dfe3ea"/><path d="M93.11,50h2a.49.49,0,0,1,.5.49h0a.5.5,0,0,1-.5.5h-2a.5.5,0,0,1-.5-.5h0A.49.49,0,0,1,93.11,50Z" fill="#dfe3ea"/><path d="M98.56,80l-2.1.86a1.66,1.66,0,0,0-.9,2.16h0a1.65,1.65,0,0,0,2.16.9l2.1-.87a1.65,1.65,0,0,0,.9-2.16h0A1.65,1.65,0,0,0,98.56,80Z" fill="#c7b299"/><path d="M96.78,81.65a.82.82,0,0,0-.45,1.08.83.83,0,0,0,1.08.45l.76-.32-.63-1.53Z" fill="#e0c7ad"/><path d="M99.71,76l-3.44,1.42a1.65,1.65,0,0,0-.89,2.16h0a1.64,1.64,0,0,0,2.15.9L101,79a1.65,1.65,0,0,0,.9-2.16h0A1.66,1.66,0,0,0,99.71,76Z" fill="#c7b299"/><path d="M96.59,78.15a.83.83,0,0,0,.63,1.53l.76-.32-.63-1.53Z" fill="#e0c7ad"/><path d="M99.72,72.38,96.28,73.8a1.65,1.65,0,0,0-.9,2.16h0a1.65,1.65,0,0,0,2.16.9L101,75.44a1.65,1.65,0,0,0,.89-2.16h0A1.65,1.65,0,0,0,99.72,72.38Z" fill="#c7b299"/><path d="M96.59,74.57a.83.83,0,0,0,.63,1.53l.77-.32-.63-1.53Z" fill="#e0c7ad"/><path d="M83.65,70.52l-2.44,1A4.16,4.16,0,0,0,79,77l2.89,7h0a3,3,0,0,1-.28-1.27v-6.6a1.65,1.65,0,0,1,1-1.53l2.4-1a1.65,1.65,0,0,0,.83-2.3A1.71,1.71,0,0,0,83.65,70.52Z" fill="#c7b299"/><path d="M84,71.25a.83.83,0,0,1,1.08.45.82.82,0,0,1-.45,1.08l-.76.32-.63-1.53Z" fill="#e0c7ad"/><path d="M99,69.12l-1.72.71a1.65,1.65,0,0,0-.9,2.16h0a1.66,1.66,0,0,0,2.16.9l1.72-.71a1.65,1.65,0,0,0,.89-2.16h0A1.64,1.64,0,0,0,99,69.12Z" fill="#c7b299"/><path d="M97.55,70.59a.84.84,0,0,0-.45,1.08.82.82,0,0,0,1.08.45l.77-.31-.63-1.53Z" fill="#e0c7ad"/><path d="M84.53,85.66a3,3,0,0,1-2.16-.93l.27.65a4.12,4.12,0,0,1,0,3.16l-.14.33,7.64,3.18,1.37-3.3.11,0a9.86,9.86,0,0,0,4-3H84.53Z" fill="#c7b299"/><polygon points="81.02 115.58 90.74 92.18 81.96 88.53 65.16 128.97 81.02 115.58" fill="#dfe3ea"/><path d="M76.7,129.76l8.12-19.56L90.73,96a1.65,1.65,0,0,0-.89-2.16l-8.4-3.49a1.65,1.65,0,0,0-2.16.89l-16,38.54Z" fill="#b50000"/><path d="M89.84,93.82l-4.2-1.74L70,129.76h6.71L90.73,96A1.65,1.65,0,0,0,89.84,93.82Z" fill="#d60000"/><path d="M31.57,78.75,21.94,93.2h0a1.49,1.49,0,0,0,.41,2.06l.83.55a1.48,1.48,0,0,0,2.06-.41L34.87,81Z" fill="#484c65"/><path d="M34.87,81l-.13.21-.38.56L25.25,95.4a1.5,1.5,0,0,1-2.07.41l-.41-.27,8.77-13.15,1.1-1.65.58-.89,1.45,1Z" fill="#33374a"/><path d="M31.57,78.75l-1.67,2.5a3,3,0,0,0,.39.31l2.48,1.65a2.7,2.7,0,0,0,.44.24L34.87,81Z" fill="#292b38"/><path d="M35,72.72l-3.87,5.81a1,1,0,0,0,.28,1.38l2.47,1.65a1,1,0,0,0,1.38-.27l3.87-5.82Z" fill="#484c65"/><path d="M36.12,77.65,35.79,76l-1,1.43-.06.1-1.55,2.32-.58.89,1.23.82a.92.92,0,0,0,.49.16.75.75,0,0,0,.47-.09.92.92,0,0,0,.42-.34l2.66-4Z" fill="#33374a"/><path d="M35,72.72l-2,3a5,5,0,0,0,1.42,1.44l.83.55a5,5,0,0,0,1.88.76l2-3Z" fill="#292b38"/><path d="M32.29,59.93H56.09a3,3,0,0,1,3,3v1a3,3,0,0,1-3,3H32.29a3,3,0,0,1-3-3v-1a3,3,0,0,1,3-3Z" transform="translate(-33.08 65) rotate(-56.31)" fill="#8da2ad"/><path d="M53.17,51.54a3,3,0,0,1-.17,3L39.79,74.36a3,3,0,0,1-4.12.82l-.83-.55a2.43,2.43,0,0,1-.32-.24,3.05,3.05,0,0,0,1,1.12l.83.55a3,3,0,0,0,4.12-.83L53.68,55.42A3,3,0,0,0,53.17,51.54Z" fill="#5f7991"/><path d="M36.75,74.5l-.39-.26A1.5,1.5,0,0,1,36,72.17l13.22-19.8a1.5,1.5,0,0,1,.91-.62.49.49,0,0,1,.59.37v0a.5.5,0,0,1-.38.58.49.49,0,0,0-.3.2L36.77,72.72a.52.52,0,0,0-.07.38.51.51,0,0,0,.21.31l.39.26a.5.5,0,0,1-.55.83Z" fill="#dfe3ea"/><path d="M23.57,89.86,26,91.47a1.65,1.65,0,0,1,.46,2.29h0a1.66,1.66,0,0,1-2.3.46l-2.4-1.61a1.65,1.65,0,0,1-.46-2.29h0A1.65,1.65,0,0,1,23.57,89.86Z" fill="#603813"/><path d="M24.72,86.65l3.09,2.07A1.65,1.65,0,0,1,28.27,91h0a1.66,1.66,0,0,1-2.29.46l-3.1-2.07a1.65,1.65,0,0,1-.46-2.29h0A1.67,1.67,0,0,1,24.72,86.65Z" fill="#603813"/><path d="M25.86,83.44,29.65,86a1.66,1.66,0,0,1,.45,2.3h0a1.65,1.65,0,0,1-2.29.46L24,86.19a1.65,1.65,0,0,1-.46-2.29h0A1.66,1.66,0,0,1,25.86,83.44Z" fill="#603813"/><path d="M27.7,80.69l2.06,1.38a1.65,1.65,0,0,1,.46,2.29h0a1.65,1.65,0,0,1-2.29.46l-2.07-1.38a1.65,1.65,0,0,1-.46-2.29h0A1.67,1.67,0,0,1,27.7,80.69Z" fill="#603813"/><path d="M29.3,82.75a.83.83,0,0,1-.92,1.38l-.68-.46.91-1.37Z" fill="#b50000"/><path d="M29.19,86.65A.83.83,0,0,1,28.27,88l-.69-.46.92-1.38Z" fill="#b50000"/><path d="M27.35,89.4a.83.83,0,0,1-.91,1.38l-.69-.46L26.67,89Z" fill="#b50000"/><path d="M25.52,92.16a.82.82,0,0,1,.23,1.14.83.83,0,0,1-1.15.23l-.69-.46.92-1.37Z" fill="#b50000"/><path d="M35.62,86.11s0-.09,0-.14l-.82-4.06a1.65,1.65,0,1,0-3.24.65l.52,2.61L25.24,95.4a1.47,1.47,0,0,1-1,.65v3.67h7.44V97.42a5.83,5.83,0,0,1,1-3.22l1.86-2.79A7.44,7.44,0,0,0,35.62,86.11Z" fill="#603813"/><path d="M34.11,99.19a1.65,1.65,0,0,0-1.65-1.65h-9.1a1.65,1.65,0,0,0-1.65,1.65v30.57h12.4V99.19Z" fill="#ae75c3"/><path d="M32.46,97.54H27.91v32.22h6.2V99.19A1.65,1.65,0,0,0,32.46,97.54Z" fill="#9160a5"/></svg>