<svg xmlns="http://www.w3.org/2000/svg" width="755" height="400" viewBox="0 0 755 400"><title>skyline-noplane</title><rect x="334.55" y="333.59" width="0.75" height="50.58" fill="#fff"/><rect x="366.04" y="333.59" width="0.75" height="50.58" fill="#fff"/><rect x="353.21" y="333.59" width="0.75" height="50.58" fill="#fff"/><rect x="345.76" y="333.59" width="0.75" height="50.58" fill="#fff"/><rect x="373.5" y="333.59" width="0.75" height="50.58" fill="#fff"/><rect x="327.09" y="333.59" width="0.75" height="50.58" fill="#fff"/><rect x="392.16" y="333.59" width="0.75" height="50.58" fill="#fff"/><rect x="384.7" y="333.59" width="0.75" height="50.58" fill="#fff"/><rect x="303.4" y="395.66" width="112.7" height="4.86" fill="#f97393"/><path d="M416.48,400.9H303v-5.62H416.48Zm-112.71-.75h112V396h-112Z" fill="#fff"/><polyline points="311.93 389.99 319.19 388.19 319.19 384.31 400.31 384.31 400.31 388.19 407.57 389.99" fill="#f97393"/><polygon points="407.48 390.35 399.94 388.49 399.94 384.69 319.56 384.69 319.56 388.49 312.02 390.35 311.84 389.62 318.81 387.9 318.81 383.94 400.69 383.94 400.69 387.9 407.66 389.62 407.48 390.35" fill="#fff"/><polygon points="416.02 396.03 407.2 394.17 407.2 390.36 312.3 390.36 312.3 394.17 303.48 396.03 303.32 395.29 311.55 393.56 311.55 389.61 407.95 389.61 407.95 393.56 416.18 395.29 416.02 396.03" fill="#fff"/><path d="M359.75,305.2l-41.39,28h82.78Zm0,5.92,25.62,17.95H334.09Z" fill="#f97393"/><path d="M402.37,333.59H317.13l42.62-28.85Zm-82.79-.75h80.34l-40.17-27.19Zm66.95-3.4H332.91l26.81-18.78Zm-51.25-.75h48.87l-24.43-17.12Z" fill="#fff"/><path d="M492.61,242.43V401H430.93s-.31-22.55,0-22.87,15.11,0,15.11,0,38.8-19.71,38-114.53C489.25,264.67,492.61,242.43,492.61,242.43Z" fill="#ae75c3"/><path d="M493,401.39H430.56V401c-.32-22.71,0-23,.11-23.14s.42-.43,15.28-.11c.94-.52,10.12-5.86,19.1-21.59,8.71-15.27,19-43.73,18.58-92.57v-.46l.45.09a1.64,1.64,0,0,0,1.32-.34c4.13-2.9,6.81-20.36,6.83-20.53l.75.05Zm-61.68-.75h60.93V246.69c-1.09,5.5-3.31,14.67-6.4,16.84a2.54,2.54,0,0,1-1.45.5c.21,27.05-2.89,64.93-18.72,92.6-9.54,16.69-19.36,21.81-19.45,21.86l-.09,0H446c-5.14-.11-13.36-.22-14.78-.06C431.09,380.22,431.19,392.34,431.3,400.64Z" fill="#fff"/><path d="M487.92,260.43H456.74l0-.41c.64-7.26,5.75-10.32,9.13-12.34,1.51-.91,2.81-1.69,3-2.45a1.14,1.14,0,0,0-.27-.9c-1.79-2.47-3.05-10.57,0-14.71,1.21-1.65,3.62-3.31,8.21-1.81,3.38,1.11,5.49,2.9,6.26,5.32,1.35,4.23-1.83,8.88-2.26,9.47-.13.49-1,3.93,1.28,4.94a14.88,14.88,0,0,1,7.19,7.48l-.68.32a14.29,14.29,0,0,0-6.82-7.11c-3-1.36-1.73-5.72-1.67-5.91l.06-.11c0-.05,3.48-4.79,2.18-8.86-.69-2.17-2.64-3.8-5.77-4.83-3.35-1.09-5.83-.57-7.37,1.54-2.74,3.75-1.68,11.47,0,13.83a1.86,1.86,0,0,1,.41,1.49c-.22,1.09-1.52,1.86-3.32,2.94-3.37,2-8,4.77-8.72,11.36h30.35Z" fill="#fff"/><path d="M447.67,378.45h-6.83V365.4H460Zm-6.08-.75h5.75l11-11.55h-16.7Z" fill="#fff"/><rect x="438.06" y="358.06" width="26.09" height="0.75" fill="#fff"/><rect x="438.06" y="351.35" width="30.84" height="0.75" fill="#fff"/><rect x="438.06" y="343.17" width="34.19" height="0.75" fill="#fff"/><rect x="441.21" y="336.66" width="32.4" height="0.75" fill="#fff"/><rect x="441.21" y="329.32" width="34.99" height="0.75" fill="#fff"/><rect x="442.89" y="323.45" width="35.19" height="0.75" fill="#fff"/><rect x="442.89" y="315.27" width="36.74" height="0.75" fill="#fff"/><rect x="445.62" y="308.14" width="36.71" height="0.75" fill="#fff"/><rect x="445.62" y="299.95" width="36.71" height="0.75" fill="#fff"/><rect x="448.76" y="292.82" width="34.12" height="0.75" fill="#fff"/><rect x="451.11" y="285.27" width="31.77" height="0.75" fill="#fff"/><rect x="451.11" y="277.3" width="32.77" height="0.75" fill="#fff"/><rect x="453.53" y="268.91" width="30.73" height="0.75" fill="#fff"/><path d="M443.26,365.79l-.75,0c1.89-47.05,10.16-74,15.11-90.07,2.15-7,3.7-12.07,3.7-15.64h.75c0,3.68-1.57,8.79-3.74,15.86C453.4,292,445.15,318.84,443.26,365.79Z" fill="#fff"/><path d="M530.94,400.87h-20.2l5.65-187.58h-4.93v-5h19.47v4.81H526.7Zm-19.43-.75h18.66l-4.24-187.76h4.25v-3.31h-18v3.49h5Z" fill="#fff"/><rect x="507.95" y="203.88" width="27.02" height="0.75" fill="#fff"/><rect x="505.3" y="197.88" width="32.5" height="0.75" fill="#fff"/><path d="M541.61,194.07c-1.07-8.57-9.62-15.25-20.06-15.25s-19,6.68-20.06,15.25Z" fill="#60bcd8"/><path d="M542,194.44h-41l.05-.42c1.12-8.88,9.9-15.57,20.44-15.57S540.87,185.14,542,194Zm-40.12-.75h39.26c-1.29-8.29-9.64-14.49-19.63-14.49S503.2,185.4,501.92,193.69Z" fill="#fff"/><path d="M528.19,172.29h-.75c0-2.77-2.68-5-6-5s-6,2.25-6,5h-.75c0-3.18,3-5.77,6.73-5.77S528.19,169.11,528.19,172.29Z" fill="#fff"/><rect x="527.44" y="172.29" width="0.75" height="7.6" fill="#fff"/><rect x="514.73" y="172.29" width="0.75" height="7.6" fill="#fff"/><polygon points="521.46 104.11 519.56 167.17 523.44 167.17 521.46 104.11" fill="#60bcd8"/><path d="M523.83,167.55h-4.66l0-.39,1.9-63.06h.75ZM520,166.8h3.1l-1.58-50.5Z" fill="#fff"/><path d="M154.49,400.54H106.44V134.46h48.05Zm-47.3-.75h46.55V135.21H107.19Z" fill="#fff"/><path d="M146.73,135.21H112V112.65h34.75Zm-34-.75H146V113.4H112.73Z" fill="#fff"/><rect x="118.64" y="101.2" width="23.28" height="11.83" fill="#ae75c3"/><path d="M142.29,113.4h-24V100.83h24ZM119,112.65h22.53V101.58H119Z" fill="#fff"/><rect x="128.98" y="64.62" width="0.75" height="36.59" fill="#fff"/><rect x="125.79" y="58.7" width="6.71" height="6.71" fill="#4c5054"/><path d="M132.87,65.79h-7.46V58.33h7.46ZM126.16,65h6v-6h-6Z" fill="#fff"/><rect x="106.81" y="171.78" width="47.3" height="0.75" fill="#fff"/><rect x="106.81" y="164.02" width="47.3" height="0.75" fill="#fff"/><rect x="106.81" y="157.74" width="47.3" height="0.75" fill="#fff"/><rect x="106.81" y="148.82" width="47.3" height="0.75" fill="#fff"/><rect x="106.81" y="141.64" width="47.3" height="0.75" fill="#fff"/><rect x="111.98" y="153" width="22.73" height="0.75" transform="translate(-31.41 274.99) rotate(-89.36)" fill="#fff"/><rect x="127.24" y="153" width="22.73" height="0.75" transform="translate(-16.32 290.25) rotate(-89.36)" fill="#fff"/><rect x="115.21" y="172.16" width="0.75" height="228.01" fill="#fff"/><rect x="106.81" y="390.37" width="16.19" height="0.75" fill="#fff"/><rect x="106.81" y="381.57" width="16.19" height="0.75" fill="#fff"/><rect x="106.81" y="372.77" width="16.19" height="0.75" fill="#fff"/><rect x="106.81" y="363.97" width="16.19" height="0.75" fill="#fff"/><rect x="106.81" y="355.17" width="16.19" height="0.75" fill="#fff"/><rect x="106.81" y="346.37" width="16.19" height="0.75" fill="#fff"/><rect x="106.81" y="337.57" width="16.19" height="0.75" fill="#fff"/><rect x="106.81" y="328.77" width="16.19" height="0.75" fill="#fff"/><rect x="106.81" y="319.49" width="16.19" height="0.75" fill="#fff"/><rect x="106.81" y="310.69" width="16.19" height="0.75" fill="#fff"/><rect x="106.81" y="301.89" width="16.19" height="0.75" fill="#fff"/><rect x="106.81" y="293.09" width="16.19" height="0.75" fill="#fff"/><rect x="106.81" y="284.29" width="16.19" height="0.75" fill="#fff"/><rect x="106.81" y="275.49" width="16.19" height="0.75" fill="#fff"/><rect x="106.81" y="266.69" width="16.19" height="0.75" fill="#fff"/><rect x="106.81" y="257.89" width="16.19" height="0.75" fill="#fff"/><rect x="106.81" y="241.4" width="16.19" height="0.75" fill="#fff"/><rect x="106.81" y="232.6" width="16.19" height="0.75" fill="#fff"/><rect x="106.81" y="223.8" width="16.19" height="0.75" fill="#fff"/><rect x="106.81" y="215" width="16.19" height="0.75" fill="#fff"/><rect x="106.81" y="206.2" width="16.19" height="0.75" fill="#fff"/><rect x="106.81" y="197.4" width="16.19" height="0.75" fill="#fff"/><rect x="106.81" y="188.6" width="16.19" height="0.75" fill="#fff"/><rect x="106.81" y="179.8" width="16.19" height="0.75" fill="#fff"/><rect x="106.81" y="249.85" width="16.19" height="0.75" fill="#fff"/><rect x="122.47" y="172.16" width="0.75" height="228.01" fill="#fff"/><rect x="144.96" y="172.16" width="0.75" height="228.01" fill="#fff"/><rect x="137.92" y="390.37" width="16.19" height="0.75" fill="#fff"/><rect x="137.92" y="381.57" width="16.19" height="0.75" fill="#fff"/><rect x="137.92" y="372.77" width="16.19" height="0.75" fill="#fff"/><rect x="137.92" y="363.97" width="16.19" height="0.75" fill="#fff"/><rect x="137.92" y="355.17" width="16.19" height="0.75" fill="#fff"/><rect x="137.92" y="346.37" width="16.19" height="0.75" fill="#fff"/><rect x="137.92" y="337.57" width="16.19" height="0.75" fill="#fff"/><rect x="137.92" y="328.77" width="16.19" height="0.75" fill="#fff"/><rect x="137.92" y="319.49" width="16.19" height="0.75" fill="#fff"/><rect x="137.92" y="310.69" width="16.19" height="0.75" fill="#fff"/><rect x="137.92" y="301.89" width="16.19" height="0.75" fill="#fff"/><rect x="137.92" y="293.09" width="16.19" height="0.75" fill="#fff"/><rect x="137.92" y="284.29" width="16.19" height="0.75" fill="#fff"/><rect x="137.92" y="275.49" width="16.19" height="0.75" fill="#fff"/><rect x="137.92" y="266.69" width="16.19" height="0.75" fill="#fff"/><rect x="137.92" y="257.89" width="16.19" height="0.75" fill="#fff"/><rect x="137.92" y="241.4" width="16.19" height="0.75" fill="#fff"/><rect x="137.92" y="232.6" width="16.19" height="0.75" fill="#fff"/><rect x="137.92" y="223.8" width="16.19" height="0.75" fill="#fff"/><rect x="137.92" y="215" width="16.19" height="0.75" fill="#fff"/><rect x="137.92" y="206.2" width="16.19" height="0.75" fill="#fff"/><rect x="137.92" y="197.4" width="16.19" height="0.75" fill="#fff"/><rect x="137.92" y="188.6" width="16.19" height="0.75" fill="#fff"/><rect x="137.92" y="179.8" width="16.19" height="0.75" fill="#fff"/><rect x="137.92" y="249.85" width="16.19" height="0.75" fill="#fff"/><rect x="137.7" y="172.16" width="0.75" height="228.64" fill="#fff"/><path d="M123.22,254.05l-.75,0c.35-7.91,7.45-13.82,7.75-14.06l.23-.19.24.17c.32.25,8,6,7.76,14.11l-.75,0c.22-6.91-5.93-12.25-7.23-13.29C129.26,241.81,123.52,247.26,123.22,254.05Z" fill="#fff"/><polygon points="180.94 401.33 174.08 401.33 174.08 187.43 174.83 187.43 174.83 400.58 180.19 400.58 180.19 190.48 180.94 190.48 180.94 401.33" fill="#fff"/><polygon points="194.77 401.33 187.92 401.33 187.92 190.48 188.67 190.48 188.67 400.58 194.02 400.58 194.02 187.43 194.77 187.43 194.77 401.33" fill="#fff"/><rect x="180.56" y="382.06" width="7.73" height="0.75" fill="#fff"/><rect x="180.56" y="362.68" width="7.73" height="0.75" fill="#fff"/><rect x="180.75" y="343.15" width="7.73" height="0.75" fill="#fff"/><rect x="180.75" y="323.58" width="7.73" height="0.75" fill="#fff"/><rect x="180.56" y="304.01" width="7.73" height="0.75" fill="#fff"/><rect x="180.56" y="284.64" width="7.73" height="0.75" fill="#fff"/><rect x="180.75" y="265.1" width="7.73" height="0.75" fill="#fff"/><rect x="180.75" y="245.54" width="7.73" height="0.75" fill="#fff"/><rect x="180.75" y="224.48" width="7.73" height="0.75" fill="#fff"/><rect x="180.75" y="204.91" width="7.73" height="0.75" fill="#fff"/><circle cx="184.63" cy="172.02" r="18.46" fill="#ef9900"/><path d="M184.63,190.86A18.84,18.84,0,1,1,203.47,172,18.86,18.86,0,0,1,184.63,190.86Zm0-36.93A18.09,18.09,0,1,0,202.72,172,18.12,18.12,0,0,0,184.63,153.93Z" fill="#fff"/><circle cx="184.71" cy="121.28" r="8.62" fill="#ef9900"/><path d="M184.71,130.28a9,9,0,1,1,9-9A9,9,0,0,1,184.71,130.28Zm0-17.24a8.25,8.25,0,1,0,8.24,8.24A8.26,8.26,0,0,0,184.71,113Z" fill="#fff"/><rect x="180.38" y="128.94" width="0.75" height="24.62" fill="#fff"/><rect x="188.11" y="128.94" width="0.75" height="24.62" fill="#fff"/><polygon points="188.86 113.54 188.11 113.54 188.11 88.47 181.13 88.47 181.13 113.54 180.38 113.54 180.38 87.72 188.86 87.72 188.86 113.54" fill="#fff"/><rect x="184.24" y="24.47" width="0.75" height="64.39" fill="#fff"/><rect x="180.75" y="62.09" width="7.73" height="0.75" fill="#fff"/><rect x="107.16" y="135" width="46.53" height="6.61" fill="#ae75c3"/><rect x="107.16" y="164.69" width="46.55" height="7.09" fill="#ae75c3"/><path d="M656.63,400.58H614.54V218.77h42.09Zm-41.34-.75h40.59V219.52H615.29Z" fill="#fff"/><path d="M654.82,219.52H616.35V179.74h38.47Zm-37.72-.75h37V180.49h-37Z" fill="#fff"/><polygon points="652.5 180.12 651.75 180.12 651.75 141.21 619.42 141.21 619.42 180.12 618.67 180.12 618.67 140.46 652.5 140.46 652.5 180.12" fill="#fff"/><polygon points="649.66 140.84 648.91 140.84 648.91 122.09 622.78 122.09 622.78 140.84 622.03 140.84 622.03 121.34 649.66 121.34 649.66 140.84" fill="#fff"/><path d="M646.63,122.09H624.81l10.77-16.29Zm-20.43-.75h19l-9.62-14.2Z" fill="#fff"/><circle cx="635.57" cy="104.14" r="3.1" fill="#fd592e"/><path d="M635.57,107.62a3.48,3.48,0,1,1,3.47-3.48A3.48,3.48,0,0,1,635.57,107.62Zm0-6.2a2.73,2.73,0,1,0,2.72,2.72A2.72,2.72,0,0,0,635.57,101.42Z" fill="#fff"/><rect x="635.19" y="83.21" width="0.75" height="17.4" fill="#fff"/><rect x="621.77" y="219.14" width="0.75" height="181.07" fill="#fff"/><rect x="648.65" y="219.14" width="0.75" height="181.07" fill="#fff"/><rect x="630.04" y="219.14" width="0.75" height="181.07" fill="#fff"/><rect x="640.38" y="219.14" width="0.75" height="181.07" fill="#fff"/><rect x="623.84" y="180.12" width="0.75" height="39.02" fill="#fff"/><rect x="646.58" y="180.12" width="0.75" height="39.02" fill="#fff"/><rect x="632.11" y="180.12" width="0.75" height="39.02" fill="#fff"/><rect x="638.31" y="180.12" width="0.75" height="39.02" fill="#fff"/><rect x="644.51" y="140.84" width="0.75" height="39.28" fill="#fff"/><rect x="625.91" y="140.84" width="0.75" height="39.28" fill="#fff"/><rect x="637.28" y="140.84" width="0.75" height="39.28" fill="#fff"/><rect x="633.14" y="140.84" width="0.75" height="39.28" fill="#fff"/><rect x="642.7" y="121.72" width="0.75" height="19.12" fill="#fff"/><rect x="628.23" y="121.72" width="0.75" height="19.12" fill="#fff"/><rect x="635.47" y="121.72" width="0.75" height="19.12" fill="#fff"/><rect x="614.91" y="389.5" width="41.35" height="0.75" fill="#fff"/><rect x="614.91" y="380.02" width="41.35" height="0.75" fill="#fff"/><rect x="614.91" y="370.72" width="41.35" height="0.75" fill="#fff"/><rect x="614.91" y="361.24" width="41.35" height="0.75" fill="#fff"/><rect x="614.91" y="351.77" width="41.35" height="0.75" fill="#fff"/><rect x="614.91" y="342.29" width="41.35" height="0.75" fill="#fff"/><rect x="614.91" y="332.99" width="41.35" height="0.75" fill="#fff"/><rect x="614.91" y="323.51" width="41.35" height="0.75" fill="#fff"/><rect x="614.91" y="313.91" width="41.35" height="0.75" fill="#fff"/><rect x="614.91" y="304.43" width="41.35" height="0.75" fill="#fff"/><rect x="614.91" y="295.13" width="41.35" height="0.75" fill="#fff"/><rect x="614.91" y="285.65" width="41.35" height="0.75" fill="#fff"/><rect x="614.91" y="276.18" width="41.35" height="0.75" fill="#fff"/><rect x="614.91" y="266.7" width="41.35" height="0.75" fill="#fff"/><rect x="614.91" y="257.4" width="41.35" height="0.75" fill="#fff"/><rect x="614.91" y="247.92" width="41.35" height="0.75" fill="#fff"/><rect x="614.91" y="238.47" width="41.35" height="0.75" fill="#fff"/><rect x="614.91" y="228.99" width="41.35" height="0.75" fill="#fff"/><rect x="616.72" y="207.95" width="37.73" height="0.75" fill="#fff"/><rect x="616.72" y="198.5" width="37.73" height="0.75" fill="#fff"/><rect x="616.72" y="189.03" width="37.73" height="0.75" fill="#fff"/><rect x="619.05" y="169.57" width="33.08" height="0.75" fill="#fff"/><rect x="619.05" y="160.11" width="33.08" height="0.75" fill="#fff"/><rect x="619.05" y="150.64" width="33.08" height="0.75" fill="#fff"/><rect x="622.15" y="130.9" width="27.13" height="0.75" fill="#fff"/><polygon points="656.59 331.64 655.92 331.3 677.62 288.08 698.8 329.92 698.13 330.26 677.62 289.75 656.59 331.64" fill="#fff"/><path d="M740.19,400.58h-42.1V218.77h42.1Zm-41.35-.75h40.6V219.52h-40.6Z" fill="#fff"/><path d="M738.38,219.52H699.9V179.74h38.48Zm-37.73-.75h37V180.49h-37Z" fill="#fff"/><polygon points="736.05 180.12 735.3 180.12 735.3 141.21 702.98 141.21 702.98 180.12 702.23 180.12 702.23 140.46 736.05 140.46 736.05 180.12" fill="#fff"/><polygon points="733.21 140.84 732.46 140.84 732.46 122.09 706.34 122.09 706.34 140.84 705.59 140.84 705.59 121.34 733.21 121.34 733.21 140.84" fill="#fff"/><path d="M730.19,122.09H708.37l10.77-16.29Zm-20.43-.75h19l-9.63-14.2Z" fill="#fff"/><circle cx="719.12" cy="104.14" r="3.1" fill="#fd592e"/><path d="M719.12,107.62a3.48,3.48,0,1,1,3.48-3.48A3.48,3.48,0,0,1,719.12,107.62Zm0-6.2a2.73,2.73,0,1,0,2.73,2.72A2.72,2.72,0,0,0,719.12,101.42Z" fill="#fff"/><rect x="718.75" y="83.21" width="0.75" height="17.4" fill="#fff"/><rect x="705.33" y="219.14" width="0.75" height="181.07" fill="#fff"/><rect x="732.2" y="219.14" width="0.75" height="181.07" fill="#fff"/><rect x="713.6" y="219.14" width="0.75" height="181.07" fill="#fff"/><rect x="723.93" y="219.14" width="0.75" height="181.07" fill="#fff"/><rect x="707.4" y="180.12" width="0.75" height="39.02" fill="#fff"/><rect x="730.14" y="180.12" width="0.75" height="39.02" fill="#fff"/><rect x="715.67" y="180.12" width="0.75" height="39.02" fill="#fff"/><rect x="721.87" y="180.12" width="0.75" height="39.02" fill="#fff"/><rect x="728.07" y="140.84" width="0.75" height="39.28" fill="#fff"/><rect x="709.46" y="140.84" width="0.75" height="39.28" fill="#fff"/><rect x="720.83" y="140.84" width="0.75" height="39.28" fill="#fff"/><rect x="716.7" y="140.84" width="0.75" height="39.28" fill="#fff"/><rect x="726.26" y="121.72" width="0.75" height="19.12" fill="#fff"/><rect x="711.79" y="121.72" width="0.75" height="19.12" fill="#fff"/><rect x="719.02" y="121.72" width="0.75" height="19.12" fill="#fff"/><rect x="698.47" y="389.5" width="41.35" height="0.75" fill="#fff"/><rect x="698.47" y="380.02" width="41.35" height="0.75" fill="#fff"/><rect x="698.47" y="370.72" width="41.35" height="0.75" fill="#fff"/><rect x="698.47" y="361.24" width="41.35" height="0.75" fill="#fff"/><rect x="698.47" y="351.77" width="41.35" height="0.75" fill="#fff"/><rect x="698.47" y="342.29" width="41.35" height="0.75" fill="#fff"/><rect x="698.47" y="332.99" width="41.35" height="0.75" fill="#fff"/><rect x="698.47" y="323.51" width="41.35" height="0.75" fill="#fff"/><rect x="698.47" y="313.91" width="41.35" height="0.75" fill="#fff"/><rect x="698.47" y="304.43" width="41.35" height="0.75" fill="#fff"/><rect x="698.47" y="295.13" width="41.35" height="0.75" fill="#fff"/><rect x="698.47" y="285.65" width="41.35" height="0.75" fill="#fff"/><rect x="698.47" y="276.18" width="41.35" height="0.75" fill="#fff"/><rect x="698.47" y="266.7" width="41.35" height="0.75" fill="#fff"/><rect x="698.47" y="257.4" width="41.35" height="0.75" fill="#fff"/><rect x="698.47" y="247.92" width="41.35" height="0.75" fill="#fff"/><rect x="698.47" y="238.47" width="41.35" height="0.75" fill="#fff"/><rect x="698.47" y="228.99" width="41.35" height="0.75" fill="#fff"/><rect x="700.28" y="207.95" width="37.73" height="0.75" fill="#fff"/><rect x="700.28" y="198.5" width="37.73" height="0.75" fill="#fff"/><rect x="700.28" y="189.03" width="37.73" height="0.75" fill="#fff"/><rect x="702.6" y="169.57" width="33.08" height="0.75" fill="#fff"/><rect x="702.6" y="160.11" width="33.08" height="0.75" fill="#fff"/><rect x="702.6" y="150.64" width="33.08" height="0.75" fill="#fff"/><rect x="705.7" y="130.9" width="27.13" height="0.75" fill="#fff"/><rect x="656.21" y="281.87" width="42.21" height="6.31" fill="#fd592e"/><path d="M698.79,288.55h-43v-7.06h43Zm-42.21-.75H698v-5.56H656.58Z" fill="#fff"/><path d="M89.41,401.22H17l0-.34a832.49,832.49,0,0,1-1-103.94c3.8-67,16.24-109.45,37-126l.25-.19.23.2C79.11,193.62,87.52,255,90.06,302.42a882,882,0,0,1-.63,98.45Zm-71.69-.75h71a887.12,887.12,0,0,0,.6-98C86.79,255.29,78.47,194.39,53.2,171.69,27.78,192.36,19.35,251.19,16.76,297A833.29,833.29,0,0,0,17.72,400.47Z" fill="#fff"/><path d="M90.77,371.83l-.75,0c.17-4.78-10.84-26.46-23.59-51.57-19.15-37.73-43-84.69-40.38-97.22l.74.15C24.22,235.43,48,282.26,67.1,319.89,80.42,346.13,90.94,366.85,90.77,371.83Z" fill="#fff"/><path d="M77.19,401.07l-.59-.46c4.37-5.72,13.16-22.23,13.25-22.4l.66.35C90.42,378.73,81.61,395.29,77.19,401.07Z" fill="#fff"/><path d="M65,401.07l-.6-.46c2.59-3.37,26-45.69,26-50.94h.75C91.15,355.24,67.71,397.58,65,401.07Z" fill="#fff"/><path d="M48.42,401.14l-.46-.6c8.79-6.78,41.72-68.72,42.44-79.84l.75.05C90.42,332,57.27,394.3,48.42,401.14Z" fill="#fff"/><path d="M34.11,401.29l-.22-.13c-2.74-1.6-7.71-10.35-11.42-18.31s-7.62-18.18-7.62-23.42h.75c0,9.34,13.36,37.38,18.45,40.95,8.7-7.49,52.12-83.94,55.12-102.92-.79-3.48-5.9-12.81-11.82-23.61C67.19,255.32,54.54,232.25,54,221.59l.75,0C55.28,232,67.88,255,78,273.49c6.23,11.37,11.15,20.35,11.91,23.88v.14C87,316.6,42.56,394.68,34.31,401.14Z" fill="#fff"/><path d="M19.34,401.19,19,400.5c4.1-1.8,20.46-27.05,38.07-58.74C76.13,307.52,88,281.31,87.24,275l.75-.09c.89,7.83-15,39.85-30.23,67.21C42.35,369.86,24.2,399.05,19.34,401.19Z" fill="#fff"/><path d="M16.73,387.16l-.54-.52c4-4.14,69.1-108.52,67-134l.75-.06C86.05,278.2,20.74,383,16.73,387.16Z" fill="#fff"/><path d="M15.53,369.35l-.61-.43c8.16-11.77,65-107.78,64.28-127.24l.75,0C80.7,261.26,23.71,357.55,15.53,369.35Z" fill="#fff"/><path d="M21.23,340.19l-.57-.49C26.44,333,39.15,310,51.56,283.83,64.85,255.77,72.65,235,71.9,229.55l.74-.1c.92,6.64-9.94,32.61-20.4,54.7C39.8,310.41,27.05,333.46,21.23,340.19Z" fill="#fff"/><path d="M17.88,324.76l-.69-.28c1.62-4,6.07-12.23,11.7-22.63,15-27.72,40.19-74.13,38.39-92.51l.74-.07c1.83,18.61-22.42,63.34-38.47,92.94C23.93,312.59,19.49,320.78,17.88,324.76Z" fill="#fff"/><path d="M14.85,307.6c-.1-4.43,6.17-15.23,14.1-28.91,13.1-22.58,31-53.51,29-72l.74-.08c2.07,18.76-15.93,49.8-29.08,72.47-7.56,13-14.09,24.31-14,28.52Z" fill="#fff"/><path d="M70.67,401.05C60.77,391,18,298.57,16.82,284.75v-.09c1.57-8.8,8.67-21.3,16.18-34.53,10.2-17.95,20.74-36.51,16.67-45.29l.68-.31c4.23,9.13-6.41,27.86-16.69,46-7.47,13.15-14.53,25.57-16.1,34.24,1.27,13.92,43.79,105.74,53.63,115.79Z" fill="#fff"/><path d="M21.32,260.67l-.75-.07c.27-2.94,3.58-10.16,7.43-18.52,5.53-12,12.41-27,11.55-32.72l.74-.11c.89,5.95-5.75,20.39-11.61,33.14C24.86,250.69,21.57,257.86,21.32,260.67Z" fill="#fff"/><path d="M54.34,221.57c-4.69-10.8-6.58-9.86-8.58,3.06-2.19,14.11,40.62,85.88,45,96.1v24.32c.1-14.28-56.21-98.28-57.84-128.12-2.27,0-4.88,0-4.88,0s11.45-41.76,25.16-45.73c7.62-1.55,23.93,44.74,23.93,44.74-4.15,2.37-1.77,7.38,4.46,18.25L87.52,274c-1.63-14.09-20.11-41.34-21.33-49.12s-4.3-12.9-6.77-11.19C59.42,213.69,57.33,217.29,54.34,221.57Z" fill="#159c80"/><path d="M91.15,345.05H90.4V345c-.05-6-10.1-24.55-21.73-46-15.56-28.66-34.9-64.27-36.08-81.7h-5l.13-.47a200.81,200.81,0,0,1,7.45-21.42c6.12-14.63,12.16-22.89,18-24.57,7.75-1.57,22.71,40.21,24.39,45l.11.29-.27.16a3.44,3.44,0,0,0-1.76,2.08c-.78,2.88,2,8.07,6.36,15.66l0,.13,5.7,38.41q.13.72.21,1.41l-.74.1-.2-1.35C85.48,264.49,79,252.3,73.82,242.4c-4-7.61-7.49-14.18-8-17.47C64.93,219.26,63,214.7,61,213.86a1.32,1.32,0,0,0-1.29.09c-.32.55-2.33,3.93-5.05,7.84l-.39.55-.26-.62c-.8-1.83-3.21-7.39-4.69-7.2-1.64.21-2.76,7.45-3.18,10.17-1.61,10.34,21.5,52.47,35.3,77.64C86.2,311,90,317.92,91.12,320.58l0,.15v24.32ZM30.67,216.55H33.3l0,.36c.93,17.12,20.38,53,36,81.73,9.82,18.09,18.52,34.12,21.07,42.46V320.8c-1.16-2.67-4.9-9.5-9.63-18.11-13.85-25.26-37-67.53-35.38-78.11,1.17-7.57,2.24-10.6,3.82-10.8,1.4-.18,2.92,1.86,5.2,7,2.75-4,4.66-7.28,4.68-7.31l.12-.12a2.06,2.06,0,0,1,2.07-.21c2.26,1,4.33,5.54,5.28,11.65.49,3.16,3.94,9.68,7.92,17.23,4.27,8.09,9,17,11.54,24.41l-4.77-32.14c-4.42-7.72-7.25-13-6.39-16.16a4.06,4.06,0,0,1,1.83-2.38c-4.59-13-17.45-45.42-23.4-44.22-12.54,3.64-23.41,40.37-24.73,45Z" fill="#fff"/><path d="M89.55,392.72c.52-11.42-72.39-131-66.15-156l-4.22,27.42c2.25,13.06,65,135.59,65.74,136.72h4.14Z" fill="#159c80"/><path d="M89.41,401.22H84.72l-.11-.18c-.58-.89-63.54-123.72-65.8-136.85v-.06l3.9-25.39a13.22,13.22,0,0,1,.33-2.13l.74.15-.33,2.14c-1.33,18,25.28,69.49,44.93,107.49,12.15,23.5,21.75,42.06,21.55,46.35h0Zm-4.27-.75H88.7l.47-7.77c.19-4.09-9.85-23.5-21.46-46C49.37,311.27,25,264.1,22.81,243l-3.25,21.11C21.93,277.16,82.37,395.23,85.14,400.47Z" fill="#fff"/><path d="M15.22,339.7c2.8,8.51,27.13,58.79,33,61.14h8.1c-3.34-1.86-37-71.6-40.68-86.13Z" fill="#159c80"/><path d="M57.72,401.22l-9.67,0C42,398.75,17.56,348,14.87,339.82l0-.06.43-27.92.69,2.78c1.92,7.67,12.2,30.51,20.43,47.74,10,20.94,18.62,37.34,20.07,38.15Zm-9.45-.75h7.17c-5.48-7.22-33.68-65.21-39.5-83.26l-.34,22.43C18.32,347.81,42.45,397.83,48.27,400.47Z" fill="#fff"/><path d="M235.08,233.13a2.29,2.29,0,0,0-.91-1.68,2.32,2.32,0,0,0-1.85-.51l-.15-.73a3.19,3.19,0,0,1,3.66,2.89Z" fill="#4c5054"/><path d="M601.38,401.71H546.82V360.55l6.92-3.27V337.72l5.25-3.63,9.76-.2,4.43-4.42H597v13.84h4.42ZM547.57,401h53.06v-56.9h-4.42V330.22H573.49l-4.42,4.42-9.84.19-4.74,3.28v19.65L547.57,361Z" fill="#fff"/><polygon points="593.51 267.58 570.26 267.58 561.8 273.92 561.8 307.17 554.12 309.09 554.12 330.62 558.73 327.35 566.99 327.35 572.76 322.16 596.39 321.77 596.39 286.22 593.7 286.22 593.51 267.58" fill="#159c80"/><path d="M553.74,331.34V308.8l7.69-1.92V273.74l8.7-6.53h23.75l.19,18.64h2.7v36.29l-23.87.39-5.77,5.19h-8.28Zm.75-22v20.51l4.12-2.92h8.24l5.76-5.18,23.41-.38V286.6h-2.69L593.14,268H570.38l-8.2,6.15v33.35Z" fill="#fff"/><path d="M561.62,268.34V244.91l6.15-4.61v-39l5-4.63H592v24.79h2.5v39H571.92Zm.75-23v21.53l9.3-7.11h22V222.22h-2.5V197.43H573.09l-4.57,4.21v39Z" fill="#fff"/><path d="M569.5,193.62V175.68l3.27-1.54.19-24.65,9.58-2.59,9.62,1.8v40.85H574.43Zm.75-17.47V192l3.91-3.23h17.25V149.32l-8.84-1.65-8.87,2.4-.19,24.55Z" fill="#fff"/><path d="M572.76,144.89v-24.2l5.77-2.11V73.43l3.9-1.68,7,1.83-.2,34.51,2.89,2.31v34.45l-11.32-2.18Zm8-3,10.6,2V110.76l-2.89-2.31.19-34.29-6.22-1.62-3.21,1.39V119.1l-5.77,2.12v22.69Z" fill="#fff"/><rect x="582.09" y="47.06" width="0.75" height="24.98" fill="#fff"/><rect x="572.96" y="329.85" width="0.75" height="70.94" fill="#fff"/><rect x="568.54" y="334.27" width="0.75" height="66.94" fill="#fff"/><rect x="558.74" y="334.46" width="0.75" height="66.33" fill="#fff"/><rect x="553.74" y="357.52" width="0.75" height="43.69" fill="#fff"/><rect x="596.21" y="343.68" width="0.75" height="57.11" fill="#fff"/><rect x="561.43" y="307.17" width="0.75" height="20.18" fill="#fff"/><rect x="569.88" y="267.58" width="0.75" height="57.3" fill="#fff"/><rect x="593.33" y="286.22" width="0.75" height="35.59" fill="#fff"/><rect x="567.77" y="240.49" width="0.75" height="22.31" fill="#fff"/><rect x="572.57" y="197.06" width="0.75" height="63" fill="#fff"/><rect x="591.21" y="221.85" width="0.75" height="38.24" fill="#fff"/><rect x="572.76" y="174.38" width="0.75" height="14.8" fill="#fff"/><rect x="582.18" y="147.28" width="0.75" height="41.33" fill="#fff"/><rect x="578.53" y="118.84" width="0.75" height="24" fill="#fff"/><rect x="588.52" y="108.27" width="0.75" height="35.7" fill="#fff"/><rect x="582.09" y="72.14" width="0.75" height="69.7" fill="#fff"/><rect x="584.18" y="197.06" width="0.75" height="63" fill="#fff"/><rect x="586.18" y="267.58" width="0.75" height="54.14" fill="#fff"/><rect x="587.58" y="329.85" width="0.75" height="70.94" fill="#fff"/><path d="M282.45,265.31l-9,13s1.3,2.41.15,6.7,2.66,15.16,2.66,15.16l3.19,1.14,6-9a79.53,79.53,0,0,0,3-10.83c1-5.17,4.48-3.41,5.22-2.29.74-.88,3.74-5.88,3.74-5.88Z" fill="#f63"/><path d="M259.53,225.59c0-.24,0,.52,0,.27,0-7.51-4.26-12.15-9.53-12.15s-9.53,4.64-9.53,12.15c0,.25,0-.51,0-.27" fill="#f63"/><rect x="228.41" y="225.49" width="43.23" height="0.75" fill="#fff"/><path d="M250,241.29c-4.68,0-9.9-6.33-9.9-15.43,0-7.37,4.07-12.53,9.9-12.53s9.91,5.16,9.91,12.53C259.93,235,254.71,241.29,250,241.29Zm0-27.21c-5.39,0-9.15,4.85-9.15,11.78,0,7.69,4.36,14.68,9.15,14.68s9.16-7,9.16-14.68C259.18,218.93,255.41,214.08,250,214.08Z" fill="#fff"/><rect x="252.57" y="210.72" width="11.7" height="0.75" transform="translate(-64.87 293.71) rotate(-53.58)" fill="#fff"/><rect x="258.68" y="217.33" width="10.41" height="0.75" transform="translate(-59.22 105.32) rotate(-20.34)" fill="#fff"/><rect x="250.48" y="202.11" width="0.75" height="11.6" fill="#fff"/><rect x="240.75" y="205.13" width="0.75" height="11.88" transform="translate(-78.83 193.14) rotate(-37.99)" fill="#fff"/><rect x="235.87" y="212.5" width="0.75" height="10.41" transform="translate(-49.99 363.56) rotate(-69.66)" fill="#fff"/><path d="M224.22,243.9l-.23-.47c-2.49-5.26-3.71-46.73-3.76-48.49l.75,0c0,.42,1.2,40.79,3.5,47.7l8-7.77c-1-10.72-2.69-26.82-3.32-28-.36-.36-1.14-2.61-2.63-19.15l.75-.07c.61,6.78,1.79,17.84,2.37,18.67h0c.37.43,1.24,3.48,3.59,28.7l0,.17Z" fill="#fff"/><path d="M227,182.71l-.78-3.49.31-.12c3.15-1.14,5.06-3.2,4.86-5.24-.22-2.33-3.13-4.12-7.06-4.36l-.28,0-1.59-7.16a8.82,8.82,0,0,0-1.61.24l-.52,7.24-.27.07c-3.93.92-6.61,3.32-6.38,5.69.19,2,2.39,3.64,5.59,4.19l-.13.74c-3.54-.61-6-2.52-6.21-4.86-.26-2.74,2.48-5.36,6.69-6.43l.45-6.21a.49.49,0,0,1-.34-.48c0-.2,0-.58,1.8-.85s1.9.09,2,.29a.52.52,0,0,1-.23.58l1.39,6.24c4.17.33,7.22,2.37,7.48,5,.22,2.33-1.75,4.62-5.05,5.91l.64,2.86Z" fill="#fff"/><polygon points="226.2 200.41 223.5 200.41 221.29 193.03 222.01 192.82 224.06 199.66 225.51 199.66 226.56 187.58 227.31 187.65 226.2 200.41" fill="#fff"/><path d="M219.73,195.46c-.57,0-1.13-.49-1.67-1.48-1.58-2.88-3.08-10.61-1-12.45h0c1.47-1.32,5.57-.74,8.85.52,1.24.47,4.14,1.73,4.31,3.3a1.52,1.52,0,0,1-.83,1.46l-.14.1-.18,0c-1-.31-3.24,2.45-4.87,4.46s-3.09,3.8-4.17,4.1A.86.86,0,0,1,219.73,195.46Zm.05-13.94a3.48,3.48,0,0,0-2.24.56c-1.5,1.34-.55,8.41,1.17,11.54.49.89.89,1.14,1.1,1.08.85-.24,2.34-2.07,3.78-3.85,2.07-2.54,4-4.95,5.49-4.75.41-.32.39-.58.38-.67-.09-.76-1.63-1.84-3.83-2.68A17.94,17.94,0,0,0,219.78,181.52Z" fill="#fff"/><polygon points="294.03 279.39 293.39 278.99 297 273.25 282.6 265.85 273.81 278.7 273.19 278.27 282.36 264.88 298.07 272.95 294.03 279.39" fill="#fff"/><polygon points="279.72 302.17 276.11 300.51 276.42 299.83 279.44 301.21 285.45 291.63 286.09 292.03 279.72 302.17" fill="#fff"/><path d="M288.24,295.18a3.33,3.33,0,0,1-2-.74,2.13,2.13,0,0,1-.75-2.81,21.39,21.39,0,0,0,1.16-4.25c.88-4,2-9.07,4-9.93h0a2.08,2.08,0,0,1,1.85.09c2.11,1.07,3.46,5.14,3.63,5.9.35,1.45-4.14,9.17-5.9,10.92A2.73,2.73,0,0,1,288.24,295.18Zm2.67-17c-1.68.71-2.82,5.94-3.57,9.4a19.72,19.72,0,0,1-1.25,4.49,1.43,1.43,0,0,0,.57,1.83,2.23,2.23,0,0,0,3,0c2-2,5.92-9.28,5.7-10.22s-1.54-4.54-3.24-5.4a1.35,1.35,0,0,0-1.22-.07Z" fill="#fff"/><path d="M224.4,302.63a4.19,4.19,0,0,1-3.32-1.75c-1.09-1.94-.26-5.75,2.87-13.15,3.9-9.21.8-16.12-.87-19.83a10.43,10.43,0,0,1-.91-2.5,22,22,0,0,1,.33-3.85c.37-2.87.9-6.81-.2-7.78a1.79,1.79,0,0,0-1.29-.35,2.06,2.06,0,0,1-1.66-.55c-.68-.71-1.35-2.41-1.12-9.61a76.39,76.39,0,0,0-.28-9.32c-.36-4.3-.47-5.6,3.43-9.88l.55.51c-3.68,4-3.59,5.05-3.24,9.31a75.09,75.09,0,0,1,.29,9.4c-.17,5.36.12,8.25.91,9.08a1.41,1.41,0,0,0,1.13.31,2.45,2.45,0,0,1,1.77.54c1.4,1.23.9,5.06.45,8.44a22,22,0,0,0-.32,3.68,9.83,9.83,0,0,0,.85,2.26c1.71,3.82,4.89,10.92.87,20.44-2.95,7-3.84,10.82-2.9,12.48.42.75,1.22,1.15,2.77,1.38Z" fill="#fff"/><path d="M261.57,400.75c-19.6,0-44.22-.13-45.87-.14h-1l.74-.66c4.94-4.35,4.62-5.11,4.32-5.85a2.38,2.38,0,0,1,.3-2.54c.72-1.22.94-6.55,1.19-12.71.41-10.12.91-22.72,3.84-28.57,2.42-4.83,1.46-10.3.46-16.09-1-5.51-1.95-11.2-.25-17l.72.21c-1.65,5.61-.68,11.22.27,16.64,1,5.92,2,11.5-.53,16.55-2.85,5.72-3.36,18.22-3.76,28.27-.28,6.78-.48,11.68-1.3,13.06-.61,1-.44,1.41-.25,1.87.49,1.18.48,2.2-3.78,6.06,8,0,62.23.29,68.46-.05-.07-4.37-1.4-7.05-4.3-8.65s-2.8-22.62-1.29-41.38c1.71-21.12,1.95-28.1-3.65-48-3.58-12.73-2.9-16-2.4-18.33a7.63,7.63,0,0,0-.35-4.85c-.54-1.63-1.2-3.81-1.89-6.11-2.34-7.81-5.87-19.61-8.45-20.52-1.89-.67-3.6-4-4.57-6.88-1.23-3.66-2.05-8.87-.31-11.5l.63.41c-1.49,2.25-.88,7.08.39,10.86,1.15,3.41,2.76,5.92,4.11,6.4,2.72,1,5.65,10.08,8.92,21,.69,2.3,1.34,4.47,1.88,6.09a8.25,8.25,0,0,1,.37,5.25c-.48,2.28-1.14,5.42,2.4,18,5.63,20,5.38,27,3.67,48.27-1.74,21.56-1.35,39.42.9,40.66,3.25,1.78,4.69,4.76,4.69,9.65v.34l-.34,0C283.85,400.7,273.67,400.75,261.57,400.75Z" fill="#fff"/><path d="M216.41,136.9c2.81,2.21-3.41,3.76-2.64,10.76s7.25,8.77,6.83,13.88a4,4,0,0,0,2.52,0s4.54-8.65,3-12.21-5.18-1.24-6-8.62C219,135.11,216.41,136.9,216.41,136.9Z" fill="#f63"/><path d="M221.73,162.13a3,3,0,0,1-1.28-.25l-.24-.1,0-.27c.19-2.35-1.19-4-2.78-5.84s-3.64-4.28-4-8a10.27,10.27,0,0,1,2.38-7.76c1.08-1.47,1.37-2,.4-2.75l-.4-.31.42-.29a2.11,2.11,0,0,1,1.89-.19c1.1.45,1.89,1.88,2.34,4.24.51,4.37,2,5.19,3.41,6a5,5,0,0,1,2.6,2.56c1.61,3.68-2.8,12.18-3,12.54l-.07.13-.14.05A5.53,5.53,0,0,1,221.73,162.13Zm-.74-.84a3.82,3.82,0,0,0,1.87-.06c.57-1.12,4.26-8.64,2.9-11.75a4.4,4.4,0,0,0-2.28-2.21c-1.52-.83-3.24-1.79-3.79-6.52-.49-2.58-1.3-3.42-1.88-3.66a1.31,1.31,0,0,0-.72-.06c.94,1.09.17,2.15-.7,3.36a9.44,9.44,0,0,0-2.24,7.23c.38,3.46,2.24,5.64,3.87,7.57S221.08,158.78,221,161.29Z" fill="#fff"/><path d="M229,335.45a4.47,4.47,0,0,1-1.93-.35,1.66,1.66,0,0,1-1-1.5l.75,0a.91.91,0,0,0,.59.84c1.59.78,5.86-.2,7.56-1.45,2-1.49,2.69-4.29,3.16-6.79s1-5.55,3.15-7.4a6.32,6.32,0,0,1,7.41-.49,42.15,42.15,0,0,0,4.49-17c.06-1.38.06-2.8.06-4.16a28.07,28.07,0,0,1,4.66-18.1,45.26,45.26,0,0,0,3.35-6.94c2.46-7.09,1.16-14.83-.5-22.81l.73-.15c1.69,8.08,3,15.94.48,23.2a46,46,0,0,1-3.41,7.07,36.62,36.62,0,0,0-3.79,8.39,37,37,0,0,0-.77,9.33c0,1.38,0,2.8-.06,4.2A43,43,0,0,1,249.14,319l-.21.4-.36-.27a5.54,5.54,0,0,0-6.82.2c-1.92,1.68-2.45,4.5-2.91,7-.49,2.64-1.2,5.6-3.45,7.26A12.87,12.87,0,0,1,229,335.45Z" fill="#fff"/><path d="M225.53,374.93h-.1a2.06,2.06,0,0,1-2-1.61,36.89,36.89,0,0,1,1.93-23.45l.68.3a36.17,36.17,0,0,0-1.89,23,1.35,1.35,0,0,0,1.27,1,1.3,1.3,0,0,0,1.32-.91l3.33-9.8a3,3,0,0,1,2-2c1.86-.52,2.85,1.14,3.82,2.74a9.4,9.4,0,0,0,1.67,2.29c1.63,1.44,4.37.7,5.81-.86s2.09-4,2.51-6.3a110.91,110.91,0,0,0,1.87-23.57c-.14-5,1-7.75,3.6-8.5a7.21,7.21,0,0,1,1.95-.22l.78,0c4.76-.33,8-4.86,9.08-8.93,1-3.87.62-8,.26-12-.06-.64-.12-1.27-.17-1.9-.37-4.53-.44-9.72,1.91-14a34.83,34.83,0,0,1,3.11-4.4c2.54-3.24,4.95-6.3,3.86-9.81l.72-.22c1.2,3.89-1.44,7.24-4,10.49a34.1,34.1,0,0,0-3,4.3c-2.25,4.05-2.21,8.9-1.82,13.54.05.63.11,1.26.16,1.89.37,4.05.75,8.24-.27,12.24-1.1,4.32-4.62,9.13-9.76,9.49-.27,0-.54,0-.82,0a6.23,6.23,0,0,0-1.75.19c-2.19.64-3.19,3.18-3.06,7.76a111.61,111.61,0,0,1-1.88,23.72c-.44,2.38-1,4.86-2.7,6.68s-4.87,2.66-6.86.91a10.41,10.41,0,0,1-1.82-2.46c-1-1.73-1.75-2.75-3-2.41a2.27,2.27,0,0,0-1.47,1.5l-3.33,9.79A2,2,0,0,1,225.53,374.93Z" fill="#fff"/><path d="M237.86,395.55c-4.19,0-7.58-4.32-9.09-6.36a20.06,20.06,0,0,0-3.17,4.2,3.12,3.12,0,0,1-3.09,1.56,2.73,2.73,0,0,1-2.39-2,3,3,0,0,1-.1-1.27l.74.1a2.43,2.43,0,0,0,.08,1,2,2,0,0,0,1.76,1.45A2.39,2.39,0,0,0,225,393a21.07,21.07,0,0,1,3.6-4.68l.31-.3.26.35c4.34,5.95,8.07,7.71,11.75,5.53a8.18,8.18,0,0,0,2.87-3l.83-1.46c3.05-5.37,6.84-12.05,13.05-11.4.42.05.84.13,1.27.21a5.19,5.19,0,0,0,2.84,0,4.56,4.56,0,0,0,2.11-2.35c2.42-4.78,2.71-10.32,3-15.67a56.18,56.18,0,0,1,1.48-11.91,54.7,54.7,0,0,1,4-9.57c.71-1.44,1.44-2.93,2.1-4.42a56.75,56.75,0,0,0,4.7-19.13l.75.05a57.34,57.34,0,0,1-4.77,19.39c-.66,1.5-1.39,3-2.11,4.44a54.19,54.19,0,0,0-3.93,9.44,55.64,55.64,0,0,0-1.45,11.75c-.29,5.43-.58,11.05-3.07,16A5.24,5.24,0,0,1,262,379a5.83,5.83,0,0,1-3.26,0c-.41-.08-.81-.16-1.21-.2-5.73-.6-9.38,5.84-12.31,11l-.84,1.46a9,9,0,0,1-3.13,3.27A6.64,6.64,0,0,1,237.86,395.55Z" fill="#fff"/><path d="M227.45,256.17a4.78,4.78,0,0,1-1.44-.26,10.8,10.8,0,0,1-4.52-2.9l.54-.51a10.21,10.21,0,0,0,4.22,2.7,2.39,2.39,0,0,0,2.09,0,2.82,2.82,0,0,0,.88-1.85l1.33-6.25c.42-2,1.12-4.17,3-4.89a5.22,5.22,0,0,1,.56-.18,1.39,1.39,0,0,0,1.29-1.78c0-2.46,0-4.95-.16-7.41l.75,0c.11,2.47.16,5,.16,7.44a2.09,2.09,0,0,1-1.83,2.5l-.5.16c-1.54.59-2.12,2.44-2.53,4.35L230,253.48a3.46,3.46,0,0,1-1.18,2.31A2.3,2.3,0,0,1,227.45,256.17Z" fill="#fff"/><path d="M225.45,269.75a2.36,2.36,0,0,1-1.53-.56,1.61,1.61,0,0,1-.6-1.44l.74.09a.87.87,0,0,0,.34.78,1.59,1.59,0,0,0,1.41.33,4.06,4.06,0,0,0,2.06-2,26.27,26.27,0,0,0,3.21-7.76l.14-.61a11.07,11.07,0,0,1,1.06-3.17,3.81,3.81,0,0,1,3.51-2.05,5.26,5.26,0,0,1,1.07.29,4.2,4.2,0,0,0,1,.26,2,2,0,0,0,1.49-.51,3.38,3.38,0,0,0,1.14-2.28,9.47,9.47,0,0,0-.9-4l-.19-.51a13,13,0,0,1-.44-4.48c0-.71,0-1.38,0-2a4.34,4.34,0,0,0-3.16-3.82l.18-.72a5.11,5.11,0,0,1,3.73,4.49c0,.64,0,1.33,0,2a12.56,12.56,0,0,0,.39,4.21l.19.51a10,10,0,0,1,.95,4.33,4.15,4.15,0,0,1-1.41,2.79,2.71,2.71,0,0,1-2,.69,4.74,4.74,0,0,1-1.15-.3,4.87,4.87,0,0,0-.92-.25,3,3,0,0,0-2.77,1.68,10.52,10.52,0,0,0-1,3l-.14.61a27.1,27.1,0,0,1-3.3,8,4.67,4.67,0,0,1-2.49,2.3A1.79,1.79,0,0,1,225.45,269.75Z" fill="#fff"/><path d="M226.14,289.05a2.26,2.26,0,0,1-.69-.1,2,2,0,0,1-1.3-1.32,1.47,1.47,0,0,1,.23-1.37l.59.47a.71.71,0,0,0-.1.68,1.22,1.22,0,0,0,.79.82,2.78,2.78,0,0,0,2.23-.54c3.07-1.91,4.52-5.24,6.07-8.76a38.52,38.52,0,0,1,2.73-5.45c.45-.7,1-1.39,1.46-2.06a10.12,10.12,0,0,0,3-7.81,13.26,13.26,0,0,1,.28-3,15.8,15.8,0,0,1,1.18-2.84,9.85,9.85,0,0,0,1.37-4c-.06-1.62-1.11-2.65-2.23-3.75a15.63,15.63,0,0,1-1.41-1.51c-1.6-2.05-1.64-4.92-1.67-7h.75c0,2.59.17,4.86,1.51,6.56a14.12,14.12,0,0,0,1.35,1.44c1.17,1.16,2.38,2.35,2.44,4.27a10.18,10.18,0,0,1-1.43,4.33,15,15,0,0,0-1.13,2.69,12.48,12.48,0,0,0-.26,2.83,13.86,13.86,0,0,1-.21,2.72,14.38,14.38,0,0,1-3,5.53c-.49.66-1,1.34-1.44,2a38.06,38.06,0,0,0-2.68,5.34c-1.52,3.47-3.09,7.07-6.35,9.1A4.16,4.16,0,0,1,226.14,289.05Z" fill="#fff"/><path d="M226.09,318.09l-.64-.48c-3.82-2.85-3.94-8.65-2.12-12.66,1.53-3.39,4.16-6.11,6.7-8.74.57-.59,1.13-1.17,1.68-1.76a70.55,70.55,0,0,0,16.4-29.36c.17-.63.34-1.26.5-1.89a35.21,35.21,0,0,1,2.67-7.73c1.85-3.47,4.79-5.79,7.88-6.21l1.12-.15-.8.79c-3.36,3.29-3.45,8.46-3.54,13.93-.08,4.55-.16,9.26-2.29,12.86a27.86,27.86,0,0,1-4,4.9,27.31,27.31,0,0,0-3.93,4.79,28.8,28.8,0,0,0-2.77,8.46c-.85,3.92-1.73,8-4.64,10.82a20.87,20.87,0,0,1-2.71,2.12,23.88,23.88,0,0,0-2.06,1.53,27.53,27.53,0,0,1-2.75,2c-2.5,1.68-4.87,3.26-4.73,6Zm32.07-67.85a11,11,0,0,0-6.22,5.58,34.56,34.56,0,0,0-2.6,7.57c-.17.63-.33,1.27-.51,1.9A71.25,71.25,0,0,1,232.25,295q-.83.89-1.68,1.77c-2.5,2.58-5.08,5.26-6.56,8.53-1.6,3.52-1.62,8.51,1.31,11.27.29-2.67,2.7-4.29,5.05-5.85a31.48,31.48,0,0,0,2.67-1.94c.67-.57,1.41-1.08,2.12-1.58a19.8,19.8,0,0,0,2.62-2c2.74-2.68,3.56-6.45,4.43-10.44.65-3,1.31-6.06,2.86-8.68a27,27,0,0,1,4-4.93A27.9,27.9,0,0,0,253,276.3c2-3.42,2.1-8,2.18-12.48C255.27,258.87,255.36,253.76,258.16,250.24Z" fill="#fff"/><path d="M260.94,249.55c-3.1-1.4-8-1.14-12.65-.88a50.19,50.19,0,0,1-7.63.05l-1-.12.86-.57c1.28-.84,2.22-2.62,2.65-5,.6-3.37,0-7.07-1.37-9l.6-.45c1.53,2.08,2.15,6,1.51,9.58a9.18,9.18,0,0,1-2.23,4.89,60.38,60.38,0,0,0,6.6-.13c4.78-.26,9.73-.52,13,1Z" fill="#fff"/><path d="M270.12,399.9c-2.5-7.76.09-18.18,2.17-26.56.32-1.26.62-2.48.89-3.65a65.24,65.24,0,0,0-.33-31.3l.73-.19a66.14,66.14,0,0,1,.33,31.67c-.27,1.17-.58,2.39-.89,3.65-2.06,8.29-4.62,18.59-2.19,26.15Z" fill="#fff"/><path d="M262.32,400.18c-1.05-2.67-.49-7.23,0-11.26a45.61,45.61,0,0,0,.48-5.53,14.42,14.42,0,0,0-1-5l.7-.27a15.17,15.17,0,0,1,1,5.29,47,47,0,0,1-.49,5.63c-.48,3.94-1,8.4,0,10.89Z" fill="#fff"/><path d="M255,400.58l-.74-.12a34.55,34.55,0,0,0,.11-4.78,32.64,32.64,0,0,1,.09-4.62,18.9,18.9,0,0,1,.71-2.83c.14-.47.29-.94.41-1.42a17.06,17.06,0,0,0,.17-7.91l.74-.16a18,18,0,0,1-.18,8.26c-.13.49-.28,1-.43,1.45a18.53,18.53,0,0,0-.68,2.71,34.66,34.66,0,0,0-.08,4.5A33.5,33.5,0,0,1,255,400.58Z" fill="#fff"/><path d="M246.75,399.86a57.33,57.33,0,0,1-.27-13.35l.74.11a55.74,55.74,0,0,0,.27,13.1Z" fill="#fff"/></svg>