<svg xmlns="http://www.w3.org/2000/svg" width="370" height="370" viewBox="0 0 370 370"><title>the-daily-swig</title><rect x="-8.1" y="-4.64" width="389" height="381" fill="#324d5c"/><g opacity="0.1"><path d="M19.18,13.59A3.64,3.64,0,0,1,16,11.69a9.81,9.81,0,0,1-1.19-5.23A9.75,9.75,0,0,1,16,1.24a3.67,3.67,0,0,1,6.44,0,9.79,9.79,0,0,1,1.2,5.22,9.73,9.73,0,0,1-1.2,5.21A3.64,3.64,0,0,1,19.18,13.59Zm0-12.72a2.12,2.12,0,0,0-1.93,1.46,9.9,9.9,0,0,0-.69,4.13,10,10,0,0,0,.69,4.15,2,2,0,0,0,3.87,0,10,10,0,0,0,.69-4.15,9.9,9.9,0,0,0-.69-4.13A2.13,2.13,0,0,0,19.18.87Z" fill="#fff"/><path d="M32.44,13.59a3.65,3.65,0,0,1-3.23-1.9A9.9,9.9,0,0,1,28,6.46a9.84,9.84,0,0,1,1.19-5.22,3.68,3.68,0,0,1,6.45,0,9.79,9.79,0,0,1,1.2,5.22,9.73,9.73,0,0,1-1.2,5.21A3.65,3.65,0,0,1,32.44,13.59Zm0-12.72a2.12,2.12,0,0,0-1.93,1.46,9.9,9.9,0,0,0-.69,4.13,10,10,0,0,0,.69,4.15,2,2,0,0,0,3.87,0,10,10,0,0,0,.69-4.15,9.9,9.9,0,0,0-.69-4.13A2.13,2.13,0,0,0,32.44.87Z" fill="#fff"/><path d="M45.7,13.59a3.65,3.65,0,0,1-3.23-1.9,9.9,9.9,0,0,1-1.19-5.23,9.84,9.84,0,0,1,1.19-5.22,3.68,3.68,0,0,1,6.45,0,9.79,9.79,0,0,1,1.2,5.22,9.73,9.73,0,0,1-1.2,5.21A3.65,3.65,0,0,1,45.7,13.59ZM45.7.87a2.13,2.13,0,0,0-1.94,1.46,9.9,9.9,0,0,0-.69,4.13,10,10,0,0,0,.69,4.15,2,2,0,0,0,3.88,0,10,10,0,0,0,.69-4.15,9.9,9.9,0,0,0-.69-4.13A2.13,2.13,0,0,0,45.7.87Z" fill="#fff"/><path d="M59,13.59a3.65,3.65,0,0,1-3.22-1.9,9.9,9.9,0,0,1-1.19-5.23,9.84,9.84,0,0,1,1.19-5.22,3.68,3.68,0,0,1,6.45,0,9.79,9.79,0,0,1,1.2,5.22,9.73,9.73,0,0,1-1.2,5.21A3.65,3.65,0,0,1,59,13.59ZM59,.87A2.13,2.13,0,0,0,57,2.33a9.9,9.9,0,0,0-.69,4.13A10,10,0,0,0,57,10.61a2,2,0,0,0,3.88,0,10,10,0,0,0,.69-4.15,9.9,9.9,0,0,0-.69-4.13A2.13,2.13,0,0,0,59,.87Z" fill="#fff"/><path d="M72.21,13.59A3.64,3.64,0,0,1,69,11.69,9.9,9.9,0,0,1,67.8,6.46,9.84,9.84,0,0,1,69,1.24a3.68,3.68,0,0,1,6.45,0,9.8,9.8,0,0,1,1.19,5.22,9.73,9.73,0,0,1-1.19,5.21A3.66,3.66,0,0,1,72.21,13.59Zm0-12.72a2.12,2.12,0,0,0-1.93,1.46,9.9,9.9,0,0,0-.69,4.13,10,10,0,0,0,.69,4.15,2,2,0,0,0,3.87,0,10,10,0,0,0,.69-4.15,9.9,9.9,0,0,0-.69-4.13A2.12,2.12,0,0,0,72.21.87Z" fill="#fff"/><path d="M85.47,13.59a3.64,3.64,0,0,1-3.22-1.9,9.81,9.81,0,0,1-1.19-5.23,9.75,9.75,0,0,1,1.19-5.22,3.68,3.68,0,0,1,6.45,0,9.89,9.89,0,0,1,1.19,5.22,9.83,9.83,0,0,1-1.19,5.21A3.66,3.66,0,0,1,85.47,13.59Zm0-12.72a2.12,2.12,0,0,0-1.93,1.46,9.9,9.9,0,0,0-.69,4.13,10,10,0,0,0,.69,4.15,2,2,0,0,0,3.87,0,10,10,0,0,0,.69-4.15,9.9,9.9,0,0,0-.69-4.13A2.13,2.13,0,0,0,85.47.87Z" fill="#fff"/><path d="M98.73,13.59a3.64,3.64,0,0,1-3.22-1.9,9.81,9.81,0,0,1-1.19-5.23,9.75,9.75,0,0,1,1.19-5.22,3.67,3.67,0,0,1,6.44,0,9.79,9.79,0,0,1,1.2,5.22,9.73,9.73,0,0,1-1.2,5.21A3.64,3.64,0,0,1,98.73,13.59Zm0-12.72A2.12,2.12,0,0,0,96.8,2.33a9.9,9.9,0,0,0-.69,4.13,10,10,0,0,0,.69,4.15,2,2,0,0,0,3.87,0,10,10,0,0,0,.69-4.15,9.9,9.9,0,0,0-.69-4.13A2.13,2.13,0,0,0,98.73.87Z" fill="#fff"/><path d="M112,13.59a3.65,3.65,0,0,1-3.23-1.9,9.9,9.9,0,0,1-1.19-5.23,9.84,9.84,0,0,1,1.19-5.22,3.68,3.68,0,0,1,6.45,0,9.79,9.79,0,0,1,1.2,5.22,9.73,9.73,0,0,1-1.2,5.21A3.65,3.65,0,0,1,112,13.59ZM112,.87a2.12,2.12,0,0,0-1.93,1.46,9.9,9.9,0,0,0-.69,4.13,10,10,0,0,0,.69,4.15,2,2,0,0,0,3.87,0,10,10,0,0,0,.69-4.15,9.9,9.9,0,0,0-.69-4.13A2.13,2.13,0,0,0,112,.87Z" fill="#fff"/><path d="M138.5,13.59a3.65,3.65,0,0,1-3.22-1.9,9.9,9.9,0,0,1-1.19-5.23,9.84,9.84,0,0,1,1.19-5.22,3.68,3.68,0,0,1,6.45,0,9.79,9.79,0,0,1,1.2,5.22,9.73,9.73,0,0,1-1.2,5.21A3.65,3.65,0,0,1,138.5,13.59Zm0-12.72a2.13,2.13,0,0,0-1.93,1.46,9.9,9.9,0,0,0-.69,4.13,10,10,0,0,0,.69,4.15,2,2,0,0,0,3.88,0,10,10,0,0,0,.69-4.15,9.9,9.9,0,0,0-.69-4.13A2.13,2.13,0,0,0,138.5.87Z" fill="#fff"/><path d="M151.76,13.59a3.64,3.64,0,0,1-3.22-1.9,9.9,9.9,0,0,1-1.19-5.23,9.84,9.84,0,0,1,1.19-5.22,3.68,3.68,0,0,1,6.45,0,9.79,9.79,0,0,1,1.2,5.22,9.73,9.73,0,0,1-1.2,5.21A3.66,3.66,0,0,1,151.76,13.59Zm0-12.72a2.12,2.12,0,0,0-1.93,1.46,9.9,9.9,0,0,0-.69,4.13,10,10,0,0,0,.69,4.15,2,2,0,0,0,3.87,0,10,10,0,0,0,.69-4.15,9.9,9.9,0,0,0-.69-4.13A2.12,2.12,0,0,0,151.76.87Z" fill="#fff"/><path d="M165,13.59a3.64,3.64,0,0,1-3.22-1.9,9.81,9.81,0,0,1-1.19-5.23,9.75,9.75,0,0,1,1.19-5.22,3.68,3.68,0,0,1,6.45,0,9.89,9.89,0,0,1,1.19,5.22,9.83,9.83,0,0,1-1.19,5.21A3.66,3.66,0,0,1,165,13.59ZM165,.87a2.12,2.12,0,0,0-1.93,1.46,9.9,9.9,0,0,0-.69,4.13,10,10,0,0,0,.69,4.15,2,2,0,0,0,3.87,0,10,10,0,0,0,.69-4.15A9.9,9.9,0,0,0,167,2.33,2.13,2.13,0,0,0,165,.87Z" fill="#fff"/><path d="M178.28,13.59a3.64,3.64,0,0,1-3.22-1.9,9.81,9.81,0,0,1-1.19-5.23,9.75,9.75,0,0,1,1.19-5.22,3.67,3.67,0,0,1,6.44,0,9.79,9.79,0,0,1,1.2,5.22,9.73,9.73,0,0,1-1.2,5.21A3.64,3.64,0,0,1,178.28,13.59Zm0-12.72a2.12,2.12,0,0,0-1.93,1.46,9.9,9.9,0,0,0-.69,4.13,10,10,0,0,0,.69,4.15,2,2,0,0,0,3.87,0,10,10,0,0,0,.69-4.15,9.9,9.9,0,0,0-.69-4.13A2.13,2.13,0,0,0,178.28.87Z" fill="#fff"/><path d="M193.22,5.84a3.58,3.58,0,0,1,2,1.26,3.54,3.54,0,0,1,.69,2.22,3.92,3.92,0,0,1-1.33,3.07,5,5,0,0,1-3.47,1.2,6.56,6.56,0,0,1-2.92-.63c-.85-.41-1.27-.88-1.27-1.38a.67.67,0,0,1,.23-.53.79.79,0,0,1,.56-.21,6.06,6.06,0,0,1,1.34.55,4.92,4.92,0,0,0,2.14.55,3,3,0,0,0,2.08-.73A2.44,2.44,0,0,0,194,9.32a2.44,2.44,0,0,0-.56-1.62A2.56,2.56,0,0,0,192,6.85c-.2,0-.45-.06-.77-.08q-.9-.06-.9-.75c0-.43.29-.67.88-.75a5.53,5.53,0,0,0,.57-.07,2.28,2.28,0,0,0,1.36-.69,1.89,1.89,0,0,0,.52-1.35A2.26,2.26,0,0,0,193,1.49a2.16,2.16,0,0,0-1.62-.64,3.7,3.7,0,0,0-1.86.55,3.6,3.6,0,0,1-1.19.56.68.68,0,0,1-.5-.19.62.62,0,0,1-.2-.48c0-.44.4-.88,1.21-1.31a5.58,5.58,0,0,1,2.67-.65,4,4,0,0,1,2.8,1,3.22,3.22,0,0,1,1.12,2.49,3,3,0,0,1-.54,1.86A3.34,3.34,0,0,1,193.22,5.84Z" fill="#fff"/><path d="M201,13.24a1.35,1.35,0,0,1-.85-.23.9.9,0,0,1-.27-.72c0-.46.69-1.34,2.07-2.62l.31-.3.91-.86Q206.95,5,206.94,3.4a2.63,2.63,0,0,0-.66-1.86,2.18,2.18,0,0,0-1.7-.72,3.23,3.23,0,0,0-1.3.28,2.58,2.58,0,0,0-1,.76l-.2.29q-.41.72-.9.72a.62.62,0,0,1-.55-.24,1.72,1.72,0,0,1-.16-.9,1.61,1.61,0,0,1,.07-.57,1.47,1.47,0,0,1,.29-.38,5,5,0,0,1,1.7-1.06,5.82,5.82,0,0,1,2.09-.39,4.13,4.13,0,0,1,3,1.15,3.74,3.74,0,0,1,1.21,2.83c0,1.41-1.22,3.27-3.67,5.61-.62.58-1.1,1-1.43,1.36l-1.33,1.27h4.93a1.25,1.25,0,0,1,.25-.71.73.73,0,0,1,.57-.25.7.7,0,0,1,.56.24.94.94,0,0,1,.21.65s0,0,0,.11,0,.09,0,.11l-.08.83a.91.91,0,0,1-.2.52.5.5,0,0,1-.42.19Z" fill="#fff"/><path d="M218.05,13.59a3.65,3.65,0,0,1-3.22-1.9,9.9,9.9,0,0,1-1.19-5.23,9.84,9.84,0,0,1,1.19-5.22,3.68,3.68,0,0,1,6.45,0,9.79,9.79,0,0,1,1.2,5.22,9.73,9.73,0,0,1-1.2,5.21A3.65,3.65,0,0,1,218.05,13.59Zm0-12.72a2.13,2.13,0,0,0-1.93,1.46,9.9,9.9,0,0,0-.69,4.13,10,10,0,0,0,.69,4.15,2,2,0,0,0,3.88,0,10,10,0,0,0,.69-4.15A9.9,9.9,0,0,0,220,2.33,2.13,2.13,0,0,0,218.05.87Z" fill="#fff"/><path d="M255.67,6.29A3.82,3.82,0,0,1,254.1,5a3.18,3.18,0,0,1-.53-1.84A3.53,3.53,0,0,1,254.76.4a4.91,4.91,0,0,1,6.12,0A3.4,3.4,0,0,1,262.1,3a3.46,3.46,0,0,1-.52,2A3.73,3.73,0,0,1,260,6.29a3.58,3.58,0,0,1,1.67,1.29,3.47,3.47,0,0,1,.58,2A3.74,3.74,0,0,1,261,12.48a4.52,4.52,0,0,1-3.17,1.11,4.44,4.44,0,0,1-3.17-1.13,3.76,3.76,0,0,1-1.22-2.92A3.31,3.31,0,0,1,254,7.6,3.68,3.68,0,0,1,255.67,6.29Zm-.46,3.25a2.47,2.47,0,0,0,.71,1.85,3,3,0,0,0,3.82,0,2.42,2.42,0,0,0,.72-1.83,2.37,2.37,0,0,0-.73-1.81,2.66,2.66,0,0,0-1.9-.69,2.69,2.69,0,0,0-1.89.68A2.32,2.32,0,0,0,255.21,9.54Zm.11-6.4a2.3,2.3,0,0,0,.7,1.74,2.75,2.75,0,0,0,3.62,0,2.31,2.31,0,0,0,.71-1.76,2.23,2.23,0,0,0-.71-1.71,2.78,2.78,0,0,0-3.62,0A2.29,2.29,0,0,0,255.32,3.14Z" fill="#fff"/><path d="M268.93,6.29A3.92,3.92,0,0,1,267.35,5a3.25,3.25,0,0,1-.52-1.84A3.53,3.53,0,0,1,268,.4a4.91,4.91,0,0,1,6.12,0A3.4,3.4,0,0,1,275.36,3a3.46,3.46,0,0,1-.52,2,3.71,3.71,0,0,1-1.61,1.31,3.56,3.56,0,0,1,1.68,1.29,3.54,3.54,0,0,1,.58,2,3.74,3.74,0,0,1-1.23,2.89,4.52,4.52,0,0,1-3.17,1.11,4.44,4.44,0,0,1-3.17-1.13,3.76,3.76,0,0,1-1.22-2.92,3.31,3.31,0,0,1,.58-1.94A3.68,3.68,0,0,1,268.93,6.29Zm-.46,3.25a2.47,2.47,0,0,0,.71,1.85,3,3,0,0,0,3.82,0,2.42,2.42,0,0,0,.72-1.83A2.41,2.41,0,0,0,273,7.77a3,3,0,0,0-3.79,0A2.32,2.32,0,0,0,268.47,9.54Zm.1-6.4a2.31,2.31,0,0,0,.71,1.74,2.75,2.75,0,0,0,3.62,0,2.35,2.35,0,0,0,.71-1.76,2.27,2.27,0,0,0-.71-1.71,2.79,2.79,0,0,0-3.63,0A2.33,2.33,0,0,0,268.57,3.14Z" fill="#fff"/><path d="M284.35,13.59a3.65,3.65,0,0,1-3.23-1.9,9.9,9.9,0,0,1-1.19-5.23,9.84,9.84,0,0,1,1.19-5.22,3.68,3.68,0,0,1,6.45,0,9.79,9.79,0,0,1,1.2,5.22,9.73,9.73,0,0,1-1.2,5.21A3.65,3.65,0,0,1,284.35,13.59Zm0-12.72a2.13,2.13,0,0,0-1.94,1.46,9.9,9.9,0,0,0-.69,4.13,10,10,0,0,0,.69,4.15,2,2,0,0,0,3.88,0A10,10,0,0,0,287,6.46a9.9,9.9,0,0,0-.69-4.13A2.13,2.13,0,0,0,284.35.87Z" fill="#fff"/><path d="M297.6,13.59a3.65,3.65,0,0,1-3.22-1.9,9.9,9.9,0,0,1-1.19-5.23,9.84,9.84,0,0,1,1.19-5.22,3.68,3.68,0,0,1,6.45,0A9.79,9.79,0,0,1,302,6.46a9.73,9.73,0,0,1-1.2,5.21A3.65,3.65,0,0,1,297.6,13.59Zm0-12.72a2.13,2.13,0,0,0-1.93,1.46A9.9,9.9,0,0,0,295,6.46a10,10,0,0,0,.69,4.15,2,2,0,0,0,3.88,0,10,10,0,0,0,.69-4.15,9.9,9.9,0,0,0-.69-4.13A2.13,2.13,0,0,0,297.6.87Z" fill="#fff"/><path d="M310.86,13.59a3.64,3.64,0,0,1-3.22-1.9,9.9,9.9,0,0,1-1.19-5.23,9.84,9.84,0,0,1,1.19-5.22,3.68,3.68,0,0,1,6.45,0,9.79,9.79,0,0,1,1.2,5.22,9.73,9.73,0,0,1-1.2,5.21A3.66,3.66,0,0,1,310.86,13.59Zm0-12.72a2.13,2.13,0,0,0-1.93,1.46,9.9,9.9,0,0,0-.69,4.13,10,10,0,0,0,.69,4.15,2,2,0,0,0,3.87,0,10,10,0,0,0,.69-4.15,9.9,9.9,0,0,0-.69-4.13A2.12,2.12,0,0,0,310.86.87Z" fill="#fff"/><path d="M337.38,13.59a3.64,3.64,0,0,1-3.22-1.9A9.81,9.81,0,0,1,333,6.46a9.75,9.75,0,0,1,1.19-5.22,3.67,3.67,0,0,1,6.44,0,9.79,9.79,0,0,1,1.2,5.22,9.73,9.73,0,0,1-1.2,5.21A3.64,3.64,0,0,1,337.38,13.59Zm0-12.72a2.12,2.12,0,0,0-1.93,1.46,9.9,9.9,0,0,0-.69,4.13,10,10,0,0,0,.69,4.15,2,2,0,0,0,3.87,0A10,10,0,0,0,340,6.46a9.9,9.9,0,0,0-.69-4.13A2.13,2.13,0,0,0,337.38.87Z" fill="#fff"/><path d="M350.64,13.59a3.64,3.64,0,0,1-3.22-1.9,9.81,9.81,0,0,1-1.2-5.23,9.74,9.74,0,0,1,1.2-5.22,3.67,3.67,0,0,1,6.44,0,9.79,9.79,0,0,1,1.2,5.22,9.73,9.73,0,0,1-1.2,5.21A3.65,3.65,0,0,1,350.64,13.59Zm0-12.72a2.12,2.12,0,0,0-1.93,1.46A9.9,9.9,0,0,0,348,6.46a10,10,0,0,0,.69,4.15,2,2,0,0,0,3.87,0,10,10,0,0,0,.69-4.15,9.9,9.9,0,0,0-.69-4.13A2.13,2.13,0,0,0,350.64.87Z" fill="#fff"/><path d="M360.45,6.43l7.91,3.64a2.41,2.41,0,0,1,.68.44.72.72,0,0,1,.21.5.74.74,0,0,1-.19.52.7.7,0,0,1-.53.19,1.39,1.39,0,0,1-.33-.05,4.78,4.78,0,0,1-.52-.22l-8.57-4-.11,0q-1-.45-1-1c0-.35.32-.68,1-1l.13-.07,8.57-3.92a4,4,0,0,1,.5-.2,1.22,1.22,0,0,1,.35-.06.74.74,0,0,1,.53.18.7.7,0,0,1,.19.5.73.73,0,0,1-.21.51,2,2,0,0,1-.68.43Z" fill="#fff"/><path d="M5.92,40A3.65,3.65,0,0,1,2.7,38.1a9.76,9.76,0,0,1-1.19-5.23A9.8,9.8,0,0,1,2.7,27.65a3.68,3.68,0,0,1,6.45,0,9.85,9.85,0,0,1,1.19,5.21,9.89,9.89,0,0,1-1.19,5.22A3.66,3.66,0,0,1,5.92,40Zm0-12.73A2.13,2.13,0,0,0,4,28.75a9.9,9.9,0,0,0-.69,4.13A10,10,0,0,0,4,37a2.12,2.12,0,0,0,1.93,1.46A2.13,2.13,0,0,0,7.86,37a10,10,0,0,0,.69-4.15,9.9,9.9,0,0,0-.69-4.13A2.14,2.14,0,0,0,5.92,27.28Z" fill="#fff"/><path d="M19.18,40A3.65,3.65,0,0,1,16,38.1a9.76,9.76,0,0,1-1.19-5.23A9.8,9.8,0,0,1,16,27.65a3.67,3.67,0,0,1,6.44,0,9.75,9.75,0,0,1,1.2,5.21,9.79,9.79,0,0,1-1.2,5.22A3.64,3.64,0,0,1,19.18,40Zm0-12.73a2.13,2.13,0,0,0-1.93,1.47,9.9,9.9,0,0,0-.69,4.13A10,10,0,0,0,17.25,37a2,2,0,0,0,3.87,0,10,10,0,0,0,.69-4.15,9.9,9.9,0,0,0-.69-4.13A2.14,2.14,0,0,0,19.18,27.28Z" fill="#fff"/><path d="M32.44,40a3.66,3.66,0,0,1-3.23-1.91A9.85,9.85,0,0,1,28,32.87a9.89,9.89,0,0,1,1.19-5.22,3.68,3.68,0,0,1,6.45,0,9.75,9.75,0,0,1,1.2,5.21,9.79,9.79,0,0,1-1.2,5.22A3.65,3.65,0,0,1,32.44,40Zm0-12.73a2.13,2.13,0,0,0-1.93,1.47,9.9,9.9,0,0,0-.69,4.13A10,10,0,0,0,30.51,37a2,2,0,0,0,3.87,0,10,10,0,0,0,.69-4.15,9.9,9.9,0,0,0-.69-4.13A2.14,2.14,0,0,0,32.44,27.28Z" fill="#fff"/><path d="M45.7,40a3.66,3.66,0,0,1-3.23-1.91,9.85,9.85,0,0,1-1.19-5.23,9.89,9.89,0,0,1,1.19-5.22,3.68,3.68,0,0,1,6.45,0,9.75,9.75,0,0,1,1.2,5.21,9.79,9.79,0,0,1-1.2,5.22A3.65,3.65,0,0,1,45.7,40Zm0-12.73a2.14,2.14,0,0,0-1.94,1.47,9.9,9.9,0,0,0-.69,4.13A10,10,0,0,0,43.76,37a2,2,0,0,0,3.88,0,10,10,0,0,0,.69-4.15,9.9,9.9,0,0,0-.69-4.13A2.14,2.14,0,0,0,45.7,27.28Z" fill="#fff"/><path d="M72.37,39.44a.83.83,0,0,1-.16.33.39.39,0,0,1-.28.08H71a.57.57,0,0,1-.34-.09.26.26,0,0,1-.12-.23.91.91,0,0,1,0-.17s0-.12,0-.19L74.82,27.7H69.34a1.31,1.31,0,0,1-.22.75.7.7,0,0,1-.58.24.73.73,0,0,1-.54-.18.78.78,0,0,1-.18-.57v-.16a.44.44,0,0,0,0-.1l.11-1a.65.65,0,0,1,.22-.46.76.76,0,0,1,.51-.16h7.14a.71.71,0,0,1,.45.13.56.56,0,0,1,.15.43V27a1.74,1.74,0,0,1,0,.34q-.06.21-.18.57Z" fill="#fff"/><path d="M83.31,32.71a4,4,0,0,1-1.57-1.31,3.26,3.26,0,0,1-.53-1.84,3.49,3.49,0,0,1,1.2-2.74,4.9,4.9,0,0,1,6.11,0,3.35,3.35,0,0,1,1.22,2.63,3.45,3.45,0,0,1-.52,1.94,3.75,3.75,0,0,1-1.6,1.32A3.58,3.58,0,0,1,89.29,34a3.46,3.46,0,0,1,.58,2,3.73,3.73,0,0,1-1.22,2.89,5,5,0,0,1-6.35,0A3.8,3.8,0,0,1,81.08,36a3.37,3.37,0,0,1,.58-2A3.66,3.66,0,0,1,83.31,32.71ZM82.85,36a2.53,2.53,0,0,0,.71,1.85,3,3,0,0,0,3.82,0A2.42,2.42,0,0,0,88.1,36a2.37,2.37,0,0,0-.73-1.81,3,3,0,0,0-3.79,0A2.31,2.31,0,0,0,82.85,36Zm.11-6.4a2.3,2.3,0,0,0,.7,1.74,2.48,2.48,0,0,0,1.81.68,2.53,2.53,0,0,0,1.82-.68,2.36,2.36,0,0,0,.7-1.76,2.26,2.26,0,0,0-.7-1.71,2.76,2.76,0,0,0-3.63,0A2.28,2.28,0,0,0,83,29.56Z" fill="#fff"/><path d="M111.86,39.66H107a.73.73,0,0,1-.56-.2.78.78,0,0,1-.19-.58.63.63,0,0,1,.24-.58,2.36,2.36,0,0,1,1.13-.16H108V28.46h-.36a2.19,2.19,0,0,1-1.07-.17.69.69,0,0,1-.24-.61.77.77,0,0,1,.2-.57.71.71,0,0,1,.56-.2h5a5.81,5.81,0,0,1,3.48.88,3,3,0,0,1,1.2,2.58,2.85,2.85,0,0,1-.37,1.48,2.81,2.81,0,0,1-1.09,1,3.58,3.58,0,0,1,1.73,1.18,3.07,3.07,0,0,1,.57,1.91,3.39,3.39,0,0,1-.48,1.78,4,4,0,0,1-1.37,1.33,4.15,4.15,0,0,1-1.18.43,9.41,9.41,0,0,1-1.83.14Zm-2.17-7.25h2.25a4.21,4.21,0,0,0,2.27-.48,1.66,1.66,0,0,0,.74-1.5,1.72,1.72,0,0,0-.67-1.46,3.09,3.09,0,0,0-1.92-.51h-2.67Zm0,5.73h2.39a5.78,5.78,0,0,0,2.86-.51,1.82,1.82,0,0,0,.83-1.69,1.84,1.84,0,0,0-.79-1.7,5.5,5.5,0,0,0-2.79-.51h-2.5Z" fill="#fff"/><path d="M126.93,32.26a3.41,3.41,0,0,1,2.65,3.47,3.92,3.92,0,0,1-1.34,3.08,5,5,0,0,1-3.46,1.2,6.53,6.53,0,0,1-2.92-.63c-.85-.42-1.28-.88-1.28-1.38a.68.68,0,0,1,.24-.53.79.79,0,0,1,.56-.21,5.88,5.88,0,0,1,1.33.55,5.12,5.12,0,0,0,2.15.54,3,3,0,0,0,2.08-.73,2.41,2.41,0,0,0,.81-1.89,2.45,2.45,0,0,0-.56-1.62,2.52,2.52,0,0,0-1.52-.84c-.2,0-.45-.06-.77-.09-.6,0-.91-.28-.91-.75s.3-.67.89-.74l.57-.07a2.31,2.31,0,0,0,1.36-.69,2,2,0,0,0,.52-1.36,2.24,2.24,0,0,0-.64-1.66,2.17,2.17,0,0,0-1.62-.65,3.72,3.72,0,0,0-1.86.56,4,4,0,0,1-1.19.56.68.68,0,0,1-.5-.19.63.63,0,0,1-.2-.49c0-.43.4-.87,1.21-1.3a5.44,5.44,0,0,1,2.67-.65,4,4,0,0,1,2.8,1,3.27,3.27,0,0,1,1.12,2.5,3.06,3.06,0,0,1-.54,1.86A3.34,3.34,0,0,1,126.93,32.26Z" fill="#fff"/><path d="M134.75,39.66a1.27,1.27,0,0,1-.85-.24.88.88,0,0,1-.27-.71c0-.47.69-1.34,2.07-2.62l.31-.3.91-.86q3.74-3.51,3.73-5.11A2.61,2.61,0,0,0,140,28a2.19,2.19,0,0,0-1.7-.72,3,3,0,0,0-1.3.28,2.66,2.66,0,0,0-1,.75l-.2.29q-.4.72-.9.72a.63.63,0,0,1-.55-.23,1.74,1.74,0,0,1-.16-.91,1.58,1.58,0,0,1,.07-.56,1.27,1.27,0,0,1,.28-.38,4.91,4.91,0,0,1,1.71-1.06,5.82,5.82,0,0,1,2.09-.39,4.14,4.14,0,0,1,3,1.15,3.78,3.78,0,0,1,1.21,2.83c0,1.4-1.23,3.27-3.67,5.6-.63.58-1.1,1-1.44,1.37L136.1,38H141a1.25,1.25,0,0,1,.25-.71.77.77,0,0,1,1.13,0,.93.93,0,0,1,.2.64.68.68,0,0,1,0,.12c0,.05,0,.09,0,.11l-.08.83a1,1,0,0,1-.2.52.55.55,0,0,1-.42.19Z" fill="#fff"/><path d="M151.76,40a3.65,3.65,0,0,1-3.22-1.91,9.85,9.85,0,0,1-1.19-5.23,9.89,9.89,0,0,1,1.19-5.22,3.68,3.68,0,0,1,6.45,0,9.75,9.75,0,0,1,1.2,5.21,9.79,9.79,0,0,1-1.2,5.22A3.66,3.66,0,0,1,151.76,40Zm0-12.73a2.13,2.13,0,0,0-1.93,1.47,9.9,9.9,0,0,0-.69,4.13,10,10,0,0,0,.69,4.15,2,2,0,0,0,3.87,0,10,10,0,0,0,.69-4.15,9.9,9.9,0,0,0-.69-4.13A2.13,2.13,0,0,0,151.76,27.28Z" fill="#fff"/><path d="M165,40a3.65,3.65,0,0,1-3.22-1.91,9.76,9.76,0,0,1-1.19-5.23,9.8,9.8,0,0,1,1.19-5.22,3.68,3.68,0,0,1,6.45,0,9.85,9.85,0,0,1,1.19,5.21,9.89,9.89,0,0,1-1.19,5.22A3.66,3.66,0,0,1,165,40Zm0-12.73a2.13,2.13,0,0,0-1.93,1.47,9.9,9.9,0,0,0-.69,4.13,10,10,0,0,0,.69,4.15A2,2,0,0,0,167,37a10,10,0,0,0,.69-4.15,9.9,9.9,0,0,0-.69-4.13A2.14,2.14,0,0,0,165,27.28Z" fill="#fff"/><path d="M191.54,40a3.63,3.63,0,0,1-3.22-1.91,9.76,9.76,0,0,1-1.2-5.23,9.79,9.79,0,0,1,1.2-5.22,3.67,3.67,0,0,1,6.44,0,9.75,9.75,0,0,1,1.2,5.21,9.79,9.79,0,0,1-1.2,5.22A3.65,3.65,0,0,1,191.54,40Zm0-12.73a2.13,2.13,0,0,0-1.93,1.47,9.9,9.9,0,0,0-.69,4.13,10,10,0,0,0,.69,4.15,2,2,0,0,0,3.87,0,10,10,0,0,0,.69-4.15,9.9,9.9,0,0,0-.69-4.13A2.14,2.14,0,0,0,191.54,27.28Z" fill="#fff"/><path d="M218.05,40a3.66,3.66,0,0,1-3.22-1.91,9.85,9.85,0,0,1-1.19-5.23,9.89,9.89,0,0,1,1.19-5.22,3.68,3.68,0,0,1,6.45,0,9.75,9.75,0,0,1,1.2,5.21,9.79,9.79,0,0,1-1.2,5.22A3.65,3.65,0,0,1,218.05,40Zm0-12.73a2.14,2.14,0,0,0-1.93,1.47,9.9,9.9,0,0,0-.69,4.13,10,10,0,0,0,.69,4.15A2,2,0,0,0,220,37a10,10,0,0,0,.69-4.15,9.9,9.9,0,0,0-.69-4.13A2.14,2.14,0,0,0,218.05,27.28Z" fill="#fff"/><path d="M254.07,39.66a1.24,1.24,0,0,1-.84-.24.85.85,0,0,1-.28-.71c0-.47.69-1.34,2.07-2.62l.32-.3.9-.86Q260,31.42,260,29.82a2.61,2.61,0,0,0-.66-1.86,2.21,2.21,0,0,0-1.71-.72,3.07,3.07,0,0,0-1.3.28,2.71,2.71,0,0,0-1,.75l-.21.29c-.27.48-.56.72-.9.72a.65.65,0,0,1-.55-.23,1.85,1.85,0,0,1-.16-.91,1.54,1.54,0,0,1,.08-.56,1.12,1.12,0,0,1,.28-.38,4.91,4.91,0,0,1,1.71-1.06,5.78,5.78,0,0,1,2.09-.39,4.14,4.14,0,0,1,3,1.15,3.77,3.77,0,0,1,1.2,2.83q0,2.1-3.67,5.6c-.62.58-1.1,1-1.43,1.37L255.42,38h4.93a1.25,1.25,0,0,1,.25-.71.72.72,0,0,1,.57-.25.68.68,0,0,1,.56.24.93.93,0,0,1,.21.64.68.68,0,0,1,0,.12.54.54,0,0,0,0,.11l-.09.83a1,1,0,0,1-.19.52.55.55,0,0,1-.42.19Z" fill="#fff"/><path d="M271.09,40a3.65,3.65,0,0,1-3.22-1.91,9.76,9.76,0,0,1-1.2-5.23,9.79,9.79,0,0,1,1.2-5.22,3.67,3.67,0,0,1,6.44,0,9.75,9.75,0,0,1,1.2,5.21,9.79,9.79,0,0,1-1.2,5.22A3.65,3.65,0,0,1,271.09,40Zm0-12.73a2.13,2.13,0,0,0-1.93,1.47,9.9,9.9,0,0,0-.69,4.13,10,10,0,0,0,.69,4.15A2,2,0,0,0,273,37a10,10,0,0,0,.69-4.15,9.9,9.9,0,0,0-.69-4.13A2.14,2.14,0,0,0,271.09,27.28Z" fill="#fff"/><path d="M284.35,40a3.66,3.66,0,0,1-3.23-1.91,9.85,9.85,0,0,1-1.19-5.23,9.89,9.89,0,0,1,1.19-5.22,3.68,3.68,0,0,1,6.45,0,9.75,9.75,0,0,1,1.2,5.21,9.79,9.79,0,0,1-1.2,5.22A3.65,3.65,0,0,1,284.35,40Zm0-12.73a2.14,2.14,0,0,0-1.94,1.47,9.9,9.9,0,0,0-.69,4.13,10,10,0,0,0,.69,4.15,2,2,0,0,0,3.88,0,10,10,0,0,0,.69-4.15,9.9,9.9,0,0,0-.69-4.13A2.14,2.14,0,0,0,284.35,27.28Z" fill="#fff"/><path d="M308.7,32.71a4,4,0,0,1-1.57-1.31,3.26,3.26,0,0,1-.53-1.84,3.49,3.49,0,0,1,1.2-2.74,4.39,4.39,0,0,1,3.06-1.07,4.46,4.46,0,0,1,3.06,1.07,3.38,3.38,0,0,1,1.21,2.63,3.53,3.53,0,0,1-.51,1.94A3.78,3.78,0,0,1,313,32.71,3.53,3.53,0,0,1,314.68,34a3.46,3.46,0,0,1,.58,2A3.73,3.73,0,0,1,314,38.89a5,5,0,0,1-6.35,0A3.8,3.8,0,0,1,306.47,36a3.44,3.44,0,0,1,.58-2A3.66,3.66,0,0,1,308.7,32.71ZM308.24,36a2.49,2.49,0,0,0,.72,1.85,2.58,2.58,0,0,0,1.9.71,2.66,2.66,0,0,0,1.92-.69,2.45,2.45,0,0,0,.71-1.83,2.37,2.37,0,0,0-.73-1.81,3,3,0,0,0-3.79,0A2.34,2.34,0,0,0,308.24,36Zm.11-6.4a2.3,2.3,0,0,0,.7,1.74,2.48,2.48,0,0,0,1.81.68,2.53,2.53,0,0,0,1.82-.68,2.37,2.37,0,0,0,.71-1.76,2.27,2.27,0,0,0-.71-1.71,2.76,2.76,0,0,0-3.63,0A2.28,2.28,0,0,0,308.35,29.56Z" fill="#fff"/><path d="M337.29,38.14h.42a1,1,0,0,1,.66.18.69.69,0,0,1,.21.56.82.82,0,0,1-.2.58.75.75,0,0,1-.56.2H332.5a.77.77,0,0,1-.56-.2.81.81,0,0,1-.19-.58.71.71,0,0,1,.21-.57,1.19,1.19,0,0,1,.72-.17h1V28.46H333a2.07,2.07,0,0,1-1-.17.68.68,0,0,1-.23-.61.77.77,0,0,1,.19-.57.73.73,0,0,1,.56-.2h9.55a.67.67,0,0,1,.55.22.92.92,0,0,1,.19.64v2.77a.73.73,0,0,1-.19.56.72.72,0,0,1-.55.19.7.7,0,0,1-.61-.23,2.19,2.19,0,0,1-.17-1.07V28.46h-5.85v3.62h2.84V31.8a2.47,2.47,0,0,1,.15-1.06.59.59,0,0,1,.54-.26.57.57,0,0,1,.5.2,1.05,1.05,0,0,1,.16.66v2.73a1.34,1.34,0,0,1-.15.74.58.58,0,0,1-.51.2.57.57,0,0,1-.54-.27,2.45,2.45,0,0,1-.15-1.05v-.31h-2.84v4.76Z" fill="#fff"/><path d="M361.32,28.12l-.21,0H361a.8.8,0,0,1-.54-.18.66.66,0,0,1-.21-.5.63.63,0,0,1,.18-.45,1.08,1.08,0,0,1,.53-.29l3.2-.86a1.06,1.06,0,0,1,.23-.05l.24,0a.36.36,0,0,1,.32.19.92.92,0,0,1,.12.51V38.14h1.73a2.72,2.72,0,0,1,1.21.16.6.6,0,0,1,.26.58.75.75,0,0,1-.21.58,1,1,0,0,1-.65.2h-6.45a1,1,0,0,1-.65-.2.75.75,0,0,1-.21-.58.6.6,0,0,1,.26-.58,2.72,2.72,0,0,1,1.21-.16h1.8V27.64Z" fill="#fff"/><path d="M3.34,54.54l-.21,0H3a.77.77,0,0,1-.55-.19.63.63,0,0,1-.21-.5.61.61,0,0,1,.19-.45A1.13,1.13,0,0,1,3,53.15l3.21-.86.23,0h.23a.38.38,0,0,1,.33.18,1.07,1.07,0,0,1,.11.51V64.56H8.8a3,3,0,0,1,1.22.15.63.63,0,0,1,.26.59.73.73,0,0,1-.22.58.92.92,0,0,1-.64.19H3a.92.92,0,0,1-.64-.19.73.73,0,0,1-.22-.58.63.63,0,0,1,.26-.59,3,3,0,0,1,1.22-.15H5.37V54.05Z" fill="#fff"/><path d="M15.42,66.07a1.3,1.3,0,0,1-.84-.23.86.86,0,0,1-.28-.72c0-.46.69-1.34,2.07-2.62l.32-.3.9-.86c2.49-2.33,3.74-4,3.74-5.1a2.65,2.65,0,0,0-.66-1.87A2.21,2.21,0,0,0,19,53.66a3.07,3.07,0,0,0-1.3.28,2.62,2.62,0,0,0-1,.75l-.2.29c-.27.48-.56.72-.9.72a.63.63,0,0,1-.55-.24,1.83,1.83,0,0,1-.16-.9,1.57,1.57,0,0,1,.08-.57,1.35,1.35,0,0,1,.28-.38,5.22,5.22,0,0,1,1.71-1.06A5.78,5.78,0,0,1,19,52.16a4.19,4.19,0,0,1,3,1.15,3.77,3.77,0,0,1,1.2,2.83q0,2.11-3.67,5.61c-.62.58-1.1,1-1.43,1.36l-1.33,1.27H21.7a1.25,1.25,0,0,1,.25-.71.73.73,0,0,1,.57-.24.71.71,0,0,1,.56.23,1,1,0,0,1,.21.65.54.54,0,0,1,0,.11.54.54,0,0,0,0,.11l-.09.83a1,1,0,0,1-.19.52.52.52,0,0,1-.42.19Z" fill="#fff"/><path d="M45.7,66.43a3.66,3.66,0,0,1-3.23-1.91,9.88,9.88,0,0,1-1.19-5.23,9.84,9.84,0,0,1,1.19-5.22,3.68,3.68,0,0,1,6.45,0,9.79,9.79,0,0,1,1.2,5.22,9.79,9.79,0,0,1-1.2,5.22A3.65,3.65,0,0,1,45.7,66.43Zm0-12.73a2.14,2.14,0,0,0-1.94,1.46,9.93,9.93,0,0,0-.69,4.13,10,10,0,0,0,.69,4.15,2,2,0,0,0,3.88,0,10,10,0,0,0,.69-4.15,9.93,9.93,0,0,0-.69-4.13A2.14,2.14,0,0,0,45.7,53.7Z" fill="#fff"/><path d="M72.08,66.07H67.25a.77.77,0,0,1-.57-.19.84.84,0,0,1-.19-.58.65.65,0,0,1,.24-.59,2.61,2.61,0,0,1,1.13-.15h.36V54.87h-.36a2.12,2.12,0,0,1-1.06-.17.68.68,0,0,1-.24-.6.8.8,0,0,1,.19-.58.77.77,0,0,1,.56-.2h5a5.82,5.82,0,0,1,3.49.89,3.33,3.33,0,0,1,.83,4.06,2.88,2.88,0,0,1-1.09,1,3.69,3.69,0,0,1,1.73,1.17,3.14,3.14,0,0,1,.57,1.91,3.44,3.44,0,0,1-.49,1.79A3.7,3.7,0,0,1,76,65.5a4,4,0,0,1-1.18.44,9.55,9.55,0,0,1-1.83.13Zm-2.17-7.24h2.26a4.23,4.23,0,0,0,2.27-.49,1.66,1.66,0,0,0,.74-1.49,1.73,1.73,0,0,0-.67-1.47,3.13,3.13,0,0,0-1.92-.51H69.91Zm0,5.73h2.4A5.81,5.81,0,0,0,75.17,64,1.83,1.83,0,0,0,76,62.35a1.87,1.87,0,0,0-.8-1.7,5.56,5.56,0,0,0-2.78-.5H69.91Z" fill="#fff"/><path d="M85.47,66.43a3.65,3.65,0,0,1-3.22-1.91,9.79,9.79,0,0,1-1.19-5.23,9.75,9.75,0,0,1,1.19-5.22,3.68,3.68,0,0,1,6.45,0,9.89,9.89,0,0,1,1.19,5.22,9.89,9.89,0,0,1-1.19,5.22A3.66,3.66,0,0,1,85.47,66.43Zm0-12.73a2.13,2.13,0,0,0-1.93,1.46,9.93,9.93,0,0,0-.69,4.13,10,10,0,0,0,.69,4.15,2,2,0,0,0,3.87,0,10,10,0,0,0,.69-4.15,9.93,9.93,0,0,0-.69-4.13A2.14,2.14,0,0,0,85.47,53.7Z" fill="#fff"/><path d="M111.9,64.56h.42a1,1,0,0,1,.66.17.71.71,0,0,1,.2.57.68.68,0,0,1-.75.77h-5.32a.68.68,0,0,1-.75-.77.68.68,0,0,1,.2-.57,1.14,1.14,0,0,1,.72-.17h1V54.87h-.68a2.07,2.07,0,0,1-1-.17.67.67,0,0,1-.23-.6.8.8,0,0,1,.19-.58.77.77,0,0,1,.56-.2h9.55a.7.7,0,0,1,.55.22.94.94,0,0,1,.19.64V57a.75.75,0,0,1-.19.56.72.72,0,0,1-.55.19.71.71,0,0,1-.62-.24,2.31,2.31,0,0,1-.16-1.06V54.87H110v3.62h2.85v-.28a2.45,2.45,0,0,1,.15-1.05.56.56,0,0,1,.54-.27.58.58,0,0,1,.5.21,1,1,0,0,1,.16.65v2.73a1.3,1.3,0,0,1-.15.74.7.7,0,0,1-1-.06,2.45,2.45,0,0,1-.15-1v-.32H110v4.77Z" fill="#fff"/><path d="M122.67,54.54l-.22,0h-.12a.76.76,0,0,1-.54-.19.63.63,0,0,1-.21-.5.64.64,0,0,1,.18-.45,1.17,1.17,0,0,1,.53-.29l3.2-.86.23,0H126a.37.37,0,0,1,.32.18,1,1,0,0,1,.12.51V64.56h1.73a2.94,2.94,0,0,1,1.21.15.61.61,0,0,1,.26.59.76.76,0,0,1-.21.58,1,1,0,0,1-.65.19h-6.45a1,1,0,0,1-.65-.19.76.76,0,0,1-.21-.58.61.61,0,0,1,.26-.59,2.94,2.94,0,0,1,1.21-.15h1.8V54.05Z" fill="#fff"/><path d="M134.75,66.07a1.33,1.33,0,0,1-.85-.23.89.89,0,0,1-.27-.72c0-.46.69-1.34,2.07-2.62l.31-.3.91-.86c2.49-2.33,3.73-4,3.73-5.1a2.65,2.65,0,0,0-.66-1.87,2.18,2.18,0,0,0-1.7-.71,3,3,0,0,0-1.3.28,2.47,2.47,0,0,0-1,.75l-.2.29q-.4.72-.9.72a.62.62,0,0,1-.55-.24,1.72,1.72,0,0,1-.16-.9,1.61,1.61,0,0,1,.07-.57,1.58,1.58,0,0,1,.28-.38,5.22,5.22,0,0,1,1.71-1.06,5.82,5.82,0,0,1,2.09-.39,4.19,4.19,0,0,1,3,1.15,3.78,3.78,0,0,1,1.21,2.83c0,1.41-1.23,3.28-3.67,5.61-.63.58-1.1,1-1.44,1.36l-1.32,1.27H141a1.25,1.25,0,0,1,.25-.71.8.8,0,0,1,1.13,0,1,1,0,0,1,.2.65.54.54,0,0,1,0,.11s0,.09,0,.11l-.08.83a1,1,0,0,1-.2.52.52.52,0,0,1-.42.19Z" fill="#fff"/><path d="M151.76,66.43a3.65,3.65,0,0,1-3.22-1.91,9.88,9.88,0,0,1-1.19-5.23,9.84,9.84,0,0,1,1.19-5.22,3.68,3.68,0,0,1,6.45,0,9.79,9.79,0,0,1,1.2,5.22,9.79,9.79,0,0,1-1.2,5.22A3.66,3.66,0,0,1,151.76,66.43Zm0-12.73a2.13,2.13,0,0,0-1.93,1.46,9.93,9.93,0,0,0-.69,4.13,10,10,0,0,0,.69,4.15,2,2,0,0,0,3.87,0,10,10,0,0,0,.69-4.15,9.93,9.93,0,0,0-.69-4.13A2.13,2.13,0,0,0,151.76,53.7Z" fill="#fff"/><path d="M191.45,64.56h.42a1,1,0,0,1,.66.17.71.71,0,0,1,.2.57.68.68,0,0,1-.75.77h-5.32a.68.68,0,0,1-.75-.77.68.68,0,0,1,.2-.57,1.14,1.14,0,0,1,.72-.17h1V54.87h-.68a2.07,2.07,0,0,1-1.05-.17.67.67,0,0,1-.23-.6.8.8,0,0,1,.19-.58.77.77,0,0,1,.56-.2h9.55a.7.7,0,0,1,.55.22.94.94,0,0,1,.19.64V57a.75.75,0,0,1-.19.56.72.72,0,0,1-.55.19.71.71,0,0,1-.62-.24,2.31,2.31,0,0,1-.16-1.06V54.87h-5.86v3.62h2.85v-.28a2.45,2.45,0,0,1,.15-1.05.56.56,0,0,1,.54-.27.58.58,0,0,1,.5.21,1,1,0,0,1,.16.65v2.73a1.3,1.3,0,0,1-.15.74.7.7,0,0,1-1.05-.06,2.45,2.45,0,0,1-.15-1v-.32h-2.85v4.77Z" fill="#fff"/><path d="M215.9,59.12a3.92,3.92,0,0,1-1.58-1.3,3.29,3.29,0,0,1-.53-1.85,3.52,3.52,0,0,1,1.2-2.74,4.89,4.89,0,0,1,6.12,0,3.37,3.37,0,0,1,1.22,2.62,3.54,3.54,0,0,1-.52,2,3.77,3.77,0,0,1-1.61,1.31,3.61,3.61,0,0,1,1.67,1.3,3.42,3.42,0,0,1,.59,2,3.74,3.74,0,0,1-1.23,2.89,4.55,4.55,0,0,1-3.18,1.12,4.49,4.49,0,0,1-3.17-1.13,3.81,3.81,0,0,1-1.22-2.92,3.38,3.38,0,0,1,.59-2A3.57,3.57,0,0,1,215.9,59.12Zm-.47,3.25a2.48,2.48,0,0,0,.72,1.85,2.6,2.6,0,0,0,1.9.71,2.66,2.66,0,0,0,1.92-.69,2.63,2.63,0,0,0,0-3.64,2.95,2.95,0,0,0-3.78,0A2.33,2.33,0,0,0,215.43,62.37Zm.11-6.4a2.32,2.32,0,0,0,.7,1.75,2.54,2.54,0,0,0,1.81.68,2.5,2.5,0,0,0,1.82-.69,2.34,2.34,0,0,0,.71-1.76,2.27,2.27,0,0,0-.71-1.71,2.79,2.79,0,0,0-3.63,0A2.29,2.29,0,0,0,215.54,56Z" fill="#fff"/><path d="M284.51,65.86a1,1,0,0,1-.16.33.42.42,0,0,1-.29.07h-.94a.61.61,0,0,1-.35-.08.29.29,0,0,1-.12-.24.78.78,0,0,1,0-.16.77.77,0,0,1,.05-.19L287,54.12h-5.48a1.45,1.45,0,0,1-.23.75.69.69,0,0,1-.57.24.71.71,0,0,1-.55-.19.78.78,0,0,1-.18-.57.71.71,0,0,1,0-.16.29.29,0,0,1,0-.09l.1-1a.72.72,0,0,1,.22-.46.77.77,0,0,1,.52-.16H288a.67.67,0,0,1,.46.13.57.57,0,0,1,.14.42v.37a1.74,1.74,0,0,1-.05.34c0,.14-.09.33-.17.56Z" fill="#fff"/><path d="M313.32,59.58A4.13,4.13,0,0,1,312,60.69a3.33,3.33,0,0,1-1.54.36,3.81,3.81,0,0,1-2.9-1.27,4.41,4.41,0,0,1-1.19-3.14,4.64,4.64,0,0,1,1.14-3.22,3.82,3.82,0,0,1,2.95-1.26,4.1,4.1,0,0,1,3.4,1.69,7.17,7.17,0,0,1,1.3,4.49,8.69,8.69,0,0,1-1.9,5.89,6.34,6.34,0,0,1-5.06,2.2,3.49,3.49,0,0,1-1.33-.16.55.55,0,0,1-.33-.55c0-.46.43-.7,1.28-.72a9.86,9.86,0,0,0,1.35-.12A4.38,4.38,0,0,0,312,63.19,7.3,7.3,0,0,0,313.32,59.58Zm-.22-2.88a3.26,3.26,0,0,0-.71-2.17,2.27,2.27,0,0,0-1.81-.83,2.08,2.08,0,0,0-1.69.78,3.16,3.16,0,0,0-.65,2.06,3.26,3.26,0,0,0,.68,2.13,2.28,2.28,0,0,0,3.48,0A2.87,2.87,0,0,0,313.1,56.7Z" fill="#fff"/><path d="M337.25,66.07h-4.83a.74.74,0,0,1-.57-.19.8.8,0,0,1-.19-.58.65.65,0,0,1,.24-.59,2.58,2.58,0,0,1,1.13-.15h.36V54.87H333A2.19,2.19,0,0,1,332,54.7a.7.7,0,0,1-.23-.6.8.8,0,0,1,.19-.58.77.77,0,0,1,.56-.2h5a5.78,5.78,0,0,1,3.48.89,3,3,0,0,1,1.2,2.57,2.89,2.89,0,0,1-.37,1.49,2.74,2.74,0,0,1-1.09,1,3.59,3.59,0,0,1,1.73,1.17,3.07,3.07,0,0,1,.57,1.91,3.43,3.43,0,0,1-.48,1.79,3.78,3.78,0,0,1-1.37,1.32,4.17,4.17,0,0,1-1.18.44,9.55,9.55,0,0,1-1.83.13Zm-2.17-7.24h2.26a4.19,4.19,0,0,0,2.26-.49,1.65,1.65,0,0,0,.75-1.49,1.75,1.75,0,0,0-.67-1.47,3.13,3.13,0,0,0-1.92-.51h-2.68Zm0,5.73h2.4a5.74,5.74,0,0,0,2.85-.52,1.82,1.82,0,0,0,.84-1.69,1.87,1.87,0,0,0-.8-1.7,5.63,5.63,0,0,0-2.79-.5h-2.5Z" fill="#fff"/><path d="M1.3,92.49H.8a.81.81,0,0,1-.59-.2.73.73,0,0,1-.2-.58.63.63,0,0,1,.23-.58A2.15,2.15,0,0,1,1.3,91H2V81.29H1.3a2.12,2.12,0,0,1-1-.17A.69.69,0,0,1,0,80.51a.73.73,0,0,1,.2-.58.83.83,0,0,1,.61-.19h9.39a.69.69,0,0,1,.56.22,1,1,0,0,1,.19.64v2.54a1.4,1.4,0,0,1-.16.77.72.72,0,0,1-.59.22.7.7,0,0,1-.61-.24,2.2,2.2,0,0,1-.16-1.07V81.29H3.7v3.62H6.52v-.57a1.45,1.45,0,0,1,.16-.81.62.62,0,0,1,.55-.22.56.56,0,0,1,.52.24,2.51,2.51,0,0,1,.14,1v2a2.22,2.22,0,0,1-.15,1,.6.6,0,0,1-.54.22.56.56,0,0,1-.53-.25,2.27,2.27,0,0,1-.15-1v-.38H3.7V91H9.44V89.23a2.15,2.15,0,0,1,.16-1.06.7.7,0,0,1,.61-.24.67.67,0,0,1,.58.22A1.49,1.49,0,0,1,11,89v2.71a.81.81,0,0,1-.2.59.71.71,0,0,1-.55.21Z" fill="#fff"/><path d="M16.75,84.08a9.36,9.36,0,0,1,1.32-.38,5.84,5.84,0,0,1,1.15-.12,4.16,4.16,0,0,1,3.14,1.3,4.81,4.81,0,0,1-.13,6.63,4.92,4.92,0,0,1-3.56,1.33,8.17,8.17,0,0,1-3-.49c-.81-.32-1.22-.72-1.22-1.18a.67.67,0,0,1,.23-.5.71.71,0,0,1,.53-.22,9.15,9.15,0,0,1,1.26.41,6.24,6.24,0,0,0,2.13.41,3.27,3.27,0,0,0,2.35-.86,3,3,0,0,0,.9-2.23A3.06,3.06,0,0,0,21,86a2.87,2.87,0,0,0-2.15-.89,4.09,4.09,0,0,0-1.9.48,4.27,4.27,0,0,1-1.13.49.48.48,0,0,1-.46-.24,1.91,1.91,0,0,1-.13-.86V79.58a.56.56,0,0,1,.22-.51,1.32,1.32,0,0,1,.77-.16h5.46a1.2,1.2,0,0,1,.77.21.75.75,0,0,1,.26.64.77.77,0,0,1-.27.62,1.15,1.15,0,0,1-.76.22H16.75Z" fill="#fff"/><path d="M45.86,92.27a1.07,1.07,0,0,1-.16.34.44.44,0,0,1-.29.07h-.94a.7.7,0,0,1-.35-.08.29.29,0,0,1-.12-.24,1,1,0,0,1,0-.17,1.08,1.08,0,0,1,0-.19l4.24-11.47H42.83a1.39,1.39,0,0,1-.23.75.69.69,0,0,1-.57.24.74.74,0,0,1-.55-.18.78.78,0,0,1-.18-.57.71.71,0,0,1,0-.16.3.3,0,0,1,0-.1l.1-1a.77.77,0,0,1,.22-.47.83.83,0,0,1,.52-.16H49.3a.67.67,0,0,1,.46.14.57.57,0,0,1,.14.42v.37a1.85,1.85,0,0,1,0,.34c0,.14-.09.32-.17.56Z" fill="#fff"/><path d="M69.63,92.49H67.44a.85.85,0,0,1-.6-.2.77.77,0,0,1-.19-.58.65.65,0,0,1,.23-.58,1.74,1.74,0,0,1,.88-.16H68V81.29h-.17a1.69,1.69,0,0,1-.89-.17.68.68,0,0,1-.24-.61.77.77,0,0,1,.19-.58.88.88,0,0,1,.63-.19H72a5.54,5.54,0,0,1,4.28,1.72,6.62,6.62,0,0,1,1.6,4.66,7.66,7.66,0,0,1-.46,2.66,6.43,6.43,0,0,1-1.33,2.15,4.83,4.83,0,0,1-2,1.22,9.93,9.93,0,0,1-3,.38l-.73,0C70.08,92.49,69.82,92.49,69.63,92.49Zm0-1.52.69,0L71,91a5.45,5.45,0,0,0,3.89-1.19,6.22,6.22,0,0,0,0-7.45,5.66,5.66,0,0,0-4-1.17h-.78l-.49.05Z" fill="#fff"/><path d="M85.47,92.84a3.63,3.63,0,0,1-3.22-1.91,9.75,9.75,0,0,1-1.19-5.22,9.75,9.75,0,0,1,1.19-5.22,3.63,3.63,0,0,1,3.22-1.91,3.67,3.67,0,0,1,3.23,1.91,9.89,9.89,0,0,1,1.19,5.22,9.85,9.85,0,0,1-1.19,5.21A3.66,3.66,0,0,1,85.47,92.84Zm0-12.72a2.12,2.12,0,0,0-1.93,1.46,9.9,9.9,0,0,0-.69,4.13,10,10,0,0,0,.69,4.15,2,2,0,0,0,3.87,0,10,10,0,0,0,.69-4.15,9.9,9.9,0,0,0-.69-4.13A2.13,2.13,0,0,0,85.47,80.12Z" fill="#fff"/><path d="M122.67,81l-.22,0h-.12a.81.81,0,0,1-.54-.19.68.68,0,0,1,0-1,1.08,1.08,0,0,1,.53-.29l3.2-.86.23,0,.24,0a.38.38,0,0,1,.32.19,1,1,0,0,1,.12.51V91h1.73a2.72,2.72,0,0,1,1.21.16.61.61,0,0,1,.26.58.73.73,0,0,1-.21.58,1,1,0,0,1-.65.2h-6.45a1,1,0,0,1-.65-.2.73.73,0,0,1-.21-.58.61.61,0,0,1,.26-.58A2.72,2.72,0,0,1,122.9,91h1.8V80.47Z" fill="#fff"/><path d="M134.75,92.49a1.33,1.33,0,0,1-.85-.23.91.91,0,0,1-.27-.72c0-.46.69-1.34,2.07-2.62l.31-.3.91-.86q3.74-3.51,3.73-5.11a2.63,2.63,0,0,0-.66-1.86,2.19,2.19,0,0,0-1.7-.72,3.2,3.2,0,0,0-1.3.28,2.66,2.66,0,0,0-1,.75l-.2.29c-.27.48-.57.73-.9.73a.62.62,0,0,1-.55-.24,1.72,1.72,0,0,1-.16-.9,1.61,1.61,0,0,1,.07-.57,1.41,1.41,0,0,1,.28-.38A5.06,5.06,0,0,1,136.24,79a5.82,5.82,0,0,1,2.09-.39,4.14,4.14,0,0,1,3,1.15,3.78,3.78,0,0,1,1.21,2.83c0,1.41-1.23,3.27-3.67,5.6l-1.44,1.37L136.1,90.8H141a1.25,1.25,0,0,1,.25-.71.73.73,0,0,1,.57-.25.7.7,0,0,1,.56.24.93.93,0,0,1,.2.64.62.62,0,0,1,0,.12s0,.09,0,.11l-.08.83a1,1,0,0,1-.2.52.55.55,0,0,1-.42.19Z" fill="#fff"/><path d="M151.76,92.84a3.63,3.63,0,0,1-3.22-1.91,9.84,9.84,0,0,1-1.19-5.22,9.84,9.84,0,0,1,1.19-5.22,3.63,3.63,0,0,1,3.22-1.91A3.67,3.67,0,0,1,155,80.49a9.79,9.79,0,0,1,1.2,5.22,9.75,9.75,0,0,1-1.2,5.21A3.66,3.66,0,0,1,151.76,92.84Zm0-12.72a2.12,2.12,0,0,0-1.93,1.46,9.9,9.9,0,0,0-.69,4.13,10,10,0,0,0,.69,4.15,2,2,0,0,0,3.87,0,10,10,0,0,0,.69-4.15,9.9,9.9,0,0,0-.69-4.13A2.12,2.12,0,0,0,151.76,80.12Z" fill="#fff"/><path d="M191.41,92.49h-4.84a.73.73,0,0,1-.56-.2.77.77,0,0,1-.19-.58.64.64,0,0,1,.24-.58,2.36,2.36,0,0,1,1.13-.16h.36V81.29h-.36a2.19,2.19,0,0,1-1.07-.17.69.69,0,0,1-.24-.61.77.77,0,0,1,.2-.57.75.75,0,0,1,.56-.2h5a5.8,5.8,0,0,1,3.48.89,3,3,0,0,1,1.2,2.57,2.75,2.75,0,0,1-1.46,2.53,3.64,3.64,0,0,1,1.73,1.17,3.07,3.07,0,0,1,.57,1.91,3.45,3.45,0,0,1-.48,1.79,4,4,0,0,1-1.37,1.32,4.15,4.15,0,0,1-1.18.43,9.41,9.41,0,0,1-1.83.14Zm-2.17-7.25h2.25a4.21,4.21,0,0,0,2.27-.48,1.64,1.64,0,0,0,.74-1.49,1.73,1.73,0,0,0-.67-1.47,3.09,3.09,0,0,0-1.92-.51h-2.67Zm0,5.73h2.39a5.78,5.78,0,0,0,2.86-.51,1.81,1.81,0,0,0,.83-1.69,1.85,1.85,0,0,0-.79-1.7,5.52,5.52,0,0,0-2.79-.5h-2.5Z" fill="#fff"/><path d="M218,91h.42a1,1,0,0,1,.66.18.73.73,0,0,1,.2.56.8.8,0,0,1-.19.58.77.77,0,0,1-.56.2h-5.32a.75.75,0,0,1-.56-.2.8.8,0,0,1-.2-.58.71.71,0,0,1,.21-.57,1.19,1.19,0,0,1,.72-.17h1V81.29h-.68a2.14,2.14,0,0,1-1.06-.17.71.71,0,0,1-.23-.61.77.77,0,0,1,.2-.57.75.75,0,0,1,.56-.2h9.54a.69.69,0,0,1,.56.22,1,1,0,0,1,.19.64v2.77a.81.81,0,0,1-.19.57.79.79,0,0,1-.56.19.69.69,0,0,1-.61-.24,2.2,2.2,0,0,1-.16-1.07V81.29h-5.86v3.62h2.85v-.28a2.45,2.45,0,0,1,.15-1,.56.56,0,0,1,.54-.27.61.61,0,0,1,.5.2,1.14,1.14,0,0,1,.16.66V86.9a1.32,1.32,0,0,1-.15.74.72.72,0,0,1-1-.06,2.47,2.47,0,0,1-.15-1.06v-.31h-2.85V91Z" fill="#fff"/><path d="M284.35,92.84a3.64,3.64,0,0,1-3.23-1.91,9.84,9.84,0,0,1-1.19-5.22,9.84,9.84,0,0,1,1.19-5.22,3.68,3.68,0,0,1,6.45,0,9.79,9.79,0,0,1,1.2,5.22,9.75,9.75,0,0,1-1.2,5.21A3.65,3.65,0,0,1,284.35,92.84Zm0-12.72a2.13,2.13,0,0,0-1.94,1.46,9.9,9.9,0,0,0-.69,4.13,10,10,0,0,0,.69,4.15,2,2,0,0,0,3.88,0,10,10,0,0,0,.69-4.15,9.9,9.9,0,0,0-.69-4.13A2.13,2.13,0,0,0,284.35,80.12Z" fill="#fff"/><path d="M313.32,86A4,4,0,0,1,312,87.1a3.21,3.21,0,0,1-1.54.37,3.82,3.82,0,0,1-2.9-1.28,4.37,4.37,0,0,1-1.19-3.13,4.63,4.63,0,0,1,1.14-3.22,3.82,3.82,0,0,1,2.95-1.26,4.07,4.07,0,0,1,3.4,1.69,7.17,7.17,0,0,1,1.3,4.49,8.64,8.64,0,0,1-1.9,5.88,6.31,6.31,0,0,1-5.06,2.2,3.78,3.78,0,0,1-1.33-.15.55.55,0,0,1-.33-.56c0-.46.43-.7,1.28-.72a7.45,7.45,0,0,0,1.35-.12A4.37,4.37,0,0,0,312,89.61,7.3,7.3,0,0,0,313.32,86Zm-.22-2.89a3.23,3.23,0,0,0-.71-2.16,2.24,2.24,0,0,0-1.81-.83,2.08,2.08,0,0,0-1.69.78,3.13,3.13,0,0,0-.65,2,3.27,3.27,0,0,0,.68,2.14,2.28,2.28,0,0,0,3.48,0A2.91,2.91,0,0,0,313.1,83.11Z" fill="#fff"/><path d="M339.84,86a4,4,0,0,1-1.29,1.1,3.19,3.19,0,0,1-1.54.37,3.85,3.85,0,0,1-2.9-1.28,4.41,4.41,0,0,1-1.19-3.13,4.59,4.59,0,0,1,1.15-3.22A3.81,3.81,0,0,1,337,78.58a4.08,4.08,0,0,1,3.41,1.69,7.23,7.23,0,0,1,1.3,4.49,8.69,8.69,0,0,1-1.9,5.88,6.33,6.33,0,0,1-5.06,2.2,3.85,3.85,0,0,1-1.34-.15.55.55,0,0,1-.32-.56c0-.46.42-.7,1.28-.72a7.45,7.45,0,0,0,1.35-.12,4.35,4.35,0,0,0,2.76-1.68A7.31,7.31,0,0,0,339.84,86Zm-.23-2.89A3.23,3.23,0,0,0,338.9,81a2.24,2.24,0,0,0-1.8-.83,2.12,2.12,0,0,0-1.7.78,3.12,3.12,0,0,0-.64,2,3.21,3.21,0,0,0,.68,2.14,2.14,2.14,0,0,0,1.74.82,2.2,2.2,0,0,0,1.74-.79A3,3,0,0,0,339.61,83.11Z" fill="#fff"/><path d="M5.92,119.26a3.65,3.65,0,0,1-3.22-1.91,12.07,12.07,0,0,1,0-10.45,3.67,3.67,0,0,1,6.45,0,9.83,9.83,0,0,1,1.19,5.21,9.89,9.89,0,0,1-1.19,5.22A3.66,3.66,0,0,1,5.92,119.26Zm0-12.73A2.13,2.13,0,0,0,4,108a12.76,12.76,0,0,0,0,8.28,2.13,2.13,0,0,0,1.93,1.47,2.14,2.14,0,0,0,1.94-1.47,10,10,0,0,0,.69-4.14A10,10,0,0,0,7.86,108,2.14,2.14,0,0,0,5.92,106.53Z" fill="#fff"/><path d="M19.18,119.26A3.65,3.65,0,0,1,16,117.35a12.07,12.07,0,0,1,0-10.45,3.66,3.66,0,0,1,6.44,0,11.93,11.93,0,0,1,0,10.43A3.64,3.64,0,0,1,19.18,119.26Zm0-12.73A2.13,2.13,0,0,0,17.25,108a12.76,12.76,0,0,0,0,8.28,2,2,0,0,0,3.87,0,12.77,12.77,0,0,0,0-8.28A2.14,2.14,0,0,0,19.18,106.53Z" fill="#fff"/><path d="M45.7,119.26a3.66,3.66,0,0,1-3.23-1.91,12.07,12.07,0,0,1,0-10.45,3.67,3.67,0,0,1,6.45,0,11.93,11.93,0,0,1,0,10.43A3.65,3.65,0,0,1,45.7,119.26Zm0-12.73A2.14,2.14,0,0,0,43.76,108a12.76,12.76,0,0,0,0,8.28,2,2,0,0,0,3.88,0,12.77,12.77,0,0,0,0-8.28A2.14,2.14,0,0,0,45.7,106.53Z" fill="#fff"/><path d="M85.47,119.26a3.65,3.65,0,0,1-3.22-1.91,12.07,12.07,0,0,1,0-10.45,3.67,3.67,0,0,1,6.45,0,12,12,0,0,1,0,10.43A3.66,3.66,0,0,1,85.47,119.26Zm0-12.73A2.13,2.13,0,0,0,83.54,108a12.76,12.76,0,0,0,0,8.28,2,2,0,0,0,3.87,0,12.77,12.77,0,0,0,0-8.28A2.14,2.14,0,0,0,85.47,106.53Z" fill="#fff"/><path d="M151.76,119.26a3.65,3.65,0,0,1-3.22-1.91,12.07,12.07,0,0,1,0-10.45,3.67,3.67,0,0,1,6.45,0,11.93,11.93,0,0,1,0,10.43A3.66,3.66,0,0,1,151.76,119.26Zm0-12.73a2.13,2.13,0,0,0-1.93,1.46,12.76,12.76,0,0,0,0,8.28,2,2,0,0,0,3.87,0,12.76,12.76,0,0,0,0-8.28A2.13,2.13,0,0,0,151.76,106.53Z" fill="#fff"/><path d="M189,107.37l-.21,0h-.13a.76.76,0,0,1-.54-.19.63.63,0,0,1-.21-.5.64.64,0,0,1,.18-.45,1.17,1.17,0,0,1,.53-.29l3.21-.86.23-.05h.23a.35.35,0,0,1,.32.19.92.92,0,0,1,.12.51v11.63h1.73a3,3,0,0,1,1.22.15.64.64,0,0,1,.26.59.75.75,0,0,1-.22.58.94.94,0,0,1-.65.19h-6.45a1,1,0,0,1-.65-.19.75.75,0,0,1-.21-.58.62.62,0,0,1,.26-.59,3,3,0,0,1,1.22-.15H191v-10.5Z" fill="#fff"/><path d="M284.35,119.26a3.66,3.66,0,0,1-3.23-1.91,12.07,12.07,0,0,1,0-10.45,3.67,3.67,0,0,1,6.45,0,11.93,11.93,0,0,1,0,10.43A3.65,3.65,0,0,1,284.35,119.26Zm0-12.73a2.14,2.14,0,0,0-1.94,1.46,12.77,12.77,0,0,0,0,8.28,2,2,0,0,0,3.88,0,12.76,12.76,0,0,0,0-8.28A2.14,2.14,0,0,0,284.35,106.53Z" fill="#fff"/><path d="M308.28,118.9h-2.19a.85.85,0,0,1-.6-.19.78.78,0,0,1-.19-.58.65.65,0,0,1,.23-.58,1.64,1.64,0,0,1,.88-.16h.19V107.7h-.17a1.59,1.59,0,0,1-.89-.17.65.65,0,0,1-.24-.6.79.79,0,0,1,.19-.59.93.93,0,0,1,.63-.19h4.55a5.55,5.55,0,0,1,4.28,1.73,6.56,6.56,0,0,1,1.6,4.66,7.6,7.6,0,0,1-.46,2.65,6.33,6.33,0,0,1-1.33,2.15,4.72,4.72,0,0,1-2,1.22,9.59,9.59,0,0,1-3,.39l-.73,0Zm0-1.51.69,0h.66a5.45,5.45,0,0,0,3.89-1.18,5,5,0,0,0,1.24-3.73,4.9,4.9,0,0,0-1.24-3.72,5.66,5.66,0,0,0-4-1.17h-.78l-.49,0Z" fill="#fff"/><path d="M19.18,145.67a3.64,3.64,0,0,1-3.22-1.9,12.07,12.07,0,0,1,0-10.45,3.67,3.67,0,0,1,6.44,0,12,12,0,0,1,0,10.44A3.65,3.65,0,0,1,19.18,145.67Zm0-12.72a2.13,2.13,0,0,0-1.93,1.46,12.76,12.76,0,0,0,0,8.28,2,2,0,0,0,3.87,0,12.76,12.76,0,0,0,0-8.28A2.14,2.14,0,0,0,19.18,133Z" fill="#fff"/><path d="M45.7,145.67a3.65,3.65,0,0,1-3.23-1.9,12.07,12.07,0,0,1,0-10.45,3.68,3.68,0,0,1,6.45,0,12,12,0,0,1,0,10.44A3.66,3.66,0,0,1,45.7,145.67Zm0-12.72a2.14,2.14,0,0,0-1.94,1.46,12.76,12.76,0,0,0,0,8.28,2,2,0,0,0,3.88,0,12.76,12.76,0,0,0,0-8.28A2.14,2.14,0,0,0,45.7,133Z" fill="#fff"/><path d="M85.63,145.1a1,1,0,0,1-.16.34.39.39,0,0,1-.28.07h-1a.66.66,0,0,1-.34-.08.29.29,0,0,1-.12-.24,1,1,0,0,1,0-.17c0-.05,0-.11,0-.18l4.24-11.47H82.6a1.3,1.3,0,0,1-.23.74.67.67,0,0,1-.57.25.68.68,0,0,1-.54-.19.78.78,0,0,1-.18-.57v-.16s0-.07,0-.09l.11-1a.63.63,0,0,1,.22-.46.75.75,0,0,1,.51-.17h7.13a.67.67,0,0,1,.46.14.54.54,0,0,1,.15.42v.37a1.28,1.28,0,0,1-.06.34,5.18,5.18,0,0,1-.17.56Z" fill="#fff"/><path d="M191.54,145.67a3.62,3.62,0,0,1-3.22-1.9,12,12,0,0,1,0-10.45,3.67,3.67,0,0,1,6.44,0,12,12,0,0,1,0,10.44A3.66,3.66,0,0,1,191.54,145.67Zm0-12.72a2.13,2.13,0,0,0-1.93,1.46,12.76,12.76,0,0,0,0,8.28,2,2,0,0,0,3.87,0,12.76,12.76,0,0,0,0-8.28A2.14,2.14,0,0,0,191.54,133Z" fill="#fff"/><path d="M284.35,145.67a3.65,3.65,0,0,1-3.23-1.9,12.07,12.07,0,0,1,0-10.45,3.68,3.68,0,0,1,6.45,0,12,12,0,0,1,0,10.44A3.66,3.66,0,0,1,284.35,145.67Zm0-12.72a2.14,2.14,0,0,0-1.94,1.46,12.76,12.76,0,0,0,0,8.28,2,2,0,0,0,3.88,0,12.76,12.76,0,0,0,0-8.28A2.14,2.14,0,0,0,284.35,133Z" fill="#fff"/><path d="M309.19,134.12h-1.58a1.74,1.74,0,0,1-.92-.18.64.64,0,0,1-.26-.59.68.68,0,0,1,.23-.61,2.79,2.79,0,0,1,1.27-.17H311a1.36,1.36,0,0,1,.8.16,1.34,1.34,0,0,1,.39.57l4.22,10.5h.18a1.39,1.39,0,0,1,.8.17.68.68,0,0,1,.21.58.72.72,0,0,1-.2.6,1.28,1.28,0,0,1-.77.17H313.7a2.07,2.07,0,0,1-1.05-.17.67.67,0,0,1-.23-.6.63.63,0,0,1,.25-.58,1.9,1.9,0,0,1,.95-.17h1l-1.05-2.55H308.1l-.93,2.55h1.05a2,2,0,0,1,1,.17.64.64,0,0,1,.26.58.7.7,0,0,1-.23.6,2,2,0,0,1-1,.17h-2.84a1.72,1.72,0,0,1-.92-.17.7.7,0,0,1-.22-.6.66.66,0,0,1,.22-.58,1.62,1.62,0,0,1,.88-.17h.2Zm-.55,5.7h4.41l-2.32-5.7Z" fill="#fff"/><path d="M43.12,160.2l-.22,0h-.12a.81.81,0,0,1-.54-.19.68.68,0,0,1,0-.95,1.08,1.08,0,0,1,.53-.29l3.2-.86.23-.05.24,0a.38.38,0,0,1,.32.19,1,1,0,0,1,.12.51v11.63h1.73a2.72,2.72,0,0,1,1.21.16.61.61,0,0,1,.26.58.75.75,0,0,1-.21.58,1,1,0,0,1-.65.2H42.74a1,1,0,0,1-.65-.2.75.75,0,0,1-.21-.58.61.61,0,0,1,.26-.58,2.72,2.72,0,0,1,1.21-.16h1.8v-10.5Z" fill="#fff"/><path d="M55.51,164.93l7.91,3.64a2.41,2.41,0,0,1,.68.44.71.71,0,0,1,.2.5.69.69,0,0,1-.19.52.67.67,0,0,1-.52.19,1.39,1.39,0,0,1-.33-.05,4.07,4.07,0,0,1-.52-.22l-8.58-4a.26.26,0,0,1-.1,0c-.67-.3-1-.63-1-1s.33-.68,1-1l.13-.07L62.74,160a2.59,2.59,0,0,1,.5-.2,1.22,1.22,0,0,1,.35-.06.7.7,0,0,1,.52.18.65.65,0,0,1,.19.5.72.72,0,0,1-.2.51,2.22,2.22,0,0,1-.68.43Z" fill="#fff"/></g><g opacity="0.1"><path d="M6.67,260.56a3.65,3.65,0,0,1-3.22-1.91,12.07,12.07,0,0,1,0-10.45,3.68,3.68,0,0,1,6.45,0,9.85,9.85,0,0,1,1.19,5.21,9.89,9.89,0,0,1-1.19,5.22A3.66,3.66,0,0,1,6.67,260.56Zm0-12.73a2.13,2.13,0,0,0-1.93,1.47,9.9,9.9,0,0,0-.69,4.13,10,10,0,0,0,.69,4.15A2.12,2.12,0,0,0,6.67,259a2.13,2.13,0,0,0,1.94-1.46,10,10,0,0,0,.69-4.15,9.9,9.9,0,0,0-.69-4.13A2.14,2.14,0,0,0,6.67,247.83Z" fill="#fff"/><path d="M19.93,260.56a3.65,3.65,0,0,1-3.22-1.91,12.07,12.07,0,0,1,0-10.45,3.67,3.67,0,0,1,6.44,0,11.93,11.93,0,0,1,0,10.43A3.64,3.64,0,0,1,19.93,260.56Zm0-12.73A2.13,2.13,0,0,0,18,249.3a9.9,9.9,0,0,0-.69,4.13,10,10,0,0,0,.69,4.15,2,2,0,0,0,3.87,0,10,10,0,0,0,.69-4.15,9.9,9.9,0,0,0-.69-4.13A2.14,2.14,0,0,0,19.93,247.83Z" fill="#fff"/><path d="M29.75,253.4l7.9,3.63a2.09,2.09,0,0,1,.68.45.7.7,0,0,1,.21.5.74.74,0,0,1-.19.52.69.69,0,0,1-.52.19,1.4,1.4,0,0,1-.34-.05,4.78,4.78,0,0,1-.52-.22l-8.57-4a.3.3,0,0,1-.11,0q-1-.45-1-1c0-.36.32-.68,1-1l.13-.06L37,248.45a2.86,2.86,0,0,1,.5-.2,1.29,1.29,0,0,1,.36-.06.73.73,0,0,1,.52.18.69.69,0,0,1,.19.5.73.73,0,0,1-.21.51,2.1,2.1,0,0,1-.68.43Z" fill="#fff"/><path d="M57.59,258.44a1.73,1.73,0,0,1,.59-1.37,2.16,2.16,0,0,1,1.52-.54,2.2,2.2,0,0,1,1.55.53,1.8,1.8,0,0,1,.58,1.38,1.78,1.78,0,0,1-.59,1.39,2.49,2.49,0,0,1-3.07,0A1.77,1.77,0,0,1,57.59,258.44Z" fill="#fff"/><path d="M70.85,258.44a1.75,1.75,0,0,1,.58-1.37,2.2,2.2,0,0,1,1.53-.54,2.15,2.15,0,0,1,1.54.53,1.92,1.92,0,0,1,0,2.77,2.23,2.23,0,0,1-1.54.53,2.21,2.21,0,0,1-1.53-.53A1.77,1.77,0,0,1,70.85,258.44Z" fill="#fff"/><path d="M84.11,258.44a1.75,1.75,0,0,1,.58-1.37,2.47,2.47,0,0,1,3.07,0,1.92,1.92,0,0,1,0,2.77,2.25,2.25,0,0,1-1.54.53,2.21,2.21,0,0,1-1.53-.53A1.77,1.77,0,0,1,84.11,258.44Z" fill="#fff"/><path d="M97.36,205.61a1.8,1.8,0,0,1,.59-1.38,2.51,2.51,0,0,1,3.07,0,1.78,1.78,0,0,1,.58,1.39A1.76,1.76,0,0,1,101,207,2.51,2.51,0,0,1,98,207,1.79,1.79,0,0,1,97.36,205.61Z" fill="#fff"/><path d="M110.62,205.61a1.8,1.8,0,0,1,.59-1.38,2.51,2.51,0,0,1,3.07,0,1.94,1.94,0,0,1,0,2.78,2.53,2.53,0,0,1-3.07,0A1.82,1.82,0,0,1,110.62,205.61Z" fill="#fff"/><path d="M123.88,364.21a1.73,1.73,0,0,1,.59-1.37,2.17,2.17,0,0,1,1.53-.54,2.21,2.21,0,0,1,1.54.52,1.94,1.94,0,0,1,0,2.78,2.53,2.53,0,0,1-3.07,0A1.78,1.78,0,0,1,123.88,364.21Z" fill="#fff"/><path d="M137.14,364.21a1.73,1.73,0,0,1,.59-1.37,2.16,2.16,0,0,1,1.52-.54,2.24,2.24,0,0,1,1.55.52,1.83,1.83,0,0,1,.58,1.39,1.79,1.79,0,0,1-.59,1.39,2.53,2.53,0,0,1-3.07,0A1.78,1.78,0,0,1,137.14,364.21Z" fill="#fff"/><path d="M150.4,364.21a1.75,1.75,0,0,1,.58-1.37,2.49,2.49,0,0,1,3.07,0,1.93,1.93,0,0,1,0,2.78,2.23,2.23,0,0,1-1.54.52,2.2,2.2,0,0,1-1.53-.52A1.78,1.78,0,0,1,150.4,364.21Z" fill="#fff"/><path d="M163.66,364.21a1.75,1.75,0,0,1,.58-1.37,2.17,2.17,0,0,1,1.53-.54,2.21,2.21,0,0,1,1.54.52,1.93,1.93,0,0,1,0,2.78,2.24,2.24,0,0,1-1.54.52,2.2,2.2,0,0,1-1.53-.52A1.78,1.78,0,0,1,163.66,364.21Z" fill="#fff"/><path d="M176.91,364.21a1.76,1.76,0,0,1,.59-1.37,2.17,2.17,0,0,1,1.53-.54,2.21,2.21,0,0,1,1.54.52,1.8,1.8,0,0,1,.58,1.39,1.76,1.76,0,0,1-.59,1.39,2.51,2.51,0,0,1-3.06,0A1.79,1.79,0,0,1,176.91,364.21Z" fill="#fff"/><path d="M188.53,366a1.29,1.29,0,0,1-.85-.23.88.88,0,0,1-.27-.71c0-.47.69-1.34,2.07-2.62l.31-.31c.21-.2.52-.48.91-.86q3.74-3.5,3.73-5.1a2.69,2.69,0,0,0-.65-1.87,2.24,2.24,0,0,0-1.71-.71,3.07,3.07,0,0,0-1.3.28,2.64,2.64,0,0,0-1,.75l-.2.29q-.4.72-.9.72a.62.62,0,0,1-.55-.24,1.68,1.68,0,0,1-.16-.9,1.51,1.51,0,0,1,.08-.56,1.12,1.12,0,0,1,.28-.38,5,5,0,0,1,1.7-1.06,5.83,5.83,0,0,1,2.09-.4,4.17,4.17,0,0,1,3,1.16,3.76,3.76,0,0,1,1.2,2.83q0,2.1-3.67,5.6c-.62.58-1.1,1-1.43,1.37l-1.33,1.27h4.93a1.28,1.28,0,0,1,.25-.72.72.72,0,0,1,.57-.24.68.68,0,0,1,.56.24.91.91,0,0,1,.21.64s0,.06,0,.11a.68.68,0,0,0,0,.12l-.09.82a.91.91,0,0,1-.2.53.52.52,0,0,1-.42.18Z" fill="#fff"/><path d="M203.43,364.21a1.73,1.73,0,0,1,.59-1.37,2.17,2.17,0,0,1,1.53-.54,2.21,2.21,0,0,1,1.54.52,1.94,1.94,0,0,1,0,2.78,2.53,2.53,0,0,1-3.07,0A1.78,1.78,0,0,1,203.43,364.21Z" fill="#fff"/><path d="M216.69,364.21a1.73,1.73,0,0,1,.59-1.37,2.16,2.16,0,0,1,1.52-.54,2.24,2.24,0,0,1,1.55.52,1.83,1.83,0,0,1,.58,1.39,1.79,1.79,0,0,1-.59,1.39,2.53,2.53,0,0,1-3.07,0A1.78,1.78,0,0,1,216.69,364.21Z" fill="#fff"/><path d="M230,364.21a1.75,1.75,0,0,1,.58-1.37,2.49,2.49,0,0,1,3.07,0,1.93,1.93,0,0,1,0,2.78,2.23,2.23,0,0,1-1.54.52,2.2,2.2,0,0,1-1.53-.52A1.78,1.78,0,0,1,230,364.21Z" fill="#fff"/><path d="M285.1,366.23a3.66,3.66,0,0,1-3.23-1.91,12.07,12.07,0,0,1,0-10.45,3.67,3.67,0,0,1,6.45,0,11.93,11.93,0,0,1,0,10.43A3.65,3.65,0,0,1,285.1,366.23Zm0-12.73a2.14,2.14,0,0,0-1.94,1.46,12.76,12.76,0,0,0,0,8.28,2,2,0,0,0,3.88,0,12.76,12.76,0,0,0,0-8.28A2.14,2.14,0,0,0,285.1,353.5Z" fill="#fff"/><path d="M298.35,366.23a3.66,3.66,0,0,1-3.22-1.91,12.07,12.07,0,0,1,0-10.45,3.67,3.67,0,0,1,6.45,0,11.93,11.93,0,0,1,0,10.43A3.65,3.65,0,0,1,298.35,366.23Zm0-12.73a2.14,2.14,0,0,0-1.93,1.46,12.76,12.76,0,0,0,0,8.28,2,2,0,0,0,3.88,0,12.76,12.76,0,0,0,0-8.28A2.15,2.15,0,0,0,298.35,353.5Z" fill="#fff"/><path d="M311.61,366.23a3.65,3.65,0,0,1-3.22-1.91,12.07,12.07,0,0,1,0-10.45,3.67,3.67,0,0,1,6.45,0,12,12,0,0,1,0,10.43A3.66,3.66,0,0,1,311.61,366.23Zm0-12.73a2.13,2.13,0,0,0-1.93,1.46,12.76,12.76,0,0,0,0,8.28,2,2,0,0,0,3.87,0,12.76,12.76,0,0,0,0-8.28A2.13,2.13,0,0,0,311.61,353.5Z" fill="#fff"/><path d="M324.87,366.23a3.65,3.65,0,0,1-3.22-1.91,12.07,12.07,0,0,1,0-10.45,3.67,3.67,0,0,1,6.45,0,12,12,0,0,1,0,10.43A3.66,3.66,0,0,1,324.87,366.23Zm0-12.73a2.13,2.13,0,0,0-1.93,1.46,12.76,12.76,0,0,0,0,8.28,2,2,0,0,0,3.87,0,12.76,12.76,0,0,0,0-8.28A2.14,2.14,0,0,0,324.87,353.5Z" fill="#fff"/><path d="M338.13,207.73a3.65,3.65,0,0,1-3.22-1.91,12.07,12.07,0,0,1,0-10.45,3.66,3.66,0,0,1,6.44,0,11.93,11.93,0,0,1,0,10.43A3.64,3.64,0,0,1,338.13,207.73Zm0-12.73a2.13,2.13,0,0,0-1.93,1.46,12.76,12.76,0,0,0,0,8.28,2,2,0,0,0,3.87,0,12.76,12.76,0,0,0,0-8.28A2.14,2.14,0,0,0,338.13,195Z" fill="#fff"/><path d="M364.65,207.73a3.66,3.66,0,0,1-3.23-1.91,12.07,12.07,0,0,1,0-10.45,3.67,3.67,0,0,1,6.45,0,11.93,11.93,0,0,1,0,10.43A3.65,3.65,0,0,1,364.65,207.73Zm0-12.73a2.14,2.14,0,0,0-1.94,1.46,12.76,12.76,0,0,0,0,8.28,2,2,0,0,0,3.88,0,12.77,12.77,0,0,0,0-8.28A2.14,2.14,0,0,0,364.65,195Z" fill="#fff"/><path d="M6.58,285.11H7a1,1,0,0,1,.66.17.71.71,0,0,1,.21.57.77.77,0,0,1-.2.57.71.71,0,0,1-.56.2H1.79a.73.73,0,0,1-.56-.2.77.77,0,0,1-.19-.57.68.68,0,0,1,.21-.57,1.12,1.12,0,0,1,.72-.17H3v-9.69H2.32a2.13,2.13,0,0,1-1-.16.71.71,0,0,1-.23-.61.81.81,0,0,1,.19-.58.77.77,0,0,1,.56-.2h9.55a.69.69,0,0,1,.55.22.94.94,0,0,1,.2.64v2.78a.73.73,0,0,1-.2.56.71.71,0,0,1-.55.19.67.67,0,0,1-.61-.24,2.12,2.12,0,0,1-.17-1.06v-1.54H4.71V279H7.55v-.28a2.26,2.26,0,0,1,.16-1.05.56.56,0,0,1,.54-.27.56.56,0,0,1,.49.21,1,1,0,0,1,.16.65V281a1.41,1.41,0,0,1-.14.74.58.58,0,0,1-.51.21.56.56,0,0,1-.54-.27,2.26,2.26,0,0,1-.16-1v-.31H4.71v4.76Z" fill="#fff"/><path d="M30.61,275.09l-.21,0h-.13a.76.76,0,0,1-.54-.19.63.63,0,0,1-.21-.5.64.64,0,0,1,.18-.45,1.17,1.17,0,0,1,.53-.29l3.2-.86.23,0h.24a.35.35,0,0,1,.32.19.92.92,0,0,1,.12.51v11.63h1.73a3,3,0,0,1,1.22.15.64.64,0,0,1,.25.59.75.75,0,0,1-.21.58.94.94,0,0,1-.65.19H30.23a1,1,0,0,1-.65-.19.75.75,0,0,1-.21-.58.62.62,0,0,1,.26-.59,3,3,0,0,1,1.22-.15h1.79v-10.5Z" fill="#fff"/><path d="M42.69,286.62a1.29,1.29,0,0,1-.85-.23.88.88,0,0,1-.27-.71c0-.47.69-1.34,2.07-2.63l.31-.3.91-.86c2.49-2.33,3.73-4,3.73-5.1a2.65,2.65,0,0,0-.66-1.87,2.2,2.2,0,0,0-1.7-.71,3.07,3.07,0,0,0-1.3.28,2.47,2.47,0,0,0-1,.75l-.2.29q-.4.72-.9.72a.62.62,0,0,1-.55-.24,1.7,1.7,0,0,1-.16-.9,1.51,1.51,0,0,1,.07-.56,1.3,1.3,0,0,1,.29-.39,5,5,0,0,1,1.7-1.05,5.62,5.62,0,0,1,2.09-.4,4.13,4.13,0,0,1,3,1.16,3.71,3.71,0,0,1,1.21,2.82q0,2.12-3.67,5.61l-1.43,1.36L44,284.93H49a1.27,1.27,0,0,1,.25-.71.8.8,0,0,1,1.13,0,1,1,0,0,1,.21.65.89.89,0,0,1,0,.11c0,.06,0,.09,0,.12l-.08.82a.85.85,0,0,1-.2.52.5.5,0,0,1-.42.19Z" fill="#fff"/><path d="M59.7,287a3.66,3.66,0,0,1-3.22-1.91,12.07,12.07,0,0,1,0-10.45,3.67,3.67,0,0,1,6.45,0,11.93,11.93,0,0,1,0,10.43A3.65,3.65,0,0,1,59.7,287Zm0-12.73a2.14,2.14,0,0,0-1.93,1.46,12.76,12.76,0,0,0,0,8.28,2,2,0,0,0,3.88,0,12.77,12.77,0,0,0,0-8.28A2.16,2.16,0,0,0,59.7,274.25Z" fill="#fff"/><path d="M73,287a3.65,3.65,0,0,1-3.22-1.91,12.07,12.07,0,0,1,0-10.45,3.67,3.67,0,0,1,6.45,0,12,12,0,0,1,0,10.43A3.66,3.66,0,0,1,73,287Zm0-12.73A2.13,2.13,0,0,0,71,275.71,12.76,12.76,0,0,0,71,284a2,2,0,0,0,3.87,0,12.77,12.77,0,0,0,0-8.28A2.13,2.13,0,0,0,73,274.25Z" fill="#fff"/><path d="M110.62,232a1.8,1.8,0,0,1,.59-1.38,2.17,2.17,0,0,1,1.53-.54,2.22,2.22,0,0,1,1.54.53,1.93,1.93,0,0,1,0,2.77,2.49,2.49,0,0,1-3.07,0A1.8,1.8,0,0,1,110.62,232Z" fill="#fff"/><path d="M123.88,232a1.77,1.77,0,0,1,.59-1.38,2.17,2.17,0,0,1,1.53-.54,2.22,2.22,0,0,1,1.54.53,1.93,1.93,0,0,1,0,2.77,2.49,2.49,0,0,1-3.07,0A1.76,1.76,0,0,1,123.88,232Z" fill="#fff"/><path d="M137.14,232a1.77,1.77,0,0,1,.59-1.38,2.16,2.16,0,0,1,1.52-.54,2.24,2.24,0,0,1,1.55.53,1.8,1.8,0,0,1,.58,1.39,1.77,1.77,0,0,1-.59,1.38,2.49,2.49,0,0,1-3.07,0A1.76,1.76,0,0,1,137.14,232Z" fill="#fff"/><path d="M5.13,232.27h.31a1.53,1.53,0,0,1,.84.2.72.72,0,0,1,0,1.14,1.54,1.54,0,0,1-.84.18h-3a.73.73,0,0,1-.76-.75.63.63,0,0,1,.29-.58,1.85,1.85,0,0,1,.93-.19h.22l3.49-3.57-3.43-3.33H3.1a1.64,1.64,0,0,1-.87-.16.66.66,0,0,1-.24-.58.65.65,0,0,1,.27-.61,2.29,2.29,0,0,1,1.05-.16H5.53a1.52,1.52,0,0,1,.84.18.67.67,0,0,1,.27.59.62.62,0,0,1-.3.55,1.57,1.57,0,0,1-.86.19H5.4l2.32,2.27,2.21-2.27H9.7a1.84,1.84,0,0,1-.89-.17.59.59,0,0,1-.3-.55.72.72,0,0,1,.26-.61,1.56,1.56,0,0,1,.85-.18h2.8a.73.73,0,0,1,.54.21.72.72,0,0,1,.22.54.67.67,0,0,1-.27.58,1.61,1.61,0,0,1-.87.18h-.3l-3.1,3.22,3.78,3.68h.11a.93.93,0,0,1,.63.2.7.7,0,0,1,.23.57.65.65,0,0,1-.26.59,2.28,2.28,0,0,1-1.07.16H9.86a1.54,1.54,0,0,1-.84-.18.64.64,0,0,1-.27-.57.67.67,0,0,1,.26-.56,1.09,1.09,0,0,1,.71-.21h.61l-2.72-2.64Z" fill="#fff"/><path d="M18.63,232a1.8,1.8,0,0,1,.59-1.38,2.17,2.17,0,0,1,1.53-.54,2.22,2.22,0,0,1,1.54.53,1.77,1.77,0,0,1,.58,1.39,1.74,1.74,0,0,1-.59,1.38,2.16,2.16,0,0,1-1.53.53,2.14,2.14,0,0,1-1.53-.53A1.77,1.77,0,0,1,18.63,232Z" fill="#fff"/><path d="M30.25,233.79a1.35,1.35,0,0,1-.85-.23.9.9,0,0,1-.27-.72c0-.46.69-1.34,2.07-2.62l.31-.3.91-.86q3.73-3.51,3.73-5.11a2.69,2.69,0,0,0-.65-1.86,2.21,2.21,0,0,0-1.71-.71,3.22,3.22,0,0,0-1.3.27,2.66,2.66,0,0,0-1,.76l-.2.29q-.41.72-.9.72a.62.62,0,0,1-.55-.24,1.72,1.72,0,0,1-.16-.9,1.57,1.57,0,0,1,.08-.57,1.35,1.35,0,0,1,.28-.38,5.28,5.28,0,0,1,1.7-1.06,5.82,5.82,0,0,1,2.09-.39,4.17,4.17,0,0,1,3,1.15,3.77,3.77,0,0,1,1.2,2.83q0,2.12-3.67,5.61c-.62.58-1.1,1-1.43,1.36L31.6,232.1h4.93a1.25,1.25,0,0,1,.25-.71.72.72,0,0,1,.57-.24.68.68,0,0,1,.56.23,1,1,0,0,1,.21.65s0,.06,0,.11a.54.54,0,0,0,0,.11l-.09.83a.88.88,0,0,1-.2.52.5.5,0,0,1-.42.19Z" fill="#fff"/><path d="M216.69,232a1.77,1.77,0,0,1,.59-1.38,2.16,2.16,0,0,1,1.52-.54,2.24,2.24,0,0,1,1.55.53,1.8,1.8,0,0,1,.58,1.39,1.77,1.77,0,0,1-.59,1.38,2.49,2.49,0,0,1-3.07,0A1.76,1.76,0,0,1,216.69,232Z" fill="#fff"/><path d="M230,232a1.79,1.79,0,0,1,.58-1.38,2.47,2.47,0,0,1,3.07,0,1.92,1.92,0,0,1,0,2.77,2.19,2.19,0,0,1-1.54.53,2.16,2.16,0,0,1-1.53-.53A1.76,1.76,0,0,1,230,232Z" fill="#fff"/><path d="M241.57,233.79a1.31,1.31,0,0,1-.85-.23.87.87,0,0,1-.28-.72c0-.46.69-1.34,2.08-2.62l.31-.3.9-.86q3.74-3.51,3.74-5.11a2.65,2.65,0,0,0-.66-1.86,2.21,2.21,0,0,0-1.71-.71,3.26,3.26,0,0,0-1.3.27,2.62,2.62,0,0,0-1,.76,3.32,3.32,0,0,0-.21.29c-.26.48-.56.72-.89.72a.6.6,0,0,1-.55-.24,1.7,1.7,0,0,1-.17-.9,1.57,1.57,0,0,1,.08-.57,1.35,1.35,0,0,1,.28-.38,5.22,5.22,0,0,1,1.71-1.06,5.82,5.82,0,0,1,2.09-.39,4.14,4.14,0,0,1,3,1.15,3.77,3.77,0,0,1,1.2,2.83q0,2.12-3.66,5.61c-.63.58-1.11,1-1.44,1.36l-1.33,1.27h4.93a1.25,1.25,0,0,1,.26-.71.8.8,0,0,1,1.13,0,1,1,0,0,1,.2.65.54.54,0,0,1,0,.11.54.54,0,0,0,0,.11l-.09.83a.88.88,0,0,1-.19.52.52.52,0,0,1-.42.19Z" fill="#fff"/><path d="M256.46,232a1.8,1.8,0,0,1,.59-1.38,2.17,2.17,0,0,1,1.53-.54,2.22,2.22,0,0,1,1.54.53,1.77,1.77,0,0,1,.58,1.39,1.74,1.74,0,0,1-.59,1.38,2.47,2.47,0,0,1-3.06,0A1.77,1.77,0,0,1,256.46,232Z" fill="#fff"/><path d="M269.72,232a1.8,1.8,0,0,1,.59-1.38,2.17,2.17,0,0,1,1.53-.54,2.22,2.22,0,0,1,1.54.53,1.93,1.93,0,0,1,0,2.77,2.49,2.49,0,0,1-3.07,0A1.8,1.8,0,0,1,269.72,232Z" fill="#fff"/><path d="M283,232a1.77,1.77,0,0,1,.59-1.38,2.17,2.17,0,0,1,1.53-.54,2.22,2.22,0,0,1,1.54.53,1.93,1.93,0,0,1,0,2.77,2.49,2.49,0,0,1-3.07,0A1.76,1.76,0,0,1,283,232Z" fill="#fff"/><path d="M296.24,232a1.77,1.77,0,0,1,.59-1.38,2.16,2.16,0,0,1,1.52-.54,2.24,2.24,0,0,1,1.55.53,1.8,1.8,0,0,1,.58,1.39,1.77,1.77,0,0,1-.59,1.38,2.49,2.49,0,0,1-3.07,0A1.76,1.76,0,0,1,296.24,232Z" fill="#fff"/><path d="M309.5,232a1.79,1.79,0,0,1,.58-1.38,2.47,2.47,0,0,1,3.07,0,1.92,1.92,0,0,1,0,2.77,2.19,2.19,0,0,1-1.54.53,2.16,2.16,0,0,1-1.53-.53A1.76,1.76,0,0,1,309.5,232Z" fill="#fff"/><path d="M338.13,234.14a3.64,3.64,0,0,1-3.22-1.9,12.07,12.07,0,0,1,0-10.45,3.67,3.67,0,0,1,6.44,0,12,12,0,0,1,0,10.44A3.63,3.63,0,0,1,338.13,234.14Zm0-12.72a2.13,2.13,0,0,0-1.93,1.46,12.76,12.76,0,0,0,0,8.28,2,2,0,0,0,3.87,0,12.76,12.76,0,0,0,0-8.28A2.14,2.14,0,0,0,338.13,221.42Z" fill="#fff"/><path d="M364.65,234.14a3.65,3.65,0,0,1-3.23-1.9,12.07,12.07,0,0,1,0-10.45,3.68,3.68,0,0,1,6.45,0,12,12,0,0,1,0,10.44A3.64,3.64,0,0,1,364.65,234.14Zm0-12.72a2.14,2.14,0,0,0-1.94,1.46,12.76,12.76,0,0,0,0,8.28,2,2,0,0,0,3.88,0,12.76,12.76,0,0,0,0-8.28A2.14,2.14,0,0,0,364.65,221.42Z" fill="#fff"/><path d="M6.54,313H1.71a.77.77,0,0,1-.57-.2.77.77,0,0,1-.19-.58.64.64,0,0,1,.24-.58,2.42,2.42,0,0,1,1.13-.16h.36v-9.68H2.32a2.19,2.19,0,0,1-1.07-.17.71.71,0,0,1-.23-.61.77.77,0,0,1,.19-.57.77.77,0,0,1,.56-.2h5a5.78,5.78,0,0,1,3.48.89,3,3,0,0,1,1.2,2.57A2.72,2.72,0,0,1,10,306.28a3.69,3.69,0,0,1,1.73,1.17,3.13,3.13,0,0,1,.56,1.91,3.45,3.45,0,0,1-.48,1.79,4,4,0,0,1-1.37,1.32,4,4,0,0,1-1.18.43,9.41,9.41,0,0,1-1.83.14Zm-2.17-7.25H6.63a4.26,4.26,0,0,0,2.27-.48,1.66,1.66,0,0,0,.74-1.49A1.75,1.75,0,0,0,9,302.35a3.13,3.13,0,0,0-1.92-.51H4.37Zm0,5.73h2.4A5.83,5.83,0,0,0,9.63,311a1.83,1.83,0,0,0,.83-1.69,1.86,1.86,0,0,0-.8-1.7,5.47,5.47,0,0,0-2.79-.51H4.37Z" fill="#fff"/><path d="M46.19,313a1.11,1.11,0,0,1-.71-.17.81.81,0,0,1-.18-.61.73.73,0,0,1,.19-.56.86.86,0,0,1,.61-.18h1.25v-1.8h-5a.52.52,0,0,1-.42-.18.72.72,0,0,1-.15-.49v-.74a1.68,1.68,0,0,1,.31-.9l.09-.14,4.55-7.7a1.27,1.27,0,0,1,.25-.34.42.42,0,0,1,.26-.08l.23,0,.08,0,1.1.18a.3.3,0,0,1,.24.16.65.65,0,0,1,.1.38v8.17h.55a.39.39,0,0,0,.36-.19.38.38,0,0,1,.3-.18.46.46,0,0,1,.36.16.55.55,0,0,1,.15.4.91.91,0,0,1,0,.17.53.53,0,0,1,0,.17l-.09.44a1,1,0,0,1-.22.53.67.67,0,0,1-.46.14H49v1.8h.38a1.85,1.85,0,0,1,.94.17.61.61,0,0,1,.26.57.73.73,0,0,1-.21.58,1,1,0,0,1-.65.2Zm1.16-5v-7.29l-4.09,7.29Z" fill="#fff"/><path d="M59.87,312.82a1,1,0,0,1-.17.34.39.39,0,0,1-.28.07h-1a.66.66,0,0,1-.34-.08.29.29,0,0,1-.12-.24,1,1,0,0,1,0-.17c0-.05,0-.11,0-.19l4.24-11.47H56.83a1.31,1.31,0,0,1-.22.75.69.69,0,0,1-.57.24.74.74,0,0,1-.55-.18.78.78,0,0,1-.18-.57.71.71,0,0,1,0-.16s0-.07,0-.1l.11-1a.72.72,0,0,1,.22-.47.83.83,0,0,1,.52-.16h7.13a.62.62,0,0,1,.45.14.54.54,0,0,1,.15.42v.37a1.85,1.85,0,0,1,0,.34c0,.14-.1.32-.18.56Z" fill="#fff"/><path d="M73.12,312.82a.89.89,0,0,1-.16.34.39.39,0,0,1-.28.07h-1a.66.66,0,0,1-.34-.08.29.29,0,0,1-.12-.24,1,1,0,0,1,0-.17c0-.05,0-.11,0-.19l4.24-11.47H70.09a1.31,1.31,0,0,1-.22.75.7.7,0,0,1-.58.24.73.73,0,0,1-.54-.18.78.78,0,0,1-.18-.57v-.16a.44.44,0,0,0,0-.1l.11-1a.68.68,0,0,1,.22-.47.82.82,0,0,1,.51-.16h7.13a.67.67,0,0,1,.46.14.54.54,0,0,1,.15.42v.37a1.85,1.85,0,0,1,0,.34c0,.14-.1.32-.18.56Z" fill="#fff"/><path d="M110.62,258.44a1.76,1.76,0,0,1,.59-1.37,2.47,2.47,0,0,1,3.07,0,1.93,1.93,0,0,1,0,2.77,2.49,2.49,0,0,1-3.07,0A1.8,1.8,0,0,1,110.62,258.44Z" fill="#fff"/><path d="M137.14,258.44a1.73,1.73,0,0,1,.59-1.37,2.16,2.16,0,0,1,1.52-.54,2.2,2.2,0,0,1,1.55.53,1.8,1.8,0,0,1,.58,1.38,1.78,1.78,0,0,1-.59,1.39,2.49,2.49,0,0,1-3.07,0A1.77,1.77,0,0,1,137.14,258.44Z" fill="#fff"/><path d="M163.66,258.44a1.75,1.75,0,0,1,.58-1.37,2.47,2.47,0,0,1,3.07,0,1.92,1.92,0,0,1,0,2.77,2.25,2.25,0,0,1-1.54.53,2.21,2.21,0,0,1-1.53-.53A1.77,1.77,0,0,1,163.66,258.44Z" fill="#fff"/><path d="M176.91,258.44a1.76,1.76,0,0,1,.59-1.37,2.47,2.47,0,0,1,3.07,0,1.76,1.76,0,0,1,.58,1.38,1.74,1.74,0,0,1-.59,1.39,2.47,2.47,0,0,1-3.06,0A1.78,1.78,0,0,1,176.91,258.44Z" fill="#fff"/><path d="M190.17,258.44a1.76,1.76,0,0,1,.59-1.37,2.47,2.47,0,0,1,3.07,0,1.93,1.93,0,0,1,0,2.77,2.49,2.49,0,0,1-3.07,0A1.8,1.8,0,0,1,190.17,258.44Z" fill="#fff"/><path d="M216.69,258.44a1.73,1.73,0,0,1,.59-1.37,2.16,2.16,0,0,1,1.52-.54,2.2,2.2,0,0,1,1.55.53,1.8,1.8,0,0,1,.58,1.38,1.78,1.78,0,0,1-.59,1.39,2.49,2.49,0,0,1-3.07,0A1.77,1.77,0,0,1,216.69,258.44Z" fill="#fff"/><path d="M230,258.44a1.75,1.75,0,0,1,.58-1.37,2.2,2.2,0,0,1,1.53-.54,2.15,2.15,0,0,1,1.54.53,1.92,1.92,0,0,1,0,2.77,2.23,2.23,0,0,1-1.54.53,2.21,2.21,0,0,1-1.53-.53A1.77,1.77,0,0,1,230,258.44Z" fill="#fff"/><path d="M243.21,258.44a1.75,1.75,0,0,1,.58-1.37,2.47,2.47,0,0,1,3.07,0,1.92,1.92,0,0,1,0,2.77,2.25,2.25,0,0,1-1.54.53,2.21,2.21,0,0,1-1.53-.53A1.77,1.77,0,0,1,243.21,258.44Z" fill="#fff"/><path d="M258.51,254.74l-1.39,5.11a1,1,0,0,1-.32.57,1.08,1.08,0,0,1-.65.16.85.85,0,0,1-.6-.2,1.72,1.72,0,0,1-.39-.75l-2.47-7.84h-.1a1,1,0,0,1-.65-.18.71.71,0,0,1-.2-.59.69.69,0,0,1,.21-.55.89.89,0,0,1,.62-.2h2.88a1.33,1.33,0,0,1,.79.17.72.72,0,0,1,.2.58.78.78,0,0,1-.12.44.45.45,0,0,1-.3.23,2.21,2.21,0,0,1-.43.08l-.58,0h-.63l1.86,6.46,1.39-4.69A1.1,1.1,0,0,1,258,253a1.14,1.14,0,0,1,.64-.16.85.85,0,0,1,.61.21,1.74,1.74,0,0,1,.39.74l1.35,4.47,1.78-6.46H262a2,2,0,0,1-1-.17.64.64,0,0,1-.26-.6.75.75,0,0,1,.19-.59,1.31,1.31,0,0,1,.76-.16h2.89a.63.63,0,0,1,.5.2.8.8,0,0,1,.17.55.75.75,0,0,1-.2.58,1.29,1.29,0,0,1-.73.19l-2.43,8.06a1.19,1.19,0,0,1-.35.57,1,1,0,0,1-.63.16.9.9,0,0,1-.62-.21,1.59,1.59,0,0,1-.37-.73Z" fill="#fff"/><path d="M269.72,258.44a1.76,1.76,0,0,1,.59-1.37,2.47,2.47,0,0,1,3.07,0,1.93,1.93,0,0,1,0,2.77,2.49,2.49,0,0,1-3.07,0A1.8,1.8,0,0,1,269.72,258.44Z" fill="#fff"/><path d="M283,258.44a1.73,1.73,0,0,1,.59-1.37,2.47,2.47,0,0,1,3.07,0,1.93,1.93,0,0,1,0,2.77,2.49,2.49,0,0,1-3.07,0A1.77,1.77,0,0,1,283,258.44Z" fill="#fff"/><path d="M296.24,258.44a1.73,1.73,0,0,1,.59-1.37,2.16,2.16,0,0,1,1.52-.54,2.2,2.2,0,0,1,1.55.53,1.8,1.8,0,0,1,.58,1.38,1.78,1.78,0,0,1-.59,1.39,2.49,2.49,0,0,1-3.07,0A1.77,1.77,0,0,1,296.24,258.44Z" fill="#fff"/><path d="M311.55,254.74l-1.39,5.11a1,1,0,0,1-.33.57,1.06,1.06,0,0,1-.65.16.87.87,0,0,1-.6-.2,2,2,0,0,1-.39-.75l-2.47-7.84h-.1a1,1,0,0,1-.65-.18.75.75,0,0,1-.2-.59.69.69,0,0,1,.21-.55.89.89,0,0,1,.62-.2h2.88a1.33,1.33,0,0,1,.79.17.69.69,0,0,1,.21.58.78.78,0,0,1-.12.44.45.45,0,0,1-.3.23,2.54,2.54,0,0,1-.43.08l-.59,0h-.62l1.85,6.46,1.39-4.69A1,1,0,0,1,311,253a1.08,1.08,0,0,1,.63-.16.85.85,0,0,1,.61.21,1.85,1.85,0,0,1,.4.74l1.35,4.47,1.78-6.46H315a2,2,0,0,1-1-.17.66.66,0,0,1-.26-.6.75.75,0,0,1,.19-.59,1.34,1.34,0,0,1,.76-.16h2.89a.63.63,0,0,1,.5.2.8.8,0,0,1,.17.55.79.79,0,0,1-.19.58,1.32,1.32,0,0,1-.74.19l-2.43,8.06a1.19,1.19,0,0,1-.35.57,1,1,0,0,1-.63.16.85.85,0,0,1-.61-.21,1.59,1.59,0,0,1-.38-.73Z" fill="#fff"/><path d="M338.13,260.56a3.65,3.65,0,0,1-3.22-1.91,12.07,12.07,0,0,1,0-10.45,3.67,3.67,0,0,1,6.44,0,11.93,11.93,0,0,1,0,10.43A3.64,3.64,0,0,1,338.13,260.56Zm0-12.73a2.13,2.13,0,0,0-1.93,1.47,9.9,9.9,0,0,0-.69,4.13,10,10,0,0,0,.69,4.15,2,2,0,0,0,3.87,0,10,10,0,0,0,.69-4.15,9.9,9.9,0,0,0-.69-4.13A2.14,2.14,0,0,0,338.13,247.83Z" fill="#fff"/><path d="M364.65,260.56a3.66,3.66,0,0,1-3.23-1.91,12.07,12.07,0,0,1,0-10.45,3.68,3.68,0,0,1,6.45,0,11.93,11.93,0,0,1,0,10.43A3.65,3.65,0,0,1,364.65,260.56Zm0-12.73a2.14,2.14,0,0,0-1.94,1.47,9.9,9.9,0,0,0-.69,4.13,10,10,0,0,0,.69,4.15,2,2,0,0,0,3.88,0,10,10,0,0,0,.69-4.15,9.9,9.9,0,0,0-.69-4.13A2.14,2.14,0,0,0,364.65,247.83Z" fill="#fff"/><path d="M9.13,333a4,4,0,0,1-1.28,1.11,3.37,3.37,0,0,1-1.55.36,3.84,3.84,0,0,1-2.9-1.27A4.42,4.42,0,0,1,2.21,330a4.62,4.62,0,0,1,1.15-3.22,3.81,3.81,0,0,1,2.94-1.26,4.08,4.08,0,0,1,3.41,1.69,7.15,7.15,0,0,1,1.3,4.49,8.71,8.71,0,0,1-1.9,5.88,6.33,6.33,0,0,1-5.06,2.2,3.85,3.85,0,0,1-1.34-.15.57.57,0,0,1-.32-.56c0-.46.43-.7,1.28-.72A7.45,7.45,0,0,0,5,338.26a4.34,4.34,0,0,0,2.76-1.69A7.27,7.27,0,0,0,9.13,333Zm-.23-2.88a3.16,3.16,0,0,0-.71-2.16,2.25,2.25,0,0,0-1.8-.84,2.06,2.06,0,0,0-1.69.79,3.06,3.06,0,0,0-.65,2.05,3.24,3.24,0,0,0,.68,2.13,2.16,2.16,0,0,0,1.75.83,2.23,2.23,0,0,0,1.73-.79A3,3,0,0,0,8.9,330.08Z" fill="#fff"/><path d="M59.7,339.81a3.66,3.66,0,0,1-3.22-1.91,12.07,12.07,0,0,1,0-10.45,3.68,3.68,0,0,1,6.45,0,11.93,11.93,0,0,1,0,10.43A3.65,3.65,0,0,1,59.7,339.81Zm0-12.73a2.14,2.14,0,0,0-1.93,1.47,12.74,12.74,0,0,0,0,8.27,2,2,0,0,0,3.88,0,12.74,12.74,0,0,0,0-8.27A2.15,2.15,0,0,0,59.7,327.08Z" fill="#fff"/><path d="M73,339.81a3.65,3.65,0,0,1-3.22-1.91,12.07,12.07,0,0,1,0-10.45,3.68,3.68,0,0,1,6.45,0,12,12,0,0,1,0,10.43A3.66,3.66,0,0,1,73,339.81Zm0-12.73A2.13,2.13,0,0,0,71,328.55a12.74,12.74,0,0,0,0,8.27,2,2,0,0,0,3.87,0,12.74,12.74,0,0,0,0-8.27A2.13,2.13,0,0,0,73,327.08Z" fill="#fff"/><path d="M110.62,284.86a1.8,1.8,0,0,1,.59-1.38,2.51,2.51,0,0,1,3.07,0,1.94,1.94,0,0,1,0,2.78,2.53,2.53,0,0,1-3.07,0A1.82,1.82,0,0,1,110.62,284.86Z" fill="#fff"/><path d="M137.14,284.86a1.77,1.77,0,0,1,.59-1.38,2.2,2.2,0,0,1,1.52-.53,2.24,2.24,0,0,1,1.55.52,1.82,1.82,0,0,1,.58,1.39,1.79,1.79,0,0,1-.59,1.39,2.53,2.53,0,0,1-3.07,0A1.78,1.78,0,0,1,137.14,284.86Z" fill="#fff"/><path d="M163.66,284.86a1.79,1.79,0,0,1,.58-1.38,2.51,2.51,0,0,1,3.07,0,1.93,1.93,0,0,1,0,2.78,2.24,2.24,0,0,1-1.54.52,2.2,2.2,0,0,1-1.53-.52A1.78,1.78,0,0,1,163.66,284.86Z" fill="#fff"/><path d="M176.91,284.86a1.8,1.8,0,0,1,.59-1.38,2.51,2.51,0,0,1,3.07,0,1.78,1.78,0,0,1,.58,1.39,1.76,1.76,0,0,1-.59,1.39,2.51,2.51,0,0,1-3.06,0A1.79,1.79,0,0,1,176.91,284.86Z" fill="#fff"/><path d="M190.17,284.86a1.8,1.8,0,0,1,.59-1.38,2.51,2.51,0,0,1,3.07,0,1.94,1.94,0,0,1,0,2.78,2.53,2.53,0,0,1-3.07,0A1.82,1.82,0,0,1,190.17,284.86Z" fill="#fff"/><path d="M216.69,284.86a1.77,1.77,0,0,1,.59-1.38,2.2,2.2,0,0,1,1.52-.53,2.24,2.24,0,0,1,1.55.52,1.82,1.82,0,0,1,.58,1.39,1.79,1.79,0,0,1-.59,1.39,2.53,2.53,0,0,1-3.07,0A1.78,1.78,0,0,1,216.69,284.86Z" fill="#fff"/><path d="M230,284.86a1.79,1.79,0,0,1,.58-1.38,2.24,2.24,0,0,1,1.53-.53,2.19,2.19,0,0,1,1.54.52,1.93,1.93,0,0,1,0,2.78,2.23,2.23,0,0,1-1.54.52,2.2,2.2,0,0,1-1.53-.52A1.78,1.78,0,0,1,230,284.86Z" fill="#fff"/><path d="M269.72,284.86a1.8,1.8,0,0,1,.59-1.38,2.51,2.51,0,0,1,3.07,0,1.94,1.94,0,0,1,0,2.78,2.53,2.53,0,0,1-3.07,0A1.82,1.82,0,0,1,269.72,284.86Z" fill="#fff"/><path d="M283,284.86a1.77,1.77,0,0,1,.59-1.38,2.51,2.51,0,0,1,3.07,0,1.94,1.94,0,0,1,0,2.78,2.53,2.53,0,0,1-3.07,0A1.78,1.78,0,0,1,283,284.86Z" fill="#fff"/><path d="M295.8,279.58a4.11,4.11,0,0,1,1.29-1.13,3.28,3.28,0,0,1,1.55-.37,3.8,3.8,0,0,1,2.9,1.28,4.46,4.46,0,0,1,1.19,3.15,4.56,4.56,0,0,1-1.15,3.21,3.84,3.84,0,0,1-3,1.26,4,4,0,0,1-3.4-1.69,7.22,7.22,0,0,1-1.28-4.48,8.76,8.76,0,0,1,1.89-5.88,6.22,6.22,0,0,1,5-2.22,4,4,0,0,1,1.38.15.56.56,0,0,1,.34.57c0,.46-.43.7-1.27.71a8.8,8.8,0,0,0-1.35.11,4.44,4.44,0,0,0-2.77,1.7A7.25,7.25,0,0,0,295.8,279.58Zm.23,2.86a3.25,3.25,0,0,0,.71,2.16,2.24,2.24,0,0,0,1.8.83,2.09,2.09,0,0,0,1.69-.79,3,3,0,0,0,.67-2.05,3.21,3.21,0,0,0-.69-2.13,2.31,2.31,0,0,0-3.49,0A2.92,2.92,0,0,0,296,282.44Z" fill="#fff"/><path d="M309.5,284.86a1.79,1.79,0,0,1,.58-1.38,2.24,2.24,0,0,1,1.53-.53,2.19,2.19,0,0,1,1.54.52,1.93,1.93,0,0,1,0,2.78,2.23,2.23,0,0,1-1.54.52,2.2,2.2,0,0,1-1.53-.52A1.78,1.78,0,0,1,309.5,284.86Z" fill="#fff"/><path d="M338.13,287a3.65,3.65,0,0,1-3.22-1.91,12.07,12.07,0,0,1,0-10.45,3.66,3.66,0,0,1,6.44,0,11.93,11.93,0,0,1,0,10.43A3.64,3.64,0,0,1,338.13,287Zm0-12.73a2.13,2.13,0,0,0-1.93,1.46,12.76,12.76,0,0,0,0,8.28,2,2,0,0,0,3.87,0,12.77,12.77,0,0,0,0-8.28A2.14,2.14,0,0,0,338.13,274.25Z" fill="#fff"/><path d="M73,366.22a3.64,3.64,0,0,1-3.22-1.9,12.07,12.07,0,0,1,0-10.45,3.68,3.68,0,0,1,6.45,0,12,12,0,0,1,0,10.44A3.67,3.67,0,0,1,73,366.22Zm0-12.72A2.13,2.13,0,0,0,71,355a12.76,12.76,0,0,0,0,8.28,2,2,0,0,0,3.87,0,12.76,12.76,0,0,0,0-8.28A2.13,2.13,0,0,0,73,353.5Z" fill="#fff"/><path d="M110.62,311.27a1.79,1.79,0,0,1,.59-1.37,2.17,2.17,0,0,1,1.53-.54,2.22,2.22,0,0,1,1.54.53,1.93,1.93,0,0,1,0,2.77,2.49,2.49,0,0,1-3.07,0A1.8,1.8,0,0,1,110.62,311.27Z" fill="#fff"/><path d="M163.66,311.27a1.78,1.78,0,0,1,.58-1.37,2.17,2.17,0,0,1,1.53-.54,2.22,2.22,0,0,1,1.54.53,1.92,1.92,0,0,1,0,2.77,2.25,2.25,0,0,1-1.54.53,2.21,2.21,0,0,1-1.53-.53A1.77,1.77,0,0,1,163.66,311.27Z" fill="#fff"/><path d="M176.91,311.27a1.79,1.79,0,0,1,.59-1.37,2.17,2.17,0,0,1,1.53-.54,2.22,2.22,0,0,1,1.54.53,1.76,1.76,0,0,1,.58,1.38,1.74,1.74,0,0,1-.59,1.39,2.47,2.47,0,0,1-3.06,0A1.78,1.78,0,0,1,176.91,311.27Z" fill="#fff"/><path d="M190.17,311.27a1.79,1.79,0,0,1,.59-1.37,2.17,2.17,0,0,1,1.53-.54,2.22,2.22,0,0,1,1.54.53,1.93,1.93,0,0,1,0,2.77,2.49,2.49,0,0,1-3.07,0A1.8,1.8,0,0,1,190.17,311.27Z" fill="#fff"/><path d="M216.69,311.27a1.76,1.76,0,0,1,.59-1.37,2.16,2.16,0,0,1,1.52-.54,2.24,2.24,0,0,1,1.55.53,1.8,1.8,0,0,1,.58,1.38,1.78,1.78,0,0,1-.59,1.39,2.49,2.49,0,0,1-3.07,0A1.77,1.77,0,0,1,216.69,311.27Z" fill="#fff"/><path d="M232.5,311.52a1.28,1.28,0,0,1,.77.18.66.66,0,0,1,.24.56.74.74,0,0,1-.23.61,1.56,1.56,0,0,1-.86.17h-5.28a.77.77,0,0,1-.56-.2.8.8,0,0,1-.19-.58.79.79,0,0,1,.18-.56.85.85,0,0,1,.59-.18h1.4v-9.68h-.76a2.49,2.49,0,0,1-1.18-.17.68.68,0,0,1-.23-.61.68.68,0,0,1,.75-.77h5a6.66,6.66,0,0,1,4,1,3.49,3.49,0,0,1,1.36,3,3.44,3.44,0,0,1-1.35,3,6.63,6.63,0,0,1-4,1h-1.89v3.28Zm-2.25-9.68v5h2a4.2,4.2,0,0,0,2.53-.62,2.49,2.49,0,0,0,0-3.74,4.25,4.25,0,0,0-2.52-.62Z" fill="#fff"/><path d="M269.72,311.27a1.79,1.79,0,0,1,.59-1.37,2.17,2.17,0,0,1,1.53-.54,2.22,2.22,0,0,1,1.54.53,1.93,1.93,0,0,1,0,2.77,2.49,2.49,0,0,1-3.07,0A1.8,1.8,0,0,1,269.72,311.27Z" fill="#fff"/><path d="M283,311.27a1.76,1.76,0,0,1,.59-1.37,2.17,2.17,0,0,1,1.53-.54,2.22,2.22,0,0,1,1.54.53,1.93,1.93,0,0,1,0,2.77,2.49,2.49,0,0,1-3.07,0A1.77,1.77,0,0,1,283,311.27Z" fill="#fff"/><path d="M296.24,311.27a1.76,1.76,0,0,1,.59-1.37,2.16,2.16,0,0,1,1.52-.54,2.24,2.24,0,0,1,1.55.53,1.8,1.8,0,0,1,.58,1.38,1.78,1.78,0,0,1-.59,1.39,2.49,2.49,0,0,1-3.07,0A1.77,1.77,0,0,1,296.24,311.27Z" fill="#fff"/><path d="M309.5,311.27a1.78,1.78,0,0,1,.58-1.37,2.47,2.47,0,0,1,3.07,0,1.92,1.92,0,0,1,0,2.77,2.23,2.23,0,0,1-1.54.53,2.21,2.21,0,0,1-1.53-.53A1.77,1.77,0,0,1,309.5,311.27Z" fill="#fff"/><path d="M338.13,313.39a3.63,3.63,0,0,1-3.22-1.91,12,12,0,0,1,0-10.44,3.67,3.67,0,0,1,6.44,0,11.93,11.93,0,0,1,0,10.43A3.64,3.64,0,0,1,338.13,313.39Zm0-12.72a2.12,2.12,0,0,0-1.93,1.46,9.9,9.9,0,0,0-.69,4.13,10,10,0,0,0,.69,4.15,2,2,0,0,0,3.87,0,10,10,0,0,0,.69-4.15,9.9,9.9,0,0,0-.69-4.13A2.13,2.13,0,0,0,338.13,300.67Z" fill="#fff"/><path d="M110.62,337.69a1.76,1.76,0,0,1,.59-1.37,2.47,2.47,0,0,1,3.07,0,1.93,1.93,0,0,1,0,2.77,2.49,2.49,0,0,1-3.07,0A1.8,1.8,0,0,1,110.62,337.69Z" fill="#fff"/><path d="M176.91,337.69a1.76,1.76,0,0,1,.59-1.37,2.47,2.47,0,0,1,3.07,0,1.76,1.76,0,0,1,.58,1.38,1.74,1.74,0,0,1-.59,1.39,2.47,2.47,0,0,1-3.06,0A1.78,1.78,0,0,1,176.91,337.69Z" fill="#fff"/><path d="M195.7,327.06a.78.78,0,0,1,.3-.41,1.06,1.06,0,0,1,.56-.12.7.7,0,0,1,.56.2,1.31,1.31,0,0,1,.16.79c0,.71,0,1.36,0,2s0,.86,0,.79a1,1,0,0,1-.17.68.83.83,0,0,1-.61.17c-.48,0-.79-.33-.93-1l-.12-.46a2.18,2.18,0,0,0-1-1.31,3.26,3.26,0,0,0-1.82-.51,3.78,3.78,0,0,0-3.07,1.39,6.58,6.58,0,0,0,0,7.46,3.86,3.86,0,0,0,3.09,1.39,4.69,4.69,0,0,0,1.27-.18,5.6,5.6,0,0,0,1.28-.53,6.91,6.91,0,0,0,.79-.51,1.6,1.6,0,0,1,.73-.36.76.76,0,0,1,.56.22.7.7,0,0,1,.23.54.93.93,0,0,1-.25.62,4.3,4.3,0,0,1-.94.73,7.47,7.47,0,0,1-1.83.88,6.77,6.77,0,0,1-1.93.28,5.75,5.75,0,0,1-4.4-1.88,7.46,7.46,0,0,1,0-9.6,5.76,5.76,0,0,1,4.43-1.92,6.19,6.19,0,0,1,1.45.18A9.41,9.41,0,0,1,195.7,327.06Z" fill="#fff"/><path d="M216.69,337.69a1.73,1.73,0,0,1,.59-1.37,2.16,2.16,0,0,1,1.52-.54,2.2,2.2,0,0,1,1.55.53,1.8,1.8,0,0,1,.58,1.38,1.78,1.78,0,0,1-.59,1.39,2.49,2.49,0,0,1-3.07,0A1.77,1.77,0,0,1,216.69,337.69Z" fill="#fff"/><path d="M230,337.69a1.75,1.75,0,0,1,.58-1.37,2.2,2.2,0,0,1,1.53-.54,2.15,2.15,0,0,1,1.54.53,1.92,1.92,0,0,1,0,2.77,2.23,2.23,0,0,1-1.54.53,2.21,2.21,0,0,1-1.53-.53A1.77,1.77,0,0,1,230,337.69Z" fill="#fff"/><path d="M269.72,337.69a1.76,1.76,0,0,1,.59-1.37,2.47,2.47,0,0,1,3.07,0,1.93,1.93,0,0,1,0,2.77,2.49,2.49,0,0,1-3.07,0A1.8,1.8,0,0,1,269.72,337.69Z" fill="#fff"/><path d="M283,337.69a1.73,1.73,0,0,1,.59-1.37,2.47,2.47,0,0,1,3.07,0,1.93,1.93,0,0,1,0,2.77,2.49,2.49,0,0,1-3.07,0A1.77,1.77,0,0,1,283,337.69Z" fill="#fff"/><path d="M297.63,326.93H295.8a3.19,3.19,0,0,1-1.32-.16.69.69,0,0,1-.26-.61.72.72,0,0,1,.22-.58.94.94,0,0,1,.64-.2h3.56a.76.76,0,0,1,.46.12.38.38,0,0,1,.16.33v12.11h3.39a.82.82,0,0,1,.59.18.7.7,0,0,1,.19.56.82.82,0,0,1-.18.61,1.06,1.06,0,0,1-.69.16h-8a.92.92,0,0,1-.64-.19.72.72,0,0,1-.22-.58.68.68,0,0,1,.22-.56,1.08,1.08,0,0,1,.68-.18h3Z" fill="#fff"/><path d="M309.06,332.41a4,4,0,0,1,1.29-1.12,3.15,3.15,0,0,1,1.55-.38,3.83,3.83,0,0,1,2.9,1.28,4.46,4.46,0,0,1,1.19,3.15,4.56,4.56,0,0,1-1.15,3.21,3.84,3.84,0,0,1-3,1.26,4.05,4.05,0,0,1-3.4-1.68,7.19,7.19,0,0,1-1.28-4.49,8.72,8.72,0,0,1,1.89-5.87,6.22,6.22,0,0,1,5-2.22,4,4,0,0,1,1.38.15.56.56,0,0,1,.34.57c0,.45-.43.69-1.28.71a7.71,7.71,0,0,0-1.34.1,4.43,4.43,0,0,0-2.77,1.71A7.25,7.25,0,0,0,309.06,332.41Zm.23,2.86a3.3,3.3,0,0,0,.7,2.16,2.27,2.27,0,0,0,1.81.83,2.11,2.11,0,0,0,1.69-.78,3.11,3.11,0,0,0,.67-2.06,3.16,3.16,0,0,0-.69-2.12,2.3,2.3,0,0,0-3.49,0A3,3,0,0,0,309.29,335.27Z" fill="#fff"/><path d="M351.39,339.81a3.66,3.66,0,0,1-3.23-1.91,12.07,12.07,0,0,1,0-10.45,3.68,3.68,0,0,1,6.45,0,11.93,11.93,0,0,1,0,10.43A3.65,3.65,0,0,1,351.39,339.81Zm0-12.73a2.13,2.13,0,0,0-1.93,1.47,12.74,12.74,0,0,0,0,8.27,2,2,0,0,0,3.87,0,12.74,12.74,0,0,0,0-8.27A2.14,2.14,0,0,0,351.39,327.08Z" fill="#fff"/><path d="M110.62,364.11a1.8,1.8,0,0,1,.59-1.38,2.16,2.16,0,0,1,1.53-.53,2.21,2.21,0,0,1,1.54.52,1.78,1.78,0,0,1,.58,1.39,1.81,1.81,0,0,1-.59,1.39,2.53,2.53,0,0,1-3.07,0A1.83,1.83,0,0,1,110.62,364.11Z" fill="#fff"/><path d="M351.39,366.23a3.66,3.66,0,0,1-3.23-1.91,12.07,12.07,0,0,1,0-10.45,3.67,3.67,0,0,1,6.45,0,11.93,11.93,0,0,1,0,10.43A3.65,3.65,0,0,1,351.39,366.23Zm0-12.73a2.13,2.13,0,0,0-1.93,1.46,12.76,12.76,0,0,0,0,8.28,2,2,0,0,0,3.87,0,12.76,12.76,0,0,0,0-8.28A2.14,2.14,0,0,0,351.39,353.5Z" fill="#fff"/></g><path d="M137.11,202.41c0,.24-.08.36-.25.36a2.73,2.73,0,0,0-1.28.41,7.47,7.47,0,0,0-1.5,1.66l-8.62,11.8a.41.41,0,0,1-.33.16c-.17,0-.25-.07-.25-.22l-.61-5.25-3.62,5.31a.41.41,0,0,1-.33.16.27.27,0,0,1-.27-.22l-1.79-11.88a2.63,2.63,0,0,0-.54-1.46,2.15,2.15,0,0,0-1.21-.47c-.07,0-.11-.06-.11-.16a.57.57,0,0,1,.08-.28c0-.08.11-.13.17-.13a10.07,10.07,0,0,1,1.2.06,5.7,5.7,0,0,0,1,.07,12.51,12.51,0,0,0,1.26-.07c.48,0,.89-.06,1.24-.06.07,0,.1.07.1.21a.55.55,0,0,1-.07.24c0,.08-.1.12-.16.12a1.1,1.1,0,0,0-.72.26,1.09,1.09,0,0,0-.19.72,5.17,5.17,0,0,0,.07.78l1.36,9.41,2.4-3.75-.63-5.57a3.09,3.09,0,0,0-.42-1.42,1.34,1.34,0,0,0-.92-.43c-.07,0-.1-.06-.1-.16a.53.53,0,0,1,.07-.28c0-.08.11-.13.17-.13.24,0,.55,0,.94.06a9.29,9.29,0,0,0,1,.07,10,10,0,0,0,1.11-.07q.67-.06,1.14-.06c.06,0,.1.07.1.21a.55.55,0,0,1-.07.24.21.21,0,0,1-.18.12,1.11,1.11,0,0,0-.73.26,1.05,1.05,0,0,0-.19.72,6.68,6.68,0,0,0,0,.7l.37,3.28,1.85-3a2.69,2.69,0,0,0,.52-1.29c0-.39-.27-.62-.81-.7-.07,0-.1-.07-.1-.2a.54.54,0,0,1,.06-.25q.06-.12.15-.12.48,0,1.14.06a6.48,6.48,0,0,0,.87.07c.18,0,.44,0,.76-.05a12.5,12.5,0,0,1,1.26-.08c.09,0,.14.08.14.24s-.08.33-.22.33a2.92,2.92,0,0,0-1.35.45,6.25,6.25,0,0,0-1.41,1.62l-2.76,4,.59,5.23,6.45-9.3a2.32,2.32,0,0,0,.51-1.2c0-.45-.37-.72-1.1-.79-.07,0-.11-.06-.11-.16a.54.54,0,0,1,.08-.28.2.2,0,0,1,.17-.13q.63,0,1.29.06a7.43,7.43,0,0,0,1,.07,7.85,7.85,0,0,0,1-.07c.45,0,.84-.06,1.18-.06C137.08,202.2,137.11,202.27,137.11,202.41Z" fill="#fff"/><path d="M138.85,208.86a3.23,3.23,0,0,1-1.4,2.53,5,5,0,0,1-3.25,1.12q-.06.62-.06,1.11a2.43,2.43,0,0,0,.25,1.29.91.91,0,0,0,.84.39,2.84,2.84,0,0,0,2.33-1.5l.07,0a.24.24,0,0,1,.17.1.35.35,0,0,1,.09.2,2.87,2.87,0,0,1-.62,1,5.39,5.39,0,0,1-1.33,1.26,2.54,2.54,0,0,1-1.35.44,2.09,2.09,0,0,1-1.66-.77,2.79,2.79,0,0,1-.65-1.83,7.06,7.06,0,0,1,.78-3.09,8.58,8.58,0,0,1,2-2.7,3.51,3.51,0,0,1,2.24-1.09,1.43,1.43,0,0,1,1.56,1.54Zm-1.46.35c0-.57-.25-.86-.76-.86s-1,.33-1.39,1a6.88,6.88,0,0,0-.92,2.51,3.11,3.11,0,0,0,1.54-.37,2.89,2.89,0,0,0,1.1-1A2.37,2.37,0,0,0,137.39,209.21Z" fill="#fff"/><path d="M148.55,209.35a6.07,6.07,0,0,1-1.09,3.23,11.32,11.32,0,0,1-2.77,3,5.2,5.2,0,0,1-2.87,1.25c-1.29,0-1.94-.54-1.94-1.64a5.86,5.86,0,0,1,.45-2l3.28-8.5a2.93,2.93,0,0,0,.23-.93c0-.27-.29-.43-.87-.5-.11,0-.16-.1-.16-.26s.05-.24.16-.24a10.92,10.92,0,0,0,1.59-.47,8.33,8.33,0,0,0,1.4-.64.7.7,0,0,1,.34-.12c.14,0,.21.07.21.22a1.3,1.3,0,0,1-.15.53l-3.21,8.35a9.66,9.66,0,0,1,2.08-2.42,3.48,3.48,0,0,1,2.06-.85,1.06,1.06,0,0,1,.93.53A2.83,2.83,0,0,1,148.55,209.35Zm-1.67.58c0-.69-.25-1-.76-1a3,3,0,0,0-1.75,1.09,11.46,11.46,0,0,0-1.89,2.52,5.17,5.17,0,0,0-.8,2.34c0,.56.21.84.62.84a3.06,3.06,0,0,0,2-.91,8.41,8.41,0,0,0,1.81-2.41A5.66,5.66,0,0,0,146.88,209.93Z" fill="#fff"/><path d="M160.2,208.45c0,.6-.24.9-.7.9a1.8,1.8,0,0,1-.95-.55,1.77,1.77,0,0,0-.89-.53.51.51,0,0,0-.4.17.65.65,0,0,0-.15.44,6.85,6.85,0,0,0,.72,2.17,7.33,7.33,0,0,1,.78,2.41,3.36,3.36,0,0,1-.91,2.33,3,3,0,0,1-2.32,1,2.45,2.45,0,0,1-1.32-.38q-.6-.39-.6-.81a.8.8,0,0,1,.87-.86c.22,0,.46.18.73.52a2,2,0,0,0,.59.57,1.1,1.1,0,0,0,.57.14.74.74,0,0,0,.65-.36,1.84,1.84,0,0,0,.24-1,4.75,4.75,0,0,0-.58-1.64,6.77,6.77,0,0,1-.84-2.71,2.88,2.88,0,0,1,.86-2,2.6,2.6,0,0,1,2-.94,2.11,2.11,0,0,1,1.21.32A1,1,0,0,1,160.2,208.45Z" fill="#fff"/><path d="M167.37,208.86a3.2,3.2,0,0,1-1.4,2.53,5,5,0,0,1-3.25,1.12q-.06.62-.06,1.11a2.43,2.43,0,0,0,.25,1.29.91.91,0,0,0,.84.39,2.87,2.87,0,0,0,2.34-1.5l.06,0a.24.24,0,0,1,.17.1.37.37,0,0,1,.1.2,2.81,2.81,0,0,1-.63,1,5.39,5.39,0,0,1-1.33,1.26,2.54,2.54,0,0,1-1.35.44,2.1,2.1,0,0,1-1.66-.77,2.79,2.79,0,0,1-.65-1.83,7.06,7.06,0,0,1,.78-3.09,8.58,8.58,0,0,1,2-2.7,3.51,3.51,0,0,1,2.24-1.09,1.53,1.53,0,0,1,1.15.42A1.5,1.5,0,0,1,167.37,208.86Zm-1.46.35c0-.57-.25-.86-.76-.86s-1,.33-1.39,1a6.88,6.88,0,0,0-.92,2.51,3.11,3.11,0,0,0,1.54-.37,2.89,2.89,0,0,0,1.1-1A2.37,2.37,0,0,0,165.91,209.21Z" fill="#fff"/><path d="M175.53,208.62a.69.69,0,0,1-.2.51.66.66,0,0,1-.5.2,1.4,1.4,0,0,1-1.06-.6,1.2,1.2,0,0,0-.86-.52c-.29,0-.66.31-1.1.95a7.65,7.65,0,0,0-1,2.27,9.84,9.84,0,0,0-.38,2.73q0,1.23,1,1.23a1.92,1.92,0,0,0,1-.4,4.89,4.89,0,0,0,1.07-1l.06,0a.22.22,0,0,1,.17.1.32.32,0,0,1,.09.21,2.58,2.58,0,0,1-.61,1,6,6,0,0,1-1.28,1.17,2.36,2.36,0,0,1-1.25.42,1.89,1.89,0,0,1-1.53-.77,2.79,2.79,0,0,1-.63-1.83,6.79,6.79,0,0,1,.8-3.08,8.7,8.7,0,0,1,2.05-2.7,3.68,3.68,0,0,1,2.29-1.1,2.31,2.31,0,0,1,1.33.38A1.13,1.13,0,0,1,175.53,208.62Z" fill="#fff"/><path d="M185.36,207.94l-2.15,6.3a4.65,4.65,0,0,0-.27,1c0,.17.07.25.21.25s.61-.36,1.17-1.09c.28-.35.44-.53.5-.53a.35.35,0,0,1,.24.11.37.37,0,0,1,.11.24,3.19,3.19,0,0,1-.69.93,7.49,7.49,0,0,1-1.31,1.21,2,2,0,0,1-1.1.44,1.2,1.2,0,0,1-.79-.24.84.84,0,0,1-.28-.66,5,5,0,0,1,.33-1.48l.67-2a15.62,15.62,0,0,1-2.4,3.23,3.25,3.25,0,0,1-2.1,1.14,1.22,1.22,0,0,1-.92-.37,1.33,1.33,0,0,1-.37-1,4.73,4.73,0,0,1,.41-1.7l1.65-3.86a4.6,4.6,0,0,0,.35-1c0-.16-.06-.24-.19-.24s-.69.38-1.32,1.13c-.28.34-.44.51-.49.51a.29.29,0,0,1-.22-.12.35.35,0,0,1-.09-.23c0-.12.24-.44.72-.94a8.35,8.35,0,0,1,1.4-1.22,2.28,2.28,0,0,1,1.18-.45,1.1,1.1,0,0,1,.72.21.68.68,0,0,1,.27.57,4.43,4.43,0,0,1-.45,1.62l-1.67,4a3,3,0,0,0-.29,1.13c0,.39.16.58.47.58s.94-.48,1.68-1.42a32,32,0,0,0,2.45-3.86l.75-2.17c0-.1.16-.19.38-.26a2.08,2.08,0,0,1,.66-.11,1.53,1.53,0,0,1,.54.09C185.29,207.72,185.37,207.82,185.36,207.94Z" fill="#fff"/><path d="M194.82,208.47a1.15,1.15,0,0,1-.28.82.93.93,0,0,1-.7.31,1,1,0,0,1-.72-.38.79.79,0,0,0-.54-.32c-.43,0-1.06.7-1.91,2.09a40.61,40.61,0,0,0-2.62,5.22c-.1.23-.41.35-.93.35a1.3,1.3,0,0,1-.49-.09c-.14-.06-.22-.13-.22-.21v0l2.16-6.32a4.68,4.68,0,0,0,.27-1c0-.16-.07-.24-.2-.24s-.61.37-1.18,1.1c-.27.36-.44.54-.49.54a.32.32,0,0,1-.25-.12.36.36,0,0,1-.1-.23,3.05,3.05,0,0,1,.68-.93,7.68,7.68,0,0,1,1.31-1.23,2,2,0,0,1,1.1-.45c.71,0,1.07.31,1.07.93a4.8,4.8,0,0,1-.33,1.45l-.39,1.11c1.3-2.32,2.45-3.49,3.44-3.49a1.39,1.39,0,0,1,.94.32A1,1,0,0,1,194.82,208.47Z" fill="#fff"/><path d="M199.93,208.18a3.5,3.5,0,0,1-.43,1.52l-2.25,4.54a2.73,2.73,0,0,0-.35,1c0,.17.06.25.17.25s.69-.41,1.4-1.22c.33-.39.52-.59.58-.59a.29.29,0,0,1,.23.12.42.42,0,0,1,.1.23c0,.1-.27.42-.8,1a9.47,9.47,0,0,1-1.51,1.32,2.31,2.31,0,0,1-1.17.47q-1,0-1-.9a4,4,0,0,1,.45-1.5l2.24-4.51a2.61,2.61,0,0,0,.35-1c0-.14-.06-.2-.18-.2s-.72.42-1.46,1.28a2.57,2.57,0,0,1-.52.52.25.25,0,0,1-.22-.11.36.36,0,0,1-.09-.24,3.64,3.64,0,0,1,.79-1,9.33,9.33,0,0,1,1.5-1.31,2.28,2.28,0,0,1,1.19-.48C199.61,207.32,199.93,207.61,199.93,208.18Zm1.22-4.7a1.17,1.17,0,0,1-2,.81,1.1,1.1,0,0,1-.34-.81,1.17,1.17,0,0,1,2-.83A1.16,1.16,0,0,1,201.15,203.48Z" fill="#fff"/><path d="M207.92,208.12a.59.59,0,0,1-.14.39c-.09.13-.18.19-.27.19l-2.08-.06-1.94,5.6a3.45,3.45,0,0,0-.2.92c0,.22.07.33.22.33.33,0,1-.44,1.94-1.3a2.7,2.7,0,0,1,.62-.51.37.37,0,0,1,.26.12.37.37,0,0,1,.11.23c0,.11-.3.44-.91,1a11.18,11.18,0,0,1-1.71,1.31,2.79,2.79,0,0,1-1.29.48,1,1,0,0,1-1.14-1.15,4,4,0,0,1,.25-1.25l2-5.74-1.59,0c-.14,0-.2-.11-.2-.33A.62.62,0,0,1,202,208c.09-.12.18-.19.27-.19h1.67l.76-2.2c0-.1.16-.19.37-.25a2.14,2.14,0,0,1,.65-.1,1.53,1.53,0,0,1,.54.09c.17.06.26.13.26.21v.05l-.77,2.2h2C207.85,207.79,207.92,207.9,207.92,208.12Z" fill="#fff"/><path d="M216.23,207.92c0,1-.59,2.81-1.79,5.36a32.74,32.74,0,0,1-3.74,6.32c-1.31,1.67-2.42,2.5-3.32,2.5a1.51,1.51,0,0,1-.95-.31.84.84,0,0,1-.41-.7.81.81,0,0,1,.23-.6.88.88,0,0,1,.63-.22,1.05,1.05,0,0,1,.6.24,1.44,1.44,0,0,0,.82.29c.32,0,.73-.28,1.22-.84a6.19,6.19,0,0,0,1.13-2.08,9,9,0,0,0,.39-2.72,23.48,23.48,0,0,0-.34-4.44c-.22-1.16-.5-1.73-.81-1.73s-.7.45-1.13,1.37c-.18.36-.29.53-.33.53a.35.35,0,0,1-.25-.12.36.36,0,0,1-.1-.23,3.3,3.3,0,0,1,.43-1.27,6.17,6.17,0,0,1,1-1.41,1.39,1.39,0,0,1,.94-.54q1.08,0,1.71,1.56a12.54,12.54,0,0,1,.62,4.43c0,.83,0,1.47,0,1.93a16.53,16.53,0,0,0,1.46-3.25,19.44,19.44,0,0,0,.78-3.83c.06-.56.25-.84.56-.84a.84.84,0,0,1,.53.17A.54.54,0,0,1,216.23,207.92Z" fill="#fff"/><path d="M233.52,201.71a3,3,0,0,1-.1.53l-4.22,11.57a5.28,5.28,0,0,0-.37,1.27q0,.33.21.33c.23,0,.67-.42,1.3-1.25.24-.32.37-.48.41-.48a.43.43,0,0,1,.37.35,3.21,3.21,0,0,1-.67,1,7.63,7.63,0,0,1-1.32,1.3,2,2,0,0,1-1.14.46c-.74,0-1.11-.38-1.11-1.15a5.66,5.66,0,0,1,.57-2.05,8.3,8.3,0,0,1-1.91,2.29,3.23,3.23,0,0,1-2,.91,1.43,1.43,0,0,1-1.16-.56,2.32,2.32,0,0,1-.44-1.49,6.38,6.38,0,0,1,1-3.19,11.13,11.13,0,0,1,2.55-3,4.52,4.52,0,0,1,2.66-1.25,2.07,2.07,0,0,1,.77.17,1.29,1.29,0,0,1,.59.41l1.15-3.25a2.93,2.93,0,0,0,.23-.93c0-.27-.3-.43-.89-.5-.12,0-.18-.1-.18-.26s.05-.24.16-.24a11.85,11.85,0,0,0,1.56-.46,7,7,0,0,0,1.39-.63.76.76,0,0,1,.35-.14C233.45,201.49,233.52,201.56,233.52,201.71ZM229.16,209c0-.68-.32-1-1-1a2.85,2.85,0,0,0-1.91,1.06,8.55,8.55,0,0,0-1.75,2.59,6.7,6.7,0,0,0-.71,2.83c0,.65.22,1,.66,1s1-.38,1.72-1.14a14.91,14.91,0,0,0,2-2.9A6.57,6.57,0,0,0,229.16,209Z" fill="#fff"/><path d="M237.45,208.18a3.5,3.5,0,0,1-.43,1.52l-2.24,4.54a2.55,2.55,0,0,0-.35,1c0,.17,0,.25.16.25s.69-.41,1.4-1.22c.33-.39.52-.59.58-.59a.29.29,0,0,1,.23.12.42.42,0,0,1,.1.23c0,.1-.27.42-.8,1a9.44,9.44,0,0,1-1.5,1.32,2.34,2.34,0,0,1-1.18.47q-1,0-1-.9a4,4,0,0,1,.45-1.5l2.25-4.51a2.78,2.78,0,0,0,.35-1c0-.14-.07-.2-.19-.2s-.72.42-1.46,1.28a2.3,2.3,0,0,1-.52.52.25.25,0,0,1-.22-.11.36.36,0,0,1-.09-.24,3.64,3.64,0,0,1,.79-1,9.33,9.33,0,0,1,1.5-1.31,2.28,2.28,0,0,1,1.19-.48C237.13,207.32,237.45,207.61,237.45,208.18Zm1.22-4.7a1.14,1.14,0,0,1-1.16,1.14,1.16,1.16,0,0,1-.83-.33,1.1,1.1,0,0,1-.34-.81,1.12,1.12,0,0,1,.34-.83,1.13,1.13,0,0,1,.83-.34,1.11,1.11,0,0,1,.82.34A1.16,1.16,0,0,1,238.67,203.48Z" fill="#fff"/><path d="M247.37,209.42l-1.34,0a4.94,4.94,0,0,1,0,.58,4.42,4.42,0,0,1-1.36,3.11,4.16,4.16,0,0,1-3.09,1.42,1.07,1.07,0,0,0-.55.12.35.35,0,0,0-.21.29c0,.12.1.24.3.35a8.67,8.67,0,0,0,1.36.54,9.9,9.9,0,0,1,2.82,1.3,1.76,1.76,0,0,1,.73,1.36,2.88,2.88,0,0,1-.68,1.77,4.7,4.7,0,0,1-1.79,1.38,5.58,5.58,0,0,1-2.37.51,6.24,6.24,0,0,1-3.16-.71,2.06,2.06,0,0,1-1.21-1.8,2.17,2.17,0,0,1,.9-1.52,7.92,7.92,0,0,1,2.3-1.37c-.76-.39-1.14-.75-1.14-1.07a.89.89,0,0,1,.33-.63,5.64,5.64,0,0,1,1.28-.78,2.45,2.45,0,0,1-1.19-2.32,4.54,4.54,0,0,1,1.32-3.15,4.05,4.05,0,0,1,3-1.43,2.14,2.14,0,0,1,2,1.05l2-.06c.09,0,.13.08.13.25a1.17,1.17,0,0,1-.15.58C247.57,209.33,247.47,209.42,247.37,209.42Zm-2.89,10a1.53,1.53,0,0,0-.79-1.24,11.46,11.46,0,0,0-2.91-1.16,4.31,4.31,0,0,0-1.7,1,2.07,2.07,0,0,0-.79,1.45c0,1.29,1,1.93,3,1.93a4.4,4.4,0,0,0,2.27-.57A1.65,1.65,0,0,0,244.48,219.45Zm-.18-10.32c0-.75-.28-1.13-.82-1.13a1.59,1.59,0,0,0-1.14.69,4.78,4.78,0,0,0-.93,1.75,7.23,7.23,0,0,0-.34,2.26,1.34,1.34,0,0,0,.22.81.71.71,0,0,0,.6.32c.64,0,1.21-.47,1.69-1.39A7.12,7.12,0,0,0,244.3,209.13Z" fill="#fff"/><path d="M254.24,208.86a3.23,3.23,0,0,1-1.4,2.53,5.06,5.06,0,0,1-3.26,1.12q-.06.62-.06,1.11a2.43,2.43,0,0,0,.25,1.29.91.91,0,0,0,.84.39,2.87,2.87,0,0,0,2.34-1.5l.06,0a.28.28,0,0,1,.18.1.35.35,0,0,1,.09.2,2.81,2.81,0,0,1-.63,1,5.54,5.54,0,0,1-1.32,1.26,2.59,2.59,0,0,1-1.36.44,2.1,2.1,0,0,1-1.66-.77,2.78,2.78,0,0,1-.64-1.83,7.18,7.18,0,0,1,.77-3.09,8.58,8.58,0,0,1,2-2.7,3.54,3.54,0,0,1,2.24-1.09,1.53,1.53,0,0,1,1.15.42A1.51,1.51,0,0,1,254.24,208.86Zm-1.47.35c0-.57-.25-.86-.76-.86a1.76,1.76,0,0,0-1.39,1,6.88,6.88,0,0,0-.92,2.51,3.11,3.11,0,0,0,1.54-.37,3,3,0,0,0,1.11-1A2.44,2.44,0,0,0,252.77,209.21Z" fill="#fff"/><path d="M261.27,208.45c0,.6-.24.9-.7.9a1.83,1.83,0,0,1-.95-.55,1.77,1.77,0,0,0-.89-.53.51.51,0,0,0-.4.17.65.65,0,0,0-.15.44,6.85,6.85,0,0,0,.72,2.17,7.33,7.33,0,0,1,.78,2.41,3.36,3.36,0,0,1-.91,2.33,3,3,0,0,1-2.32,1,2.45,2.45,0,0,1-1.32-.38q-.6-.39-.6-.81a.81.81,0,0,1,.87-.86c.22,0,.46.18.73.52a2.16,2.16,0,0,0,.59.57,1.1,1.1,0,0,0,.57.14.74.74,0,0,0,.65-.36,1.84,1.84,0,0,0,.24-1,4.53,4.53,0,0,0-.58-1.64,6.77,6.77,0,0,1-.84-2.71,2.88,2.88,0,0,1,.86-2,2.6,2.6,0,0,1,2-.94,2.11,2.11,0,0,1,1.21.32A.94.94,0,0,1,261.27,208.45Z" fill="#fff"/><path d="M268.61,208.12a.64.64,0,0,1-.14.39c-.09.13-.18.19-.27.19l-2.08-.06-1.94,5.6a3.6,3.6,0,0,0-.21.92c0,.22.08.33.23.33.32,0,1-.44,1.94-1.3a2.7,2.7,0,0,1,.62-.51.33.33,0,0,1,.25.12.35.35,0,0,1,.12.23c0,.11-.3.44-.91,1a11.18,11.18,0,0,1-1.71,1.31,2.78,2.78,0,0,1-1.3.48,1,1,0,0,1-1.13-1.15,3.73,3.73,0,0,1,.25-1.25l2-5.74-1.59,0q-.21,0-.21-.33a.69.69,0,0,1,.14-.39c.1-.12.19-.19.28-.19h1.66l.77-2.2c0-.1.16-.19.37-.25a2.1,2.1,0,0,1,.65-.1,1.53,1.53,0,0,1,.54.09c.17.06.25.13.25.21v.05l-.76,2.2h2C268.53,207.79,268.61,207.9,268.61,208.12Z" fill="#fff"/><path d="M32.48,150v7.56h1.46a7.74,7.74,0,0,1,.64-3.28,4,4,0,0,1,1.56-1.76,5.32,5.32,0,0,1,2.3-.7c.88-.08,1.84-.12,2.87-.12q1.26,0,2,.06a4.68,4.68,0,0,1,1.17.22,1.14,1.14,0,0,1,.56.38,1,1,0,0,1,.13.57v21.17a12.37,12.37,0,0,1-.17,2.18,2.91,2.91,0,0,1-.72,1.48,3.26,3.26,0,0,1-1.56.88,11,11,0,0,1-2.69.33v1.51H55v-1.51a10.73,10.73,0,0,1-2.67-.33,3.32,3.32,0,0,1-1.55-.88,3,3,0,0,1-.71-1.48,11.4,11.4,0,0,1-.18-2.18V152.89a1,1,0,0,1,.14-.57,1.14,1.14,0,0,1,.62-.38,6,6,0,0,1,1.36-.22c.59,0,1.38-.06,2.36-.06a13.64,13.64,0,0,1,2.92.28,5.06,5.06,0,0,1,2,.93,4.19,4.19,0,0,1,1.25,1.8,10.22,10.22,0,0,1,.55,2.85h1.63l-.4-7.56Z" fill="#fff"/><path d="M87,178.14a3,3,0,0,1-.42-1.44c0-.62-.08-1.47-.08-2.56v-6.33a20.19,20.19,0,0,0-.32-4,6.11,6.11,0,0,0-1-2.39,5.57,5.57,0,0,0-2.35-1.7,8.68,8.68,0,0,0-3.34-.64,9.41,9.41,0,0,0-2.2.28,13.12,13.12,0,0,0-2.16.75,12.25,12.25,0,0,0-1.92,1.13,7.29,7.29,0,0,0-1.48,1.45h-.16V147.59l-7.28,1.5v1.35a10.06,10.06,0,0,1,1.46.08,2.88,2.88,0,0,1,.95.25,1.27,1.27,0,0,1,.54.48,2.11,2.11,0,0,1,.25.77,12.47,12.47,0,0,1,.22,2.1q.06,1.38.06,3.72v16.58a21.56,21.56,0,0,1-.1,2.39,2.8,2.8,0,0,1-.45,1.37,1.69,1.69,0,0,1-1,.63,11.08,11.08,0,0,1-1.82.24v1.39H74.91v-1.39a10.22,10.22,0,0,1-1.79-.24,1.59,1.59,0,0,1-1-.65,3,3,0,0,1-.41-1.44c0-.64-.08-1.49-.08-2.58v-5.06c0-.61,0-1.12,0-1.53a8.13,8.13,0,0,1,.1-1.08,4.15,4.15,0,0,1,.22-.86q.14-.37.33-.81a6.65,6.65,0,0,1,2.4-2.61,6.27,6.27,0,0,1,3.38-.95,3.6,3.6,0,0,1,3.44,1.88c.69,1.25,1,3.36,1,6.31v5a21.56,21.56,0,0,1-.1,2.39,2.91,2.91,0,0,1-.43,1.37,1.72,1.72,0,0,1-1,.65,8.49,8.49,0,0,1-1.78.22v1.39H89.75v-1.39a9.94,9.94,0,0,1-1.78-.24A1.52,1.52,0,0,1,87,178.14Z" fill="#fff"/><path d="M103.44,159.06a11.16,11.16,0,0,0-4.37.84,10.41,10.41,0,0,0-3.45,2.29,10.08,10.08,0,0,0-2.23,3.52,12.38,12.38,0,0,0-.79,4.48,12,12,0,0,0,.75,4.33,9.65,9.65,0,0,0,2.11,3.36,9.34,9.34,0,0,0,3.27,2.18,11.26,11.26,0,0,0,4.23.77,10.42,10.42,0,0,0,8.35-4.07l-1.22-1.11a10.63,10.63,0,0,1-2.93,2.39,6.64,6.64,0,0,1-3.09.73,6.21,6.21,0,0,1-2.87-.65A6.58,6.58,0,0,1,99,176.28a8.49,8.49,0,0,1-1.43-2.87,13.23,13.23,0,0,1-.49-3.74c0-.37,0-.7,0-1a3.78,3.78,0,0,1,.12-.77h13a2.63,2.63,0,0,0,1-.12c.14-.08.21-.3.21-.67a7.27,7.27,0,0,0-8-8Zm3.64,6.48a.6.6,0,0,1-.32.33,2,2,0,0,1-.71.16c-.32,0-.74,0-1.27,0H97.5c.69-3.4,2.46-5.11,5.31-5.11a4.51,4.51,0,0,1,3.18,1.09,3.8,3.8,0,0,1,1.17,2.91A1.84,1.84,0,0,1,107.08,165.54Z" fill="#fff"/><path d="M152.69,154.43a16,16,0,0,0-5.22-3.28,18,18,0,0,0-6.59-1.19H127v1.51a13,13,0,0,1,2,.25,2.15,2.15,0,0,1,1.21.68,2.75,2.75,0,0,1,.56,1.34,15,15,0,0,1,.13,2.24v18.44a12.47,12.47,0,0,1-.17,2.28,2.51,2.51,0,0,1-.7,1.34,2.69,2.69,0,0,1-1.44.67,14.69,14.69,0,0,1-2.44.22v1.51h15.48a18,18,0,0,0,6.33-1.09,15,15,0,0,0,5-3,13.38,13.38,0,0,0,3.22-4.65,15,15,0,0,0,1.15-6,15.89,15.89,0,0,0-1.23-6.29A14.71,14.71,0,0,0,152.69,154.43Zm-3.38,20.84q-2.9,3.22-8.31,3.23c-3.94,0-5.9-1.51-5.9-4.52V152.57a.59.59,0,0,1,.67-.67h5a11.44,11.44,0,0,1,4.75.95,9.87,9.87,0,0,1,3.58,2.73,12.28,12.28,0,0,1,2.27,4.36,19.75,19.75,0,0,1,.8,5.85Q152.2,172,149.31,175.27Z" fill="#fff"/><path d="M179.94,178.48a4.18,4.18,0,0,1-1.07.14q-1.78,0-1.78-4.52v-8.86q0-3.36-1.66-4.77t-5.62-1.41a12.8,12.8,0,0,0-5.74,1.05,3.24,3.24,0,0,0-2,2.95,1.75,1.75,0,0,0,2,2,1.71,1.71,0,0,0,1.21-.38,4.15,4.15,0,0,0,.85-1.52,9.71,9.71,0,0,1,.49-1.27,2.49,2.49,0,0,1,.58-.79,1.89,1.89,0,0,1,.79-.39,4.69,4.69,0,0,1,1.14-.12q4.13,0,4.12,4.83V167l-5.7,2.49a23.58,23.58,0,0,0-3,1.57,10.51,10.51,0,0,0-2,1.56,5,5,0,0,0-1.08,1.66,4.9,4.9,0,0,0-.34,1.82,4.37,4.37,0,0,0,1.42,3.41,5.72,5.72,0,0,0,3.92,1.26,7.44,7.44,0,0,0,4-1.13,7.93,7.93,0,0,0,2.85-3.06h.2a5,5,0,0,0,.85,3.12,3.06,3.06,0,0,0,2.59,1.11,6,6,0,0,0,2.65-.61,3.6,3.6,0,0,0,1.74-1.53l-.55-.95A1.53,1.53,0,0,1,179.94,178.48Zm-6.73-6.63a7.92,7.92,0,0,1-.4,2.55,7.26,7.26,0,0,1-1.06,2.1,5.2,5.2,0,0,1-1.57,1.4,3.69,3.69,0,0,1-1.92.52,3.19,3.19,0,0,1-2.29-.83,2.84,2.84,0,0,1-.87-2.14,3.83,3.83,0,0,1,.41-1.7,5.61,5.61,0,0,1,1.37-1.66,13.29,13.29,0,0,1,2.51-1.67,36.32,36.32,0,0,1,3.82-1.7Z" fill="#fff"/><path d="M191,178.08a3.26,3.26,0,0,1-.53-1.46,16.5,16.5,0,0,1-.14-2.48V159.06l-7.76,1.51V162a7.23,7.23,0,0,1,2.69.34,1.65,1.65,0,0,1,.91,1.25,9.83,9.83,0,0,1,.22,2c0,1,.06,2.24.06,3.77v5.07a15.74,15.74,0,0,1-.14,2.28,2.82,2.82,0,0,1-.55,1.38,2.3,2.3,0,0,1-1.17.71,8.05,8.05,0,0,1-1.94.26v1.39H194v-1.39a8.1,8.1,0,0,1-1.9-.24A1.94,1.94,0,0,1,191,178.08Z" fill="#fff"/><path d="M188.25,153.48a2.42,2.42,0,1,0-1.74-.71A2.35,2.35,0,0,0,188.25,153.48Z" fill="#fff"/><path d="M203.7,178.1a3.08,3.08,0,0,1-.49-1.42,19.46,19.46,0,0,1-.12-2.42V147.59l-7.48,1.46v1.35a7.51,7.51,0,0,1,2.63.31,1.61,1.61,0,0,1,.93,1.23,12.67,12.67,0,0,1,.18,2c0,1,.06,2.16.06,3.58v17.06a14.62,14.62,0,0,1-.14,2.23,2.67,2.67,0,0,1-.55,1.33,2.36,2.36,0,0,1-1.13.69,7.55,7.55,0,0,1-1.9.26v1.39h10.92v-1.39a7.69,7.69,0,0,1-1.84-.24A1.94,1.94,0,0,1,203.7,178.1Z" fill="#fff"/><path d="M223.59,160.85a4.63,4.63,0,0,1,2.2.35,1.52,1.52,0,0,1,.57,1.39,4.06,4.06,0,0,1-.06.67,6.09,6.09,0,0,1-.24.89c-.12.36-.29.81-.51,1.37s-.51,1.26-.85,2.13l-3.6,8.91h-.2L216.55,166a19.76,19.76,0,0,1-.8-2.26,6.52,6.52,0,0,1-.31-1.62c0-.87.88-1.3,2.65-1.3v-1.39H207.6v1.39a8.56,8.56,0,0,1,1.31.21,2.39,2.39,0,0,1,.93.52,4.27,4.27,0,0,1,.79,1c.25.43.55,1,.89,1.76l7.6,16.5-1.39,2.77a7.75,7.75,0,0,1-.73,1.27,3.81,3.81,0,0,1-.85.85,4.5,4.5,0,0,1-1.07.55,6.73,6.73,0,0,1-1.42.34,7.49,7.49,0,0,0-2.56.77,1.61,1.61,0,0,0-.69,1.45q0,1.86,2.49,1.86,3.84,0,5.66-4.08l8.63-19.2c.63-1.47,1.17-2.65,1.6-3.52a14,14,0,0,1,1.19-2A2.74,2.74,0,0,1,231,161a3.62,3.62,0,0,1,1.27-.19v-1.39h-8.71Z" fill="#fff"/><path d="M272.88,163.55a67.16,67.16,0,0,0-5-5.3,33.78,33.78,0,0,1-2.91-3.13,13.46,13.46,0,0,1-1.69-2.65,6.13,6.13,0,0,1-.63-2.4,7.09,7.09,0,0,1,.38-2.47,5.86,5.86,0,0,1,3.21-3.76,7.23,7.23,0,0,1,5.31,0,7.93,7.93,0,0,1,4.69,3.93,14.62,14.62,0,0,1,1.26,7.68l1.82.6,3-10.86-1.14-.37-2.07,2a14.55,14.55,0,0,0-3-3.67,11.44,11.44,0,0,0-3.79-2.09,12.18,12.18,0,0,0-4.71-.63,10.67,10.67,0,0,0-4.28,1.21,11.33,11.33,0,0,0-3.49,2.86,13.17,13.17,0,0,0-2.32,4.3,12.81,12.81,0,0,0-.71,3.9,9.16,9.16,0,0,0,.73,3.66,15.52,15.52,0,0,0,2.38,3.88,46.56,46.56,0,0,0,4.2,4.48,43.3,43.3,0,0,1,3.44,3.58,13.62,13.62,0,0,1,1.95,2.93,6.82,6.82,0,0,1,.69,2.64,7.38,7.38,0,0,1-.4,2.61,6.83,6.83,0,0,1-3.8,4.4,8.88,8.88,0,0,1-6.39,0,12.09,12.09,0,0,1-3.87-2.08,10.69,10.69,0,0,1-2.67-3.18,11.68,11.68,0,0,1-1.33-4.07,14.54,14.54,0,0,1,.13-4.77l-1.83-.61-3.23,12.27,1.14.37,2.24-2.17a16,16,0,0,0,3.61,4.4,14.67,14.67,0,0,0,4.76,2.53,16.76,16.76,0,0,0,5.72.9,13.31,13.31,0,0,0,5.06-1.09,11.8,11.8,0,0,0,4-3,12.67,12.67,0,0,0,2.62-4.61,12.06,12.06,0,0,0,.66-4,9.54,9.54,0,0,0-1-3.88A20.74,20.74,0,0,0,272.88,163.55Z" fill="#fff"/><path d="M299.94,159.42a5.43,5.43,0,0,1,2.14.27,1.2,1.2,0,0,1,.51,1.15,3.3,3.3,0,0,1-.08.75,10.4,10.4,0,0,1-.25,1c-.12.41-.29.91-.5,1.51s-.47,1.32-.79,2.19l-2.37,6.41h-.16L293.17,158H292l-5.82,14.68H286l-2.69-9.45c-.13-.53-.24-1-.32-1.33a4.3,4.3,0,0,1-.11-.93,1.3,1.3,0,0,1,.63-1.23,4.88,4.88,0,0,1,2.17-.35V158H275.17v1.39a6.06,6.06,0,0,1,1.46.14,2.26,2.26,0,0,1,1,.53,3.28,3.28,0,0,1,.75,1.07,15.85,15.85,0,0,1,.68,1.78l5.14,16.46h1.46l5.82-14.6h.16l4.83,14.6H298l6.14-15.16c.42-1,.78-1.86,1.07-2.49a6.87,6.87,0,0,1,.85-1.46,2.17,2.17,0,0,1,.83-.7,2.73,2.73,0,0,1,1-.17V158h-7.92Z" fill="#fff"/><path d="M318.11,178.08a3.14,3.14,0,0,1-.54-1.46,18,18,0,0,1-.14-2.48V159.06l-7.75,1.51V162a7.26,7.26,0,0,1,2.69.34,1.67,1.67,0,0,1,.91,1.25,10.6,10.6,0,0,1,.22,2c0,1,.06,2.24.06,3.77v5.07a15.74,15.74,0,0,1-.14,2.28,2.82,2.82,0,0,1-.56,1.38,2.23,2.23,0,0,1-1.16.71,8.13,8.13,0,0,1-1.94.26v1.39h11.35v-1.39a8,8,0,0,1-1.89-.24A1.94,1.94,0,0,1,318.11,178.08Z" fill="#fff"/><path d="M315.34,153.48a2.45,2.45,0,1,0,0-4.9,2.33,2.33,0,0,0-1.74.71,2.46,2.46,0,0,0,0,3.48A2.33,2.33,0,0,0,315.34,153.48Z" fill="#fff"/><path d="M345.16,159.72a3.63,3.63,0,0,0-2.28-.66,4.51,4.51,0,0,0-1.94.5,12.17,12.17,0,0,0-2.37,1.6,7.62,7.62,0,0,0-2.65-1.56,9.91,9.91,0,0,0-3.29-.54,8.79,8.79,0,0,0-3.13.54,7.88,7.88,0,0,0-2.47,1.46,6.48,6.48,0,0,0-1.62,2.2,6.67,6.67,0,0,0-.58,2.77,6.44,6.44,0,0,0,.32,2,7.83,7.83,0,0,0,.85,1.8,7,7,0,0,0,1.29,1.48,5.55,5.55,0,0,0,1.62,1v.16a5.37,5.37,0,0,0-2.89,1.35,3.28,3.28,0,0,0-1.15,2.45,3.21,3.21,0,0,0,1.15,2.61,6.24,6.24,0,0,0,3.37,1.19c.34,0,.79.11,1.34.16s1.16.12,1.8.2l2,.25c.67.1,1.33.18,2,.26A4.33,4.33,0,0,1,339,182.2a3.54,3.54,0,0,1,1.07,2.63c0,2.77-2.25,4.15-6.77,4.15a10.13,10.13,0,0,1-4.88-.95,3,3,0,0,1-1.73-2.69,3.5,3.5,0,0,1,.68-2.11,2.88,2.88,0,0,1,1.74-1.17,3.8,3.8,0,0,0-2.42-.83,3.08,3.08,0,0,0-1.36.31,3.66,3.66,0,0,0-1.13.85,4,4,0,0,0-.75,1.25,4.15,4.15,0,0,0-.28,1.55,3.87,3.87,0,0,0,.73,2.25,6.12,6.12,0,0,0,2,1.76,11.07,11.07,0,0,0,3.15,1.13,19.61,19.61,0,0,0,4.06.4c3.32,0,5.86-.59,7.61-1.75a5.69,5.69,0,0,0,2.64-5.06,6,6,0,0,0-1.73-4.41,7.78,7.78,0,0,0-4.57-2.2l-1.68-.24c-.51-.08-1-.14-1.54-.2l-1.57-.15c-.52-.06-1.1-.11-1.74-.16a6.5,6.5,0,0,1-2.09-.38,1,1,0,0,1-.72-.93,1.18,1.18,0,0,1,.95-1.15,16.56,16.56,0,0,1,3.37-.51,10.25,10.25,0,0,0,6.29-2.24,6.8,6.8,0,0,0,2.1-5.28,6.66,6.66,0,0,0-1-3.68,3.42,3.42,0,0,1,1.94-.67,1.49,1.49,0,0,1,.79.19l.61.42c.2.15.42.28.65.42a1.89,1.89,0,0,0,.91.19,1.67,1.67,0,0,0,1.13-.39,1.34,1.34,0,0,0,.46-1.07A2.11,2.11,0,0,0,345.16,159.72Zm-9.82,10.7a2.89,2.89,0,0,1-2.59,1.51,3.11,3.11,0,0,1-2.73-1.59,7.54,7.54,0,0,1-1-4.19,7.36,7.36,0,0,1,1-4.12,3.12,3.12,0,0,1,2.71-1.5,2.94,2.94,0,0,1,2.63,1.48,7.87,7.87,0,0,1,.93,4.18A8,8,0,0,1,335.34,170.42Z" fill="#fff"/></svg>