<svg xmlns="http://www.w3.org/2000/svg" width="80" height="370" viewBox="0 0 80 370"><title>timeline</title><path d="M41,284V242.91a6,6,0,0,0,0-11.82V191.41a6,6,0,0,0,0-11.82V139.91a6,6,0,0,0,0-11.82V87A26,26,0,0,0,41,35V0H39V35A26,26,0,0,0,39,87v41.12a6,6,0,0,0,0,11.82v39.68a6,6,0,0,0,0,11.82v39.68a6,6,0,0,0,0,11.82V284A26,26,0,0,0,39,336v34h2V336A26,26,0,0,0,41,284Z" fill="#9160a5"/><circle cx="40" cy="61" r="23.5" fill="#eee7f2"/><path d="M29.58,67.77H21.15V65.92l3-3.19c.38-.4.71-.77,1-1.11a10.49,10.49,0,0,0,.78-1,4.37,4.37,0,0,0,.51-1,3.12,3.12,0,0,0,.18-1.07,1.28,1.28,0,0,0-.38-1,1.45,1.45,0,0,0-1-.35,2.8,2.8,0,0,0-1.31.33,6.12,6.12,0,0,0-1.31,1l-1.45-1.72c.26-.23.53-.46.81-.67a4.82,4.82,0,0,1,.93-.57,5.28,5.28,0,0,1,1.12-.4A5.66,5.66,0,0,1,25.33,55a4.75,4.75,0,0,1,1.62.25,3.4,3.4,0,0,1,1.23.71A2.94,2.94,0,0,1,29,57.09a3.81,3.81,0,0,1,.27,1.47A4,4,0,0,1,29,60a6.54,6.54,0,0,1-.7,1.33,13.07,13.07,0,0,1-1,1.29c-.39.43-.81.86-1.26,1.3l-1.51,1.52v.12h5.12Z" fill="#9160a5"/><path d="M39.3,61.48a13.9,13.9,0,0,1-.24,2.72,6,6,0,0,1-.76,2A3.4,3.4,0,0,1,37,67.5a4.17,4.17,0,0,1-2,.44,4,4,0,0,1-1.9-.44,3.54,3.54,0,0,1-1.34-1.27,6.24,6.24,0,0,1-.8-2,13.08,13.08,0,0,1-.26-2.72,14,14,0,0,1,.24-2.72,6.2,6.2,0,0,1,.75-2A3.54,3.54,0,0,1,33,55.44,4.19,4.19,0,0,1,35,55a3.94,3.94,0,0,1,1.89.44,3.72,3.72,0,0,1,1.35,1.27,6.31,6.31,0,0,1,.81,2A12.49,12.49,0,0,1,39.3,61.48Zm-6,0a10.58,10.58,0,0,0,.37,3.24c.25.72.67,1.08,1.28,1.08a1.36,1.36,0,0,0,1.29-1.07,10.16,10.16,0,0,0,.39-3.25,10.13,10.13,0,0,0-.39-3.24c-.26-.73-.69-1.09-1.29-1.09a1.15,1.15,0,0,0-.77.27,2,2,0,0,0-.51.82,5.48,5.48,0,0,0-.28,1.36A17.29,17.29,0,0,0,33.33,61.48Z" fill="#9160a5"/><path d="M46.86,67.77H44.21V60c0-.21,0-.43,0-.66s0-.45,0-.68,0-.44,0-.63l-.15.16-.23.22-.27.26-.27.23L41.92,60l-1.29-1.6,4-3.22h2.18Z" fill="#9160a5"/><path d="M54.4,55a5.94,5.94,0,0,1,1.48.19,3.92,3.92,0,0,1,1.22.57,2.81,2.81,0,0,1,.83,1,2.7,2.7,0,0,1,.31,1.33,3,3,0,0,1-.17,1,3.24,3.24,0,0,1-.47.83,3.84,3.84,0,0,1-.72.67,7,7,0,0,1-.89.53c.33.18.66.38,1,.59a5.07,5.07,0,0,1,.85.74,3.29,3.29,0,0,1,.59.92,2.71,2.71,0,0,1,.23,1.13,3.32,3.32,0,0,1-.31,1.42A3.24,3.24,0,0,1,57.45,67a4,4,0,0,1-1.34.69,5.79,5.79,0,0,1-1.71.24,6.63,6.63,0,0,1-1.81-.23,4,4,0,0,1-1.33-.66A2.74,2.74,0,0,1,50.44,66a3.38,3.38,0,0,1-.28-1.41,3.25,3.25,0,0,1,.19-1.16,3,3,0,0,1,.51-.93,3.81,3.81,0,0,1,.77-.73,5.83,5.83,0,0,1,.94-.56,6.82,6.82,0,0,1-.8-.58,3.86,3.86,0,0,1-.64-.7,3.13,3.13,0,0,1-.59-1.87,2.65,2.65,0,0,1,.32-1.31,2.83,2.83,0,0,1,.85-.94,3.72,3.72,0,0,1,1.22-.58A5.92,5.92,0,0,1,54.4,55Zm-1.78,9.39a1.69,1.69,0,0,0,.11.64,1.25,1.25,0,0,0,.33.49,1.43,1.43,0,0,0,.55.32,2.15,2.15,0,0,0,.75.12,1.87,1.87,0,0,0,1.35-.43,1.45,1.45,0,0,0,.45-1.12,1.38,1.38,0,0,0-.15-.65,2.2,2.2,0,0,0-.39-.53,3.48,3.48,0,0,0-.54-.45l-.6-.4-.19-.12a4.9,4.9,0,0,0-.68.41,2.76,2.76,0,0,0-.53.48,2.1,2.1,0,0,0-.34.57A1.85,1.85,0,0,0,52.62,64.42ZM54.38,57a1.78,1.78,0,0,0-.53.08,1.27,1.27,0,0,0-.42.25,1.2,1.2,0,0,0-.28.41,1.33,1.33,0,0,0-.1.54,1.46,1.46,0,0,0,.4,1.09,2.22,2.22,0,0,0,.43.36c.16.1.33.21.52.31a5.09,5.09,0,0,0,.5-.3,2.21,2.21,0,0,0,.43-.37,2,2,0,0,0,.3-.48,1.66,1.66,0,0,0,.11-.61,1.33,1.33,0,0,0-.11-.54,1.07,1.07,0,0,0-.28-.41,1.22,1.22,0,0,0-.43-.25A1.91,1.91,0,0,0,54.38,57Z" fill="#9160a5"/><circle cx="40" cy="310" r="23.5" fill="#eee7f2"/><path d="M29.52,316.46H21v-1.87l3-3.21q.57-.6,1-1.11a8.4,8.4,0,0,0,.79-1,4.37,4.37,0,0,0,.51-1,3.24,3.24,0,0,0,.18-1.09,1.31,1.31,0,0,0-.38-1,1.46,1.46,0,0,0-1-.36,2.81,2.81,0,0,0-1.31.34,7.67,7.67,0,0,0-1.33,1L21,305.43c.26-.24.53-.46.81-.68a5.23,5.23,0,0,1,.94-.57,5.29,5.29,0,0,1,1.12-.41,5.83,5.83,0,0,1,1.38-.15,4.89,4.89,0,0,1,1.63.25,3.57,3.57,0,0,1,1.23.72,3,3,0,0,1,.79,1.12,3.86,3.86,0,0,1,.27,1.48,4,4,0,0,1-.26,1.42,6.13,6.13,0,0,1-.71,1.33,12.08,12.08,0,0,1-1,1.3c-.4.43-.82.87-1.27,1.31l-1.52,1.53v.13h5.15Z" fill="#9160a5"/><path d="M39.3,310.13a14.88,14.88,0,0,1-.23,2.73,6,6,0,0,1-.77,2.05A3.6,3.6,0,0,1,37,316.19a4.21,4.21,0,0,1-2,.44,4,4,0,0,1-1.91-.44,3.6,3.6,0,0,1-1.35-1.28,6.06,6.06,0,0,1-.8-2.05,12.49,12.49,0,0,1-.27-2.73,14.11,14.11,0,0,1,.24-2.74,6.1,6.1,0,0,1,.76-2.06A3.57,3.57,0,0,1,33,304.05a4.09,4.09,0,0,1,2-.45,3.84,3.84,0,0,1,1.9.45,3.62,3.62,0,0,1,1.36,1.28,6.07,6.07,0,0,1,.82,2.05A13.38,13.38,0,0,1,39.3,310.13Zm-6,0a10.61,10.61,0,0,0,.37,3.25A1.34,1.34,0,0,0,35,314.47a1.36,1.36,0,0,0,1.29-1.08,9.89,9.89,0,0,0,.4-3.26,10,10,0,0,0-.4-3.27c-.26-.73-.69-1.09-1.29-1.09a1.17,1.17,0,0,0-.78.27,2,2,0,0,0-.51.83,5.93,5.93,0,0,0-.29,1.36C33.33,308.77,33.3,309.41,33.3,310.13Z" fill="#9160a5"/><path d="M49.07,310.13a14,14,0,0,1-.24,2.73,6.26,6.26,0,0,1-.76,2.05,3.6,3.6,0,0,1-1.35,1.28,4.28,4.28,0,0,1-2,.44,4,4,0,0,1-1.91-.44,3.75,3.75,0,0,1-1.35-1.28,6.06,6.06,0,0,1-.8-2.05,12.49,12.49,0,0,1-.27-2.73,14.11,14.11,0,0,1,.24-2.74,6.1,6.1,0,0,1,.76-2.06,3.65,3.65,0,0,1,1.34-1.28,4.09,4.09,0,0,1,2-.45,3.84,3.84,0,0,1,1.9.45A3.62,3.62,0,0,1,48,305.33a6.07,6.07,0,0,1,.82,2.05A12.69,12.69,0,0,1,49.07,310.13Zm-6,0a10.61,10.61,0,0,0,.37,3.25,1.34,1.34,0,0,0,1.29,1.09A1.36,1.36,0,0,0,46,313.39a9.89,9.89,0,0,0,.4-3.26,10,10,0,0,0-.4-3.27c-.26-.73-.69-1.09-1.29-1.09A1.13,1.13,0,0,0,44,306a2,2,0,0,0-.52.83,5.48,5.48,0,0,0-.28,1.36A17.55,17.55,0,0,0,43.06,310.13Z" fill="#9160a5"/><path d="M59,313.83H57.48v2.63H54.87v-2.63H49.64V312L55,303.8h2.46v8H59Zm-4.13-2.07v-2.15c0-.07,0-.18,0-.32s0-.31,0-.48,0-.37,0-.56l0-.54c0-.18,0-.33,0-.46s0-.22,0-.28h-.07c-.11.24-.22.5-.35.77a8.19,8.19,0,0,1-.45.81L52,311.76Z" fill="#9160a5"/></svg>