<svg xmlns="http://www.w3.org/2000/svg" width="750" height="1180" viewBox="0 0 750 1180"><title>banner-safe-750x1180-grey</title><g id="Layer_4" data-name="Layer 4"><rect x="-4" y="-113" width="2305" height="1297" fill="#333332"/><line x1="546.1" y1="361.5" x2="876" y2="696.5" fill="none" stroke="#4d4d4d" stroke-miterlimit="10"/><line x1="534.1" y1="382.3" x2="1055.9" y2="462.4" fill="none" stroke="#4d4d4d" stroke-miterlimit="10"/><line x1="583.5" y1="225.5" x2="1927.4" y2="693.3" fill="none" stroke="#4d4d4d" stroke-miterlimit="10"/><line x1="583.5" y1="249.5" x2="1926.3" y2="0.4" fill="none" stroke="#4d4d4d" stroke-miterlimit="10"/><line x1="82.8" y1="382.3" x2="-2" y2="407.2" fill="none" stroke="#4d4d4d" stroke-miterlimit="10"/><line x1="70.8" y1="361.5" x2="-2" y2="429.4" fill="none" stroke="#4d4d4d" stroke-miterlimit="10"/><line x1="31.5" y1="249.1" x2="-2" y2="239.7" fill="none" stroke="#4d4d4d" stroke-miterlimit="10"/><line x1="31.5" y1="225.1" x2="-2" y2="237.1" fill="none" stroke="#4d4d4d" stroke-miterlimit="10"/><line x1="546.1" y1="114.8" x2="717.3" y2="-48.6" fill="none" stroke="#4d4d4d" stroke-miterlimit="10"/><line x1="534.1" y1="94" x2="935" y2="-49.5" fill="none" stroke="#4d4d4d" stroke-miterlimit="10"/><line x1="452.6" y1="12.5" x2="468.6" y2="-49" fill="none" stroke="#4d4d4d" stroke-miterlimit="10"/><line x1="431.8" y1="0.5" x2="485" y2="-49" fill="none" stroke="#4d4d4d" stroke-miterlimit="10"/><line x1="185.1" y1="0.5" x2="141.5" y2="-48.6" fill="none" stroke="#4d4d4d" stroke-miterlimit="10"/><line x1="164.3" y1="12.5" x2="151.1" y2="-49" fill="none" stroke="#4d4d4d" stroke-miterlimit="10"/><line x1="82.8" y1="94" x2="-2.2" y2="75.3" fill="none" stroke="#4d4d4d" stroke-miterlimit="10"/><line x1="70.8" y1="114.8" x2="-3.7" y2="47.7" fill="none" stroke="#4d4d4d" stroke-miterlimit="10"/><path d="M296.5,489.8A250.4,250.4,0,0,1,193,462.2" fill="none" stroke="#4d4d4d" stroke-miterlimit="10"/><path d="M423.8,462a250.4,250.4,0,0,1-103.3,27.7" fill="none" stroke="#4d4d4d" stroke-miterlimit="10"/><path d="M520,374.6A253.2,253.2,0,0,1,444.6,450" fill="none" stroke="#4d4d4d" stroke-miterlimit="10"/><path d="M559.9,249a250.5,250.5,0,0,1-27.7,104.5" fill="none" stroke="#4d4d4d" stroke-miterlimit="10"/><path d="M532.2,122.9a250.4,250.4,0,0,1,27.6,102.2" fill="none" stroke="#4d4d4d" stroke-miterlimit="10"/><path d="M444.7,26.4a253.2,253.2,0,0,1,75.5,75.6" fill="none" stroke="#4d4d4d" stroke-miterlimit="10"/><path d="M320.6-13.4A250.4,250.4,0,0,1,423.8,14.4" fill="none" stroke="#4d4d4d" stroke-miterlimit="10"/><path d="M193,14.2A250.4,250.4,0,0,1,296.3-13.4" fill="none" stroke="#4d4d4d" stroke-miterlimit="10"/><path d="M96.4,101.9a253.2,253.2,0,0,1,75.8-75.7" fill="none" stroke="#4d4d4d" stroke-miterlimit="10"/><path d="M56.7,225.3A250.4,250.4,0,0,1,84.4,122.7" fill="none" stroke="#4d4d4d" stroke-miterlimit="10"/><path d="M84.4,353.7A250.5,250.5,0,0,1,56.6,249.5" fill="none" stroke="#4d4d4d" stroke-miterlimit="10"/><path d="M172.2,450.2a253.2,253.2,0,0,1-75.7-75.5" fill="none" stroke="#4d4d4d" stroke-miterlimit="10"/><path d="M112.2,338.2a218.8,218.8,0,0,1-23.7-88.7" fill="none" stroke="#4d4d4d" stroke-miterlimit="10"/><path d="M188.2,422.5a221.2,221.2,0,0,1-64.1-64" fill="none" stroke="#4d4d4d" stroke-miterlimit="10"/><path d="M296.5,457.9a218.8,218.8,0,0,1-87.6-23.3" fill="none" stroke="#4d4d4d" stroke-miterlimit="10"/><path d="M407.9,434.4a218.7,218.7,0,0,1-87.4,23.5" fill="none" stroke="#4d4d4d" stroke-miterlimit="10"/><path d="M492.6,358.3a221.2,221.2,0,0,1-63.9,64" fill="none" stroke="#4d4d4d" stroke-miterlimit="10"/><path d="M528,249.1a218.8,218.8,0,0,1-23.4,88.5" fill="none" stroke="#4d4d4d" stroke-miterlimit="10"/><path d="M504.6,138.8a218.7,218.7,0,0,1,23.3,86.3" fill="none" stroke="#4d4d4d" stroke-miterlimit="10"/><path d="M428.6,54a221.2,221.2,0,0,1,63.9,64" fill="none" stroke="#4d4d4d" stroke-miterlimit="10"/><path d="M320.6,18.5A218.7,218.7,0,0,1,407.9,42" fill="none" stroke="#4d4d4d" stroke-miterlimit="10"/><path d="M208.9,41.8a218.8,218.8,0,0,1,87.6-23.3" fill="none" stroke="#4d4d4d" stroke-miterlimit="10"/><path d="M124,117.8a221.2,221.2,0,0,1,64.1-64" fill="none" stroke="#4d4d4d" stroke-miterlimit="10"/><path d="M88.6,225.1A218.7,218.7,0,0,1,112,138.6" fill="none" stroke="#4d4d4d" stroke-miterlimit="10"/><line x1="443.8" y1="173.9" x2="372.9" y2="214.8" fill="none" stroke="#4d4d4d" stroke-miterlimit="10"/><polyline points="460.2 136.7 534.1 94 546.1 114.8 472.5 157.3" fill="none" stroke="#4d4d4d" stroke-miterlimit="10"/><line x1="360.9" y1="194" x2="432.1" y2="152.9" fill="none" stroke="#4d4d4d" stroke-miterlimit="10"/><line x1="172.8" y1="302.7" x2="244" y2="261.5" fill="none" stroke="#4d4d4d" stroke-miterlimit="10"/><polyline points="156.4 339.8 82.8 382.3 70.8 361.5 144.4 319" fill="none" stroke="#4d4d4d" stroke-miterlimit="10"/><line x1="256" y1="282.3" x2="184.7" y2="323.5" fill="none" stroke="#4d4d4d" stroke-miterlimit="10"/><line x1="372.8" y1="373.6" x2="331.8" y2="302.6" fill="none" stroke="#4d4d4d" stroke-miterlimit="10"/><polyline points="410.3 390.5 452.6 463.8 431.8 475.8 389.4 402.4" fill="none" stroke="#4d4d4d" stroke-miterlimit="10"/><line x1="352.6" y1="290.6" x2="393.6" y2="361.6" fill="none" stroke="#4d4d4d" stroke-miterlimit="10"/><line x1="244.1" y1="102.7" x2="285.1" y2="173.7" fill="none" stroke="#4d4d4d" stroke-miterlimit="10"/><polyline points="206.9 86.2 164.3 12.5 185.1 0.5 227.7 74.2" fill="none" stroke="#4d4d4d" stroke-miterlimit="10"/><line x1="264.3" y1="185.7" x2="223.2" y2="114.6" fill="none" stroke="#4d4d4d" stroke-miterlimit="10"/><line x1="431.8" y1="323.2" x2="360.9" y2="282.3" fill="none" stroke="#4d4d4d" stroke-miterlimit="10"/><polyline points="472.1 318.8 546.1 361.5 534.1 382.3 460.2 339.6" fill="none" stroke="#4d4d4d" stroke-miterlimit="10"/><line x1="372.9" y1="261.5" x2="443.8" y2="302.5" fill="none" stroke="#4d4d4d" stroke-miterlimit="10"/><line x1="184.8" y1="152.9" x2="256" y2="194" fill="none" stroke="#4d4d4d" stroke-miterlimit="10"/><polyline points="144.4 157.3 70.8 114.8 82.8 94 156.4 136.5" fill="none" stroke="#4d4d4d" stroke-miterlimit="10"/><line x1="244" y1="214.8" x2="172.8" y2="173.7" fill="none" stroke="#4d4d4d" stroke-miterlimit="10"/><line x1="223.2" y1="361.8" x2="264.3" y2="290.6" fill="none" stroke="#4d4d4d" stroke-miterlimit="10"/><polyline points="227.7 402.1 185.1 475.8 164.3 463.8 206.9 390.1" fill="none" stroke="#4d4d4d" stroke-miterlimit="10"/><line x1="285.1" y1="302.6" x2="244.1" y2="373.6" fill="none" stroke="#4d4d4d" stroke-miterlimit="10"/><line x1="393.7" y1="114.6" x2="352.6" y2="185.7" fill="none" stroke="#4d4d4d" stroke-miterlimit="10"/><polyline points="389.2 74.4 431.8 0.5 452.6 12.5 409.9 86.4" fill="none" stroke="#4d4d4d" stroke-miterlimit="10"/><line x1="331.8" y1="173.7" x2="372.8" y2="102.7" fill="none" stroke="#4d4d4d" stroke-miterlimit="10"/><circle cx="308.2" cy="238.2" r="182.7" fill="none" stroke="#4d4d4d" stroke-miterlimit="10"/><path d="M218.9,59.2a198.8,198.8,0,0,1,77.4-20.7" fill="none" stroke="#4d4d4d" stroke-miterlimit="10"/><path d="M141.4,127.9a201.1,201.1,0,0,1,56.8-56.7" fill="none" stroke="#4d4d4d" stroke-miterlimit="10"/><path d="M108.7,225.1A198.8,198.8,0,0,1,129,149.3" fill="none" stroke="#4d4d4d" stroke-miterlimit="10"/><path d="M129,327a198.9,198.9,0,0,1-20.5-78" fill="none" stroke="#4d4d4d" stroke-miterlimit="10"/><path d="M198.2,405.2a201.1,201.1,0,0,1-56.8-56.7" fill="none" stroke="#4d4d4d" stroke-miterlimit="10"/><path d="M296.6,437.8A198.8,198.8,0,0,1,219,417.2" fill="none" stroke="#4d4d4d" stroke-miterlimit="10"/><path d="M397.9,417a198.8,198.8,0,0,1-77.3,20.8" fill="none" stroke="#4d4d4d" stroke-miterlimit="10"/><path d="M475.2,348.3A201.1,201.1,0,0,1,418.6,405" fill="none" stroke="#4d4d4d" stroke-miterlimit="10"/><path d="M507.9,249.5a198.9,198.9,0,0,1-20.9,78.4" fill="none" stroke="#4d4d4d" stroke-miterlimit="10"/><path d="M487.5,149.3a198.8,198.8,0,0,1,20.3,75.7" fill="none" stroke="#4d4d4d" stroke-miterlimit="10"/><path d="M418.6,71.4A201.1,201.1,0,0,1,475.2,128" fill="none" stroke="#4d4d4d" stroke-miterlimit="10"/><path d="M320.6,38.6a198.8,198.8,0,0,1,77.3,20.8" fill="none" stroke="#4d4d4d" stroke-miterlimit="10"/><circle cx="308.2" cy="238.2" r="182.7" fill="none" stroke="#4d4d4d" stroke-miterlimit="10"/><circle cx="308.2" cy="238.2" r="150" fill="none" stroke="#4d4d4d" stroke-miterlimit="10"/><path d="M386.8,126a137.8,137.8,0,0,1,34,34.2" fill="none" stroke="#4d4d4d" stroke-miterlimit="10"/><circle cx="308.2" cy="238.2" r="150" fill="none" stroke="#4d4d4d" stroke-miterlimit="10"/><path d="M171.8,225.3a136.1,136.1,0,0,1,12.2-45.1" fill="none" stroke="#4d4d4d" stroke-miterlimit="10"/><path d="M184.1,296.1a136.1,136.1,0,0,1-12.3-46.6" fill="none" stroke="#4d4d4d" stroke-miterlimit="10"/><path d="M229.8,350.5a137.8,137.8,0,0,1-33.7-33.6" fill="none" stroke="#4d4d4d" stroke-miterlimit="10"/><path d="M296.6,374.7a136.1,136.1,0,0,1-45.5-11.9" fill="none" stroke="#4d4d4d" stroke-miterlimit="10"/><path d="M366.2,362.3a136.1,136.1,0,0,1-45.6,12.3" fill="none" stroke="#4d4d4d" stroke-miterlimit="10"/><path d="M420.3,317A137.8,137.8,0,0,1,387,350.3" fill="none" stroke="#4d4d4d" stroke-miterlimit="10"/><path d="M444.8,249a136.2,136.2,0,0,1-12.3,46.9" fill="none" stroke="#4d4d4d" stroke-miterlimit="10"/><path d="M433,181.5a136.1,136.1,0,0,1,11.7,44.2" fill="none" stroke="#4d4d4d" stroke-miterlimit="10"/><path d="M320.6,101.7a136.1,136.1,0,0,1,46.1,12.5" fill="none" stroke="#4d4d4d" stroke-miterlimit="10"/><path d="M250.9,113.7a136.1,136.1,0,0,1,45.3-12" fill="none" stroke="#4d4d4d" stroke-miterlimit="10"/><path d="M196.3,159.1a137.8,137.8,0,0,1,33.4-33.2" fill="none" stroke="#4d4d4d" stroke-miterlimit="10"/><path d="M239.9,233.8a68.1,68.1,0,0,1,7-26" fill="none" stroke="#4d4d4d" stroke-miterlimit="10"/><path d="M246.8,268.6a68.1,68.1,0,0,1-6.9-25.8" fill="none" stroke="#4d4d4d" stroke-miterlimit="10"/><path d="M270.3,295.2a68.9,68.9,0,0,1-19-18.9" fill="none" stroke="#4d4d4d" stroke-miterlimit="10"/><path d="M304.1,306.6a68.1,68.1,0,0,1-26-6.8" fill="none" stroke="#4d4d4d" stroke-miterlimit="10"/><path d="M338.7,299.5a68.1,68.1,0,0,1-25.1,6.9" fill="none" stroke="#4d4d4d" stroke-miterlimit="10"/><path d="M365.3,276.1A68.9,68.9,0,0,1,346.5,295" fill="none" stroke="#4d4d4d" stroke-miterlimit="10"/><path d="M376.6,242.4a68.1,68.1,0,0,1-6.9,26" fill="none" stroke="#4d4d4d" stroke-miterlimit="10"/><path d="M370,208.5a68.1,68.1,0,0,1,6.6,25.3" fill="none" stroke="#4d4d4d" stroke-miterlimit="10"/><path d="M346.5,181.3a68.9,68.9,0,0,1,18.8,18.9" fill="none" stroke="#4d4d4d" stroke-miterlimit="10"/><path d="M312.8,169.8a68.1,68.1,0,0,1,25.9,7" fill="none" stroke="#4d4d4d" stroke-miterlimit="10"/><path d="M278.1,176.6a68.1,68.1,0,0,1,25.7-6.8" fill="none" stroke="#4d4d4d" stroke-miterlimit="10"/><path d="M251.3,200a68.9,68.9,0,0,1,19-18.9" fill="none" stroke="#4d4d4d" stroke-miterlimit="10"/><path d="M312.8,163.3a74.6,74.6,0,0,1,29.3,7.9" fill="none" stroke="#4d4d4d" stroke-miterlimit="10"/><path d="M274.9,171a74.6,74.6,0,0,1,29.3-7.7" fill="none" stroke="#4d4d4d" stroke-miterlimit="10"/><path d="M245.7,196.8a75.4,75.4,0,0,1,21.4-21.3" fill="none" stroke="#4d4d4d" stroke-miterlimit="10"/><path d="M233.4,233.8a74.6,74.6,0,0,1,7.9-29.4" fill="none" stroke="#4d4d4d" stroke-miterlimit="10"/><path d="M241.3,272.1a74.6,74.6,0,0,1-8-29.3" fill="none" stroke="#4d4d4d" stroke-miterlimit="10"/><path d="M267.1,300.9A75.4,75.4,0,0,1,245.9,280" fill="none" stroke="#4d4d4d" stroke-miterlimit="10"/><path d="M304.1,313.1a74.6,74.6,0,0,1-29.3-7.7" fill="none" stroke="#4d4d4d" stroke-miterlimit="10"/><path d="M342,305.2a74.6,74.6,0,0,1-28.9,7.8" fill="none" stroke="#4d4d4d" stroke-miterlimit="10"/><path d="M370.9,279.4a75.4,75.4,0,0,1-21.2,21.3" fill="none" stroke="#4d4d4d" stroke-miterlimit="10"/><path d="M383.1,242.4a74.6,74.6,0,0,1-7.7,29.3" fill="none" stroke="#4d4d4d" stroke-miterlimit="10"/><path d="M375.3,204.6a74.6,74.6,0,0,1,7.8,28.7" fill="none" stroke="#4d4d4d" stroke-miterlimit="10"/><path d="M349.7,175.7A75.4,75.4,0,0,1,371,197.1" fill="none" stroke="#4d4d4d" stroke-miterlimit="10"/><path d="M249.7,266.4a64.6,64.6,0,0,1-6.3-23.6" fill="none" stroke="#4d4d4d" stroke-miterlimit="10"/><path d="M272.1,292.2a65.4,65.4,0,0,1-17.7-17.6" fill="none" stroke="#4d4d4d" stroke-miterlimit="10"/><path d="M303.9,303a64.6,64.6,0,0,1-24-6.4" fill="none" stroke="#4d4d4d" stroke-miterlimit="10"/><path d="M337,296.5a64.6,64.6,0,0,1-23.9,6.5" fill="none" stroke="#4d4d4d" stroke-miterlimit="10"/><path d="M362.2,274.4A65.4,65.4,0,0,1,344.7,292" fill="none" stroke="#4d4d4d" stroke-miterlimit="10"/><path d="M373.1,242.6a64.6,64.6,0,0,1-6.2,23.8" fill="none" stroke="#4d4d4d" stroke-miterlimit="10"/><path d="M366.7,209.7a64.6,64.6,0,0,1,6.4,23.8" fill="none" stroke="#4d4d4d" stroke-miterlimit="10"/><path d="M344.7,184.4A65.4,65.4,0,0,1,362.2,202" fill="none" stroke="#4d4d4d" stroke-miterlimit="10"/><path d="M312.6,173.3a64.6,64.6,0,0,1,24.3,6.5" fill="none" stroke="#4d4d4d" stroke-miterlimit="10"/><path d="M279.9,179.7a64.6,64.6,0,0,1,24-6.4" fill="none" stroke="#4d4d4d" stroke-miterlimit="10"/><path d="M254.4,201.8a65.4,65.4,0,0,1,17.7-17.6" fill="none" stroke="#4d4d4d" stroke-miterlimit="10"/><path d="M243.4,233.8a64.6,64.6,0,0,1,6.5-24.3" fill="none" stroke="#4d4d4d" stroke-miterlimit="10"/><rect x="325.3" y="202.4" width="74.8" height="8.97" transform="translate(780.2 204.7) rotate(150)" fill="none" stroke="#4d4d4d" stroke-miterlimit="10"/><rect x="216.8" y="265" width="74.8" height="8.97" transform="translate(609.1 375.8) rotate(150)" fill="none" stroke="#4d4d4d" stroke-miterlimit="10"/><rect x="302.4" y="287.9" width="74.8" height="8.97" transform="translate(256.4 732.9) rotate(-120)" fill="none" stroke="#4d4d4d" stroke-miterlimit="10"/><rect x="239.8" y="179.5" width="74.8" height="8.97" transform="translate(256.4 515.9) rotate(-120)" fill="none" stroke="#4d4d4d" stroke-miterlimit="10"/><rect x="325.3" y="265" width="74.8" height="8.97" transform="translate(542 684.2) rotate(-150)" fill="none" stroke="#4d4d4d" stroke-miterlimit="10"/><rect x="216.8" y="202.4" width="74.8" height="8.97" transform="translate(371 513.1) rotate(-150)" fill="none" stroke="#4d4d4d" stroke-miterlimit="10"/><rect x="239.8" y="287.9" width="74.8" height="8.97" transform="translate(-114.7 386.2) rotate(-60)" fill="none" stroke="#4d4d4d" stroke-miterlimit="10"/><rect x="302.4" y="179.5" width="74.8" height="8.97" transform="translate(10.6 386.2) rotate(-60)" fill="none" stroke="#4d4d4d" stroke-miterlimit="10"/><circle cx="79.8" cy="177.5" r="7.1" fill="none" stroke="#4d4d4d" stroke-miterlimit="10"/><circle cx="370.4" cy="11.1" r="7.1" fill="none" stroke="#4d4d4d" stroke-miterlimit="10"/><circle cx="246.1" cy="468" r="7.1" fill="none" stroke="#4d4d4d" stroke-miterlimit="10"/><circle cx="475" cy="407.6" r="7.1" transform="translate(-115.5 615.2) rotate(-60)" fill="none" stroke="#4d4d4d" stroke-miterlimit="10"/><circle cx="141.5" cy="71.6" r="7.1" transform="translate(8.8 158.3) rotate(-60)" fill="none" stroke="#4d4d4d" stroke-miterlimit="10"/><circle cx="476.3" cy="72.8" r="7.1" transform="translate(175.1 448.9) rotate(-60)" fill="none" stroke="#4d4d4d" stroke-miterlimit="10"/><circle cx="140.2" cy="406.4" r="7.1" transform="translate(-281.8 324.6) rotate(-60)" fill="none" stroke="#4d4d4d" stroke-miterlimit="10"/><circle cx="79.3" cy="300" r="7.1" transform="translate(-139.4 79.9) rotate(-30)" fill="none" stroke="#4d4d4d" stroke-miterlimit="10"/><circle cx="247.8" cy="10.7" r="7.1" transform="translate(27.9 125.3) rotate(-30)" fill="none" stroke="#4d4d4d" stroke-miterlimit="10"/><circle cx="368.7" cy="468.5" r="7.1" transform="translate(-184.9 247.1) rotate(-30)" fill="none" stroke="#4d4d4d" stroke-miterlimit="10"/><circle cx="536.7" cy="301.7" r="7.1" fill="none" stroke="#4d4d4d" stroke-miterlimit="10"/><circle cx="537.1" cy="179.2" r="7.1" transform="translate(-17.6 292.6) rotate(-30)" fill="none" stroke="#4d4d4d" stroke-miterlimit="10"/><circle cx="692.4" cy="287.8" r="6.8" transform="translate(194.3 848.3) rotate(-70.9)" fill="none" stroke="#4d4d4d" stroke-miterlimit="10"/><circle cx="724.8" cy="299" r="6.8" transform="translate(205.5 886.5) rotate(-70.9)" fill="none" stroke="#4d4d4d" stroke-miterlimit="10"/><circle cx="624.4" cy="264.3" r="6.8" transform="translate(170.7 768.2) rotate(-70.9)" fill="none" stroke="#4d4d4d" stroke-miterlimit="10"/><circle cx="658" cy="276" r="6.8" transform="translate(182.3 807.8) rotate(-70.9)" fill="none" stroke="#4d4d4d" stroke-miterlimit="10"/><line x1="164.3" y1="463.8" x2="72.5" y2="787.5" fill="none" stroke="#4d4d4d" stroke-miterlimit="10"/><line x1="185.1" y1="475.8" x2="-2.2" y2="650.6" fill="none" stroke="#4d4d4d" stroke-miterlimit="10"/><line x1="431.8" y1="475.8" x2="658.5" y2="678.5" fill="none" stroke="#4d4d4d" stroke-miterlimit="10"/><line x1="452.6" y1="463.8" x2="520.5" y2="704.5" fill="none" stroke="#4d4d4d" stroke-miterlimit="10"/><line x1="296.5" y1="513.7" x2="354.5" y2="735.5" fill="none" stroke="#4d4d4d" stroke-miterlimit="10"/><line x1="320.5" y1="513.7" x2="260.5" y2="752.5" fill="none" stroke="#4d4d4d" stroke-miterlimit="10"/><line x1="1009.6" y1="455.7" x2="708.5" y2="527.7" fill="none" stroke="#4d4d4d" stroke-miterlimit="10"/><line x1="320.5" y1="89" x2="320.5" y2="170" fill="none" stroke="#4d4d4d" stroke-miterlimit="10"/><polyline points="296.5 56 296.5 -38.5 320.5 -38.5 320.5 56" fill="none" stroke="#4d4d4d" stroke-miterlimit="10"/><line x1="296.5" y1="170" x2="296.5" y2="88" fill="none" stroke="#4d4d4d" stroke-miterlimit="10"/><line x1="296.5" y1="388" x2="296.5" y2="305" fill="none" stroke="#4d4d4d" stroke-miterlimit="10"/><polyline points="320.5 421 320.5 514.5 296.5 514.5 296.5 420" fill="none" stroke="#4d4d4d" stroke-miterlimit="10"/><line x1="320.5" y1="305" x2="320.5" y2="388" fill="none" stroke="#4d4d4d" stroke-miterlimit="10"/><polyline points="458 249.5 443.8 249.5 375 249.5" fill="none" stroke="#4d4d4d" stroke-miterlimit="10"/><polyline points="491 225.5 583.5 225.5 583.5 249.5 491 249.5" fill="none" stroke="#4d4d4d" stroke-miterlimit="10"/><line x1="375" y1="225.5" x2="458" y2="225.5" fill="none" stroke="#4d4d4d" stroke-miterlimit="10"/><line x1="159" y1="225.5" x2="240" y2="225.5" fill="none" stroke="#4d4d4d" stroke-miterlimit="10"/><polyline points="126 249.5 31.5 249.5 31.5 225.5 126 225.5" fill="none" stroke="#4d4d4d" stroke-miterlimit="10"/><line x1="240" y1="249.5" x2="159" y2="249.5" fill="none" stroke="#4d4d4d" stroke-miterlimit="10"/><rect x="271.2" y="296.3" width="74.8" height="8.97" transform="translate(8.3 609.9) rotate(-90.1)" fill="none" stroke="#4d4d4d" stroke-miterlimit="10"/><rect x="271" y="171.1" width="74.8" height="8.97" transform="translate(133.3 484.2) rotate(-90.1)" fill="none" stroke="#4d4d4d" stroke-miterlimit="10"/><rect x="208.5" y="233.8" width="74.8" height="8.97" transform="translate(-0.4 0.4) rotate(-0.1)" fill="none" stroke="#4d4d4d" stroke-miterlimit="10"/><rect x="333.7" y="233.6" width="74.8" height="8.97" transform="translate(-0.4 0.6) rotate(-0.1)" fill="none" stroke="#4d4d4d" stroke-miterlimit="10"/><circle cx="308.6" cy="238.1" r="25.6" fill="none" stroke="#4d4d4d" stroke-miterlimit="10"/><rect x="325.3" y="202.4" width="74.8" height="8.97" transform="translate(780.2 204.7) rotate(150)" fill="none" stroke="#4d4d4d" stroke-miterlimit="10"/><rect x="216.8" y="265" width="74.8" height="8.97" transform="translate(609.1 375.8) rotate(150)" fill="none" stroke="#4d4d4d" stroke-miterlimit="10"/><polygon points="325 257.8 362.3 322.5 354.6 327 336.7 296 317.2 262.3 325 257.8" fill="none" stroke="#4d4d4d" stroke-miterlimit="10"/><rect x="239.8" y="179.5" width="74.8" height="8.97" transform="translate(256.4 515.9) rotate(-120)" fill="none" stroke="#4d4d4d" stroke-miterlimit="10"/><rect x="325.3" y="265" width="74.8" height="8.97" transform="translate(542 684.2) rotate(-150)" fill="none" stroke="#4d4d4d" stroke-miterlimit="10"/><rect x="216.8" y="202.4" width="74.8" height="8.97" transform="translate(371 513.1) rotate(-150)" fill="none" stroke="#4d4d4d" stroke-miterlimit="10"/><rect x="239.8" y="287.9" width="74.8" height="8.97" transform="translate(-114.7 386.2) rotate(-60)" fill="none" stroke="#4d4d4d" stroke-miterlimit="10"/><polygon points="362.3 153.8 346.5 181.3 325 218.6 317.2 214.1 338.7 176.8 354.6 149.3 362.3 153.8" fill="none" stroke="#4d4d4d" stroke-miterlimit="10"/><polygon points="313 263.4 313.1 303 313.1 338.2 304.1 338.2 304 263.4 313 263.4" fill="none" stroke="#4d4d4d" stroke-miterlimit="10"/><polygon points="312.8 138.2 312.8 169.7 312.9 212.9 303.9 213 303.8 138.2 312.8 138.2" fill="none" stroke="#4d4d4d" stroke-miterlimit="10"/><rect x="208.5" y="233.8" width="74.8" height="8.97" transform="translate(-0.4 0.4) rotate(-0.1)" fill="none" stroke="#4d4d4d" stroke-miterlimit="10"/><rect x="333.7" y="233.6" width="74.8" height="8.97" transform="translate(-0.4 0.6) rotate(-0.1)" fill="none" stroke="#4d4d4d" stroke-miterlimit="10"/><circle cx="308.6" cy="238.1" r="25.6" fill="none" stroke="#4d4d4d" stroke-miterlimit="10"/><circle cx="308.6" cy="238.1" r="15" fill="none" stroke="#4d4d4d" stroke-miterlimit="10"/></g><g id="Layer_13" data-name="Layer 13"><line x1="-3.5" y1="801.5" x2="750.5" y2="661.5" fill="none" stroke="#4d4d4d" stroke-miterlimit="10"/><line x1="401.7" y1="1181.4" x2="-8.5" y2="550.5" fill="none" stroke="#4d4d4d" stroke-miterlimit="10"/><circle cx="282.6" cy="1025" r="6.8" transform="translate(-518.6 326.1) rotate(-33.5)" fill="none" stroke="#4d4d4d" stroke-miterlimit="10"/><circle cx="223.8" cy="936.1" r="6.8" transform="translate(-479.3 278.8) rotate(-33.5)" fill="none" stroke="#4d4d4d" stroke-miterlimit="10"/><circle cx="242.7" cy="964.6" r="6.8" transform="matrix(0.83, -0.55, 0.55, 0.83, -491.94, 293.99)" fill="none" stroke="#4d4d4d" stroke-miterlimit="10"/><circle cx="262.3" cy="994.3" r="6.8" transform="translate(-505 309.7) rotate(-33.5)" fill="none" stroke="#4d4d4d" stroke-miterlimit="10"/><circle cx="711.6" cy="904.6" r="6.8" transform="translate(-290.7 1470.4) rotate(-81.3)" fill="none" stroke="#4d4d4d" stroke-miterlimit="10"/><circle cx="717.1" cy="869.1" r="6.8" transform="translate(-251 1445.7) rotate(-81.3)" fill="none" stroke="#4d4d4d" stroke-miterlimit="10"/><circle cx="722.8" cy="831.9" r="6.8" transform="translate(-209.3 1419.8) rotate(-81.3)" fill="none" stroke="#4d4d4d" stroke-miterlimit="10"/><circle cx="691.7" cy="1021" r="6.8" transform="translate(-422.5 1549.5) rotate(-81.3)" fill="none" stroke="#4d4d4d" stroke-miterlimit="10"/><circle cx="698.8" cy="981.5" r="6.8" transform="translate(-377.5 1522.9) rotate(-81.3)" fill="none" stroke="#4d4d4d" stroke-miterlimit="10"/><circle cx="704.5" cy="944.2" r="6.8" transform="translate(-335.8 1497) rotate(-81.3)" fill="none" stroke="#4d4d4d" stroke-miterlimit="10"/><path d="M568.8,901.6l2.7.3a14,14,0,0,0,.7,3l-2.3,1.6a.8.8,0,0,0,.7,1.4l2.6-.8a14.1,14.1,0,0,0,1.8,2.5l-1.5,2.3a.8.8,0,0,0,1.2,1.1l2.1-1.7a14.1,14.1,0,0,0,2.7,1.6l-.5,2.7a.8.8,0,0,0,1.5.5l1.3-2.4a14,14,0,0,0,3.1.5l.5,2.7a.8.8,0,0,0,1.6-.1l.3-2.8a14,14,0,0,0,3-.7l1.5,2.3a.8.8,0,0,0,1.4-.7l-.8-2.7a14.1,14.1,0,0,0,2.5-1.8l2.3,1.6a.8.8,0,0,0,1.1-1.2l-1.8-2.2a14.1,14.1,0,0,0,1.6-2.6l2.8.6a.8.8,0,0,0,.5-1.5l-2.5-1.4a14,14,0,0,0,.4-3l2.8-.5a.8.8,0,0,0-.1-1.6l-2.9-.3a14,14,0,0,0-.7-3l2.4-1.6a.8.8,0,0,0-.7-1.5l-2.8.8a14.1,14.1,0,0,0-1.8-2.5l1.6-2.5a.8.8,0,0,0-1.2-1.1l-2.2,1.8a14.1,14.1,0,0,0-2.6-1.5l.5-2.9a.8.8,0,0,0-1.5-.5l-1.4,2.5a14,14,0,0,0-3-.4l-.6-2.8a.8.8,0,0,0-1.6.1l-.3,2.8a14,14,0,0,0-3,.7l-1.6-2.3a.8.8,0,0,0-1.4.7l.8,2.7a14.1,14.1,0,0,0-2.5,1.8l-2.4-1.5a.8.8,0,0,0-1.1,1.2l1.8,2.2a14.1,14.1,0,0,0-1.6,2.6l-2.8-.5a.8.8,0,0,0-.5,1.5l2.4,1.3a14,14,0,0,0-.5,3.1l-2.7.6A.8.8,0,0,0,568.8,901.6Z" fill="none" stroke="#4d4d4d" stroke-miterlimit="10"/><circle cx="585.6" cy="900" r="11.7" transform="translate(-37.8 25.8) rotate(-2.4)" fill="none" stroke="#4d4d4d" stroke-miterlimit="10"/><circle cx="585.6" cy="900" r="3.3" transform="translate(-37.8 25.8) rotate(-2.4)" fill="none" stroke="#4d4d4d" stroke-miterlimit="10"/><path d="M357,942.7l2.7.5a14,14,0,0,0,.5,3.1l-2.4,1.4a.8.8,0,0,0,.6,1.5l2.7-.6a14.1,14.1,0,0,0,1.6,2.6l-1.7,2.2a.8.8,0,0,0,1.1,1.2l2.3-1.6a14.1,14.1,0,0,0,2.5,1.8l-.7,2.6a.8.8,0,0,0,1.5.7l1.5-2.3a14,14,0,0,0,3.1.7l.3,2.7a.8.8,0,0,0,1.6.1l.5-2.7a14,14,0,0,0,3.1-.5l1.4,2.4a.8.8,0,0,0,1.5-.6l-.6-2.7a14.1,14.1,0,0,0,2.6-1.6l2.2,1.8a.8.8,0,0,0,1.2-1.1l-1.6-2.3a14.1,14.1,0,0,0,1.8-2.5l2.7.8a.8.8,0,0,0,.7-1.5l-2.4-1.6a14,14,0,0,0,.7-3l2.9-.3a.8.8,0,0,0,.1-1.6l-2.8-.5a14,14,0,0,0-.5-3l2.5-1.4a.8.8,0,0,0-.6-1.5l-2.8.6a14.1,14.1,0,0,0-1.6-2.6l1.8-2.3a.8.8,0,0,0-1.1-1.1l-2.4,1.7a14.1,14.1,0,0,0-2.4-1.7l.7-2.8a.8.8,0,0,0-1.5-.6l-1.5,2.4a14,14,0,0,0-2.9-.7l-.4-2.9a.8.8,0,0,0-1.6,0l-.5,2.8a14,14,0,0,0-3,.5l-1.5-2.5a.8.8,0,0,0-1.5.6l.6,2.8a14.1,14.1,0,0,0-2.6,1.6l-2.3-1.7a.8.8,0,0,0-1.1,1.1l1.6,2.3a14.1,14.1,0,0,0-1.8,2.5l-2.7-.7a.8.8,0,0,0-.6,1.5l2.3,1.5a14,14,0,0,0-.7,3l-2.8.4A.8.8,0,0,0,357,942.7Z" fill="none" stroke="#4d4d4d" stroke-miterlimit="10"/><circle cx="373.8" cy="942.4" r="11.7" transform="translate(-580.4 1285) rotate(-88.1)" fill="none" stroke="#4d4d4d" stroke-miterlimit="10"/><circle cx="373.8" cy="942.4" r="3.3" transform="translate(-580.4 1285) rotate(-88.1)" fill="none" stroke="#4d4d4d" stroke-miterlimit="10"/><path d="M386.9,916l3.1,1.2q-.1,1.3-.1,2.5l-3.1,1a.8.8,0,0,0,0,1.4l3.1,1q0,1.4.1,2.7l-3.1,1.2a.8.8,0,0,0,.1,1.4l3.2.8q.1,1.2.2,2.5l-3,1.4a.8.8,0,0,0,.2,1.4l3.2.5.4,2.5-2.8,1.5a.8.8,0,0,0,.3,1.4l3.2.3.6,2.7-2.7,1.7a.8.8,0,0,0,.4,1.3h3.2l.7,2.4-2.6,1.9a.8.8,0,0,0,.4,1.3h3.2l.9,2.4-2.5,2a.8.8,0,0,0,.5,1.3l3.2-.3,1.1,2.5-2.3,2.2a.8.8,0,0,0,.6,1.2l3.2-.5L401,965l-2.2,2.3a.8.8,0,0,0,.7,1.2l3.1-.7,1.4,2.2-2,2.5a.8.8,0,0,0,.8,1.2l3.1-.9,1.6,2.3-1.8,2.6c-.4.5.3,1.4.9,1.1l3-1.1,1.6,2-1.7,2.7c-.4.5.4,1.3.9,1.1l2.9-1.3,1.8,1.9-1.5,2.8c-.3.5.4,1.3,1,1l2.8-1.5,2,1.9L418,991c-.3.6.5,1.3,1.1.9l2.7-1.7,2,1.6-1.1,3c-.2.6.6,1.2,1.1.9l2.6-1.8,2.1,1.5-.9,3a.8.8,0,0,0,1.2.8l2.4-2,2.4,1.5-.7,3.1a.8.8,0,0,0,1.2.7l2.3-2.1,2.3,1.2-.5,3.1a.8.8,0,0,0,1.3.6l2.1-2.3,2.4,1.1-.3,3.1a.8.8,0,0,0,1.3.5l2-2.4,2.6,1v3.1a.8.8,0,0,0,1.3.4l1.8-2.5,2.5.8v3.1a.8.8,0,0,0,1.3.4l1.7-2.6,2.6.6.3,3.1a.8.8,0,0,0,1.4.3l1.5-2.7,2.8.4.5,3.1a.8.8,0,0,0,1.4.2l1.3-2.8,2.6.2.7,3a.8.8,0,0,0,1.4.1l1.1-2.9h2.6l.9,3a.8.8,0,0,0,1.4,0l.9-3h2.8l1.1,2.9a.8.8,0,0,0,1.4-.1l.7-3,2.6-.3,1.3,2.8a.8.8,0,0,0,1.4-.2l.5-3.1,2.6-.4,1.5,2.7a.8.8,0,0,0,1.4-.3l.3-3.1,2.7-.6,1.6,2.6a.8.8,0,0,0,1.3-.4V1008l2.5-.8,1.8,2.5a.8.8,0,0,0,1.3-.4v-3.1l2.5-.9,2,2.4a.8.8,0,0,0,1.3-.5l-.3-3.1,2.6-1.2,2.1,2.2a.8.8,0,0,0,1.3-.6l-.5-3.1,2.3-1.2,2.3,2.1a.8.8,0,0,0,1.2-.7l-.7-3,2.2-1.4,2.4,2a.8.8,0,0,0,1.2-.8l-.9-3,2.2-1.6,2.5,1.8c.5.4,1.3-.3,1.1-.8l-1.1-2.9,2-1.6,2.7,1.6c.5.4,1.3-.4,1-.9l-1.3-2.8,1.9-1.8,2.8,1.5c.5.3,1.3-.4,1-1l-1.5-2.8,1.9-2,2.9,1.3c.6.3,1.3-.5.9-1l-1.6-2.7,1.6-2,2.9,1.1c.6.2,1.2-.6.8-1.1l-1.8-2.6,1.5-2.1,3,.9a.8.8,0,0,0,.8-1.2l-2-2.4,1.5-2.4,3.1.7a.8.8,0,0,0,.7-1.2l-2.1-2.3,1.2-2.3,3.1.5a.8.8,0,0,0,.6-1.2l-2.3-2.1,1.1-2.4,3.1.3a.8.8,0,0,0,.5-1.3l-2.4-2,1-2.6h3.1a.8.8,0,0,0,.4-1.3l-2.5-1.8.7-2.5h3.1a.8.8,0,0,0,.4-1.3l-2.7-1.7.6-2.5,3.1-.3a.8.8,0,0,0,.3-1.4l-2.8-1.5.4-2.7,3.1-.5a.8.8,0,0,0,.2-1.4l-2.9-1.3q.1-1.3.2-2.5l3.1-.7a.8.8,0,0,0,.1-1.4l-3-1.1q.1-1.3.1-2.6l3.1-1a.8.8,0,0,0,0-1.4l-3.1-.9c0-.9,0-1.8-.1-2.7l3-1.2a.8.8,0,0,0-.1-1.4l-3.1-.7q-.1-1.3-.3-2.5l2.9-1.3a.8.8,0,0,0-.2-1.4l-3.2-.5-.4-2.5,2.8-1.5a.8.8,0,0,0-.3-1.4l-3.2-.3-.6-2.7,2.7-1.7a.8.8,0,0,0-.4-1.3h-3.2l-.7-2.4,2.6-1.9a.8.8,0,0,0-.4-1.3h-3.2l-.9-2.4,2.5-2.1a.8.8,0,0,0-.5-1.3l-3.2.3-1.1-2.5,2.3-2.2a.8.8,0,0,0-.6-1.2l-3.2.5-1.2-2.2,2.2-2.4a.8.8,0,0,0-.7-1.2l-3.2.7-1.3-2.1,2.1-2.5a.8.8,0,0,0-.8-1.2l-3.1.9-1.6-2.2,1.9-2.7c.4-.5-.3-1.4-.9-1.1l-3.1,1.2-1.6-1.9,1.7-2.8c.4-.5-.4-1.3-.9-1.1l-3,1.3-1.7-1.8,1.5-2.9c.3-.5-.4-1.3-1-1l-2.9,1.5-2-1.8,1.3-3c.3-.6-.5-1.3-1.1-.9l-2.8,1.7-1.9-1.6L537,848c.2-.6-.6-1.2-1.1-.8l-2.7,1.9-2-1.5.9-3.2a.8.8,0,0,0-1.2-.8l-2.6,2.1-2.3-1.4.7-3.2a.8.8,0,0,0-1.2-.7l-2.4,2.3-2.2-1.2.5-3.3a.8.8,0,0,0-1.3-.6l-2.3,2.4-2.3-1,.3-3.3a.8.8,0,0,0-1.3-.5l-2.1,2.6-2.5-.9v-3.3a.8.8,0,0,0-1.3-.4l-1.9,2.7-2.3-.7v-3.3a.8.8,0,0,0-1.3-.4l-1.8,2.8-2.4-.6-.3-3.3a.8.8,0,0,0-1.4-.3l-1.6,2.9-2.6-.4-.6-3.3a.8.8,0,0,0-1.4-.2l-1.4,3-2.4-.2-.8-3.3a.8.8,0,0,0-1.4-.1l-1.2,3.1h-2.5l-1-3.2a.8.8,0,0,0-1.4,0l-1,3.2h-2.6l-1.2-3.1a.8.8,0,0,0-1.4.1l-.8,3.3-2.4.2-1.4-3.1a.8.8,0,0,0-1.4.2l-.6,3.3-2.4.4-1.6-2.9a.8.8,0,0,0-1.4.3l-.3,3.3-2.6.6-1.8-2.8a.8.8,0,0,0-1.3.4V835l-2.3.7-2-2.7a.8.8,0,0,0-1.3.4v3.3l-2.3.9-2.1-2.6a.8.8,0,0,0-1.3.5l.3,3.3-2.4,1.1-2.3-2.4a.8.8,0,0,0-1.3.6l.5,3.3-2.1,1.2-2.5-2.3a.8.8,0,0,0-1.2.7l.8,3.3-2.1,1.3-2.6-2.1a.8.8,0,0,0-1.2.8l1,3.2-2.2,1.6-2.7-1.9c-.5-.4-1.3.3-1.1.8l1.2,3.1-1.9,1.5-2.9-1.8c-.5-.4-1.3.4-1,.9l1.4,3.1-1.8,1.7-3-1.6c-.5-.3-1.3.4-1,1l1.6,3-1.8,1.9-3-1.4c-.6-.3-1.3.5-.9,1l1.8,2.9-1.5,1.9-3.1-1.2c-.6-.2-1.2.6-.8,1.1l1.9,2.7-1.4,2-3.2-1a.8.8,0,0,0-.8,1.2l2.1,2.6-1.4,2.3-3.2-.7a.8.8,0,0,0-.7,1.2L401,878l-1.2,2.2-3.3-.5a.8.8,0,0,0-.6,1.2l2.4,2.3-1,2.3-3.3-.3a.8.8,0,0,0-.5,1.3l2.5,2.1-.9,2.5h-3.3a.8.8,0,0,0-.4,1.3l2.7,1.9-.7,2.4h-3.3a.8.8,0,0,0-.4,1.3l2.8,1.8-.6,2.5-3.3.3a.8.8,0,0,0-.3,1.4l2.9,1.6-.4,2.7-3.2.5a.8.8,0,0,0-.2,1.4l3,1.4q-.1,1.2-.2,2.5l-3.2.8A.8.8,0,0,0,386.9,916Z" fill="none" stroke="#4d4d4d" stroke-miterlimit="10"/><path d="M556.6,970.3l1.8,2.1a14,14,0,0,0-1.6,2.7l-2.7-.5a.8.8,0,0,0-.5,1.5l2.4,1.3a14.1,14.1,0,0,0-.5,3l-2.7.5a.8.8,0,0,0,.1,1.6l2.7.3a14.1,14.1,0,0,0,.7,3l-2.3,1.5a.8.8,0,0,0,.7,1.4l2.7-.8a14,14,0,0,0,1.9,2.5l-1.6,2.3a.8.8,0,0,0,1.2,1.1l2.2-1.8a14,14,0,0,0,2.7,1.6l-.6,2.7a.8.8,0,0,0,1.5.5l1.3-2.5a14.1,14.1,0,0,0,3.1.5l.5,2.8a.8.8,0,0,0,1.6-.1l.3-2.8a14.1,14.1,0,0,0,3-.7l1.6,2.4a.8.8,0,0,0,1.4-.7l-.8-2.7a14,14,0,0,0,2.5-1.8l2.4,1.6a.8.8,0,0,0,1.1-1.2l-1.8-2.2a14,14,0,0,0,1.6-2.6l2.8.6a.8.8,0,0,0,.6-1.5l-2.5-1.4a14.1,14.1,0,0,0,.5-3.1l2.8-.6a.8.8,0,0,0-.1-1.6l-2.9-.3a14.1,14.1,0,0,0-.7-2.9l2.4-1.7a.8.8,0,0,0-.7-1.4l-2.7.8a14,14,0,0,0-1.8-2.4l1.6-2.4a.8.8,0,0,0-1.2-1l-2.2,1.8a14,14,0,0,0-2.6-1.6l.5-2.8a.8.8,0,0,0-1.5-.5l-1.3,2.5a14.1,14.1,0,0,0-3-.5l-.6-2.8a.8.8,0,0,0-1.6.1l-.3,2.8a14.1,14.1,0,0,0-3,.7l-1.6-2.3a.8.8,0,0,0-1.4.7l.8,2.7a14,14,0,0,0-2.5,1.8l-2.3-1.5A.8.8,0,0,0,556.6,970.3Z" fill="none" stroke="#4d4d4d" stroke-miterlimit="10"/><circle cx="569.5" cy="981.1" r="11.7" transform="translate(-538.3 737.1) rotate(-47.4)" fill="none" stroke="#4d4d4d" stroke-miterlimit="10"/><circle cx="569.5" cy="981.1" r="3.3" transform="translate(-538.3 737.1) rotate(-47.4)" fill="none" stroke="#4d4d4d" stroke-miterlimit="10"/><path d="M377.7,849.7l1.6,2.2a14,14,0,0,0-1.8,2.5l-2.7-.7a.8.8,0,0,0-.6,1.5l2.3,1.5a14.1,14.1,0,0,0-.7,3l-2.7.3a.8.8,0,0,0-.1,1.6l2.7.5a14.1,14.1,0,0,0,.5,3.1l-2.4,1.3a.8.8,0,0,0,.6,1.5l2.7-.6a14,14,0,0,0,1.7,2.7l-1.7,2.2a.8.8,0,0,0,1.1,1.1l2.3-1.6a14,14,0,0,0,2.5,1.8l-.8,2.7a.8.8,0,0,0,1.5.7l1.5-2.4a14.1,14.1,0,0,0,3,.7l.3,2.8a.8.8,0,0,0,1.6.1l.5-2.8a14.1,14.1,0,0,0,3-.5l1.4,2.5a.8.8,0,0,0,1.5-.6l-.6-2.8a14,14,0,0,0,2.6-1.6l2.2,1.8a.8.8,0,0,0,1.1-1.1l-1.6-2.4a14,14,0,0,0,1.8-2.5l2.8.8a.8.8,0,0,0,.7-1.5L403,866a14.1,14.1,0,0,0,.7-3l2.9-.4a.8.8,0,0,0,0-1.6l-2.8-.5a14.1,14.1,0,0,0-.5-3l2.5-1.5a.8.8,0,0,0-.6-1.5l-2.8.6a14,14,0,0,0-1.6-2.6l1.7-2.3a.8.8,0,0,0-1.1-1.1l-2.3,1.7a14,14,0,0,0-2.5-1.8l.7-2.8a.8.8,0,0,0-1.5-.6l-1.5,2.4a14.1,14.1,0,0,0-3-.7l-.4-2.8a.8.8,0,0,0-1.6,0l-.5,2.8a14.1,14.1,0,0,0-3,.5l-1.4-2.4a.8.8,0,0,0-1.5.6l.6,2.7a14,14,0,0,0-2.6,1.6l-2.2-1.7A.8.8,0,0,0,377.7,849.7Z" fill="none" stroke="#4d4d4d" stroke-miterlimit="10"/><circle cx="389.8" cy="861.3" r="11.7" transform="translate(-483.4 499) rotate(-43.1)" fill="none" stroke="#4d4d4d" stroke-miterlimit="10"/><circle cx="389.8" cy="861.3" r="3.3" transform="translate(-483.4 499) rotate(-43.1)" fill="none" stroke="#4d4d4d" stroke-miterlimit="10"/><path d="M499.3,1010.3l-.3,2.7a14,14,0,0,0-3,.7l-1.6-2.3a.8.8,0,0,0-1.4.7l.8,2.6a14.1,14.1,0,0,0-2.5,1.8l-2.3-1.5a.8.8,0,0,0-1.1,1.2l1.7,2.1a14.1,14.1,0,0,0-1.6,2.7l-2.7-.5a.8.8,0,0,0-.5,1.5l2.4,1.3a14,14,0,0,0-.5,3.1l-2.7.5a.8.8,0,0,0,.1,1.6l2.8.3a14,14,0,0,0,.7,3l-2.3,1.5a.8.8,0,0,0,.7,1.4l2.7-.8a14.1,14.1,0,0,0,1.8,2.5l-1.6,2.3a.8.8,0,0,0,1.2,1.1l2.2-1.8a14.1,14.1,0,0,0,2.6,1.6l-.6,2.8a.8.8,0,0,0,1.5.5l1.4-2.5a14,14,0,0,0,3,.4l.5,2.8a.8.8,0,0,0,1.6-.1l.3-2.9a14,14,0,0,0,3-.7l1.6,2.4a.8.8,0,0,0,1.5-.7l-.8-2.8a14.1,14.1,0,0,0,2.5-1.8l2.5,1.6a.8.8,0,0,0,1.1-1.2l-1.8-2.2a14.1,14.1,0,0,0,1.5-2.6l2.9.5a.8.8,0,0,0,.5-1.5l-2.5-1.4a14,14,0,0,0,.4-3l2.8-.6a.8.8,0,0,0-.1-1.6l-2.8-.3a14,14,0,0,0-.7-3l2.3-1.6a.8.8,0,0,0-.7-1.4l-2.7.8a14.1,14.1,0,0,0-1.8-2.5l1.5-2.4a.8.8,0,0,0-1.2-1.1l-2.2,1.8a14.1,14.1,0,0,0-2.6-1.6l.5-2.8a.8.8,0,0,0-1.5-.5l-1.3,2.4a14,14,0,0,0-3.1-.5l-.6-2.7A.8.8,0,0,0,499.3,1010.3Z" fill="none" stroke="#4d4d4d" stroke-miterlimit="10"/><circle cx="500.9" cy="1027.1" r="11.7" transform="matrix(1, -0.04, 0.04, 1, -43.33, 22.29)" fill="none" stroke="#4d4d4d" stroke-miterlimit="10"/><circle cx="500.9" cy="1027.1" r="3.3" transform="translate(-43.3 22.3) rotate(-2.4)" fill="none" stroke="#4d4d4d" stroke-miterlimit="10"/><path d="M458.1,798.5l-.5,2.7a14,14,0,0,0-3.1.5l-1.4-2.4a.8.8,0,0,0-1.5.6l.6,2.7a14.1,14.1,0,0,0-2.6,1.6l-2.2-1.7a.8.8,0,0,0-1.2,1.1l1.6,2.3a14.1,14.1,0,0,0-1.8,2.5l-2.6-.7a.8.8,0,0,0-.7,1.5l2.3,1.5a14,14,0,0,0-.7,3.1l-2.7.3a.8.8,0,0,0-.1,1.6l2.7.5a14,14,0,0,0,.5,3.1l-2.4,1.4a.8.8,0,0,0,.6,1.5l2.7-.6a14.1,14.1,0,0,0,1.6,2.6l-1.8,2.2a.8.8,0,0,0,1.1,1.2l2.3-1.6a14.1,14.1,0,0,0,2.5,1.8l-.8,2.7a.8.8,0,0,0,1.5.7l1.6-2.4a14,14,0,0,0,3,.7l.3,2.9a.8.8,0,0,0,1.6.1l.5-2.8a14,14,0,0,0,3-.5l1.4,2.5a.8.8,0,0,0,1.5-.6l-.6-2.8a14.1,14.1,0,0,0,2.6-1.6l2.3,1.8a.8.8,0,0,0,1.1-1.1l-1.7-2.4a14.1,14.1,0,0,0,1.7-2.4l2.8.7a.8.8,0,0,0,.6-1.5l-2.4-1.5a14,14,0,0,0,.7-2.9l2.9-.4a.8.8,0,0,0,0-1.6l-2.8-.5a14,14,0,0,0-.5-3l2.5-1.5a.8.8,0,0,0-.6-1.5l-2.8.6a14.1,14.1,0,0,0-1.6-2.6l1.7-2.3a.8.8,0,0,0-1.1-1.1l-2.3,1.6a14.1,14.1,0,0,0-2.5-1.8l.7-2.7a.8.8,0,0,0-1.5-.6l-1.5,2.3a14,14,0,0,0-3-.7l-.4-2.8A.8.8,0,0,0,458.1,798.5Z" fill="none" stroke="#4d4d4d" stroke-miterlimit="10"/><circle cx="458.5" cy="815.3" r="11.7" transform="translate(-371.5 1246.7) rotate(-88.1)" fill="none" stroke="#4d4d4d" stroke-miterlimit="10"/><circle cx="458.5" cy="815.3" r="3.3" transform="translate(-371.5 1246.7) rotate(-88.1)" fill="none" stroke="#4d4d4d" stroke-miterlimit="10"/><path d="M528.8,844.3l2.1-1.8a14,14,0,0,0,2.7,1.6l-.5,2.7a.8.8,0,0,0,1.5.5l1.3-2.4a14.1,14.1,0,0,0,3,.5l.5,2.7a.8.8,0,0,0,1.6-.1l.3-2.7a14.1,14.1,0,0,0,3-.7l1.5,2.3a.8.8,0,0,0,1.4-.7l-.8-2.7a14,14,0,0,0,2.5-1.9l2.3,1.6a.8.8,0,0,0,1.1-1.2l-1.8-2.2a14,14,0,0,0,1.6-2.7l2.7.6a.8.8,0,0,0,.5-1.5l-2.5-1.3a14.1,14.1,0,0,0,.5-3.1l2.8-.5a.8.8,0,0,0-.1-1.6l-2.8-.3a14.1,14.1,0,0,0-.7-3l2.4-1.6a.8.8,0,0,0-.7-1.4l-2.7.8a14,14,0,0,0-1.8-2.5l1.6-2.4a.8.8,0,0,0-1.2-1.1l-2.2,1.8a14,14,0,0,0-2.6-1.6l.6-2.8a.8.8,0,0,0-1.5-.6l-1.4,2.5a14.1,14.1,0,0,0-3.1-.5l-.6-2.8a.8.8,0,0,0-1.6.1l-.3,2.9a14.1,14.1,0,0,0-2.9.7l-1.7-2.4a.8.8,0,0,0-1.4.7l.8,2.7A14,14,0,0,0,530,821l-2.4-1.6a.8.8,0,0,0-1,1.2l1.8,2.2a14,14,0,0,0-1.6,2.6l-2.8-.5a.8.8,0,0,0-.5,1.5l2.5,1.3a14.1,14.1,0,0,0-.5,3l-2.8.6a.8.8,0,0,0,.1,1.6l2.8.3a14.1,14.1,0,0,0,.7,3l-2.3,1.6a.8.8,0,0,0,.7,1.4l2.7-.8a14,14,0,0,0,1.8,2.5l-1.5,2.3A.8.8,0,0,0,528.8,844.3Z" fill="none" stroke="#4d4d4d" stroke-miterlimit="10"/><circle cx="539.5" cy="831.3" r="11.7" transform="translate(-437.7 666.5) rotate(-47.4)" fill="none" stroke="#4d4d4d" stroke-miterlimit="10"/><circle cx="539.5" cy="831.3" r="3.3" transform="translate(-437.7 666.5) rotate(-47.4)" fill="none" stroke="#4d4d4d" stroke-miterlimit="10"/><path d="M408.1,1023.2l2.2-1.6a14,14,0,0,0,2.5,1.8l-.7,2.7a.8.8,0,0,0,1.5.6l1.5-2.3a14.1,14.1,0,0,0,3,.7l.3,2.7a.8.8,0,0,0,1.6.1l.5-2.7a14.1,14.1,0,0,0,3.1-.5l1.3,2.4a.8.8,0,0,0,1.5-.6l-.6-2.7a14,14,0,0,0,2.7-1.7l2.2,1.7a.8.8,0,0,0,1.1-1.1l-1.6-2.3a14,14,0,0,0,1.8-2.5l2.7.8a.8.8,0,0,0,.7-1.5l-2.4-1.5a14.1,14.1,0,0,0,.7-3l2.8-.3a.8.8,0,0,0,.1-1.6l-2.8-.5a14.1,14.1,0,0,0-.5-3l2.5-1.4a.8.8,0,0,0-.6-1.5l-2.8.6a14,14,0,0,0-1.6-2.6l1.8-2.2a.8.8,0,0,0-1.1-1.1l-2.4,1.6a14,14,0,0,0-2.5-1.8l.8-2.8a.8.8,0,0,0-1.5-.7l-1.6,2.4a14.1,14.1,0,0,0-3-.7l-.4-2.9a.8.8,0,0,0-1.6,0l-.5,2.8a14.1,14.1,0,0,0-3,.5l-1.5-2.5a.8.8,0,0,0-1.5.6l.6,2.8a14,14,0,0,0-2.6,1.6l-2.3-1.7a.8.8,0,0,0-1.1,1.1l1.7,2.3a14,14,0,0,0-1.8,2.5l-2.8-.7a.8.8,0,0,0-.6,1.5l2.4,1.5a14.1,14.1,0,0,0-.7,3l-2.8.4a.8.8,0,0,0,0,1.6l2.8.5a14.1,14.1,0,0,0,.5,3l-2.4,1.4a.8.8,0,0,0,.6,1.5l2.7-.6a14,14,0,0,0,1.6,2.6l-1.7,2.2A.8.8,0,0,0,408.1,1023.2Z" fill="none" stroke="#4d4d4d" stroke-miterlimit="10"/><circle cx="419.8" cy="1011" r="11.7" transform="translate(-577.7 559.9) rotate(-43.1)" fill="none" stroke="#4d4d4d" stroke-miterlimit="10"/><circle cx="419.8" cy="1011" r="3.3" transform="translate(-577.7 559.9) rotate(-43.1)" fill="none" stroke="#4d4d4d" stroke-miterlimit="10"/><path d="M554.5,869l2.6-.8a14,14,0,0,0,1.8,2.5l-1.5,2.3a.8.8,0,0,0,1.2,1.1l2.1-1.7a14.1,14.1,0,0,0,2.6,1.6l-.5,2.7a.8.8,0,0,0,1.5.5l1.3-2.4a14.1,14.1,0,0,0,3.1.5l.5,2.7a.8.8,0,0,0,1.6-.1l.3-2.7a14,14,0,0,0,3.1-.8l1.5,2.3a.8.8,0,0,0,1.4-.7l-.8-2.7a14,14,0,0,0,2.5-1.8l2.3,1.6a.8.8,0,0,0,1.1-1.2l-1.8-2.2a14.1,14.1,0,0,0,1.6-2.6l2.8.6a.8.8,0,0,0,.5-1.5l-2.5-1.4a14.1,14.1,0,0,0,.5-3l2.8-.5a.8.8,0,0,0-.1-1.6l-2.8-.3a14,14,0,0,0-.7-3l2.4-1.6a.8.8,0,0,0-.7-1.4l-2.8.8a14,14,0,0,0-1.8-2.5l1.6-2.4a.8.8,0,0,0-1.2-1.1l-2.2,1.8a14.1,14.1,0,0,0-2.6-1.6l.5-2.9a.8.8,0,0,0-1.5-.5l-1.4,2.5a14.1,14.1,0,0,0-3-.4l-.6-2.8a.8.8,0,0,0-1.6.1l-.3,2.9a14,14,0,0,0-2.9.7l-1.7-2.4a.8.8,0,0,0-1.4.7l.8,2.7a14,14,0,0,0-2.5,1.8l-2.4-1.5a.8.8,0,0,0-1.1,1.2l1.8,2.2a14.1,14.1,0,0,0-1.6,2.6l-2.8-.5a.8.8,0,0,0-.5,1.5l2.5,1.3a14.1,14.1,0,0,0-.5,3l-2.7.6a.8.8,0,0,0,.1,1.6l2.8.3a14,14,0,0,0,.7,3l-2.3,1.6A.8.8,0,0,0,554.5,869Z" fill="none" stroke="#4d4d4d" stroke-miterlimit="10"/><circle cx="569.4" cy="861.1" r="11.7" transform="translate(-310 320.4) rotate(-24.9)" fill="none" stroke="#4d4d4d" stroke-miterlimit="10"/><circle cx="569.4" cy="861.1" r="3.3" transform="translate(-310 320.4) rotate(-24.9)" fill="none" stroke="#4d4d4d" stroke-miterlimit="10"/><path d="M374.6,988.1l2.7-.6a14,14,0,0,0,1.6,2.6l-1.7,2.2a.8.8,0,0,0,1.1,1.2l2.2-1.6a14.1,14.1,0,0,0,2.5,1.8l-.7,2.6a.8.8,0,0,0,1.5.7l1.5-2.3a14.1,14.1,0,0,0,3,.7l.3,2.7a.8.8,0,0,0,1.6.1l.5-2.7a14,14,0,0,0,3.1-.5l1.3,2.4a.8.8,0,0,0,1.5-.6l-.6-2.7a14,14,0,0,0,2.6-1.6l2.2,1.7a.8.8,0,0,0,1.2-1.1l-1.6-2.3a14.1,14.1,0,0,0,1.8-2.5l2.7.8a.8.8,0,0,0,.7-1.5l-2.4-1.5a14.1,14.1,0,0,0,.7-3l2.8-.3a.8.8,0,0,0,.1-1.6l-2.8-.5a14,14,0,0,0-.5-3l2.5-1.4a.8.8,0,0,0-.6-1.5l-2.8.6a14,14,0,0,0-1.6-2.6l1.8-2.3a.8.8,0,0,0-1.1-1.2l-2.4,1.6a14.1,14.1,0,0,0-2.5-1.8l.7-2.8a.8.8,0,0,0-1.5-.6l-1.5,2.4a14.1,14.1,0,0,0-2.9-.7l-.4-2.9a.8.8,0,0,0-1.6,0l-.5,2.8a14,14,0,0,0-3,.5l-1.5-2.5a.8.8,0,0,0-1.4.6l.6,2.8a14,14,0,0,0-2.6,1.6l-2.3-1.7a.8.8,0,0,0-1.2,1.1l1.6,2.3a14.1,14.1,0,0,0-1.8,2.5l-2.8-.7a.8.8,0,0,0-.6,1.5l2.4,1.5a14.1,14.1,0,0,0-.7,3l-2.8.4a.8.8,0,0,0,0,1.6l2.7.5a14,14,0,0,0,.5,3.1l-2.4,1.4A.8.8,0,0,0,374.6,988.1Z" fill="none" stroke="#4d4d4d" stroke-miterlimit="10"/><circle cx="390" cy="981.3" r="11.7" transform="translate(-320.5 200.1) rotate(-20.6)" fill="none" stroke="#4d4d4d" stroke-miterlimit="10"/><circle cx="390" cy="981.3" r="3.3" transform="translate(-320.5 200.1) rotate(-20.6)" fill="none" stroke="#4d4d4d" stroke-miterlimit="10"/><path d="M569.5,937.2l2.4,1.3a14,14,0,0,0-.5,3.1l-2.7.6a.8.8,0,0,0,.1,1.6l2.7.3a14.1,14.1,0,0,0,.7,3l-2.3,1.5a.8.8,0,0,0,.7,1.4l2.6-.8a14.1,14.1,0,0,0,1.9,2.5l-1.5,2.3a.8.8,0,0,0,1.2,1.1l2.2-1.7a14,14,0,0,0,2.7,1.6l-.6,2.7a.8.8,0,0,0,1.5.5l1.3-2.4a14,14,0,0,0,3.1.5l.5,2.7a.8.8,0,0,0,1.6-.1l.3-2.8a14.1,14.1,0,0,0,3-.7l1.6,2.4a.8.8,0,0,0,1.4-.7l-.8-2.7a14.1,14.1,0,0,0,2.5-1.8l2.4,1.6a.8.8,0,0,0,1.1-1.2l-1.8-2.2a14,14,0,0,0,1.6-2.6l2.8.6a.8.8,0,0,0,.5-1.5l-2.5-1.4a14,14,0,0,0,.5-3l2.8-.6a.8.8,0,0,0-.1-1.6l-2.9-.3a14.1,14.1,0,0,0-.7-3l2.4-1.7a.8.8,0,0,0-.7-1.4l-2.8.8a14.1,14.1,0,0,0-1.8-2.4l1.6-2.5a.8.8,0,0,0-1.2-1.1l-2.2,1.8a14,14,0,0,0-2.6-1.6l.5-2.8a.8.8,0,0,0-1.5-.5l-1.3,2.5a14,14,0,0,0-3-.5l-.6-2.8a.8.8,0,0,0-1.6.1l-.3,2.8a14.1,14.1,0,0,0-3,.7l-1.6-2.3a.8.8,0,0,0-1.4.7l.8,2.7a14.1,14.1,0,0,0-2.5,1.8l-2.4-1.5a.8.8,0,0,0-1.1,1.2l1.8,2.1a14,14,0,0,0-1.6,2.7l-2.7-.5A.8.8,0,0,0,569.5,937.2Z" fill="none" stroke="#4d4d4d" stroke-miterlimit="10"/><circle cx="585.6" cy="942.1" r="11.7" transform="matrix(0.34, -0.94, 0.94, 0.34, -500.19, 1169.12)" fill="none" stroke="#4d4d4d" stroke-miterlimit="10"/><circle cx="585.6" cy="942.1" r="3.3" transform="translate(-500.2 1169.1) rotate(-69.9)" fill="none" stroke="#4d4d4d" stroke-miterlimit="10"/><path d="M358.1,894.1l2.3,1.5a14,14,0,0,0-.7,3l-2.7.4a.8.8,0,0,0,0,1.6l2.7.5a14.1,14.1,0,0,0,.5,3l-2.4,1.3a.8.8,0,0,0,.6,1.5l2.7-.6a14.1,14.1,0,0,0,1.7,2.7l-1.7,2.2a.8.8,0,0,0,1.1,1.2l2.3-1.6a14,14,0,0,0,2.6,1.8l-.8,2.7a.8.8,0,0,0,1.4.6l1.5-2.3a14,14,0,0,0,3,.7l.3,2.8a.8.8,0,0,0,1.6.1l.5-2.8a14.1,14.1,0,0,0,3-.5l1.4,2.5a.8.8,0,0,0,1.5-.6l-.6-2.8a14.1,14.1,0,0,0,2.6-1.6l2.2,1.8a.8.8,0,0,0,1.2-1.1l-1.6-2.4a14,14,0,0,0,1.8-2.5l2.8.8a.8.8,0,0,0,.6-1.4l-2.4-1.6a14,14,0,0,0,.7-3l2.9-.3a.8.8,0,0,0,.1-1.6l-2.8-.5a14.1,14.1,0,0,0-.5-3l2.5-1.5a.8.8,0,0,0-.6-1.5l-2.8.6a14.1,14.1,0,0,0-1.6-2.5l1.7-2.3a.8.8,0,0,0-1.1-1.1l-2.3,1.6a14,14,0,0,0-2.5-1.7l.7-2.8a.8.8,0,0,0-1.4-.6l-1.5,2.4a14,14,0,0,0-3-.7l-.4-2.8a.8.8,0,0,0-1.6,0l-.5,2.8a14.1,14.1,0,0,0-3,.5l-1.4-2.4a.8.8,0,0,0-1.5.6l.6,2.7a14.1,14.1,0,0,0-2.6,1.6l-2.2-1.7a.8.8,0,0,0-1.1,1.1l1.6,2.3a14,14,0,0,0-1.8,2.5l-2.7-.7A.8.8,0,0,0,358.1,894.1Z" fill="none" stroke="#4d4d4d" stroke-miterlimit="10"/><circle cx="373.7" cy="900.3" r="11.7" transform="translate(-600.5 869) rotate(-65.6)" fill="none" stroke="#4d4d4d" stroke-miterlimit="10"/><circle cx="373.7" cy="900.3" r="3.3" transform="translate(-600.5 869) rotate(-65.6)" fill="none" stroke="#4d4d4d" stroke-miterlimit="10"/><path d="M531.9,996l.8,2.6a14,14,0,0,0-2.5,1.8l-2.3-1.5a.8.8,0,0,0-1.1,1.2l1.7,2.1a14.1,14.1,0,0,0-1.6,2.6l-2.7-.5a.8.8,0,0,0-.5,1.5l2.4,1.3a14.1,14.1,0,0,0-.5,3.1l-2.7.5a.8.8,0,0,0,.1,1.6l2.7.3a14,14,0,0,0,.8,3.1l-2.3,1.5a.8.8,0,0,0,.7,1.4l2.7-.8a14,14,0,0,0,1.8,2.5l-1.6,2.3a.8.8,0,0,0,1.2,1.1l2.2-1.8a14.1,14.1,0,0,0,2.6,1.6l-.6,2.8a.8.8,0,0,0,1.5.5l1.4-2.5a14.1,14.1,0,0,0,3,.5l.5,2.8a.8.8,0,0,0,1.6-.1l.3-2.8a14,14,0,0,0,3-.7l1.6,2.4a.8.8,0,0,0,1.4-.7l-.8-2.8a14,14,0,0,0,2.5-1.8l2.4,1.6a.8.8,0,0,0,1.1-1.2l-1.8-2.2a14.1,14.1,0,0,0,1.6-2.6l2.9.5a.8.8,0,0,0,.5-1.5l-2.5-1.4a14.1,14.1,0,0,0,.4-3l2.8-.6a.8.8,0,0,0-.1-1.6l-2.9-.3a14,14,0,0,0-.7-2.9l2.4-1.7a.8.8,0,0,0-.7-1.4l-2.7.8a14,14,0,0,0-1.8-2.5l1.5-2.4a.8.8,0,0,0-1.2-1.1l-2.2,1.8a14.1,14.1,0,0,0-2.6-1.6l.5-2.8a.8.8,0,0,0-1.5-.5l-1.3,2.5a14.1,14.1,0,0,0-3-.5l-.6-2.7a.8.8,0,0,0-1.6.1l-.3,2.8a14,14,0,0,0-3,.7l-1.6-2.3A.8.8,0,0,0,531.9,996Z" fill="none" stroke="#4d4d4d" stroke-miterlimit="10"/><circle cx="539.8" cy="1010.9" r="11.7" transform="translate(-376 321.9) rotate(-24.9)" fill="none" stroke="#4d4d4d" stroke-miterlimit="10"/><circle cx="539.8" cy="1010.9" r="3.3" transform="translate(-376 321.9) rotate(-24.9)" fill="none" stroke="#4d4d4d" stroke-miterlimit="10"/><path d="M412.8,816.1l.6,2.7a14,14,0,0,0-2.6,1.6l-2.2-1.7a.8.8,0,0,0-1.2,1.1l1.6,2.2a14.1,14.1,0,0,0-1.8,2.5l-2.6-.7a.8.8,0,0,0-.7,1.5l2.3,1.5a14.1,14.1,0,0,0-.7,3l-2.7.3a.8.8,0,0,0-.1,1.6l2.7.5a14,14,0,0,0,.5,3.1l-2.4,1.3a.8.8,0,0,0,.6,1.5l2.7-.6a14,14,0,0,0,1.6,2.6l-1.7,2.2a.8.8,0,0,0,1.1,1.2l2.3-1.6a14.1,14.1,0,0,0,2.5,1.8l-.8,2.7a.8.8,0,0,0,1.5.7l1.5-2.4a14.1,14.1,0,0,0,3,.7l.3,2.8a.8.8,0,0,0,1.6.1l.5-2.8a14,14,0,0,0,3-.5l1.4,2.5a.8.8,0,0,0,1.5-.6l-.6-2.8a14,14,0,0,0,2.6-1.6l2.3,1.8a.8.8,0,0,0,1.2-1.1l-1.6-2.4a14.1,14.1,0,0,0,1.8-2.5l2.8.7a.8.8,0,0,0,.6-1.5l-2.4-1.5a14.1,14.1,0,0,0,.7-2.9l2.9-.4a.8.8,0,0,0,0-1.6l-2.8-.5a14,14,0,0,0-.5-3l2.5-1.5a.8.8,0,0,0-.6-1.4l-2.8.6a14,14,0,0,0-1.6-2.6l1.7-2.3a.8.8,0,0,0-1.1-1.2l-2.3,1.6a14.1,14.1,0,0,0-2.5-1.8l.7-2.8a.8.8,0,0,0-1.5-.6l-1.5,2.4a14.1,14.1,0,0,0-3-.7l-.4-2.8a.8.8,0,0,0-1.6,0l-.5,2.7a14,14,0,0,0-3.1.5l-1.4-2.4A.8.8,0,0,0,412.8,816.1Z" fill="none" stroke="#4d4d4d" stroke-miterlimit="10"/><circle cx="419.6" cy="831.5" r="11.7" transform="matrix(0.94, -0.35, 0.35, 0.94, -265.9, 200.98)" fill="none" stroke="#4d4d4d" stroke-miterlimit="10"/><circle cx="419.6" cy="831.5" r="3.3" transform="translate(-265.9 201) rotate(-20.6)" fill="none" stroke="#4d4d4d" stroke-miterlimit="10"/><path d="M495.7,831.4l1.3-2.4a14,14,0,0,0,3.1.5l.6,2.7a.8.8,0,0,0,1.6-.1l.3-2.7a14.1,14.1,0,0,0,3-.7l1.5,2.3a.8.8,0,0,0,1.4-.7l-.8-2.6a14.1,14.1,0,0,0,2.5-1.9l2.3,1.5a.8.8,0,0,0,1.1-1.2l-1.7-2.2a14,14,0,0,0,1.6-2.7l2.7.6a.8.8,0,0,0,.5-1.5l-2.4-1.3a14,14,0,0,0,.5-3.1l2.7-.5a.8.8,0,0,0-.1-1.6l-2.8-.3a14.1,14.1,0,0,0-.7-3l2.4-1.6a.8.8,0,0,0-.7-1.4l-2.7.8a14.1,14.1,0,0,0-1.8-2.5l1.6-2.4a.8.8,0,0,0-1.2-1.1l-2.2,1.8a14,14,0,0,0-2.6-1.6l.6-2.8a.8.8,0,0,0-1.5-.5l-1.4,2.5a14,14,0,0,0-3-.5l-.6-2.8a.8.8,0,0,0-1.6.1l-.3,2.9a14.1,14.1,0,0,0-3,.7l-1.7-2.4a.8.8,0,0,0-1.4.7l.8,2.8a14.1,14.1,0,0,0-2.4,1.8l-2.5-1.6a.8.8,0,0,0-1.1,1.2l1.8,2.2a14,14,0,0,0-1.6,2.6l-2.8-.5a.8.8,0,0,0-.5,1.5l2.5,1.3a14,14,0,0,0-.5,3l-2.8.6a.8.8,0,0,0,.1,1.6l2.8.3a14.1,14.1,0,0,0,.7,3l-2.3,1.6a.8.8,0,0,0,.7,1.4l2.7-.8a14.1,14.1,0,0,0,1.8,2.5l-1.5,2.4a.8.8,0,0,0,1.2,1.1l2.1-1.8a14,14,0,0,0,2.7,1.6l-.5,2.7A.8.8,0,0,0,495.7,831.4Z" fill="none" stroke="#4d4d4d" stroke-miterlimit="10"/><circle cx="500.6" cy="815.2" r="11.7" transform="translate(-436.9 1005.9) rotate(-69.9)" fill="none" stroke="#4d4d4d" stroke-miterlimit="10"/><circle cx="500.6" cy="815.2" r="3.3" transform="translate(-436.9 1005.9) rotate(-69.9)" fill="none" stroke="#4d4d4d" stroke-miterlimit="10"/><path d="M452.6,1042.8l1.5-2.3a14,14,0,0,0,3,.7l.4,2.7a.8.8,0,0,0,1.6,0l.5-2.7a14.1,14.1,0,0,0,3-.5l1.3,2.4a.8.8,0,0,0,1.5-.6l-.6-2.7a14.1,14.1,0,0,0,2.7-1.7l2.2,1.7a.8.8,0,0,0,1.2-1.1l-1.6-2.3a14,14,0,0,0,1.8-2.6l2.7.8a.8.8,0,0,0,.6-1.4l-2.3-1.5a14,14,0,0,0,.7-3l2.8-.3a.8.8,0,0,0,.1-1.6l-2.8-.5a14.1,14.1,0,0,0-.5-3l2.5-1.4a.8.8,0,0,0-.6-1.5l-2.8.6a14.1,14.1,0,0,0-1.6-2.6l1.8-2.2a.8.8,0,0,0-1.1-1.2l-2.4,1.6a14,14,0,0,0-2.5-1.8l.8-2.8a.8.8,0,0,0-1.4-.6l-1.6,2.4a14,14,0,0,0-3-.7l-.3-2.9a.8.8,0,0,0-1.6-.1l-.5,2.8a14.1,14.1,0,0,0-3,.5l-1.5-2.5a.8.8,0,0,0-1.5.6l.6,2.8a14.1,14.1,0,0,0-2.5,1.6l-2.3-1.7a.8.8,0,0,0-1.1,1.1l1.6,2.3a14,14,0,0,0-1.7,2.5l-2.8-.7a.8.8,0,0,0-.6,1.4l2.4,1.5a14,14,0,0,0-.7,3l-2.8.4a.8.8,0,0,0,0,1.6l2.8.5a14.1,14.1,0,0,0,.5,3l-2.4,1.4a.8.8,0,0,0,.6,1.5l2.7-.6a14.1,14.1,0,0,0,1.6,2.6l-1.7,2.2a.8.8,0,0,0,1.1,1.1l2.3-1.6a14,14,0,0,0,2.5,1.8l-.7,2.7A.8.8,0,0,0,452.6,1042.8Z" fill="none" stroke="#4d4d4d" stroke-miterlimit="10"/><circle cx="458.7" cy="1027.1" r="11.7" transform="translate(-666.1 1020.9) rotate(-65.6)" fill="none" stroke="#4d4d4d" stroke-miterlimit="10"/><circle cx="458.7" cy="1027.1" r="3.3" transform="translate(-666.1 1020.9) rotate(-65.6)" fill="none" stroke="#4d4d4d" stroke-miterlimit="10"/><path d="M546.1,986.7c.3.5-.4,1.3-1,1l-2.8-1.5-1.3,1.3,24,24,4.4-4.4-24-24-.8.8Z" fill="none" stroke="#4d4d4d" stroke-miterlimit="10"/><path d="M516.1,1007.1a.8.8,0,0,1-1.3.5l-2-2.4-1.9.7,13.1,31.4,5.8-2.4-13-31.5-1,.5Z" fill="none" stroke="#4d4d4d" stroke-miterlimit="10"/><path d="M565.5,885.1a.8.8,0,0,1,.5,1.3l-2.5,2.1.6,1.7,31.1-12.9-2.4-5.8-31.1,12.9.5,1.1Z" fill="none" stroke="#4d4d4d" stroke-miterlimit="10"/><path d="M444.9,1007.7a.8.8,0,0,1-1.3-.5l.3-3.1-1.4-.6L429.3,1035l5.6,2.4,13.1-31.7-1.2-.4Z" fill="none" stroke="#4d4d4d" stroke-miterlimit="10"/><path d="M394.1,957.7a.8.8,0,0,1-.5-1.3l2.5-2-.4-1.1-31.7,13.1,2.4,5.7L398,958.9l-.7-1.5Z" fill="none" stroke="#4d4d4d" stroke-miterlimit="10"/><path d="M414.5,987.7c-.5.3-1.3-.4-1-1l1.5-2.8-1-1-24.3,24.3,4.4,4.4,24.3-24.3-1.1-1Z" fill="none" stroke="#4d4d4d" stroke-miterlimit="10"/><path d="M545.1,855.1c.5-.3,1.3.4,1,1l-1.5,2.9,1,1.1,23.9-23.9-4.4-4.4-23.9,23.9,1,.9Z" fill="none" stroke="#4d4d4d" stroke-miterlimit="10"/><path d="M566.1,956.4a.8.8,0,0,1-.5,1.3l-3.1-.3-.7,1.7L593,972l2.4-5.7-31.3-13-.4,1Z" fill="none" stroke="#4d4d4d" stroke-miterlimit="10"/><path d="M393.5,886.4a.8.8,0,0,1,.5-1.3l3.3.3.4-1-31.5-13.1-2.4,5.9,31.5,13.1.7-1.8Z" fill="none" stroke="#4d4d4d" stroke-miterlimit="10"/><path d="M443.6,835.7a.8.8,0,0,1,1.3-.5l2.1,2.6.9-.3-13-31.4-5.7,2.4,13,31.4,1.6-.7Z" fill="none" stroke="#4d4d4d" stroke-miterlimit="10"/><path d="M514.8,835.1a.8.8,0,0,1,1.3.5l-.3,3.3,1.2.5,12.9-31.2L524,806,511,837.1l1.7.6Z" fill="none" stroke="#4d4d4d" stroke-miterlimit="10"/><path d="M413.5,856.1c-.3-.5.4-1.3,1-1l3,1.6.8-.7-24.1-24.1-4.4,4.4,24.1,24.1,1.2-1.3Z" fill="none" stroke="#4d4d4d" stroke-miterlimit="10"/><circle cx="477.5" cy="945.5" r="1.5" fill="none" stroke="#4d4d4d" stroke-miterlimit="10"/><circle cx="445.9" cy="945.5" r="1.5" fill="none" stroke="#4d4d4d" stroke-miterlimit="10"/><circle cx="477.5" cy="897.8" r="1.5" fill="none" stroke="#4d4d4d" stroke-miterlimit="10"/><circle cx="477.5" cy="878" r="1.5" fill="none" stroke="#4d4d4d" stroke-miterlimit="10"/><circle cx="445.9" cy="897.8" r="1.5" fill="none" stroke="#4d4d4d" stroke-miterlimit="10"/><circle cx="445.9" cy="878" r="1.5" fill="none" stroke="#4d4d4d" stroke-miterlimit="10"/><circle cx="473.7" cy="930.3" r="1.6" fill="none" stroke="#4d4d4d" stroke-miterlimit="10"/><circle cx="468.1" cy="930.3" r="1.6" fill="none" stroke="#4d4d4d" stroke-miterlimit="10"/><circle cx="473.7" cy="912.8" r="1.6" fill="none" stroke="#4d4d4d" stroke-miterlimit="10"/><circle cx="468.1" cy="912.8" r="1.6" fill="none" stroke="#4d4d4d" stroke-miterlimit="10"/><circle cx="408.5" cy="930.3" r="1.6" fill="none" stroke="#4d4d4d" stroke-miterlimit="10"/><circle cx="402.9" cy="930.3" r="1.6" fill="none" stroke="#4d4d4d" stroke-miterlimit="10"/><circle cx="408.5" cy="912.8" r="1.6" fill="none" stroke="#4d4d4d" stroke-miterlimit="10"/><circle cx="402.9" cy="912.8" r="1.6" fill="none" stroke="#4d4d4d" stroke-miterlimit="10"/><circle cx="500.8" cy="932.1" r="1.8" fill="none" stroke="#4d4d4d" stroke-miterlimit="10"/><circle cx="494.4" cy="932.1" r="1.8" fill="none" stroke="#4d4d4d" stroke-miterlimit="10"/><circle cx="500.8" cy="911.9" r="1.8" fill="none" stroke="#4d4d4d" stroke-miterlimit="10"/><circle cx="494.4" cy="911.9" r="1.8" fill="none" stroke="#4d4d4d" stroke-miterlimit="10"/><path d="M480,1126.5c113.3,0,205.1-91.8,205.1-205.1S593.3,716.3,480,716.3,274.9,808.1,274.9,921.4,366.8,1126.5,480,1126.5Zm0-380.1a175,175,0,1,1-175,175A175,175,0,0,1,480,746.4Z" fill="none" stroke="#4d4d4d" stroke-miterlimit="10"/><circle cx="666.2" cy="958.9" r="7.5" fill="none" stroke="#4d4d4d" stroke-miterlimit="10"/><circle cx="293.3" cy="885" r="7.5" fill="none" stroke="#4d4d4d" stroke-miterlimit="10"/><circle cx="527.7" cy="756.5" r="7.5" fill="none" stroke="#4d4d4d" stroke-miterlimit="10"/><circle cx="374.1" cy="764" r="7.5" transform="translate(-430.6 488.3) rotate(-45)" fill="none" stroke="#4d4d4d" stroke-miterlimit="10"/><circle cx="637.7" cy="816.2" r="7.5" transform="translate(-390.4 690) rotate(-45)" fill="none" stroke="#4d4d4d" stroke-miterlimit="10"/><circle cx="321.8" cy="1027.6" r="7.5" transform="translate(-632.4 528.5) rotate(-45)" fill="none" stroke="#4d4d4d" stroke-miterlimit="10"/><circle cx="666.1" cy="884.7" r="7.5" transform="translate(-287.9 322.3) rotate(-22.5)" fill="none" stroke="#4d4d4d" stroke-miterlimit="10"/><circle cx="293.4" cy="959.1" r="7.5" transform="translate(-344.7 185.3) rotate(-22.5)" fill="none" stroke="#4d4d4d" stroke-miterlimit="10"/><circle cx="453.6" cy="756.5" r="7.5" transform="translate(-255 231.2) rotate(-22.5)" fill="none" stroke="#4d4d4d" stroke-miterlimit="10"/><circle cx="637.9" cy="1027.4" r="7.5" transform="translate(-555.5 1223.5) rotate(-67.5)" fill="none" stroke="#4d4d4d" stroke-miterlimit="10"/><circle cx="321.6" cy="816.4" r="7.5" transform="translate(-555.7 801.2) rotate(-67.5)" fill="none" stroke="#4d4d4d" stroke-miterlimit="10"/><circle cx="585.2" cy="763.8" r="7.5" transform="translate(-344.4 1012.2) rotate(-67.5)" fill="none" stroke="#4d4d4d" stroke-miterlimit="10"/><path d="M480,1071.4a150,150,0,1,0-150-150A150,150,0,0,0,480,1071.4Zm0-278a128,128,0,1,1-128,128A128,128,0,0,1,480,793.4Z" fill="none" stroke="#4d4d4d" stroke-miterlimit="10"/><path d="M480.7,1014.7a.8.8,0,0,1-1.4,0l-.9-3h-1.8v34h6.2v-34h-1.1Z" fill="none" stroke="#4d4d4d" stroke-miterlimit="10"/><path d="M573,920.9a.8.8,0,0,1,0,1.4l-3.2,1c0,.5,0,1,0,1.5h33.7v-6.2H569.8c0,.5,0,.9,0,1.4Z" fill="none" stroke="#4d4d4d" stroke-miterlimit="10"/><path d="M479.3,828.1a.8.8,0,0,1,1.4,0l1,3.2h1.5V797.6H477v33.7h1.4Z" fill="none" stroke="#4d4d4d" stroke-miterlimit="10"/><path d="M386.2,921.7a.8.8,0,0,1,0-1.4l3-1c0-.5,0-.9,0-1.4l-34.3.5v6.4l34.3-.3c0-1,0-1.2-.1-1.7Z" fill="none" stroke="#4d4d4d" stroke-miterlimit="10"/><circle cx="442.8" cy="1108.4" r="7.5" fill="none" stroke="#4d4d4d" stroke-miterlimit="10"/><circle cx="585.4" cy="1079.9" r="7.5" transform="translate(-592.1 730.3) rotate(-45)" fill="none" stroke="#4d4d4d" stroke-miterlimit="10"/><circle cx="516.9" cy="1108.3" r="7.5" transform="translate(-384.8 282.2) rotate(-22.5)" fill="none" stroke="#4d4d4d" stroke-miterlimit="10"/><circle cx="374.3" cy="1080" r="7.5" transform="translate(-766.8 1012.5) rotate(-67.5)" fill="none" stroke="#4d4d4d" stroke-miterlimit="10"/><circle cx="674.2" cy="1134.6" r="6.8" transform="translate(-549.8 1628.5) rotate(-81.3)" fill="none" stroke="#4d4d4d" stroke-miterlimit="10"/><circle cx="679.7" cy="1099.2" r="6.8" transform="translate(-510 1603.8) rotate(-81.3)" fill="none" stroke="#4d4d4d" stroke-miterlimit="10"/><circle cx="685.4" cy="1061.9" r="6.8" transform="translate(-468.4 1577.9) rotate(-81.3)" fill="none" stroke="#4d4d4d" stroke-miterlimit="10"/><circle cx="667.1" cy="1174.3" r="6.8" transform="translate(-594.9 1655.1) rotate(-81.3)" fill="none" stroke="#4d4d4d" stroke-miterlimit="10"/><rect x="442.5" y="874.5" width="38" height="26" fill="none" stroke="#4d4d4d" stroke-miterlimit="10"/><rect x="399.5" y="909.5" width="12" height="24" fill="none" stroke="#4d4d4d" stroke-miterlimit="10"/><rect x="389.5" y="917.5" width="10" height="9" fill="none" stroke="#4d4d4d" stroke-miterlimit="10"/><rect x="442.5" y="942.5" width="39" height="26" fill="none" stroke="#4d4d4d" stroke-miterlimit="10"/><circle cx="477.5" cy="964.8" r="1.5" fill="none" stroke="#4d4d4d" stroke-miterlimit="10"/><circle cx="445.9" cy="964.8" r="1.5" fill="none" stroke="#4d4d4d" stroke-miterlimit="10"/><rect x="464.5" y="909.5" width="13" height="25" fill="none" stroke="#4d4d4d" stroke-miterlimit="10"/><rect x="411.5" y="917.5" width="21" height="9" fill="none" stroke="#4d4d4d" stroke-miterlimit="10"/><rect x="437.5" y="917.5" width="27" height="9" fill="none" stroke="#4d4d4d" stroke-miterlimit="10"/><rect x="477.5" y="917.5" width="14" height="9" fill="none" stroke="#4d4d4d" stroke-miterlimit="10"/><rect x="432.5" y="881.5" width="5" height="80" fill="none" stroke="#4d4d4d" stroke-miterlimit="10"/><rect x="437.5" y="881.5" width="5" height="13" fill="none" stroke="#4d4d4d" stroke-miterlimit="10"/><rect x="437.5" y="948.5" width="5" height="14" fill="none" stroke="#4d4d4d" stroke-miterlimit="10"/><rect x="491.5" y="908.5" width="13" height="28" fill="none" stroke="#4d4d4d" stroke-miterlimit="10"/><rect x="495.5" y="898.5" width="4" height="10" fill="none" stroke="#4d4d4d" stroke-miterlimit="10"/><rect x="495.5" y="895.5" width="38" height="3" fill="none" stroke="#4d4d4d" stroke-miterlimit="10"/><polyline points="528.5 912 528.5 898.5 533.5 898.5 533.5 912" fill="none" stroke="#4d4d4d" stroke-miterlimit="10"/><rect x="495.5" y="936.5" width="4" height="10" fill="none" stroke="#4d4d4d" stroke-miterlimit="10"/><rect x="495.5" y="946.5" width="38" height="3" fill="none" stroke="#4d4d4d" stroke-miterlimit="10"/><polyline points="528.5 933 528.5 946.5 533.5 946.5 533.5 933" fill="none" stroke="#4d4d4d" stroke-miterlimit="10"/><polyline points="528 924.5 509.5 924.5 509.5 920.5 528 920.5" fill="none" stroke="#4d4d4d" stroke-miterlimit="10"/><polyline points="534 920.5 551.5 920.5 551.5 924.5 534 924.5" fill="none" stroke="#4d4d4d" stroke-miterlimit="10"/><polyline points="533.8 924.3 542.8 939.8 539.7 941.6 530.8 926" fill="none" stroke="#4d4d4d" stroke-miterlimit="10"/><polyline points="527.7 920.7 518.7 905.2 521.8 903.4 530.8 919" fill="none" stroke="#4d4d4d" stroke-miterlimit="10"/><polyline points="530.8 926 521.8 941.6 518.7 939.8 527.6 924.5" fill="none" stroke="#4d4d4d" stroke-miterlimit="10"/><polyline points="530.9 918.9 539.6 903.7 542.6 905.5 533.9 920.7" fill="none" stroke="#4d4d4d" stroke-miterlimit="10"/><circle cx="530.8" cy="922.5" r="1.6" fill="none" stroke="#4d4d4d" stroke-miterlimit="10"/><path d="M523.9,930.9a11,11,0,0,1-3.8-6.7" fill="none" stroke="#4d4d4d" stroke-miterlimit="10"/><path d="M534.6,932.8a11,11,0,0,1-7.7-.1" fill="none" stroke="#4d4d4d" stroke-miterlimit="10"/><path d="M541.7,924.3a11,11,0,0,1-4,6.8" fill="none" stroke="#4d4d4d" stroke-miterlimit="10"/><path d="M537.6,913.8a11,11,0,0,1,4.1,6.9" fill="none" stroke="#4d4d4d" stroke-miterlimit="10"/><path d="M526.9,912.2a11,11,0,0,1,7.8,0" fill="none" stroke="#4d4d4d" stroke-miterlimit="10"/><path d="M520,920.7a11,11,0,0,1,3.8-6.7" fill="none" stroke="#4d4d4d" stroke-miterlimit="10"/><circle cx="162.8" cy="841.7" r="6.8" transform="translate(-437.4 229.5) rotate(-33.5)" fill="none" stroke="#4d4d4d" stroke-miterlimit="10"/><circle cx="182.9" cy="873" r="6.8" transform="translate(-451.3 245.8) rotate(-33.5)" fill="none" stroke="#4d4d4d" stroke-miterlimit="10"/><circle cx="204.1" cy="906.3" r="6.8" transform="translate(-466.2 263) rotate(-33.5)" fill="none" stroke="#4d4d4d" stroke-miterlimit="10"/><circle cx="142.3" cy="810" r="6.8" transform="translate(-423.3 213) rotate(-33.5)" fill="none" stroke="#4d4d4d" stroke-miterlimit="10"/><circle cx="382.8" cy="1181.1" r="6.8" transform="translate(-588.1 407.2) rotate(-33.5)" fill="none" stroke="#4d4d4d" stroke-miterlimit="10"/><circle cx="321.8" cy="1086.7" r="6.8" transform="translate(-546.1 357.9) rotate(-33.5)" fill="none" stroke="#4d4d4d" stroke-miterlimit="10"/><circle cx="341.9" cy="1118" r="6.8" transform="translate(-560.1 374.2) rotate(-33.5)" fill="none" stroke="#4d4d4d" stroke-miterlimit="10"/><circle cx="363.1" cy="1151.3" r="6.8" transform="translate(-574.9 391.4) rotate(-33.5)" fill="none" stroke="#4d4d4d" stroke-miterlimit="10"/><circle cx="301.3" cy="1055" r="6.8" transform="translate(-532.1 341.4) rotate(-33.5)" fill="none" stroke="#4d4d4d" stroke-miterlimit="10"/><circle cx="728.9" cy="794.4" r="6.8" transform="translate(-167.1 1394) rotate(-81.3)" fill="none" stroke="#4d4d4d" stroke-miterlimit="10"/><line x1="731.5" y1="665.5" x2="647.5" y2="1181.5" fill="none" stroke="#4d4d4d" stroke-miterlimit="10"/><circle cx="736.1" cy="754.1" r="6.8" transform="translate(-121.2 1367) rotate(-81.3)" fill="none" stroke="#4d4d4d" stroke-miterlimit="10"/><circle cx="741.8" cy="716.9" r="6.8" transform="translate(-79.5 1341.1) rotate(-81.3)" fill="none" stroke="#4d4d4d" stroke-miterlimit="10"/><circle cx="747.9" cy="679.4" r="6.8" transform="translate(-37.3 1315.3) rotate(-81.3)" fill="none" stroke="#4d4d4d" stroke-miterlimit="10"/></g></svg>