<svg xmlns="http://www.w3.org/2000/svg" width="2500" height="640" viewBox="0 0 2500 640"><title>banner-safe-2500x640</title><g id="Layer_4" data-name="Layer 4"><rect x="-6.9" y="-9.2" width="2517" height="655" fill="#333332"/><line x1="543.2" y1="362.3" x2="873.1" y2="697.2" fill="none" stroke="#4d4d4d" stroke-miterlimit="10"/><line x1="531.2" y1="383.1" x2="1053" y2="463.1" fill="none" stroke="#4d4d4d" stroke-miterlimit="10"/><line x1="580.6" y1="226.3" x2="1924.5" y2="694.1" fill="none" stroke="#4d4d4d" stroke-miterlimit="10"/><line x1="580.6" y1="250.3" x2="1923.5" y2="1.1" fill="none" stroke="#4d4d4d" stroke-miterlimit="10"/><line x1="79.9" y1="383.1" x2="-4.9" y2="408" fill="none" stroke="#4d4d4d" stroke-miterlimit="10"/><line x1="67.9" y1="362.3" x2="-4.9" y2="430.1" fill="none" stroke="#4d4d4d" stroke-miterlimit="10"/><line x1="28.6" y1="249.8" x2="-4.9" y2="240.4" fill="none" stroke="#4d4d4d" stroke-miterlimit="10"/><line x1="28.6" y1="225.8" x2="-4.9" y2="237.8" fill="none" stroke="#4d4d4d" stroke-miterlimit="10"/><line x1="543.2" y1="115.6" x2="714.4" y2="-47.8" fill="none" stroke="#4d4d4d" stroke-miterlimit="10"/><line x1="531.2" y1="94.8" x2="932.1" y2="-48.7" fill="none" stroke="#4d4d4d" stroke-miterlimit="10"/><line x1="449.7" y1="13.3" x2="465.7" y2="-48.2" fill="none" stroke="#4d4d4d" stroke-miterlimit="10"/><line x1="428.9" y1="1.3" x2="482.1" y2="-48.2" fill="none" stroke="#4d4d4d" stroke-miterlimit="10"/><line x1="182.2" y1="1.3" x2="138.6" y2="-47.8" fill="none" stroke="#4d4d4d" stroke-miterlimit="10"/><line x1="161.4" y1="13.3" x2="148.2" y2="-48.2" fill="none" stroke="#4d4d4d" stroke-miterlimit="10"/><line x1="79.9" y1="94.8" x2="-5.1" y2="76.1" fill="none" stroke="#4d4d4d" stroke-miterlimit="10"/><line x1="67.9" y1="115.6" x2="-6.6" y2="48.5" fill="none" stroke="#4d4d4d" stroke-miterlimit="10"/><line x1="1424.6" y1="415.3" x2="1122.1" y2="-50.1" fill="none" stroke="#4d4d4d" stroke-miterlimit="10"/><path d="M293.6,490.5a250.4,250.4,0,0,1-103.5-27.6" fill="none" stroke="#4d4d4d" stroke-miterlimit="10"/><path d="M420.9,462.8a250.4,250.4,0,0,1-103.3,27.7" fill="none" stroke="#4d4d4d" stroke-miterlimit="10"/><path d="M517.1,375.4a253.2,253.2,0,0,1-75.4,75.3" fill="none" stroke="#4d4d4d" stroke-miterlimit="10"/><path d="M557,249.8a250.5,250.5,0,0,1-27.7,104.5" fill="none" stroke="#4d4d4d" stroke-miterlimit="10"/><path d="M529.3,123.6a250.4,250.4,0,0,1,27.6,102.2" fill="none" stroke="#4d4d4d" stroke-miterlimit="10"/><path d="M441.8,27.2a253.2,253.2,0,0,1,75.5,75.6" fill="none" stroke="#4d4d4d" stroke-miterlimit="10"/><path d="M317.7-12.6A250.4,250.4,0,0,1,420.9,15.1" fill="none" stroke="#4d4d4d" stroke-miterlimit="10"/><path d="M190.1,15A250.4,250.4,0,0,1,293.4-12.6" fill="none" stroke="#4d4d4d" stroke-miterlimit="10"/><path d="M93.5,102.7A253.2,253.2,0,0,1,169.3,27" fill="none" stroke="#4d4d4d" stroke-miterlimit="10"/><path d="M53.8,226.1A250.4,250.4,0,0,1,81.5,123.4" fill="none" stroke="#4d4d4d" stroke-miterlimit="10"/><path d="M81.5,354.5A250.5,250.5,0,0,1,53.8,250.3" fill="none" stroke="#4d4d4d" stroke-miterlimit="10"/><path d="M169.3,450.9a253.2,253.2,0,0,1-75.7-75.5" fill="none" stroke="#4d4d4d" stroke-miterlimit="10"/><path d="M109.4,339a218.8,218.8,0,0,1-23.7-88.7" fill="none" stroke="#4d4d4d" stroke-miterlimit="10"/><path d="M185.3,423.3a221.2,221.2,0,0,1-64.1-64" fill="none" stroke="#4d4d4d" stroke-miterlimit="10"/><path d="M293.6,458.6a218.8,218.8,0,0,1-87.6-23.3" fill="none" stroke="#4d4d4d" stroke-miterlimit="10"/><path d="M405,435.1a218.7,218.7,0,0,1-87.4,23.5" fill="none" stroke="#4d4d4d" stroke-miterlimit="10"/><path d="M489.7,359.1a221.2,221.2,0,0,1-63.9,64" fill="none" stroke="#4d4d4d" stroke-miterlimit="10"/><path d="M525.1,249.8a218.8,218.8,0,0,1-23.4,88.5" fill="none" stroke="#4d4d4d" stroke-miterlimit="10"/><path d="M501.7,139.6A218.7,218.7,0,0,1,525,225.8" fill="none" stroke="#4d4d4d" stroke-miterlimit="10"/><path d="M425.8,54.8a221.2,221.2,0,0,1,63.9,64" fill="none" stroke="#4d4d4d" stroke-miterlimit="10"/><path d="M317.7,19.3A218.7,218.7,0,0,1,405,42.7" fill="none" stroke="#4d4d4d" stroke-miterlimit="10"/><path d="M206.1,42.6a218.8,218.8,0,0,1,87.6-23.3" fill="none" stroke="#4d4d4d" stroke-miterlimit="10"/><path d="M121.2,118.6a221.2,221.2,0,0,1,64.1-64" fill="none" stroke="#4d4d4d" stroke-miterlimit="10"/><path d="M85.7,225.8a218.7,218.7,0,0,1,23.4-86.5" fill="none" stroke="#4d4d4d" stroke-miterlimit="10"/><line x1="440.9" y1="174.7" x2="370" y2="215.6" fill="none" stroke="#4d4d4d" stroke-miterlimit="10"/><polyline points="457.3 137.5 531.2 94.8 543.2 115.6 469.6 158.1" fill="none" stroke="#4d4d4d" stroke-miterlimit="10"/><line x1="358" y1="194.8" x2="429.2" y2="153.7" fill="none" stroke="#4d4d4d" stroke-miterlimit="10"/><line x1="169.9" y1="303.4" x2="241.1" y2="262.3" fill="none" stroke="#4d4d4d" stroke-miterlimit="10"/><polyline points="153.6 340.6 79.9 383.1 67.9 362.3 141.5 319.8" fill="none" stroke="#4d4d4d" stroke-miterlimit="10"/><line x1="253.1" y1="283.1" x2="181.8" y2="324.3" fill="none" stroke="#4d4d4d" stroke-miterlimit="10"/><line x1="369.9" y1="374.4" x2="328.9" y2="303.4" fill="none" stroke="#4d4d4d" stroke-miterlimit="10"/><polyline points="407.4 391.3 449.7 464.6 428.9 476.6 386.6 403.2" fill="none" stroke="#4d4d4d" stroke-miterlimit="10"/><line x1="349.7" y1="291.4" x2="390.7" y2="362.3" fill="none" stroke="#4d4d4d" stroke-miterlimit="10"/><line x1="241.2" y1="103.5" x2="282.2" y2="174.5" fill="none" stroke="#4d4d4d" stroke-miterlimit="10"/><polyline points="204 87 161.4 13.3 182.2 1.3 224.8 75" fill="none" stroke="#4d4d4d" stroke-miterlimit="10"/><line x1="261.4" y1="186.5" x2="220.4" y2="115.3" fill="none" stroke="#4d4d4d" stroke-miterlimit="10"/><line x1="428.9" y1="324" x2="358" y2="283.1" fill="none" stroke="#4d4d4d" stroke-miterlimit="10"/><polyline points="469.3 319.6 543.2 362.3 531.2 383.1 457.3 340.4" fill="none" stroke="#4d4d4d" stroke-miterlimit="10"/><line x1="370" y1="262.3" x2="440.9" y2="303.2" fill="none" stroke="#4d4d4d" stroke-miterlimit="10"/><line x1="181.9" y1="153.7" x2="253.1" y2="194.8" fill="none" stroke="#4d4d4d" stroke-miterlimit="10"/><polyline points="141.5 158.1 67.9 115.6 79.9 94.8 153.5 137.3" fill="none" stroke="#4d4d4d" stroke-miterlimit="10"/><line x1="241.1" y1="215.6" x2="169.9" y2="174.5" fill="none" stroke="#4d4d4d" stroke-miterlimit="10"/><line x1="220.4" y1="362.6" x2="261.4" y2="291.4" fill="none" stroke="#4d4d4d" stroke-miterlimit="10"/><polyline points="224.8 402.9 182.2 476.6 161.4 464.6 204 390.9" fill="none" stroke="#4d4d4d" stroke-miterlimit="10"/><line x1="282.2" y1="303.4" x2="241.2" y2="374.4" fill="none" stroke="#4d4d4d" stroke-miterlimit="10"/><line x1="390.8" y1="115.3" x2="349.7" y2="186.5" fill="none" stroke="#4d4d4d" stroke-miterlimit="10"/><polyline points="386.3 75.2 428.9 1.3 449.7 13.3 407 87.2" fill="none" stroke="#4d4d4d" stroke-miterlimit="10"/><line x1="328.9" y1="174.5" x2="369.9" y2="103.5" fill="none" stroke="#4d4d4d" stroke-miterlimit="10"/><circle cx="305.4" cy="238.9" r="182.7" fill="none" stroke="#4d4d4d" stroke-miterlimit="10"/><path d="M216,59.9a198.8,198.8,0,0,1,77.4-20.7" fill="none" stroke="#4d4d4d" stroke-miterlimit="10"/><path d="M138.5,128.6a201.1,201.1,0,0,1,56.8-56.7" fill="none" stroke="#4d4d4d" stroke-miterlimit="10"/><path d="M105.8,225.8a198.8,198.8,0,0,1,20.3-75.7" fill="none" stroke="#4d4d4d" stroke-miterlimit="10"/><path d="M126.1,327.8a198.9,198.9,0,0,1-20.5-78" fill="none" stroke="#4d4d4d" stroke-miterlimit="10"/><path d="M195.3,406a201.1,201.1,0,0,1-56.8-56.7" fill="none" stroke="#4d4d4d" stroke-miterlimit="10"/><path d="M293.7,438.6A198.8,198.8,0,0,1,216.1,418" fill="none" stroke="#4d4d4d" stroke-miterlimit="10"/><path d="M395,417.8a198.8,198.8,0,0,1-77.3,20.8" fill="none" stroke="#4d4d4d" stroke-miterlimit="10"/><path d="M472.3,349.1a201.1,201.1,0,0,1-56.6,56.7" fill="none" stroke="#4d4d4d" stroke-miterlimit="10"/><path d="M505,250.3a198.9,198.9,0,0,1-20.9,78.4" fill="none" stroke="#4d4d4d" stroke-miterlimit="10"/><path d="M484.6,150.1a198.8,198.8,0,0,1,20.3,75.7" fill="none" stroke="#4d4d4d" stroke-miterlimit="10"/><path d="M415.7,72.1a201.1,201.1,0,0,1,56.6,56.7" fill="none" stroke="#4d4d4d" stroke-miterlimit="10"/><path d="M317.7,39.3A198.8,198.8,0,0,1,395,60.1" fill="none" stroke="#4d4d4d" stroke-miterlimit="10"/><circle cx="305.4" cy="238.9" r="182.7" fill="none" stroke="#4d4d4d" stroke-miterlimit="10"/><circle cx="305.4" cy="238.9" r="150" fill="none" stroke="#4d4d4d" stroke-miterlimit="10"/><path d="M383.9,126.7a137.8,137.8,0,0,1,34,34.2" fill="none" stroke="#4d4d4d" stroke-miterlimit="10"/><circle cx="305.4" cy="238.9" r="150" fill="none" stroke="#4d4d4d" stroke-miterlimit="10"/><path d="M169,226.1A136.1,136.1,0,0,1,181.2,181" fill="none" stroke="#4d4d4d" stroke-miterlimit="10"/><path d="M181.2,296.8a136.1,136.1,0,0,1-12.3-46.6" fill="none" stroke="#4d4d4d" stroke-miterlimit="10"/><path d="M226.9,351.3a137.8,137.8,0,0,1-33.7-33.6" fill="none" stroke="#4d4d4d" stroke-miterlimit="10"/><path d="M293.7,375.4a136.1,136.1,0,0,1-45.5-11.9" fill="none" stroke="#4d4d4d" stroke-miterlimit="10"/><path d="M363.3,363.1a136.1,136.1,0,0,1-45.6,12.3" fill="none" stroke="#4d4d4d" stroke-miterlimit="10"/><path d="M417.4,317.8a137.8,137.8,0,0,1-33.3,33.3" fill="none" stroke="#4d4d4d" stroke-miterlimit="10"/><path d="M441.9,249.8a136.2,136.2,0,0,1-12.3,46.9" fill="none" stroke="#4d4d4d" stroke-miterlimit="10"/><path d="M430.1,182.2a136.1,136.1,0,0,1,11.7,44.2" fill="none" stroke="#4d4d4d" stroke-miterlimit="10"/><path d="M317.7,102.5A136.1,136.1,0,0,1,363.8,115" fill="none" stroke="#4d4d4d" stroke-miterlimit="10"/><path d="M248.1,114.5a136.1,136.1,0,0,1,45.3-12" fill="none" stroke="#4d4d4d" stroke-miterlimit="10"/><path d="M193.5,159.9a137.8,137.8,0,0,1,33.4-33.2" fill="none" stroke="#4d4d4d" stroke-miterlimit="10"/><path d="M237,234.6a68.1,68.1,0,0,1,7-26" fill="none" stroke="#4d4d4d" stroke-miterlimit="10"/><path d="M244,269.3a68.1,68.1,0,0,1-6.9-25.8" fill="none" stroke="#4d4d4d" stroke-miterlimit="10"/><path d="M267.5,296a68.9,68.9,0,0,1-19-18.9" fill="none" stroke="#4d4d4d" stroke-miterlimit="10"/><path d="M301.2,307.3a68.1,68.1,0,0,1-26-6.8" fill="none" stroke="#4d4d4d" stroke-miterlimit="10"/><path d="M335.8,300.3a68.1,68.1,0,0,1-25.1,6.9" fill="none" stroke="#4d4d4d" stroke-miterlimit="10"/><path d="M362.4,276.9a68.9,68.9,0,0,1-18.8,18.9" fill="none" stroke="#4d4d4d" stroke-miterlimit="10"/><path d="M373.7,243.1a68.1,68.1,0,0,1-6.9,26" fill="none" stroke="#4d4d4d" stroke-miterlimit="10"/><path d="M367.1,209.3a68.1,68.1,0,0,1,6.6,25.3" fill="none" stroke="#4d4d4d" stroke-miterlimit="10"/><path d="M343.6,182.1A68.9,68.9,0,0,1,362.4,201" fill="none" stroke="#4d4d4d" stroke-miterlimit="10"/><path d="M309.9,170.6a68.1,68.1,0,0,1,25.9,7" fill="none" stroke="#4d4d4d" stroke-miterlimit="10"/><path d="M275.2,177.4a68.1,68.1,0,0,1,25.7-6.8" fill="none" stroke="#4d4d4d" stroke-miterlimit="10"/><path d="M248.5,200.8a68.9,68.9,0,0,1,19-18.9" fill="none" stroke="#4d4d4d" stroke-miterlimit="10"/><path d="M309.9,164.1a74.6,74.6,0,0,1,29.3,7.9" fill="none" stroke="#4d4d4d" stroke-miterlimit="10"/><path d="M272,171.8a74.6,74.6,0,0,1,29.3-7.7" fill="none" stroke="#4d4d4d" stroke-miterlimit="10"/><path d="M242.8,197.5a75.4,75.4,0,0,1,21.4-21.3" fill="none" stroke="#4d4d4d" stroke-miterlimit="10"/><path d="M230.5,234.6a74.6,74.6,0,0,1,7.9-29.4" fill="none" stroke="#4d4d4d" stroke-miterlimit="10"/><path d="M238.5,272.9a74.6,74.6,0,0,1-8-29.3" fill="none" stroke="#4d4d4d" stroke-miterlimit="10"/><path d="M264.2,301.6a75.4,75.4,0,0,1-21.1-20.9" fill="none" stroke="#4d4d4d" stroke-miterlimit="10"/><path d="M301.2,313.8a74.6,74.6,0,0,1-29.3-7.7" fill="none" stroke="#4d4d4d" stroke-miterlimit="10"/><path d="M339.1,305.9a74.6,74.6,0,0,1-28.9,7.8" fill="none" stroke="#4d4d4d" stroke-miterlimit="10"/><path d="M368,280.2a75.4,75.4,0,0,1-21.2,21.3" fill="none" stroke="#4d4d4d" stroke-miterlimit="10"/><path d="M380.2,243.1a74.6,74.6,0,0,1-7.7,29.3" fill="none" stroke="#4d4d4d" stroke-miterlimit="10"/><path d="M372.4,205.4a74.6,74.6,0,0,1,7.8,28.7" fill="none" stroke="#4d4d4d" stroke-miterlimit="10"/><path d="M346.8,176.5a75.4,75.4,0,0,1,21.3,21.4" fill="none" stroke="#4d4d4d" stroke-miterlimit="10"/><path d="M246.8,267.2a64.6,64.6,0,0,1-6.3-23.6" fill="none" stroke="#4d4d4d" stroke-miterlimit="10"/><path d="M269.2,293a65.4,65.4,0,0,1-17.7-17.6" fill="none" stroke="#4d4d4d" stroke-miterlimit="10"/><path d="M301,303.8a64.6,64.6,0,0,1-24-6.4" fill="none" stroke="#4d4d4d" stroke-miterlimit="10"/><path d="M334.1,297.3a64.6,64.6,0,0,1-23.9,6.5" fill="none" stroke="#4d4d4d" stroke-miterlimit="10"/><path d="M359.3,275.2a65.4,65.4,0,0,1-17.5,17.6" fill="none" stroke="#4d4d4d" stroke-miterlimit="10"/><path d="M370.2,243.3a64.6,64.6,0,0,1-6.2,23.8" fill="none" stroke="#4d4d4d" stroke-miterlimit="10"/><path d="M363.8,210.5a64.6,64.6,0,0,1,6.4,23.8" fill="none" stroke="#4d4d4d" stroke-miterlimit="10"/><path d="M341.8,185.1a65.4,65.4,0,0,1,17.5,17.6" fill="none" stroke="#4d4d4d" stroke-miterlimit="10"/><path d="M309.7,174.1a64.6,64.6,0,0,1,24.3,6.5" fill="none" stroke="#4d4d4d" stroke-miterlimit="10"/><path d="M277,180.4a64.6,64.6,0,0,1,24-6.4" fill="none" stroke="#4d4d4d" stroke-miterlimit="10"/><path d="M251.5,202.6a65.4,65.4,0,0,1,17.7-17.6" fill="none" stroke="#4d4d4d" stroke-miterlimit="10"/><path d="M240.5,234.6a64.6,64.6,0,0,1,6.5-24.3" fill="none" stroke="#4d4d4d" stroke-miterlimit="10"/><rect x="322.4" y="203.2" width="74.8" height="8.97" transform="translate(775.2 207.6) rotate(150)" fill="none" stroke="#4d4d4d" stroke-miterlimit="10"/><rect x="214" y="265.8" width="74.8" height="8.97" transform="translate(604.2 378.6) rotate(150)" fill="none" stroke="#4d4d4d" stroke-miterlimit="10"/><rect x="299.5" y="288.7" width="74.8" height="8.97" transform="translate(251.4 731.5) rotate(-120)" fill="none" stroke="#4d4d4d" stroke-miterlimit="10"/><rect x="236.9" y="180.2" width="74.8" height="8.97" transform="translate(251.4 514.6) rotate(-120)" fill="none" stroke="#4d4d4d" stroke-miterlimit="10"/><rect x="322.4" y="265.8" width="74.8" height="8.97" transform="translate(536.3 684.2) rotate(-150)" fill="none" stroke="#4d4d4d" stroke-miterlimit="10"/><rect x="214" y="203.2" width="74.8" height="8.97" transform="translate(365.2 513.1) rotate(-150)" fill="none" stroke="#4d4d4d" stroke-miterlimit="10"/><rect x="236.9" y="288.7" width="74.8" height="8.97" transform="translate(-116.8 384.1) rotate(-60)" fill="none" stroke="#4d4d4d" stroke-miterlimit="10"/><rect x="299.5" y="180.2" width="74.8" height="8.97" transform="translate(8.5 384.1) rotate(-60)" fill="none" stroke="#4d4d4d" stroke-miterlimit="10"/><circle cx="76.9" cy="178.2" r="7.1" fill="none" stroke="#4d4d4d" stroke-miterlimit="10"/><circle cx="367.5" cy="11.9" r="7.1" fill="none" stroke="#4d4d4d" stroke-miterlimit="10"/><circle cx="243.2" cy="468.8" r="7.1" fill="none" stroke="#4d4d4d" stroke-miterlimit="10"/><circle cx="472.1" cy="408.4" r="7.1" transform="translate(-117.6 613.1) rotate(-60)" fill="none" stroke="#4d4d4d" stroke-miterlimit="10"/><circle cx="138.6" cy="72.3" r="7.1" transform="translate(6.7 156.2) rotate(-60)" fill="none" stroke="#4d4d4d" stroke-miterlimit="10"/><circle cx="473.4" cy="73.6" r="7.1" transform="translate(173 446.7) rotate(-60)" fill="none" stroke="#4d4d4d" stroke-miterlimit="10"/><circle cx="137.3" cy="407.1" r="7.1" transform="translate(-283.9 322.5) rotate(-60)" fill="none" stroke="#4d4d4d" stroke-miterlimit="10"/><circle cx="76.4" cy="300.8" r="7.1" transform="translate(-140.1 78.5) rotate(-30)" fill="none" stroke="#4d4d4d" stroke-miterlimit="10"/><circle cx="244.9" cy="11.4" r="7.1" transform="translate(27.1 124) rotate(-30)" fill="none" stroke="#4d4d4d" stroke-miterlimit="10"/><circle cx="365.8" cy="469.3" r="7.1" transform="translate(-185.6 245.8) rotate(-30)" fill="none" stroke="#4d4d4d" stroke-miterlimit="10"/><circle cx="533.8" cy="302.5" r="7.1" fill="none" stroke="#4d4d4d" stroke-miterlimit="10"/><circle cx="534.3" cy="179.9" r="7.1" transform="translate(-18.4 291.2) rotate(-30)" fill="none" stroke="#4d4d4d" stroke-miterlimit="10"/><circle cx="1458" cy="73" r="6.8" transform="translate(10.6 263.2) rotate(-10.4)" fill="none" stroke="#4d4d4d" stroke-miterlimit="10"/><circle cx="1491.7" cy="66.9" r="6.8" transform="translate(12.3 269.1) rotate(-10.4)" fill="none" stroke="#4d4d4d" stroke-miterlimit="10"/><circle cx="1526.8" cy="60.5" r="6.8" transform="matrix(0.98, -0.18, 0.18, 0.98, 13.99, 275.34)" fill="none" stroke="#4d4d4d" stroke-miterlimit="10"/><circle cx="1560.5" cy="54.3" r="6.8" transform="translate(15.6 281.3) rotate(-10.4)" fill="none" stroke="#4d4d4d" stroke-miterlimit="10"/><circle cx="1596.6" cy="47.7" r="6.8" transform="translate(17.4 287.7) rotate(-10.4)" fill="none" stroke="#4d4d4d" stroke-miterlimit="10"/><circle cx="1630.3" cy="41.5" r="6.8" transform="translate(19.1 293.6) rotate(-10.4)" fill="none" stroke="#4d4d4d" stroke-miterlimit="10"/><circle cx="1665.4" cy="35.1" r="6.8" transform="translate(20.8 299.8) rotate(-10.4)" fill="none" stroke="#4d4d4d" stroke-miterlimit="10"/><circle cx="1699.1" cy="29" r="6.8" transform="matrix(0.98, -0.18, 0.18, 0.98, 22.45, 305.8)" fill="none" stroke="#4d4d4d" stroke-miterlimit="10"/><circle cx="1733.2" cy="22.7" r="6.8" transform="translate(24.1 311.8) rotate(-10.4)" fill="none" stroke="#4d4d4d" stroke-miterlimit="10"/><circle cx="1766.9" cy="16.6" r="6.8" transform="translate(25.8 317.8) rotate(-10.4)" fill="none" stroke="#4d4d4d" stroke-miterlimit="10"/><circle cx="1802" cy="10.2" r="6.8" transform="translate(27.5 324) rotate(-10.4)" fill="none" stroke="#4d4d4d" stroke-miterlimit="10"/><circle cx="1835.7" cy="4" r="6.8" transform="translate(29.2 329.9) rotate(-10.4)" fill="none" stroke="#4d4d4d" stroke-miterlimit="10"/><circle cx="1872.8" cy="-2.8" r="6.8" transform="translate(31 336.5) rotate(-10.4)" fill="none" stroke="#4d4d4d" stroke-miterlimit="10"/><circle cx="1248.5" cy="111.3" r="6.8" transform="translate(0.3 226.2) rotate(-10.4)" fill="none" stroke="#4d4d4d" stroke-miterlimit="10"/><circle cx="1283.6" cy="104.9" r="6.8" transform="translate(2 232.4) rotate(-10.4)" fill="none" stroke="#4d4d4d" stroke-miterlimit="10"/><circle cx="1317.3" cy="98.7" r="6.8" transform="translate(3.7 238.3) rotate(-10.4)" fill="none" stroke="#4d4d4d" stroke-miterlimit="10"/><circle cx="1353.4" cy="92.1" r="6.8" transform="translate(5.5 244.7) rotate(-10.4)" fill="none" stroke="#4d4d4d" stroke-miterlimit="10"/><circle cx="1387.1" cy="86" r="6.8" transform="translate(7.1 250.7) rotate(-10.4)" fill="none" stroke="#4d4d4d" stroke-miterlimit="10"/><circle cx="1422.2" cy="79.6" r="6.8" transform="translate(8.9 256.9) rotate(-10.4)" fill="none" stroke="#4d4d4d" stroke-miterlimit="10"/><circle cx="689.5" cy="288.6" r="6.8" transform="translate(191.6 846.1) rotate(-70.9)" fill="none" stroke="#4d4d4d" stroke-miterlimit="10"/><circle cx="721.9" cy="299.8" r="6.8" transform="translate(202.9 884.3) rotate(-70.9)" fill="none" stroke="#4d4d4d" stroke-miterlimit="10"/><circle cx="755.6" cy="311.4" r="6.8" transform="translate(214.5 924) rotate(-70.9)" fill="none" stroke="#4d4d4d" stroke-miterlimit="10"/><circle cx="788" cy="322.6" r="6.8" transform="translate(225.8 962.1) rotate(-70.9)" fill="none" stroke="#4d4d4d" stroke-miterlimit="10"/><circle cx="822.7" cy="334.6" r="6.8" transform="translate(237.8 1003) rotate(-70.9)" fill="none" stroke="#4d4d4d" stroke-miterlimit="10"/><circle cx="855.1" cy="345.8" r="6.8" transform="translate(249.1 1041.2) rotate(-70.9)" fill="none" stroke="#4d4d4d" stroke-miterlimit="10"/><circle cx="888.8" cy="357.5" r="6.8" transform="translate(260.8 1080.9) rotate(-70.9)" fill="none" stroke="#4d4d4d" stroke-miterlimit="10"/><circle cx="921.2" cy="368.6" r="6.8" transform="translate(272 1119) rotate(-70.9)" fill="none" stroke="#4d4d4d" stroke-miterlimit="10"/><circle cx="954" cy="380" r="6.8" transform="translate(283.4 1157.6) rotate(-70.9)" fill="none" stroke="#4d4d4d" stroke-miterlimit="10"/><circle cx="2212.4" cy="353.8" r="6.8" transform="translate(513.8 1814.9) rotate(-49.8)" fill="none" stroke="#4d4d4d" stroke-miterlimit="10"/><circle cx="2235.6" cy="326.4" r="6.8" transform="translate(543 1822.9) rotate(-49.8)" fill="none" stroke="#4d4d4d" stroke-miterlimit="10"/><circle cx="2259.9" cy="297.7" r="6.8" transform="translate(573.6 1831.3) rotate(-49.8)" fill="none" stroke="#4d4d4d" stroke-miterlimit="10"/><circle cx="2134.8" cy="442.7" r="6.8" transform="translate(418.4 1787.1) rotate(-49.8)" fill="none" stroke="#4d4d4d" stroke-miterlimit="10"/><circle cx="621.5" cy="265.1" r="6.8" transform="translate(168 766) rotate(-70.9)" fill="none" stroke="#4d4d4d" stroke-miterlimit="10"/><circle cx="655.2" cy="276.7" r="6.8" transform="translate(179.7 805.6) rotate(-70.9)" fill="none" stroke="#4d4d4d" stroke-miterlimit="10"/><circle cx="2161.4" cy="412.7" r="6.8" transform="translate(450.8 1796.8) rotate(-49.8)" fill="none" stroke="#4d4d4d" stroke-miterlimit="10"/><circle cx="2185.7" cy="383.9" r="6.8" transform="translate(481.4 1805.2) rotate(-49.8)" fill="none" stroke="#4d4d4d" stroke-miterlimit="10"/><circle cx="1022.1" cy="403.6" r="6.8" transform="translate(306.9 1237.9) rotate(-70.9)" fill="none" stroke="#4d4d4d" stroke-miterlimit="10"/><circle cx="1054.5" cy="414.8" r="6.8" transform="translate(318.1 1276.1) rotate(-70.9)" fill="none" stroke="#4d4d4d" stroke-miterlimit="10"/><circle cx="1088.1" cy="426.5" r="6.8" transform="translate(329.8 1315.7) rotate(-70.9)" fill="none" stroke="#4d4d4d" stroke-miterlimit="10"/><circle cx="1120.6" cy="437.7" r="6.8" transform="translate(341 1353.9) rotate(-70.9)" fill="none" stroke="#4d4d4d" stroke-miterlimit="10"/><circle cx="1155.3" cy="449.6" r="6.8" transform="translate(353.1 1394.8) rotate(-70.9)" fill="none" stroke="#4d4d4d" stroke-miterlimit="10"/><circle cx="1187.7" cy="460.8" r="6.8" transform="translate(364.3 1433) rotate(-70.9)" fill="none" stroke="#4d4d4d" stroke-miterlimit="10"/><circle cx="1221.4" cy="471.8" r="6.8" transform="translate(376.7 1472.2) rotate(-70.9)" fill="none" stroke="#4d4d4d" stroke-miterlimit="10"/><circle cx="1253.8" cy="483" r="6.8" transform="translate(387.9 1510.3) rotate(-70.9)" fill="none" stroke="#4d4d4d" stroke-miterlimit="10"/><circle cx="1286.5" cy="494.3" r="6.8" transform="translate(399.3 1548.9) rotate(-70.9)" fill="none" stroke="#4d4d4d" stroke-miterlimit="10"/><circle cx="987.7" cy="391.8" r="6.8" transform="translate(294.9 1197.4) rotate(-70.9)" fill="none" stroke="#4d4d4d" stroke-miterlimit="10"/><line x1="161.4" y1="464.6" x2="95.5" y2="697.2" fill="none" stroke="#4d4d4d" stroke-miterlimit="10"/><line x1="182.2" y1="476.6" x2="-5.1" y2="651.4" fill="none" stroke="#4d4d4d" stroke-miterlimit="10"/><line x1="428.9" y1="476.6" x2="678" y2="698.9" fill="none" stroke="#4d4d4d" stroke-miterlimit="10"/><line x1="449.7" y1="464.6" x2="515.1" y2="695.9" fill="none" stroke="#4d4d4d" stroke-miterlimit="10"/><circle cx="1320.2" cy="505.6" r="6.8" transform="translate(411.2 1588.4) rotate(-70.9)" fill="none" stroke="#4d4d4d" stroke-miterlimit="10"/><circle cx="1352.6" cy="516.8" r="6.8" transform="translate(422.5 1626.6) rotate(-70.9)" fill="none" stroke="#4d4d4d" stroke-miterlimit="10"/><circle cx="1387.3" cy="528.8" r="6.8" transform="translate(434.5 1667.5) rotate(-70.9)" fill="none" stroke="#4d4d4d" stroke-miterlimit="10"/><circle cx="1419.7" cy="540" r="6.8" transform="translate(445.8 1705.6) rotate(-70.9)" fill="none" stroke="#4d4d4d" stroke-miterlimit="10"/><circle cx="1453.4" cy="550.9" r="6.8" transform="translate(458.1 1744.8) rotate(-70.9)" fill="none" stroke="#4d4d4d" stroke-miterlimit="10"/><circle cx="1485.8" cy="562.1" r="6.8" transform="translate(469.4 1783) rotate(-70.9)" fill="none" stroke="#4d4d4d" stroke-miterlimit="10"/><circle cx="1518.6" cy="573.5" r="6.8" transform="translate(480.8 1821.6) rotate(-70.9)" fill="none" stroke="#4d4d4d" stroke-miterlimit="10"/><line x1="293.6" y1="514.4" x2="343.4" y2="705.2" fill="none" stroke="#4d4d4d" stroke-miterlimit="10"/><line x1="317.6" y1="514.4" x2="269.9" y2="703.9" fill="none" stroke="#4d4d4d" stroke-miterlimit="10"/><line x1="1649.4" y1="113" x2="2502.6" y2="325.3" fill="none" stroke="#4d4d4d" stroke-miterlimit="10"/><path d="M1691.9,293.4l2.7.3a14,14,0,0,0,.7,3l-2.3,1.6a.8.8,0,0,0,.7,1.4l2.6-.8a14.1,14.1,0,0,0,1.8,2.5l-1.5,2.3a.8.8,0,0,0,1.2,1.1l2.1-1.7a14.1,14.1,0,0,0,2.7,1.6l-.5,2.7a.8.8,0,0,0,1.5.5l1.3-2.4a14,14,0,0,0,3.1.5l.5,2.7a.8.8,0,0,0,1.6-.1l.3-2.8a14,14,0,0,0,3-.7l1.5,2.3a.8.8,0,0,0,1.4-.7l-.8-2.7a14.1,14.1,0,0,0,2.5-1.8l2.3,1.6a.8.8,0,0,0,1.1-1.2l-1.8-2.2a14.1,14.1,0,0,0,1.6-2.6l2.8.6a.8.8,0,0,0,.5-1.5l-2.5-1.4a14,14,0,0,0,.4-3l2.8-.5a.8.8,0,0,0-.1-1.6l-2.9-.3a14,14,0,0,0-.7-3l2.4-1.6a.8.8,0,0,0-.7-1.5l-2.8.8a14.1,14.1,0,0,0-1.8-2.5l1.6-2.5a.8.8,0,0,0-1.2-1.1l-2.2,1.8a14.1,14.1,0,0,0-2.6-1.5l.5-2.9a.8.8,0,0,0-1.5-.5l-1.4,2.5a14,14,0,0,0-3-.4l-.6-2.8a.8.8,0,0,0-1.6.1l-.3,2.8a14,14,0,0,0-3,.7l-1.6-2.3a.8.8,0,0,0-1.4.7l.8,2.7a14.1,14.1,0,0,0-2.5,1.8l-2.4-1.5a.8.8,0,0,0-1.1,1.2l1.8,2.2a14.1,14.1,0,0,0-1.6,2.6l-2.8-.5a.8.8,0,0,0-.5,1.5l2.4,1.3a14,14,0,0,0-.5,3.1l-2.7.6A.8.8,0,0,0,1691.9,293.4Z" fill="none" stroke="#4d4d4d" stroke-miterlimit="10"/><circle cx="1708.7" cy="291.7" r="11.7" transform="translate(-10.9 73.1) rotate(-2.4)" fill="none" stroke="#4d4d4d" stroke-miterlimit="10"/><circle cx="1708.7" cy="291.7" r="3.3" transform="translate(-10.9 73.1) rotate(-2.4)" fill="none" stroke="#4d4d4d" stroke-miterlimit="10"/><path d="M1480.1,334.5l2.7.5a14,14,0,0,0,.5,3.1l-2.4,1.4a.8.8,0,0,0,.6,1.5l2.7-.6a14.1,14.1,0,0,0,1.6,2.6l-1.7,2.2a.8.8,0,0,0,1.1,1.2l2.3-1.6a14.1,14.1,0,0,0,2.5,1.8l-.7,2.6a.8.8,0,0,0,1.5.7l1.5-2.3a14,14,0,0,0,3.1.7l.3,2.7a.8.8,0,0,0,1.6.1l.5-2.7a14,14,0,0,0,3.1-.5l1.4,2.4a.8.8,0,0,0,1.5-.6l-.6-2.7a14.1,14.1,0,0,0,2.6-1.6l2.2,1.8a.8.8,0,0,0,1.2-1.1l-1.6-2.3a14.1,14.1,0,0,0,1.8-2.5l2.7.8a.8.8,0,0,0,.7-1.5l-2.4-1.6a14,14,0,0,0,.7-3l2.9-.3a.8.8,0,0,0,.1-1.6l-2.8-.5a14,14,0,0,0-.5-3l2.5-1.4a.8.8,0,0,0-.6-1.5l-2.8.6a14.1,14.1,0,0,0-1.6-2.6l1.8-2.3a.8.8,0,0,0-1.1-1.1l-2.4,1.7a14.1,14.1,0,0,0-2.4-1.7l.7-2.8a.8.8,0,0,0-1.5-.6l-1.5,2.4a14,14,0,0,0-2.9-.7l-.4-2.9a.8.8,0,0,0-1.6,0l-.5,2.8a14,14,0,0,0-3,.5l-1.5-2.5a.8.8,0,0,0-1.5.6l.6,2.8a14.1,14.1,0,0,0-2.6,1.6l-2.3-1.7a.8.8,0,0,0-1.1,1.1l1.6,2.3a14.1,14.1,0,0,0-1.8,2.5l-2.7-.7a.8.8,0,0,0-.6,1.5l2.3,1.5a14,14,0,0,0-.7,3l-2.8.4A.8.8,0,0,0,1480.1,334.5Z" fill="none" stroke="#4d4d4d" stroke-miterlimit="10"/><circle cx="1496.9" cy="334.2" r="11.7" transform="translate(1113.7 1819.3) rotate(-88.1)" fill="none" stroke="#4d4d4d" stroke-miterlimit="10"/><circle cx="1496.9" cy="334.2" r="3.3" transform="translate(1113.7 1819.3) rotate(-88.1)" fill="none" stroke="#4d4d4d" stroke-miterlimit="10"/><path d="M1510,307.8l3.1,1.2q-.1,1.3-.1,2.5l-3.1,1a.8.8,0,0,0,0,1.4l3.1,1q0,1.4.1,2.7l-3.1,1.2a.8.8,0,0,0,.1,1.4l3.2.8q.1,1.2.2,2.5l-3,1.4a.8.8,0,0,0,.2,1.4l3.2.5.4,2.5-2.8,1.5a.8.8,0,0,0,.3,1.4l3.2.3.6,2.7-2.7,1.7a.8.8,0,0,0,.4,1.3h3.2l.7,2.4-2.6,1.9a.8.8,0,0,0,.4,1.3h3.2l.9,2.4-2.5,2a.8.8,0,0,0,.5,1.3l3.2-.3,1.1,2.5-2.3,2.2a.8.8,0,0,0,.6,1.2l3.2-.5,1.2,2.2-2.2,2.3a.8.8,0,0,0,.7,1.2l3.1-.7,1.4,2.2-2,2.5a.8.8,0,0,0,.8,1.2l3.1-.9,1.6,2.3-1.8,2.6c-.4.5.3,1.4.9,1.1l3-1.1,1.6,2-1.7,2.7c-.4.5.4,1.3.9,1.1l2.9-1.3,1.8,1.9-1.5,2.8c-.3.5.4,1.3,1,1l2.8-1.5,2,1.9-1.3,2.9c-.3.6.5,1.3,1.1.9l2.7-1.7,2,1.6-1.1,3c-.2.6.6,1.2,1.1.9l2.6-1.8,2.1,1.5-.9,3a.8.8,0,0,0,1.2.8l2.4-2,2.4,1.5-.7,3.1a.8.8,0,0,0,1.2.7l2.3-2.1,2.3,1.2-.5,3.1a.8.8,0,0,0,1.3.6l2.1-2.3,2.4,1.1-.3,3.1a.8.8,0,0,0,1.3.5l2-2.4,2.6,1v3.1a.8.8,0,0,0,1.3.4l1.8-2.5,2.5.8v3.1a.8.8,0,0,0,1.3.4l1.7-2.6,2.6.6.3,3.1a.8.8,0,0,0,1.4.3l1.5-2.7,2.8.4.5,3.1a.8.8,0,0,0,1.4.2l1.3-2.8,2.6.2.7,3a.8.8,0,0,0,1.4.1l1.1-2.9h2.6l.9,3a.8.8,0,0,0,1.4,0l.9-3h2.8l1.1,2.9a.8.8,0,0,0,1.4-.1l.7-3,2.6-.3,1.3,2.8a.8.8,0,0,0,1.4-.2l.5-3.1,2.6-.4,1.5,2.7a.8.8,0,0,0,1.4-.3l.3-3.1,2.7-.6,1.6,2.6a.8.8,0,0,0,1.3-.4v-3.1l2.5-.8,1.8,2.5a.8.8,0,0,0,1.3-.4V398l2.5-.9,2,2.4a.8.8,0,0,0,1.3-.5l-.3-3.1,2.6-1.2,2.1,2.2a.8.8,0,0,0,1.3-.6l-.5-3.1,2.3-1.2,2.3,2.1a.8.8,0,0,0,1.2-.7l-.7-3,2.2-1.4,2.4,2a.8.8,0,0,0,1.2-.8l-.9-3,2.2-1.6,2.5,1.8c.5.4,1.3-.3,1.1-.8l-1.1-2.9,2-1.6,2.7,1.6c.5.4,1.3-.4,1-.9l-1.3-2.8,1.9-1.8,2.8,1.5c.5.3,1.3-.4,1-1l-1.5-2.8,1.9-2,2.9,1.3c.6.3,1.3-.5.9-1l-1.6-2.7,1.6-2,2.9,1.1c.6.2,1.2-.6.8-1.1l-1.8-2.6,1.5-2.1,3,.9a.8.8,0,0,0,.8-1.2l-2-2.4,1.5-2.4,3.1.7a.8.8,0,0,0,.7-1.2l-2.1-2.3,1.2-2.3,3.1.5a.8.8,0,0,0,.6-1.2l-2.3-2.1,1.1-2.4,3.1.3a.8.8,0,0,0,.5-1.3l-2.4-2,1-2.6h3.1a.8.8,0,0,0,.4-1.3l-2.5-1.8.7-2.5h3.1a.8.8,0,0,0,.4-1.3l-2.7-1.7.6-2.5,3.1-.3a.8.8,0,0,0,.3-1.4l-2.8-1.5.4-2.7,3.1-.5a.8.8,0,0,0,.2-1.4l-2.9-1.3q.1-1.3.2-2.5l3.1-.7a.8.8,0,0,0,.1-1.4l-3-1.1q.1-1.3.1-2.6l3.1-1a.8.8,0,0,0,0-1.4l-3.1-.9c0-.9,0-1.8-.1-2.7l3-1.2a.8.8,0,0,0-.1-1.4l-3.1-.7q-.1-1.3-.3-2.5l2.9-1.3a.8.8,0,0,0-.2-1.4l-3.2-.5-.4-2.5,2.8-1.5a.8.8,0,0,0-.3-1.4l-3.2-.3-.6-2.7,2.7-1.7a.8.8,0,0,0-.4-1.3h-3.2l-.7-2.4,2.6-1.9a.8.8,0,0,0-.4-1.3h-3.2l-.9-2.4,2.5-2.1a.8.8,0,0,0-.5-1.3l-3.2.3-1.1-2.5,2.3-2.2a.8.8,0,0,0-.6-1.2l-3.2.5-1.2-2.2,2.2-2.4a.8.8,0,0,0-.7-1.2l-3.2.7-1.3-2.1,2.1-2.5a.8.8,0,0,0-.8-1.2l-3.1.9-1.6-2.2,1.9-2.7c.4-.5-.3-1.4-.9-1.1l-3.1,1.2-1.6-1.9,1.7-2.8c.4-.5-.4-1.3-.9-1.1l-3,1.3-1.7-1.8,1.5-2.9c.3-.5-.4-1.3-1-1l-2.9,1.5-2-1.8,1.3-3c.3-.6-.5-1.3-1.1-.9l-2.8,1.7-1.9-1.6,1.1-3.1c.2-.6-.6-1.2-1.1-.8l-2.7,1.9-2-1.5.9-3.2a.8.8,0,0,0-1.2-.8l-2.6,2.1-2.3-1.4.7-3.2a.8.8,0,0,0-1.2-.7l-2.4,2.3-2.2-1.2.5-3.3a.8.8,0,0,0-1.3-.6l-2.3,2.4-2.3-1,.3-3.3a.8.8,0,0,0-1.3-.5l-2.1,2.6-2.5-.9v-3.3a.8.8,0,0,0-1.3-.4l-1.9,2.7-2.3-.7v-3.3a.8.8,0,0,0-1.3-.4l-1.8,2.8-2.4-.6-.3-3.3a.8.8,0,0,0-1.4-.3l-1.6,2.9-2.6-.4-.6-3.3a.8.8,0,0,0-1.4-.2l-1.4,3-2.4-.2-.8-3.3a.8.8,0,0,0-1.4-.1l-1.2,3.1h-2.5l-1-3.2a.8.8,0,0,0-1.4,0l-1,3.2h-2.6l-1.2-3.1a.8.8,0,0,0-1.4.1l-.8,3.3-2.4.2-1.4-3.1a.8.8,0,0,0-1.4.2l-.6,3.3-2.4.4-1.6-2.9a.8.8,0,0,0-1.4.3l-.3,3.3-2.6.6-1.8-2.8a.8.8,0,0,0-1.3.4v3.3l-2.3.7-2-2.7a.8.8,0,0,0-1.3.4v3.3l-2.3.9-2.1-2.6a.8.8,0,0,0-1.3.5l.3,3.3-2.4,1.1-2.3-2.4a.8.8,0,0,0-1.3.6l.5,3.3-2.1,1.2-2.5-2.3a.8.8,0,0,0-1.2.7l.8,3.3-2.1,1.3-2.6-2.1a.8.8,0,0,0-1.2.8l1,3.2-2.2,1.6-2.7-1.9c-.5-.4-1.3.3-1.1.8l1.2,3.1-1.9,1.5-2.9-1.8c-.5-.4-1.3.4-1,.9l1.4,3.1-1.8,1.7-3-1.6c-.5-.3-1.3.4-1,1l1.6,3-1.8,1.9-3-1.4c-.6-.3-1.3.5-.9,1l1.8,2.9-1.5,1.9-3.1-1.2c-.6-.2-1.2.6-.8,1.1l1.9,2.7-1.4,2-3.2-1a.8.8,0,0,0-.8,1.2l2.1,2.6-1.4,2.3-3.2-.7a.8.8,0,0,0-.7,1.2l2.3,2.4-1.2,2.2-3.3-.5a.8.8,0,0,0-.6,1.2l2.4,2.3-1,2.3-3.3-.3a.8.8,0,0,0-.5,1.3l2.5,2.1-.9,2.5H1515a.8.8,0,0,0-.4,1.3l2.7,1.9-.7,2.4h-3.3a.8.8,0,0,0-.4,1.3l2.8,1.8-.6,2.5-3.3.3a.8.8,0,0,0-.3,1.4l2.9,1.6-.4,2.7-3.2.5a.8.8,0,0,0-.2,1.4l3,1.4q-.1,1.2-.2,2.5l-3.2.8A.8.8,0,0,0,1510,307.8Z" fill="none" stroke="#4d4d4d" stroke-miterlimit="10"/><path d="M1679.7,362.1l1.8,2.1a14,14,0,0,0-1.6,2.7l-2.7-.5a.8.8,0,0,0-.5,1.5l2.4,1.3a14.1,14.1,0,0,0-.5,3l-2.7.5a.8.8,0,0,0,.1,1.6l2.7.3a14.1,14.1,0,0,0,.7,3l-2.3,1.5a.8.8,0,0,0,.7,1.4l2.7-.8a14,14,0,0,0,1.9,2.5l-1.6,2.3a.8.8,0,0,0,1.2,1.1l2.2-1.8a14,14,0,0,0,2.7,1.6l-.6,2.7a.8.8,0,0,0,1.5.5l1.3-2.5a14.1,14.1,0,0,0,3.1.5l.5,2.8a.8.8,0,0,0,1.6-.1l.3-2.8a14.1,14.1,0,0,0,3-.7l1.6,2.4a.8.8,0,0,0,1.4-.7l-.8-2.7a14,14,0,0,0,2.5-1.8l2.4,1.6a.8.8,0,0,0,1.1-1.2l-1.8-2.2a14,14,0,0,0,1.6-2.6l2.8.6a.8.8,0,0,0,.6-1.5l-2.5-1.4a14.1,14.1,0,0,0,.5-3.1l2.8-.6a.8.8,0,0,0-.1-1.6l-2.9-.3a14.1,14.1,0,0,0-.7-2.9l2.4-1.7a.8.8,0,0,0-.7-1.4l-2.7.8a14,14,0,0,0-1.8-2.4l1.6-2.4a.8.8,0,0,0-1.2-1l-2.2,1.8a14,14,0,0,0-2.6-1.6l.5-2.8a.8.8,0,0,0-1.5-.5l-1.3,2.5a14.1,14.1,0,0,0-3-.5l-.6-2.8a.8.8,0,0,0-1.6.1l-.3,2.8a14.1,14.1,0,0,0-3,.7l-1.6-2.3a.8.8,0,0,0-1.4.7l.8,2.7a14,14,0,0,0-2.5,1.8l-2.3-1.5A.8.8,0,0,0,1679.7,362.1Z" fill="none" stroke="#4d4d4d" stroke-miterlimit="10"/><circle cx="1692.7" cy="372.8" r="11.7" transform="translate(273.3 1367.5) rotate(-47.4)" fill="none" stroke="#4d4d4d" stroke-miterlimit="10"/><circle cx="1692.7" cy="372.8" r="3.3" transform="translate(273.3 1367.5) rotate(-47.4)" fill="none" stroke="#4d4d4d" stroke-miterlimit="10"/><path d="M1500.8,241.4l1.6,2.2a14,14,0,0,0-1.8,2.5l-2.7-.7a.8.8,0,0,0-.6,1.5l2.3,1.5a14.1,14.1,0,0,0-.7,3l-2.7.3a.8.8,0,0,0-.1,1.6l2.7.5a14.1,14.1,0,0,0,.5,3.1l-2.4,1.3a.8.8,0,0,0,.6,1.5l2.7-.6a14,14,0,0,0,1.7,2.7l-1.7,2.2a.8.8,0,0,0,1.1,1.1l2.3-1.6a14,14,0,0,0,2.5,1.8l-.8,2.7a.8.8,0,0,0,1.5.7l1.5-2.4a14.1,14.1,0,0,0,3,.7l.3,2.8a.8.8,0,0,0,1.6.1l.5-2.8a14.1,14.1,0,0,0,3-.5l1.4,2.5a.8.8,0,0,0,1.5-.6l-.6-2.8a14,14,0,0,0,2.6-1.6l2.2,1.8a.8.8,0,0,0,1.1-1.1l-1.6-2.4a14,14,0,0,0,1.8-2.5l2.8.8a.8.8,0,0,0,.7-1.5l-2.4-1.6a14.1,14.1,0,0,0,.7-3l2.9-.4a.8.8,0,0,0,0-1.6l-2.8-.5a14.1,14.1,0,0,0-.5-3l2.5-1.5a.8.8,0,0,0-.6-1.5l-2.8.6a14,14,0,0,0-1.6-2.6l1.7-2.3a.8.8,0,0,0-1.1-1.1l-2.3,1.7a14,14,0,0,0-2.5-1.8l.7-2.8a.8.8,0,0,0-1.5-.6l-1.5,2.4a14.1,14.1,0,0,0-3-.7l-.4-2.8a.8.8,0,0,0-1.6,0l-.5,2.8a14.1,14.1,0,0,0-3,.5l-1.4-2.4a.8.8,0,0,0-1.5.6l.6,2.7a14,14,0,0,0-2.6,1.6l-2.2-1.7A.8.8,0,0,0,1500.8,241.4Z" fill="none" stroke="#4d4d4d" stroke-miterlimit="10"/><circle cx="1512.9" cy="253.1" r="11.7" transform="translate(235.6 1102.4) rotate(-43.1)" fill="none" stroke="#4d4d4d" stroke-miterlimit="10"/><circle cx="1512.9" cy="253.1" r="3.3" transform="translate(235.6 1102.4) rotate(-43.1)" fill="none" stroke="#4d4d4d" stroke-miterlimit="10"/><path d="M1622.4,402.1l-.3,2.7a14,14,0,0,0-3,.7l-1.6-2.3a.8.8,0,0,0-1.4.7l.8,2.6a14.1,14.1,0,0,0-2.5,1.8l-2.3-1.5a.8.8,0,0,0-1.1,1.2l1.7,2.1a14.1,14.1,0,0,0-1.6,2.7l-2.7-.5a.8.8,0,0,0-.5,1.5l2.4,1.3a14,14,0,0,0-.5,3.1l-2.7.5a.8.8,0,0,0,.1,1.6l2.8.3a14,14,0,0,0,.7,3l-2.3,1.5a.8.8,0,0,0,.7,1.4l2.7-.8a14.1,14.1,0,0,0,1.8,2.5l-1.6,2.3a.8.8,0,0,0,1.2,1.1l2.2-1.8a14.1,14.1,0,0,0,2.6,1.6l-.6,2.8a.8.8,0,0,0,1.5.5l1.4-2.5a14,14,0,0,0,3,.4l.5,2.8a.8.8,0,0,0,1.6-.1l.3-2.9a14,14,0,0,0,3-.7l1.6,2.4a.8.8,0,0,0,1.5-.7l-.8-2.8a14.1,14.1,0,0,0,2.5-1.8l2.5,1.6a.8.8,0,0,0,1.1-1.2l-1.8-2.2a14.1,14.1,0,0,0,1.5-2.6l2.9.5a.8.8,0,0,0,.5-1.5l-2.5-1.4a14,14,0,0,0,.4-3l2.8-.6a.8.8,0,0,0-.1-1.6l-2.8-.3a14,14,0,0,0-.7-3l2.3-1.6a.8.8,0,0,0-.7-1.4l-2.7.8a14.1,14.1,0,0,0-1.8-2.5l1.5-2.4a.8.8,0,0,0-1.2-1.1l-2.2,1.8a14.1,14.1,0,0,0-2.6-1.6l.5-2.8a.8.8,0,0,0-1.5-.5l-1.3,2.4a14,14,0,0,0-3.1-.5l-.6-2.7A.8.8,0,0,0,1622.4,402.1Z" fill="none" stroke="#4d4d4d" stroke-miterlimit="10"/><circle cx="1624" cy="418.8" r="11.7" transform="translate(-16.4 69.6) rotate(-2.4)" fill="none" stroke="#4d4d4d" stroke-miterlimit="10"/><circle cx="1624" cy="418.8" r="3.3" transform="translate(-16.4 69.6) rotate(-2.4)" fill="none" stroke="#4d4d4d" stroke-miterlimit="10"/><path d="M1581.2,190.2l-.5,2.7a14,14,0,0,0-3.1.5l-1.4-2.4a.8.8,0,0,0-1.5.6l.6,2.7a14.1,14.1,0,0,0-2.6,1.6l-2.2-1.7a.8.8,0,0,0-1.2,1.1l1.6,2.3a14.1,14.1,0,0,0-1.8,2.5l-2.6-.7a.8.8,0,0,0-.7,1.5l2.3,1.5a14,14,0,0,0-.7,3.1l-2.7.3a.8.8,0,0,0-.1,1.6l2.7.5a14,14,0,0,0,.5,3.1l-2.4,1.4a.8.8,0,0,0,.6,1.5l2.7-.6a14.1,14.1,0,0,0,1.6,2.6l-1.8,2.2a.8.8,0,0,0,1.1,1.2l2.3-1.6a14.1,14.1,0,0,0,2.5,1.8l-.8,2.7a.8.8,0,0,0,1.5.7l1.6-2.4a14,14,0,0,0,3,.7l.3,2.9a.8.8,0,0,0,1.6.1l.5-2.8a14,14,0,0,0,3-.5l1.4,2.5a.8.8,0,0,0,1.5-.6l-.6-2.8a14.1,14.1,0,0,0,2.6-1.6l2.3,1.8a.8.8,0,0,0,1.1-1.1l-1.7-2.4a14.1,14.1,0,0,0,1.7-2.4l2.8.7a.8.8,0,0,0,.6-1.5l-2.4-1.5a14,14,0,0,0,.7-2.9l2.9-.4a.8.8,0,0,0,0-1.6l-2.8-.5a14,14,0,0,0-.5-3l2.5-1.5a.8.8,0,0,0-.6-1.5l-2.8.6a14.1,14.1,0,0,0-1.6-2.6l1.7-2.3a.8.8,0,0,0-1.1-1.1l-2.3,1.6a14.1,14.1,0,0,0-2.5-1.8l.7-2.7a.8.8,0,0,0-1.5-.6l-1.5,2.3a14,14,0,0,0-3-.7l-.4-2.8A.8.8,0,0,0,1581.2,190.2Z" fill="none" stroke="#4d4d4d" stroke-miterlimit="10"/><circle cx="1581.6" cy="207.1" r="11.7" transform="matrix(0.03, -1, 1, 0.03, 1322.61, 1781.01)" fill="none" stroke="#4d4d4d" stroke-miterlimit="10"/><circle cx="1581.6" cy="207.1" r="3.3" transform="translate(1322.6 1781) rotate(-88.1)" fill="none" stroke="#4d4d4d" stroke-miterlimit="10"/><path d="M1652,236.1l2.1-1.8a14,14,0,0,0,2.7,1.6l-.5,2.7a.8.8,0,0,0,1.5.5l1.3-2.4a14.1,14.1,0,0,0,3,.5l.5,2.7a.8.8,0,0,0,1.6-.1l.3-2.7a14.1,14.1,0,0,0,3-.7l1.5,2.3a.8.8,0,0,0,1.4-.7l-.8-2.7a14,14,0,0,0,2.5-1.9l2.3,1.6a.8.8,0,0,0,1.1-1.2l-1.8-2.2a14,14,0,0,0,1.6-2.7l2.7.6a.8.8,0,0,0,.5-1.5l-2.5-1.3a14.1,14.1,0,0,0,.5-3.1l2.8-.5a.8.8,0,0,0-.1-1.6l-2.8-.3a14.1,14.1,0,0,0-.7-3l2.4-1.6a.8.8,0,0,0-.7-1.4l-2.7.8a14,14,0,0,0-1.8-2.5l1.6-2.4a.8.8,0,0,0-1.2-1.1l-2.2,1.8a14,14,0,0,0-2.6-1.6l.6-2.8a.8.8,0,0,0-1.5-.6l-1.4,2.5a14.1,14.1,0,0,0-3.1-.5l-.6-2.8a.8.8,0,0,0-1.6.1l-.3,2.9a14.1,14.1,0,0,0-2.9.7l-1.7-2.4a.8.8,0,0,0-1.4.7l.8,2.7a14,14,0,0,0-2.4,1.8l-2.4-1.6a.8.8,0,0,0-1,1.2l1.8,2.2a14,14,0,0,0-1.6,2.6l-2.8-.5a.8.8,0,0,0-.5,1.5l2.5,1.3a14.1,14.1,0,0,0-.5,3l-2.8.6a.8.8,0,0,0,.1,1.6l2.8.3a14.1,14.1,0,0,0,.7,3l-2.3,1.6a.8.8,0,0,0,.7,1.4l2.7-.8a14,14,0,0,0,1.8,2.5l-1.5,2.3A.8.8,0,0,0,1652,236.1Z" fill="none" stroke="#4d4d4d" stroke-miterlimit="10"/><circle cx="1662.7" cy="223.1" r="11.7" transform="translate(373.8 1296.9) rotate(-47.4)" fill="none" stroke="#4d4d4d" stroke-miterlimit="10"/><circle cx="1662.7" cy="223.1" r="3.3" transform="translate(373.8 1296.9) rotate(-47.4)" fill="none" stroke="#4d4d4d" stroke-miterlimit="10"/><path d="M1531.3,415l2.2-1.6a14,14,0,0,0,2.5,1.8l-.7,2.7a.8.8,0,0,0,1.5.6l1.5-2.3a14.1,14.1,0,0,0,3,.7l.3,2.7a.8.8,0,0,0,1.6.1l.5-2.7a14.1,14.1,0,0,0,3.1-.5l1.3,2.4a.8.8,0,0,0,1.5-.6l-.6-2.7a14,14,0,0,0,2.7-1.7l2.2,1.7a.8.8,0,0,0,1.1-1.1l-1.6-2.3a14,14,0,0,0,1.8-2.5l2.7.8a.8.8,0,0,0,.7-1.5l-2.4-1.5a14.1,14.1,0,0,0,.7-3l2.8-.3a.8.8,0,0,0,.1-1.6l-2.8-.5a14.1,14.1,0,0,0-.5-3l2.5-1.4a.8.8,0,0,0-.6-1.5l-2.8.6a14,14,0,0,0-1.6-2.6l1.8-2.2a.8.8,0,0,0-1.1-1.1l-2.4,1.6a14,14,0,0,0-2.5-1.8l.8-2.8a.8.8,0,0,0-1.5-.7l-1.6,2.4a14.1,14.1,0,0,0-3-.7l-.4-2.9a.8.8,0,0,0-1.6,0l-.5,2.8a14.1,14.1,0,0,0-3,.5l-1.5-2.5a.8.8,0,0,0-1.5.6l.6,2.8a14,14,0,0,0-2.6,1.6l-2.3-1.7a.8.8,0,0,0-1.1,1.1l1.7,2.3a14,14,0,0,0-1.8,2.5l-2.8-.7a.8.8,0,0,0-.6,1.5l2.4,1.5a14.1,14.1,0,0,0-.7,3l-2.8.4a.8.8,0,0,0,0,1.6l2.8.5a14.1,14.1,0,0,0,.5,3l-2.4,1.4a.8.8,0,0,0,.6,1.5l2.7-.6a14,14,0,0,0,1.6,2.6l-1.7,2.2A.8.8,0,0,0,1531.3,415Z" fill="none" stroke="#4d4d4d" stroke-miterlimit="10"/><circle cx="1542.9" cy="402.8" r="11.7" transform="translate(141.3 1163.3) rotate(-43.1)" fill="none" stroke="#4d4d4d" stroke-miterlimit="10"/><circle cx="1542.9" cy="402.8" r="3.3" transform="translate(141.3 1163.3) rotate(-43.1)" fill="none" stroke="#4d4d4d" stroke-miterlimit="10"/><path d="M1677.6,260.7l2.6-.8a14,14,0,0,0,1.8,2.5l-1.5,2.3a.8.8,0,0,0,1.2,1.1l2.1-1.7a14.1,14.1,0,0,0,2.6,1.6l-.5,2.7a.8.8,0,0,0,1.5.5l1.3-2.4a14.1,14.1,0,0,0,3.1.5l.5,2.7a.8.8,0,0,0,1.6-.1l.3-2.7a14,14,0,0,0,3.1-.8l1.5,2.3a.8.8,0,0,0,1.4-.7l-.8-2.7a14,14,0,0,0,2.5-1.8l2.3,1.6a.8.8,0,0,0,1.1-1.2l-1.8-2.2a14.1,14.1,0,0,0,1.6-2.6l2.8.6a.8.8,0,0,0,.5-1.5l-2.5-1.4a14.1,14.1,0,0,0,.5-3l2.8-.5a.8.8,0,0,0-.1-1.6l-2.8-.3a14,14,0,0,0-.7-3l2.4-1.6a.8.8,0,0,0-.7-1.4l-2.8.8a14,14,0,0,0-1.8-2.5l1.6-2.4a.8.8,0,0,0-1.2-1.1l-2.2,1.8a14.1,14.1,0,0,0-2.6-1.6l.5-2.9a.8.8,0,0,0-1.5-.5l-1.4,2.5a14.1,14.1,0,0,0-3-.4l-.6-2.8a.8.8,0,0,0-1.6.1l-.3,2.9a14,14,0,0,0-2.9.7l-1.7-2.4a.8.8,0,0,0-1.4.7l.8,2.7a14,14,0,0,0-2.5,1.8l-2.4-1.5a.8.8,0,0,0-1.1,1.2l1.8,2.2a14.1,14.1,0,0,0-1.6,2.6l-2.8-.5a.8.8,0,0,0-.5,1.5l2.5,1.3a14.1,14.1,0,0,0-.5,3l-2.7.6a.8.8,0,0,0,.1,1.6l2.8.3a14,14,0,0,0,.7,3l-2.3,1.6A.8.8,0,0,0,1677.6,260.7Z" fill="none" stroke="#4d4d4d" stroke-miterlimit="10"/><circle cx="1692.5" cy="252.8" r="11.7" transform="translate(51.2 737.4) rotate(-24.9)" fill="none" stroke="#4d4d4d" stroke-miterlimit="10"/><circle cx="1692.5" cy="252.8" r="3.3" transform="translate(51.2 737.4) rotate(-24.9)" fill="none" stroke="#4d4d4d" stroke-miterlimit="10"/><path d="M1497.7,379.8l2.7-.6a14,14,0,0,0,1.6,2.6l-1.7,2.2a.8.8,0,0,0,1.1,1.2l2.2-1.6a14.1,14.1,0,0,0,2.5,1.8l-.7,2.6a.8.8,0,0,0,1.5.7l1.5-2.3a14.1,14.1,0,0,0,3,.7l.3,2.7a.8.8,0,0,0,1.6.1l.5-2.7a14,14,0,0,0,3.1-.5l1.3,2.4a.8.8,0,0,0,1.5-.6l-.6-2.7a14,14,0,0,0,2.6-1.6l2.2,1.7a.8.8,0,0,0,1.2-1.1l-1.6-2.3a14.1,14.1,0,0,0,1.8-2.5l2.7.8a.8.8,0,0,0,.7-1.5l-2.4-1.5a14.1,14.1,0,0,0,.7-3l2.8-.3a.8.8,0,0,0,.1-1.6l-2.8-.5a14,14,0,0,0-.5-3l2.5-1.4a.8.8,0,0,0-.6-1.5l-2.8.6a14,14,0,0,0-1.6-2.6l1.8-2.3a.8.8,0,0,0-1.1-1.2l-2.4,1.6a14.1,14.1,0,0,0-2.5-1.8l.7-2.8a.8.8,0,0,0-1.5-.6l-1.5,2.4a14.1,14.1,0,0,0-2.9-.7l-.4-2.9a.8.8,0,0,0-1.6,0l-.5,2.8a14,14,0,0,0-3,.5l-1.5-2.5a.8.8,0,0,0-1.4.6l.6,2.8a14,14,0,0,0-2.6,1.6l-2.3-1.7a.8.8,0,0,0-1.2,1.1l1.6,2.3a14.1,14.1,0,0,0-1.8,2.5l-2.8-.7a.8.8,0,0,0-.6,1.5l2.4,1.5a14.1,14.1,0,0,0-.7,3l-2.8.4a.8.8,0,0,0,0,1.6l2.7.5a14,14,0,0,0,.5,3.1l-2.4,1.4A.8.8,0,0,0,1497.7,379.8Z" fill="none" stroke="#4d4d4d" stroke-miterlimit="10"/><circle cx="1513.1" cy="373.1" r="11.7" transform="translate(-34.5 556.6) rotate(-20.6)" fill="none" stroke="#4d4d4d" stroke-miterlimit="10"/><circle cx="1513.1" cy="373.1" r="3.3" transform="translate(-34.5 556.6) rotate(-20.6)" fill="none" stroke="#4d4d4d" stroke-miterlimit="10"/><path d="M1692.6,329l2.4,1.3a14,14,0,0,0-.5,3.1l-2.7.6a.8.8,0,0,0,.1,1.6l2.7.3a14.1,14.1,0,0,0,.7,3l-2.3,1.5a.8.8,0,0,0,.7,1.4l2.6-.8a14.1,14.1,0,0,0,1.9,2.5l-1.5,2.3a.8.8,0,0,0,1.2,1.1l2.2-1.7a14,14,0,0,0,2.7,1.6l-.6,2.7a.8.8,0,0,0,1.5.5l1.3-2.4a14,14,0,0,0,3.1.5l.5,2.7a.8.8,0,0,0,1.6-.1l.3-2.8a14.1,14.1,0,0,0,3-.7l1.6,2.4a.8.8,0,0,0,1.4-.7l-.8-2.7a14.1,14.1,0,0,0,2.5-1.8l2.4,1.6a.8.8,0,0,0,1.1-1.2l-1.8-2.2a14,14,0,0,0,1.6-2.6l2.8.6a.8.8,0,0,0,.5-1.5l-2.5-1.4a14,14,0,0,0,.5-3l2.8-.6a.8.8,0,0,0-.1-1.6l-2.9-.3a14.1,14.1,0,0,0-.7-3l2.4-1.7a.8.8,0,0,0-.7-1.4l-2.8.8a14.1,14.1,0,0,0-1.8-2.4l1.6-2.5a.8.8,0,0,0-1.2-1.1l-2.2,1.8a14,14,0,0,0-2.6-1.6l.5-2.8a.8.8,0,0,0-1.5-.5l-1.3,2.5a14,14,0,0,0-3-.5l-.6-2.8a.8.8,0,0,0-1.6.1l-.3,2.8a14.1,14.1,0,0,0-3,.7l-1.6-2.3a.8.8,0,0,0-1.4.7l.8,2.7a14.1,14.1,0,0,0-2.5,1.8l-2.4-1.5a.8.8,0,0,0-1.1,1.2l1.8,2.1a14,14,0,0,0-1.6,2.7l-2.7-.5A.8.8,0,0,0,1692.6,329Z" fill="none" stroke="#4d4d4d" stroke-miterlimit="10"/><circle cx="1708.7" cy="333.9" r="11.7" transform="translate(809.1 1824.5) rotate(-69.9)" fill="none" stroke="#4d4d4d" stroke-miterlimit="10"/><circle cx="1708.7" cy="333.9" r="3.3" transform="translate(809.1 1824.5) rotate(-69.9)" fill="none" stroke="#4d4d4d" stroke-miterlimit="10"/><path d="M1481.2,285.9l2.3,1.5a14,14,0,0,0-.7,3l-2.7.4a.8.8,0,0,0,0,1.6l2.7.5a14.1,14.1,0,0,0,.5,3l-2.4,1.3a.8.8,0,0,0,.6,1.5l2.7-.6a14.1,14.1,0,0,0,1.7,2.7l-1.7,2.2a.8.8,0,0,0,1.1,1.2l2.3-1.6a14,14,0,0,0,2.6,1.8l-.8,2.7a.8.8,0,0,0,1.4.6l1.5-2.3a14,14,0,0,0,3,.7l.3,2.8a.8.8,0,0,0,1.6.1l.5-2.8a14.1,14.1,0,0,0,3-.5l1.4,2.5a.8.8,0,0,0,1.5-.6l-.6-2.8a14.1,14.1,0,0,0,2.6-1.6l2.2,1.8a.8.8,0,0,0,1.2-1.1l-1.6-2.4a14,14,0,0,0,1.8-2.5l2.8.8a.8.8,0,0,0,.6-1.4l-2.4-1.6a14,14,0,0,0,.7-3l2.9-.3a.8.8,0,0,0,.1-1.6l-2.8-.5a14.1,14.1,0,0,0-.5-3l2.5-1.5a.8.8,0,0,0-.6-1.5l-2.8.6a14.1,14.1,0,0,0-1.6-2.5l1.7-2.3a.8.8,0,0,0-1.1-1.1l-2.3,1.6a14,14,0,0,0-2.5-1.7l.7-2.8a.8.8,0,0,0-1.4-.6l-1.5,2.4a14,14,0,0,0-3-.7l-.4-2.8a.8.8,0,0,0-1.6,0l-.5,2.8a14.1,14.1,0,0,0-3,.5l-1.4-2.4a.8.8,0,0,0-1.5.6l.6,2.7a14.1,14.1,0,0,0-2.6,1.6l-2.2-1.7a.8.8,0,0,0-1.1,1.1l1.6,2.3a14,14,0,0,0-1.8,2.5l-2.7-.7A.8.8,0,0,0,1481.2,285.9Z" fill="none" stroke="#4d4d4d" stroke-miterlimit="10"/><circle cx="1496.9" cy="292" r="11.7" transform="translate(612.9 1534.8) rotate(-65.6)" fill="none" stroke="#4d4d4d" stroke-miterlimit="10"/><circle cx="1496.9" cy="292" r="3.3" transform="translate(612.9 1534.8) rotate(-65.6)" fill="none" stroke="#4d4d4d" stroke-miterlimit="10"/><path d="M1655,387.8l.8,2.6a14,14,0,0,0-2.5,1.8l-2.3-1.5a.8.8,0,0,0-1.1,1.2l1.7,2.1a14.1,14.1,0,0,0-1.6,2.6l-2.7-.5a.8.8,0,0,0-.5,1.5l2.4,1.3a14.1,14.1,0,0,0-.5,3.1l-2.7.5a.8.8,0,0,0,.1,1.6l2.7.3a14,14,0,0,0,.8,3.1l-2.3,1.5a.8.8,0,0,0,.7,1.4l2.7-.8a14,14,0,0,0,1.8,2.5l-1.6,2.3a.8.8,0,0,0,1.2,1.1l2.2-1.8a14.1,14.1,0,0,0,2.6,1.6l-.6,2.8a.8.8,0,0,0,1.5.5l1.4-2.5a14.1,14.1,0,0,0,3,.5l.5,2.8a.8.8,0,0,0,1.6-.1l.3-2.8a14,14,0,0,0,3-.7l1.6,2.4a.8.8,0,0,0,1.4-.7l-.8-2.8a14,14,0,0,0,2.5-1.8l2.4,1.6a.8.8,0,0,0,1.1-1.2l-1.8-2.2a14.1,14.1,0,0,0,1.6-2.6l2.9.5a.8.8,0,0,0,.5-1.5l-2.5-1.4a14.1,14.1,0,0,0,.4-3l2.8-.6a.8.8,0,0,0-.1-1.6l-2.9-.3a14,14,0,0,0-.7-2.9l2.4-1.7a.8.8,0,0,0-.7-1.4l-2.7.8a14,14,0,0,0-1.8-2.5l1.5-2.4a.8.8,0,0,0-1.2-1.1l-2.2,1.8a14.1,14.1,0,0,0-2.6-1.6l.5-2.8a.8.8,0,0,0-1.5-.5l-1.3,2.5a14.1,14.1,0,0,0-3-.5l-.6-2.7a.8.8,0,0,0-1.6.1l-.3,2.8a14,14,0,0,0-3,.7l-1.6-2.3A.8.8,0,0,0,1655,387.8Z" fill="none" stroke="#4d4d4d" stroke-miterlimit="10"/><circle cx="1662.9" cy="402.7" r="11.7" transform="translate(-14.7 738.9) rotate(-24.9)" fill="none" stroke="#4d4d4d" stroke-miterlimit="10"/><circle cx="1662.9" cy="402.7" r="3.3" transform="translate(-14.7 738.9) rotate(-24.9)" fill="none" stroke="#4d4d4d" stroke-miterlimit="10"/><path d="M1535.9,207.8l.6,2.7a14,14,0,0,0-2.6,1.6l-2.2-1.7a.8.8,0,0,0-1.2,1.1l1.6,2.2a14.1,14.1,0,0,0-1.8,2.5l-2.6-.7a.8.8,0,0,0-.7,1.5l2.3,1.5a14.1,14.1,0,0,0-.7,3l-2.7.3a.8.8,0,0,0-.1,1.6l2.7.5a14,14,0,0,0,.5,3.1l-2.4,1.3a.8.8,0,0,0,.6,1.5l2.7-.6a14,14,0,0,0,1.6,2.6l-1.7,2.2a.8.8,0,0,0,1.1,1.2l2.3-1.6a14.1,14.1,0,0,0,2.5,1.8l-.8,2.7a.8.8,0,0,0,1.5.7l1.5-2.4a14.1,14.1,0,0,0,3,.7l.3,2.8a.8.8,0,0,0,1.6.1l.5-2.8a14,14,0,0,0,3-.5l1.4,2.5a.8.8,0,0,0,1.5-.6l-.6-2.8a14,14,0,0,0,2.6-1.6l2.3,1.8a.8.8,0,0,0,1.2-1.1l-1.6-2.4a14.1,14.1,0,0,0,1.8-2.5l2.8.7a.8.8,0,0,0,.6-1.5l-2.4-1.5a14.1,14.1,0,0,0,.7-2.9l2.9-.4a.8.8,0,0,0,0-1.6l-2.8-.5a14,14,0,0,0-.5-3l2.5-1.5a.8.8,0,0,0-.6-1.4l-2.8.6a14,14,0,0,0-1.6-2.6l1.7-2.3a.8.8,0,0,0-1.1-1.2l-2.3,1.6a14.1,14.1,0,0,0-2.5-1.8l.7-2.8a.8.8,0,0,0-1.5-.6l-1.5,2.4a14.1,14.1,0,0,0-3-.7l-.4-2.8a.8.8,0,0,0-1.6,0l-.5,2.7a14,14,0,0,0-3.1.5l-1.4-2.4A.8.8,0,0,0,1535.9,207.8Z" fill="none" stroke="#4d4d4d" stroke-miterlimit="10"/><circle cx="1542.7" cy="223.3" r="11.7" transform="translate(20.2 557.5) rotate(-20.6)" fill="none" stroke="#4d4d4d" stroke-miterlimit="10"/><circle cx="1542.7" cy="223.3" r="3.3" transform="translate(20.2 557.5) rotate(-20.6)" fill="none" stroke="#4d4d4d" stroke-miterlimit="10"/><path d="M1618.8,223.1l1.3-2.4a14,14,0,0,0,3.1.5l.6,2.7a.8.8,0,0,0,1.6-.1l.3-2.7a14.1,14.1,0,0,0,3-.7l1.5,2.3a.8.8,0,0,0,1.4-.7l-.8-2.6a14.1,14.1,0,0,0,2.5-1.9l2.3,1.5a.8.8,0,0,0,1.1-1.2l-1.7-2.2a14,14,0,0,0,1.6-2.7l2.7.6a.8.8,0,0,0,.5-1.5l-2.4-1.3a14,14,0,0,0,.5-3.1l2.7-.5a.8.8,0,0,0-.1-1.6l-2.8-.3a14.1,14.1,0,0,0-.7-3l2.4-1.6a.8.8,0,0,0-.7-1.4l-2.7.8a14.1,14.1,0,0,0-1.8-2.5l1.6-2.4a.8.8,0,0,0-1.2-1.1l-2.2,1.8a14,14,0,0,0-2.6-1.6l.6-2.8a.8.8,0,0,0-1.5-.5l-1.4,2.5a14,14,0,0,0-3-.5l-.6-2.8a.8.8,0,0,0-1.6.1l-.3,2.9a14.1,14.1,0,0,0-3,.7l-1.7-2.4a.8.8,0,0,0-1.4.7l.8,2.8a14.1,14.1,0,0,0-2.4,1.8l-2.5-1.6a.8.8,0,0,0-1.1,1.2l1.8,2.2a14,14,0,0,0-1.6,2.6l-2.8-.5a.8.8,0,0,0-.5,1.5l2.5,1.3a14,14,0,0,0-.5,3l-2.8.6a.8.8,0,0,0,.1,1.6l2.8.3a14.1,14.1,0,0,0,.7,3l-2.3,1.6a.8.8,0,0,0,.7,1.4l2.7-.8a14.1,14.1,0,0,0,1.8,2.5l-1.5,2.4a.8.8,0,0,0,1.2,1.1l2.1-1.8a14,14,0,0,0,2.7,1.6l-.5,2.7A.8.8,0,0,0,1618.8,223.1Z" fill="none" stroke="#4d4d4d" stroke-miterlimit="10"/><circle cx="1623.7" cy="207" r="11.7" transform="translate(872.4 1661.3) rotate(-69.9)" fill="none" stroke="#4d4d4d" stroke-miterlimit="10"/><circle cx="1623.7" cy="207" r="3.3" transform="translate(872.4 1661.3) rotate(-69.9)" fill="none" stroke="#4d4d4d" stroke-miterlimit="10"/><path d="M1575.7,434.6l1.5-2.3a14,14,0,0,0,3,.7l.4,2.7a.8.8,0,0,0,1.6,0l.5-2.7a14.1,14.1,0,0,0,3-.5l1.3,2.4a.8.8,0,0,0,1.5-.6l-.6-2.7a14.1,14.1,0,0,0,2.7-1.7l2.2,1.7a.8.8,0,0,0,1.2-1.1l-1.6-2.3a14,14,0,0,0,1.8-2.6l2.7.8a.8.8,0,0,0,.6-1.4l-2.3-1.5a14,14,0,0,0,.7-3l2.8-.3a.8.8,0,0,0,.1-1.6l-2.8-.5a14.1,14.1,0,0,0-.5-3l2.5-1.4a.8.8,0,0,0-.6-1.5l-2.8.6a14.1,14.1,0,0,0-1.6-2.6l1.8-2.2a.8.8,0,0,0-1.1-1.2l-2.4,1.6a14,14,0,0,0-2.5-1.8l.8-2.8a.8.8,0,0,0-1.4-.6l-1.6,2.4a14,14,0,0,0-3-.7l-.3-2.9a.8.8,0,0,0-1.6-.1l-.5,2.8a14.1,14.1,0,0,0-3,.5l-1.5-2.5a.8.8,0,0,0-1.5.6l.6,2.8a14.1,14.1,0,0,0-2.5,1.6l-2.3-1.7a.8.8,0,0,0-1.1,1.1l1.6,2.3a14,14,0,0,0-1.7,2.5l-2.8-.7a.8.8,0,0,0-.6,1.4l2.4,1.5a14,14,0,0,0-.7,3l-2.8.4a.8.8,0,0,0,0,1.6l2.8.5a14.1,14.1,0,0,0,.5,3l-2.4,1.4a.8.8,0,0,0,.6,1.5l2.7-.6a14.1,14.1,0,0,0,1.6,2.6l-1.7,2.2a.8.8,0,0,0,1.1,1.1l2.3-1.6a14,14,0,0,0,2.5,1.8l-.7,2.7A.8.8,0,0,0,1575.7,434.6Z" fill="none" stroke="#4d4d4d" stroke-miterlimit="10"/><circle cx="1581.9" cy="418.9" r="11.7" transform="translate(547.3 1686.7) rotate(-65.6)" fill="none" stroke="#4d4d4d" stroke-miterlimit="10"/><circle cx="1581.9" cy="418.9" r="3.3" transform="translate(547.3 1686.7) rotate(-65.6)" fill="none" stroke="#4d4d4d" stroke-miterlimit="10"/><path d="M1669.2,378.5c.3.5-.4,1.3-1,1l-2.8-1.5-1.3,1.3,24,24,4.4-4.4-24-24-.8.8Z" fill="none" stroke="#4d4d4d" stroke-miterlimit="10"/><path d="M1639.2,398.9a.8.8,0,0,1-1.3.5l-2-2.4-1.9.7,13.1,31.4,5.8-2.4-13-31.5-1,.5Z" fill="none" stroke="#4d4d4d" stroke-miterlimit="10"/><path d="M1688.6,276.9a.8.8,0,0,1,.5,1.3l-2.5,2.1.6,1.7,31.1-12.9-2.4-5.8-31.1,12.9.5,1.1Z" fill="none" stroke="#4d4d4d" stroke-miterlimit="10"/><path d="M1568,399.4a.8.8,0,0,1-1.3-.5l.3-3.1-1.4-.6-13.1,31.7,5.6,2.4,13.1-31.7-1.2-.4Z" fill="none" stroke="#4d4d4d" stroke-miterlimit="10"/><path d="M1517.2,349.4a.8.8,0,0,1-.5-1.3l2.5-2-.4-1.1L1487,358.1l2.4,5.7,31.7-13.1-.7-1.5Z" fill="none" stroke="#4d4d4d" stroke-miterlimit="10"/><path d="M1537.6,379.5c-.5.3-1.3-.4-1-1l1.5-2.8-1-1-24.3,24.3,4.4,4.4,24.3-24.3-1.1-1Z" fill="none" stroke="#4d4d4d" stroke-miterlimit="10"/><path d="M1668.3,246.9c.5-.3,1.3.4,1,1l-1.5,2.9,1,1.1,23.9-23.9-4.4-4.4-23.9,23.9,1,.9Z" fill="none" stroke="#4d4d4d" stroke-miterlimit="10"/><path d="M1689.2,348.1a.8.8,0,0,1-.5,1.3l-3.1-.3-.7,1.7,31.3,13,2.4-5.7-31.3-13-.4,1Z" fill="none" stroke="#4d4d4d" stroke-miterlimit="10"/><path d="M1516.7,278.2a.8.8,0,0,1,.5-1.3l3.3.3.4-1-31.5-13.1L1487,269l31.5,13.1.7-1.8Z" fill="none" stroke="#4d4d4d" stroke-miterlimit="10"/><path d="M1566.7,227.4a.8.8,0,0,1,1.3-.5l2.1,2.6.9-.3-13-31.4-5.7,2.4,13,31.4,1.6-.7Z" fill="none" stroke="#4d4d4d" stroke-miterlimit="10"/><path d="M1637.9,226.9a.8.8,0,0,1,1.3.5l-.3,3.3,1.2.5,12.9-31.2-5.9-2.4-12.9,31.1,1.7.6Z" fill="none" stroke="#4d4d4d" stroke-miterlimit="10"/><path d="M1536.6,247.8c-.3-.5.4-1.3,1-1l3,1.6.8-.7-24.1-24.1-4.4,4.4,24.1,24.1,1.2-1.3Z" fill="none" stroke="#4d4d4d" stroke-miterlimit="10"/><circle cx="1600.6" cy="337.2" r="1.5" fill="none" stroke="#4d4d4d" stroke-miterlimit="10"/><circle cx="1569" cy="337.2" r="1.5" fill="none" stroke="#4d4d4d" stroke-miterlimit="10"/><circle cx="1600.6" cy="289.5" r="1.5" fill="none" stroke="#4d4d4d" stroke-miterlimit="10"/><circle cx="1600.6" cy="269.8" r="1.5" fill="none" stroke="#4d4d4d" stroke-miterlimit="10"/><circle cx="1569" cy="289.5" r="1.5" fill="none" stroke="#4d4d4d" stroke-miterlimit="10"/><circle cx="1569" cy="269.8" r="1.5" fill="none" stroke="#4d4d4d" stroke-miterlimit="10"/><circle cx="1596.8" cy="322.1" r="1.6" fill="none" stroke="#4d4d4d" stroke-miterlimit="10"/><circle cx="1591.2" cy="322.1" r="1.6" fill="none" stroke="#4d4d4d" stroke-miterlimit="10"/><circle cx="1596.8" cy="304.6" r="1.6" fill="none" stroke="#4d4d4d" stroke-miterlimit="10"/><circle cx="1591.2" cy="304.6" r="1.6" fill="none" stroke="#4d4d4d" stroke-miterlimit="10"/><circle cx="1531.6" cy="322.1" r="1.6" fill="none" stroke="#4d4d4d" stroke-miterlimit="10"/><circle cx="1526" cy="322.1" r="1.6" fill="none" stroke="#4d4d4d" stroke-miterlimit="10"/><circle cx="1531.6" cy="304.6" r="1.6" fill="none" stroke="#4d4d4d" stroke-miterlimit="10"/><circle cx="1526" cy="304.6" r="1.6" fill="none" stroke="#4d4d4d" stroke-miterlimit="10"/><circle cx="1623.9" cy="323.8" r="1.8" fill="none" stroke="#4d4d4d" stroke-miterlimit="10"/><circle cx="1617.5" cy="323.8" r="1.8" fill="none" stroke="#4d4d4d" stroke-miterlimit="10"/><circle cx="1623.9" cy="303.7" r="1.8" fill="none" stroke="#4d4d4d" stroke-miterlimit="10"/><circle cx="1617.5" cy="303.7" r="1.8" fill="none" stroke="#4d4d4d" stroke-miterlimit="10"/><path d="M1603.1,518.2c113.3,0,205.1-91.8,205.1-205.1s-91.8-205.1-205.1-205.1-205.1,91.8-205.1,205.1S1489.9,518.2,1603.1,518.2Zm0-380.1a175,175,0,1,1-175,175A175,175,0,0,1,1603.1,138.2Z" fill="none" stroke="#4d4d4d" stroke-miterlimit="10"/><circle cx="1789.3" cy="350.7" r="7.5" fill="none" stroke="#4d4d4d" stroke-miterlimit="10"/><circle cx="1416.4" cy="276.7" r="7.5" fill="none" stroke="#4d4d4d" stroke-miterlimit="10"/><circle cx="1639.8" cy="127.3" r="7.5" fill="none" stroke="#4d4d4d" stroke-miterlimit="10"/><circle cx="1497.2" cy="155.7" r="7.5" transform="translate(328.4 1104.3) rotate(-45)" fill="none" stroke="#4d4d4d" stroke-miterlimit="10"/><circle cx="1760.8" cy="208" r="7.5" transform="translate(368.7 1306) rotate(-45)" fill="none" stroke="#4d4d4d" stroke-miterlimit="10"/><circle cx="1444.9" cy="419.4" r="7.5" transform="translate(126.6 1144.5) rotate(-45)" fill="none" stroke="#4d4d4d" stroke-miterlimit="10"/><circle cx="1789.3" cy="276.5" r="7.5" transform="translate(30.4 705.8) rotate(-22.5)" fill="none" stroke="#4d4d4d" stroke-miterlimit="10"/><circle cx="1416.5" cy="350.9" r="7.5" transform="translate(-26.5 568.8) rotate(-22.5)" fill="none" stroke="#4d4d4d" stroke-miterlimit="10"/><circle cx="1565.7" cy="127.3" r="7.5" transform="translate(70.5 608.8) rotate(-22.5)" fill="none" stroke="#4d4d4d" stroke-miterlimit="10"/><circle cx="1761" cy="419.2" r="7.5" transform="translate(699.8 1885.7) rotate(-67.5)" fill="none" stroke="#4d4d4d" stroke-miterlimit="10"/><circle cx="1444.8" cy="208.2" r="7.5" transform="translate(699.5 1463.3) rotate(-67.5)" fill="none" stroke="#4d4d4d" stroke-miterlimit="10"/><circle cx="1708.4" cy="155.6" r="7.5" transform="translate(910.9 1674.4) rotate(-67.5)" fill="none" stroke="#4d4d4d" stroke-miterlimit="10"/><path d="M1603.1,463.2a150,150,0,1,0-150-150A150,150,0,0,0,1603.1,463.2Zm0-278a128,128,0,1,1-128,128A128,128,0,0,1,1603.1,185.2Z" fill="none" stroke="#4d4d4d" stroke-miterlimit="10"/><path d="M1603.8,406.5a.8.8,0,0,1-1.4,0l-.9-3h-1.8v34h6.2v-34h-1.1Z" fill="none" stroke="#4d4d4d" stroke-miterlimit="10"/><path d="M1696.1,312.7a.8.8,0,0,1,0,1.4l-3.2,1c0,.5,0,1,0,1.5h33.7v-6.2h-33.7c0,.5,0,.9,0,1.4Z" fill="none" stroke="#4d4d4d" stroke-miterlimit="10"/><path d="M1602.5,219.9a.8.8,0,0,1,1.4,0l1,3.2h1.5V189.4h-6.2v33.7h1.4Z" fill="none" stroke="#4d4d4d" stroke-miterlimit="10"/><path d="M1509.3,313.5a.8.8,0,0,1,0-1.4l3-1c0-.5,0-.9,0-1.4l-34.3.5v6.4l34.3-.3c0-1,0-1.2-.1-1.7Z" fill="none" stroke="#4d4d4d" stroke-miterlimit="10"/><circle cx="1565.9" cy="500.1" r="7.5" fill="none" stroke="#4d4d4d" stroke-miterlimit="10"/><circle cx="1708.6" cy="471.7" r="7.5" transform="translate(166.9 1346.3) rotate(-45)" fill="none" stroke="#4d4d4d" stroke-miterlimit="10"/><circle cx="1640.1" cy="500.1" r="7.5" transform="translate(-66.5 665.7) rotate(-22.5)" fill="none" stroke="#4d4d4d" stroke-miterlimit="10"/><circle cx="1497.4" cy="471.8" r="7.5" transform="translate(488.5 1674.6) rotate(-67.5)" fill="none" stroke="#4d4d4d" stroke-miterlimit="10"/><path d="M1083.2,586.8l-142.8,5.4-45.5-6.4a4.6,4.6,0,0,1-.3-9l44.9-9.9,142.8-5.4,45.5,6.4a4.6,4.6,0,0,1,.3,9Z" fill="none" stroke="#4d4d4d" stroke-miterlimit="10"/><circle cx="895.5" cy="581.3" r="4.5" transform="translate(-21.4 34.3) rotate(-2.2)" fill="none" stroke="#4d4d4d" stroke-miterlimit="10"/><circle cx="895.5" cy="581.3" r="3.2" transform="translate(-21.4 34.3) rotate(-2.2)" fill="none" stroke="#4d4d4d" stroke-miterlimit="10"/><circle cx="1127.1" cy="572.5" r="4.5" transform="translate(-20.9 43.1) rotate(-2.2)" fill="none" stroke="#4d4d4d" stroke-miterlimit="10"/><circle cx="1127.1" cy="572.5" r="3.2" transform="translate(-20.9 43.1) rotate(-2.2)" fill="none" stroke="#4d4d4d" stroke-miterlimit="10"/><path d="M1001.3,648.7,995.9,506l6.4-45.5a4.6,4.6,0,0,1,9-.3l9.9,44.9,5.4,142.8-6.4,45.5a4.6,4.6,0,0,1-9,.3Z" fill="none" stroke="#4d4d4d" stroke-miterlimit="10"/><circle cx="1006.9" cy="461" r="4.5" transform="translate(-16.7 38.5) rotate(-2.2)" fill="none" stroke="#4d4d4d" stroke-miterlimit="10"/><circle cx="1006.9" cy="461" r="3.2" transform="translate(-16.7 38.5) rotate(-2.2)" fill="none" stroke="#4d4d4d" stroke-miterlimit="10"/><path d="M1055.1,634.7,950.3,537.6l-27.6-36.8a4.6,4.6,0,0,1,6.1-6.6L967.5,519l104.8,97.1,27.6,36.8a4.6,4.6,0,0,1-6.1,6.6Z" fill="none" stroke="#4d4d4d" stroke-miterlimit="10"/><circle cx="926.3" cy="498.1" r="4.5" transform="translate(-68.7 838.8) rotate(-47.2)" fill="none" stroke="#4d4d4d" stroke-miterlimit="10"/><circle cx="926.3" cy="498.1" r="3.2" transform="translate(-68.7 838.8) rotate(-47.2)" fill="none" stroke="#4d4d4d" stroke-miterlimit="10"/><path d="M953.4,620.6l97.1-104.8,36.8-27.6a4.6,4.6,0,0,1,6.6,6.1l-24.8,38.7L972,637.9l-36.8,27.6a4.6,4.6,0,0,1-6.6-6.1Z" fill="none" stroke="#4d4d4d" stroke-miterlimit="10"/><circle cx="1090.1" cy="491.8" r="4.5" transform="matrix(0.68, -0.73, 0.73, 0.68, -11.68, 956.9)" fill="none" stroke="#4d4d4d" stroke-miterlimit="10"/><circle cx="1090.1" cy="491.8" r="3.2" transform="translate(-11.7 956.9) rotate(-47.2)" fill="none" stroke="#4d4d4d" stroke-miterlimit="10"/><path d="M1081.5,558.6,951.7,618.2l-44.5,11.5a4.6,4.6,0,0,1-3.8-8.2l37.7-26.3,129.8-59.6,44.5-11.5a4.6,4.6,0,0,1,3.8,8.2Z" fill="none" stroke="#4d4d4d" stroke-miterlimit="10"/><circle cx="906" cy="625.3" r="4.5" transform="translate(-178.3 435.2) rotate(-24.7)" fill="none" stroke="#4d4d4d" stroke-miterlimit="10"/><circle cx="906" cy="625.3" r="3.2" transform="translate(-178.3 435.2) rotate(-24.7)" fill="none" stroke="#4d4d4d" stroke-miterlimit="10"/><circle cx="1116.7" cy="528.5" r="4.5" transform="translate(-118.7 514.3) rotate(-24.7)" fill="none" stroke="#4d4d4d" stroke-miterlimit="10"/><circle cx="1116.7" cy="528.5" r="3.2" transform="translate(-118.7 514.3) rotate(-24.7)" fill="none" stroke="#4d4d4d" stroke-miterlimit="10"/><path d="M1029.6,647.1,970,517.2l-11.5-44.5a4.6,4.6,0,0,1,8.2-3.8L993,506.7l59.6,129.8,11.5,44.5a4.6,4.6,0,0,1-8.2,3.8Z" fill="none" stroke="#4d4d4d" stroke-miterlimit="10"/><circle cx="962.9" cy="471.5" r="4.5" transform="translate(-108.9 444.9) rotate(-24.7)" fill="none" stroke="#4d4d4d" stroke-miterlimit="10"/><circle cx="962.9" cy="471.5" r="3.2" transform="translate(-108.9 444.9) rotate(-24.7)" fill="none" stroke="#4d4d4d" stroke-miterlimit="10"/><path d="M1073.9,613.6l-134-49.6-39.6-23.4a4.6,4.6,0,0,1,3.1-8.4l45.3,8.1,134,49.6,39.6,23.4a4.6,4.6,0,0,1-3.1,8.4Z" fill="none" stroke="#4d4d4d" stroke-miterlimit="10"/><circle cx="902.6" cy="536.6" r="4.5" transform="translate(85.8 1196.5) rotate(-69.7)" fill="none" stroke="#4d4d4d" stroke-miterlimit="10"/><circle cx="902.6" cy="536.6" r="3.2" transform="translate(85.8 1196.5) rotate(-69.7)" fill="none" stroke="#4d4d4d" stroke-miterlimit="10"/><circle cx="1120" cy="617.2" r="4.5" transform="translate(152.1 1453) rotate(-69.7)" fill="none" stroke="#4d4d4d" stroke-miterlimit="10"/><circle cx="1120" cy="617.2" r="3.2" transform="translate(152.1 1453) rotate(-69.7)" fill="none" stroke="#4d4d4d" stroke-miterlimit="10"/><path d="M974.6,639.5l49.6-134,23.4-39.6a4.6,4.6,0,0,1,8.4,3.1l-8.1,45.3-49.6,134L975,687.8a4.6,4.6,0,0,1-8.4-3.1Z" fill="none" stroke="#4d4d4d" stroke-miterlimit="10"/><circle cx="1051.5" cy="468.2" r="4.5" transform="translate(247.2 1291.5) rotate(-69.7)" fill="none" stroke="#4d4d4d" stroke-miterlimit="10"/><circle cx="1051.5" cy="468.2" r="3.2" transform="translate(247.2 1291.5) rotate(-69.7)" fill="none" stroke="#4d4d4d" stroke-miterlimit="10"/><line x1="1053" y1="463.1" x2="1430.6" y2="697.2" fill="none" stroke="#4d4d4d" stroke-miterlimit="10"/><line x1="1006.7" y1="456.5" x2="705.6" y2="528.5" fill="none" stroke="#4d4d4d" stroke-miterlimit="10"/><line x1="1093.2" y1="488.5" x2="1249.7" y2="697.2" fill="none" stroke="#4d4d4d" stroke-miterlimit="10"/><line x1="1120.8" y1="526.6" x2="1166.4" y2="697.2" fill="none" stroke="#4d4d4d" stroke-miterlimit="10"/><line x1="961" y1="467.4" x2="772.8" y2="601.9" fill="none" stroke="#4d4d4d" stroke-miterlimit="10"/><line x1="922.9" y1="495" x2="825.4" y2="648.8" fill="none" stroke="#4d4d4d" stroke-miterlimit="10"/><line x1="898.3" y1="535" x2="873.1" y2="697.2" fill="none" stroke="#4d4d4d" stroke-miterlimit="10"/><line x1="890.9" y1="581.5" x2="919.5" y2="697.2" fill="none" stroke="#4d4d4d" stroke-miterlimit="10"/><line x1="1132.3" y1="569.6" x2="1116.8" y2="697.2" fill="none" stroke="#4d4d4d" stroke-miterlimit="10"/><circle cx="1550.7" cy="584.5" r="6.8" transform="translate(491.9 1859.4) rotate(-70.9)" fill="none" stroke="#4d4d4d" stroke-miterlimit="10"/><circle cx="1584.4" cy="595.4" r="6.8" transform="translate(504.3 1898.6) rotate(-70.9)" fill="none" stroke="#4d4d4d" stroke-miterlimit="10"/><circle cx="1616.8" cy="606.6" r="6.8" transform="translate(515.5 1936.8) rotate(-70.9)" fill="none" stroke="#4d4d4d" stroke-miterlimit="10"/><circle cx="2060.4" cy="530.5" r="6.8" transform="translate(325 1761.5) rotate(-49.8)" fill="none" stroke="#4d4d4d" stroke-miterlimit="10"/><circle cx="2083.6" cy="503.1" r="6.8" transform="translate(354.2 1769.5) rotate(-49.8)" fill="none" stroke="#4d4d4d" stroke-miterlimit="10"/><circle cx="2108" cy="474.3" r="6.8" transform="translate(384.8 1777.8) rotate(-49.8)" fill="none" stroke="#4d4d4d" stroke-miterlimit="10"/><circle cx="2009.4" cy="589.4" r="6.8" transform="translate(262 1743.4) rotate(-49.8)" fill="none" stroke="#4d4d4d" stroke-miterlimit="10"/><circle cx="2033.7" cy="560.6" r="6.8" transform="translate(292.6 1751.7) rotate(-49.8)" fill="none" stroke="#4d4d4d" stroke-miterlimit="10"/><line x1="317.6" y1="89.8" x2="317.6" y2="170.8" fill="none" stroke="#4d4d4d" stroke-miterlimit="10"/><polyline points="293.6 56.8 293.6 -37.7 317.6 -37.7 317.6 56.8" fill="none" stroke="#4d4d4d" stroke-miterlimit="10"/><line x1="293.6" y1="170.8" x2="293.6" y2="88.8" fill="none" stroke="#4d4d4d" stroke-miterlimit="10"/><line x1="293.6" y1="388.8" x2="293.6" y2="305.8" fill="none" stroke="#4d4d4d" stroke-miterlimit="10"/><polyline points="317.6 421.8 317.6 515.3 293.6 515.3 293.6 420.8" fill="none" stroke="#4d4d4d" stroke-miterlimit="10"/><line x1="317.6" y1="305.8" x2="317.6" y2="388.8" fill="none" stroke="#4d4d4d" stroke-miterlimit="10"/><polyline points="455.1 250.3 440.9 250.3 372.1 250.3" fill="none" stroke="#4d4d4d" stroke-miterlimit="10"/><polyline points="488.1 226.3 580.6 226.3 580.6 250.3 488.1 250.3" fill="none" stroke="#4d4d4d" stroke-miterlimit="10"/><line x1="372.1" y1="226.3" x2="455.1" y2="226.3" fill="none" stroke="#4d4d4d" stroke-miterlimit="10"/><line x1="156.1" y1="226.3" x2="237.1" y2="226.3" fill="none" stroke="#4d4d4d" stroke-miterlimit="10"/><polyline points="123.1 250.3 28.6 250.3 28.6 226.3 123.1 226.3" fill="none" stroke="#4d4d4d" stroke-miterlimit="10"/><line x1="237.1" y1="250.3" x2="156.1" y2="250.3" fill="none" stroke="#4d4d4d" stroke-miterlimit="10"/><rect x="268.3" y="297.1" width="74.8" height="8.97" transform="translate(4.7 607.8) rotate(-90.1)" fill="none" stroke="#4d4d4d" stroke-miterlimit="10"/><rect x="268.1" y="171.8" width="74.8" height="8.97" transform="translate(129.7 482.1) rotate(-90.1)" fill="none" stroke="#4d4d4d" stroke-miterlimit="10"/><rect x="205.6" y="234.6" width="74.8" height="8.97" transform="translate(-0.4 0.4) rotate(-0.1)" fill="none" stroke="#4d4d4d" stroke-miterlimit="10"/><rect x="330.8" y="234.4" width="74.8" height="8.97" transform="translate(-0.4 0.6) rotate(-0.1)" fill="none" stroke="#4d4d4d" stroke-miterlimit="10"/><rect x="1565.6" y="266.3" width="38" height="26" fill="none" stroke="#4d4d4d" stroke-miterlimit="10"/><rect x="1522.6" y="301.3" width="12" height="24" fill="none" stroke="#4d4d4d" stroke-miterlimit="10"/><rect x="1512.6" y="309.3" width="10" height="9" fill="none" stroke="#4d4d4d" stroke-miterlimit="10"/><rect x="1565.6" y="334.3" width="39" height="26" fill="none" stroke="#4d4d4d" stroke-miterlimit="10"/><circle cx="1600.6" cy="356.5" r="1.5" fill="none" stroke="#4d4d4d" stroke-miterlimit="10"/><circle cx="1569" cy="356.5" r="1.5" fill="none" stroke="#4d4d4d" stroke-miterlimit="10"/><rect x="1587.6" y="301.3" width="13" height="25" fill="none" stroke="#4d4d4d" stroke-miterlimit="10"/><rect x="1534.6" y="309.3" width="21" height="9" fill="none" stroke="#4d4d4d" stroke-miterlimit="10"/><rect x="1560.6" y="309.3" width="27" height="9" fill="none" stroke="#4d4d4d" stroke-miterlimit="10"/><rect x="1600.6" y="309.3" width="14" height="9" fill="none" stroke="#4d4d4d" stroke-miterlimit="10"/><rect x="1555.6" y="273.3" width="5" height="80" fill="none" stroke="#4d4d4d" stroke-miterlimit="10"/><rect x="1560.6" y="273.3" width="5" height="13" fill="none" stroke="#4d4d4d" stroke-miterlimit="10"/><rect x="1560.6" y="340.3" width="5" height="14" fill="none" stroke="#4d4d4d" stroke-miterlimit="10"/><rect x="1614.6" y="300.3" width="13" height="28" fill="none" stroke="#4d4d4d" stroke-miterlimit="10"/><rect x="1618.6" y="290.3" width="4" height="10" fill="none" stroke="#4d4d4d" stroke-miterlimit="10"/><rect x="1618.6" y="287.3" width="38" height="3" fill="none" stroke="#4d4d4d" stroke-miterlimit="10"/><polyline points="1651.6 303.8 1651.6 290.3 1656.6 290.3 1656.6 303.8" fill="none" stroke="#4d4d4d" stroke-miterlimit="10"/><rect x="1618.6" y="328.3" width="4" height="10" fill="none" stroke="#4d4d4d" stroke-miterlimit="10"/><rect x="1618.6" y="338.3" width="38" height="3" fill="none" stroke="#4d4d4d" stroke-miterlimit="10"/><polyline points="1651.6 324.8 1651.6 338.3 1656.6 338.3 1656.6 324.8" fill="none" stroke="#4d4d4d" stroke-miterlimit="10"/><circle cx="305.7" cy="238.9" r="25.6" fill="none" stroke="#4d4d4d" stroke-miterlimit="10"/><rect x="322.4" y="203.2" width="74.8" height="8.97" transform="translate(775.2 207.6) rotate(150)" fill="none" stroke="#4d4d4d" stroke-miterlimit="10"/><rect x="214" y="265.8" width="74.8" height="8.97" transform="translate(604.2 378.6) rotate(150)" fill="none" stroke="#4d4d4d" stroke-miterlimit="10"/><polygon points="322.1 258.6 359.5 323.3 351.7 327.8 333.8 296.8 314.3 263 322.1 258.6" fill="none" stroke="#4d4d4d" stroke-miterlimit="10"/><rect x="236.9" y="180.2" width="74.8" height="8.97" transform="translate(251.4 514.6) rotate(-120)" fill="none" stroke="#4d4d4d" stroke-miterlimit="10"/><rect x="322.4" y="265.8" width="74.8" height="8.97" transform="translate(536.3 684.2) rotate(-150)" fill="none" stroke="#4d4d4d" stroke-miterlimit="10"/><rect x="214" y="203.2" width="74.8" height="8.97" transform="translate(365.2 513.1) rotate(-150)" fill="none" stroke="#4d4d4d" stroke-miterlimit="10"/><rect x="236.9" y="288.7" width="74.8" height="8.97" transform="translate(-116.8 384.1) rotate(-60)" fill="none" stroke="#4d4d4d" stroke-miterlimit="10"/><polygon points="359.5 154.6 343.6 182.1 322.1 219.3 314.3 214.9 335.8 177.6 351.7 150.1 359.5 154.6" fill="none" stroke="#4d4d4d" stroke-miterlimit="10"/><polygon points="310.1 264.2 310.2 303.8 310.2 338.9 301.3 339 301.1 264.2 310.1 264.2" fill="none" stroke="#4d4d4d" stroke-miterlimit="10"/><polygon points="309.9 138.9 309.9 170.5 310 213.7 301 213.7 300.9 139 309.9 138.9" fill="none" stroke="#4d4d4d" stroke-miterlimit="10"/><rect x="205.6" y="234.6" width="74.8" height="8.97" transform="translate(-0.4 0.4) rotate(-0.1)" fill="none" stroke="#4d4d4d" stroke-miterlimit="10"/><rect x="330.8" y="234.4" width="74.8" height="8.97" transform="translate(-0.4 0.6) rotate(-0.1)" fill="none" stroke="#4d4d4d" stroke-miterlimit="10"/><circle cx="305.7" cy="238.9" r="25.6" fill="none" stroke="#4d4d4d" stroke-miterlimit="10"/><circle cx="305.7" cy="238.9" r="15" fill="none" stroke="#4d4d4d" stroke-miterlimit="10"/><polyline points="1651.1 316.3 1632.6 316.3 1632.6 312.3 1651.1 312.3" fill="none" stroke="#4d4d4d" stroke-miterlimit="10"/><polyline points="1657.1 312.3 1674.6 312.3 1674.6 316.3 1657.1 316.3" fill="none" stroke="#4d4d4d" stroke-miterlimit="10"/><polyline points="1656.9 316 1665.9 331.6 1662.8 333.3 1653.9 317.8" fill="none" stroke="#4d4d4d" stroke-miterlimit="10"/><polyline points="1650.8 312.5 1641.9 297 1644.9 295.2 1653.9 310.8" fill="none" stroke="#4d4d4d" stroke-miterlimit="10"/><polyline points="1653.9 317.8 1644.9 333.3 1641.9 331.6 1650.7 316.2" fill="none" stroke="#4d4d4d" stroke-miterlimit="10"/><polyline points="1654 310.7 1662.7 295.5 1665.8 297.3 1657 312.5" fill="none" stroke="#4d4d4d" stroke-miterlimit="10"/><circle cx="1653.9" cy="314.2" r="1.6" fill="none" stroke="#4d4d4d" stroke-miterlimit="10"/><path d="M1647,322.7a11,11,0,0,1-3.8-6.7" fill="none" stroke="#4d4d4d" stroke-miterlimit="10"/><path d="M1657.8,324.5a11,11,0,0,1-7.7-.1" fill="none" stroke="#4d4d4d" stroke-miterlimit="10"/><path d="M1664.8,316a11,11,0,0,1-4,6.8" fill="none" stroke="#4d4d4d" stroke-miterlimit="10"/><path d="M1660.7,305.6a11,11,0,0,1,4.1,6.9" fill="none" stroke="#4d4d4d" stroke-miterlimit="10"/><path d="M1650,304a11,11,0,0,1,7.8,0" fill="none" stroke="#4d4d4d" stroke-miterlimit="10"/><path d="M1643.2,312.5a11,11,0,0,1,3.8-6.7" fill="none" stroke="#4d4d4d" stroke-miterlimit="10"/><line x1="1887.1" y1="701.8" x2="2485.6" y2="4.3" fill="none" stroke="#4d4d4d" stroke-miterlimit="10"/><circle cx="1984.6" cy="618.2" r="6.8" transform="translate(231.2 1734.6) rotate(-49.8)" fill="none" stroke="#4d4d4d" stroke-miterlimit="10"/><circle cx="2412.4" cy="51.8" r="6.8" transform="translate(815.3 1860.6) rotate(-49.8)" fill="none" stroke="#4d4d4d" stroke-miterlimit="10"/><circle cx="2435.6" cy="24.4" r="6.8" transform="translate(844.5 1868.6) rotate(-49.8)" fill="none" stroke="#4d4d4d" stroke-miterlimit="10"/><circle cx="2334.8" cy="140.7" r="6.8" transform="translate(719.9 1832.8) rotate(-49.8)" fill="none" stroke="#4d4d4d" stroke-miterlimit="10"/><circle cx="2361.4" cy="110.7" r="6.8" transform="translate(752.3 1842.5) rotate(-49.8)" fill="none" stroke="#4d4d4d" stroke-miterlimit="10"/><circle cx="2385.7" cy="81.9" r="6.8" transform="translate(782.9 1850.9) rotate(-49.8)" fill="none" stroke="#4d4d4d" stroke-miterlimit="10"/><circle cx="2260.4" cy="228.5" r="6.8" transform="translate(626.5 1807.2) rotate(-49.8)" fill="none" stroke="#4d4d4d" stroke-miterlimit="10"/><circle cx="2283.6" cy="201.1" r="6.8" transform="translate(655.7 1815.2) rotate(-49.8)" fill="none" stroke="#4d4d4d" stroke-miterlimit="10"/><circle cx="2308" cy="172.3" r="6.8" transform="translate(686.3 1823.6) rotate(-49.8)" fill="none" stroke="#4d4d4d" stroke-miterlimit="10"/><line x1="1796.6" y1="382.3" x2="1702.6" y2="640.3" fill="none" stroke="#4d4d4d" stroke-miterlimit="10"/></g></svg>