<svg xmlns="http://www.w3.org/2000/svg" width="2301" height="200" viewBox="0 0 2301 200"><title>banner-safe200-grey</title><g id="Layer_4" data-name="Layer 4"><rect x="-4" y="-545" width="2305" height="750" fill="#333332"/><line x1="546.12" y1="-70.46" x2="876" y2="264.47" fill="none" stroke="#4d4d4d" stroke-miterlimit="10"/><line x1="534.12" y1="-49.68" x2="1055.89" y2="30.38" fill="none" stroke="#4d4d4d" stroke-miterlimit="10"/><line x1="583.5" y1="-206.5" x2="1927.41" y2="261.3" fill="none" stroke="#4d4d4d" stroke-miterlimit="10"/><line x1="1516.74" y1="119.35" x2="1124.96" y2="-482.83" fill="none" stroke="#4d4d4d" stroke-miterlimit="10"/><path d="M296.5,57.76A250.45,250.45,0,0,1,193,30.17" fill="none" stroke="#4d4d4d" stroke-miterlimit="10"/><path d="M423.82,30A250.44,250.44,0,0,1,320.49,57.73" fill="none" stroke="#4d4d4d" stroke-miterlimit="10"/><path d="M520-57.38A253.19,253.19,0,0,1,444.59,18" fill="none" stroke="#4d4d4d" stroke-miterlimit="10"/><path d="M172.21,18.17A253.19,253.19,0,0,1,96.56-57.32" fill="none" stroke="#4d4d4d" stroke-miterlimit="10"/><path d="M296.5,25.87A218.75,218.75,0,0,1,208.94,2.55" fill="none" stroke="#4d4d4d" stroke-miterlimit="10"/><path d="M407.88,2.38A218.74,218.74,0,0,1,320.5,25.84" fill="none" stroke="#4d4d4d" stroke-miterlimit="10"/><polyline points="410.28 -41.47 452.6 31.84 431.82 43.84 389.44 -29.56" fill="none" stroke="#4d4d4d" stroke-miterlimit="10"/><polyline points="227.66 -29.87 185.1 43.84 164.32 31.84 206.87 -41.86" fill="none" stroke="#4d4d4d" stroke-miterlimit="10"/><path d="M296.62,5.85A198.85,198.85,0,0,1,219-14.81" fill="none" stroke="#4d4d4d" stroke-miterlimit="10"/><path d="M397.86-15A198.83,198.83,0,0,1,320.58,5.8" fill="none" stroke="#4d4d4d" stroke-miterlimit="10"/><circle cx="246.11" cy="36.04" r="7.13" fill="none" stroke="#4d4d4d" stroke-miterlimit="10"/><circle cx="368.66" cy="36.49" r="7.13" transform="translate(31.15 189.22) rotate(-30)" fill="none" stroke="#4d4d4d" stroke-miterlimit="10"/><circle cx="1091.03" cy="-6.31" r="6.84" transform="translate(740.78 1027) rotate(-70.94)" fill="none" stroke="#4d4d4d" stroke-miterlimit="10"/><circle cx="1123.43" cy="4.89" r="6.84" transform="translate(752.03 1065.16) rotate(-70.94)" fill="none" stroke="#4d4d4d" stroke-miterlimit="10"/><circle cx="1158.15" cy="16.88" r="6.84" transform="translate(764.08 1106.06) rotate(-70.94)" fill="none" stroke="#4d4d4d" stroke-miterlimit="10"/><circle cx="1190.56" cy="28.07" r="6.84" transform="translate(775.32 1144.22) rotate(-70.94)" fill="none" stroke="#4d4d4d" stroke-miterlimit="10"/><circle cx="1224.23" cy="39" r="6.84" transform="translate(787.67 1183.41) rotate(-70.94)" fill="none" stroke="#4d4d4d" stroke-miterlimit="10"/><circle cx="1256.63" cy="50.19" r="6.84" transform="translate(798.92 1221.58) rotate(-70.94)" fill="none" stroke="#4d4d4d" stroke-miterlimit="10"/><circle cx="1289.41" cy="61.51" r="6.84" transform="translate(810.29 1260.19) rotate(-70.94)" fill="none" stroke="#4d4d4d" stroke-miterlimit="10"/><line x1="164.32" y1="31.84" x2="98.43" y2="264.47" fill="none" stroke="#4d4d4d" stroke-miterlimit="10"/><line x1="185.1" y1="43.84" x2="-2.21" y2="218.62" fill="none" stroke="#4d4d4d" stroke-miterlimit="10"/><line x1="431.82" y1="43.84" x2="680.84" y2="266.18" fill="none" stroke="#4d4d4d" stroke-miterlimit="10"/><line x1="452.6" y1="31.84" x2="517.94" y2="263.1" fill="none" stroke="#4d4d4d" stroke-miterlimit="10"/><circle cx="1323.09" cy="72.87" r="6.84" transform="translate(822.24 1299.67) rotate(-70.94)" fill="none" stroke="#4d4d4d" stroke-miterlimit="10"/><circle cx="1355.49" cy="84.07" r="6.84" transform="translate(833.48 1337.83) rotate(-70.94)" fill="none" stroke="#4d4d4d" stroke-miterlimit="10"/><circle cx="1390.21" cy="96.06" r="6.84" transform="translate(845.53 1378.73) rotate(-70.94)" fill="none" stroke="#4d4d4d" stroke-miterlimit="10"/><circle cx="1422.62" cy="107.25" r="6.84" transform="translate(856.77 1416.89) rotate(-70.94)" fill="none" stroke="#4d4d4d" stroke-miterlimit="10"/><circle cx="1456.29" cy="118.18" r="6.84" transform="translate(869.13 1456.08) rotate(-70.94)" fill="none" stroke="#4d4d4d" stroke-miterlimit="10"/><circle cx="1488.69" cy="129.37" r="6.84" transform="translate(880.37 1494.25) rotate(-70.94)" fill="none" stroke="#4d4d4d" stroke-miterlimit="10"/><circle cx="1521.47" cy="140.69" r="6.84" transform="translate(891.75 1532.86) rotate(-70.94)" fill="none" stroke="#4d4d4d" stroke-miterlimit="10"/><line x1="296.46" y1="81.68" x2="346.33" y2="272.47" fill="none" stroke="#4d4d4d" stroke-miterlimit="10"/><line x1="320.46" y1="81.68" x2="272.77" y2="271.1" fill="none" stroke="#4d4d4d" stroke-miterlimit="10"/><path d="M1625.28-30.69l-.26,2.74a14,14,0,0,0-3,.74l-1.59-2.27a.81.81,0,0,0-1.44.7l.8,2.62a14.11,14.11,0,0,0-2.45,1.81L1615-25.89a.81.81,0,0,0-1.08,1.18l1.73,2.14a14.11,14.11,0,0,0-1.62,2.68l-2.7-.55a.81.81,0,0,0-.55,1.5l2.41,1.33a14,14,0,0,0-.46,3.13l-2.72.51a.79.79,0,0,0,.07,1.57l2.77.29a14,14,0,0,0,.74,3l-2.33,1.54a.81.81,0,0,0,.67,1.45l2.69-.79a14.11,14.11,0,0,0,1.84,2.48l-1.58,2.34A.81.81,0,0,0,1616.1-1l2.21-1.78a14.11,14.11,0,0,0,2.63,1.58l-.57,2.79a.81.81,0,0,0,1.5.55l1.37-2.5a14,14,0,0,0,3,.45l.54,2.82a.79.79,0,0,0,1.56-.07l.29-2.86a14,14,0,0,0,3-.72l1.59,2.4A.81.81,0,0,0,1634.7,1l-.81-2.77a14.11,14.11,0,0,0,2.49-1.83L1638.84-2a.81.81,0,0,0,1.06-1.19l-1.83-2.23A14.11,14.11,0,0,0,1639.62-8l2.86.51A.81.81,0,0,0,1643-9l-2.53-1.35a14,14,0,0,0,.45-3l2.83-.62a.78.78,0,0,0-.09-1.55l-2.84-.26a14,14,0,0,0-.71-3l2.34-1.64a.81.81,0,0,0-.7-1.45L1639-21a14.11,14.11,0,0,0-1.8-2.46l1.53-2.39a.81.81,0,0,0-1.19-1.06l-2.16,1.78a14.11,14.11,0,0,0-2.62-1.59l.49-2.77a.81.81,0,0,0-1.51-.52l-1.31,2.44a14,14,0,0,0-3.06-.46l-.59-2.73A.79.79,0,0,0,1625.28-30.69Z" fill="none" stroke="#4d4d4d" stroke-miterlimit="10"/><path d="M1578.63,1.81l1.47-2.33a14,14,0,0,0,3,.7l.39,2.74a.81.81,0,0,0,1.6,0l.47-2.7a14.11,14.11,0,0,0,3-.51l1.34,2.4a.81.81,0,0,0,1.5-.56l-.57-2.69a14.11,14.11,0,0,0,2.66-1.66l2.16,1.71a.81.81,0,0,0,1.17-1.09l-1.55-2.28A14,14,0,0,0,1597.1-7l2.66.77a.79.79,0,0,0,.65-1.43l-2.34-1.51a14,14,0,0,0,.69-3l2.77-.33a.81.81,0,0,0,.05-1.6l-2.76-.51a14.11,14.11,0,0,0-.52-3l2.47-1.38a.81.81,0,0,0-.56-1.5l-2.77.59a14.11,14.11,0,0,0-1.63-2.6l1.77-2.24a.81.81,0,0,0-1.09-1.17l-2.36,1.61a14,14,0,0,0-2.51-1.77l.79-2.76a.79.79,0,0,0-1.42-.65l-1.55,2.42a14,14,0,0,0-3-.7l-.34-2.86a.81.81,0,0,0-1.6-.06l-.53,2.84a14.11,14.11,0,0,0-3,.51l-1.48-2.51a.81.81,0,0,0-1.48.59l.63,2.81a14.11,14.11,0,0,0-2.54,1.59l-2.33-1.75a.81.81,0,0,0-1.15,1.11l1.65,2.35a14,14,0,0,0-1.74,2.46l-2.8-.72a.78.78,0,0,0-.62,1.43l2.41,1.51a14,14,0,0,0-.71,3l-2.83.41a.81.81,0,0,0,0,1.6l2.78.49a14.11,14.11,0,0,0,.5,3l-2.45,1.45a.81.81,0,0,0,.59,1.48l2.73-.61a14.11,14.11,0,0,0,1.62,2.6L1572-2.86a.81.81,0,0,0,1.11,1.15l2.27-1.59a14,14,0,0,0,2.53,1.79l-.71,2.7A.79.79,0,0,0,1578.63,1.81Z" fill="none" stroke="#4d4d4d" stroke-miterlimit="10"/><path d="M1606,85.47c113.26,0,205.08-91.82,205.08-205.08S1719.28-324.68,1606-324.68s-205.08,91.82-205.08,205.08S1492.76,85.47,1606,85.47Zm0-380.08a175,175,0,0,1,175,175,175,175,0,0,1-175,175,175,175,0,0,1-175-175A175,175,0,0,1,1606-294.6Z" fill="none" stroke="#4d4d4d" stroke-miterlimit="10"/><path d="M1606,30.4a150,150,0,0,0,150-150,150,150,0,0,0-150-150,150,150,0,0,0-150,150A150,150,0,0,0,1606,30.4Zm0-278a128,128,0,0,1,128,128,128,128,0,0,1-128,128,128,128,0,0,1-128-128A128,128,0,0,1,1606-247.6Z" fill="none" stroke="#4d4d4d" stroke-miterlimit="10"/><path d="M1606.65-26.31a.76.76,0,0,1-1.39,0l-.93-3-1.84-.06v34h6.2v-34l-1.13,0Z" fill="none" stroke="#4d4d4d" stroke-miterlimit="10"/><circle cx="1568.78" cy="67.37" r="7.5" fill="none" stroke="#4d4d4d" stroke-miterlimit="10"/><circle cx="1711.45" cy="38.9" r="7.5" transform="translate(473.76 1221.57) rotate(-45)" fill="none" stroke="#4d4d4d" stroke-miterlimit="10"/><circle cx="1642.95" cy="67.33" r="7.5" transform="translate(99.3 633.85) rotate(-22.5)" fill="none" stroke="#4d4d4d" stroke-miterlimit="10"/><circle cx="1500.25" cy="39.04" r="7.5" transform="translate(890.07 1410.15) rotate(-67.5)" fill="none" stroke="#4d4d4d" stroke-miterlimit="10"/><path d="M1086,154l-142.78,5.41L897.74,153a4.57,4.57,0,0,1-.34-9l44.91-9.87,142.78-5.41,45.53,6.45a4.57,4.57,0,0,1,.34,9Z" fill="none" stroke="#4d4d4d" stroke-miterlimit="10"/><circle cx="898.35" cy="148.52" r="4.53" transform="translate(-4.98 34.12) rotate(-2.17)" fill="none" stroke="#4d4d4d" stroke-miterlimit="10"/><circle cx="898.35" cy="148.52" r="3.17" transform="translate(-4.98 34.12) rotate(-2.17)" fill="none" stroke="#4d4d4d" stroke-miterlimit="10"/><circle cx="1130.02" cy="139.74" r="4.53" transform="translate(-4.48 42.88) rotate(-2.17)" fill="none" stroke="#4d4d4d" stroke-miterlimit="10"/><circle cx="1130.02" cy="139.74" r="3.17" transform="translate(-4.48 42.88) rotate(-2.17)" fill="none" stroke="#4d4d4d" stroke-miterlimit="10"/><path d="M1004.23,216,998.82,73.19l6.45-45.53a4.57,4.57,0,0,1,9-.34l9.87,44.91L1029.54,215l-6.45,45.53a4.57,4.57,0,0,1-9,.34Z" fill="none" stroke="#4d4d4d" stroke-miterlimit="10"/><circle cx="1009.76" cy="28.26" r="4.53" transform="translate(-0.35 38.25) rotate(-2.17)" fill="none" stroke="#4d4d4d" stroke-miterlimit="10"/><circle cx="1009.76" cy="28.26" r="3.17" transform="translate(-0.35 38.25) rotate(-2.17)" fill="none" stroke="#4d4d4d" stroke-miterlimit="10"/><path d="M1058,202,953.18,104.82,925.54,68.07a4.57,4.57,0,0,1,6.12-6.6L970.4,86.24l104.78,97.13,27.64,36.75a4.57,4.57,0,0,1-6.12,6.6Z" fill="none" stroke="#4d4d4d" stroke-miterlimit="10"/><circle cx="929.15" cy="65.32" r="4.53" transform="translate(249.59 702.32) rotate(-47.17)" fill="none" stroke="#4d4d4d" stroke-miterlimit="10"/><circle cx="929.15" cy="65.32" r="3.17" transform="translate(249.59 702.32) rotate(-47.17)" fill="none" stroke="#4d4d4d" stroke-miterlimit="10"/><path d="M956.33,187.88l97.13-104.78,36.75-27.64a4.57,4.57,0,0,1,6.6,6.12L1072,100.32,974.9,205.1l-36.75,27.64a4.57,4.57,0,0,1-6.6-6.12Z" fill="none" stroke="#4d4d4d" stroke-miterlimit="10"/><circle cx="1092.96" cy="59.06" r="4.53" transform="translate(306.62 820.46) rotate(-47.17)" fill="none" stroke="#4d4d4d" stroke-miterlimit="10"/><circle cx="1092.96" cy="59.06" r="3.17" transform="translate(306.62 820.46) rotate(-47.17)" fill="none" stroke="#4d4d4d" stroke-miterlimit="10"/><path d="M1084.39,125.79,954.55,185.42,910,196.89a4.57,4.57,0,0,1-3.76-8.18L944,162.4l129.84-59.64,44.53-11.47a4.57,4.57,0,0,1,3.76,8.18Z" fill="none" stroke="#4d4d4d" stroke-miterlimit="10"/><circle cx="908.86" cy="192.51" r="4.53" transform="translate(2.6 396.92) rotate(-24.67)" fill="none" stroke="#4d4d4d" stroke-miterlimit="10"/><circle cx="908.86" cy="192.51" r="3.17" transform="translate(2.6 396.92) rotate(-24.67)" fill="none" stroke="#4d4d4d" stroke-miterlimit="10"/><circle cx="1119.53" cy="95.74" r="4.53" transform="translate(62.22 476.02) rotate(-24.67)" fill="none" stroke="#4d4d4d" stroke-miterlimit="10"/><circle cx="1119.53" cy="95.74" r="3.17" transform="translate(62.22 476.02) rotate(-24.67)" fill="none" stroke="#4d4d4d" stroke-miterlimit="10"/><path d="M1032.49,214.3,972.85,84.46,961.39,39.93a4.57,4.57,0,0,1,8.18-3.76l26.31,37.71,59.64,129.84L1067,248.26a4.57,4.57,0,0,1-8.18,3.76Z" fill="none" stroke="#4d4d4d" stroke-miterlimit="10"/><circle cx="965.77" cy="38.77" r="4.53" transform="translate(71.96 406.64) rotate(-24.67)" fill="none" stroke="#4d4d4d" stroke-miterlimit="10"/><circle cx="965.77" cy="38.77" r="3.17" transform="translate(71.96 406.64) rotate(-24.67)" fill="none" stroke="#4d4d4d" stroke-miterlimit="10"/><path d="M1076.77,180.79l-134-49.64-39.6-23.38a4.57,4.57,0,0,1,3.13-8.44l45.27,8.06,134,49.64,39.6,23.38a4.57,4.57,0,0,1-3.13,8.44Z" fill="none" stroke="#4d4d4d" stroke-miterlimit="10"/><circle cx="905.47" cy="103.85" r="4.53" transform="translate(493.5 916.84) rotate(-69.67)" fill="none" stroke="#4d4d4d" stroke-miterlimit="10"/><circle cx="905.47" cy="103.85" r="3.17" transform="translate(493.5 916.84) rotate(-69.67)" fill="none" stroke="#4d4d4d" stroke-miterlimit="10"/><circle cx="1122.87" cy="184.4" r="4.53" transform="translate(559.84 1173.25) rotate(-69.67)" fill="none" stroke="#4d4d4d" stroke-miterlimit="10"/><circle cx="1122.87" cy="184.4" r="3.17" transform="translate(559.84 1173.25) rotate(-69.67)" fill="none" stroke="#4d4d4d" stroke-miterlimit="10"/><path d="M977.48,206.68l49.64-134,23.38-39.6a4.57,4.57,0,0,1,8.44,3.13l-8.06,45.27-49.64,134-23.38,39.6a4.57,4.57,0,0,1-8.44-3.13Z" fill="none" stroke="#4d4d4d" stroke-miterlimit="10"/><circle cx="1054.42" cy="35.39" r="4.53" transform="translate(654.9 1011.83) rotate(-69.67)" fill="none" stroke="#4d4d4d" stroke-miterlimit="10"/><circle cx="1054.42" cy="35.39" r="3.17" transform="translate(654.9 1011.83) rotate(-69.67)" fill="none" stroke="#4d4d4d" stroke-miterlimit="10"/><line x1="1055.89" y1="30.38" x2="1433.51" y2="264.47" fill="none" stroke="#4d4d4d" stroke-miterlimit="10"/><line x1="1009.59" y1="23.73" x2="708.5" y2="95.74" fill="none" stroke="#4d4d4d" stroke-miterlimit="10"/><line x1="1096.04" y1="55.74" x2="1252.53" y2="264.47" fill="none" stroke="#4d4d4d" stroke-miterlimit="10"/><line x1="1123.65" y1="93.85" x2="1169.3" y2="264.47" fill="none" stroke="#4d4d4d" stroke-miterlimit="10"/><line x1="963.88" y1="34.65" x2="775.65" y2="169.15" fill="none" stroke="#4d4d4d" stroke-miterlimit="10"/><line x1="925.82" y1="62.23" x2="828.26" y2="215.99" fill="none" stroke="#4d4d4d" stroke-miterlimit="10"/><line x1="901.22" y1="102.28" x2="876" y2="264.47" fill="none" stroke="#4d4d4d" stroke-miterlimit="10"/><line x1="893.82" y1="148.69" x2="922.43" y2="264.47" fill="none" stroke="#4d4d4d" stroke-miterlimit="10"/><line x1="1135.16" y1="136.86" x2="1119.7" y2="264.47" fill="none" stroke="#4d4d4d" stroke-miterlimit="10"/><circle cx="1553.58" cy="151.75" r="6.84" transform="translate(902.92 1570.65) rotate(-70.94)" fill="none" stroke="#4d4d4d" stroke-miterlimit="10"/><circle cx="1587.25" cy="162.68" r="6.84" transform="translate(915.27 1609.84) rotate(-70.94)" fill="none" stroke="#4d4d4d" stroke-miterlimit="10"/><circle cx="1619.66" cy="173.87" r="6.84" transform="translate(926.51 1648.01) rotate(-70.94)" fill="none" stroke="#4d4d4d" stroke-miterlimit="10"/><circle cx="1908.62" cy="73.52" r="6.84" transform="translate(-0.56 16.33) rotate(-0.49)" fill="none" stroke="#4d4d4d" stroke-miterlimit="10"/><circle cx="1908.32" cy="37.61" r="6.84" transform="translate(-0.25 16.33) rotate(-0.49)" fill="none" stroke="#4d4d4d" stroke-miterlimit="10"/><circle cx="1908" cy="-0.07" r="6.84" transform="matrix(1, -0.01, 0.01, 1, 0.07, 16.33)" fill="none" stroke="#4d4d4d" stroke-miterlimit="10"/><circle cx="1908.32" cy="151.43" r="6.84" transform="matrix(1, -0.01, 0.01, 1, -1.23, 16.33)" fill="none" stroke="#4d4d4d" stroke-miterlimit="10"/><circle cx="1908" cy="113.75" r="6.84" transform="matrix(1, -0.01, 0.01, 1, -0.9, 16.33)" fill="none" stroke="#4d4d4d" stroke-miterlimit="10"/><polyline points="320.5 -11 320.5 82.5 296.5 82.5 296.5 -12" fill="none" stroke="#4d4d4d" stroke-miterlimit="10"/><line x1="1890" y1="269" x2="2301" y2="-222.35" fill="none" stroke="#4d4d4d" stroke-miterlimit="10"/></g></svg>