<?xml version="1.0" encoding="utf-8"?>
<!-- Generator: Adobe Illustrator 20.1.0, SVG Export Plug-In . SVG Version: 6.00 Build 0)  -->
<svg version="1.1" id="Layer_1" xmlns="http://www.w3.org/2000/svg" xmlns:xlink="http://www.w3.org/1999/xlink" x="0px"
	 y="0px"
	 width="1927.8px" height="212.9px" viewBox="0 0 1927.8 212.9" enable-background="new 0 0 1927.8 212.9"
	 xml:space="preserve">
<g id="Layer_3">
</g>
	<g id="Layer_2">
</g>
	<g id="Layer_4">
</g>
	<g id="Layer_1_1_">
	<g>
		<rect x="-11.8" y="-1.4" fill="#E24920" width="1948.3" height="213.1"/>
		<g opacity="0.34">
			<path fill="#FFFFFF" d="M1902.9,77.2c-3.5-3.3-8.1-5.5-13-5.6c-1.1-9.4-8.3-19.2-18.3-19.2h-2.7c-1.9-10-10.8-12.8-18.7-12.8
				c-9,0-16.5,5.8-18,14.8h-3.3c-4.7,0-9.6,2.3-13.4,6.3c-3.3,3.4-5.2,7.7-5.5,11.9c-4.5,0.4-9,2.7-12.4,6.2
				c-3.5,3.6-5.3,8.8-5.1,13.2c0.5,10.5,8.5,19.4,18.3,19.4h78.2c4.7,0,9.6-2.8,13.3-6.6c3.8-3.8,6-9.3,6-14.3
				C1908.5,85.7,1906.5,80.6,1902.9,77.2z M1900.4,102.7c-3.2,3.2-7.3,5.7-11.2,5.7H1811c-9.2,0-15-8.7-15.3-16.5
				c-0.2-3.6,1.3-8.2,4.2-11.2c3.2-3.4,7.6-6.2,11.7-6.2h1.6l-0.1-1c-0.2-3.8,1.5-7.7,4.6-10.9c3.2-3.3,7.3-5.1,11.2-5.1h5.9
				l0.1-1.3c0.9-8.7,8.3-13.2,15.2-13.2c3.4,0,14.5,0.5,15.9,11.5l0.2,1h5.2c8.6,0,15,9.5,15.4,17.8l0.1,1.7h1.5
				c4.7-0.2,9.1,1.4,12.3,4.4c3,2.9,4.7,7.2,4.7,11.2C1905.5,94.8,1903.7,99.4,1900.4,102.7z"/>
			<polygon fill="#FFFFFF" points="1852.5,96.9 1852.5,54.5 1849.5,54.5 1849.5,96.5 1836.4,83.9 1834.1,86.1 1850.3,102.4 
				1867.2,85.6 1865.5,83.4 			"/>
		</g>
		<g opacity="0.13">
			<path fill="#FFFFFF" d="M1829.2,44c-2.7-2.6-6.3-4.3-10.2-4.4c-0.8-7.4-6.5-15.1-14.3-15.1h-2.1c-1.5-8-8.5-9.9-14.6-9.9
				c-7,0-12.9,4.9-14.1,11.9h-2.6c-3.7,0-7.5,1.7-10.5,4.8c-2.6,2.7-4.1,6-4.3,9.2c-3.5,0.3-7.1,2.1-9.7,4.8c-2.7,2.8-4.1,6.1-4,9.6
				c0.4,8.3,6.7,14.5,14.4,14.5h61.3c3.7,0,7.5-1.5,10.5-4.5s4.7-6.9,4.7-10.8C1833.7,50.3,1832.1,46.7,1829.2,44z M1827.3,63.5
				c-2.5,2.5-5.7,4-8.8,4h-61.3c-7.2,0-11.8-6.3-12-12.5c-0.1-2.8,1.1-5.8,3.3-8.2c2.5-2.6,5.9-4.3,9.2-4.3h1.2l-0.1-1.1
				c-0.1-3,1.2-6.2,3.6-8.7c2.5-2.6,5.8-4.2,8.8-4.2h4.7l0.1-1c0.7-6.8,6.5-10.3,12-10.3c2.6,0,11.4,0.7,12.5,9.3l0.1,1.1h4.1
				c6.8,0,11.8,7.2,12.1,13.7l0.1,1.2l1.2-0.1c3.7-0.2,7.1,1,9.6,3.4c2.3,2.2,3.7,5.3,3.7,8.5C1831.3,57.5,1829.9,60.9,1827.3,63.5z
				"/>
			<polygon fill="#FFFFFF" points="1788.5,59.4 1788.5,26.5 1786.5,26.5 1786.5,59.1 1776.7,49.3 1775,50.9 1787.9,63.8 
				1801.1,50.6 1799.2,48.9 			"/>
		</g>
		<g opacity="0.34">
			<path fill="#FFFFFF" d="M1707.4,166.5c-3.9-3.7-9-5.8-14.6-5.9c-1.2-10.5-9.3-21.1-20.4-21.1h-3c-2.2-11-12-14-20.9-14
				c-10,0-18.4,7-20.1,17h-3.7c-5.3,0-10.7,1.9-14.9,6.3c-3.7,3.8-5.8,8.3-6.1,12.9c-5,0.5-10.1,2.8-13.8,6.8
				c-3.9,4.1-5.9,9.5-5.7,14.5c0.5,11.7,9.5,21.5,20.5,21.5h87.3c5.2,0,10.7-3,14.9-7.3c4.3-4.3,6.8-10.3,6.7-15.9
				C1713.7,175.9,1711.4,170.3,1707.4,166.5z M1704.6,195c-3.6,3.6-8.2,6.4-12.5,6.4h-87.3c-10.2,0-16.7-9.8-17.1-18.5
				c-0.2-4,1.5-8.1,4.7-11.5c3.6-3.7,8.5-6,13.1-6h1.8l-0.1-2.1c-0.2-4.3,1.7-8.6,5.2-12.2c3.5-3.7,8.2-5.7,12.5-5.7h6.6l0.2-1.9
				c1-9.7,9.3-15,17-15c3.8,0,16.2,1.1,17.8,13.3l0.2,1.6h5.9c9.6,0,16.8,10,17.2,19.2l0.1,1.5l1.7-0.1c5.3-0.3,10.1,1.5,13.7,4.9
				c3.3,3.2,5.3,8,5.3,12.5C1710.4,186.2,1708.3,191.3,1704.6,195z"/>
			<polygon fill="#FFFFFF" points="1650.5,188.5 1650.5,142.5 1646.5,142.5 1646.5,188 1632.5,174 1630.2,176.4 1648.5,194.7 
				1667.4,175.8 1665.3,173.5 			"/>
		</g>
		<g opacity="0.34">
			<path fill="#FFFFFF" d="M1907.8,121.7c-2.3-2.2-5.4-3-8.7-3c-0.7-6.3-5.6-12.2-12.2-12.2h-1.8c-1.3-8-7.2-8.7-12.5-8.7
				c-6,0-11,2.7-12,9.7h-2.2c-3.2,0-6.4,1.1-8.9,3.7c-2.2,2.3-3.5,4.9-3.6,7.7c-3,0.3-6,1.7-8.3,4c-2.3,2.4-3.5,5.7-3.4,8.7
				c0.3,7,5.7,12.9,12.2,12.9h52.2c3.1,0,6.4-1.9,8.9-4.4c2.6-2.6,4-6.2,4-9.5C1911.6,127.3,1910.2,124,1907.8,121.7z M1906.1,138.7
				c-2.2,2.2-4.9,3.8-7.5,3.8h-52.2c-6.1,0-10-5.8-10.2-11c-0.1-2.4,0.9-5.1,2.8-7.2c2.1-2.2,5.1-3.8,7.8-3.8h1v-1
				c-0.1-2.5,1-4.8,3.1-7s4.9-3,7.5-3h4l0.1-1.3c0.6-5.8,5.6-9.1,10.2-9.1c2.3,0,9.7,0.9,10.6,8.2l0.1,1.2h3.5
				c5.8,0,10,5.7,10.3,11.2v0.8l1-0.2c3.2-0.2,6.1,0.8,8.2,2.9c2,1.9,3.1,4.7,3.2,7.4C1909.6,133.4,1908.3,136.5,1906.1,138.7z"/>
			<polygon fill="#FFFFFF" points="1874.5,134.8 1874.5,107.5 1872.5,107.5 1872.5,134.6 1863.6,126.2 1861.9,127.6 1872.7,138.5 
				1883.9,127.2 1883,125.8 			"/>
		</g>
		<g opacity="0.35">
			<path fill="#FFFFFF" d="M1925.7,23.9c-1.7-1.6-3.9-2.4-6.3-2.4c-0.5-4.5-4-9-8.8-9h-1.3c-0.9-5-5.2-6.7-9-6.7
				c-4.3,0-8,2.7-8.7,6.7h-1.6c-2.3,0-4.6,1.3-6.4,3.2c-1.6,1.7-2.5,3.8-2.6,5.8c-2.2,0.2-4.3,1.4-6,3.1c-1.7,1.8-2.5,3.8-2.4,5.9
				c0.2,5.1,4.1,8.9,8.8,8.9h37.7c2.3,0,4.6-0.9,6.4-2.7c1.9-1.9,2.9-4.2,2.9-6.6C1928.5,27.7,1927.5,25.5,1925.7,23.9z
				 M1924.5,35.9c-1.6,1.6-3.5,2.5-5.4,2.5h-37.7c-4.4,0-7.2-4-7.4-7.7c-0.1-1.7,0.6-3.9,2-5.3c1.5-1.6,3.7-2.9,5.6-2.9h0.8V22
				c-0.1-1.8,0.7-3.6,2.2-5.2c1.5-1.6,3.5-2.4,5.4-2.4h2.9l0.1-0.7c0.4-4.2,4-6.4,7.4-6.4c1.6,0,7,0.3,7.7,5.6l0.1,0.5h2.5
				c4.2,0,7.2,4.5,7.4,8.5v0.8h0.7c2.3-0.1,4.4,0.7,5.9,2.1c1.4,1.4,2.3,3.3,2.3,5.3C1927,32.2,1926.1,34.3,1924.5,35.9z"/>
			<polygon fill="#FFFFFF" points="1901.5,33.3 1901.5,12.5 1899.5,12.5 1899.5,33.2 1893.4,27.1 1892.4,28.1 1900.3,36 
				1908.5,27.9 1907.7,26.9 			"/>
		</g>
		<g opacity="0.32">
			<path fill="#FFFFFF" d="M1822.2,85.7c-2.1-2-4.8-3.5-7.8-3.6c-0.6-5.6-5-11.7-10.9-11.7h-1.6c-1.2-6-6.4-7.8-11.1-7.8
				c-5.4,0-9.9,3.8-10.8,8.8h-2c-2.8,0-5.7,1.7-8,4.1c-2,2-3.1,4.8-3.3,7.3c-2.7,0.2-5.4,1.7-7.4,3.8c-2.1,2.2-3.2,5.4-3,8.1
				c0.3,6.3,5.1,11.8,10.9,11.8h46.7c2.8,0,5.7-1.8,8-4.1c2.3-2.3,3.6-5.6,3.6-8.6C1825.6,90.9,1824.4,87.8,1822.2,85.7z
				 M1820.7,101c-1.9,1.9-4.4,3.5-6.7,3.5h-46.7c-5.5,0-8.9-5.2-9.2-9.9c-0.1-2.2,0.8-4.7,2.5-6.5c1.9-2,4.5-3.6,7-3.6h0.9v-0.8
				c-0.1-2.3,0.9-4.9,2.8-6.9s4.4-3.4,6.7-3.4h3.5l0.1-0.5c0.5-5.2,5-7.8,9.1-7.8c2,0,8.7,0.2,9.5,6.8l0.1,0.5h3.1
				c5.1,0,9,5.8,9.2,10.8v1.1h0.9c2.8-0.1,5.4,0.8,7.3,2.7c1.8,1.7,2.8,4.3,2.8,6.7C1823.8,96.2,1822.7,99,1820.7,101z"/>
			<polygon fill="#FFFFFF" points="1791.5,97.5 1791.5,71.5 1789.5,71.5 1789.5,97.3 1782.1,89.8 1780.9,91 1790.7,100.8 
				1800.8,90.7 1799.5,89.5 			"/>
		</g>
		<g opacity="0.23">
			<path fill="#FFFFFF" d="M1932.5,168.9c-2.7-2.6-6.2-3.9-10.1-3.9c-0.8-7.2-6.4-14.5-14.1-14.5h-2c-1.5-8-8.3-9.7-14.4-9.7
				c-6.9,0-12.7,4.7-13.9,11.7h-2.5c-3.6,0-7.4,1.2-10.3,4.3c-2.5,2.7-4,5.7-4.2,8.9c-3.5,0.3-7,1.9-9.6,4.7
				c-2.7,2.8-4.1,6.8-3.9,10.2c0.4,8.1,6.6,15,14.2,15h60.4c3.6,0,7.4-2.3,10.3-5.2c3-3,4.7-7.2,4.7-11.1
				C1936.9,175.5,1935.3,171.5,1932.5,168.9z M1930.6,188.8c-2.5,2.5-5.6,4.7-8.7,4.7h-60.4c-7.1,0-11.6-7-11.8-13
				c-0.1-2.8,1-5.6,3.3-7.9c2.5-2.6,5.9-4.1,9-4.1h1.2l-0.1-1.6c-0.1-2.9,1.2-5.9,3.6-8.4c2.4-2.6,5.7-3.9,8.7-3.9h4.6l0.1-1.4
				c0.7-6.7,6.4-10.4,11.8-10.4c2.6,0,11.2,0.5,12.3,9l0.1,0.9h4.1c6.6,0,11.6,7.2,11.9,13.5l0.1,1.2h1.2c3.6-0.2,7,1,9.5,3.4
				c2.3,2.2,3.6,5.6,3.6,8.8C1934.6,182.6,1933.1,186.3,1930.6,188.8z"/>
			<polygon fill="#FFFFFF" points="1893.5,184 1893.5,152.5 1890.5,152.5 1890.5,183.8 1880.8,174.1 1879.2,175.7 1891.8,188.3 
				1904.9,175.3 1903.5,173.7 			"/>
		</g>
		<g opacity="0.23">
			<path fill="#FFFFFF" d="M871,87.3c-3.5-3.3-8.1-5.5-13-5.6c-1.1-9.4-8.3-19.3-18.3-19.3H837c-1.9-10-10.8-12.8-18.7-12.8
				c-9,0-16.5,5.8-18,14.8H797c-4.7,0-9.6,2.4-13.4,6.3c-3.3,3.4-5.2,7.7-5.5,11.9c-4.5,0.4-9,2.7-12.4,6.2
				c-3.5,3.6-5.3,8.7-5.1,13.1c0.5,10.5,8.5,19.4,18.3,19.4h78.2c4.7,0,9.6-2.8,13.3-6.6c3.8-3.8,6-9.2,6-14.2
				C876.6,95.8,874.6,90.8,871,87.3z M868.5,112.8c-3.2,3.2-7.3,5.7-11.2,5.7h-78.2c-9.2,0-15-8.7-15.3-16.5
				c-0.2-3.6,1.3-7.7,4.2-10.7c3.2-3.4,7.6-5.8,11.7-5.8h1.6l-0.1-1.5c-0.2-3.8,1.5-7.9,4.6-11.2c3.2-3.3,7.3-5.3,11.2-5.3h5.9
				l0.1-1.2c0.9-8.7,8.3-13.2,15.2-13.2c3.4,0,14.5,0.5,15.9,11.4l0.2,1h5.2c8.6,0,15,9.6,15.4,17.8L855,85h1.5
				c4.7-0.2,9.1,1.4,12.3,4.4c3,2.9,4.7,7.1,4.7,11.2C873.6,104.9,871.8,109.5,868.5,112.8z"/>
			<polygon fill="#FFFFFF" points="820.5,107 820.5,64.5 817.5,64.5 817.5,106.6 804.5,94.1 802.1,96.2 818.4,112.5 835.2,95.7 
				833.5,93.6 			"/>
		</g>
		<g opacity="0.28">
			<path fill="#FFFFFF" d="M1864.5,24c-0.9-0.9-2.1-1.4-3.5-1.4c-0.3-2.5-2.2-5.1-4.9-5.1h-0.7c-0.5-3-2.9-3.7-5-3.7
				c-2.4,0-4.4,1.7-4.8,3.7h-0.9c-1.3,0-2.6,0.8-3.6,1.9c-0.9,0.9-1.4,2.2-1.5,3.3c-1.2,0.1-2.4,0.8-3.3,1.7c-0.9,1-1.4,2-1.4,3.2
				c0.1,2.8,2.3,4.9,4.9,4.9h20.8c1.3,0,2.5-0.4,3.6-1.5c1-1,1.6-2.3,1.6-3.6C1866,26.1,1865.5,24.9,1864.5,24z M1863.9,30.3
				c-0.9,0.9-1.9,1.1-3,1.1H1840c-2.4,0-4-1.9-4.1-4c0-1,0.4-1.9,1.1-2.7c0.9-0.9,2-1.3,3.1-1.3h0.4V23c0-1,0.4-2.2,1.2-3.1
				c0.8-0.9,2-1.5,3-1.5h1.6v-0.2c0.2-2.3,2.2-3.5,4.1-3.5c0.9,0,3.9,0.3,4.2,3.2v0.5h1.4c2.3,0,4,2.4,4.1,4.6v0.4h0.4
				c1.3-0.1,2.4,0.3,3.3,1.2c0.8,0.8,1.3,1.7,1.3,2.8C1865.3,28.4,1864.8,29.5,1863.9,30.3z"/>
			<polygon fill="#FFFFFF" points="1851.5,29.2 1851.5,17.5 1850.5,17.5 1850.5,29.1 1846.9,25.7 1846.2,26.3 1850.6,30.7 
				1855,26.2 1854.8,25.6 			"/>
		</g>
		<g opacity="0.34">
			<path fill="#FFFFFF" d="M1733.9,99.5c-3.5-3.3-8.1-5.6-13-5.7c-1.1-9.4-8.3-19.3-18.3-19.3h-2.7c-1.9-10-10.8-12.8-18.7-12.8
				c-9,0-16.5,5.8-18,14.8h-3.3c-4.7,0-9.6,2.5-13.4,6.4c-3.3,3.4-5.2,7.8-5.5,11.9c-4.5,0.4-9,2.7-12.4,6.3
				c-3.5,3.6-5.3,8.6-5.1,13.1c0.5,10.5,8.5,19.3,18.3,19.3h78.2c4.7,0,9.6-2.7,13.3-6.5c3.8-3.8,6-9.2,6-14.2
				C1739.6,107.9,1737.5,102.9,1733.9,99.5z M1731.4,124.8c-3.2,3.2-7.3,5.6-11.2,5.6H1642c-9.2,0-15-8.6-15.3-16.4
				c-0.2-3.6,1.3-7.7,4.2-10.8c3.2-3.4,7.6-5.8,11.7-5.8h1.6l-0.1-1.4c-0.2-3.8,1.5-8,4.6-11.2c3.2-3.3,7.3-5.4,11.2-5.4h5.9
				l0.1-1.1c0.9-8.7,8.3-13.1,15.2-13.1c3.4,0,14.5,0.4,15.9,11.4l0.2,0.9h5.2c8.6,0,15,9.7,15.4,17.9l0.1,1.7h1.5
				c4.7-0.2,9.1,1.4,12.3,4.4c3,2.9,4.7,7.1,4.7,11.2C1736.6,117,1734.7,121.6,1731.4,124.8z"/>
			<polygon fill="#FFFFFF" points="1682.5,119.1 1682.5,76.5 1679.5,76.5 1679.5,118.8 1667,106.2 1664.9,108.3 1681.3,124.7 
				1698.1,107.8 1696,105.7 			"/>
		</g>
		<g opacity="0.13">
			<path fill="#FFFFFF" d="M1660.3,66.3c-2.7-2.6-6.3-4.5-10.2-4.6c-0.8-7.4-6.5-15.3-14.3-15.3h-2.1c-1.5-8-8.5-9.9-14.6-9.9
				c-7,0-12.9,4.9-14.1,11.9h-2.6c-3.7,0-7.5,1.8-10.5,4.9c-2.6,2.7-4.1,6-4.3,9.3c-3.5,0.3-7.1,2.1-9.7,4.9c-2.7,2.8-4.1,6.5-4,10
				c0.4,8.3,6.7,14.9,14.4,14.9h61.3c3.7,0,7.5-1.9,10.5-4.9s4.7-7.1,4.7-11C1664.7,72.8,1663.1,68.9,1660.3,66.3z M1658.3,86.1
				c-2.5,2.5-5.7,4.3-8.8,4.3h-61.3c-7.2,0-11.8-6.7-12-12.8c-0.1-2.8,1.1-6.2,3.3-8.5c2.5-2.6,5.9-4.6,9.2-4.6h1.2l-0.1-1
				c-0.1-3,1.2-6.3,3.6-8.8c2.5-2.6,5.8-4.2,8.8-4.2h4.7l0.1-0.8c0.7-6.8,6.5-10.3,12-10.3c2.6,0,11.4,0.6,12.5,9.2l0.1,1h4.1
				c6.8,0,11.8,7.3,12.1,13.8l0.1,1.2h1.2c3.7-0.2,7.1,1.1,9.6,3.5c2.3,2.2,3.7,5.5,3.7,8.7C1662.4,80,1660.9,83.5,1658.3,86.1z"/>
			<polygon fill="#FFFFFF" points="1620.5,81.7 1620.5,48.5 1618.5,48.5 1618.5,81.4 1608.2,71.5 1606.3,73.2 1619.1,86.1 
				1632.3,72.8 1630.8,71.1 			"/>
		</g>
		<g opacity="0.34">
			<path fill="#FFFFFF" d="M1804,131.2c-2-1.9-4.6-2.9-7.4-3c-0.6-5.4-4.8-10.8-10.4-10.8h-1.5c-1.1-5-6.2-6.9-10.7-6.9
				c-5.1,0-9.4,3.9-10.3,8.9h-1.9c-2.7,0-5.5,0.7-7.6,3c-1.9,2-3,4.1-3.1,6.5c-2.6,0.2-5.1,1.4-7.1,3.4c-2,2.1-3,4.8-2.9,7.3
				c0.3,6,4.9,10.9,10.5,10.9h44.7c2.7,0,5.5-1.5,7.6-3.6c2.2-2.2,3.5-5.2,3.5-8.1C1807.3,136,1806.1,133.2,1804,131.2z
				 M1802.6,145.5c-1.8,1.8-4.2,3-6.4,3h-44.7c-5.2,0-8.6-4.7-8.8-9.2c-0.1-2.1,0.8-4.1,2.4-5.8c1.8-1.9,4.3-3,6.7-3h0.9v-1
				c-0.1-2.2,0.9-4.3,2.6-6.2c1.8-1.9,4.2-2.8,6.4-2.8h3.4l0.1-1c0.5-5,4.8-7.7,8.7-7.7c1.9,0,8.3,0.6,9.1,6.8l0.1,0.8h3
				c4.9,0,8.6,5.1,8.8,9.8v0.8l0.9-0.1c2.7-0.1,5.2,0.7,7,2.5c1.7,1.6,2.7,3.9,2.7,6.2C1805.6,141.1,1804.5,143.6,1802.6,145.5z"/>
			<polygon fill="#FFFFFF" points="1774.5,142.4 1774.5,119.5 1772.5,119.5 1772.5,142.2 1765.5,135.1 1764.5,136.3 1773.9,145.6 
				1783.6,136 1782.2,134.8 			"/>
		</g>
		<g opacity="0.34">
			<path fill="#FFFFFF" d="M1738.9,143.9c-2.3-2.2-5.4-3.1-8.7-3.2c-0.7-6.3-5.6-12.3-12.2-12.3h-1.8c-1.3-7-7.2-8.7-12.5-8.7
				c-6,0-11,3.7-12,9.7h-2.2c-3.2,0-6.4,1.2-8.9,3.8c-2.2,2.3-3.5,5-3.6,7.7c-3,0.3-6,1.7-8.3,4.1c-2.3,2.4-3.5,6.1-3.4,9.1
				c0.3,7,5.7,13.3,12.2,13.3h52.2c3.1,0,6.4-2.2,8.9-4.8c2.6-2.6,4-6.3,4-9.7C1742.6,149.8,1741.2,146.2,1738.9,143.9z
				 M1737.2,161.3c-2.2,2.2-4.9,4.2-7.5,4.2h-52.2c-6.1,0-10-6.2-10.2-11.4c-0.1-2.4,0.9-5.4,2.8-7.5c2.1-2.2,5.1-4.1,7.8-4.1h1
				v-0.9c-0.1-2.5,1-4.9,3.1-7c2.1-2.2,4.9-3.1,7.5-3.1h4l0.1-1.2c0.6-5.8,5.6-9,10.2-9c2.3,0,9.7,0.8,10.6,8.1l0.1,1.1h3.5
				c5.8,0,10,5.8,10.3,11.3v0.8l1-0.1c3.2-0.2,6.1,0.9,8.2,2.9c2,1.9,3.1,4.9,3.2,7.6C1740.6,155.9,1739.4,159.1,1737.2,161.3z"/>
			<polygon fill="#FFFFFF" points="1704.5,157.1 1704.5,129.5 1702.5,129.5 1702.5,156.8 1694.1,148.4 1692.7,149.8 1703.7,160.8 
				1714.9,149.5 1713.5,148.1 			"/>
		</g>
		<g opacity="0.35">
			<path fill="#FFFFFF" d="M1756.8,46.1c-1.7-1.6-3.9-2.5-6.3-2.5c-0.5-4.5-4-9.1-8.8-9.1h-1.3c-0.9-5-5.2-6.7-9-6.7
				c-4.3,0-8,2.7-8.7,6.7h-1.6c-2.3,0-4.6,1.5-6.4,3.4c-1.6,1.7-2.5,3.9-2.6,5.9c-2.2,0.2-4.3,1.4-6,3.1c-1.7,1.8-2.5,3.7-2.4,5.8
				c0.2,5.1,4.1,8.8,8.8,8.8h37.7c2.3,0,4.6-0.8,6.4-2.6c1.9-1.9,2.9-4.2,2.9-6.6C1759.5,49.9,1758.5,47.8,1756.8,46.1z
				 M1755.6,58.1c-1.6,1.6-3.5,2.4-5.4,2.4h-37.7c-4.4,0-7.2-3.9-7.4-7.6c-0.1-1.7,0.6-3.9,2-5.4c1.5-1.6,3.7-3,5.6-3h0.8v-0.3
				c-0.1-1.8,0.7-3.7,2.2-5.2c1.5-1.6,3.5-2.4,5.4-2.4h2.9l0.1-0.5c0.4-4.2,4-6.3,7.4-6.3c1.6,0,7,0.2,7.7,5.5l0.1,0.4h2.5
				c4.2,0,7.2,4.7,7.4,8.7v0.8h0.7c2.3-0.1,4.4,0.7,5.9,2.1c1.4,1.4,2.3,3.3,2.3,5.2S1757.2,56.5,1755.6,58.1z"/>
			<polygon fill="#FFFFFF" points="1731.5,55.6 1731.5,34.5 1729.5,34.5 1729.5,55.4 1724,49.4 1723.2,50.4 1731.3,58.3 
				1739.5,50.1 1738.2,49.1 			"/>
		</g>
		<g opacity="0.32">
			<path fill="#FFFFFF" d="M1653.3,108c-2.1-2-4.8-3.1-7.8-3.2c-0.6-5.6-5-11.3-10.9-11.3h-1.6c-1.2-6-6.4-7.8-11.1-7.8
				c-5.4,0-9.9,3.8-10.8,8.8h-2c-2.8,0-5.7,1.4-8,3.7c-2,2-3.1,4.6-3.3,7.1c-2.7,0.2-5.4,1.6-7.4,3.7c-2.1,2.2-3.2,5.2-3,7.9
				c0.3,6.3,5.1,11.6,10.9,11.6h46.7c2.8,0,5.7-1.7,8-4s3.6-5.5,3.6-8.5C1656.6,113.1,1655.4,110,1653.3,108z M1651.8,123.1
				c-1.9,1.9-4.4,3.3-6.7,3.3h-46.7c-5.5,0-8.9-5.1-9.2-9.8c-0.1-2.2,0.8-4.3,2.5-6.1c1.9-2,4.5-3.1,7-3.1h0.9v-1.2
				c-0.1-2.3,0.9-4.7,2.8-6.7s4.4-3.2,6.7-3.2h3.5l0.1-0.9c0.5-5.2,5-7.9,9.1-7.9c2,0,8.7,0.5,9.5,7l0.1,0.8h3.1
				c5.1,0,9,5.5,9.2,10.4v0.9l0.9-0.1c2.8-0.1,5.4,0.8,7.3,2.6c1.8,1.7,2.8,4.2,2.8,6.6C1654.8,118.5,1653.7,121.2,1651.8,123.1z"/>
			<polygon fill="#FFFFFF" points="1623.5,119.7 1623.5,94.5 1621.5,94.5 1621.5,119.5 1613.6,112 1612.2,113.3 1621.9,123.1 
				1631.9,113 1631.1,111.7 			"/>
		</g>
		<g opacity="0.23">
			<path fill="#FFFFFF" d="M1800.1-2.8h-4.5c1.4,0.6,2.6,1.4,3.7,2.4c2.3,2.2,3.6,5.5,3.6,8.6c0,3.3-1.4,6.8-4,9.3
				c-2.5,2.5-5.6,4.4-8.7,4.4H1730c-7.1,0-11.6-6.7-11.8-12.7c-0.1-2.8,1-5.9,3.3-8.2c1.7-1.8,3.8-3.1,5.9-3.8h-5.1
				c-0.9,0.6-1.8,1.3-2.5,2.1c-2.7,2.8-4.1,6.5-3.9,9.9c0.4,8.1,6.6,14.7,14.2,14.7h60.4c3.6,0,7.4-2,10.3-4.9c3-3,4.7-7.1,4.7-10.9
				s-1.6-7.6-4.4-10.2C1800.7-2.4,1800.4-2.6,1800.1-2.8z"/>
			<polygon fill="#FFFFFF" points="1761.5,13.1 1761.5,-2.8 1758.5,-2.8 1758.5,12.8 1749,3.1 1747.5,4.7 1760.2,17.4 1773.3,4.3 
				1771.8,2.7 			"/>
		</g>
		<g opacity="0.28">
			<path fill="#FFFFFF" d="M1695.6,46.2c-0.9-0.9-2.1-1.5-3.5-1.6c-0.3-2.5-2.2-5.2-4.9-5.2h-0.7c-0.5-3-2.9-3.7-5-3.7
				c-2.4,0-4.4,1.7-4.8,3.7h-0.9c-1.3,0-2.6,1-3.6,2c-0.9,0.9-1.4,2.2-1.5,3.3c-1.2,0.1-2.4,0.8-3.3,1.7c-0.9,1-1.4,1.9-1.4,3.1
				c0.1,2.8,2.3,4.8,4.9,4.8h20.8c1.3,0,2.5-0.3,3.6-1.3c1-1,1.6-2.2,1.6-3.6C1697.1,48.3,1696.5,47.1,1695.6,46.2z M1694.9,52.5
				c-0.9,0.9-1.9,1-3,1h-20.8c-2.4,0-4-1.8-4.1-3.9c0-1,0.4-1.9,1.1-2.7c0.9-0.9,2-1.4,3.1-1.4h0.4v-0.3c0-1,0.4-2.3,1.2-3.1
				c0.8-0.9,2-1.6,3-1.6h1.6v-0.1c0.2-2.3,2.2-3.4,4.1-3.4c0.9,0,3.9,0.2,4.2,3.1v0.4h1.4c2.3,0,4,2.5,4.1,4.7v0.4h0.4
				c1.3-0.1,2.4,0.4,3.3,1.2c0.8,0.8,1.3,1.6,1.3,2.7C1696.3,50.6,1695.8,51.6,1694.9,52.5z"/>
			<polygon fill="#FFFFFF" points="1681.5,51.5 1681.5,39.5 1680.5,39.5 1680.5,51.4 1677.4,48 1677,48.6 1681.5,52.9 1686,48.4 
				1685.2,47.9 			"/>
		</g>
		<g opacity="0.34">
			<path fill="#FFFFFF" d="M1515.4,151.1c-3.5-3.3-8.1-4.9-13-5c-1.1-9.4-8.3-18.6-18.3-18.6h-2.7c-1.9-10-10.8-12.8-18.7-12.8
				c-9,0-16.5,5.8-18,14.8h-3.3c-4.7,0-9.6,1.8-13.4,5.7c-3.3,3.4-5.2,7.4-5.5,11.6c-4.5,0.4-9,2.5-12.4,6.1
				c-3.5,3.6-5.3,8.8-5.1,13.2c0.5,10.5,8.5,19.4,18.3,19.4h78.2c4.7,0,9.6-2.9,13.3-6.7c3.8-3.8,6-9.3,6-14.3
				C1521.1,159.6,1519,154.5,1515.4,151.1z M1512.9,176.6c-3.2,3.2-7.3,5.8-11.2,5.8h-78.2c-9.2,0-15-8.8-15.3-16.6
				c-0.2-3.6,1.3-7.6,4.2-10.7c3.2-3.4,7.6-5.7,11.7-5.7h1.6l-0.1-1.6c-0.2-3.8,1.5-7.4,4.6-10.6c3.2-3.3,7.3-4.8,11.2-4.8h5.9
				l0.1-1.8c0.9-8.7,8.3-13.5,15.2-13.5c3.4,0,14.5,1,15.9,11.9l0.2,1.4h5.2c8.6,0,15,9,15.4,17.2l0.1,1.4l1.5-0.1
				c4.7-0.2,9.1,1.3,12.3,4.4c3,2.9,4.7,7.2,4.7,11.2C1518.1,168.7,1516.2,173.4,1512.9,176.6z"/>
			<polygon fill="#FFFFFF" points="1464.5,170.7 1464.5,129.5 1461.5,129.5 1461.5,170.4 1448.7,157.8 1446.5,159.9 1462.8,176.3 
				1479.7,159.4 1477.7,157.3 			"/>
		</g>
		<g opacity="0.13">
			<path fill="#FFFFFF" d="M1511.6,44c-2.7-2.6-6.3-4.3-10.2-4.4c-0.8-7.4-6.5-15.1-14.3-15.1h-2.1c-1.5-8-8.5-9.9-14.6-9.9
				c-7,0-12.9,4.9-14.1,11.9h-2.6c-3.7,0-7.5,1.7-10.5,4.8c-2.6,2.7-4.1,6-4.3,9.2c-3.5,0.3-7.1,2.1-9.7,4.8c-2.7,2.8-4.1,6.1-4,9.6
				c0.4,8.3,6.7,14.5,14.4,14.5h61.3c3.7,0,7.5-1.5,10.5-4.5s4.7-6.9,4.7-10.8C1516,50.3,1514.4,46.7,1511.6,44z M1509.6,63.5
				c-2.5,2.5-5.7,4-8.8,4h-61.3c-7.2,0-11.8-6.3-12-12.5c-0.1-2.8,1.1-5.8,3.3-8.2c2.5-2.6,5.9-4.3,9.2-4.3h1.2l-0.1-1.1
				c-0.1-3,1.2-6.2,3.6-8.7c2.5-2.6,5.8-4.2,8.8-4.2h4.7l0.1-1c0.7-6.8,6.5-10.3,12-10.3c2.6,0,11.4,0.7,12.5,9.3l0.1,1.1h4.1
				c6.8,0,11.8,7.2,12.1,13.7l0.1,1.2l1.2-0.1c3.7-0.2,7.1,1,9.6,3.4c2.3,2.2,3.7,5.3,3.7,8.5C1513.7,57.5,1512.2,60.9,1509.6,63.5z
				"/>
			<polygon fill="#FFFFFF" points="1471.5,59.4 1471.5,26.5 1469.5,26.5 1469.5,59.1 1459.3,49.3 1457.5,50.9 1470.3,63.8 
				1483.5,50.6 1481.9,48.9 			"/>
		</g>
		<g opacity="0.29">
			<path fill="#FFFFFF" d="M1280.3,78c-2.3-2.2-5.4-3.7-8.7-3.7c-0.7-6.2-5.5-12.8-12.2-12.8h-1.8c-1.3-7-7.2-8.7-12.4-8.7
				c-6,0-11,3.7-12,9.7h-2.2c-3.1,0-6.4,1.8-8.9,4.4c-2.2,2.3-3.5,5.2-3.6,8c-3,0.3-6,1.8-8.2,4.2c-2.3,2.4-3.5,5.7-3.4,8.6
				c0.3,7,5.7,12.8,12.2,12.8h52c3.1,0,6.4-1.7,8.9-4.2c2.6-2.6,4-6.1,4-9.4C1284,83.6,1282.7,80.3,1280.3,78z M1278.6,94.8
				c-2.1,2.1-4.9,3.6-7.5,3.6h-52c-6.1,0-10-5.6-10.2-10.8c-0.1-2.4,0.9-5.7,2.8-7.7c2.1-2.2,5-4.4,7.8-4.4h1v-0.3
				c-0.1-2.5,1-5.1,3.1-7.3c2.1-2.2,4.9-3.4,7.5-3.4h4l0.1-0.6c0.6-5.8,5.6-8.7,10.1-8.7c2.2,0,9.7,0.4,10.6,7.6l0.1,0.7h3.5
				c5.7,0,10,6.4,10.2,11.9v1.1h1c3.1-0.2,6,0.9,8.2,3c2,1.9,3.1,4.7,3.1,7.4C1282,89.6,1280.8,92.6,1278.6,94.8z"/>
			<polygon fill="#FFFFFF" points="1246.5,91.1 1246.5,62.5 1244.5,62.5 1244.5,90.9 1235.9,82.5 1234.4,83.9 1245.3,94.8 
				1256.5,83.6 1255.2,82.2 			"/>
		</g>
		<g opacity="0.34">
			<path fill="#FFFFFF" d="M1590.1,121.7c-2.3-2.2-5.4-3-8.7-3c-0.7-6.3-5.6-12.2-12.2-12.2h-1.8c-1.3-8-7.2-8.7-12.5-8.7
				c-6,0-11,2.7-12,9.7h-2.2c-3.2,0-6.4,1.1-8.9,3.7c-2.2,2.3-3.5,4.9-3.6,7.7c-3,0.3-6,1.7-8.3,4c-2.3,2.4-3.5,5.7-3.4,8.7
				c0.3,7,5.7,12.9,12.2,12.9h52.2c3.1,0,6.4-1.9,8.9-4.4c2.6-2.6,4-6.2,4-9.5C1593.9,127.3,1592.5,124,1590.1,121.7z M1588.5,138.7
				c-2.2,2.2-4.9,3.8-7.5,3.8h-52.2c-6.1,0-10-5.8-10.2-11c-0.1-2.4,0.9-5.1,2.8-7.2c2.1-2.2,5.1-3.8,7.8-3.8h1v-1
				c-0.1-2.5,1-4.8,3.1-7s4.9-3,7.5-3h4l0.1-1.3c0.6-5.8,5.6-9.1,10.2-9.1c2.3,0,9.7,0.9,10.6,8.2l0.1,1.2h3.5
				c5.8,0,10,5.7,10.3,11.2v0.8l1-0.2c3.2-0.2,6.1,0.8,8.2,2.9c2,1.9,3.1,4.7,3.2,7.4C1591.9,133.4,1590.7,136.5,1588.5,138.7z"/>
			<polygon fill="#FFFFFF" points="1556.5,134.8 1556.5,107.5 1554.5,107.5 1554.5,134.6 1545.7,126.2 1544.2,127.6 1555,138.5 
				1566.3,127.2 1565.1,125.8 			"/>
		</g>
		<g opacity="0.35">
			<path fill="#FFFFFF" d="M1608.1,23.9c-1.7-1.6-3.9-2.4-6.3-2.4c-0.5-4.5-4-9-8.8-9h-1.3c-0.9-5-5.2-6.7-9-6.7
				c-4.3,0-8,2.7-8.7,6.7h-1.6c-2.3,0-4.6,1.3-6.4,3.2c-1.6,1.7-2.5,3.8-2.6,5.8c-2.2,0.2-4.3,1.4-6,3.1c-1.7,1.8-2.5,3.8-2.4,5.9
				c0.2,5.1,4.1,8.9,8.8,8.9h37.7c2.3,0,4.6-0.9,6.4-2.7c1.9-1.9,2.9-4.2,2.9-6.6C1610.8,27.7,1609.8,25.5,1608.1,23.9z
				 M1606.9,35.9c-1.6,1.6-3.5,2.5-5.4,2.5h-37.7c-4.4,0-7.2-4-7.4-7.7c-0.1-1.7,0.6-3.9,2-5.3c1.5-1.6,3.7-2.9,5.6-2.9h0.8V22
				c-0.1-1.8,0.7-3.6,2.2-5.2c1.5-1.6,3.5-2.4,5.4-2.4h2.9l0.1-0.7c0.4-4.2,4-6.4,7.4-6.4c1.6,0,7,0.3,7.7,5.6l0.1,0.5h2.5
				c4.2,0,7.2,4.5,7.4,8.5v0.8h0.7c2.3-0.1,4.4,0.7,5.9,2.1c1.4,1.4,2.3,3.3,2.3,5.3C1609.4,32.2,1608.5,34.3,1606.9,35.9z"/>
			<polygon fill="#FFFFFF" points="1583.5,33.3 1583.5,12.5 1581.5,12.5 1581.5,33.2 1575.6,27.1 1574.7,28.1 1582.6,36 
				1590.8,27.9 1589.9,26.9 			"/>
		</g>
		<g opacity="0.32">
			<path fill="#FFFFFF" d="M1504.5,85.7c-2.1-2-4.8-3.5-7.8-3.6c-0.6-5.6-5-11.7-10.9-11.7h-1.6c-1.2-6-6.4-7.8-11.1-7.8
				c-5.4,0-9.9,3.8-10.8,8.8h-2c-2.8,0-5.7,1.7-8,4.1c-2,2-3.1,4.8-3.3,7.3c-2.7,0.2-5.4,1.7-7.4,3.8c-2.1,2.2-3.2,5.4-3,8.1
				c0.3,6.3,5.1,11.8,10.9,11.8h46.7c2.8,0,5.7-1.8,8-4.1c2.3-2.3,3.6-5.6,3.6-8.6C1507.9,90.9,1506.7,87.8,1504.5,85.7z M1503,101
				c-1.9,1.9-4.4,3.5-6.7,3.5h-46.7c-5.5,0-8.9-5.2-9.2-9.9c-0.1-2.2,0.8-4.7,2.5-6.5c1.9-2,4.5-3.6,7-3.6h0.9v-0.8
				c-0.1-2.3,0.9-4.9,2.8-6.9s4.4-3.4,6.7-3.4h3.5l0.1-0.5c0.5-5.2,5-7.8,9.1-7.8c2,0,8.7,0.2,9.5,6.8l0.1,0.5h3.1
				c5.1,0,9,5.8,9.2,10.8v1.1h0.9c2.8-0.1,5.4,0.8,7.3,2.7c1.8,1.7,2.8,4.3,2.8,6.7C1506.1,96.2,1505,99,1503,101z"/>
			<polygon fill="#FFFFFF" points="1474.5,97.5 1474.5,71.5 1472.5,71.5 1472.5,97.3 1464.8,89.8 1463.4,91 1473.1,100.8 
				1483.2,90.7 1482.2,89.5 			"/>
		</g>
		<g opacity="0.23">
			<path fill="#FFFFFF" d="M1522,212.6h67.3c2.5-0.8,5-2.3,7-4.4c3-3,4.7-7.1,4.7-10.9c0-3.8-1.6-7.6-4.4-10.2
				c-2.7-2.6-6.2-3.9-10.1-4c-0.8-7.2-6.4-14.5-14.1-14.5h-2c-1.5-8.1-8.3-9.7-14.4-9.7c-6.9,0-12.7,4.6-13.9,11.7h-2.5
				c-3.6,0-7.4,1.2-10.3,4.3c-2.5,2.7-4,5.7-4.2,8.9c-3.5,0.3-7,1.9-9.6,4.7c-2.7,2.8-4.1,6.5-3.9,9.9
				C1511.8,205.2,1516.2,210.9,1522,212.6z M1517.1,190.2c2.5-2.6,5.9-4.4,9-4.4h1.2l-0.1-1.2c-0.1-2.9,1.2-5.7,3.6-8.2
				c2.4-2.6,5.7-3.7,8.7-3.7h4.6l0.1-1.4c0.7-6.7,6.4-10.4,11.8-10.4c2.6,0,11.2,0.5,12.3,8.9l0.1,0.9h4.1c6.6,0,11.6,7.2,11.9,13.6
				l0.1,1.2h1.2c3.6-0.2,7,1,9.5,3.4c2.3,2.2,3.6,5.5,3.6,8.6c0,3.3-1.4,6.8-4,9.3c-2.5,2.5-5.6,4.4-8.7,4.4h-60.4
				c-7.1,0-11.6-6.7-11.8-12.7C1513.7,195.6,1514.8,192.5,1517.1,190.2z"/>
			<polygon fill="#FFFFFF" points="1557.5,202.3 1557.5,171.5 1554.5,171.5 1554.5,202 1544.8,192.3 1543.3,193.9 1555.9,206.5 
				1569,193.5 1567.6,191.9 			"/>
		</g>
		<g opacity="0.28">
			<path fill="#FFFFFF" d="M1546.9,24c-0.9-0.9-2.1-1.4-3.5-1.4c-0.3-2.5-2.2-5.1-4.9-5.1h-0.7c-0.5-3-2.9-3.7-5-3.7
				c-2.4,0-4.4,1.7-4.8,3.7h-0.9c-1.3,0-2.6,0.8-3.6,1.9c-0.9,0.9-1.4,2.2-1.5,3.3c-1.2,0.1-2.4,0.8-3.3,1.7c-0.9,1-1.4,2-1.4,3.2
				c0.1,2.8,2.3,4.9,4.9,4.9h20.8c1.3,0,2.5-0.4,3.6-1.5c1-1,1.6-2.3,1.6-3.6C1548.4,26.1,1547.8,24.9,1546.9,24z M1546.2,30.3
				c-0.9,0.9-1.9,1.1-3,1.1h-20.8c-2.4,0-4-1.9-4.1-4c0-1,0.4-1.9,1.1-2.7c0.9-0.9,2-1.3,3.1-1.3h0.4V23c0-1,0.4-2.2,1.2-3.1
				c0.8-0.9,2-1.5,3-1.5h1.6v-0.2c0.2-2.3,2.2-3.5,4.1-3.5c0.9,0,3.9,0.3,4.2,3.2v0.5h1.4c2.3,0,4,2.4,4.1,4.6v0.4h0.4
				c1.3-0.1,2.4,0.3,3.3,1.2c0.8,0.8,1.3,1.7,1.3,2.8C1547.6,28.4,1547.1,29.5,1546.2,30.3z"/>
			<polygon fill="#FFFFFF" points="1532.5,29.2 1532.5,17.5 1531.5,17.5 1531.5,29.1 1528.6,25.7 1528.2,26.3 1532.7,30.7 
				1537.3,26.2 1536.4,25.6 			"/>
		</g>
		<g opacity="0.34">
			<path fill="#FFFFFF" d="M804.2,48.9c-3.5-3.3-8.1-5.3-13-5.4c-1.1-9.4-8.3-19-18.3-19h-2.7c-1.9-10-10.8-12.8-18.7-12.8
				c-9,0-16.5,5.8-18,14.8h-3.3c-4.7,0-9.6,2.2-13.4,6.1c-3.3,3.4-5.2,7.6-5.5,11.8c-4.5,0.4-9,2.7-12.4,6.2
				c-3.5,3.6-5.3,7.9-5.1,12.3c0.5,10.5,8.5,18.6,18.3,18.6h78.2c4.7,0,9.6-2,13.3-5.8c3.8-3.8,6-8.8,6-13.8
				C809.9,57,807.8,52.3,804.2,48.9z M801.7,73.6c-3.2,3.2-7.3,4.9-11.2,4.9h-78.2c-9.2,0-15-7.9-15.3-15.7
				c-0.2-3.6,1.3-7.6,4.2-10.6c3.2-3.4,7.6-5.7,11.7-5.7h1.6l-0.1-1.2c-0.2-3.8,1.5-7.6,4.6-10.8c3.2-3.3,7.3-5,11.2-5h5.9l0.1-1.4
				c0.9-8.7,8.3-13.3,15.2-13.3c3.4,0,14.5,0.7,15.9,11.6l0.2,1.1h5.2c8.6,0,15,9.4,15.4,17.6l0.1,1.6h1.5c4.7-0.2,9.1,1.4,12.3,4.4
				c3,2.9,4.7,6.7,4.7,10.8C806.9,66,805,70.3,801.7,73.6z"/>
			<polygon fill="#FFFFFF" points="752.5,68.5 752.5,26.5 749.5,26.5 749.5,68.2 737.1,55.6 735.1,57.7 751.5,74.1 768.4,57.2 
				766.1,55.1 			"/>
		</g>
		<g opacity="0.13">
			<path fill="#FFFFFF" d="M1342.6,171.5c-2.7-2.6-6.3-4.1-10.2-4.2c-0.8-7.4-6.5-14.9-14.3-14.9h-2.1c-1.5-8-8.5-9.9-14.6-9.9
				c-7,0-12.9,4.9-14.1,11.9h-2.6c-3.7,0-7.5,1.4-10.5,4.5c-2.6,2.7-4.1,5.8-4.3,9.1c-3.5,0.3-7.1,2-9.7,4.8
				c-2.7,2.8-4.1,6.9-4,10.4c0.4,8.3,6.7,15.3,14.4,15.3h61.3c3.7,0,7.5-2.3,10.5-5.3s4.7-7.3,4.7-11.2
				C1347.1,178.2,1345.4,174.2,1342.6,171.5z M1340.7,191.7c-2.5,2.5-5.7,4.7-8.8,4.7h-61.3c-7.2,0-11.8-7.1-12-13.2
				c-0.1-2.8,1.1-5.5,3.3-7.8c2.5-2.6,5.9-3.9,9.2-3.9h1.2l-0.1-1.9c-0.1-3,1.2-6.3,3.6-8.9c2.5-2.6,5.8-4.3,8.8-4.3h4.7l0.1-1.2
				c0.7-6.8,6.5-10.5,12-10.5c2.6,0,11.4,0.9,12.5,9.5l0.1,1.3h4.1c6.8,0,11.8,7,12.1,13.4l0.1,1l1.2-0.1c3.7-0.2,7.1,1,9.6,3.4
				c2.3,2.2,3.7,5.7,3.7,8.9C1344.7,185.4,1343.2,189.1,1340.7,191.7z"/>
			<polygon fill="#FFFFFF" points="1302.5,186.9 1302.5,154.5 1300.5,154.5 1300.5,186.6 1290.4,176.8 1288.6,178.4 1301.4,191.3 
				1314.6,178 1313,176.4 			"/>
		</g>
		<g opacity="0.34">
			<path fill="#FFFFFF" d="M1314.4,23c-2-1.9-4.6-3.3-7.4-3.4c-0.6-5.4-4.8-11.1-10.4-11.1h-1.5c-1.1-5-6.2-6.9-10.7-6.9
				c-5.1,0-9.4,3.9-10.3,8.9h-1.9c-2.7,0-5.5,1.1-7.6,3.3c-1.9,2-3,4.3-3.1,6.7c-2.6,0.2-5.1,1.5-7.1,3.5c-2,2.1-3,4.4-2.9,7
				c0.3,6,4.9,10.5,10.5,10.5h44.7c2.7,0,5.5-1.1,7.6-3.3c2.2-2.2,3.5-5,3.5-7.9C1317.6,27.6,1316.4,24.9,1314.4,23z M1313,36.9
				c-1.8,1.8-4.2,2.6-6.4,2.6h-44.7c-5.2,0-8.6-4.3-8.8-8.8c-0.1-2.1,0.8-4.3,2.4-6c1.8-1.9,4.3-3.2,6.7-3.2h0.9v-0.6
				c-0.1-2.2,0.9-4.5,2.6-6.4c1.8-1.9,4.2-3,6.4-3h3.4l0.1-0.6c0.5-5,4.8-7.5,8.7-7.5c1.9,0,8.3,0.3,9.1,6.5l0.1,0.6h3
				c4.9,0,8.6,5.5,8.8,10.2v1h0.9c2.7-0.1,5.2,0.8,7,2.5c1.7,1.6,2.7,3.8,2.7,6.1C1315.9,32.7,1314.8,35,1313,36.9z"/>
			<polygon fill="#FFFFFF" points="1284.5,34.2 1284.5,10.5 1282.5,10.5 1282.5,34 1275.7,26.8 1274.7,28 1284.2,37.4 1293.9,27.7 
				1292.4,26.5 			"/>
		</g>
		<g opacity="0.34">
			<path fill="#FFFFFF" d="M1421.2,143.9c-2.3-2.2-5.4-3.1-8.7-3.2c-0.7-6.3-5.6-12.3-12.2-12.3h-1.8c-1.3-7-7.2-8.7-12.5-8.7
				c-6,0-11,3.7-12,9.7h-2.2c-3.2,0-6.4,1.2-8.9,3.8c-2.2,2.3-3.5,5-3.6,7.7c-3,0.3-6,1.7-8.3,4.1c-2.3,2.4-3.5,6.1-3.4,9.1
				c0.3,7,5.7,13.3,12.2,13.3h52.2c3.1,0,6.4-2.2,8.9-4.8c2.6-2.6,4-6.3,4-9.7C1425,149.8,1423.6,146.2,1421.2,143.9z M1419.5,161.3
				c-2.2,2.2-4.9,4.2-7.5,4.2h-52.2c-6.1,0-10-6.2-10.2-11.4c-0.1-2.4,0.9-5.4,2.8-7.5c2.1-2.2,5.1-4.1,7.8-4.1h1v-0.9
				c-0.1-2.5,1-4.9,3.1-7c2.1-2.2,4.9-3.1,7.5-3.1h4l0.1-1.2c0.6-5.8,5.6-9,10.2-9c2.3,0,9.7,0.8,10.6,8.1l0.1,1.1h3.5
				c5.8,0,10,5.8,10.3,11.3v0.8l1-0.1c3.2-0.2,6.1,0.9,8.2,2.9c2,1.9,3.1,4.9,3.2,7.6C1423,155.9,1421.7,159.1,1419.5,161.3z"/>
			<polygon fill="#FFFFFF" points="1387.5,157.1 1387.5,129.5 1385.5,129.5 1385.5,156.8 1376.8,148.4 1375.2,149.8 1386.1,160.8 
				1397.3,149.5 1396.2,148.1 			"/>
		</g>
		<g opacity="0.35">
			<path fill="#FFFFFF" d="M1439.1,46.1c-1.7-1.6-3.9-2.5-6.3-2.5c-0.5-4.5-4-9.1-8.8-9.1h-1.3c-0.9-5-5.2-6.7-9-6.7
				c-4.3,0-8,2.7-8.7,6.7h-1.6c-2.3,0-4.6,1.5-6.4,3.4c-1.6,1.7-2.5,3.9-2.6,5.9c-2.2,0.2-4.3,1.4-6,3.1c-1.7,1.8-2.5,3.7-2.4,5.8
				c0.2,5.1,4.1,8.8,8.8,8.8h37.7c2.3,0,4.6-0.8,6.4-2.6c1.9-1.9,2.9-4.2,2.9-6.6C1441.9,49.9,1440.9,47.8,1439.1,46.1z
				 M1437.9,58.1c-1.6,1.6-3.5,2.4-5.4,2.4h-37.7c-4.4,0-7.2-3.9-7.4-7.6c-0.1-1.7,0.6-3.9,2-5.4c1.5-1.6,3.7-3,5.6-3h0.8v-0.3
				c-0.1-1.8,0.7-3.7,2.2-5.2c1.5-1.6,3.5-2.4,5.4-2.4h2.9l0.1-0.5c0.4-4.2,4-6.3,7.4-6.3c1.6,0,7,0.2,7.7,5.5l0.1,0.4h2.5
				c4.2,0,7.2,4.7,7.4,8.7v0.8h0.7c2.3-0.1,4.4,0.7,5.9,2.1c1.4,1.4,2.3,3.3,2.3,5.2S1439.5,56.5,1437.9,58.1z"/>
			<polygon fill="#FFFFFF" points="1414.5,55.6 1414.5,34.5 1412.5,34.5 1412.5,55.4 1406.6,49.4 1405.7,50.4 1413.7,58.3 
				1421.8,50.1 1420.9,49.1 			"/>
		</g>
		<g opacity="0.32">
			<path fill="#FFFFFF" d="M1335.6,108c-2.1-2-4.8-3.1-7.8-3.2c-0.6-5.6-5-11.3-10.9-11.3h-1.6c-1.2-6-6.4-7.8-11.1-7.8
				c-5.4,0-9.9,3.8-10.8,8.8h-2c-2.8,0-5.7,1.4-8,3.7c-2,2-3.1,4.6-3.3,7.1c-2.7,0.2-5.4,1.6-7.4,3.7c-2.1,2.2-3.2,5.2-3,7.9
				c0.3,6.3,5.1,11.6,10.9,11.6h46.7c2.8,0,5.7-1.7,8-4s3.6-5.5,3.6-8.5C1339,113.1,1337.7,110,1335.6,108z M1334.1,123.1
				c-1.9,1.9-4.4,3.3-6.7,3.3h-46.7c-5.5,0-8.9-5.1-9.2-9.8c-0.1-2.2,0.8-4.3,2.5-6.1c1.9-2,4.5-3.1,7-3.1h0.9v-1.2
				c-0.1-2.3,0.9-4.7,2.8-6.7s4.4-3.2,6.7-3.2h3.5l0.1-0.9c0.5-5.2,5-7.9,9.1-7.9c2,0,8.7,0.5,9.5,7l0.1,0.8h3.1
				c5.1,0,9,5.5,9.2,10.4v0.9l0.9-0.1c2.8-0.1,5.4,0.8,7.3,2.6c1.8,1.7,2.8,4.2,2.8,6.6C1337.2,118.5,1336.1,121.2,1334.1,123.1z"/>
			<polygon fill="#FFFFFF" points="1305.5,119.7 1305.5,94.5 1303.5,94.5 1303.5,119.5 1295.8,112 1294.5,113.3 1304.2,123.1 
				1314.2,113 1313.2,111.7 			"/>
		</g>
		<g opacity="0.23">
			<path fill="#FFFFFF" d="M1482.5-2.8h-4.5c1.4,0.6,2.6,1.4,3.7,2.4c2.3,2.2,3.6,5.5,3.6,8.6c0,3.3-1.4,6.8-4,9.3
				c-2.5,2.5-5.6,4.4-8.7,4.4h-60.4c-7.1,0-11.6-6.7-11.8-12.7c-0.1-2.8,1-5.9,3.3-8.2c1.7-1.8,3.8-3.1,5.9-3.8h-5.1
				c-0.9,0.6-1.8,1.3-2.5,2.1c-2.7,2.8-4.1,6.5-3.9,9.9c0.4,8.1,6.6,14.7,14.2,14.7h60.4c3.6,0,7.4-2,10.3-4.9c3-3,4.7-7.1,4.7-10.9
				s-1.6-7.6-4.4-10.2C1483.1-2.4,1482.8-2.6,1482.5-2.8z"/>
			<polygon fill="#FFFFFF" points="1443.9,13.1 1443.9,-2.8 1440.8,-2.8 1440.8,12.8 1431.4,3.1 1429.9,4.7 1442.6,17.4 1455.6,4.3 
				1454.1,2.7 			"/>
		</g>
		<g opacity="0.28">
			<path fill="#FFFFFF" d="M1377.9,46.2c-0.9-0.9-2.1-1.5-3.5-1.6c-0.3-2.5-2.2-5.2-4.9-5.2h-0.7c-0.5-3-2.9-3.7-5-3.7
				c-2.4,0-4.4,1.7-4.8,3.7h-0.9c-1.3,0-2.6,1-3.6,2c-0.9,0.9-1.4,2.2-1.5,3.3c-1.2,0.1-2.4,0.8-3.3,1.7c-0.9,1-1.4,1.9-1.4,3.1
				c0.1,2.8,2.3,4.8,4.9,4.8h20.8c1.3,0,2.5-0.3,3.6-1.3c1-1,1.6-2.2,1.6-3.6C1379.4,48.3,1378.9,47.1,1377.9,46.2z M1377.3,52.5
				c-0.9,0.9-1.9,1-3,1h-20.8c-2.4,0-4-1.8-4.1-3.9c0-1,0.4-1.9,1.1-2.7c0.9-0.9,2-1.4,3.1-1.4h0.4v-0.3c0-1,0.4-2.3,1.2-3.1
				c0.8-0.9,2-1.6,3-1.6h1.6v-0.1c0.2-2.3,2.2-3.4,4.1-3.4c0.9,0,3.9,0.2,4.2,3.1v0.4h1.4c2.3,0,4,2.5,4.1,4.7v0.4h0.4
				c1.3-0.1,2.4,0.4,3.3,1.2c0.8,0.8,1.3,1.6,1.3,2.7C1378.6,50.6,1378.1,51.6,1377.3,52.5z"/>
			<polygon fill="#FFFFFF" points="1363.5,51.5 1363.5,39.5 1362.5,39.5 1362.5,51.4 1359.6,48 1359.3,48.6 1363.8,52.9 
				1368.3,48.4 1367.4,47.9 			"/>
		</g>
		<g opacity="0.34">
			<path fill="#FFFFFF" d="M1152.3,144.7c-2.4-2.3-5.5-3.3-9-3.4c-0.7-6.5-5.7-12.8-12.6-12.8h-1.8c-1.3-7-7.4-9-12.9-9
				c-6.2,0-11.4,4-12.4,10h-2.3c-3.3,0-6.6,1.4-9.2,4.1c-2.3,2.4-3.6,5.2-3.8,8.1c-3.1,0.3-6.2,1.8-8.5,4.2
				c-2.4,2.5-3.6,6.1-3.5,9.2c0.3,7.2,5.9,13.4,12.6,13.4h53.8c3.2,0,6.6-2,9.2-4.7s4.2-6.4,4.2-9.9
				C1156.2,150.6,1154.8,147,1152.3,144.7z M1150.6,162.4c-2.2,2.2-5,4.1-7.7,4.1H1089c-6.3,0-10.3-6.1-10.6-11.5
				c-0.1-2.5,0.9-5.4,2.9-7.4c2.2-2.3,5.2-4,8.1-4h1.1v-1c-0.1-2.6,1-4.8,3.2-7c2.2-2.3,5.1-3,7.7-3h4.1l0.1-1.6
				c0.6-6,5.7-9.4,10.5-9.4c2.3,0,10,0.6,11,8.1l0.1,0.9h3.6c5.9,0,10.3,6.2,10.6,11.9v1l1-0.1c3.2-0.2,6.2,0.9,8.5,3
				c2.1,2,3.2,5,3.3,7.8C1154.2,156.9,1152.9,160.1,1150.6,162.4z"/>
			<polygon fill="#FFFFFF" points="1117.5,158.2 1117.5,129.5 1115.5,129.5 1115.5,158 1106.5,149.3 1104.9,150.8 1116.1,162.1 
				1127.7,150.4 1126.5,149 			"/>
		</g>
		<g opacity="0.13">
			<path fill="#FFFFFF" d="M861.1,212.6h4.5c-5.2-1.7-8.5-7.3-8.7-12.4c-0.1-2.8,1.1-5.7,3.3-8.1c2.5-2.6,5.9-4.2,9.2-4.2h1.2
				l-0.1-1.4c-0.1-3,1.2-6.1,3.6-8.7c2.5-2.6,5.8-4.1,8.8-4.1h4.7l0.1-1.2c0.7-6.8,6.5-10.5,12-10.5c2.6,0,11.4,0.9,12.5,9.5
				l0.1,1.2h4.1c6.8,0,11.8,7,12.1,13.4l0.1,1l1.2-0.1c3.7-0.2,7.1,1,9.6,3.4c2.3,2.2,3.7,5.6,3.7,8.7c0,3.3-1.5,6.9-4.1,9.5
				c-1.7,1.7-3.8,3.2-5.9,3.9h4.6c1-0.7,2-1.5,3-2.4c3-3,4.7-7.2,4.7-11.1c0-3.8-1.6-7.7-4.4-10.4c-2.7-2.6-6.3-4.1-10.2-4.2
				c-0.8-7.4-6.5-14.9-14.3-14.9h-2.1c-1.5-8.1-8.5-9.8-14.6-9.8c-7,0-12.9,4.8-14.1,11.9H883c-3.7,0-7.5,1.4-10.5,4.5
				c-2.6,2.7-4.1,5.8-4.3,9.1c-3.5,0.3-7.1,2-9.7,4.8c-2.7,2.8-4.1,6.6-4,10.1C854.7,205.3,857.3,209.9,861.1,212.6z"/>
			<polygon fill="#FFFFFF" points="900.5,204.1 900.5,172.5 898.5,172.5 898.5,203.8 888.5,194 886.8,195.6 899.7,208.5 
				912.9,195.2 911.1,193.6 			"/>
		</g>
		<g opacity="0.34">
			<path fill="#FFFFFF" d="M1158.1,27.6c-2.3-2.2-5.4-3.4-8.7-3.5c-0.7-6.3-5.6-12.6-12.2-12.6h-1.8c-1.3-7-7.2-8.7-12.5-8.7
				c-6,0-11,3.7-12,9.7h-2.2c-3.2,0-6.4,1.5-8.9,4.2c-2.2,2.3-3.5,5.1-3.6,7.9c-3,0.3-6,1.8-8.3,4.2s-3.5,5.3-3.4,8.3
				c0.3,7,5.7,12.5,12.2,12.5h52.2c3.1,0,6.4-1.4,8.9-3.9c2.6-2.6,4-5.9,4-9.3C1161.9,33,1160.5,29.9,1158.1,27.6z M1156.5,44.1
				c-2.2,2.2-4.9,3.3-7.5,3.3h-52.2c-6.1,0-10-5.3-10.2-10.6c-0.1-2.4,0.9-5.4,2.8-7.4c2.1-2.2,5.1-4.1,7.8-4.1h1v-0.5
				c-0.1-2.5,1-5,3.1-7.2s4.9-3.3,7.5-3.3h4l0.1-0.9c0.6-5.8,5.6-8.8,10.2-8.8c2.3,0,9.7,0.6,10.6,7.9l0.1,0.9h3.5
				c5.8,0,10,6.2,10.3,11.7v1h1c3.2-0.2,6.1,0.9,8.2,2.9c2,1.9,3.1,4.5,3.2,7.2C1159.9,39.1,1158.7,41.9,1156.5,44.1z"/>
			<polygon fill="#FFFFFF" points="1124.5,40.7 1124.5,12.5 1122.5,12.5 1122.5,40.5 1113.8,32.1 1112.2,33.5 1123,44.4 
				1134.3,33.2 1133.2,31.7 			"/>
		</g>
		<g opacity="0.35">
			<path fill="#FFFFFF" d="M1037.5,168.5c-1.7-1.6-3.9-2.2-6.3-2.2c-0.5-4.5-4-8.8-8.8-8.8h-1.3c-0.9-5-5.2-6.7-9-6.7
				c-4.3,0-8,2.7-8.7,6.7h-1.6c-2.3,0-4.6,1.2-6.4,3.1c-1.6,1.7-2.5,3.7-2.6,5.7c-2.2,0.2-4.3,1.3-6,3c-1.7,1.8-2.5,4.4-2.4,6.6
				c0.2,5.1,4.1,9.6,8.8,9.6h37.7c2.3,0,4.6-1.6,6.4-3.4c1.9-1.9,2.9-4.6,2.9-7C1040.2,172.7,1039.2,170.2,1037.5,168.5z
				 M1036.3,181.3c-1.6,1.6-3.5,3.2-5.4,3.2h-37.7c-4.4,0-7.2-4.6-7.4-8.4c-0.1-1.7,0.6-3.5,2-5c1.5-1.6,3.7-2.6,5.6-2.6h0.8v-1.1
				c-0.1-1.8,0.7-3.8,2.2-5.4c1.5-1.6,3.5-2.5,5.4-2.5h2.9l0.1-0.8c0.4-4.2,4-6.5,7.4-6.5c1.6,0,7,0.4,7.7,5.7l0.1,0.6h2.5
				c4.2,0,7.2,4.4,7.4,8.4v0.7h0.7c2.3-0.1,4.4,0.6,5.9,2.1c1.4,1.4,2.3,3.7,2.3,5.6C1038.8,177.2,1037.9,179.7,1036.3,181.3z"/>
			<polygon fill="#FFFFFF" points="1012.5,178 1012.5,157.5 1010.5,157.5 1010.5,177.8 1004.8,171.8 1004,172.8 1012,180.7 
				1020.2,172.6 1019.1,171.5 			"/>
		</g>
		<g opacity="0.32">
			<path fill="#FFFFFF" d="M1087.7,179.8c-2.1-2-4.8-2.6-7.8-2.6c-0.6-5.6-5-10.8-10.9-10.8h-1.6c-1.2-7-6.4-7.8-11.1-7.8
				c-5.4,0-9.9,2.8-10.8,8.8h-2c-2.8,0-5.7,0.8-8,3.1c-2,2-3.1,4.3-3.3,6.8c-2.7,0.2-5.4,1.5-7.4,3.6c-2.1,2.2-3.2,5.2-3,7.9
				c0.3,6.3,5.1,11.6,10.9,11.6h46.7c2.8,0,5.7-1.8,8-4c2.3-2.3,3.6-5.6,3.6-8.6C1091.1,185,1089.9,181.9,1087.7,179.8z M1086.2,195
				c-1.9,1.9-4.4,3.4-6.7,3.4h-46.7c-5.5,0-8.9-5.2-9.2-9.9c-0.1-2.2,0.8-4.2,2.5-6c1.9-2,4.5-3.1,7-3.1h0.9v-1.2
				c-0.1-2.3,0.9-4.2,2.8-6.1c1.9-2,4.4-2.6,6.7-2.6h3.5l0.1-1.5c0.5-5.2,5-8.2,9.1-8.2c2,0,8.7,1,9.5,7.5l0.1,1.2h3.1
				c5.1,0,9,4.9,9.2,9.8v0.6l0.9-0.2c2.8-0.1,5.4,0.7,7.3,2.5c1.8,1.7,2.8,4.2,2.8,6.6C1089.3,190.4,1088.2,193.1,1086.2,195z"/>
			<polygon fill="#FFFFFF" points="1057.5,191.6 1057.5,167.5 1055.5,167.5 1055.5,191.3 1047.9,183.8 1046.6,185.1 1056.3,194.9 
				1066.4,184.8 1065.3,183.5 			"/>
		</g>
		<g opacity="0.23">
			<path fill="#FFFFFF" d="M1182.9,74.8c-2.7-2.6-6.2-4.3-10.1-4.4c-0.8-7.2-6.4-14.9-14.1-14.9h-2c-1.5-8-8.3-9.7-14.4-9.7
				c-6.9,0-12.7,4.7-13.9,11.7h-2.5c-3.6,0-7.4,1.7-10.3,4.7c-2.5,2.7-4,5.9-4.2,9.1c-3.5,0.3-7,2-9.6,4.8c-2.7,2.8-4.1,6.4-3.9,9.8
				c0.4,8.1,6.6,14.6,14.2,14.6h60.4c3.6,0,7.4-1.8,10.3-4.7c3-3,4.7-7,4.7-10.8C1187.2,81.1,1185.6,77.4,1182.9,74.8z M1180.9,94.2
				c-2.5,2.5-5.6,4.2-8.7,4.2h-60.4c-7.1,0-11.6-6.5-11.8-12.6c-0.1-2.8,1-6.3,3.3-8.6c2.5-2.6,5.9-4.8,9-4.8h1.2l-0.1-0.7
				c-0.1-2.9,1.2-5.9,3.6-8.4c2.4-2.6,5.7-3.9,8.7-3.9h4.6l0.1-1c0.7-6.7,6.4-10.2,11.8-10.2c2.6,0,11.2,0.2,12.3,8.6l0.1,0.5h4.1
				c6.6,0,11.6,7.6,11.9,14l0.1,1.4l1.2,0.1c3.6-0.2,7,1.1,9.5,3.5c2.3,2.2,3.6,5.4,3.6,8.6C1184.9,88.2,1183.4,91.7,1180.9,94.2z"
				/>
			<polygon fill="#FFFFFF" points="1143.5,90 1143.5,57.5 1140.5,57.5 1140.5,89.7 1131,80 1129.4,81.6 1142.1,94.3 1155.2,81.2 
				1153.7,79.6 			"/>
		</g>
		<g opacity="0.28">
			<path fill="#FFFFFF" d="M976.3,168.6c-0.9-0.9-2.1-1.2-3.5-1.3c-0.3-2.5-2.2-4.9-4.9-4.9h-0.7c-0.5-3-2.9-3.7-5-3.7
				c-2.4,0-4.4,1.7-4.8,3.7h-0.9c-1.3,0-2.6,0.7-3.6,1.7c-0.9,0.9-1.4,2.1-1.5,3.2c-1.2,0.1-2.4,0.7-3.3,1.7c-0.9,1-1.4,2.7-1.4,3.9
				c0.1,2.8,2.3,5.5,4.9,5.5h20.8c1.3,0,2.5-1.1,3.6-2.1c1-1,1.6-2.6,1.6-4C977.8,171.1,977.2,169.5,976.3,168.6z M975.6,175.7
				c-0.9,0.9-1.9,1.8-3,1.8h-20.8c-2.4,0-4-2.6-4.1-4.7c0-1,0.4-1.5,1.1-2.3c0.9-0.9,2-1,3.1-1h0.4v-1.1c0-1,0.4-1.9,1.2-2.8
				c0.8-0.9,2-1.2,3-1.2h1.6v-0.9c0.2-2.3,2.2-3.8,4.1-3.8c0.9,0,3.9,0.8,4.2,3.7v0.9h1.4c2.3,0,4,1.7,4.1,3.9l0,0l0.4-0.2
				c1.3-0.1,2.4,0.3,3.3,1.1c0.8,0.8,1.3,2,1.3,3.1C977,173.5,976.5,174.8,975.6,175.7z"/>
			<polygon fill="#FFFFFF" points="962.5,173.9 962.5,162.5 961.5,162.5 961.5,173.8 958.3,170.4 957.8,171 962.2,175.3 
				966.7,170.8 966.1,170.3 			"/>
		</g>
		<g opacity="0.34">
			<path fill="#FFFFFF" d="M1252.4,109.6c-3.5-3.3-8.1-5.1-13-5.2c-1.1-9.4-8.3-18.9-18.3-18.9h-2.7c-1.9-11-10.8-12.8-18.7-12.8
				c-9,0-16.5,4.8-18,14.8h-3.3c-4.7,0-9.6,2-13.4,6c-3.3,3.4-5.2,7.5-5.5,11.7c-4.5,0.4-9,2.6-12.4,6.1c-3.5,3.6-5.3,8.5-5.1,13
				c0.5,10.5,8.5,19.2,18.3,19.2h78.2c4.7,0,9.6-2.7,13.3-6.4c3.8-3.8,6-9.2,6-14.2C1258,118,1256,113,1252.4,109.6z M1249.9,134.9
				c-3.2,3.2-7.3,5.6-11.2,5.6h-78.2c-9.2,0-15-8.6-15.3-16.4c-0.2-3.6,1.3-7.3,4.2-10.3c3.2-3.4,7.6-5.3,11.7-5.3h1.6l-0.1-1.8
				c-0.2-3.8,1.5-7.8,4.6-11c3.2-3.3,7.3-5.2,11.2-5.2h5.9l0.1-1.6c0.9-8.7,8.3-13.4,15.2-13.4c3.4,0,14.5,0.8,15.9,11.7l0.2,1.2
				h5.2c8.6,0,15,9.2,15.4,17.5l0.1,1.5l1.5-0.1c4.7-0.2,9.1,1.3,12.3,4.4c3,2.9,4.7,7.1,4.7,11.1
				C1255,127.1,1253.2,131.6,1249.9,134.9z"/>
			<polygon fill="#FFFFFF" points="1201.5,129.2 1201.5,87.5 1198.5,87.5 1198.5,128.9 1185.7,116.3 1183.5,118.4 1199.8,134.8 
				1216.6,117.9 1214.7,115.8 			"/>
		</g>
		<g opacity="0.13">
			<path fill="#FFFFFF" d="M693.2,212.6c2.2-1.6,4.7-2.5,7.2-2.5h1.2l-0.1-1.4c-0.1-3,1.2-6.1,3.6-8.7c2.5-2.6,5.8-4.1,8.8-4.1h4.7
				l0.1-1.2c0.7-6.8,6.5-10.5,12-10.5c2.6,0,11.4,0.9,12.5,9.5l0.1,1.2h4.1c6.8,0,11.8,7,12.1,13.4l0.1,1l1.2-0.1
				c3.6-0.2,7,1,9.5,3.3h3.2c-0.4-0.6-0.9-1.1-1.4-1.6c-2.7-2.6-6.3-4.1-10.2-4.2c-0.8-7.4-6.5-14.9-14.3-14.9h-2.1
				c-1.5-8.1-8.5-9.8-14.6-9.8c-7,0-12.9,4.8-14.1,11.9H714c-3.7,0-7.5,1.4-10.5,4.5c-2.6,2.7-4.1,5.8-4.3,9.1
				c-3.5,0.3-7.1,2-9.7,4.8c-0.1,0.1-0.2,0.2-0.2,0.3H693.2z"/>
			<rect x="729.6" y="193.9" fill="#FFFFFF" width="2" height="18.7"/>
		</g>
		<g opacity="0.34">
			<path fill="#FFFFFF" d="M1054.4,37.1c-2-1.9-4.6-3.4-7.4-3.4c-0.6-5.4-4.8-11.2-10.4-11.2h-1.5c-1.1-5-6.2-6.9-10.7-6.9
				c-5.1,0-9.4,3.9-10.3,8.9h-1.9c-2.7,0-5.5,1.2-7.6,3.4c-1.9,2-3,4.3-3.1,6.7c-2.6,0.2-5.1,1.5-7.1,3.5c-2,2.1-3,4.4-2.9,6.9
				c0.3,6,4.9,10.5,10.5,10.5h44.7c2.7,0,5.5-1,7.6-3.2c2.2-2.2,3.5-5,3.5-7.8C1057.6,41.7,1056.4,39.1,1054.4,37.1z M1053,50.9
				c-1.8,1.8-4.2,2.5-6.4,2.5h-44.7c-5.2,0-8.6-4.2-8.8-8.7c-0.1-2.1,0.8-4.3,2.4-6.1c1.8-1.9,4.3-3.2,6.7-3.2h0.9v-0.5
				c-0.1-2.2,0.9-4.5,2.6-6.4c1.8-1.9,4.2-3.1,6.4-3.1h3.4l0.1-0.5c0.5-5,4.8-7.4,8.7-7.4c1.9,0,8.3,0.2,9.1,6.5l0.1,0.5h3
				c4.9,0,8.6,5.6,8.8,10.3v1h0.9c2.7-0.1,5.2,0.8,7,2.5c1.7,1.6,2.7,3.7,2.7,6C1055.9,46.8,1054.8,49.1,1053,50.9z"/>
			<polygon fill="#FFFFFF" points="1024.5,48.4 1024.5,24.5 1022.5,24.5 1022.5,48.1 1015.7,41 1014.7,42.2 1024.2,51.5 
				1033.9,41.9 1032.4,40.7 			"/>
		</g>
		<g opacity="0.34">
			<path fill="#FFFFFF" d="M989.2,49.8c-2.3-2.2-5.4-3.6-8.7-3.6c-0.7-6.3-5.6-12.7-12.2-12.7h-1.8c-1.3-7-7.2-8.7-12.5-8.7
				c-6,0-11,3.7-12,9.7h-2.2c-3.2,0-6.4,1.7-8.9,4.3c-2.2,2.3-3.5,5.2-3.6,8c-3,0.3-6,1.8-8.3,4.2s-3.5,5.2-3.4,8.2
				c0.3,7,5.7,12.4,12.2,12.4H980c3.1,0,6.4-1.3,8.9-3.8c2.6-2.6,4-5.9,4-9.2C993,55.2,991.6,52.1,989.2,49.8z M987.5,66.3
				c-2.2,2.2-4.9,3.2-7.5,3.2h-52.2c-6.1,0-10-5.2-10.2-10.4c-0.1-2.4,0.9-5.4,2.8-7.4c2.1-2.2,5.1-4.1,7.8-4.1h1v-0.4
				c-0.1-2.5,1-5.1,3.1-7.3s4.9-3.3,7.5-3.3h4l0.1-0.8c0.6-5.8,5.6-8.8,10.2-8.8c2.3,0,9.7,0.5,10.6,7.8l0.1,0.8h3.5
				c5.8,0,10,6.3,10.3,11.8v1.1h1c3.2-0.2,6.1,0.9,8.2,2.9c2,1.9,3.1,4.5,3.2,7.2C991,61.3,989.7,64.1,987.5,66.3z"/>
			<polygon fill="#FFFFFF" points="955.5,63 955.5,34.5 953.5,34.5 953.5,62.7 944.8,54.3 943.2,55.8 954.1,66.7 965.3,55.4 
				964.2,54 			"/>
		</g>
		<g opacity="0.35">
			<path fill="#FFFFFF" d="M868.5,190.8c-1.7-1.6-3.9-1.8-6.3-1.9c-0.5-4.5-4-8.5-8.8-8.5h-1.3c-0.9-5-5.2-6.7-9-6.7
				c-4.3,0-8,2.7-8.7,6.7h-1.6c-2.3,0-4.6,0.8-6.4,2.7c-1.6,1.7-2.5,3.6-2.6,5.6c-2.2,0.2-4.3,1.2-6,2.9c-1.7,1.8-2.5,4.3-2.4,6.4
				c0.2,5.1,4.1,9.4,8.8,9.4h37.7c2.3,0,4.6-1.5,6.4-3.3c1.9-1.9,2.9-4.5,2.9-6.9C871.3,194.9,870.3,192.4,868.5,190.8z
				 M867.3,203.4c-1.6,1.6-3.5,3.1-5.4,3.1h-37.7c-4.4,0-7.2-4.5-7.4-8.3c-0.1-1.7,0.6-3.6,2-5.1c1.5-1.6,3.7-2.7,5.6-2.7h0.8v-1
				c-0.1-1.8,0.7-3.3,2.2-4.9c1.5-1.6,3.5-2.1,5.4-2.1h2.9l0.1-1.2c0.4-4.2,4-6.7,7.4-6.7c1.6,0,7,0.7,7.7,6l0.1,0.9h2.5
				c4.2,0,7.2,4,7.4,8v0.5l0.7-0.1c2.3-0.1,4.4,0.6,5.9,2.1c1.4,1.4,2.3,3.6,2.3,5.5C869.8,199.4,868.9,201.8,867.3,203.4z"/>
			<polygon fill="#FFFFFF" points="844.5,200.3 844.5,180.5 842.5,180.5 842.5,200.1 836.3,194 835.3,195.1 843.2,202.9 
				851.3,194.8 850.6,193.8 			"/>
		</g>
		<g opacity="0.32">
			<path fill="#FFFFFF" d="M895.8,10.9c-0.6-5.6-5-11.2-10.9-11.2h-1.6c-0.2-0.9-0.5-1.8-0.8-2.5h-2.2c0.7,0.9,1.2,2.1,1.4,3.6
				l0.1,0.9h3.1c5.1,0,9,5.3,9.2,10.2v0.8l0.9-0.1c2.8-0.1,5.4,0.8,7.3,2.6c1.8,1.7,2.8,4.1,2.8,6.5c0,2.5-1.1,5.1-3.1,7.1
				c-1.9,1.9-4.4,3.2-6.7,3.2h-46.7c-5.5,0-8.9-4.9-9.2-9.6c-0.1-2.2,0.8-4.5,2.5-6.3c1.9-2,4.5-3.3,7-3.3h0.9v-0.9
				c-0.1-2.3,0.9-4.4,2.8-6.4c1.9-2,4.4-2.9,6.7-2.9h3.5l0.1-1c0.2-1.8,0.8-3.3,1.8-4.5h-2.1c-0.6,1.1-1.1,2.2-1.3,3.5h-2
				c-2.8,0-5.7,1.2-8,3.6c-2,2-3.1,4.5-3.3,7c-2.7,0.2-5.4,1.6-7.4,3.7c-2.1,2.2-3.2,5.1-3,7.7c0.3,6.3,5.1,11.4,10.9,11.4h46.7
				c2.8,0,5.7-1.5,8-3.8s3.6-5.5,3.6-8.4s-1.2-5.9-3.4-7.9C901.5,11.9,898.8,10.9,895.8,10.9z"/>
			<polygon fill="#FFFFFF" points="873.5,25.7 873.5,0.5 871.5,0.5 871.5,25.4 863.8,17.9 862.5,19.2 872.2,29 882.3,18.9 
				881.2,17.6 			"/>
		</g>
		<g opacity="0.23">
			<path fill="#FFFFFF" d="M912.7,142.6c-2.7-2.6-6.2-3.7-10.1-3.8c-0.8-7.2-6.4-14.3-14.1-14.3h-2c-1.5-8-8.3-9.7-14.4-9.7
				c-6.9,0-12.7,4.7-13.9,11.7h-2.5c-3.6,0-7.4,1.1-10.3,4.1c-2.5,2.7-4,5.6-4.2,8.8c-3.5,0.3-7,1.9-9.6,4.6
				c-2.7,2.8-4.1,6.9-3.9,10.3c0.4,8.1,6.6,15.1,14.2,15.1h60.4c3.6,0,7.4-2.4,10.3-5.3c3-3,4.7-7.3,4.7-11.1
				C917.1,149.2,915.5,145.2,912.7,142.6z M910.8,162.6c-2.5,2.5-5.6,4.8-8.7,4.8h-60.4c-7.1,0-11.6-7.1-11.8-13.2
				c-0.1-2.8,1-6,3.3-8.3c2.5-2.6,5.9-4.5,9-4.5h1.2l-0.1-1.3c-0.1-2.9,1.2-5.6,3.6-8.1c2.4-2.6,5.7-3.6,8.7-3.6h4.6l0.1-1.6
				c0.7-6.7,6.4-10.5,11.8-10.5c2.6,0,11.2,0.6,12.3,9.1l0.1,1h4.1c6.6,0,11.6,7,11.9,13.4l0.1,1.1l1.2-0.1c3.6-0.2,7,1,9.5,3.4
				c2.3,2.2,3.6,5.7,3.6,8.8C914.8,156.3,913.3,160.1,910.8,162.6z"/>
			<polygon fill="#FFFFFF" points="873.5,157.7 873.5,126.5 870.5,126.5 870.5,157.5 860.9,147.7 859.3,149.4 872,162 885.1,149 
				883.6,147.4 			"/>
		</g>
		<g opacity="0.28">
			<path fill="#FFFFFF" d="M807.3,190.9c-0.9-0.9-2.1-0.9-3.5-0.9c-0.3-2.5-2.2-4.5-4.9-4.5h-0.7c-0.5-3-2.9-3.7-5-3.7
				c-2.4,0-4.4,1.7-4.8,3.7h-0.9c-1.3,0-2.6,0.3-3.6,1.4c-0.9,0.9-1.4,1.9-1.5,3c-1.2,0.1-2.4,0.6-3.3,1.6c-0.9,1-1.4,2.5-1.4,3.7
				c0.1,2.8,2.3,5.4,4.9,5.4h20.8c1.3,0,2.5-1,3.6-2c1-1,1.6-2.6,1.6-3.9C808.8,193.3,808.3,191.8,807.3,190.9z M806.7,197.8
				c-0.9,0.9-1.9,1.7-3,1.7h-20.8c-2.4,0-4-2.5-4.1-4.5c0-1,0.4-1.6,1.1-2.4c0.9-0.9,2-1.1,3.1-1.1h0.4v-0.9c0-1,0.4-1.9,1.2-2.8
				c0.8-0.9,2-1.3,3-1.3h1.6v-0.8c0.2-2.3,2.2-3.7,4.1-3.7c0.9,0,3.9,0.7,4.2,3.6v0.9h1.4c2.3,0,4,1.8,4.1,4.1v0.1l0.4-0.2
				c1.3-0.1,2.4,0.3,3.3,1.1c0.8,0.8,1.3,1.9,1.3,3C808.1,195.7,807.5,196.9,806.7,197.8z"/>
			<polygon fill="#FFFFFF" points="794.5,196.1 794.5,185.5 793.5,185.5 793.5,196 789.8,192.7 789.1,193.2 793.4,197.6 
				797.8,193.1 797.7,192.5 			"/>
		</g>
		<g opacity="0.34">
			<path fill="#FFFFFF" d="M250.8,84.3c-3.5-3.3-8.1-5.5-13-5.6c-1.1-9.4-8.3-19.2-18.3-19.2h-2.7c-1.9-10-10.8-12.8-18.7-12.8
				c-9,0-16.5,5.8-18,14.8h-3.3c-4.7,0-9.6,2.4-13.4,6.3c-3.3,3.4-5.2,7.7-5.5,11.9c-4.5,0.4-9,2.7-12.4,6.2
				c-3.5,3.6-5.3,8.7-5.1,13.2c0.5,10.5,8.5,19.4,18.3,19.4h78.2c4.7,0,9.6-2.8,13.3-6.6c3.8-3.8,6-9.2,6-14.2
				C256.5,92.8,254.4,87.7,250.8,84.3z M248.3,109.8c-3.2,3.2-7.3,5.7-11.2,5.7h-78.2c-9.2,0-15-8.7-15.3-16.5
				c-0.2-3.6,1.3-8.2,4.2-11.2c3.2-3.4,7.6-6.3,11.7-6.3h1.6l-0.1-1c-0.2-3.8,1.5-7.7,4.6-10.9c3.2-3.3,7.3-5.1,11.2-5.1h5.9
				l0.1-1.2c0.9-8.7,8.3-13.2,15.2-13.2c3.4,0,14.5,0.5,15.9,11.4l0.2,1h5.2c8.6,0,15,9.6,15.4,17.8L235,82h1.5
				c4.7-0.2,9.1,1.4,12.3,4.4c3,2.9,4.7,7.1,4.7,11.2C253.5,101.8,251.6,106.5,248.3,109.8z"/>
			<polygon fill="#FFFFFF" points="199.5,104 199.5,61.5 196.5,61.5 196.5,103.6 183.9,91 181.8,93.1 198.2,109.5 215,92.6 
				212.9,90.5 			"/>
		</g>
		<g opacity="0.13">
			<path fill="#FFFFFF" d="M177.2,51.1c-2.7-2.6-6.3-4.4-10.2-4.5c-0.8-7.4-6.5-15.2-14.3-15.2h-2.1c-1.5-8-8.5-9.9-14.6-9.9
				c-7,0-12.9,4.9-14.1,11.9h-2.6c-3.7,0-7.5,1.7-10.5,4.8c-2.6,2.7-4.1,6-4.3,9.3c-3.5,0.3-7.1,2.1-9.7,4.9c-2.7,2.8-4.1,6.1-4,9.6
				c0.4,8.3,6.7,14.5,14.4,14.5h61.3c3.7,0,7.5-1.5,10.5-4.4c3-3,4.7-6.9,4.7-10.8C181.6,57.4,180,53.8,177.2,51.1z M175.2,70.5
				c-2.5,2.5-5.7,3.9-8.8,3.9h-61.3c-7.2,0-11.8-6.3-12-12.4c-0.1-2.8,1.1-5.9,3.3-8.2c2.5-2.6,5.9-4.3,9.2-4.3h1.2l-0.1-1.1
				c-0.1-3,1.2-6.2,3.6-8.8c2.5-2.6,5.8-4.2,8.8-4.2h4.7l0.1-0.9c0.7-6.8,6.5-10.3,12-10.3c2.6,0,11.4,0.7,12.5,9.2l0.1,1h4.1
				c6.8,0,11.8,7.3,12.1,13.7l0.1,1.2h1.2c3.7-0.2,7.1,1.1,9.6,3.4c2.3,2.2,3.7,5.3,3.7,8.5C179.3,64.6,177.8,67.9,175.2,70.5z"/>
			<polygon fill="#FFFFFF" points="137.5,66.5 137.5,33.5 135.5,33.5 135.5,66.2 125.1,56.4 123.2,58 136,70.9 149.1,57.6 147.7,56 
							"/>
		</g>
		<g opacity="0.34">
			<path fill="#FFFFFF" d="M404.4,132.1c-3.9-3.7-9-5.6-14.6-5.7c-1.2-10.5-9.3-20.9-20.4-20.9h-3c-2.2-12-12-14-20.9-14
				c-10,0-18.4,6-20.1,17h-3.7c-5.3,0-10.7,1.7-14.9,6.1c-3.7,3.8-5.8,8.2-6.1,12.8c-5,0.5-10.1,2.8-13.8,6.7
				c-3.9,4.1-5.9,9.7-5.7,14.7c0.5,11.7,9.5,21.6,20.5,21.6H389c5.2,0,10.7-3.2,14.9-7.5c4.3-4.3,6.8-10.4,6.7-16
				C410.7,141.6,408.4,135.9,404.4,132.1z M401.6,160.8c-3.6,3.6-8.2,6.6-12.5,6.6h-87.3c-10.2,0-16.7-10-17.1-18.7
				c-0.2-4,1.5-8.5,4.7-11.9c3.6-3.7,8.5-6.4,13.1-6.4h1.8l-0.1-1.8c-0.2-4.3,1.7-8.2,5.2-11.8c3.5-3.7,8.2-5.3,12.5-5.3h6.6
				l0.2-2.1c1-9.7,9.3-15.1,17-15.1c3.8,0,16.2,1.3,17.8,13.5l0.2,1.8h5.9c9.6,0,16.8,9.8,17.2,19l0.1,1.4l1.7-0.2
				c5.3-0.3,10.1,1.4,13.7,4.8c3.3,3.2,5.3,8.1,5.3,12.6C407.3,151.9,405.2,157.1,401.6,160.8z"/>
			<polygon fill="#FFFFFF" points="347.5,154.1 347.5,108.5 343.5,108.5 343.5,153.7 329.5,139.6 327.2,142 345.5,160.3 
				364.4,141.4 362.2,139.1 			"/>
		</g>
		<g opacity="0.34">
			<path fill="#FFFFFF" d="M255.7,128.8c-2.3-2.2-5.4-3-8.7-3.1c-0.7-6.3-5.6-12.2-12.2-12.2H233c-1.3-7-7.2-8.7-12.5-8.7
				c-6,0-11,3.7-12,9.7h-2.2c-3.2,0-6.4,1.1-8.9,3.7c-2.2,2.3-3.5,4.9-3.6,7.7c-3,0.3-6,1.7-8.3,4c-2.3,2.4-3.5,5.7-3.4,8.7
				c0.3,7,5.7,12.8,12.2,12.8h52.2c3.1,0,6.4-1.8,8.9-4.3c2.6-2.6,4-6.1,4-9.5C259.5,134.4,258.1,131,255.7,128.8z M254.1,145.7
				c-2.2,2.2-4.9,3.8-7.5,3.8h-52.2c-6.1,0-10-5.8-10.2-11c-0.1-2.4,0.9-5.1,2.8-7.2c2.1-2.2,5.1-3.9,7.8-3.9h1v-0.9
				c-0.1-2.5,1-4.8,3.1-7s4.9-3.1,7.5-3.1h4l0.1-1.3c0.6-5.8,5.6-9,10.2-9c2.3,0,9.7,0.9,10.6,8.2l0.1,1.2h3.5
				c5.8,0,10,5.7,10.3,11.3v0.8l1-0.1c3.2-0.2,6.1,0.8,8.2,2.9c2,1.9,3.1,4.7,3.2,7.4C257.5,140.5,256.3,143.5,254.1,145.7z"/>
			<polygon fill="#FFFFFF" points="221.5,141.9 221.5,114.5 219.5,114.5 219.5,141.6 211,133.2 209.6,134.7 220.5,145.6 
				231.8,134.3 230.4,132.9 			"/>
		</g>
		<g opacity="0.35">
			<path fill="#FFFFFF" d="M273.7,30.9c-1.7-1.6-3.9-2.4-6.3-2.4c-0.5-4.5-4-9-8.8-9h-1.3c-0.9-5-5.2-6.7-9-6.7
				c-4.3,0-8,2.7-8.7,6.7H238c-2.3,0-4.6,1.4-6.4,3.3c-1.6,1.7-2.5,3.8-2.6,5.8c-2.2,0.2-4.3,1.4-6,3.1c-1.7,1.8-2.5,3.8-2.4,5.9
				c0.2,5.1,4.1,8.9,8.8,8.9h37.7c2.3,0,4.6-0.9,6.4-2.7c1.9-1.9,2.9-4.2,2.9-6.6C276.4,34.8,275.4,32.6,273.7,30.9z M272.5,43
				c-1.6,1.6-3.5,2.5-5.4,2.5h-37.7c-4.4,0-7.2-3.9-7.4-7.7c-0.1-1.7,0.6-3.9,2-5.3c1.5-1.6,3.7-2.9,5.6-2.9h0.8v-0.4
				c-0.1-1.8,0.7-3.6,2.2-5.2s3.5-2.4,5.4-2.4h2.9L241,21c0.4-4.2,4-6.4,7.4-6.4c1.6,0,7,0.3,7.7,5.5l0.1,0.5h2.5
				c4.2,0,7.2,4.6,7.4,8.6V30h0.7c2.3-0.1,4.4,0.7,5.9,2.1c1.4,1.4,2.3,3.3,2.3,5.3C275,39.3,274.1,41.4,272.5,43z"/>
			<polygon fill="#FFFFFF" points="248.5,40.4 248.5,19.5 246.5,19.5 246.5,40.2 240.9,34.2 240.1,35.2 248.2,43.1 256.4,35 
				255.1,33.9 			"/>
		</g>
		<g opacity="0.32">
			<path fill="#FFFFFF" d="M170.1,92.8c-2.1-2-4.8-3.6-7.8-3.6c-0.6-5.6-5-11.8-10.9-11.8h-1.6c-1.2-6-6.4-7.8-11.1-7.8
				c-5.4,0-9.9,3.8-10.8,8.8h-2c-2.8,0-5.7,1.8-8,4.1c-2,2-3.1,4.8-3.3,7.3c-2.7,0.2-5.4,1.7-7.4,3.8c-2.1,2.2-3.2,5.4-3,8
				c0.3,6.3,5.1,11.7,10.9,11.7h46.7c2.8,0,5.7-1.8,8-4c2.3-2.3,3.6-5.6,3.6-8.6C173.5,98,172.3,94.9,170.1,92.8z M168.6,108
				c-1.9,1.9-4.4,3.4-6.7,3.4h-46.7c-5.5,0-8.9-5.2-9.2-9.9c-0.1-2.2,0.8-4.7,2.5-6.5c1.9-2,4.5-3.6,7-3.6h0.9v-0.7
				c-0.1-2.3,0.9-4.9,2.8-6.9s4.4-3.4,6.7-3.4h3.5l0.1-0.5c0.5-5.2,5-7.7,9.1-7.7c2,0,8.7,0.2,9.5,6.7l0.1,0.5h3.1
				c5.1,0,9,5.9,9.2,10.8v1.1l0.9,0.1c2.8-0.1,5.4,0.8,7.3,2.7c1.8,1.7,2.8,4.3,2.8,6.7C171.7,103.3,170.6,106.1,168.6,108z"/>
			<polygon fill="#FFFFFF" points="140.5,104.6 140.5,78.5 138.5,78.5 138.5,104.3 130.6,96.8 129.1,98.1 138.8,107.9 148.8,97.8 
				148,96.5 			"/>
		</g>
		<g opacity="0.23">
			<path fill="#FFFFFF" d="M280.4,175.9c-2.7-2.6-6.2-3.9-10.1-4c-0.8-7.2-6.4-14.5-14.1-14.5h-2c-1.5-8-8.3-9.7-14.4-9.7
				c-6.9,0-12.7,4.7-13.9,11.7h-2.5c-3.6,0-7.4,1.3-10.3,4.3c-2.5,2.7-4,5.7-4.2,8.9c-3.5,0.3-7,1.9-9.6,4.7
				c-2.7,2.8-4.1,6.7-3.9,10.2c0.4,8.1,6.6,15,14.2,15H270c3.6,0,7.4-2.2,10.3-5.2c3-3,4.7-7.2,4.7-11
				C284.8,182.5,283.2,178.6,280.4,175.9z M278.5,195.8c-2.5,2.5-5.6,4.6-8.7,4.6h-60.4c-7.1,0-11.6-6.9-11.8-13
				c-0.1-2.8,1-5.6,3.3-7.9c2.5-2.6,5.9-4.1,9-4.1h1.2l-0.1-1.6c-0.1-2.9,1.2-5.9,3.6-8.5c2.4-2.6,5.7-3.9,8.7-3.9h4.6l0.1-1.4
				c0.7-6.7,6.4-10.4,11.8-10.4c2.6,0,11.2,0.5,12.3,8.9l0.1,0.8h4.1c6.6,0,11.6,7.2,11.9,13.6l0.1,1.2h1.2c3.6-0.2,7,1,9.5,3.4
				c2.3,2.2,3.6,5.6,3.6,8.7C282.5,189.6,281,193.3,278.5,195.8z"/>
			<polygon fill="#FFFFFF" points="240.5,191.1 240.5,159.5 237.5,159.5 237.5,190.8 228.3,181.1 226.9,182.8 239.6,195.4 
				252.7,182.4 251,180.7 			"/>
		</g>
		<g opacity="0.28">
			<path fill="#FFFFFF" d="M212.5,31c-0.9-0.9-2.1-1.4-3.5-1.5c-0.3-2.5-2.2-5.1-4.9-5.1h-0.7c-0.5-3-2.9-3.7-5-3.7
				c-2.4,0-4.4,1.7-4.8,3.7h-0.9c-1.3,0-2.6,0.9-3.6,1.9c-0.9,0.9-1.4,2.2-1.5,3.3c-1.2,0.1-2.4,0.8-3.3,1.7c-0.9,1-1.4,2-1.4,3.2
				c0.1,2.8,2.3,4.9,4.9,4.9h20.8c1.3,0,2.5-0.4,3.6-1.4c1-1,1.6-2.3,1.6-3.6C214,33.1,213.4,31.9,212.5,31z M211.8,37.4
				c-0.9,0.9-1.9,1.1-3,1.1H188c-2.4,0-4-1.9-4.1-4c0-1,0.4-1.9,1.1-2.7c0.9-0.9,2-1.4,3.1-1.4h0.4V30c0-1,0.4-2.2,1.2-3.1
				s2-1.5,3-1.5h1.6v-0.2c0.2-2.3,2.2-3.4,4.1-3.4c0.9,0,3.9,0.3,4.2,3.2v0.4h1.4c2.3,0,4,2.4,4.1,4.6v0.4h0.4
				c1.3-0.1,2.4,0.4,3.3,1.2c0.8,0.8,1.3,1.7,1.3,2.8C213.2,35.5,212.7,36.5,211.8,37.4z"/>
			<polygon fill="#FFFFFF" points="198.5,36.3 198.5,24.5 197.5,24.5 197.5,36.2 194.4,32.8 193.9,33.4 198.4,37.8 202.9,33.3 
				202.2,32.7 			"/>
		</g>
		<g opacity="0.34">
			<path fill="#FFFFFF" d="M81.9,106.6c-3.5-3.3-8.1-5.1-13-5.1c-1.1-9.4-8.3-18.8-18.3-18.8h-2.7C46,72.5,37.1,69.8,29.3,69.8
				c-9,0-16.5,5.7-18,14.8H7.9c-4.7,0-9.6,1.9-13.4,5.9c-3.3,3.4-5.2,7.5-5.5,11.7c-0.8,0.1-1.7,0.2-2.5,0.4v3
				c1.3-0.4,2.7-0.7,4-0.7h1.6l-0.1-1.5c-0.2-3.8,1.5-7.5,4.6-10.8c3.2-3.3,7.3-4.9,11.2-4.9h5.9L14,86c0.9-8.7,8.3-13.4,15.2-13.4
				c3.4,0,14.5,0.9,15.9,11.8l0.2,1.3h5.2c8.6,0,15,9.1,15.4,17.4l0.1,1.5l1.5-0.1c4.7-0.2,9.1,1.3,12.3,4.4c3,2.9,4.7,7,4.7,11
				c0,4.2-1.9,8.7-5.2,12c-3.2,3.2-7.3,5.5-11.2,5.5H-10c-1.2,0-2.3-0.1-3.4-0.4v3.1c1.1,0.2,2.2,0.4,3.4,0.4h78.2
				c4.7,0,9.6-2.6,13.3-6.4c3.8-3.8,6-9.1,6-14.1C87.5,114.9,85.5,110,81.9,106.6z"/>
			<polygon fill="#FFFFFF" points="30.5,126.2 30.5,84.5 27.5,84.5 27.5,125.8 14.9,113.3 12.8,115.4 29.2,131.8 46.1,114.9 
				43.9,112.8 			"/>
		</g>
		<g opacity="0.13">
			<path fill="#FFFFFF" d="M363.3,49.1c-2.7-2.6-6.3-4.4-10.2-4.5c-0.8-7.4-6.5-15.2-14.3-15.2h-2.1c-1.5-8-8.5-9.9-14.6-9.9
				c-7,0-12.9,4.9-14.1,11.9h-2.6c-3.7,0-7.5,1.7-10.5,4.8c-2.6,2.7-4.1,6-4.3,9.2c-3.5,0.3-7.1,2.1-9.7,4.9c-2.7,2.8-4.1,6.1-4,9.6
				c0.4,8.3,6.7,14.5,14.4,14.5h61.3c3.7,0,7.5-1.5,10.5-4.5s4.7-6.9,4.7-10.8C367.8,55.4,366.1,51.8,363.3,49.1z M361.4,68.5
				c-2.5,2.5-5.7,3.9-8.8,3.9h-61.3c-7.2,0-11.8-6.3-12-12.4c-0.1-2.8,1.1-5.9,3.3-8.2c2.5-2.6,5.9-4.3,9.2-4.3h1.2l-0.1-1.1
				c-0.1-3,1.2-6.2,3.6-8.8c2.5-2.6,5.8-4.2,8.8-4.2h4.7l0.1-0.9c0.7-6.8,6.5-10.3,12-10.3c2.6,0,11.4,0.7,12.5,9.2l0.1,1h4.1
				c6.8,0,11.8,7.2,12.1,13.7l0.1,1.2l1.2-0.1c3.7-0.2,7.1,1.1,9.6,3.4c2.3,2.2,3.7,5.3,3.7,8.5C365.4,62.6,363.9,65.9,361.4,68.5z"
				/>
			<polygon fill="#FFFFFF" points="323.5,64.5 323.5,31.5 321.5,31.5 321.5,64.2 311.2,54.3 309.3,56 322.1,68.9 335.3,55.6 
				333.8,53.9 			"/>
		</g>
		<g opacity="0.34">
			<path fill="#FFFFFF" d="M152,138.3c-2-1.9-4.6-3-7.4-3c-0.6-5.4-4.8-10.8-10.4-10.8h-1.5c-1.1-5-6.2-6.9-10.7-6.9
				c-5.1,0-9.4,3.9-10.3,8.9h-1.9c-2.7,0-5.5,0.8-7.6,3c-1.9,2-3,4.1-3.1,6.5c-2.6,0.2-5.1,1.4-7.1,3.4c-2,2.1-3,4.7-2.9,7.3
				c0.3,6,4.9,10.8,10.5,10.8h44.7c2.7,0,5.5-1.4,7.6-3.6c2.2-2.2,3.5-5.2,3.5-8C155.2,143.1,154,140.2,152,138.3z M150.5,152.5
				c-1.8,1.8-4.2,2.9-6.4,2.9H99.5c-5.2,0-8.6-4.6-8.8-9.1c-0.1-2.1,0.8-4.1,2.4-5.9c1.8-1.9,4.3-3,6.7-3h0.9v-0.9
				c-0.1-2.2,0.9-4.3,2.6-6.2c1.8-1.9,4.2-2.9,6.4-2.9h3.4l0.1-1c0.5-5,4.8-7.7,8.7-7.7c1.9,0,8.3,0.6,9.1,6.8l0.1,0.8h3
				c4.9,0,8.6,5.1,8.8,9.9v0.8l0.9-0.1c2.7-0.1,5.2,0.7,7,2.5c1.7,1.6,2.7,3.9,2.7,6.2C153.5,148.2,152.4,150.6,150.5,152.5z"/>
			<polygon fill="#FFFFFF" points="123.5,149.5 123.5,126.5 121.5,126.5 121.5,149.3 114,142.1 112.7,143.3 122,152.7 131.6,143.1 
				130.7,141.8 			"/>
		</g>
		<g opacity="0.34">
			<path fill="#FFFFFF" d="M86.8,151c-2.3-2.2-5.4-3.2-8.7-3.2c-0.7-6.3-5.6-12.3-12.2-12.3h-1.8c-1.3-7-7.2-8.7-12.5-8.7
				c-6,0-11,3.7-12,9.7h-2.2c-3.2,0-6.4,1.2-8.9,3.9c-2.2,2.3-3.5,5-3.6,7.8c-3,0.3-6,1.7-8.3,4.1c-2.3,2.4-3.5,6.1-3.4,9.1
				c0.3,7,5.7,13.2,12.2,13.2h52.2c3.1,0,6.4-2.2,8.9-4.7c2.6-2.6,4-6.3,4-9.7C90.6,156.8,89.2,153.3,86.8,151z M85.1,168.3
				c-2.2,2.2-4.9,4.1-7.5,4.1H25.4c-6.1,0-10-6.1-10.2-11.3c-0.1-2.4,0.9-5.5,2.8-7.5c2.1-2.2,5.1-4.2,7.8-4.2h1v-0.8
				c-0.1-2.5,1-4.9,3.1-7c2.1-2.2,4.9-3.1,7.5-3.1h4l0.1-1.2c0.6-5.8,5.6-9,10.2-9c2.3,0,9.7,0.8,10.6,8.1l0.1,1.1h3.5
				c5.8,0,10,5.9,10.3,11.4v0.9l1-0.1c3.2-0.2,6.1,0.9,8.2,2.9c2,1.9,3.1,4.9,3.2,7.6C88.6,162.9,87.3,166.1,85.1,168.3z"/>
			<polygon fill="#FFFFFF" points="52.5,164.1 52.5,136.5 50.5,136.5 50.5,163.9 42.1,155.5 40.7,156.9 51.6,167.9 62.9,156.6 
				61.4,155.2 			"/>
		</g>
		<g opacity="0.35">
			<path fill="#FFFFFF" d="M104.7,53.2c-1.7-1.6-3.9-2.5-6.3-2.6c-0.5-4.5-4-9.2-8.8-9.2h-1.3c-0.9-5-5.2-6.7-9-6.7
				c-4.3,0-8,2.7-8.7,6.7H69c-2.3,0-4.6,1.5-6.4,3.4c-1.6,1.7-2.5,3.9-2.6,5.9c-2.2,0.2-4.3,1.4-6,3.1c-1.7,1.8-2.5,3.6-2.4,5.8
				c0.2,5.1,4.1,8.8,8.8,8.8h37.7c2.3,0,4.6-0.7,6.4-2.6c1.9-1.9,2.9-4.2,2.9-6.6C107.5,57,106.5,54.8,104.7,53.2z M103.5,65.1
				c-1.6,1.6-3.5,2.4-5.4,2.4H60.4c-4.4,0-7.2-3.8-7.4-7.6c-0.1-1.7,0.6-3.9,2-5.4c1.5-1.6,3.7-3,5.6-3h0.8v-0.3
				c-0.1-1.8,0.7-3.7,2.2-5.3s3.5-2.4,5.4-2.4h2.9L72,43c0.4-4.2,4-6.3,7.4-6.3c1.6,0,7,0.2,7.7,5.4l0.1,0.4h2.5
				c4.2,0,7.2,4.7,7.4,8.7v0.9h0.7c2.3-0.1,4.4,0.7,5.9,2.1c1.4,1.4,2.3,3.3,2.3,5.2C106,61.5,105.1,63.5,103.5,65.1z"/>
			<polygon fill="#FFFFFF" points="79.5,62.7 79.5,41.5 77.5,41.5 77.5,62.5 71.9,56.4 71.2,57.5 79.2,65.4 87.4,57.2 86.2,56.2 			
				"/>
		</g>
		<g opacity="0.32">
			<path fill="#FFFFFF" d="M398.8,76.6c-2.1-2-4.8-3.5-7.8-3.5c-0.6-5.6-5-11.7-10.9-11.7h-1.6c-1.2-6-6.4-7.8-11.1-7.8
				c-5.4,0-9.9,3.8-10.8,8.8h-2c-2.8,0-5.7,1.7-8,4c-2,2-3.1,4.7-3.3,7.2c-2.7,0.2-5.4,1.7-7.4,3.8c-2.1,2.2-3.2,5-3,7.6
				c0.3,6.3,5.1,11.3,10.9,11.3h46.7c2.8,0,5.7-1.4,8-3.6c2.3-2.3,3.6-5.4,3.6-8.4C402.2,81.6,400.9,78.7,398.8,76.6z M397.3,91.5
				c-1.9,1.9-4.4,3-6.7,3h-46.7c-5.5,0-8.9-4.8-9.2-9.5c-0.1-2.2,0.8-4.9,2.5-6.8c1.9-2,4.5-3.8,7-3.8h0.9v-0.3
				c-0.1-2.3,0.9-4.6,2.8-6.6s4.4-3.1,6.7-3.1h3.5l0.1-0.6c0.5-5.2,5-7.8,9.1-7.8c2,0,8.7,0.3,9.5,6.8l0.1,0.6h3.1
				c5.1,0,9,5.8,9.2,10.7v1h0.9c2.8-0.1,5.4,0.8,7.3,2.7c1.8,1.7,2.8,4.1,2.8,6.5C400.4,86.9,399.2,89.5,397.3,91.5z"/>
			<polygon fill="#FFFFFF" points="368.5,88.4 368.5,62.5 366.5,62.5 366.5,88.2 358.9,80.7 357.6,81.9 367.4,91.7 377.4,81.6 
				376.3,80.4 			"/>
		</g>
		<g opacity="0.23">
			<path fill="#FFFFFF" d="M138.9,1c-0.1-1.3-0.5-2.6-0.9-3.8h-2.4c0.6,1.6,1,3.3,1.1,4.9l0.1,1.2h1.2c3.6-0.2,7,1,9.5,3.4
				c2.3,2.2,3.6,5.5,3.6,8.6c0,3.3-1.4,6.8-4,9.3c-2.5,2.5-5.6,4.4-8.7,4.4H77.9c-7.1,0-11.6-6.7-11.8-12.7c-0.1-2.8,1-5.9,3.3-8.2
				c2.5-2.6,5.9-4.4,9-4.4h1.2l-0.1-1.2c-0.1-1.8,0.4-3.6,1.4-5.3h-2.5c-0.7,1.5-1.1,3-1.2,4.5c-3.5,0.3-7,1.9-9.6,4.7
				c-2.7,2.8-4.1,6.5-3.9,9.9C64.1,24.4,70.4,31,77.9,31h60.4c3.6,0,7.4-2,10.3-4.9c3-3,4.7-7.1,4.7-10.9s-1.6-7.6-4.4-10.2
				C146.2,2.4,142.7,1.1,138.9,1z"/>
			<polygon fill="#FFFFFF" points="109.5,20.2 109.5,-2.8 106.4,-2.8 106.4,19.9 97,10.2 95.5,11.8 108.2,24.4 121.2,11.4 
				119.7,9.8 			"/>
		</g>
		<g opacity="0.28">
			<path fill="#FFFFFF" d="M43.5,53.3c-0.9-0.9-2.1-1.6-3.5-1.6c-0.3-2.5-2.2-5.2-4.9-5.2h-0.7c-0.5-3-2.9-3.7-5-3.7
				c-2.4,0-4.4,1.7-4.8,3.7h-0.9c-1.3,0-2.6,1-3.6,2.1c-0.9,0.9-1.4,2.2-1.5,3.4c-1.2,0.1-2.4,0.8-3.3,1.8c-0.9,1-1.4,1.9-1.4,3.1
				c0.1,2.8,2.3,4.7,4.9,4.7h20.8c1.3,0,2.5-0.3,3.6-1.3c1-1,1.6-2.2,1.6-3.6C45,55.3,44.5,54.2,43.5,53.3z M42.9,59.5
				c-0.9,0.9-1.9,1-3,1H19c-2.4,0-4-1.7-4.1-3.8c0-1,0.4-1.9,1.1-2.7c0.9-0.9,2-1.4,3.1-1.4h0.4v-0.2c0-1,0.4-2.3,1.2-3.2
				c0.8-0.9,2-1.6,3-1.6h1.6v-0.1c0.2-2.3,2.2-3.4,4.1-3.4c0.9,0,3.9,0.2,4.2,3.1v0.3H35c2.3,0,4,2.6,4.1,4.8v0.5h0.4
				c1.3-0.1,2.4,0.4,3.3,1.2c0.8,0.8,1.3,1.6,1.3,2.7C44.2,57.7,43.7,58.6,42.9,59.5z"/>
			<polygon fill="#FFFFFF" points="29.5,58.5 29.5,46.5 28.5,46.5 28.5,58.4 25.4,55.1 25,55.7 29.4,60 33.9,55.5 33.2,55 			"/>
		</g>
		<g opacity="0.34">
			<path fill="#FFFFFF" d="M759.7,114.7c-3.5-3.3-8.1-5.2-13-5.3c-1.1-9.4-8.3-18.9-18.3-18.9h-2.7c-1.9-11-10.8-12.8-18.7-12.8
				c-9,0-16.5,5.8-18,14.8h-3.3c-4.7,0-9.6,2.1-13.4,6c-3.3,3.4-5.2,7.6-5.5,11.7c-4.5,0.4-9,2.6-12.4,6.2
				c-3.5,3.6-5.3,8.5-5.1,12.9c0.5,10.5,8.5,19.2,18.3,19.2H746c4.7,0,9.6-2.6,13.3-6.4c3.8-3.8,6-9.2,6-14.1
				C765.3,123,763.3,118.1,759.7,114.7z M757.2,139.9c-3.2,3.2-7.3,5.5-11.2,5.5h-78.2c-9.2,0-15-8.5-15.3-16.3
				c-0.2-3.6,1.3-7.3,4.2-10.3c3.2-3.4,7.6-5.4,11.7-5.4h1.6l-0.1-1.8c-0.2-3.8,1.5-7.8,4.6-11c3.2-3.3,7.3-5.2,11.2-5.2h5.9
				l0.1-1.6c0.9-8.7,8.3-13.3,15.2-13.3c3.4,0,14.5,0.8,15.9,11.7l0.2,1.2h5.2c8.6,0,15,9.2,15.4,17.5l0.1,1.5l1.5-0.1
				c4.7-0.2,9.1,1.3,12.3,4.4c3,2.9,4.7,7,4.7,11.1C762.4,132.1,760.5,136.6,757.2,139.9z"/>
			<polygon fill="#FFFFFF" points="707.5,134.3 707.5,92.5 704.5,92.5 704.5,133.9 692.3,121.4 690.4,123.5 706.9,139.9 723.8,123 
				721.3,120.9 			"/>
		</g>
		<g opacity="0.13">
			<path fill="#FFFFFF" d="M686,81.4c-2.7-2.6-6.3-4.6-10.2-4.6c-0.8-7.4-6.5-15.3-14.3-15.3h-2.1c-1.5-8-8.5-9.9-14.6-9.9
				c-7,0-12.9,4.9-14.1,11.9H628c-3.7,0-7.5,1.9-10.5,5c-2.6,2.7-4.1,6.1-4.3,9.3c-3.5,0.3-7.1,2.1-9.7,4.9c-2.7,2.8-4.1,7-4,10.4
				c0.4,8.3,6.7,15.3,14.4,15.3h61.3c3.7,0,7.5-2.3,10.5-5.3s4.7-7.3,4.7-11.2C690.5,88.2,688.9,84.1,686,81.4z M684.1,101.7
				c-2.5,2.5-5.7,4.8-8.8,4.8H614c-7.2,0-11.8-7.1-12-13.2c-0.1-2.8,1.1-6.4,3.3-8.8c2.5-2.6,5.9-4.9,9.2-4.9h1.2l-0.1-0.9
				c-0.1-3,1.2-6.3,3.6-8.9c2.5-2.6,5.8-4.3,8.8-4.3h4.7l0.1-0.8c0.7-6.8,6.5-10.2,12-10.2c2.6,0,11.4,0.5,12.5,9.1l0.1,0.9h4.1
				c6.8,0,11.8,7.4,12.1,13.9l0.1,1.3h1.2c3.7-0.2,7.1,1.1,9.6,3.5c2.3,2.2,3.7,5.7,3.7,8.9C688.1,95.3,686.7,99.1,684.1,101.7z"/>
			<polygon fill="#FFFFFF" points="645.5,96.9 645.5,63.5 643.5,63.5 643.5,96.6 633.6,86.7 631.9,88.4 644.7,101.2 658,88 
				656.2,86.3 			"/>
		</g>
		<g opacity="0.34">
			<path fill="#FFFFFF" d="M502.3,39.6c-1.4-1.3-3.3-2.2-5.3-2.3c-0.4-3.8-3.4-7.8-7.5-7.8h-1.1c-0.8-4-4.4-5.2-7.6-5.2
				c-3.7,0-6.7,2.2-7.4,6.2h-1.3c-1.9,0-3.9,0.9-5.5,2.5c-1.3,1.4-2.1,3.1-2.2,4.8c-1.8,0.2-3.7,1.1-5.1,2.5c-1.4,1.5-2.2,3-2.1,4.8
				c0.2,4.3,3.5,7.4,7.5,7.4h31.9c1.9,0,3.9-0.6,5.4-2.2c1.6-1.6,2.5-3.5,2.5-5.6C504.6,42.8,503.7,41,502.3,39.6z M501.3,49.5
				c-1.3,1.3-3,1.9-4.6,1.9h-31.9c-3.7,0-6.1-3.1-6.3-6.3c-0.1-1.5,0.6-3.1,1.7-4.3c1.3-1.4,3.1-2.3,4.8-2.3h0.6v-0.4
				c-0.1-1.6,0.6-3.2,1.9-4.5c1.3-1.4,3-2.1,4.6-2.1h2.4l0.1-0.5c0.4-3.6,3.4-5.4,6.2-5.4c1.4,0,5.9,0.1,6.5,4.6l0.1,0.3h2.1
				c3.5,0,6.1,4,6.3,7.4v0.7h0.6c1.9-0.1,3.7,0.6,5,1.8c1.2,1.2,1.9,2.7,1.9,4.4C503.4,46.5,502.6,48.2,501.3,49.5z"/>
			<polygon fill="#FFFFFF" points="481.5,47.6 481.5,30.5 479.5,30.5 479.5,47.4 474.6,42.3 473.9,43.2 480.7,49.9 487.6,43 
				486.9,42.1 			"/>
		</g>
		<g opacity="0.32">
			<path fill="#FFFFFF" d="M679,123.2c-2.1-2-4.8-2.7-7.8-2.8c-0.6-5.6-5-10.9-10.9-10.9h-1.6c-1.2-7-6.4-7.8-11.1-7.8
				c-5.4,0-9.9,3.8-10.8,8.8h-2c-2.8,0-5.7,1-8,3.3c-2,2-3.1,4.4-3.3,6.9c-2.7,0.2-5.4,1.5-7.4,3.6c-2.1,2.2-3.2,5.1-3,7.7
				c0.3,6.3,5.1,11.5,10.9,11.5h46.7c2.8,0,5.7-1.6,8-3.9c2.3-2.3,3.6-5.5,3.6-8.5C682.4,128.2,681.2,125.2,679,123.2z M677.5,138.2
				c-1.9,1.9-4.4,3.2-6.7,3.2h-46.7c-5.5,0-8.9-5-9.2-9.7c-0.1-2.2,0.8-4.3,2.5-6.1c1.9-2,4.5-3.2,7-3.2h0.9v-1.1
				c-0.1-2.3,0.9-4.3,2.8-6.2c1.9-2,4.4-2.7,6.7-2.7h3.5l0.1-1.3c0.5-5.2,5-8.2,9.1-8.2c2,0,8.7,0.8,9.5,7.3l0.1,1.1h3.1
				c5.1,0,9,5.1,9.2,10v0.7l0.9-0.2c2.8-0.1,5.4,0.7,7.3,2.6c1.8,1.7,2.8,4.1,2.8,6.6C680.6,133.6,679.5,136.3,677.5,138.2z"/>
			<polygon fill="#FFFFFF" points="648.5,134.9 648.5,110.5 646.5,110.5 646.5,134.7 639,127.2 637.8,128.5 647.6,138.2 
				657.6,128.2 656.4,126.9 			"/>
		</g>
		<g opacity="0.34">
			<path fill="#FFFFFF" d="M590.7,136.9c-3.5-3.3-8.1-4.8-13-4.9c-1.1-9.4-8.3-18.5-18.3-18.5h-2.7c-1.9-11-10.8-12.8-18.7-12.8
				c-9,0-16.5,5.8-18,14.8h-3.3c-4.7,0-9.6,1.7-13.4,5.6c-3.3,3.4-5.2,7.4-5.5,11.5c-4.5,0.4-9,2.5-12.4,6.1
				c-3.5,3.6-5.3,8.8-5.1,13.3c0.5,10.5,8.5,19.5,18.3,19.5H577c4.7,0,9.6-3,13.3-6.8c3.8-3.8,6-9.3,6-14.3
				C596.4,145.5,594.3,140.3,590.7,136.9z M588.2,162.6c-3.2,3.2-7.3,5.9-11.2,5.9h-78.2c-9.2,0-15-8.9-15.3-16.7
				c-0.2-3.6,1.3-7.6,4.2-10.6c3.2-3.4,7.6-5.7,11.7-5.7h1.6l-0.1-1.7c-0.2-3.8,1.5-7.3,4.6-10.6c3.2-3.3,7.3-4.7,11.2-4.7h5.9
				l0.1-1.9c0.9-8.7,8.3-13.5,15.2-13.5c3.4,0,14.5,1,15.9,12l0.2,1.5h5.2c8.6,0,15,8.9,15.4,17.1l0.1,1.3l1.5-0.2
				c4.7-0.2,9.1,1.3,12.3,4.3c3,2.9,4.7,7.2,4.7,11.2C593.4,154.6,591.5,159.3,588.2,162.6z"/>
			<polygon fill="#FFFFFF" points="540.5,156.6 540.5,115.5 537.5,115.5 537.5,156.2 524.4,143.6 522,145.7 538.2,162.1 555,145.2 
				553.4,143.1 			"/>
		</g>
		<g opacity="0.13">
			<path fill="#FFFFFF" d="M517.1,103.7c-2.7-2.6-6.3-4.2-10.2-4.3c-0.8-7.4-6.5-15-14.3-15h-2.1c-1.5-9-8.5-9.9-14.6-9.9
				c-7,0-12.9,3.9-14.1,11.9h-2.6c-3.7,0-7.5,1.5-10.5,4.6c-2.6,2.7-4.1,5.9-4.3,9.2c-3.5,0.3-7.1,2-9.7,4.8
				c-2.7,2.8-4.1,6.8-4,10.3c0.4,8.3,6.7,15.2,14.4,15.2h61.3c3.7,0,7.5-2.2,10.5-5.1c3-3,4.7-7.2,4.7-11.2
				C521.5,110.3,519.9,106.4,517.1,103.7z M515.1,123.8c-2.5,2.5-5.7,4.6-8.8,4.6H445c-7.2,0-11.8-7-12-13.1c-0.1-2.8,1.1-6,3.3-8.4
				c2.5-2.6,5.9-4.5,9.2-4.5h1.2l-0.1-1.3c-0.1-3,1.2-6.1,3.6-8.7c2.5-2.6,5.8-4.1,8.8-4.1h4.7l0.1-1.1c0.7-6.8,6.5-10.4,12-10.4
				c2.6,0,11.4,0.8,12.5,9.4l0.1,1.2h4.1c6.8,0,11.8,7.1,12.1,13.5l0.1,1.1l1.2-0.1c3.7-0.2,7.1,1,9.6,3.4c2.3,2.2,3.7,5.7,3.7,8.8
				C519.2,117.6,517.7,121.3,515.1,123.8z"/>
			<polygon fill="#FFFFFF" points="476.5,119.1 476.5,86.5 474.5,86.5 474.5,118.8 464.6,109 462.9,110.6 475.8,123.5 489,110.2 
				487.2,108.6 			"/>
		</g>
		<g opacity="0.34">
			<path fill="#FFFFFF" d="M660.9,168.6c-2-1.9-4.6-3.1-7.4-3.2c-0.6-5.4-4.8-11-10.4-11h-1.5c-1.1-5-6.2-6.9-10.7-6.9
				c-5.1,0-9.4,3.9-10.3,8.9h-1.9c-2.7,0-5.5,0.9-7.6,3.2c-1.9,2-3,4.2-3.1,6.6c-2.6,0.2-5.1,1.4-7.1,3.5s-3,5.1-2.9,7.6
				c0.3,6,4.9,11.2,10.5,11.2H653c2.7,0,5.5-1.7,7.6-3.9c2.2-2.2,3.5-5.4,3.5-8.2C664.1,173.6,662.9,170.6,660.9,168.6z
				 M659.4,183.2c-1.8,1.8-4.2,3.3-6.4,3.3h-44.7c-5.2,0-8.6-5-8.8-9.4c-0.1-2.1,0.8-4,2.4-5.7c1.8-1.9,4.3-2.9,6.7-2.9h0.9v-1.3
				c-0.1-2.2,0.9-4.7,2.6-6.5c1.8-1.9,4.2-3.2,6.4-3.2h3.4l0.1-0.8c0.5-5,4.8-7.6,8.7-7.6c1.9,0,8.3,0.4,9.1,6.7l0.1,0.7h3
				c4.9,0,8.6,5.3,8.8,10v0.9h0.9c2.7-0.1,5.2,0.8,7,2.5c1.7,1.6,2.7,4.1,2.7,6.4C662.4,178.7,661.3,181.3,659.4,183.2z"/>
			<polygon fill="#FFFFFF" points="631.5,179.9 631.5,156.5 629.5,156.5 629.5,179.7 622.5,172.5 621.3,173.7 630.7,183.1 
				640.4,173.4 639.2,172.2 			"/>
		</g>
		<g opacity="0.34">
			<path fill="#FFFFFF" d="M595.7,181.4c-2.3-2.2-5.4-2.8-8.7-2.9c-0.7-6.3-5.6-12-12.2-12H573c-1.3-8-7.2-8.7-12.5-8.7
				c-6,0-11,2.7-12,9.7h-2.2c-3.2,0-6.4,0.9-8.9,3.5c-2.2,2.3-3.5,4.8-3.6,7.6c-3,0.3-6,1.6-8.3,4s-3.5,5.9-3.4,8.8
				c0.3,7,5.7,13,12.2,13h52.2c3.1,0,6.4-2,8.9-4.5c2.6-2.6,4-6.2,4-9.6C599.4,187.1,598.1,183.6,595.7,181.4z M594,198.5
				c-2.2,2.2-4.9,4-7.5,4h-52.2c-6.1,0-10-6-10.2-11.2c-0.1-2.4,0.9-5,2.8-7.1c2.1-2.2,5.1-3.8,7.8-3.8h1v-1.1
				c-0.1-2.5,1-4.7,3.1-6.9s4.9-3,7.5-3h4l0.1-1.5c0.6-5.8,5.6-9.1,10.2-9.1c2.3,0,9.7,1,10.6,8.3l0.1,1.3h3.5
				c5.8,0,10,5.5,10.3,11.1v0.7l1-0.2c3.2-0.2,6.1,0.8,8.2,2.9c2,1.9,3.1,4.8,3.2,7.5C597.4,193.2,596.2,196.3,594,198.5z"/>
			<polygon fill="#FFFFFF" points="562.5,194.5 562.5,167.5 560.5,167.5 560.5,194.2 551.5,185.9 549.8,187.3 560.6,198.2 
				571.8,186.9 570.9,185.5 			"/>
		</g>
		<g opacity="0.35">
			<path fill="#FFFFFF" d="M613.6,83.6c-1.7-1.6-3.9-2.7-6.3-2.8c-0.5-4.5-4-9.3-8.8-9.3h-1.3c-0.9-5-5.2-6.7-9-6.7
				c-4.3,0-8,2.7-8.7,6.7h-1.6c-2.3,0-4.6,1.7-6.4,3.6c-1.6,1.7-2.5,4-2.6,6c-2.2,0.2-4.3,1.4-6,3.1c-1.7,1.8-2.5,4-2.4,6.1
				c0.2,5.1,4.1,9.1,8.8,9.1H607c2.3,0,4.6-1.1,6.4-2.9c1.9-1.9,2.9-4.3,2.9-6.7C616.3,87.5,615.3,85.2,613.6,83.6z M612.4,95.8
				c-1.6,1.6-3.5,2.7-5.4,2.7h-37.7c-4.4,0-7.2-4.1-7.4-7.9c-0.1-1.7,0.6-4.3,2-5.7c1.5-1.6,3.7-3.4,5.6-3.4h0.8v-0.1
				c-0.1-1.8,0.7-3.8,2.2-5.4s3.5-2.5,5.4-2.5h2.9l0.1-0.3c0.4-4.2,4-6.2,7.4-6.2c1.6,0,7,0,7.7,5.3l0.1,0.3h2.5
				c4.2,0,7.2,4.9,7.4,8.9v1l0.7,0.1c2.3-0.1,4.4,0.7,5.9,2.2c1.4,1.4,2.3,3.4,2.3,5.4C614.9,92,614,94.2,612.4,95.8z"/>
			<polygon fill="#FFFFFF" points="589.5,93 589.5,71.5 587.5,71.5 587.5,92.9 581.4,86.8 580.3,87.8 588.2,95.7 596.3,87.6 
				595.6,86.5 			"/>
		</g>
		<g opacity="0.32">
			<path fill="#FFFFFF" d="M510.1,162.6c-2.1-2-4.8-3-7.8-3c-0.6-5.6-5-11.2-10.9-11.2h-1.6c-1.2-6-6.4-7.8-11.1-7.8
				c-5.4,0-9.9,3.8-10.8,8.8h-2c-2.8,0-5.7,1.2-8,3.5c-2,2-3.1,4.5-3.3,7c-2.7,0.2-5.4,1.6-7.4,3.7c-2.1,2.2-3.2,5.4-3,8
				c0.3,6.3,5.1,11.8,10.9,11.8h46.7c2.8,0,5.7-1.9,8-4.1c2.3-2.3,3.6-5.6,3.6-8.6C513.4,167.8,512.2,164.7,510.1,162.6z
				 M508.6,177.9c-1.9,1.9-4.4,3.5-6.7,3.5h-46.7c-5.5,0-8.9-5.3-9.2-10c-0.1-2.2,0.8-4.7,2.5-6.5c1.9-2,4.5-3.5,7-3.5h0.9v-0.8
				c-0.1-2.3,0.9-4.4,2.8-6.3c1.9-2,4.4-2.8,6.7-2.8h3.5l0.1-1.1c0.5-5.2,5-8,9.1-8c2,0,8.7,0.7,9.5,7.2l0.1,0.9h3.1
				c5.1,0,9,5.3,9.2,10.2v0.8l0.9-0.1c2.8-0.1,5.4,0.8,7.3,2.6c1.8,1.7,2.8,4.3,2.8,6.7C511.7,173.2,510.5,176,508.6,177.9z"/>
			<polygon fill="#FFFFFF" points="479.5,174.4 479.5,149.5 477.5,149.5 477.5,174.1 470,166.6 468.8,167.9 478.6,177.7 
				488.7,167.6 487.5,166.3 			"/>
		</g>
		<g opacity="0.23">
			<path fill="#FFFFFF" d="M657.8,35.3c-2.7-2.6-6.2-4.1-10.1-4.2c-0.8-7.2-6.4-14.7-14.1-14.7h-2c-1.5-8-8.3-9.7-14.4-9.7
				c-6.9,0-12.7,4.7-13.9,11.7h-2.5c-3.6,0-7.4,1.4-10.3,4.5c-2.5,2.7-4,5.8-4.2,9c-3.5,0.3-7,2-9.6,4.7c-2.7,2.8-4.1,6.1-3.9,9.5
				c0.4,8.1,6.6,14.3,14.2,14.3h60.4c3.6,0,7.4-1.5,10.3-4.5c3-3,4.7-6.8,4.7-10.7C662.2,41.6,660.6,38,657.8,35.3z M655.9,54.5
				c-2.5,2.5-5.6,3.9-8.7,3.9h-60.4c-7.1,0-11.6-6.3-11.8-12.3c-0.1-2.8,1-5.9,3.3-8.3c2.5-2.6,5.9-4.4,9-4.4h1.2l-0.1-0.9
				c-0.1-2.9,1.2-5.8,3.6-8.3c2.4-2.6,5.7-3.8,8.7-3.8h4.6l0.1-1.2c0.7-6.7,6.4-10.3,11.8-10.3c2.6,0,11.2,0.3,12.3,8.8l0.1,0.7h4.1
				c6.6,0,11.6,7.4,11.9,13.8l0.1,1.3h1.2c3.6-0.2,7,1.1,9.5,3.4c2.3,2.2,3.6,5.3,3.6,8.4C659.8,48.6,658.4,52,655.9,54.5z"/>
			<polygon fill="#FFFFFF" points="618.5,50.5 618.5,18.5 615.5,18.5 615.5,50.2 605.9,40.5 604.4,42.1 617.1,54.8 630.1,41.8 
				628.7,40.1 			"/>
		</g>
		<g opacity="0.28">
			<path fill="#FFFFFF" d="M552.4,83.6c-0.9-0.9-2.1-1.7-3.5-1.8c-0.3-2.5-2.2-5.4-4.9-5.4h-0.7c-0.5-3-2.9-3.7-5-3.7
				c-2.4,0-4.4,1.7-4.8,3.7h-0.9c-1.3,0-2.6,1.2-3.6,2.2c-0.9,0.9-1.4,2.3-1.5,3.4c-1.2,0.1-2.4,0.9-3.3,1.8c-0.9,1-1.4,2.2-1.4,3.4
				c0.1,2.8,2.3,5.1,4.9,5.1h20.8c1.3,0,2.5-0.6,3.6-1.6c1-1,1.6-2.4,1.6-3.7C553.9,85.8,553.4,84.6,552.4,83.6z M551.7,90.2
				c-0.9,0.9-1.9,1.3-3,1.3h-20.8c-2.4,0-4-2.1-4.1-4.2c0-1,0.4-1.8,1.1-2.6c0.9-0.9,2-1.3,3.1-1.3h0.4v-0.5c0-1,0.4-2.6,1.2-3.5
				s2-1.9,3-1.9h1.6v0.1c0.2-2.3,2.2-3.3,4.1-3.3c0.9,0,3.9,0.1,4.2,3v0.2h1.4c2.3,0,4,2.7,4.1,4.9v0.5h0.4c1.3-0.1,2.4,0.4,3.3,1.2
				c0.8,0.8,1.3,1.8,1.3,2.9C553.1,88.2,552.6,89.3,551.7,90.2z"/>
			<polygon fill="#FFFFFF" points="539.5,88.9 539.5,76.5 538.5,76.5 538.5,88.8 534.8,85.4 534.1,86 538.4,90.4 542.9,85.9 
				542.7,85.3 			"/>
		</g>
		<g opacity="0.34">
			<path fill="#FFFFFF" d="M446.9,176.3c-2.3-2.2-5.4-3.3-8.7-3.4c-0.7-6.3-5.6-12.5-12.2-12.5h-1.8c-1.3-7-7.2-8.7-12.5-8.7
				c-6,0-11,3.7-12,9.7h-2.2c-3.2,0-6.4,1.4-8.9,4c-2.2,2.3-3.5,5.1-3.6,7.8c-3,0.3-6,1.8-8.3,4.1c-2.3,2.4-3.5,6-3.4,8.9
				c0.3,7,5.7,13.1,12.2,13.1h52.2c3.1,0,6.4-2,8.9-4.6c2.6-2.6,4-6.3,4-9.6C450.7,182.1,449.3,178.6,446.9,176.3z M445.3,193.5
				c-2.2,2.2-4.9,4-7.5,4h-52.2c-6.1,0-10-6-10.2-11.2c-0.1-2.4,0.9-5,2.8-7.1c2.1-2.2,5.1-3.7,7.8-3.7h1v-1.2
				c-0.1-2.5,1-4.7,3.1-6.9s4.9-3,7.5-3h4l0.1-1.5c0.6-5.8,5.6-9.2,10.2-9.2c2.3,0,9.7,0.5,10.6,7.8l0.1,0.8h3.5
				c5.8,0,10,6,10.3,11.5v0.9l1-0.1c3.2-0.2,6.1,0.9,8.2,2.9c2,1.9,3.1,4.8,3.2,7.5C448.7,188.1,447.5,191.3,445.3,193.5z"/>
			<polygon fill="#FFFFFF" points="412.5,189.4 412.5,161.5 410.5,161.5 410.5,189.2 402.1,180.8 400.8,182.2 411.7,193.2 
				423,181.9 421.5,180.5 			"/>
		</g>
		<g opacity="0.35">
			<path fill="#FFFFFF" d="M464.9,61.3c-1.7-1.6-3.9-2.6-6.3-2.6c-0.5-4.5-4-9.2-8.8-9.2h-1.3c-0.9-5-5.2-6.7-9-6.7
				c-4.3,0-8,2.7-8.7,6.7h-1.6c-2.3,0-4.6,1.6-6.4,3.5c-1.6,1.7-2.5,3.9-2.6,5.9c-2.2,0.2-4.3,1.4-6,3.1c-1.7,1.8-2.5,3.6-2.4,5.7
				c0.2,5.1,4.1,8.8,8.8,8.8h37.7c2.3,0,4.6-0.7,6.4-2.5c1.9-1.9,2.9-4.1,2.9-6.5S466.6,62.9,464.9,61.3z M463.7,73.1
				c-1.6,1.6-3.5,2.3-5.4,2.3h-37.7c-4.4,0-7.2-3.8-7.4-7.5c-0.1-1.7,0.6-4,2-5.4c1.5-1.6,3.7-3,5.6-3h0.8v-0.2
				c-0.1-1.8,0.7-3.7,2.2-5.3s3.5-2.5,5.4-2.5h2.9l0.1-0.5c0.4-4.2,4-6.3,7.4-6.3c1.6,0,7,0.1,7.7,5.4l0.1,0.4h2.5
				c4.2,0,7.2,4.8,7.4,8.7v0.9h0.7c2.3-0.1,4.4,0.7,5.9,2.2c1.4,1.4,2.3,3.2,2.3,5.2C466.2,69.5,465.3,71.6,463.7,73.1z"/>
			<polygon fill="#FFFFFF" points="439.5,70.8 439.5,49.5 437.5,49.5 437.5,70.6 432,64.5 431.3,65.6 439.3,73.5 447.5,65.3 
				446.2,64.3 			"/>
		</g>
	</g>
</g>
<g id="Layer_5">
</g>
<g id="Layer_6">
	<g id="Layer_7">
	</g>
</g>
<g id="Layer_8">
</g>
<g id="Layer_9">
</g>
</svg>
