<svg id="Layer_1" data-name="Layer 1" xmlns="http://www.w3.org/2000/svg" width="1522.37" height="837.92" viewBox="0 0 1522.37 837.92"><path d="M-38.69,528" transform="translate(0.01 -0.01)" fill="#f7f9fd"/><path d="M1518.31,226.3l-10.4-26.8A82,82,0,0,0,1481,166.64c-21.61-15.61-46.24-24.69-73.18-24.9a78.74,78.74,0,0,0-3.87-18.65,51.53,51.53,0,0,0-10.41-26.79,81.81,81.81,0,0,0-26.93-32.91c-24.23-17.5-53-27.41-84.1-24.45-24.06,2.32-48.14,4.46-72.22,6.59-1.6-1.44-3.3-2.86-5-4.2L1180.5,26.39a117.64,117.64,0,0,0-46.86-10h.16C1039.4,13.1,821.08,8.74,726.68,5.54,673.49,3.77,540.26,2,487,.13,471.08-.76,457,3.22,442.46,8.64,429.73,13.34,415.6,20,405,30.49,390.46,49.39,388.08,62,385.64,69.06q-35,2.77-70,5.57a90,90,0,0,0-43.26,13.51c-13.61,5.57-25.58,27.49-34.8,38.94a83.16,83.16,0,0,0-12.1,16.3c-47.13,7-14.1,1.58-60.88,10.19a90.23,90.23,0,0,0-43.29,13.5,87,87,0,0,0-34.8,26A81.67,81.67,0,0,0,66.08,230.3a79.47,79.47,0,0,0-6,42.94,126.64,126.64,0,0,0,11.24,37.9A85.35,85.35,0,0,0,38,332.85a83.66,83.66,0,0,0-26.7,33.39c-3.08,9-6.07,18.08-9.15,27.12a79.46,79.46,0,0,0,2,43.68,51.66,51.66,0,0,0,10.4,26.8,82,82,0,0,0,26.93,32.91,132.74,132.74,0,0,0,45.25,21.43A80.86,80.86,0,0,0,74.18,545.7a79.44,79.44,0,0,0-6,42.93,129.4,129.4,0,0,0,10.29,36A80.85,80.85,0,0,0,65,653.54a79.47,79.47,0,0,0-6,42.94c4,28.14,16.38,56.52,40.72,74.11,8.3,5,16.49,9.93,24.78,14.94A118.3,118.3,0,0,0,183.81,795c33,.11,66-.23,98.95-1.24a89.5,89.5,0,0,0,19.29,19.08l24.78,14.94a118.15,118.15,0,0,0,59.25,9.55c54.76-.6,109.47-1.75,164.11-3.73q79.9-2.91,159.74-8.72,84.3-6.12,168.42-15.29c64.55-7,157.31,17.6,221.7,8.85,77.15-10.49,112.07-4,189-15.77,11-1.67,58-20.49,68.91-22.25,15.87-.9,28.67-27.66,41.62-35.75s4.82-25.37,14.22-37c5.33-7.94,10.58-15.79,15.92-23.73a79.19,79.19,0,0,0,9.84-41.8,52.87,52.87,0,0,0-2.68-29,78.76,78.76,0,0,0-17.34-39.29,138.16,138.16,0,0,0-20-19.95,83.36,83.36,0,0,0,12.54-10.81,83.65,83.65,0,0,0,26.67-33.39c3.08-9,6.07-18.07,9.15-27.11a79.5,79.5,0,0,0-2-43.69,51.66,51.66,0,0,0-10.4-26.79,82,82,0,0,0-26.93-32.91c-4.67-2.83-9.33-5.66-14.1-8.48,17.38-5.8,34.86-11.51,52.38-16.86a88.07,88.07,0,0,0,37.23-23.19,83.65,83.65,0,0,0,26.67-33.39c3.08-9,6.06-18.07,9.14-27.11A76.65,76.65,0,0,0,1518.31,226.3Z" transform="translate(0.01 -0.01)" fill="#f7f9fd"/></svg>