<svg xmlns="http://www.w3.org/2000/svg" xmlns:xlink="http://www.w3.org/1999/xlink" width="2300.16" height="160.79" viewBox="0 0 2300.16 160.79"><defs><linearGradient id="a" x1="139.44" y1="126.7" x2="181.6" y2="126.7" gradientUnits="userSpaceOnUse"><stop offset="0" stop-color="#0971b7" stop-opacity="0.75"/><stop offset="1" stop-color="#60bcd8"/></linearGradient><linearGradient id="b" y1="47.27" x2="139.85" y2="47.27" gradientUnits="userSpaceOnUse"><stop offset="0" stop-color="#0971b7" stop-opacity="0.75"/><stop offset="1" stop-color="#9060a4"/></linearGradient><linearGradient id="c" x1="0" y1="24.13" x2="139.85" y2="24.13" xlink:href="#b"/><linearGradient id="d" x1="0" y1="1.46" x2="139.85" y2="1.46" xlink:href="#b"/><linearGradient id="e" x1="80.89" y1="20.86" x2="141.72" y2="20.86" xlink:href="#b"/><linearGradient id="f" x1="80.89" y1="10.74" x2="141.72" y2="10.74" xlink:href="#b"/><linearGradient id="g" x1="80.89" y1="1.09" x2="141.72" y2="1.09" xlink:href="#b"/><linearGradient id="h" x1="134.76" y1="18.86" x2="186.06" y2="18.86" xlink:href="#b"/><linearGradient id="i" x1="134.76" y1="10.3" x2="186.06" y2="10.3" xlink:href="#b"/><linearGradient id="j" x1="134.76" y1="2.23" x2="186.06" y2="2.23" xlink:href="#b"/><linearGradient id="k" x1="201.54" y1="47.56" x2="295.2" y2="39.16" gradientUnits="userSpaceOnUse"><stop offset="0" stop-color="#b51918"/><stop offset="1" stop-color="#ec663b" stop-opacity="0.75"/></linearGradient><linearGradient id="l" x1="199.56" y1="25.53" x2="293.22" y2="17.12" xlink:href="#k"/><linearGradient id="m" x1="197.64" y1="4.13" x2="291.3" y2="-4.28" xlink:href="#k"/><linearGradient id="n" x1="201.09" y1="77.75" x2="292.66" y2="86.3" xlink:href="#k"/><linearGradient id="o" x1="202.08" y1="67.18" x2="293.65" y2="75.74" xlink:href="#k"/><linearGradient id="p" x1="203.03" y1="56.95" x2="294.61" y2="65.5" xlink:href="#k"/><linearGradient id="q" x1="265.78" y1="17.65" x2="363.93" y2="31.89" xlink:href="#k"/><linearGradient id="r" x1="267.04" y1="8.95" x2="365.19" y2="23.19" xlink:href="#k"/><linearGradient id="s" x1="268.26" y1="0.51" x2="366.41" y2="14.75" xlink:href="#k"/><linearGradient id="t" x1="72.81" y1="64.36" x2="212.67" y2="64.36" gradientUnits="userSpaceOnUse"><stop offset="0" stop-color="#00765f" stop-opacity="0.75"/><stop offset="1" stop-color="#59b153"/></linearGradient><linearGradient id="u" x1="72.81" y1="41.22" x2="212.67" y2="41.22" xlink:href="#t"/><linearGradient id="v" x1="72.81" y1="18.56" x2="212.67" y2="18.56" xlink:href="#t"/><linearGradient id="w" x1="152.73" y1="25.95" x2="215.18" y2="25.95" xlink:href="#t"/><linearGradient id="x" x1="152.73" y1="15.56" x2="215.18" y2="15.56" xlink:href="#t"/><linearGradient id="y" x1="152.73" y1="5.64" x2="215.18" y2="5.64" xlink:href="#t"/><linearGradient id="z" x1="222.2" y1="20.23" x2="273.5" y2="20.23" xlink:href="#t"/><linearGradient id="aa" x1="222.2" y1="11.67" x2="273.5" y2="11.67" xlink:href="#t"/><linearGradient id="ab" x1="222.2" y1="3.59" x2="273.5" y2="3.59" xlink:href="#t"/><linearGradient id="ac" x1="688.19" y1="79.39" x2="641.91" y2="103.26" xlink:href="#t"/><linearGradient id="ad" x1="697.05" y1="96.56" x2="650.77" y2="120.43" xlink:href="#t"/><linearGradient id="ae" x1="711.45" y1="124.48" x2="665.17" y2="148.35" xlink:href="#t"/><linearGradient id="af" x1="13004.71" y1="12613.04" x2="13057.81" y2="12613.04" gradientTransform="translate(13239.99 13243.75) rotate(-177.79)" xlink:href="#a"/><linearGradient id="ag" x1="1004.8" y1="16.76" x2="1077.12" y2="16.76" xlink:href="#k"/><linearGradient id="ah" x1="1004.8" y1="84.33" x2="1077.12" y2="84.33" xlink:href="#k"/><linearGradient id="ai" x1="1004.8" y1="150.44" x2="1077.12" y2="150.44" xlink:href="#k"/><linearGradient id="aj" x1="1004.8" y1="114.11" x2="1077.12" y2="114.11" xlink:href="#k"/><linearGradient id="ak" x1="1004.8" y1="79.1" x2="1077.12" y2="79.1" xlink:href="#k"/><linearGradient id="al" x1="1004.8" y1="47.54" x2="1077.12" y2="47.54" xlink:href="#k"/><linearGradient id="am" x1="915.48" y1="81.29" x2="945.52" y2="81.29" xlink:href="#k"/><linearGradient id="an" x1="1106.67" y1="80.37" x2="1136.71" y2="80.37" xlink:href="#k"/><linearGradient id="ao" x1="1382.64" y1="87.67" x2="1416.65" y2="87.67" gradientUnits="userSpaceOnUse"><stop offset="0" stop-color="#f8ad1b"/><stop offset="1" stop-color="#f6e950" stop-opacity="0.75"/></linearGradient><linearGradient id="ap" x1="1393.41" y1="88.14" x2="1406.2" y2="88.14" xlink:href="#ao"/><linearGradient id="aq" x1="1320.49" y1="29.1" x2="1371.15" y2="29.1" xlink:href="#t"/><linearGradient id="ar" x1="1336.61" y1="29.57" x2="1355.35" y2="29.57" xlink:href="#t"/><linearGradient id="as" x1="1358.65" y1="133.91" x2="1429.42" y2="133.91" xlink:href="#k"/><linearGradient id="at" x1="1381.23" y1="143.72" x2="1407.15" y2="143.72" xlink:href="#k"/><linearGradient id="au" x1="1285.93" y1="17.18" x2="1319.95" y2="17.18" xlink:href="#b"/><linearGradient id="av" x1="1296.7" y1="17.66" x2="1309.49" y2="17.66" xlink:href="#b"/><linearGradient id="aw" x1="1909.61" y1="134.74" x2="1951.77" y2="134.74" xlink:href="#t"/><linearGradient id="ax" x1="1973.35" y1="134.74" x2="2015.51" y2="134.74" xlink:href="#b"/><linearGradient id="ay" x1="2037.23" y1="134.74" x2="2079.39" y2="134.74" xlink:href="#a"/><linearGradient id="az" x1="2100.97" y1="134.74" x2="2143.13" y2="134.74" xlink:href="#t"/><linearGradient id="ba" x1="-219.4" y1="7409.3" x2="-164.87" y2="7409.3" gradientTransform="matrix(0.84, 0.55, 0.55, -0.84, -1908.87, 6383.15)" xlink:href="#k"/><linearGradient id="bb" x1="-176.27" y1="7492.87" x2="-132.64" y2="7492.87" gradientTransform="matrix(0.84, 0.55, 0.55, -0.84, -1908.87, 6383.15)" xlink:href="#t"/><linearGradient id="bc" x1="-250.03" y1="7445.21" x2="-186.7" y2="7445.21" gradientTransform="matrix(0.84, 0.55, 0.55, -0.84, -1908.87, 6383.15)" xlink:href="#b"/><linearGradient id="bd" x1="1714.55" y1="80.08" x2="1781.66" y2="80.08" xlink:href="#a"/><linearGradient id="be" x1="1709.55" y1="80.22" x2="1786.43" y2="80.22" xlink:href="#b"/><linearGradient id="bf" x1="11.81" y1="126.7" x2="53.98" y2="126.7" xlink:href="#k"/><linearGradient id="bg" x1="75.55" y1="126.7" x2="117.72" y2="126.7" xlink:href="#t"/><linearGradient id="bh" x1="203.18" y1="126.7" x2="245.34" y2="126.7" xlink:href="#ao"/><linearGradient id="bi" x1="1199.66" y1="87.67" x2="1255.23" y2="87.67" xlink:href="#b"/><linearGradient id="bj" x1="1511.26" y1="72.31" x2="1561.42" y2="72.31" xlink:href="#a"/><linearGradient id="bk" x1="1542.25" y1="51.95" x2="1605.08" y2="51.95" xlink:href="#k"/><linearGradient id="bl" x1="1555.65" y1="35" x2="1593.2" y2="35" xlink:href="#k"/><linearGradient id="bm" x1="1555.65" y1="43.65" x2="1593.2" y2="43.65" xlink:href="#k"/><linearGradient id="bn" x1="1555.65" y1="52.13" x2="1593.2" y2="52.13" xlink:href="#k"/><linearGradient id="bo" x1="1522.54" y1="58.58" x2="1551.73" y2="58.58" xlink:href="#a"/><linearGradient id="bp" x1="1522.54" y1="65.29" x2="1551.73" y2="65.29" xlink:href="#a"/><linearGradient id="bq" x1="1522.54" y1="71.88" x2="1551.73" y2="71.88" xlink:href="#a"/><linearGradient id="br" x1="695.35" y1="31.24" x2="674.18" y2="54.21" xlink:href="#ao"/><linearGradient id="bs" x1="703.49" y1="38.74" x2="682.32" y2="61.71" xlink:href="#ao"/><linearGradient id="bt" x1="717.41" y1="51.57" x2="696.24" y2="74.54" xlink:href="#ao"/><linearGradient id="bu" x1="12982.13" y1="12717.85" x2="13026.4" y2="12717.85" gradientTransform="translate(13239.99 13243.75) rotate(-177.79)" xlink:href="#k"/><linearGradient id="bv" x1="1490.17" y1="100.02" x2="1514.87" y2="100.02" xlink:href="#k"/><linearGradient id="bw" x1="1490.23" y1="94.02" x2="1514.93" y2="94.02" xlink:href="#k"/><linearGradient id="bx" x1="1490.56" y1="87.96" x2="1515.25" y2="87.96" xlink:href="#k"/><linearGradient id="by" x1="1883.17" y1="42.22" x2="1927.8" y2="42.22" xlink:href="#ao"/><linearGradient id="bz" x1="1913.66" y1="47.12" x2="1925.92" y2="47.12" xlink:href="#ao"/><linearGradient id="ca" x1="1883.54" y1="50.15" x2="1898.9" y2="50.15" xlink:href="#ao"/><linearGradient id="cb" x1="1885.24" y1="37.98" x2="1927.71" y2="37.98" xlink:href="#ao"/><linearGradient id="cc" x1="1068.88" y1="74.95" x2="1096.99" y2="74.95" xlink:href="#b"/><linearGradient id="cd" x1="1040.58" y1="73.32" x2="1114.57" y2="73.32" xlink:href="#t"/><linearGradient id="ce" x1="722.03" y1="93.27" x2="771.14" y2="93.27" xlink:href="#b"/><linearGradient id="cf" x1="717.5" y1="90.93" x2="766.62" y2="90.93" xlink:href="#b"/><linearGradient id="cg" x1="720.06" y1="52.7" x2="766.67" y2="52.7" xlink:href="#b"/><linearGradient id="ch" x1="717.85" y1="57.35" x2="723.33" y2="57.35" xlink:href="#b"/><linearGradient id="ci" x1="750.66" y1="99.02" x2="768.43" y2="99.02" xlink:href="#ao"/><linearGradient id="cj" x1="744.22" y1="96.2" x2="773.91" y2="96.2" xlink:href="#k"/><linearGradient id="ck" x1="734.37" y1="102.61" x2="783.48" y2="102.61" xlink:href="#t"/><linearGradient id="cl" x1="729.84" y1="100.27" x2="778.96" y2="100.27" xlink:href="#t"/><linearGradient id="cm" x1="750.67" y1="93.53" x2="768.44" y2="93.53" xlink:href="#ao"/><linearGradient id="cn" x1="732.4" y1="62.04" x2="779.01" y2="62.04" xlink:href="#t"/><linearGradient id="co" x1="730.2" y1="66.7" x2="735.67" y2="66.7" xlink:href="#t"/><linearGradient id="cp" x1="1223.96" y1="120.12" x2="1230.53" y2="120.12" xlink:href="#b"/><linearGradient id="cq" x1="1222.19" y1="55.58" x2="1231.62" y2="55.58" xlink:href="#b"/><linearGradient id="cr" x1="1226.38" y1="94.74" x2="1234.59" y2="94.74" xlink:href="#k"/><linearGradient id="cs" x1="1745.81" y1="81.18" x2="1746.06" y2="81.18" xlink:href="#t"/><linearGradient id="ct" x1="1744.95" y1="80.97" x2="1745.35" y2="80.97" xlink:href="#t"/><linearGradient id="cu" x1="1744.21" y1="80.67" x2="1744.52" y2="80.67" xlink:href="#t"/><linearGradient id="cv" x1="1746.77" y1="81.31" x2="1746.82" y2="81.31" xlink:href="#t"/><linearGradient id="cw" x1="1749.52" y1="81.08" x2="1749.63" y2="81.08" xlink:href="#t"/><linearGradient id="cx" x1="1747.62" y1="81.34" x2="1747.82" y2="81.34" xlink:href="#t"/><linearGradient id="cy" x1="1750.43" y1="80.8" x2="1750.54" y2="80.8" xlink:href="#t"/><linearGradient id="cz" x1="1730.13" y1="93.42" x2="1768.32" y2="93.42" xlink:href="#t"/><linearGradient id="da" x1="1743.72" y1="103.66" x2="1744.68" y2="103.66" xlink:href="#t"/><linearGradient id="db" x1="1741.83" y1="103.5" x2="1743.11" y2="103.5" xlink:href="#t"/><linearGradient id="dc" x1="1740.65" y1="103.28" x2="1741.14" y2="103.28" xlink:href="#t"/><linearGradient id="dd" x1="1739.29" y1="102.99" x2="1739.77" y2="102.99" xlink:href="#t"/><linearGradient id="de" x1="1737.83" y1="102.67" x2="1738.81" y2="102.67" xlink:href="#t"/><linearGradient id="df" x1="1736.46" y1="102.23" x2="1737.32" y2="102.23" xlink:href="#t"/><linearGradient id="dg" x1="1735.68" y1="101.84" x2="1735.96" y2="101.84" xlink:href="#t"/><linearGradient id="dh" x1="1747.11" y1="103.63" x2="1747.75" y2="103.63" xlink:href="#t"/><linearGradient id="di" x1="1749.95" y1="103.23" x2="1750.98" y2="103.23" xlink:href="#t"/><linearGradient id="dj" x1="1751.21" y1="102.93" x2="1752.45" y2="102.93" xlink:href="#t"/><linearGradient id="dk" x1="1752.79" y1="102.54" x2="1753.69" y2="102.54" xlink:href="#t"/><linearGradient id="dl" x1="1754.14" y1="102.1" x2="1754.95" y2="102.1" xlink:href="#t"/><linearGradient id="dm" x1="1767.56" y1="91.73" x2="1767.6" y2="91.73" xlink:href="#t"/><linearGradient id="dn" x1="1767.49" y1="91.16" x2="1767.55" y2="91.16" xlink:href="#t"/><linearGradient id="do" x1="1767.4" y1="90.57" x2="1767.46" y2="90.57" xlink:href="#t"/><linearGradient id="dp" x1="1767.29" y1="90.02" x2="1767.35" y2="90.02" xlink:href="#t"/><linearGradient id="dq" x1="1767.14" y1="89.48" x2="1767.21" y2="89.48" xlink:href="#t"/><linearGradient id="dr" x1="1766.96" y1="88.93" x2="1767.04" y2="88.93" xlink:href="#t"/><linearGradient id="ds" x1="1766.74" y1="88.38" x2="1766.84" y2="88.38" xlink:href="#t"/><linearGradient id="dt" x1="1766.47" y1="87.84" x2="1766.6" y2="87.84" xlink:href="#t"/><linearGradient id="du" x1="1766.15" y1="87.31" x2="1766.34" y2="87.31" xlink:href="#t"/><linearGradient id="dv" x1="1764.46" y1="85.34" x2="1764.6" y2="85.34" xlink:href="#t"/><linearGradient id="dw" x1="1763.4" y1="84.63" x2="1763.58" y2="84.63" xlink:href="#t"/><linearGradient id="dx" x1="1765.7" y1="86.74" x2="1766.02" y2="86.74" xlink:href="#t"/><linearGradient id="dy" x1="1745.45" y1="103.7" x2="1746.16" y2="103.7" xlink:href="#t"/><linearGradient id="dz" x1="1730.58" y1="98.01" x2="1730.65" y2="98.01" xlink:href="#t"/><linearGradient id="ea" x1="1730.69" y1="96.91" x2="1730.8" y2="96.91" xlink:href="#t"/><linearGradient id="eb" x1="1730.85" y1="95.93" x2="1730.98" y2="95.93" xlink:href="#t"/><linearGradient id="ec" x1="1731.08" y1="95" x2="1731.18" y2="95" xlink:href="#t"/><linearGradient id="ed" x1="1731.36" y1="94.05" x2="1731.46" y2="94.05" xlink:href="#t"/><linearGradient id="ee" x1="1731.74" y1="92.98" x2="1731.87" y2="92.98" xlink:href="#t"/><linearGradient id="ef" x1="1734.56" y1="88.65" x2="1734.69" y2="88.65" xlink:href="#t"/><linearGradient id="eg" x1="1732.4" y1="91.68" x2="1732.43" y2="91.68" xlink:href="#t"/><linearGradient id="eh" x1="1733.02" y1="90.56" x2="1733.16" y2="90.56" xlink:href="#t"/><linearGradient id="ei" x1="1733.81" y1="89.5" x2="1733.93" y2="89.5" xlink:href="#t"/><linearGradient id="ej" x1="1735.43" y1="87.81" x2="1735.61" y2="87.81" xlink:href="#t"/><linearGradient id="ek" x1="1736.12" y1="87.25" x2="1736.29" y2="87.25" xlink:href="#t"/><linearGradient id="el" x1="1736.93" y1="86.7" x2="1737.03" y2="86.7" xlink:href="#t"/><linearGradient id="em" x1="1737.58" y1="86.27" x2="1737.77" y2="86.27" xlink:href="#t"/><linearGradient id="en" x1="1738.25" y1="85.91" x2="1738.41" y2="85.91" xlink:href="#t"/><linearGradient id="eo" x1="1739.04" y1="85.54" x2="1739.16" y2="85.54" xlink:href="#t"/><linearGradient id="ep" x1="1739.72" y1="85.25" x2="1739.84" y2="85.25" xlink:href="#t"/><linearGradient id="eq" x1="1740.46" y1="84.98" x2="1740.57" y2="84.98" xlink:href="#t"/><linearGradient id="er" x1="1741.17" y1="84.77" x2="1741.29" y2="84.77" xlink:href="#t"/><linearGradient id="es" x1="1741.74" y1="84.63" x2="1741.83" y2="84.63" xlink:href="#t"/><linearGradient id="et" x1="1741.47" y1="84.69" x2="1741.59" y2="84.69" xlink:href="#t"/><linearGradient id="eu" x1="1742.14" y1="84.55" x2="1742.19" y2="84.55" xlink:href="#t"/><linearGradient id="ev" x1="1741.97" y1="84.58" x2="1742.03" y2="84.58" xlink:href="#t"/><linearGradient id="ew" x1="1754.71" y1="82.7" x2="1756.37" y2="82.7" xlink:href="#t"/><linearGradient id="ex" x1="1756.69" y1="82.57" x2="1758.22" y2="82.57" xlink:href="#t"/><linearGradient id="ey" x1="1758.37" y1="82.62" x2="1759.79" y2="82.62" xlink:href="#t"/><linearGradient id="ez" x1="1760.05" y1="82.82" x2="1761.34" y2="82.82" xlink:href="#t"/><linearGradient id="fa" x1="1761.38" y1="83.15" x2="1762.66" y2="83.15" xlink:href="#t"/><linearGradient id="fb" x1="1738.56" y1="71.12" x2="1758.59" y2="71.12" xlink:href="#t"/><linearGradient id="fc" x1="1739.03" y1="70.89" x2="1739.17" y2="70.89" xlink:href="#t"/><linearGradient id="fd" x1="1739.18" y1="69.91" x2="1739.39" y2="69.91" xlink:href="#t"/><linearGradient id="fe" x1="1739.48" y1="68.87" x2="1739.67" y2="68.87" xlink:href="#t"/><linearGradient id="fl" x1="1751.31" y1="80.43" x2="1751.43" y2="80.43" xlink:href="#t"/><linearGradient id="fm" x1="1752.16" y1="79.96" x2="1752.29" y2="79.96" xlink:href="#t"/><linearGradient id="fn" x1="1752.91" y1="79.45" x2="1753.06" y2="79.45" xlink:href="#t"/><linearGradient id="fo" x1="1753.75" y1="78.64" x2="1754.17" y2="78.64" xlink:href="#t"/><linearGradient id="fp" x1="1756.58" y1="74.86" x2="1756.87" y2="74.86" xlink:href="#t"/><linearGradient id="fq" x1="1757.05" y1="73.9" x2="1757.22" y2="73.9" xlink:href="#t"/><linearGradient id="fr" x1="1757.4" y1="72.98" x2="1757.48" y2="72.98" xlink:href="#t"/><linearGradient id="fs" x1="1757.68" y1="71.99" x2="1757.69" y2="71.99" xlink:href="#t"/><linearGradient id="ft" x1="1757.82" y1="70.98" x2="1757.84" y2="70.98" xlink:href="#t"/><linearGradient id="fu" x1="1756.12" y1="64.51" x2="1756.59" y2="64.51" xlink:href="#t"/><linearGradient id="fv" x1="1757.63" y1="67.94" x2="1757.79" y2="67.94" xlink:href="#t"/><linearGradient id="fw" x1="1753.61" y1="62.17" x2="1754.25" y2="62.17" xlink:href="#t"/><linearGradient id="fx" x1="1739.86" y1="67.85" x2="1740.05" y2="67.85" xlink:href="#t"/><linearGradient id="fy" x1="1740.36" y1="66.76" x2="1740.58" y2="66.76" xlink:href="#t"/><linearGradient id="fz" x1="1740.95" y1="65.74" x2="1741.19" y2="65.74" xlink:href="#t"/><linearGradient id="ga" x1="1741.66" y1="64.75" x2="1741.87" y2="64.75" xlink:href="#t"/><linearGradient id="gb" x1="1742.63" y1="63.6" x2="1742.94" y2="63.6" xlink:href="#t"/><linearGradient id="gc" x1="1743.4" y1="62.71" x2="1744.15" y2="62.71" xlink:href="#t"/><linearGradient id="gd" x1="1744.31" y1="62.08" x2="1744.98" y2="62.08" xlink:href="#t"/><linearGradient id="ge" x1="1745.11" y1="61.56" x2="1745.9" y2="61.56" xlink:href="#t"/><linearGradient id="gf" x1="1746.04" y1="61.11" x2="1746.86" y2="61.11" xlink:href="#t"/><linearGradient id="gg" x1="1746.98" y1="60.76" x2="1747.83" y2="60.76" xlink:href="#t"/><linearGradient id="gh" x1="1749.98" y1="60.34" x2="1750.86" y2="60.34" xlink:href="#t"/><linearGradient id="gi" x1="1750.89" y1="60.42" x2="1751.7" y2="60.42" xlink:href="#t"/><linearGradient id="gj" x1="1751.9" y1="60.62" x2="1752.69" y2="60.62" xlink:href="#t"/><linearGradient id="gk" x1="1752.74" y1="60.88" x2="1753.46" y2="60.88" xlink:href="#t"/><linearGradient id="gl" x1="1757.83" y1="69.32" x2="1757.89" y2="69.32" xlink:href="#t"/><linearGradient id="gm" x1="1754.47" y1="77.76" x2="1755.17" y2="77.76" xlink:href="#t"/><linearGradient id="gn" x1="1756.03" y1="75.85" x2="1756.38" y2="75.85" xlink:href="#t"/><linearGradient id="go" x1="1755.37" y1="76.79" x2="1755.81" y2="76.79" xlink:href="#t"/><linearGradient id="gq" x1="1742.52" y1="80.7" x2="1743.13" y2="80.7" xlink:href="#t"/><linearGradient id="gr" x1="1741.75" y1="80.11" x2="1742.37" y2="80.11" xlink:href="#t"/><linearGradient id="gs" x1="1741.19" y1="79.51" x2="1741.71" y2="79.51" xlink:href="#t"/><linearGradient id="gt" x1="1740.56" y1="78.77" x2="1741.1" y2="78.77" xlink:href="#t"/><linearGradient id="gu" x1="1740.1" y1="78" x2="1740.54" y2="78" xlink:href="#t"/><linearGradient id="gv" x1="1739.67" y1="77.09" x2="1740.03" y2="77.09" xlink:href="#t"/><linearGradient id="gw" x1="1739.38" y1="76.24" x2="1739.66" y2="76.24" xlink:href="#t"/><linearGradient id="gx" x1="1739.12" y1="75.21" x2="1739.34" y2="75.21" xlink:href="#t"/><linearGradient id="gy" x1="1738.99" y1="74.24" x2="1739.12" y2="74.24" xlink:href="#t"/><linearGradient id="gz" x1="1370.03" y1="44.34" x2="1415.53" y2="44.34" xlink:href="#a"/><linearGradient id="ha" x1="1384.15" y1="44.34" x2="1401.41" y2="44.34" xlink:href="#a"/><linearGradient id="hb" x1="1312.35" y1="89.84" x2="1378.55" y2="89.84" xlink:href="#b"/><linearGradient id="hc" x1="1332.89" y1="89.84" x2="1358" y2="89.84" xlink:href="#b"/><linearGradient id="hd" x1="1952.26" y1="50.35" x2="2013.61" y2="50.35" xlink:href="#b"/><linearGradient id="he" x1="1994.12" y1="56.9" x2="2010.97" y2="56.9" xlink:href="#b"/><linearGradient id="hf" x1="1952.7" y1="61.07" x2="1973.82" y2="61.07" xlink:href="#b"/><linearGradient id="hg" x1="1955.04" y1="44.33" x2="2013.44" y2="44.33" xlink:href="#b"/><linearGradient id="hh" x1="2031.9" y1="67.72" x2="2105.27" y2="67.72" xlink:href="#k"/><linearGradient id="hi" x1="2081.93" y1="75.46" x2="2102.08" y2="75.46" xlink:href="#k"/><linearGradient id="hj" x1="2032.4" y1="80.45" x2="2057.65" y2="80.45" xlink:href="#k"/><linearGradient id="hk" x1="2035.19" y1="60.44" x2="2105.03" y2="60.44" xlink:href="#k"/><linearGradient id="hl" x1="554.61" y1="45.04" x2="641.35" y2="45.04" xlink:href="#k"/><linearGradient id="hm" x1="556.31" y1="60.41" x2="640.23" y2="60.41" xlink:href="#b"/><linearGradient id="hn" x1="594.71" y1="68.05" x2="605.63" y2="68.05" xlink:href="#t"/><linearGradient id="ho" x1="1591.33" y1="123.07" x2="1659.54" y2="123.07" xlink:href="#t"/><linearGradient id="hp" x1="1591.82" y1="132.98" x2="1657.74" y2="132.98" xlink:href="#b"/><linearGradient id="hq" x1="1617.03" y1="141.26" x2="1625.04" y2="141.26" xlink:href="#k"/><linearGradient id="hr" x1="2203.92" y1="70.57" x2="2286.69" y2="70.57" xlink:href="#t"/><linearGradient id="hs" x1="2205.83" y1="82.77" x2="2286.56" y2="82.77" xlink:href="#a"/><linearGradient id="ht" x1="2246.36" y1="93.78" x2="2257.11" y2="93.78" xlink:href="#k"/><linearGradient id="hu" x1="919.13" y1="86.16" x2="930.98" y2="86.16" xlink:href="#t"/><linearGradient id="hv" x1="144.93" y1="35.67" x2="189.55" y2="35.67" xlink:href="#b"/><linearGradient id="hw" x1="175.42" y1="40.57" x2="187.67" y2="40.57" xlink:href="#b"/><linearGradient id="hx" x1="145.29" y1="43.6" x2="160.65" y2="43.6" xlink:href="#b"/><linearGradient id="hy" x1="146.99" y1="31.43" x2="189.47" y2="31.43" xlink:href="#b"/><linearGradient id="hz" x1="214.01" y1="43.79" x2="275.37" y2="43.79" xlink:href="#k"/><linearGradient id="ia" x1="255.87" y1="50.35" x2="272.73" y2="50.35" xlink:href="#k"/><linearGradient id="ib" x1="214.46" y1="54.52" x2="235.58" y2="54.52" xlink:href="#k"/><linearGradient id="ic" x1="216.79" y1="37.78" x2="275.2" y2="37.78" xlink:href="#k"/><linearGradient id="id" x1="293.65" y1="61.17" x2="367.02" y2="61.17" xlink:href="#t"/><linearGradient id="ie" x1="343.68" y1="68.91" x2="363.83" y2="68.91" xlink:href="#t"/><linearGradient id="if" x1="294.15" y1="73.9" x2="319.41" y2="73.9" xlink:href="#t"/><linearGradient id="ig" x1="296.94" y1="53.89" x2="366.79" y2="53.89" xlink:href="#t"/><linearGradient id="ih" x1="1481.04" y1="99.85" x2="1523.44" y2="99.85" xlink:href="#k"/><linearGradient id="ii" x1="1204.8" y1="87.67" x2="1249.96" y2="87.67" xlink:href="#t"/><linearGradient id="ij" x1="1205.38" y1="61.56" x2="1249.69" y2="61.56" xlink:href="#a"/><linearGradient id="ik" x1="1205.38" y1="112.94" x2="1249.13" y2="112.94" xlink:href="#a"/><linearGradient id="il" x1="1219.96" y1="77.18" x2="1234.35" y2="77.18" xlink:href="#k"/><linearGradient id="im" x1="891.87" y1="85.43" x2="947.68" y2="85.43" xlink:href="#a"/><linearGradient id="in" x1="892.8" y1="67.91" x2="946.61" y2="67.91" xlink:href="#a"/><linearGradient id="io" x1="900.91" y1="92.01" x2="902.52" y2="92.01" xlink:href="#a"/><linearGradient id="ip" x1="902.22" y1="49.53" x2="935.51" y2="49.53" xlink:href="#a"/><linearGradient id="iq" x1="1738.27" y1="5.42" x2="1760.7" y2="5.42" xlink:href="#k"/><linearGradient id="ir" x1="1738.27" y1="12.23" x2="1760.7" y2="12.23" xlink:href="#k"/><linearGradient id="is" x1="1698.01" y1="36.26" x2="1714.36" y2="36.26" xlink:href="#k"/><linearGradient id="it" x1="1675.35" y1="87.49" x2="1698.04" y2="87.49" xlink:href="#k"/><linearGradient id="iu" x1="1697.43" y1="132.25" x2="1714.31" y2="132.25" xlink:href="#k"/><linearGradient id="iv" x1="1698.82" y1="141.49" x2="1698.95" y2="141.49" xlink:href="#k"/><linearGradient id="iw" x1="1736.31" y1="146.14" x2="1758.74" y2="146.14" xlink:href="#k"/><linearGradient id="ix" x1="1782.9" y1="24.59" x2="1799.39" y2="24.59" xlink:href="#k"/><linearGradient id="iy" x1="1798.21" y1="16.16" x2="1798.46" y2="16.16" xlink:href="#k"/><linearGradient id="iz" x1="1798.36" y1="70.09" x2="1821.06" y2="70.09" xlink:href="#k"/><linearGradient id="ja" x1="1781.01" y1="120.99" x2="1797.9" y2="120.99" xlink:href="#k"/><linearGradient id="jb" x1="6186.2" y1="14237.06" x2="6213.73" y2="14237.06" gradientTransform="translate(15227.53 4709.31) rotate(131.08)" xlink:href="#b"/><linearGradient id="jc" x1="6194.99" y1="14237.36" x2="6205.47" y2="14237.36" gradientTransform="translate(15227.69 4709.79) rotate(131.08)" xlink:href="#b"/><linearGradient id="jd" x1="6136.27" y1="14190" x2="6177.17" y2="14190" gradientTransform="translate(15227.53 4709.31) rotate(131.08)" xlink:href="#t"/><linearGradient id="je" x1="6149.36" y1="14190.31" x2="6164.61" y2="14190.31" gradientTransform="translate(15227.69 4709.79) rotate(131.08)" xlink:href="#t"/><linearGradient id="jf" x1="362.55" y1="12.54" x2="416.62" y2="12.54" xlink:href="#k"/><linearGradient id="jg" x1="381.41" y1="3.48" x2="400.25" y2="3.48" xlink:href="#k"/><linearGradient id="jh" x1="502.32" y1="10.84" x2="530.24" y2="10.84" xlink:href="#b"/><linearGradient id="ji" x1="6117.13" y1="14179.02" x2="6127.61" y2="14179.02" gradientTransform="translate(15227.69 4709.79) rotate(131.08)" xlink:href="#b"/><linearGradient id="jj" x1="6176.18" y1="14202.25" x2="6212.73" y2="14202.25" gradientTransform="translate(15227.53 4709.31) rotate(131.08)" xlink:href="#a"/><linearGradient id="jk" x1="6187.52" y1="14202.25" x2="6201.39" y2="14202.25" gradientTransform="translate(15227.53 4709.31) rotate(131.08)" xlink:href="#a"/><linearGradient id="jl" x1="420.87" y1="10.31" x2="471.35" y2="10.31" xlink:href="#ao"/><linearGradient id="jm" x1="439.36" y1="1.86" x2="454.82" y2="1.86" xlink:href="#ao"/><linearGradient id="jn" x1="2108.27" y1="8.27" x2="2137.5" y2="8.27" xlink:href="#b"/><linearGradient id="jo" x1="2117.37" y1="3.32" x2="2128.26" y2="3.32" xlink:href="#b"/><linearGradient id="jp" x1="4658.17" y1="14001.02" x2="4679.55" y2="14001.02" gradientTransform="matrix(-0.36, 0.93, -0.93, -0.36, 16901.69, 661.85)" xlink:href="#t"/><linearGradient id="jq" x1="4664.88" y1="14001.02" x2="4672.84" y2="14001.02" gradientTransform="matrix(-0.36, 0.93, -0.93, -0.36, 16901.85, 662.33)" xlink:href="#t"/><linearGradient id="jr" x1="4619.99" y1="14023.92" x2="4658.26" y2="14023.92" gradientTransform="matrix(-0.36, 0.93, -0.93, -0.36, 16901.69, 661.85)" xlink:href="#a"/><linearGradient id="js" x1="4619.99" y1="14009.06" x2="4658.26" y2="14009.06" gradientTransform="matrix(-0.36, 0.93, -0.93, -0.36, 16901.69, 661.85)" xlink:href="#a"/><linearGradient id="jt" x1="4631.87" y1="14009.06" x2="4646.39" y2="14009.06" gradientTransform="matrix(-0.36, 0.93, -0.93, -0.36, 16901.69, 661.85)" xlink:href="#a"/></defs><title>web-academy-footer</title><polyline points="0.16 0.47 0.16 160.47 2300.16 160.47 2300.16 0.47" fill="#333"/><polygon points="143.71 139.83 156.94 132.58 156.94 147.08 164.1 147.08 164.1 132.58 177.32 139.83 180.9 133.95 167.67 126.7 180.9 119.45 177.32 113.57 164.1 120.81 164.1 106.32 156.94 106.32 156.94 120.82 143.71 113.57 140.13 119.45 153.36 126.7 140.13 133.95 143.71 139.83" fill="none" stroke-miterlimit="10" stroke-dasharray="1 2" stroke="url(#a)"/><path d="M556.94,114.48C525,114,493,114,461,114c-17,14-30,30-45.95,45" transform="translate(0.16 0.47)" fill="none" stroke="#262626"/><path d="M454.27,134.41C447,143,437,150,429.66,159" transform="translate(0.16 0.47)" fill="none" stroke="#262626"/><path d="M473.89,129.62C464,139,455,149,444.59,158.92" transform="translate(0.16 0.47)" fill="none" stroke="#262626"/><path d="M493.77,125.29C483,136,471,148,460.09,159" transform="translate(0.16 0.47)" fill="none" stroke="#262626"/><path d="M573.68,126.5C552,126,531,126,509,126c-11,11-22,22-32.77,32.95" transform="translate(0.16 0.47)" fill="none" stroke="#262626"/><path d="M593.6,138C567,139,539,136,512,139c-5,8-13,13-19.06,19.89" transform="translate(0.16 0.47)" fill="none" stroke="#262626"/><line x1="525.69" y1="150.87" x2="610.54" y2="150.87" fill="none" stroke="#262626"/><line x1="56.19" y1="92.45" x2="0.21" y2="92.45" fill="none" stroke="#262626"/><line x1="0.21" y1="80.46" x2="66.76" y2="80.46" fill="none" stroke="#262626"/><circle cx="457.19" cy="132.86" r="3.67" fill="none" stroke="#262626"/><circle cx="475.96" cy="126.97" r="3.67" fill="none" stroke="#262626"/><circle cx="496.57" cy="123.3" r="3.67" fill="none" stroke="#262626"/><circle cx="522.19" cy="150.44" r="3.67" fill="none" stroke="#262626"/><circle cx="59.58" cy="92.45" r="3.67" fill="none" stroke="#262626"/><circle cx="70.92" cy="80.55" r="3.67" fill="none" stroke="#262626"/><polyline points="414.38 119.63 442.3 119.63 456.82 105.12 537.61 105.12" fill="none" stroke="#262626"/><line x1="426.95" y1="132.16" x2="399.62" y2="159.5" fill="none" stroke="#262626"/><polyline points="348.98 151.99 392.26 151.99 412.65 131.6" fill="none" stroke="#262626"/><polyline points="357.5 143.03 387.28 143.03 398.1 132.2" fill="none" stroke="#262626"/><polyline points="353.84 119.63 371.61 119.63 391.14 139.16" fill="none" stroke="#262626"/><circle cx="410.73" cy="119.63" r="3.67" fill="none" stroke="#262626"/><circle cx="400" cy="129.39" r="3.67" fill="none" stroke="#262626"/><circle cx="415.76" cy="129.65" r="3.67" fill="none" stroke="#262626"/><circle cx="430.62" cy="129.5" r="3.67" fill="none" stroke="#262626"/><circle cx="349.73" cy="119.63" r="3.67" fill="none" stroke="#262626"/><circle cx="353.84" cy="143.03" r="3.67" fill="none" stroke="#262626"/><circle cx="345.31" cy="152.05" r="3.67" fill="none" stroke="#262626"/><circle cx="541.28" cy="104.97" r="3.67" fill="none" stroke="#262626"/><circle cx="560.77" cy="114.95" r="3.67" fill="none" stroke="#262626"/><circle cx="578.08" cy="126.97" r="3.67" fill="none" stroke="#262626"/><circle cx="596.89" cy="138.19" r="3.67" fill="none" stroke="#262626"/><circle cx="614.2" cy="150.2" r="3.67" fill="none" stroke="#262626"/><line x1="80.41" y1="68.33" x2="0.11" y2="67.64" fill="none" stroke="#262626"/><line x1="0.21" y1="54.74" x2="91.94" y2="55.53" fill="none" stroke="#262626"/><circle cx="84.71" cy="68.16" r="3.67" fill="none" stroke="#262626"/><circle cx="96.05" cy="55.34" r="3.67" fill="none" stroke="#262626"/><polyline points="1255.47 1.15 1255.47 16.97 1231.88 40.56 1209.43 40.56 1198.8 51.19" fill="none" stroke="#262626"/><polyline points="1242.56 1.15 1242.56 11.78 1226.46 27.88 1202.03 27.88 1178.99 50.92" fill="none" stroke="#262626"/><polyline points="1229.68 1.15 1229.68 7.51 1221.8 15.38 1194.9 15.38 1157.38 52.91" fill="none" stroke="#262626"/><polyline points="1215.82 1.15 1215.82 3.62 1188.82 3.62 1138.84 52.6" fill="none" stroke="#262626"/><circle cx="1195.9" cy="53.44" r="3.98" fill="none" stroke="#262626"/><circle cx="1176.52" cy="54.02" r="3.98" fill="none" stroke="#262626"/><circle cx="1154.15" cy="54.9" r="3.98" fill="none" stroke="#262626"/><circle cx="1135.89" cy="54.9" r="3.98" fill="none" stroke="#262626"/><polyline points="1569.07 160.47 1569.07 154.28 1516.34 154.28 1516.34 135.63 1500.02 135.63" fill="none" stroke="#262626"/><polyline points="1542.45 154.28 1542.45 135.12 1536.7 135.12" fill="none" stroke="#262626"/><line x1="1542.94" y1="144.51" x2="1571.63" y2="144.51" fill="none" stroke="#262626"/><polyline points="1516.34 159.89 1516.34 154.28 1489.75 154.28 1452.41 154.28" fill="none" stroke="#262626"/><line x1="1463.93" y1="129.06" x2="1489.67" y2="154.81" fill="none" stroke="#262626"/><line x1="1440.75" y1="125.14" x2="1469.31" y2="153.7" fill="none" stroke="#262626"/><circle cx="1447.78" cy="154.28" r="3.67" fill="none" stroke="#262626"/><circle cx="1461.72" cy="126.54" r="3.67" fill="none" stroke="#262626"/><circle cx="1496.41" cy="135.64" r="3.67" fill="none" stroke="#262626"/><circle cx="1533.52" cy="135.12" r="3.67" fill="none" stroke="#262626"/><circle cx="1575.6" cy="144.29" r="3.67" fill="none" stroke="#262626"/><circle cx="1437.79" cy="122.87" r="3.67" fill="none" stroke="#262626"/><rect x="2222.24" y="8.22" width="71" height="39.19" fill="none" stroke="#262626"/><path d="M2299.64,16.33h-6.56" transform="translate(0.16 0.47)" fill="none" stroke="#262626"/><path d="M2293.08,26.8h6.47" transform="translate(0.16 0.47)" fill="none" stroke="#262626"/><path d="M2293.08,36.9h6.4" transform="translate(0.16 0.47)" fill="none" stroke="#262626"/><rect x="2266.23" y="20.25" width="26.14" height="14.29" transform="translate(2306.85 -2251.43) rotate(90)" fill="none" stroke="#262626"/><rect x="2223.5" y="20.25" width="26.14" height="14.29" transform="translate(2264.12 -2208.7) rotate(90)" fill="none" stroke="#262626"/><rect x="2245.63" y="20.25" width="26.14" height="14.29" transform="translate(2286.25 -2230.83) rotate(90)" fill="none" stroke="#262626"/><line x1="2286.6" y1="31.27" x2="2272.31" y2="31.27" fill="none" stroke="#262626"/><line x1="2265.65" y1="20.75" x2="2251.61" y2="20.75" fill="none" stroke="#262626"/><line x1="2244.14" y1="30.51" x2="2229.69" y2="30.51" fill="none" stroke="#262626"/><path d="M2299.43,145.32c-32.43-.32-63.43-.32-95.44,0" transform="translate(0.16 0.47)" fill="none" stroke="#262626"/><circle cx="2200.06" cy="145.79" r="4.09" fill="none" stroke="#262626"/><path d="M2299.54,134.25c-23.54-.25-46.54-.25-70.49,0" transform="translate(0.16 0.47)" fill="none" stroke="#262626"/><circle cx="2225.11" cy="134.72" r="4.09" fill="none" stroke="#262626"/><path d="M2299.4,123.28c-14.4-.28-29.4-.28-43.29,0" transform="translate(0.16 0.47)" fill="none" stroke="#262626"/><circle cx="2252.17" cy="123.75" r="4.09" fill="none" stroke="#262626"/><path d="M1270.08,114.12C1301,83,1333,51,1364,20c16-3,31,0,47-1,6-6,12-12,18.38-18.36" transform="translate(0.16 0.47)" fill="none" stroke="#262626"/><polyline points="1340.69 69.42 1338.2 58.92 1258.65 138.46" fill="none" stroke="#262626"/><polyline points="1301.54 123.69 1354.85 69.42 1340.69 69.42 1280.22 129.89" fill="none" stroke="#262626"/><path d="M1357.34.59C1329,29,1302,56,1274.28,83.64" transform="translate(0.16 0.47)" fill="none" stroke="#262626"/><path d="M1433.06,35.17C1442,26,1451,18,1460,8c1-2,0-5-.75-7.34" transform="translate(0.16 0.47)" fill="none" stroke="#262626"/><path d="M1377.67,19,1356,40.67" transform="translate(0.16 0.47)" fill="none" stroke="#262626"/><path d="M1391.5,18.93c-12.23,12.18-25.23,25.18-37.22,37.22" transform="translate(0.16 0.47)" fill="none" stroke="#262626"/><polyline points="1507.7 16.7 1466.36 16.7 1446.88 36.18" fill="none" stroke="#262626"/><polyline points="1499.55 25.27 1471.11 25.27 1460.77 35.6" fill="none" stroke="#262626"/><polyline points="1491.06 34.61 1474.08 34.61 1471.11 25.27" fill="none" stroke="#262626"/><circle cx="1471.11" cy="44.81" r="3.5" fill="none" stroke="#262626"/><circle cx="1458.96" cy="38.29" r="3.5" fill="none" stroke="#262626"/><circle cx="1443.91" cy="38.04" r="3.5" fill="none" stroke="#262626"/><circle cx="1429.71" cy="38.19" r="3.5" fill="none" stroke="#262626"/><circle cx="1352.01" cy="59.05" r="3.5" fill="none" stroke="#262626"/><circle cx="1353.7" cy="43.62" r="3.5" fill="none" stroke="#262626"/><circle cx="1494.99" cy="34.61" r="3.5" fill="none" stroke="#262626"/><circle cx="1503.06" cy="25.26" r="3.5" fill="none" stroke="#262626"/><circle cx="1511.2" cy="16.64" r="3.5" fill="none" stroke="#262626"/><circle cx="1267.75" cy="117.07" r="3.5" fill="none" stroke="#262626"/><circle cx="1269.52" cy="101.7" r="3.5" fill="none" stroke="#262626"/><circle cx="1271.26" cy="86.33" r="3.5" fill="none" stroke="#262626"/><circle cx="1299.59" cy="126.61" r="3.5" fill="none" stroke="#262626"/><circle cx="1277.94" cy="132.29" r="3.5" fill="none" stroke="#262626"/><circle cx="1256.63" cy="140.22" r="3.5" fill="none" stroke="#262626"/><polyline points="935.31 106.47 849.8 106.47 849.8 93.27 817.01 93.27 817.01 69.27" fill="none" stroke="#262626"/><polyline points="935.31 95.28 860.84 95.28 860.84 82.59 861.07 82.59 830.76 82.13 830.76 61.23" fill="none" stroke="#262626"/><circle cx="800.29" cy="81.29" r="3.33" fill="none" stroke="#262626"/><line x1="817.01" y1="80.76" x2="803.7" y2="80.76" fill="none" stroke="#262626"/><circle cx="830.26" cy="57.51" r="3.33" fill="none" stroke="#262626"/><circle cx="816.45" cy="65.38" r="3.33" fill="none" stroke="#262626"/><circle cx="830.26" cy="57.51" r="3.33" fill="none" stroke="#262626"/><polyline points="922.08 133.13 946.09 133.13 946.09 100.34 959.28 100.34 959.28 33.11 1039.76 33.11 1039.76 22.23 1066.76 22.23 1066.76 0.25" fill="none" stroke="#262626"/><polyline points="959.28 89.3 935.41 89.3 935.41 89.07 934.95 119.37 914.04 119.37" fill="none" stroke="#262626"/><circle cx="934.1" cy="149.85" r="3.33" fill="none" stroke="#262626"/><line x1="933.58" y1="133.13" x2="933.58" y2="146.44" fill="none" stroke="#262626"/><circle cx="910.33" cy="119.88" r="3.33" fill="none" stroke="#262626"/><circle cx="918.19" cy="133.69" r="3.33" fill="none" stroke="#262626"/><circle cx="910.33" cy="119.88" r="3.33" fill="none" stroke="#262626"/><polyline points="959.28 42.56 982.42 42.56 982.42 55.76 1015.22 55.76 1015.22 79.76" fill="none" stroke="#262626"/><polyline points="959.28 53.74 971.38 53.74 971.38 66.44 971.16 66.44 1001.46 66.9 1001.46 87.8" fill="none" stroke="#262626"/><circle cx="1031.93" cy="67.74" r="3.33" fill="none" stroke="#262626"/><line x1="1015.22" y1="68.27" x2="1028.53" y2="68.27" fill="none" stroke="#262626"/><circle cx="1001.97" cy="91.52" r="3.33" fill="none" stroke="#262626"/><circle cx="1015.78" cy="83.65" r="3.33" fill="none" stroke="#262626"/><circle cx="1001.97" cy="91.52" r="3.33" fill="none" stroke="#262626"/><polyline points="959.51 77.97 936.38 77.97 936.38 64.78 903.58 64.78 903.58 40.77" fill="none" stroke="#262626"/><polyline points="959.51 66.79 947.42 66.79 947.42 54.1 947.64 54.1 917.34 53.63 917.34 32.73" fill="none" stroke="#262626"/><circle cx="886.87" cy="52.79" r="3.33" fill="none" stroke="#262626"/><line x1="903.58" y1="52.27" x2="890.27" y2="52.27" fill="none" stroke="#262626"/><circle cx="916.83" cy="29.01" r="3.33" fill="none" stroke="#262626"/><circle cx="903.02" cy="36.88" r="3.33" fill="none" stroke="#262626"/><circle cx="916.83" cy="29.01" r="3.33" fill="none" stroke="#262626"/><polyline points="1792.81 160.47 1792.81 120.03 1816.4 96.44 1838.85 96.44 1849.48 85.81" fill="none" stroke="#262626"/><polyline points="1805.73 160.47 1805.73 125.22 1821.82 109.12 1846.25 109.12 1869.29 86.08" fill="none" stroke="#262626"/><polyline points="1818.61 160.47 1818.61 129.49 1826.48 121.61 1853.38 121.61 1890.9 84.09" fill="none" stroke="#262626"/><polyline points="1832.46 160.47 1832.46 134.37 1859.46 134.37 1909.44 84.39" fill="none" stroke="#262626"/><circle cx="1852.39" cy="83.55" r="3.98" fill="none" stroke="#262626"/><circle cx="1871.76" cy="82.98" r="3.98" fill="none" stroke="#262626"/><circle cx="1894.14" cy="82.09" r="3.98" fill="none" stroke="#262626"/><circle cx="1912.39" cy="82.09" r="3.98" fill="none" stroke="#262626"/><path d="M1271.84,98.75C1302,68,1333,38,1363,7c14,0,29,1,43,0,3-1,5-4,7.32-6.36" transform="translate(0.16 0.47)" fill="none" stroke="#262626"/><line x1="1460.92" y1="7.93" x2="1466.35" y2="16.7" fill="none" stroke="#262626"/><line x1="1471.11" y1="25.26" x2="1466.35" y2="16.7" fill="none" stroke="#262626"/><line x1="1474.08" y1="34.61" x2="1471.11" y2="41.31" fill="none" stroke="#262626"/><polyline points="2187.6 0.47 2187.43 36.41 2222.29 36.41" fill="none" stroke="#262626"/><polyline points="2222.29 27.95 2196.26 27.95 2196.43 0.47" fill="none" stroke="#262626"/><polyline points="2222.29 19.85 2205.1 19.85 2205.15 0.47" fill="none" stroke="#262626"/><line x1="139.7" y1="47.35" x2="139.22" y2="47.19" fill="none" stroke-miterlimit="10" stroke="url(#b)"/><line x1="136.39" y1="46.26" x2="2.05" y2="2.01" fill="none" stroke-miterlimit="10" stroke-dasharray="0.99 2.98" stroke="url(#c)"/><line x1="0.63" y1="1.54" x2="0.16" y2="1.39" fill="none" stroke-miterlimit="10" stroke="url(#d)"/><line x1="141.56" y1="20.94" x2="141.09" y2="20.78" fill="none" stroke-miterlimit="10" stroke="url(#e)"/><line x1="138.25" y1="19.85" x2="82.94" y2="1.63" fill="none" stroke-miterlimit="10" stroke-dasharray="1 2.99" stroke="url(#f)"/><line x1="81.52" y1="1.16" x2="81.05" y2="1.01" fill="none" stroke-miterlimit="10" stroke="url(#g)"/><line x1="185.9" y1="18.94" x2="185.42" y2="18.78" fill="none" stroke-miterlimit="10" stroke="url(#h)"/><line x1="182.48" y1="17.81" x2="136.86" y2="2.79" fill="none" stroke-miterlimit="10" stroke-dasharray="1.03 3.1" stroke="url(#i)"/><line x1="135.39" y1="2.3" x2="134.92" y2="2.15" fill="none" stroke-miterlimit="10" stroke="url(#j)"/><line x1="295" y1="39.28" x2="294.53" y2="39.11" fill="none" stroke-miterlimit="10" stroke="url(#k)"/><line x1="291.73" y1="38.09" x2="199.72" y2="4.68" fill="none" stroke-miterlimit="10" stroke-dasharray="0.99 2.98" stroke="url(#l)"/><line x1="198.31" y1="4.17" x2="197.84" y2="4" fill="none" stroke-miterlimit="10" stroke="url(#m)"/><line x1="292.55" y1="86.35" x2="292.07" y2="86.19" fill="none" stroke-miterlimit="10" stroke="url(#n)"/><line x1="289.28" y1="85.27" x2="205.02" y2="57.52" fill="none" stroke-miterlimit="10" stroke-dasharray="0.98 2.94" stroke="url(#o)"/><line x1="203.62" y1="57.06" x2="203.15" y2="56.9" fill="none" stroke-miterlimit="10" stroke="url(#p)"/><line x1="363.83" y1="31.92" x2="363.36" y2="31.77" fill="none" stroke-miterlimit="10" stroke="url(#q)"/><line x1="360.49" y1="30.82" x2="270.26" y2="1.1" fill="none" stroke-miterlimit="10" stroke-dasharray="1.01 3.02" stroke="url(#r)"/><line x1="268.83" y1="0.63" x2="268.36" y2="0.47" fill="none" stroke-miterlimit="10" stroke="url(#s)"/><line x1="212.51" y1="64.44" x2="212.04" y2="64.28" fill="none" stroke-miterlimit="10" stroke="url(#t)"/><line x1="209.21" y1="63.35" x2="74.86" y2="19.1" fill="none" stroke-miterlimit="10" stroke-dasharray="0.99 2.98" stroke="url(#u)"/><line x1="73.45" y1="18.63" x2="72.97" y2="18.48" fill="none" stroke-miterlimit="10" stroke="url(#v)"/><line x1="215.03" y1="26.03" x2="214.55" y2="25.87" fill="none" stroke-miterlimit="10" stroke="url(#w)"/><line x1="211.64" y1="24.91" x2="154.82" y2="6.2" fill="none" stroke-miterlimit="10" stroke-dasharray="1.02 3.07" stroke="url(#x)"/><line x1="153.37" y1="5.72" x2="152.89" y2="5.57" fill="none" stroke-miterlimit="10" stroke="url(#y)"/><line x1="273.34" y1="20.31" x2="272.86" y2="20.15" fill="none" stroke-miterlimit="10" stroke="url(#z)"/><line x1="269.92" y1="19.18" x2="224.3" y2="4.16" fill="none" stroke-miterlimit="10" stroke-dasharray="1.03 3.1" stroke="url(#aa)"/><line x1="222.83" y1="3.67" x2="222.36" y2="3.52" fill="none" stroke-miterlimit="10" stroke="url(#ab)"/><path d="M657.19,95.52a2.07,2.07,0,0,0-.5,0" transform="translate(0.16 0.47)" fill="none" stroke-miterlimit="10" stroke="url(#ac)"/><path d="M654.91,97.63a2.66,2.66,0,0,0,2.5,2.73A3.33,3.33,0,0,0,661,97.24a4.17,4.17,0,0,0-3.9-4.44,5.22,5.22,0,0,0-5.55,4.87,6.54,6.54,0,0,0,6.09,7A8.18,8.18,0,0,0,666.29,97a10.22,10.22,0,0,0-9.53-10.85,12.77,12.77,0,0,0-13.57,11.9c-.57,8.79,5.09,25.14,29.21,22.5,0,0,20.26-9.7,37.2,3.1" transform="translate(0.16 0.47)" fill="none" stroke-miterlimit="10" stroke-dasharray="0.99 2.97" stroke="url(#ad)"/><path d="M710.76,124.58l.39.32" transform="translate(0.16 0.47)" fill="none" stroke-miterlimit="10" stroke="url(#ae)"/><path d="M686,136.12a1.78,1.78,0,0,0,2.4-.72,2.2,2.2,0,0,0-.88-3,2.76,2.76,0,0,0-3.75,1.11,3.45,3.45,0,0,0,1.38,4.68,4.32,4.32,0,0,0,5.86-1.73,5.4,5.4,0,0,0-2.17-7.32,6.74,6.74,0,0,0-9.15,2.71,8.43,8.43,0,0,0,3.39,11.43c5.12,2.78,9-1.83,14.3-4.23,9.63-4.36,14.73,6.37,33.58,8.14" transform="translate(0.16 0.47)" fill="none" stroke-miterlimit="10" stroke-width="0.75" stroke-dasharray="1 2" stroke="url(#af)"/><polyline points="1005.67 17.28 1005.3 16.95 1005.3 17.45" fill="none" stroke-miterlimit="10" stroke="url(#ag)"/><line x1="1005.3" y1="20.48" x2="1005.3" y2="148.17" fill="none" stroke-miterlimit="10" stroke-dasharray="1.01 3.03" stroke="url(#ah)"/><polyline points="1005.3 149.69 1005.3 150.19 1005.65 149.83" fill="none" stroke-miterlimit="10" stroke="url(#ai)"/><line x1="1007.78" y1="147.7" x2="1074.97" y2="80.52" fill="none" stroke-miterlimit="10" stroke-dasharray="1.01 3.02" stroke="url(#aj)"/><polyline points="1076.03 79.45 1076.39 79.1 1076.01 78.77" fill="none" stroke-miterlimit="10" stroke="url(#ak)"/><line x1="1073.79" y1="76.83" x2="1006.79" y2="18.26" fill="none" stroke-miterlimit="10" stroke-dasharray="0.98 2.95" stroke="url(#al)"/><path d="M945.13,160C927,137.31,916,107,916,73.71a141.12,141.12,0,0,1,18.8-71.19" transform="translate(0.16 0.47)" fill="none" stroke-miterlimit="10" stroke-dasharray="1 3" stroke="url(#am)"/><path d="M1116.3.68a140.7,140.7,0,0,1,19.91,73c0,33.29-11,63.61-29.15,86.29" transform="translate(0.16 0.47)" fill="none" stroke-miterlimit="10" stroke-dasharray="1 3" stroke="url(#an)"/><path d="M1416.15,91.21V84.13h-4a13,13,0,0,0-1.13-2.81l2.82-2.82-5-5L1406,76.3a13.1,13.1,0,0,0-2.83-1.18v-4h-7.07v4a13.1,13.1,0,0,0-2.83,1.18l-2.81-2.81-5,5,2.82,2.82a13,13,0,0,0-1.13,2.81h-4v7.08h4a12.61,12.61,0,0,0,1.16,2.75l-2.88,2.88,5,5,2.9-2.9a12.62,12.62,0,0,0,2.74,1.12v4.12h7.07v-4.12a12.62,12.62,0,0,0,2.74-1.12l2.9,2.9,5-5L1410.94,94a12.61,12.61,0,0,0,1.16-2.75Z" transform="translate(0.16 0.47)" fill="none" stroke-miterlimit="10" stroke-dasharray="1 1" opacity="0.6" stroke="url(#ao)"/><circle cx="1399.8" cy="88.14" r="5.9" fill="none" stroke-miterlimit="10" stroke-dasharray="1 1" opacity="0.6" stroke="url(#ap)"/><path d="M1370.65,34.42V23.78h-6a19.32,19.32,0,0,0-1.71-4.23l4.24-4.25-7.52-7.52L1355.4,12a19.24,19.24,0,0,0-4.26-1.77v-6H1340.5v6a19.16,19.16,0,0,0-4.25,1.77L1332,7.78l-7.53,7.52,4.25,4.25a19.32,19.32,0,0,0-1.71,4.23h-6V34.42h6.11a19.36,19.36,0,0,0,1.73,4.14l-4.33,4.33,7.53,7.53,4.36-4.36a19.71,19.71,0,0,0,4.11,1.68v6.19h10.64V47.74a19.57,19.57,0,0,0,4.12-1.68l4.36,4.36,7.52-7.53-4.33-4.33a19.39,19.39,0,0,0,1.74-4.14Z" transform="translate(0.16 0.47)" fill="none" stroke-miterlimit="10" stroke-dasharray="1 1" stroke="url(#aq)"/><circle cx="1345.98" cy="29.57" r="8.87" fill="none" stroke-miterlimit="10" stroke-dasharray="1 1" stroke="url(#ar)"/><path d="M1420.85,159.49l-2.95-3a27.46,27.46,0,0,0,2.45-5.82h8.57V135.77h-8.49a27.3,27.3,0,0,0-2.41-5.94l6-6-10.57-10.58-5.93,5.93a27.62,27.62,0,0,0-6-2.48v-8.38h-15v8.38a27.62,27.62,0,0,0-6,2.48l-5.93-5.93-10.57,10.58,6,6a27.3,27.3,0,0,0-2.41,5.94h-8.49v14.95h8.57a27.46,27.46,0,0,0,2.45,5.82l-3.06,3.07" transform="translate(0.16 0.47)" fill="none" stroke-miterlimit="10" stroke-dasharray="1 1" stroke="url(#as)"/><circle cx="1394.19" cy="143.72" r="12.46" fill="none" stroke-miterlimit="10" stroke-dasharray="1 1" stroke="url(#at)"/><path d="M1319.45,20.72V13.64h-4a12.55,12.55,0,0,0-1.14-2.81L1317.12,8l-5-5-2.8,2.8a12.79,12.79,0,0,0-2.83-1.17v-4h-7.08v4a12.71,12.71,0,0,0-2.82,1.17L1293.77,3l-5,5,2.82,2.82a13,13,0,0,0-1.14,2.81h-4v7.08h4.06a12.61,12.61,0,0,0,1.16,2.75l-2.88,2.88,5,5,2.9-2.9a12.84,12.84,0,0,0,2.73,1.12v4.11h7.08V29.58a13.14,13.14,0,0,0,2.74-1.12l2.89,2.9,5-5-2.88-2.88a13.09,13.09,0,0,0,1.15-2.75Z" transform="translate(0.16 0.47)" fill="none" stroke-miterlimit="10" stroke-dasharray="1 1" stroke="url(#au)"/><circle cx="1303.1" cy="17.66" r="5.9" fill="none" stroke-miterlimit="10" stroke-dasharray="1 1" stroke="url(#av)"/><polygon points="1913.88 147.87 1927.11 140.62 1927.11 155.12 1934.27 155.12 1934.27 140.62 1947.49 147.87 1951.07 141.99 1937.84 134.74 1951.07 127.49 1947.49 121.6 1934.27 128.85 1934.27 114.36 1927.11 114.36 1927.11 128.86 1913.88 121.6 1910.31 127.49 1923.53 134.74 1910.31 141.99 1913.88 147.87" fill="none" stroke-miterlimit="10" stroke-dasharray="1 2" stroke="url(#aw)"/><polygon points="1977.62 147.87 1990.85 140.62 1990.85 155.12 1998.01 155.12 1998.01 140.62 2011.23 147.87 2014.81 141.99 2001.58 134.74 2014.81 127.49 2011.23 121.6 1998.01 128.85 1998.01 114.36 1990.85 114.36 1990.85 128.86 1977.62 121.6 1974.05 127.49 1987.28 134.74 1974.05 141.99 1977.62 147.87" fill="none" stroke-miterlimit="10" stroke-dasharray="1 2" stroke="url(#ax)"/><polygon points="2041.51 147.87 2054.74 140.62 2054.74 155.12 2061.89 155.12 2061.89 140.62 2075.12 147.87 2078.69 141.99 2065.47 134.74 2078.69 127.49 2075.12 121.6 2061.89 128.85 2061.89 114.36 2054.74 114.36 2054.74 128.86 2041.51 121.6 2037.93 127.49 2051.16 134.74 2037.93 141.99 2041.51 147.87" fill="none" stroke-miterlimit="10" stroke-dasharray="1 2" stroke="url(#ay)"/><polygon points="2105.25 147.87 2118.48 140.62 2118.48 155.12 2125.64 155.12 2125.64 140.62 2138.86 147.87 2142.44 141.99 2129.21 134.74 2142.44 127.49 2138.86 121.6 2125.64 128.85 2125.64 114.36 2118.48 114.36 2118.48 128.86 2105.25 121.6 2101.67 127.49 2114.9 134.74 2101.67 141.99 2105.25 147.87" fill="none" stroke-miterlimit="10" stroke-dasharray="1 2" stroke="url(#az)"/><path d="M1980.86,80.88a1.42,1.42,0,0,1,1.14-1.67,1.78,1.78,0,0,1,2.08,1.43,2.23,2.23,0,0,1-1.78,2.6A2.8,2.8,0,0,1,1979,81a3.5,3.5,0,0,1,2.79-4.07,4.36,4.36,0,0,1,5.08,3.49,5.44,5.44,0,0,1-4.35,6.35,6.81,6.81,0,0,1-7.94-5.44,8.52,8.52,0,0,1,6.8-9.93c5.77-1.08,8.78,3.88,12.41,8.5,9.12,11.61,14.29,9.36,18.54,9.79s11.65-2.53,17.81,1.37" transform="translate(0.16 0.47)" fill="none" stroke-miterlimit="10" stroke-width="0.75" stroke-dasharray="1 2" stroke="url(#ba)"/><path d="M2062.28,32.86a1.13,1.13,0,0,1,.91-1.33,1.41,1.41,0,0,1,1.66,1.14,1.79,1.79,0,0,1-1.42,2.08,2.24,2.24,0,0,1-2.6-1.78,2.78,2.78,0,0,1,2.22-3.25,3.48,3.48,0,0,1,4.06,2.78,4.34,4.34,0,0,1-3.47,5.07,5.43,5.43,0,0,1-6.34-4.34,6.8,6.8,0,0,1,5.43-7.93c4.61-.86,7,3.1,9.91,6.79,7.28,9.27,11.42,7.47,14.81,7.82s9.3-2,14.22,1.09" transform="translate(0.16 0.47)" fill="none" stroke-miterlimit="10" stroke-width="0.75" stroke-dasharray="1 2" stroke="url(#bb)"/><path d="M1975.42,35.56a1.65,1.65,0,0,1,1.33-1.93,2.07,2.07,0,0,1,2.42,1.65,2.61,2.61,0,0,1-2.08,3,3.24,3.24,0,0,1-3.78-2.59,4.06,4.06,0,0,1,3.24-4.73,5.07,5.07,0,0,1,5.91,4.05,6.33,6.33,0,0,1-5.06,7.38,7.91,7.91,0,0,1-9.23-6.32,9.89,9.89,0,0,1,7.9-11.54c6.71-1.25,10.21,4.51,14.43,9.88,10.6,13.5,16.62,10.88,21.55,11.38s13.54-2.94,20.7,1.59" transform="translate(0.16 0.47)" fill="none" stroke-miterlimit="10" stroke-width="0.75" stroke-dasharray="1 2" stroke="url(#bc)"/><ellipse cx="1748.11" cy="80.08" rx="33.05" ry="37.84" fill="none" stroke-miterlimit="10" stroke-dasharray="1 3" stroke="url(#bd)"/><ellipse cx="1747.99" cy="80.22" rx="37.94" ry="43.43" fill="none" stroke-miterlimit="10" stroke-dasharray="1 3" stroke="url(#be)"/><polygon points="16.09 139.83 29.32 132.58 29.32 147.08 36.48 147.08 36.48 132.58 49.7 139.83 53.28 133.95 40.05 126.7 53.28 119.45 49.7 113.57 36.48 120.81 36.48 106.32 29.32 106.32 29.32 120.82 16.09 113.57 12.51 119.45 25.74 126.7 12.51 133.95 16.09 139.83" fill="none" stroke-miterlimit="10" stroke-dasharray="1 2" stroke="url(#bf)"/><polygon points="79.83 139.83 93.06 132.58 93.06 147.08 100.22 147.08 100.22 132.58 113.44 139.83 117.02 133.95 103.79 126.7 117.02 119.45 113.44 113.57 100.22 120.81 100.22 106.32 93.06 106.32 93.06 120.82 79.83 113.57 76.25 119.45 89.48 126.7 76.25 133.95 79.83 139.83" fill="none" stroke-miterlimit="10" stroke-dasharray="1 2" stroke="url(#bg)"/><polygon points="207.45 139.83 220.68 132.58 220.68 147.08 227.84 147.08 227.84 132.58 241.06 139.83 244.64 133.95 231.41 126.7 244.64 119.45 241.06 113.57 227.84 120.81 227.84 106.32 220.68 106.32 220.68 120.82 207.45 113.57 203.88 119.45 217.11 126.7 203.88 133.95 207.45 139.83" fill="none" stroke-miterlimit="10" stroke-dasharray="1 2" stroke="url(#bh)"/><path d="M1207,44.3l38.4-5.49c4.92-.71,9.34,2.92,9.29,7.64l-.8,77.06a7.81,7.81,0,0,1-6.84,7.49l-37.6,5.53c-4.9.72-9.33-2.87-9.33-7.56V51.87A7.8,7.8,0,0,1,1207,44.3Z" transform="translate(0.16 0.47)" fill="none" stroke-miterlimit="10" stroke-dasharray="1 3" stroke="url(#bi)"/><polygon points="1512.52 45.22 1560.91 37.06 1560.17 84.58 1524.4 90.29 1511.78 106.67 1512.52 45.22" fill="none" stroke-miterlimit="10" stroke-dasharray="1 2" stroke="url(#bj)"/><polygon points="1543.71 17.99 1604.58 7.72 1603.64 67.5 1558.64 74.68 1542.77 95.29 1543.71 17.99" fill="none" stroke-miterlimit="10" stroke-dasharray="1 3" stroke="url(#bk)"/><line x1="1555.74" y1="38.41" x2="1593.11" y2="31.6" fill="none" stroke-miterlimit="10" stroke-dasharray="1 3" stroke="url(#bl)"/><line x1="1555.74" y1="47.05" x2="1593.11" y2="40.24" fill="none" stroke-miterlimit="10" stroke-dasharray="1 3" stroke="url(#bm)"/><line x1="1555.74" y1="55.54" x2="1593.11" y2="48.73" fill="none" stroke-miterlimit="10" stroke-dasharray="1 3" stroke="url(#bn)"/><line x1="1522.63" y1="61.22" x2="1551.64" y2="55.93" fill="none" stroke-miterlimit="10" stroke-dasharray="1 2" stroke="url(#bo)"/><line x1="1522.63" y1="67.93" x2="1551.64" y2="62.64" fill="none" stroke-miterlimit="10" stroke-dasharray="1 2" stroke="url(#bp)"/><line x1="1522.63" y1="74.52" x2="1551.64" y2="69.23" fill="none" stroke-miterlimit="10" stroke-dasharray="1 2" stroke="url(#bq)"/><path d="M681.28,46.68a1.23,1.23,0,0,0-.44.23" transform="translate(0.16 0.47)" fill="none" stroke-miterlimit="10" stroke="url(#br)"/><path d="M681.45,49.32a1.48,1.48,0,0,0,.93,0,2,2,0,0,0,1.35-2.46,2.49,2.49,0,0,0-3.08-1.68,3.1,3.1,0,0,0-2.1,3.85,3.87,3.87,0,0,0,4.81,2.62,4.84,4.84,0,0,0,3.28-6,6,6,0,0,0-7.5-4.11A7.57,7.57,0,0,0,674,50.93c1.47,5,7.94,13,20.83,6.59,0,0,8.89-9.09,20.52-6.06" transform="translate(0.16 0.47)" fill="none" stroke-miterlimit="10" stroke-dasharray="1.01 3.03" stroke="url(#bs)"/><path d="M716.8,51.9l.48.17" transform="translate(0.16 0.47)" fill="none" stroke-miterlimit="10" stroke="url(#bt)"/><path d="M720.17,32.68a1.49,1.49,0,0,0,2-.59,1.85,1.85,0,0,0-.74-2.5,2.3,2.3,0,0,0-3.12.92,2.87,2.87,0,0,0,1.15,3.9A3.6,3.6,0,0,0,724.34,33a4.5,4.5,0,0,0-1.81-6.09,5.61,5.61,0,0,0-7.61,2.25,7,7,0,0,0,2.82,9.52c4.26,2.32,7.48-1.52,11.9-3.52,8-3.63,12.26,5.3,28,6.77" transform="translate(0.16 0.47)" fill="none" stroke-miterlimit="10" stroke-width="0.75" stroke-dasharray="1 2" stroke="url(#bu)"/><g opacity="0.8"><polygon points="1490.18 101.51 1490.17 102.39 1490.55 102.62 1514.86 98.53 1514.87 97.65 1514.49 97.43 1490.18 101.51" fill="url(#bv)"/><polygon points="1490.24 95.51 1490.23 96.39 1490.61 96.61 1514.92 92.53 1514.92 91.65 1514.55 91.42 1490.24 95.51" fill="url(#bw)"/><polygon points="1490.57 89.45 1490.57 90.33 1490.94 90.56 1515.24 86.47 1515.25 85.59 1514.88 85.37 1490.57 89.45" fill="url(#bx)"/></g><g opacity="0.8"><path d="M1885,29.75l42.84-3.6L1926,54.71l-42.83,3.59Zm40.21,22.36,1.5-24.07.89-.88-.61-.79-1.07,1.07-39,3.28-1.08-.92-.68.94.77.65-1.56,24.94-.91,1,.64.75,1-1,40.09-3.37.69-.87-.59-.68Z" transform="translate(0.16 0.47)" fill="url(#by)"/><g style="isolation:isolate"><polygon points="1914.43 40.12 1914.8 40.54 1925.33 52.58 1925.92 53.26 1925.24 54.03 1925.16 54.12 1913.99 41.35 1913.66 40.97 1914.43 40.12" fill="url(#bz)"/><polygon points="1898.26 41.76 1898.9 42.51 1898.71 42.71 1885.14 57.5 1884.18 58.55 1883.54 57.79 1884.45 56.8 1897.97 42.08 1898.26 41.76" fill="url(#ca)"/><polygon points="1885.92 30.28 1886.99 31.2 1906.29 47.65 1926.04 27.92 1927.11 26.84 1927.71 27.63 1926.83 28.52 1914.8 40.54 1914.43 40.12 1913.66 40.97 1913.99 41.35 1906.22 49.12 1898.71 42.71 1898.9 42.51 1898.26 41.76 1897.97 42.08 1886.01 31.87 1885.24 31.21 1885.92 30.28" fill="url(#cb)"/></g></g><path d="M1069,48.94l28,20.22L1068.88,101Zm1.31,3.1-.07,45.28,24.45-27.67L1070.27,52Z" transform="translate(0.16 0.47)" fill="url(#cc)"/><path d="M1077.66,23.84c20.12-4.15,36.46,14.66,36.41,41.94s-16.44,52.86-36.56,57-36.47-14.65-36.43-41.94S1057.53,28,1077.66,23.84Zm-.15,95.38c18.66-3.85,33.88-27.57,33.92-52.89s-15.11-42.77-33.77-38.92-33.89,27.6-33.93,52.9,15.11,42.77,33.78,38.91Z" transform="translate(0.16 0.47)" fill="none" stroke-miterlimit="10" stroke="url(#cd)"/><path d="M729.71,135l-6.64,1.37.12-76.53,46.9-9.68v5.75a3.77,3.77,0,0,1,1-.17V48.52l-49,10.12L722,138l7.7-1.59A6.14,6.14,0,0,1,729.71,135Z" transform="translate(0.16 0.47)" fill="url(#ce)"/><path d="M722.39,136.5l-3.84-3.93.11-77.4,46.91-9.69v4.87a2.15,2.15,0,0,1,1-.24h0V43.85L717.62,54l-.12,79.36L722,138C722.35,137.73,722.28,136.29,722.39,136.5Z" transform="translate(0.16 0.47)" fill="url(#cf)"/><polygon points="720.27 57.93 720.06 56.48 764.85 47.46 766.67 49.91 765.74 50.88 764.38 49.05 720.27 57.93" fill="url(#cg)"/><polygon points="722.54 60.26 717.86 55.58 718.65 54.45 723.33 59.12 722.54 60.26" fill="url(#ch)"/><g opacity="0.8"><polygon points="768.43 96.48 768.43 97.89 750.66 101.56 750.66 100.15 768.43 96.48" fill="url(#ci)"/></g><path d="M744.25,89.52l29.66-6.12,0,19.49L744.22,109Zm29.11,12.76,0-18.07-28.62,5.91,0,18.07,28.61-5.91Z" transform="translate(0.16 0.47)" fill="url(#cj)"/><path d="M734.49,68l49-10.11-.12,79.36-49,10.12ZM782.32,136l.12-76.53-46.91,9.69-.11,76.53,46.9-9.69Z" transform="translate(0.16 0.47)" fill="url(#ck)"/><path d="M734.73,145.85l-3.84-3.94.12-77.4,46.9-9.68v4.86a2.14,2.14,0,0,1,1-.24h0V53.2L730,63.31l-.13,79.37,4.53,4.67C734.7,147.08,734.62,145.63,734.73,145.85Z" transform="translate(0.16 0.47)" fill="url(#cl)"/><g opacity="0.8"><polygon points="768.44 90.99 768.44 92.4 750.67 96.07 750.67 94.66 768.44 90.99" fill="url(#cm)"/></g><polygon points="732.61 67.28 732.4 65.82 777.2 56.8 779.01 59.25 778.09 60.23 776.73 58.39 732.61 67.28" fill="url(#cn)"/><polygon points="734.88 69.6 730.2 64.93 730.99 63.8 735.67 68.47 734.88 69.6" fill="url(#co)"/><polygon points="1129.28 78.37 1129.27 78.38 1129.27 78.38 1129.28 78.37" fill="#8c8d8e"/><path d="M1130.16,76.82,1130,77l-.1.11Z" transform="translate(0.16 0.47)" fill="#8c8d8e"/><path d="M1225.47,123.21l.36.18-.12-.07a2.6,2.6,0,0,0,1.67.31,4,4,0,0,0,3.15-3.86,2.89,2.89,0,0,0-1.84-2.88l.1,0,.07,0,.15.07-.36-.18-.23-.1-.35-.1-.11,0a2.66,2.66,0,0,0-.28,0h-.14a2.22,2.22,0,0,0-.44,0,2.44,2.44,0,0,0-.59.15l-.19.08a3.14,3.14,0,0,0-.37.18l-.21.13a3.81,3.81,0,0,0-.32.24l-.13.12a3.73,3.73,0,0,0-.34.35l-.07.08a4.26,4.26,0,0,0-.34.49s0,.09-.08.14a2.87,2.87,0,0,0-.18.4,2,2,0,0,0-.09.22,3,3,0,0,0-.12.43,1.33,1.33,0,0,0,0,.19,3.57,3.57,0,0,0-.06.65A2.94,2.94,0,0,0,1225.47,123.21Zm3-5.58a2.34,2.34,0,0,1,.31.24,2.5,2.5,0,0,1,.7,1.81,4.43,4.43,0,0,1-.06.51l0,.16-.06.23,0,.1a1.34,1.34,0,0,1-.07.18.94.94,0,0,1-.06.15.83.83,0,0,1-.09.16l-.06.12a.21.21,0,0,1,0,.06,1.61,1.61,0,0,1-.21.3l0,0-.21.24-.1.09-.11.09-.08.08-.17.11-.16.11-.06,0-.24.11-.14.06a1.91,1.91,0,0,1-.47.12,2.06,2.06,0,0,1-.35,0h-.11l-.22,0h0l-.06,0a1.12,1.12,0,0,1-.26-.08,1.59,1.59,0,0,1-.33-.25,2.46,2.46,0,0,1-.7-1.81,3.31,3.31,0,0,1,.74-2,2.86,2.86,0,0,1,1.75-1A2.17,2.17,0,0,1,1228.51,117.63Zm.26.12.09.06Zm.92,3.11a1.34,1.34,0,0,1-.07.18A1.34,1.34,0,0,0,1229.69,120.86Zm-.22.5-.06.11Zm-1,1.12-.16.11Zm-.45.25a.94.94,0,0,1-.15.06A.94.94,0,0,0,1228,122.73Zm-1.63.07.17,0Zm-1.51-.27a3,3,0,0,0,.32.39A3,3,0,0,1,1224.87,122.53Zm.33.41a2.45,2.45,0,0,0,.41.31A2.45,2.45,0,0,1,1225.2,122.94Zm1.63,0h0Zm1.88-.62.11-.09Zm1.08-1.76s0-.11,0-.16S1229.8,120.48,1229.79,120.53Zm-1.13-3.64a2.1,2.1,0,0,0-.51-.11l.17,0h0l.08,0A1.8,1.8,0,0,1,1228.66,116.89Zm-1.2-.1.44,0h.12a2.67,2.67,0,0,0-.56,0,3,3,0,0,0-.59.15A3,3,0,0,1,1227.46,116.79Zm-.78.23a3.14,3.14,0,0,0-.37.18l.07,0Zm-.58.32a2.26,2.26,0,0,0-.31.23l.1-.09A1.28,1.28,0,0,1,1226.1,117.34Zm-.45.35a3.89,3.89,0,0,0-.34.36l.21-.24A1.42,1.42,0,0,1,1225.65,117.69Zm-.44.46,0,0c-.12.15-.23.32-.34.49a.56.56,0,0,1,0-.08C1225,118.4,1225.12,118.27,1225.21,118.15Zm-.38.6a3.62,3.62,0,0,0-.19.4,1.46,1.46,0,0,1,.07-.19Zm-.28.63a2.9,2.9,0,0,0-.12.42c0-.1,0-.2.07-.3A.61.61,0,0,1,1224.55,119.38Zm-.17.62a4.48,4.48,0,0,0-.06.64,3.08,3.08,0,0,0,0,.61,3.08,3.08,0,0,1,0-.61A4.48,4.48,0,0,1,1224.38,120Zm.42,2.42a2.19,2.19,0,0,1-.25-.48A2.19,2.19,0,0,0,1224.8,122.42Zm-.26-.49a4.26,4.26,0,0,1-.15-.54A4.26,4.26,0,0,0,1224.54,121.93Z" transform="translate(0.16 0.47)" fill="url(#cp)"/><path d="M1222.35,56.42l.36.18,0,0a.31.31,0,0,0,.19,0l8.41-1.18a.4.4,0,0,0,.33-.4.32.32,0,0,0-.19-.31h0l-.36-.18a.29.29,0,0,0-.16,0l-8.42,1.18-.12,0h0a.28.28,0,0,0-.1.09h0a.35.35,0,0,0-.07.12h0a.4.4,0,0,0,0,.15A.31.31,0,0,0,1222.35,56.42Zm.24,0a.05.05,0,0,1,0,0A.05.05,0,0,0,1222.59,56.47Zm8.8-1.75h0a.25.25,0,0,0-.12,0Zm-8.5,1.18a.29.29,0,0,0-.13.05h0Zm-.17.07,0,0a.81.81,0,0,0-.1.09l0,0Zm-.1.11,0,0h0a.75.75,0,0,0-.07.12v0Zm0,.09a.32.32,0,0,0,0,.14.5.5,0,0,1,0-.12Z" transform="translate(0.16 0.47)" fill="url(#cq)"/><path d="M1227.44,103.66l.07-6,3.41-.48v-.74l-.37-.19-3,.43.14-11.93c-.35,0-.7.08-1.05.11l-.23,19.71.37.19,7.83-1.1v-.74l-.38-.19Z" transform="translate(0.16 0.47)" fill="url(#cr)"/><path d="M1745.81,81.16l.25,0Z" transform="translate(0.16 0.47)" fill="url(#cs)"/><path d="M1745,80.91l.4.13Z" transform="translate(0.16 0.47)" fill="url(#ct)"/><path d="M1744.21,80.61l.31.13Z" transform="translate(0.16 0.47)" fill="url(#cu)"/><path d="M1746.77,81.31h0Z" transform="translate(0.16 0.47)" fill="url(#cv)"/><path d="M1749.63,81.06l-.11,0Z" transform="translate(0.16 0.47)" fill="url(#cw)"/><path d="M1747.62,81.34h0Z" transform="translate(0.16 0.47)" fill="url(#cx)"/><path d="M1750.54,80.78l-.11,0Z" transform="translate(0.16 0.47)" fill="url(#cy)"/><path d="M1763.46,83.71l-.38-.19a8,8,0,0,0-.89-.39l-.17-.06-.9-.28-.45-.1-.57-.11-.53-.08c-.17,0-.35,0-.54-.06l-.57,0-.56,0h-1.21l-.59,0q-.36,0-.72.06c-.35,0-.69.07-1.05.12l-12.52,1.76h0l-.12,0h0a.4.4,0,0,0-.15,0l-.09,0-.15,0-.12,0-.18,0-.12,0-.6.18-.11,0-.62.23-.13,0-.56.24-.11.05-.63.3-.16.09-.48.26-.2.11-.55.35a.47.47,0,0,0-.09.06c-.21.14-.43.29-.64.45l-.17.13q-.26.19-.51.42l-.18.15c-.25.22-.5.45-.74.7a.86.86,0,0,0-.13.14c-.22.22-.43.46-.64.71a.69.69,0,0,1-.11.13c-.23.28-.44.58-.66.89,0,.07-.09.14-.13.22q-.32.47-.6,1s0,0,0,0c-.19.36-.37.74-.53,1.13,0,.1-.09.2-.13.3-.1.25-.19.51-.28.78a2.31,2.31,0,0,0-.1.28c-.07.2-.12.41-.18.62l-.11.38c0,.15-.06.31-.1.46s-.08.37-.12.57,0,.23,0,.34-.08.45-.11.69,0,.28,0,.42l-.06.67,0,.45c0,.32,0,.64,0,1v.18l.13.09a17.38,17.38,0,0,0,2.55,1.5l.38.19-.25-.13a27.3,27.3,0,0,0,16.22,2.82c5.71-.8,12.26-3.62,19-10.38l.11-.11,0-.16c0-.19.53-4.77-2.35-8a8.29,8.29,0,0,0-3.07-2.14C1763.06,83.53,1763.27,83.61,1763.46,83.71Zm-28,17.93-.32-.12-.42-.18-.28-.12-.46-.21-.18-.08-.3-.15a19.79,19.79,0,0,1-2.24-1.3c.24-12.5,10.53-14.11,11-14.17l12.52-1.76c3.5-.49,6.31-.18,8.43.9l.24.13A8.12,8.12,0,0,1,1765,86l.22.26.08.11c.11.15.22.29.32.44l.09.13,0,0,.2.33a1.18,1.18,0,0,0,.11.19l0,0c.05.09.09.17.13.26l.12.24a.17.17,0,0,0,0,0,2.44,2.44,0,0,0,.1.24l.09.23,0,.07c0,.09.05.17.08.25a1.72,1.72,0,0,1,.07.21l0,.08c0,.09,0,.18.07.26a1.8,1.8,0,0,1,.05.19.29.29,0,0,1,0,.09c0,.1,0,.19.07.28s0,.12,0,.17,0,.06,0,.08l.06.31a1,1,0,0,1,0,.17.09.09,0,0,1,0,0l.06.45a.17.17,0,0,0,0,.07h0c0,.18,0,.35,0,.52v.12c0,.15,0,.29,0,.42v.41a.37.37,0,0,1,0,.11V93c0,.1,0,.2,0,.26-.41.41-.81.8-1.22,1.17l-.43.4-.75.67,0,0-.24.2-.92.77-.42.32-.59.47a.91.91,0,0,0-.16.11l-.33.24-.78.56-.35.23-.22.16-.26.16-1.13.71a2.07,2.07,0,0,0-.25.15l-.15.08c-.45.26-.9.51-1.35.74h0c-.44.23-.88.44-1.31.64l-.11,0-.31.13-.86.36-.21.09-.26.1-.82.29-.27.1-.18,0-.89.28-.27.08-.07,0-1.24.3h0l-.2,0c-.34.08-.68.14-1,.2l-.16,0-.64.1-.8.1-.21,0-1,.07-.33,0h-.1l-1.44,0h-.25c-.46,0-.91,0-1.36-.07H1743c-.59,0-1.17-.12-1.72-.21h-.14l-.25,0-.69-.12-.44-.09-.68-.16-.27-.06-.09,0c-.47-.12-.92-.25-1.36-.39l-.26-.08c-.43-.14-.85-.28-1.24-.43h0Z" transform="translate(0.16 0.47)" fill="url(#cz)"/><path d="M1743.72,103.64l1,0Z" transform="translate(0.16 0.47)" fill="url(#da)"/><path d="M1741.83,103.43c.41.06.84.11,1.28.15C1742.67,103.54,1742.24,103.49,1741.83,103.43Z" transform="translate(0.16 0.47)" fill="url(#db)"/><path d="M1740.65,103.23c.16,0,.32.06.49.09C1741,103.29,1740.81,103.27,1740.65,103.23Z" transform="translate(0.16 0.47)" fill="url(#dc)"/><path d="M1739.29,102.94l.15,0,.33.07Z" transform="translate(0.16 0.47)" fill="url(#dd)"/><path d="M1737.83,102.54l1,.27Z" transform="translate(0.16 0.47)" fill="url(#de)"/><path d="M1736.46,102.08l.86.29C1737,102.28,1736.74,102.18,1736.46,102.08Z" transform="translate(0.16 0.47)" fill="url(#df)"/><path d="M1735.68,101.78l.12,0,.16.06Z" transform="translate(0.16 0.47)" fill="url(#dg)"/><path d="M1747.11,103.66h.07l.57,0Z" transform="translate(0.16 0.47)" fill="url(#dh)"/><path d="M1751,103.13c-.35.08-.69.14-1,.2C1750.29,103.27,1750.63,103.21,1751,103.13Z" transform="translate(0.16 0.47)" fill="url(#di)"/><path d="M1752.45,102.78l-1.24.31Z" transform="translate(0.16 0.47)" fill="url(#dj)"/><path d="M1753.69,102.4l-.9.28Z" transform="translate(0.16 0.47)" fill="url(#dk)"/><path d="M1755,102l-.81.29Z" transform="translate(0.16 0.47)" fill="url(#dl)"/><path d="M1767.56,91.47c0,.18,0,.35,0,.52C1767.59,91.83,1767.58,91.65,1767.56,91.47Z" transform="translate(0.16 0.47)" fill="url(#dm)"/><path d="M1767.49,90.94c0,.15,0,.3.06.45C1767.53,91.24,1767.52,91.09,1767.49,90.94Z" transform="translate(0.16 0.47)" fill="url(#dn)"/><path d="M1767.4,90.42l.06.31Z" transform="translate(0.16 0.47)" fill="url(#do)"/><path d="M1767.29,89.88l.06.28Z" transform="translate(0.16 0.47)" fill="url(#dp)"/><path d="M1767.14,89.35a2,2,0,0,1,.07.26A2,2,0,0,0,1767.14,89.35Z" transform="translate(0.16 0.47)" fill="url(#dq)"/><path d="M1767,88.81a2.25,2.25,0,0,1,.08.24A2.25,2.25,0,0,0,1767,88.81Z" transform="translate(0.16 0.47)" fill="url(#dr)"/><path d="M1766.74,88.26a2.44,2.44,0,0,1,.1.24A2.44,2.44,0,0,0,1766.74,88.26Z" transform="translate(0.16 0.47)" fill="url(#ds)"/><path d="M1766.47,87.71c0,.09.09.17.13.26C1766.56,87.88,1766.52,87.8,1766.47,87.71Z" transform="translate(0.16 0.47)" fill="url(#dt)"/><path d="M1766.15,87.15l.19.33Z" transform="translate(0.16 0.47)" fill="url(#du)"/><path d="M1764.46,85.28l.14.12Z" transform="translate(0.16 0.47)" fill="url(#dv)"/><path d="M1763.4,84.58l.18.1Z" transform="translate(0.16 0.47)" fill="url(#dw)"/><path d="M1766,87l-.32-.45Z" transform="translate(0.16 0.47)" fill="url(#dx)"/><path d="M1745.45,103.71l.71,0Z" transform="translate(0.16 0.47)" fill="url(#dy)"/><path d="M1730.6,98.11c0-.15,0-.3.05-.44,0,.22-.05.44-.07.67C1730.59,98.27,1730.59,98.19,1730.6,98.11Z" transform="translate(0.16 0.47)" fill="url(#dz)"/><path d="M1730.71,97.1l.09-.54c0,.23-.08.46-.11.69C1730.7,97.2,1730.7,97.15,1730.71,97.1Z" transform="translate(0.16 0.47)" fill="url(#ea)"/><path d="M1730.87,96.15c0-.17.07-.33.11-.5,0,.19-.09.37-.13.57A.64.64,0,0,1,1730.87,96.15Z" transform="translate(0.16 0.47)" fill="url(#eb)"/><path d="M1731.09,95.14l.09-.33c0,.13-.07.26-.1.39A.13.13,0,0,1,1731.09,95.14Z" transform="translate(0.16 0.47)" fill="url(#ec)"/><path d="M1731.38,94.12a1.31,1.31,0,0,1,.08-.21l-.1.28S1731.37,94.14,1731.38,94.12Z" transform="translate(0.16 0.47)" fill="url(#ed)"/><path d="M1731.8,93l.07-.14-.13.3Z" transform="translate(0.16 0.47)" fill="url(#ee)"/><path d="M1734.64,88.63l0,0-.13.14A.73.73,0,0,1,1734.64,88.63Z" transform="translate(0.16 0.47)" fill="url(#ef)"/><path d="M1732.43,91.66l0,0Z" transform="translate(0.16 0.47)" fill="url(#eg)"/><path d="M1733.16,90.46a1.53,1.53,0,0,0-.14.21A1.53,1.53,0,0,1,1733.16,90.46Z" transform="translate(0.16 0.47)" fill="url(#eh)"/><path d="M1733.93,89.43l-.12.14Z" transform="translate(0.16 0.47)" fill="url(#ei)"/><path d="M1735.49,87.82l.12-.09-.18.15Z" transform="translate(0.16 0.47)" fill="url(#ej)"/><path d="M1736.23,87.22l.06,0-.17.13Z" transform="translate(0.16 0.47)" fill="url(#ek)"/><path d="M1737,86.72l.08,0-.1.06Z" transform="translate(0.16 0.47)" fill="url(#el)"/><path d="M1737.65,86.28l.12-.07-.19.12Z" transform="translate(0.16 0.47)" fill="url(#em)"/><path d="M1738.36,85.89l.05,0-.16.09Z" transform="translate(0.16 0.47)" fill="url(#en)"/><path d="M1739.07,85.55l.09,0-.12,0Z" transform="translate(0.16 0.47)" fill="url(#eo)"/><path d="M1739.8,85.24h0l-.12,0Z" transform="translate(0.16 0.47)" fill="url(#ep)"/><path d="M1740.51,85h.06l-.11,0Z" transform="translate(0.16 0.47)" fill="url(#eq)"/><path d="M1741.2,84.77l.09,0-.12,0Z" transform="translate(0.16 0.47)" fill="url(#er)"/><path d="M1741.79,84.63h0l-.09,0Z" transform="translate(0.16 0.47)" fill="url(#es)"/><path d="M1741.59,84.67l-.12,0Z" transform="translate(0.16 0.47)" fill="url(#et)"/><path d="M1742.19,84.55h0Z" transform="translate(0.16 0.47)" fill="url(#eu)"/><path d="M1742,84.58h0Z" transform="translate(0.16 0.47)" fill="url(#ev)"/><path d="M1755.52,82.69l.24,0,.61,0c-.54,0-1.09.09-1.66.17Z" transform="translate(0.16 0.47)" fill="url(#ew)"/><path d="M1757.69,82.56c.14,0,.28,0,.41,0h.12q-.73,0-1.53,0h.39Z" transform="translate(0.16 0.47)" fill="url(#ex)"/><path d="M1758.85,82.59l.38,0,.19,0,.37,0c-.46-.06-.93-.09-1.42-.11Z" transform="translate(0.16 0.47)" fill="url(#ey)"/><path d="M1760.32,82.73l.16,0,.57.11.29.06a12.31,12.31,0,0,0-1.29-.24Z" transform="translate(0.16 0.47)" fill="url(#ez)"/><path d="M1761.5,83a8.57,8.57,0,0,1,.9.28l.15,0h0l.09,0a9.59,9.59,0,0,0-1.28-.41h0Z" transform="translate(0.16 0.47)" fill="url(#fa)"/><path d="M1738.63,73.8l0,.17.06.48a1.29,1.29,0,0,1,0,.19c0,.16.07.33.1.49l0,.13c0,.2.11.4.17.59l.06.17.15.42c0,.08.07.16.1.25l.14.32.15.31.14.26c.09.15.17.3.26.44l.1.16c.16.24.32.46.49.68l.14.16c.13.16.27.31.41.46l.12.12c.19.18.37.35.57.51l.13.1a5.74,5.74,0,0,0,.5.36l.18.12a7,7,0,0,0,.66.37l.38.2-.55-.31a8.15,8.15,0,0,0,5.45,1.07c5.42-.76,9.88-6.23,9.95-12.19a9.24,9.24,0,0,0-4.95-8.73l.16.08-.39-.2a6.76,6.76,0,0,0-.67-.29l-.18-.07c-.23-.08-.45-.15-.69-.21l-.12,0c-.22,0-.44-.1-.66-.13l-.33,0-.3,0a6.08,6.08,0,0,0-.61,0h-.14l-.47,0h-.19l-.54.06c-.32,0-.63.11-.94.18l-.12,0c-.29.08-.57.17-.85.27l-.12,0a8.58,8.58,0,0,0-.83.35l-.13.06c-.27.13-.53.28-.79.43l-.14.09c-.22.14-.44.28-.66.44l-.16.11q-.39.28-.75.6c-.16.14-.31.3-.46.45a2.81,2.81,0,0,0-.31.29c-.26.27-.52.56-.76.86l-.21.28c-.16.22-.33.43-.48.66l-.23.37c-.13.21-.26.42-.38.63l-.21.42c-.11.21-.21.43-.31.65s-.13.3-.19.45-.13.34-.19.52-.13.38-.19.57l-.09.31c-.08.29-.15.58-.21.88a.43.43,0,0,0,0,0q-.09.48-.15,1s0,.1,0,.15a9.24,9.24,0,0,0-.06,1.05c0,.22,0,.43,0,.65v.11C1738.59,73.38,1738.61,73.59,1738.63,73.8Zm.36-2.11s0-.1,0-.14a8.94,8.94,0,0,0-.06,1c0,.35,0,.69,0,1a1.64,1.64,0,0,0,0-.23v-.15c0-.14,0-.27,0-.4v-.25c0-.11,0-.22,0-.32S1739,71.88,1739,71.69Zm5.34,8.94-.32-.13a8.63,8.63,0,0,1-4.37-8c.06-5.54,4.21-10.62,9.24-11.33a7.7,7.7,0,0,1,4.3.59,5,5,0,0,1,.74.45l.22.16q.34.26.66.54l.13.12a7.1,7.1,0,0,1,.59.64l.08.11.18.24.26.36c.08.12.14.24.21.36l.09.15.06.1a5.6,5.6,0,0,1,.27.55c0,.1.09.21.14.32a.42.42,0,0,0,0,.1l0,.1c.06.17.12.33.17.5s.1.32.14.49v.09l.09.39c0,.16.06.32.08.49s0,.21,0,.32v.07s0,.06,0,.09,0,.33,0,.5,0,.34,0,.51v.23c0,.1,0,.2,0,.3s0,.36,0,.54,0,.09,0,.13a.77.77,0,0,0,0,.15l0,.3c0,.2-.07.41-.11.61h0v0c0,.2-.08.41-.13.61l-.06.21-.09.3c0,.08,0,.16-.07.25s-.07.18-.1.28-.11.32-.18.48a1.46,1.46,0,0,1-.07.19,2.4,2.4,0,0,1-.11.23c-.09.2-.18.41-.28.61l-.2.38c-.11.2-.23.4-.35.59s-.14.23-.22.34-.29.42-.44.62-.13.17-.2.26c-.22.27-.46.54-.71.8h0l-.28.27c-.14.13-.27.27-.42.4l0,0a7,7,0,0,1-.6.48l-.07.06-.16.11-.31.22-.3.18a.57.57,0,0,1-.13.08l-.07,0c-.16.1-.32.18-.49.27l-.17.08-.13.06-.16.08-.45.19-.15.06-.11,0-.2.07-.45.13-.15,0-.11,0-.2,0-.46.09-.22,0-.26,0-.24,0-.17,0H1747l-.54,0h0l-.27,0-.3,0h0l-.61-.13h0l-.08,0-.63-.2-.1,0Zm13.23-13.45a8.83,8.83,0,0,0-.33-1,1,1,0,0,1,0-.1,9.54,9.54,0,0,0-.44-.91A9,9,0,0,1,1757.56,67.18Zm-8.13-6.82.19,0h.21c-.31,0-.62,0-.94.08s-.63.11-.94.19l.21-.06.5-.09.23,0,.29,0ZM1756,64a6.89,6.89,0,0,0-.67-.75l-.13-.12c-.21-.19-.43-.37-.65-.54l-.09-.06A7.64,7.64,0,0,1,1756,64Z" transform="translate(0.16 0.47)" fill="url(#fb)"/><path d="M1739.17,70.42v0c-.06.33-.11.66-.14,1l0-.32C1739.09,70.85,1739.13,70.63,1739.17,70.42Z" transform="translate(0.16 0.47)" fill="url(#fc)"/><path d="M1739.33,69.71l.06-.24c-.08.29-.15.58-.21.88C1739.23,70.13,1739.27,69.92,1739.33,69.71Z" transform="translate(0.16 0.47)" fill="url(#fd)"/><path d="M1739.56,68.89c0-.1.07-.2.11-.3-.07.19-.13.38-.19.57C1739.51,69.07,1739.53,69,1739.56,68.89Z" transform="translate(0.16 0.47)" fill="url(#fe)"/><path d="M1746.77,81.31h0Z" transform="translate(0.16 0.47)" fill="url(#cv)"/><path d="M1745.81,81.16l.25,0Z" transform="translate(0.16 0.47)" fill="url(#cs)"/><path d="M1745,80.91l.4.13Z" transform="translate(0.16 0.47)" fill="url(#ct)"/><path d="M1744.21,80.61l.31.13Z" transform="translate(0.16 0.47)" fill="url(#cu)"/><path d="M1749.63,81.06l-.11,0Z" transform="translate(0.16 0.47)" fill="url(#cw)"/><path d="M1750.54,80.78l-.11,0Z" transform="translate(0.16 0.47)" fill="url(#cy)"/><path d="M1751.43,80.4l-.12,0Z" transform="translate(0.16 0.47)" fill="url(#fl)"/><path d="M1752.29,79.92l-.13.08Z" transform="translate(0.16 0.47)" fill="url(#fm)"/><path d="M1753.06,79.4l-.15.11Z" transform="translate(0.16 0.47)" fill="url(#fn)"/><path d="M1754.17,78.44a5.25,5.25,0,0,1-.42.4A5.25,5.25,0,0,0,1754.17,78.44Z" transform="translate(0.16 0.47)" fill="url(#fo)"/><path d="M1756.87,74.56c-.09.21-.19.41-.29.61C1756.68,75,1756.78,74.77,1756.87,74.56Z" transform="translate(0.16 0.47)" fill="url(#fp)"/><path d="M1757.22,73.66c0,.16-.11.32-.17.48C1757.11,74,1757.17,73.82,1757.22,73.66Z" transform="translate(0.16 0.47)" fill="url(#fq)"/><path d="M1757.48,72.84c0,.09,0,.19-.08.29C1757.43,73,1757.45,72.93,1757.48,72.84Z" transform="translate(0.16 0.47)" fill="url(#fr)"/><path d="M1757.69,72v0Z" transform="translate(0.16 0.47)" fill="url(#fs)"/><path d="M1757.84,70.9s0,.1,0,.15S1757.83,71,1757.84,70.9Z" transform="translate(0.16 0.47)" fill="url(#ft)"/><path d="M1756.59,64.86c-.13-.22-.28-.44-.43-.65l0,0C1756.29,64.38,1756.44,64.62,1756.59,64.86Z" transform="translate(0.16 0.47)" fill="url(#fu)"/><path d="M1757.63,67.51a8,8,0,0,1,.16.85A8,8,0,0,0,1757.63,67.51Z" transform="translate(0.16 0.47)" fill="url(#fv)"/><path d="M1754.25,62.37a6.82,6.82,0,0,0-.64-.39C1753.83,62.1,1754,62.23,1754.25,62.37Z" transform="translate(0.16 0.47)" fill="url(#fw)"/><path d="M1739.94,67.87a2.72,2.72,0,0,1,.11-.25c-.07.15-.13.3-.19.46Z" transform="translate(0.16 0.47)" fill="url(#fx)"/><path d="M1740.58,66.56c-.08.13-.15.27-.22.41C1740.43,66.83,1740.5,66.69,1740.58,66.56Z" transform="translate(0.16 0.47)" fill="url(#fy)"/><path d="M1741.19,65.55c-.09.12-.16.25-.24.37C1741,65.8,1741.1,65.67,1741.19,65.55Z" transform="translate(0.16 0.47)" fill="url(#fz)"/><path d="M1741.87,64.61l-.21.28Z" transform="translate(0.16 0.47)" fill="url(#ga)"/><path d="M1742.64,63.74l.3-.28-.31.29Z" transform="translate(0.16 0.47)" fill="url(#gb)"/><path d="M1744.07,62.47l.08-.06c-.25.19-.5.39-.75.61l0,0Z" transform="translate(0.16 0.47)" fill="url(#gc)"/><path d="M1744.65,62.06l.33-.2c-.23.14-.45.28-.67.44Z" transform="translate(0.16 0.47)" fill="url(#gd)"/><path d="M1745.71,61.44l.19-.1-.79.43.09-.05Z" transform="translate(0.16 0.47)" fill="url(#ge)"/><path d="M1746.7,61l.16-.06c-.28.11-.55.22-.82.35l.17-.08A4.25,4.25,0,0,1,1746.7,61Z" transform="translate(0.16 0.47)" fill="url(#gf)"/><path d="M1747.67,60.67l.16,0a8.34,8.34,0,0,0-.85.26l.21-.08Z" transform="translate(0.16 0.47)" fill="url(#gg)"/><path d="M1750.84,60.35h0a8.55,8.55,0,0,0-.88,0h.28Z" transform="translate(0.16 0.47)" fill="url(#gh)"/><path d="M1751.16,60.39l.3,0h0l.23,0a7.5,7.5,0,0,0-.81-.11Z" transform="translate(0.16 0.47)" fill="url(#gi)"/><path d="M1752.13,60.56h0l.09,0,.43.12c-.26-.08-.52-.15-.79-.21Z" transform="translate(0.16 0.47)" fill="url(#gj)"/><path d="M1752.74,60.74l.2.07.11,0,.08,0,.33.14C1753.22,60.92,1753,60.82,1752.74,60.74Z" transform="translate(0.16 0.47)" fill="url(#gk)"/><path d="M1757.89,69.93a9.77,9.77,0,0,0-.06-1.22A9.77,9.77,0,0,1,1757.89,69.93Z" transform="translate(0.16 0.47)" fill="url(#gl)"/><path d="M1754.47,78.16c.24-.25.48-.52.7-.8C1755,77.64,1754.71,77.91,1754.47,78.16Z" transform="translate(0.16 0.47)" fill="url(#gm)"/><path d="M1756,76.14c.12-.19.24-.39.35-.59C1756.27,75.75,1756.15,76,1756,76.14Z" transform="translate(0.16 0.47)" fill="url(#gn)"/><path d="M1755.37,77.1c.15-.2.3-.4.44-.61C1755.67,76.7,1755.52,76.9,1755.37,77.1Z" transform="translate(0.16 0.47)" fill="url(#go)"/><path d="M1747.62,81.34h0Z" transform="translate(0.16 0.47)" fill="url(#cx)"/><path d="M1743.13,80.91l-.05,0-.18-.12-.38-.27A6.58,6.58,0,0,0,1743.13,80.91Z" transform="translate(0.16 0.47)" fill="url(#gq)"/><path d="M1742.27,80.3a5.8,5.8,0,0,1-.52-.47,7.88,7.88,0,0,0,.62.55Z" transform="translate(0.16 0.47)" fill="url(#gr)"/><path d="M1741.59,79.67a5.48,5.48,0,0,1-.4-.44,6.77,6.77,0,0,0,.52.56Z" transform="translate(0.16 0.47)" fill="url(#gs)"/><path d="M1741.09,79.12l0-.07a7.79,7.79,0,0,1-.48-.65,8.11,8.11,0,0,0,.54.73Z" transform="translate(0.16 0.47)" fill="url(#gt)"/><path d="M1740.45,78.22c-.09-.15-.18-.29-.26-.44l0-.08,0-.08c.14.26.29.51.44.75v0Z" transform="translate(0.16 0.47)" fill="url(#gu)"/><path d="M1739.9,77.2a.41.41,0,0,1-.05-.09,2.29,2.29,0,0,0-.1-.23c0-.06,0-.12-.08-.19.11.27.23.53.36.79C1740,77.39,1739.94,77.3,1739.9,77.2Z" transform="translate(0.16 0.47)" fill="url(#gv)"/><path d="M1739.5,76.21l-.06-.17v0a1.46,1.46,0,0,1,0-.2,7.69,7.69,0,0,0,.28.85v0l0-.08Z" transform="translate(0.16 0.47)" fill="url(#gw)"/><path d="M1739.28,75.45a.61.61,0,0,1,0-.13l-.09-.36a.69.69,0,0,0,0-.13.29.29,0,0,0,0-.09,9,9,0,0,0,.22.93l-.06-.18Z" transform="translate(0.16 0.47)" fill="url(#gx)"/><path d="M1739.11,74.64c0-.07,0-.13,0-.2l0-.27a1.11,1.11,0,0,1,0-.17.22.22,0,0,1,0-.08c0-.06,0-.11,0-.17,0,.33.07.66.13,1C1739.12,74.7,1739.11,74.67,1739.11,74.64Z" transform="translate(0.16 0.47)" fill="url(#gy)"/><g opacity="0.6"><path d="M1415.53,49.83v-11H1410a17.73,17.73,0,0,0-1.13-2.81l3.9-3.9L1405,24.37l-3.88,3.87a18.55,18.55,0,0,0-2.83-1.18V21.59h-11v5.47a19.09,19.09,0,0,0-2.84,1.18l-3.87-3.87-7.77,7.76,3.91,3.9a18.77,18.77,0,0,0-1.14,2.81H1370v11h5.61a18.25,18.25,0,0,0,1.15,2.74l-4,4,7.77,7.76,4-4a17.91,17.91,0,0,0,2.71,1.11v5.68h11V61.41A17.91,17.91,0,0,0,1401,60.3l4,4,7.76-7.76-4-4a18.25,18.25,0,0,0,1.15-2.74Zm-5,6.71L1405,62.09l-3.72-3.72-.52.28a16.65,16.65,0,0,1-3.47,1.43l-.57.16v5.28h-7.85V60.24l-.57-.17a16.1,16.1,0,0,1-3.47-1.42l-.52-.28-3.72,3.72L1375,56.54l3.7-3.7-.29-.52a16.4,16.4,0,0,1-1.47-3.5l-.16-.56h-5.21V40.41h5.16l.16-.57a16.29,16.29,0,0,1,1.45-3.57l.29-.52L1375,32.13l5.55-5.54,3.6,3.6.52-.3a16.67,16.67,0,0,1,3.59-1.49l.57-.16V23.16h7.85v5.08l.57.16a16.47,16.47,0,0,1,3.59,1.49l.51.3,3.61-3.6,5.54,5.54-3.62,3.62.29.52a16.36,16.36,0,0,1,1.44,3.57l.16.57H1414v7.85h-5.21l-.16.56a16.84,16.84,0,0,1-1.47,3.5l-.29.52Z" transform="translate(0.16 0.47)" fill="url(#gz)"/><path d="M1392.78,35.71a8.63,8.63,0,1,0,8.63,8.63A8.64,8.64,0,0,0,1392.78,35.71Zm0,15.69a7.06,7.06,0,1,1,7.06-7.06A7.07,7.07,0,0,1,1392.78,51.4Z" transform="translate(0.16 0.47)" fill="url(#ha)"/></g><g opacity="0.6"><path d="M1378.55,97.83v-16h-8.08a26.28,26.28,0,0,0-1.65-4.09l5.68-5.67-11.3-11.3-5.64,5.64a25.75,25.75,0,0,0-4.12-1.72v-8h-16v8a25.48,25.48,0,0,0-4.13,1.72l-5.64-5.64-11.3,11.3,5.68,5.67a25.71,25.71,0,0,0-1.65,4.09h-8.07v16h8.15a26.89,26.89,0,0,0,1.67,4l-5.78,5.78,11.3,11.3,5.82-5.83a26,26,0,0,0,4,1.62v8.25h16v-8.25a26.27,26.27,0,0,0,3.94-1.62l5.82,5.83,11.3-11.3-5.78-5.78a26.28,26.28,0,0,0,1.67-4Zm-7.28,9.77-8.07,8.07-5.41-5.42-.75.42a24.09,24.09,0,0,1-5.06,2.07l-.83.24v7.68h-11.41V113l-.83-.24a23.57,23.57,0,0,1-5.06-2.07l-.75-.42-5.41,5.42-8.07-8.07,5.38-5.38-.43-.76a23.51,23.51,0,0,1-2.13-5.09l-.24-.82h-7.57V84.14h7.51l.23-.84a23.8,23.8,0,0,1,2.1-5.19l.42-.75-5.27-5.27,8.07-8.07,5.24,5.24.75-.43a23.84,23.84,0,0,1,5.23-2.17l.83-.24V59h11.41v7.39l.83.24a23.36,23.36,0,0,1,5.22,2.17l.76.43L1363.2,64l8.07,8.07L1366,77.36l.42.75a23.6,23.6,0,0,1,2.1,5.19l.23.84h7.51V95.55h-7.57l-.24.82a23.72,23.72,0,0,1-2.13,5.09l-.43.76Z" transform="translate(0.16 0.47)" fill="url(#hb)"/><path d="M1345.45,77.29A12.56,12.56,0,1,0,1358,89.84,12.57,12.57,0,0,0,1345.45,77.29Zm0,22.82a10.27,10.27,0,1,1,10.27-10.27A10.28,10.28,0,0,1,1345.45,100.11Z" transform="translate(0.16 0.47)" fill="url(#hc)"/></g><path d="M1954.71,33.2l58.9-5-2.46,39.26-58.89,4.93ZM2010,63.93l2.07-33.09,1.22-1.21-.84-1.09L2011,30l-53.68,4.51-1.48-1.26-.94,1.28,1.06.9-2.14,34.29-1.25,1.36.88,1,1.32-1.43,55.12-4.63,1-1.2-.82-.94Z" transform="translate(0.16 0.47)" fill="url(#hd)"/><g style="isolation:isolate"><polygon points="1995.18 47.28 1995.69 47.85 2010.16 64.41 2010.97 65.34 2010.03 66.4 2009.92 66.52 1994.58 48.97 1994.12 48.44 1995.18 47.28" fill="url(#he)"/><polygon points="1972.94 49.53 1973.82 50.56 1973.57 50.84 1954.9 71.17 1953.59 72.61 1952.7 71.57 1953.95 70.21 1972.54 49.96 1972.94 49.53" fill="url(#hf)"/><polygon points="1955.97 33.74 1957.45 35 1983.98 57.63 2011.13 30.49 2012.61 29.02 2013.44 30.1 2012.23 31.32 1995.69 47.85 1995.18 47.28 1994.12 48.44 1994.58 48.97 1983.89 59.65 1973.57 50.84 1973.82 50.56 1972.94 49.53 1972.54 49.96 1956.1 35.93 1955.04 35.03 1955.97 33.74" fill="url(#hg)"/></g><g opacity="0.8"><path d="M2034.83,47.21l70.44-5.92-2.95,47-70.42,5.9ZM2101,84l2.47-39.57,1.46-1.46-1-1.29-1.77,1.76-64.19,5.39-1.77-1.5L2035,48.83l1.27,1.08-2.57,41-1.49,1.63,1.06,1.23,1.57-1.71,65.92-5.54,1.13-1.44L2101,84Z" transform="translate(0.16 0.47)" fill="url(#hh)"/><g style="isolation:isolate"><polygon points="2083.2 63.96 2083.8 64.65 2101.11 84.44 2102.08 85.56 2100.96 86.82 2100.83 86.97 2082.47 65.98 2081.93 65.35 2083.2 63.96" fill="url(#hi)"/><polygon points="2056.6 66.65 2057.65 67.89 2057.35 68.22 2035.03 92.53 2033.45 94.25 2032.4 93.01 2033.89 91.39 2056.12 67.17 2056.6 66.65" fill="url(#hj)"/><polygon points="2036.31 47.77 2038.08 49.28 2069.8 76.34 2102.27 43.89 2104.04 42.12 2105.03 43.42 2103.58 44.87 2083.8 64.65 2083.2 63.96 2081.93 65.35 2082.47 65.98 2069.69 78.75 2057.35 68.22 2057.65 67.89 2056.6 66.65 2056.12 67.17 2036.45 50.39 2035.19 49.31 2036.31 47.77" fill="url(#hk)"/></g></g><polyline points="618.35 47.9 599.01 55.15 556.7 47.49 597.18 34.92 639.26 40.06 630.24 43.44" fill="none" stroke-miterlimit="10" stroke="url(#hl)"/><polygon points="627.87 46.46 627.68 44.4 603.69 42.16 620.94 46.92 621.13 49.03 599.19 57.2 556.86 49.56 557.15 52.72 582.79 57.03 582.5 75.1 601.12 78.88 619.26 71.8 615.61 54.07 621.39 51.88 622.19 60.85 625.63 54.99 628.87 57.59 628.12 49.32 639.7 44.94 639.45 42.12 627.87 46.46" fill="none" stroke-miterlimit="10" stroke="url(#hm)"/><polygon points="601.48 73.97 601.72 76.59 600.17 76.73 599.88 73.52 602.27 70.37 599.62 70.61 599.31 67.18 594.71 67.59 598.86 62.13 598.62 59.52 600.17 59.38 600.46 62.59 598.07 65.73 600.72 65.5 601.03 68.93 605.63 68.52 601.48 73.97" fill="url(#hn)"/><polyline points="1639.76 130.57 1623.37 131.23 1593.36 114.94 1627.02 115.52 1657.48 129.86 1649.84 130.17" fill="none" stroke-miterlimit="10" opacity="0.6" stroke="url(#ho)"/><polygon points="1647.29 131.85 1647.67 130.25 1630.13 122.6 1641.95 130.47 1641.57 132.12 1623 132.83 1592.97 116.54 1592.4 118.99 1610.67 128.62 1605.96 142.17 1619.06 149.66 1634.5 148.82 1636.16 134.55 1641.06 134.33 1639.44 141.3 1643.49 137.73 1645.28 140.49 1646.78 134.08 1656.6 133.65 1657.11 131.46 1647.29 131.85" fill="none" stroke-miterlimit="10" opacity="0.8" stroke="url(#hp)"/><polygon points="1620.55 146.05 1620.08 148.08 1618.88 147.8 1619.46 145.3 1622.05 143.53 1619.99 143.05 1620.61 140.38 1617.03 139.55 1621.52 136.46 1621.99 134.43 1623.19 134.71 1622.61 137.21 1620.03 138.98 1622.08 139.46 1621.46 142.13 1625.04 142.96 1620.55 146.05" fill="url(#hq)"/><polyline points="2265.79 71.03 2248.33 81.47 2205.96 81.52 2242.99 62.18 2284.68 59.73 2276.53 64.61" fill="none" stroke-miterlimit="10" stroke="url(#hr)"/><polygon points="2274.77 67.95 2274.22 65.99 2250.57 68.06 2268.13 69.62 2268.69 71.63 2248.87 83.43 2206.48 83.5 2207.32 86.51 2232.93 86.16 2235.85 103.72 2254.56 104.1 2270.89 94.03 2264.23 77.49 2269.44 74.36 2271.81 82.91 2274.11 76.61 2277.7 78.56 2275.52 70.68 2285.97 64.39 2285.23 61.7 2274.77 67.95" fill="none" stroke-miterlimit="10" stroke="url(#hs)"/><polygon points="2254.05 99.28 2254.74 101.78 2253.27 102.19 2252.42 99.12 2254.18 95.66 2251.65 96.35 2250.75 93.08 2246.36 94.29 2249.41 88.27 2248.72 85.78 2250.2 85.37 2251.05 88.43 2249.28 91.9 2251.81 91.2 2252.72 94.47 2257.11 93.26 2254.05 99.28" fill="url(#ht)"/><path d="M931,97.2l-2.89-13.47a6.7,6.7,0,0,0,2.71-5.26,4.9,4.9,0,0,0-5.76-5,6.87,6.87,0,0,0-5.76,6.58,4.93,4.93,0,0,0,2.39,4.33l-2.54,14.44Zm-8.06-14a3.56,3.56,0,0,1-2.09-3.33,5,5,0,0,1,4.21-4.8,3.57,3.57,0,0,1,4.21,3.61,4.94,4.94,0,0,1-2.38,4.12l-.54.34,2.74,12.77L921,97.05l2.4-13.64Z" transform="translate(0.16 0.47)" fill="url(#hu)"/><g opacity="0.8"><path d="M146.71,23.2l42.84-3.6-1.79,28.56-42.83,3.58Zm40.21,22.36,1.51-24.07.88-.89-.6-.79-1.08,1.08-39,3.28-1.08-.92-.68.93.77.66L146,49.78l-.9,1,.64.75,1-1,40.09-3.37.69-.88-.6-.67Z" transform="translate(0.16 0.47)" fill="url(#hv)"/><g style="isolation:isolate"><polygon points="176.19 33.57 176.56 33.99 187.08 46.03 187.67 46.71 186.99 47.48 186.91 47.56 175.75 34.8 175.42 34.42 176.19 33.57" fill="url(#hw)"/><polygon points="160.01 35.21 160.65 35.96 160.47 36.16 146.89 50.95 145.93 51.99 145.29 51.24 146.2 50.25 159.72 35.52 160.01 35.21" fill="url(#hx)"/><polygon points="147.67 23.73 148.75 24.64 168.04 41.1 187.79 21.36 188.86 20.29 189.47 21.08 188.58 21.96 176.56 33.99 176.19 33.57 175.42 34.42 175.75 34.8 167.98 42.57 160.47 36.16 160.65 35.96 160.01 35.21 159.72 35.52 147.76 25.32 146.99 24.66 147.67 23.73" fill="url(#hy)"/></g></g><g opacity="0.8"><path d="M216.46,26.64l58.91-4.95L272.9,61,214,65.89Zm55.3,30.74,2.06-33.09L275,23.07,274.21,22l-1.48,1.48L219.05,28l-1.48-1.26L216.64,28l1.05.9-2.14,34.28-1.25,1.36.88,1,1.32-1.43,55.12-4.63.95-1.21-.81-.93Z" transform="translate(0.16 0.47)" fill="url(#hz)"/><g style="isolation:isolate"><polygon points="256.94 40.73 257.44 41.3 271.91 57.86 272.73 58.79 271.79 59.84 271.68 59.97 256.33 42.41 255.88 41.89 256.94 40.73" fill="url(#ia)"/><polygon points="234.69 42.98 235.58 44.01 235.32 44.29 216.66 64.62 215.34 66.06 214.46 65.02 215.71 63.66 234.29 43.41 234.69 42.98" fill="url(#ib)"/><polygon points="217.73 27.19 219.21 28.45 245.74 51.08 272.89 23.94 274.36 22.46 275.19 23.55 273.98 24.77 257.44 41.3 256.94 40.73 255.88 41.89 256.33 42.41 245.64 53.1 235.32 44.29 235.58 44.01 234.69 42.98 234.29 43.41 217.85 29.38 216.79 28.47 217.73 27.19" fill="url(#ic)"/></g></g><g opacity="0.8"><path d="M296.58,40.66,367,34.74l-2.95,47-70.42,5.89ZM362.7,77.42l2.48-39.58,1.45-1.45-1-1.3-1.76,1.77-64.2,5.39-1.76-1.5-1.12,1.53,1.26,1.08-2.56,41L294,86l1.05,1.24,1.57-1.71L362.54,80l1.14-1.44-1-1.11Z" transform="translate(0.16 0.47)" fill="url(#id)"/><g style="isolation:isolate"><polygon points="344.95 57.41 345.55 58.1 362.86 77.89 363.83 79.01 362.71 80.27 362.58 80.42 344.23 59.42 343.68 58.8 344.95 57.41" fill="url(#ie)"/><polygon points="318.35 60.1 319.41 61.34 319.1 61.67 296.78 85.98 295.21 87.7 294.15 86.46 295.64 84.83 317.87 60.62 318.35 60.1" fill="url(#if)"/><polygon points="298.06 41.22 299.83 42.73 331.56 69.78 364.02 37.34 365.79 35.57 366.79 36.87 365.33 38.32 345.55 58.1 344.95 57.41 343.68 58.8 344.23 59.42 331.45 72.2 319.1 61.67 319.41 61.34 318.35 60.1 317.87 60.62 298.21 43.83 296.94 42.76 298.06 41.22" fill="url(#ig)"/></g></g><polygon points="1482.18 76.96 1522.93 70.09 1522.3 110.11 1492.18 114.92 1481.55 128.71 1482.18 76.96" fill="none" stroke-miterlimit="10" opacity="0.8" stroke="url(#ih)"/><path d="M1210.86,50.58l31.08-4.7a6.54,6.54,0,0,1,7.52,6.54l-.65,65.9a6.54,6.54,0,0,1-5.53,6.4l-30.44,4.73a6.54,6.54,0,0,1-7.54-6.47V57.05A6.55,6.55,0,0,1,1210.86,50.58Z" transform="translate(0.16 0.47)" fill="none" stroke-miterlimit="10" stroke="url(#ii)"/><line x1="1205.45" y1="64.66" x2="1249.62" y2="58.46" fill="none" stroke-miterlimit="10" stroke="url(#ij)"/><line x1="1205.45" y1="116.17" x2="1249.06" y2="109.7" fill="none" stroke-miterlimit="10" stroke="url(#ik)"/><ellipse cx="1227.16" cy="77.18" rx="6.69" ry="8.03" fill="none" stroke-miterlimit="10" stroke="url(#il)"/><polygon points="901.41 112.18 947.17 102.77 946.52 63.95 936.73 58.67 893.03 67.21 892.38 106.96 901.41 112.18" fill="none" stroke-miterlimit="10" opacity="0.8" stroke="url(#im)"/><polyline points="893.03 67.21 902.02 71.84 946.52 63.95" fill="none" stroke-miterlimit="10" opacity="0.8" stroke="url(#in)"/><line x1="901.41" y1="112.18" x2="902.02" y2="71.84" fill="none" stroke-miterlimit="10" opacity="0.8" stroke="url(#io)"/><path d="M933.44,42.21c-.54-1.12-2.29-13.56-16.59-10.23-14,3.26-14.82,33.1-13.84,34.3s4.28,2,4.28.64c0-3.5-.68-33.93,14.44-33.79s13.21,19.07,13.2,29c0,1.33-4.77.7-4.91-.28s3.17-22.5-3-27.7" transform="translate(0.16 0.47)" fill="#333" stroke-miterlimit="10" opacity="0.8" stroke="url(#ip)"/><polygon points="1749.41 0.53 1759.84 10.13 1760.22 10.32 1760.7 9.7 1750.74 0.53 1749.41 0.53" fill="url(#iq)"/><polygon points="1749.32 0.53 1747.91 0.53 1738.27 12.34 1738.75 12.81 1739.13 13 1748.51 1.51 1748.25 23.75 1748.63 23.94 1749.32 23.84 1749.59 0.76 1749.26 0.59 1749.32 0.53" fill="url(#ir)"/><polygon points="1699.64 30.13 1714.28 44.37 1713.79 44.97 1713.4 44.78 1699.25 31.02 1699.08 45.85 1698.39 45.95 1698.01 45.76 1698.2 29.2 1713.98 26.58 1714.36 26.77 1714.36 27.53 1699.4 30.01 1699.64 30.13" fill="url(#is)"/><polygon points="1698.04 86.19 1698.03 86.94 1677.21 89.87 1686.73 99.13 1686.24 99.73 1685.85 99.54 1675.35 89.33 1686.39 75.24 1686.77 75.43 1687.27 75.89 1677.08 88.89 1697.66 85.99 1698.04 86.19" fill="url(#it)"/><path d="M1698.12,124.59l-.69.11.17,17.3.38.19,15-2.11v-.76l-.38-.19-13,1.83,14.69-18-.48-.47-.38-.19-14.8,18.12-.15-15.65Z" transform="translate(0.16 0.47)" fill="url(#iu)"/><polygon points="1698.82 141.42 1698.95 141.55 1698.82 141.57 1698.82 141.42" fill="url(#iv)"/><polygon points="1737.18 147.55 1747.65 157.2 1747.75 157.09 1747.41 156.92 1747.68 133.84 1748.38 133.74 1748.76 133.93 1748.5 156.17 1757.88 144.68 1758.26 144.87 1758.74 145.34 1747.96 158.55 1747.58 158.35 1736.31 147.98 1736.79 147.36 1737.18 147.55" fill="url(#iw)"/><path d="M1799.19,31.28l.2-16.55-.38-.19-15.77,1.81,0,.76.38.19,14.26-1.64L1782.9,34l.49.47.38.19,14.52-17.79-.17,14.34.38.19Z" transform="translate(0.16 0.47)" fill="url(#ix)"/><polygon points="1798.21 16.11 1798.46 16.08 1798.46 16.24 1798.21 16.11" fill="url(#iy)"/><polygon points="1809.9 82.11 1809.41 81.64 1818.95 69.95 1798.74 72.79 1798.36 72.6 1798.37 71.84 1819.35 68.89 1819.68 69.06 1819.71 69.03 1809.42 58.47 1809.93 57.88 1810.32 58.07 1821.06 69.09 1810.28 82.3 1809.9 82.11" fill="url(#iz)"/><polygon points="1781.51 113.24 1781.89 113.43 1796.3 127.44 1796.83 111.22 1797.52 111.13 1797.9 111.33 1797.33 128.73 1782.28 130.84 1781.89 130.65 1781.9 129.89 1795.55 127.97 1781.01 113.84 1781.51 113.24" fill="url(#ja)"/><path d="M410.68,36,415,39.73l2.13-2.44a10.13,10.13,0,0,0,2.3.8l.22,3.2,5.67-.39-.22-3.18a10.13,10.13,0,0,0,2.21-1.1l2.4,2.1,3.73-4.29L431,32.34a10,10,0,0,0,.78-2.33l3.18-.22-.38-5.67-3.21.22a9.92,9.92,0,0,0-1.1-2.18l2.13-2.43L428.11,16,426,18.45a10.5,10.5,0,0,0-2.28-.75l-.22-3.27-5.68.39.23,3.29a9.77,9.77,0,0,0-2.12,1.06L413.41,17l-3.74,4.29,2.49,2.17a10.11,10.11,0,0,0-.76,2.25l-3.29.22.39,5.67,3.26-.22a10.48,10.48,0,0,0,1.06,2.15Z" transform="translate(0.16 0.47)" fill="none" stroke-miterlimit="10" stroke-dasharray="1 1" stroke="url(#jb)"/><circle cx="421.29" cy="28.33" r="4.74" fill="none" stroke-miterlimit="10" stroke-dasharray="1 1" stroke="url(#jc)"/><path d="M469.09,38.41,475.54,44l3.19-3.66a15.25,15.25,0,0,0,3.46,1.19l.33,4.82,8.53-.58L490.72,41A15.77,15.77,0,0,0,494,39.37l3.61,3.15,5.62-6.45-3.61-3.15a15.41,15.41,0,0,0,1.17-3.51l4.79-.32L505,20.56l-4.81.33a15.25,15.25,0,0,0-1.66-3.27l3.2-3.66-6.45-5.62L492.09,12a15.85,15.85,0,0,0-3.43-1.13L488.32,6l-8.53.58.34,4.95a15.36,15.36,0,0,0-3.19,1.6l-3.75-3.27-5.61,6.45,3.74,3.26A16.14,16.14,0,0,0,470.17,23l-4.94.33.58,8.53,4.91-.33a15.7,15.7,0,0,0,1.59,3.24Z" transform="translate(0.16 0.47)" fill="none" stroke-miterlimit="10" stroke-dasharray="1 1" stroke="url(#jd)"/><circle cx="485.18" cy="26.66" r="7.13" fill="none" stroke-miterlimit="10" stroke-dasharray="1 1" stroke="url(#je)"/><path d="M363.05.55,363.29,4l6.9-.47a21.8,21.8,0,0,0,2.23,4.55l-4.53,5.19L377,21.19l4.48-5.14a22.12,22.12,0,0,0,4.87,1.68l.46,6.76,12-.82L398.29,17A22.47,22.47,0,0,0,403,14.64L408,19.06l7.89-9-5.07-4.42A22.16,22.16,0,0,0,412.49.66L414,.55" transform="translate(0.16 0.47)" fill="none" stroke-miterlimit="10" stroke-dasharray="1 1" stroke="url(#jf)"/><path d="M381.86.55a10.08,10.08,0,0,0,2.4,3.12,10,10,0,0,0,14.12-1A9.88,9.88,0,0,0,399.8.55" transform="translate(0.16 0.47)" fill="none" stroke-miterlimit="10" stroke-dasharray="1 1" stroke="url(#jg)"/><path d="M504.75.55l-.34.38L506.9,3.1a10.29,10.29,0,0,0-.76,2.25l-3.29.23.39,5.67L506.5,11a10.55,10.55,0,0,0,1.06,2.16l-2.14,2.46,4.29,3.73,2.12-2.43a10.61,10.61,0,0,0,2.3.79l.22,3.2,5.67-.39-.22-3.18A10.56,10.56,0,0,0,522,16.27l2.4,2.09,3.73-4.28-2.4-2.1a9.83,9.83,0,0,0,.78-2.33l3.19-.22-.39-5.67-3.2.22A10.34,10.34,0,0,0,525,1.81l1.1-1.26" transform="translate(0.16 0.47)" fill="none" stroke-miterlimit="10" stroke-dasharray="1 1" stroke="url(#jh)"/><circle cx="516.43" cy="7.98" r="4.74" fill="none" stroke-miterlimit="10" stroke-dasharray="1 1" stroke="url(#ji)"/><g opacity="0.6"><path d="M436.07,57.46l6.65,5.8,2.93-3.36a14.22,14.22,0,0,0,2.3.79l.3,4.43,8.8-.61-.3-4.39A13.79,13.79,0,0,0,459,59l3.32,2.9,5.8-6.66-3.32-2.89a14,14,0,0,0,.79-2.34l4.39-.3-.6-8.8-4.43.3a14.74,14.74,0,0,0-1.1-2.17l2.93-3.36-6.65-5.8-3,3.4a13.41,13.41,0,0,0-2.27-.75L454.55,28l-8.8.61.31,4.53a14.76,14.76,0,0,0-2.1,1.06l-3.44-3-5.79,6.66,3.43,3a14.31,14.31,0,0,0-.76,2.23l-4.53.31.6,8.8,4.5-.31A14.19,14.19,0,0,0,439,54.06Zm-1.43-6.57-.43-6.29,4.22-.29.1-.46a13,13,0,0,1,1-2.86l.2-.43-3.2-2.79L440.65,33l3.19,2.79.4-.26a13.1,13.1,0,0,1,2.7-1.35l.44-.16-.28-4.22,6.28-.43.29,4.19.47.1a13,13,0,0,1,2.89,1l.43.2,2.75-3.15L465,35.82,462.24,39l.26.4a13.53,13.53,0,0,1,1.4,2.76l.16.44,4.1-.28.44,6.29-4.09.28-.09.47a13.21,13.21,0,0,1-1,3l-.21.43,3.08,2.69-4.14,4.75-3.08-2.69-.4.26a13,13,0,0,1-2.8,1.39l-.45.16.28,4.08-6.29.43-.28-4.1-.46-.1a13.23,13.23,0,0,1-2.93-1l-.43-.21-2.72,3.13-4.75-4.14,2.74-3.15-.25-.4A12.92,12.92,0,0,1,439,51.05l-.16-.45Z" transform="translate(0.16 0.47)" fill="url(#jj)"/><path d="M456.63,51.14a6.93,6.93,0,1,0-9.78.67A7,7,0,0,0,456.63,51.14Zm-9.5-8.29a5.67,5.67,0,1,1,.55,8A5.69,5.69,0,0,1,447.13,42.85Z" transform="translate(0.16 0.47)" fill="url(#jk)"/></g><g opacity="0.6"><path d="M467.23.05h-1.92a18,18,0,0,1-.74,1.83l-.29.62,4.48,3.91-6,6.91-4.48-3.9-.58.37a18.83,18.83,0,0,1-4.07,2l-.66.23.41,5.94-9.15.63-.41-6-.67-.15A19.4,19.4,0,0,1,438.86,11l-.62-.3-4,4.55-6.91-6,4-4.59L431,4.08a19.08,19.08,0,0,1-2-4l0,0h-8.14L421,1.82l6.55-.45a22.54,22.54,0,0,0,1.53,3.12l-4.3,4.93,9.68,8.44L438.71,13a21.11,21.11,0,0,0,3.35,1.16l.44,6.43,12.8-.87-.43-6.4a20.38,20.38,0,0,0,3.21-1.59l4.83,4.21,8.44-9.68L466.52,2A17.12,17.12,0,0,0,467.23.05Z" transform="translate(0.16 0.47)" fill="url(#jl)"/><path d="M452.22.05A8.26,8.26,0,0,1,442,.05h-2.59a10.7,10.7,0,0,0,1.09,1.15,10.11,10.11,0,0,0,14.24-1l.13-.17Z" transform="translate(0.16 0.47)" fill="url(#jm)"/></g><path d="M2112,.48a11.49,11.49,0,0,0,.06,2.49l-3.14,1.41,2.43,5.43,3.13-1.4a10.67,10.67,0,0,0,1.82,1.73l-1.22,3.19,5.56,2.12,1.2-3.16a10.85,10.85,0,0,0,2.55,0l1.38,3.06,5.43-2.43-1.37-3A10.53,10.53,0,0,0,2131.62,8l3.11,1.19,2.12-5.56-3.12-1.19a3.82,3.82,0,0,0-.06-1.47" transform="translate(0.16 0.47)" fill="none" stroke-miterlimit="10" stroke-dasharray="1 1" stroke="url(#jn)"/><path d="M2118.11-.08a4.95,4.95,0,0,0,9.34,3.26,4.93,4.93,0,0,0,.07-3.26" transform="translate(0.16 0.47)" fill="none" stroke-miterlimit="10" stroke-dasharray="1 1" stroke="url(#jo)"/><path d="M2150.05,48.61l4.18,1.59.91-2.37a8.12,8.12,0,0,0,1.91,0l1,2.3,4.08-1.83-1-2.29a8.41,8.41,0,0,0,1.33-1.4l2.34.89,1.59-4.18-2.34-.9a7.77,7.77,0,0,0-.06-1.93l2.29-1-1.83-4.09-2.3,1a8,8,0,0,0-1.41-1.31l.91-2.37-4.18-1.6-.92,2.4a8.52,8.52,0,0,0-1.89.06l-1-2.35L2149.55,31l1.06,2.37a7.94,7.94,0,0,0-1.28,1.37l-2.43-.93L2145.3,38l2.43.93a8.35,8.35,0,0,0,.05,1.87l-2.37,1.06,1.83,4.08,2.36-1.05a8,8,0,0,0,1.36,1.3Z" transform="translate(0.16 0.47)" fill="none" stroke-miterlimit="10" stroke-width="0.5" stroke-dasharray="1 1" stroke="url(#jp)"/><circle cx="2156.02" cy="40.12" r="3.73" fill="none" stroke-miterlimit="10" stroke-width="0.5" stroke-dasharray="1 1" stroke="url(#jq)"/><g opacity="0.6"><path d="M2147.9.75c.22-.29.46-.55.7-.83h-4.22l3.23,1.23Z" transform="translate(0.16 0.47)" fill="url(#jr)"/><path d="M2174.07,7.27l4.21-1.88-2.45-5.47h-1.44l2.15,4.8-3.91,1.75.07.5a13.73,13.73,0,0,1,.1,3.27l0,.5,4,1.52-2.35,6.17-4-1.53-.3.4a13.75,13.75,0,0,1-2.25,2.38l-.38.32,1.75,3.91-6,2.7-1.77-3.93-.49.07a14,14,0,0,1-3.24.06l-.49,0-1.55,4.06-6.17-2.35,1.56-4.09-.39-.3a13.38,13.38,0,0,1-2.31-2.2l-.32-.38-4,1.8-2.7-6,4-1.81-.07-.49a13.85,13.85,0,0,1-.08-3.16l.05-.5-4.15-1.58,2.21-5.82h-1.41L2139.4,6.5l4.46,1.7a15.59,15.59,0,0,0,.06,2.47l-4.34,1.94,3.78,8.43,4.31-1.93a14.73,14.73,0,0,0,1.81,1.72l-1.68,4.41,8.63,3.29,1.66-4.37a14.41,14.41,0,0,0,2.55-.05l1.9,4.24,8.43-3.78-1.88-4.21a14.28,14.28,0,0,0,1.77-1.87l4.31,1.64,3.29-8.63-4.31-1.64A14.89,14.89,0,0,0,2174.07,7.27Z" transform="translate(0.16 0.47)" fill="url(#js)"/><path d="M2165.71,11.58a7.25,7.25,0,1,0-9.37,4.2A7.25,7.25,0,0,0,2165.71,11.58Zm-12.33-4.69a5.94,5.94,0,1,1,3.43,7.66A5.94,5.94,0,0,1,2153.38,6.89Z" transform="translate(0.16 0.47)" fill="url(#jt)"/></g></svg>