<svg xmlns="http://www.w3.org/2000/svg" xmlns:xlink="http://www.w3.org/1999/xlink" width="770" height="100.86" viewBox="0 0 770 100.86"><defs><linearGradient id="a" x1="24.6" y1="53.94" x2="59.61" y2="53.94" gradientUnits="userSpaceOnUse"><stop offset="0" stop-color="#0971b7" stop-opacity="0.75"/><stop offset="1" stop-color="#60bcd8"/></linearGradient><linearGradient id="b" x1="46.04" y1="39.86" x2="89.82" y2="39.86" gradientUnits="userSpaceOnUse"><stop offset="0" stop-color="#b51918"/><stop offset="1" stop-color="#ec663b" stop-opacity="0.75"/></linearGradient><linearGradient id="c" x1="55.44" y1="28" x2="81.47" y2="28" xlink:href="#b"/><linearGradient id="d" x1="55.44" y1="33.97" x2="81.47" y2="33.97" xlink:href="#b"/><linearGradient id="e" x1="55.44" y1="39.85" x2="81.47" y2="39.85" xlink:href="#b"/><linearGradient id="f" x1="32.53" y1="44.3" x2="52.78" y2="44.3" xlink:href="#a"/><linearGradient id="g" x1="32.53" y1="48.95" x2="52.78" y2="48.95" xlink:href="#a"/><linearGradient id="h" x1="32.53" y1="53.51" x2="52.78" y2="53.51" xlink:href="#a"/><linearGradient id="i" x1="9.66" y1="72.98" x2="27.75" y2="72.98" xlink:href="#b"/><linearGradient id="j" x1="9.71" y1="68.82" x2="27.79" y2="68.82" xlink:href="#b"/><linearGradient id="k" x1="9.93" y1="64.63" x2="28.02" y2="64.63" xlink:href="#b"/><linearGradient id="l" x1="3.69" y1="72.99" x2="33.34" y2="72.99" xlink:href="#b"/><linearGradient id="m" x1="193.45" y1="50" x2="249.03" y2="50" gradientUnits="userSpaceOnUse"><stop offset="0" stop-color="#0971b7" stop-opacity="0.75"/><stop offset="1" stop-color="#9060a4"/></linearGradient><linearGradient id="n" x1="220.17" y1="57.07" x2="228.38" y2="57.07" xlink:href="#b"/><linearGradient id="o" x1="198.59" y1="50" x2="243.76" y2="50" gradientUnits="userSpaceOnUse"><stop offset="0" stop-color="#00765f" stop-opacity="0.75"/><stop offset="1" stop-color="#59b153"/></linearGradient><linearGradient id="p" x1="199.02" y1="24.04" x2="243.33" y2="24.04" xlink:href="#a"/><linearGradient id="q" x1="199.02" y1="75.41" x2="242.77" y2="75.41" xlink:href="#a"/><linearGradient id="r" x1="213.6" y1="39.65" x2="227.99" y2="39.65" xlink:href="#b"/><linearGradient id="s" x1="679.42" y1="44.24" x2="643.8" y2="62.61" xlink:href="#o"/><linearGradient id="t" x1="686.1" y1="57.2" x2="650.48" y2="75.57" xlink:href="#o"/><linearGradient id="u" x1="697.2" y1="78.72" x2="661.58" y2="97.09" xlink:href="#o"/><linearGradient id="v" x1="11244.81" y1="12051.6" x2="11285.53" y2="12051.6" gradientTransform="translate(11484.06 12565.89) rotate(-177.79)" xlink:href="#a"/><linearGradient id="w" x1="684.87" y1="7.38" x2="668.52" y2="25.13" gradientUnits="userSpaceOnUse"><stop offset="0" stop-color="#f8ad1b"/><stop offset="1" stop-color="#f6e950" stop-opacity="0.75"/></linearGradient><linearGradient id="x" x1="690.93" y1="12.97" x2="674.58" y2="30.71" xlink:href="#w"/><linearGradient id="y" x1="701.72" y1="22.91" x2="685.37" y2="40.66" xlink:href="#w"/><linearGradient id="z" x1="11227.52" y1="12131.81" x2="11261.49" y2="12131.81" gradientTransform="translate(11484.06 12565.89) rotate(-177.79)" xlink:href="#b"/><linearGradient id="aa" x1="705.22" y1="54.93" x2="742.8" y2="54.93" xlink:href="#m"/><linearGradient id="ab" x1="701.76" y1="53.15" x2="739.34" y2="53.15" xlink:href="#m"/><linearGradient id="ac" x1="703.6" y1="24.15" x2="739.26" y2="24.15" xlink:href="#m"/><linearGradient id="ad" x1="701.91" y1="27.71" x2="706.1" y2="27.71" xlink:href="#m"/><linearGradient id="ae" x1="727.01" y1="59.6" x2="740.61" y2="59.6" xlink:href="#w"/><linearGradient id="af" x1="722.21" y1="57.18" x2="744.93" y2="57.18" xlink:href="#b"/><linearGradient id="ag" x1="714.67" y1="62.09" x2="752.25" y2="62.09" xlink:href="#o"/><linearGradient id="ah" x1="711.2" y1="60.3" x2="748.79" y2="60.3" xlink:href="#o"/><linearGradient id="ai" x1="727.02" y1="55.39" x2="740.62" y2="55.39" xlink:href="#w"/><linearGradient id="aj" x1="713.04" y1="31.3" x2="748.71" y2="31.3" xlink:href="#o"/><linearGradient id="ak" x1="711.35" y1="34.86" x2="715.54" y2="34.86" xlink:href="#o"/><linearGradient id="al" x1="414.66" y1="99.92" x2="454.81" y2="99.92" xlink:href="#b"/><linearGradient id="am" x1="414.66" y1="82.84" x2="454.81" y2="82.84" xlink:href="#b"/><linearGradient id="an" x1="414.66" y1="66.63" x2="454.81" y2="66.63" xlink:href="#b"/><linearGradient id="ao" x1="414.66" y1="49.12" x2="454.81" y2="49.12" xlink:href="#b"/><linearGradient id="ap" x1="414.66" y1="32.41" x2="454.81" y2="32.41" xlink:href="#b"/><linearGradient id="aq" x1="414.66" y1="67.11" x2="454.81" y2="67.11" xlink:href="#b"/><linearGradient id="ar" x1="414.66" y1="99.87" x2="454.81" y2="99.87" xlink:href="#b"/><linearGradient id="as" x1="365.84" y1="50.03" x2="401.14" y2="50.03" xlink:href="#b"/><linearGradient id="at" x1="452.12" y1="50.03" x2="487.42" y2="50.03" xlink:href="#b"/><linearGradient id="au" x1="450.05" y1="64" x2="465.45" y2="64" xlink:href="#m"/><linearGradient id="av" x1="434.58" y1="63.1" x2="475.05" y2="63.1" xlink:href="#o"/><linearGradient id="aw" x1="-1702.18" y1="4344.13" x2="-1681.92" y2="4344.13" gradientTransform="matrix(0.54, 0.84, 0.84, -0.54, -2170.09, 3810.83)" xlink:href="#w"/><linearGradient id="ax" x1="-1695.91" y1="4344.13" x2="-1688.19" y2="4344.13" gradientTransform="matrix(0.54, 0.84, 0.84, -0.54, -2170.09, 3811.45)" xlink:href="#w"/><linearGradient id="ay" x1="-1729.25" y1="4329.76" x2="-1698.89" y2="4329.76" gradientTransform="matrix(0.54, 0.84, 0.84, -0.54, -2170.09, 3810.83)" xlink:href="#o"/><linearGradient id="az" x1="-1719.81" y1="4329.76" x2="-1708.33" y2="4329.76" gradientTransform="matrix(0.54, 0.84, 0.84, -0.54, -2170.09, 3811.45)" xlink:href="#o"/><linearGradient id="ba" x1="623.33" y1="0.43" x2="626.9" y2="0.43" xlink:href="#b"/><linearGradient id="bb" x1="592.67" y1="17.09" x2="636.03" y2="17.09" xlink:href="#b"/><linearGradient id="bc" x1="-1693.44" y1="4397.24" x2="-1677.71" y2="4397.24" gradientTransform="matrix(0.54, 0.84, 0.84, -0.54, -2170.09, 3811.45)" xlink:href="#b"/><linearGradient id="bd" x1="511.97" y1="9" x2="533.12" y2="9" xlink:href="#m"/><linearGradient id="be" x1="519.31" y1="0.42" x2="522.68" y2="0.42" xlink:href="#m"/><linearGradient id="bf" x1="-1743.4" y1="4322.72" x2="-1735.43" y2="4322.72" gradientTransform="matrix(0.54, 0.84, 0.84, -0.54, -2170.09, 3811.45)" xlink:href="#m"/><linearGradient id="bg" x1="-1733.86" y1="4365.19" x2="-1694.73" y2="4365.19" gradientTransform="matrix(0.54, 0.84, 0.84, -0.54, -2170.09, 3810.83)" xlink:href="#m"/><linearGradient id="bh" x1="-1721.7" y1="4365.67" x2="-1706.87" y2="4365.67" gradientTransform="matrix(0.54, 0.84, 0.84, -0.54, -2170.09, 3810.83)" xlink:href="#m"/><linearGradient id="bi" x1="41.93" y1="83.82" x2="66.92" y2="83.82" xlink:href="#o"/><linearGradient id="bj" x1="78.82" y1="83.82" x2="103.81" y2="83.82" xlink:href="#m"/><linearGradient id="bk" x1="115.79" y1="83.82" x2="140.78" y2="83.82" xlink:href="#a"/><linearGradient id="bl" x1="152.68" y1="83.82" x2="177.67" y2="83.82" xlink:href="#o"/><linearGradient id="bm" x1="1206.29" y1="-800.58" x2="1260.89" y2="-800.58" gradientTransform="translate(-809.06 1006.76) rotate(-7.7)" xlink:href="#b"/><linearGradient id="bn" x1="1207.16" y1="-790.79" x2="1260.39" y2="-790.79" gradientTransform="translate(-809.06 1006.76) rotate(-7.7)" xlink:href="#m"/><linearGradient id="bo" x1="1231.51" y1="-785.94" x2="1238.46" y2="-785.94" gradientTransform="translate(-809.06 1006.76) rotate(-7.7)" xlink:href="#o"/><linearGradient id="bp" x1="-1619.08" y1="3596.72" x2="-1571.72" y2="3596.72" gradientTransform="translate(3607.69 -2451.33) rotate(26.27)" xlink:href="#o"/><linearGradient id="bq" x1="-1618.09" y1="3603.75" x2="-1571.69" y2="3603.75" gradientTransform="translate(3607.69 -2451.33) rotate(26.27)" xlink:href="#a"/><linearGradient id="br" x1="-1594.8" y1="3610.08" x2="-1588.61" y2="3610.08" gradientTransform="translate(3607.69 -2451.33) rotate(26.27)" xlink:href="#b"/></defs><title>web-academy-footer-mobile</title><rect y="0.62" width="770" height="100" fill="#333"/><path d="M164.17,34.09c-10.68-11.56-21.67-22.82-32.7-34" transform="translate(0 0.62)" fill="none" stroke="#262626" stroke-width="0.5"/><path d="M120.86.15C138,19,156,37,173.9,55.05" transform="translate(0 0.62)" fill="none" stroke="#262626" stroke-width="0.5"/><path d="M109.65.07C124,16,140,31,155.24,47.26" transform="translate(0 0.62)" fill="none" stroke="#262626" stroke-width="0.5"/><path d="M136.77,41.54C125,27,110,15,97.51.18" transform="translate(0 0.62)" fill="none" stroke="#262626" stroke-width="0.5"/><path d="M152.7.29A106.31,106.31,0,0,0,161,7.47" transform="translate(0 0.62)" fill="none" stroke="#262626" stroke-width="0.5"/><circle cx="166.29" cy="36.9" r="3.05" fill="none" stroke="#262626" stroke-width="0.5"/><circle cx="164.99" cy="23.48" r="3.05" fill="none" stroke="#262626" stroke-width="0.5"/><circle cx="163.7" cy="10.07" r="3.05" fill="none" stroke="#262626" stroke-width="0.5"/><circle cx="138.41" cy="44.73" r="3.05" fill="none" stroke="#262626" stroke-width="0.5"/><circle cx="157.19" cy="50.01" r="3.05" fill="none" stroke="#262626" stroke-width="0.5"/><circle cx="175.63" cy="57.23" r="3.05" fill="none" stroke="#262626" stroke-width="0.5"/><path d="M162.87,20.67C156.57,13.8,150.13,7.08,143.64.4" transform="translate(0 0.62)" fill="none" stroke="#262626" stroke-width="0.5"/><path d="M304.42,34.41C326,35,348,33,370,35a11.35,11.35,0,0,0,8-3C388,21,398,11,408.58.64" transform="translate(0 0.62)" fill="none" stroke="#262626" stroke-width="0.5"/><path d="M378.63,20,397.84.79" transform="translate(0 0.62)" fill="none" stroke="#262626" stroke-width="0.5"/><path d="M364.45,23.46C373,17,379,8,387.27.64" transform="translate(0 0.62)" fill="none" stroke="#262626" stroke-width="0.5"/><path d="M350.08,26.59C358,18,367,9,376.05.63" transform="translate(0 0.62)" fill="none" stroke="#262626" stroke-width="0.5"/><path d="M292.33,25.72C308,26,323,26,339,26c9-8,16-17,25.36-25.34" transform="translate(0 0.62)" fill="none" stroke="#262626" stroke-width="0.5"/><path d="M277.93,17.44C298,16,317,19,337,16c5-5,10-10,15.21-15.23" transform="translate(0 0.62)" fill="none" stroke="#262626" stroke-width="0.5"/><line x1="327.12" y1="9.07" x2="265.8" y2="9.07" fill="none" stroke="#262626" stroke-width="0.5"/><circle cx="376.63" cy="22.09" r="2.65" fill="none" stroke="#262626" stroke-width="0.5"/><circle cx="363.06" cy="26.34" r="2.65" fill="none" stroke="#262626" stroke-width="0.5"/><circle cx="348.17" cy="28.99" r="2.65" fill="none" stroke="#262626" stroke-width="0.5"/><circle cx="329.65" cy="9.38" r="2.65" fill="none" stroke="#262626" stroke-width="0.5"/><polyline points="407.57 31.64 387.39 31.64 376.9 42.14 318.51 42.14" fill="none" stroke="#262626" stroke-width="0.5"/><line x1="398.48" y1="22.59" x2="419.44" y2="1.63" fill="none" stroke="#262626" stroke-width="0.5"/><polyline points="454.83 8.26 423.55 8.26 408.82 23" fill="none" stroke="#262626" stroke-width="0.5"/><polyline points="448.67 14.74 427.15 14.74 419.33 22.56" fill="none" stroke="#262626" stroke-width="0.5"/><polyline points="451.32 31.64 438.48 31.64 424.36 17.53" fill="none" stroke="#262626" stroke-width="0.5"/><circle cx="410.2" cy="31.65" r="2.65" fill="none" stroke="#262626" stroke-width="0.5"/><circle cx="417.96" cy="24.6" r="2.65" fill="none" stroke="#262626" stroke-width="0.5"/><circle cx="406.57" cy="24.41" r="2.65" fill="none" stroke="#262626" stroke-width="0.5"/><circle cx="395.83" cy="24.51" r="2.65" fill="none" stroke="#262626" stroke-width="0.5"/><circle cx="454.29" cy="31.65" r="2.65" fill="none" stroke="#262626" stroke-width="0.5"/><circle cx="451.32" cy="14.74" r="2.65" fill="none" stroke="#262626" stroke-width="0.5"/><circle cx="457.49" cy="8.21" r="2.65" fill="none" stroke="#262626" stroke-width="0.5"/><circle cx="315.86" cy="42.24" r="2.65" fill="none" stroke="#262626" stroke-width="0.5"/><circle cx="301.77" cy="35.03" r="2.65" fill="none" stroke="#262626" stroke-width="0.5"/><circle cx="289.26" cy="26.34" r="2.65" fill="none" stroke="#262626" stroke-width="0.5"/><circle cx="275.66" cy="18.24" r="2.65" fill="none" stroke="#262626" stroke-width="0.5"/><circle cx="263.15" cy="9.55" r="2.65" fill="none" stroke="#262626" stroke-width="0.5"/><polyline points="574.04 46.04 519.81 46.04 519.81 54.41 499.01 54.41 499.01 69.64" fill="none" stroke="#262626" stroke-width="0.5"/><polyline points="574.04 53.14 526.81 53.14 526.81 61.19 526.96 61.19 507.74 61.48 507.74 74.73" fill="none" stroke="#262626" stroke-width="0.5"/><circle cx="488.41" cy="62.01" r="2.11" fill="none" stroke="#262626" stroke-width="0.5"/><line x1="499.01" y1="62.35" x2="490.57" y2="62.35" fill="none" stroke="#262626" stroke-width="0.5"/><circle cx="507.42" cy="77.09" r="2.11" fill="none" stroke="#262626" stroke-width="0.5"/><circle cx="498.66" cy="72.1" r="2.11" fill="none" stroke="#262626" stroke-width="0.5"/><circle cx="507.42" cy="77.09" r="2.11" fill="none" stroke="#262626" stroke-width="0.5"/><polyline points="565.65 29.13 580.88 29.13 580.88 49.93 589.25 49.93 589.25 92.57 640.28 92.57 640.28 85.12 648 85.12 648.25 100.62" fill="none" stroke="#262626" stroke-width="0.5"/><polyline points="589.25 56.93 574.1 56.93 574.1 57.08 573.81 37.86 560.55 37.86" fill="none" stroke="#262626" stroke-width="0.5"/><circle cx="573.28" cy="18.53" r="2.11" fill="none" stroke="#262626" stroke-width="0.5"/><line x1="572.94" y1="29.13" x2="572.94" y2="20.69" fill="none" stroke="#262626" stroke-width="0.5"/><circle cx="558.2" cy="37.54" r="2.11" fill="none" stroke="#262626" stroke-width="0.5"/><circle cx="563.19" cy="28.78" r="2.11" fill="none" stroke="#262626" stroke-width="0.5"/><circle cx="558.2" cy="37.54" r="2.11" fill="none" stroke="#262626" stroke-width="0.5"/><polyline points="589.25 86.57 603.92 86.57 603.92 78.2 624.72 78.2 624.72 62.98" fill="none" stroke="#262626" stroke-width="0.5"/><polyline points="589.25 79.48 596.92 79.48 596.92 71.43 596.77 71.43 615.99 71.14 615.99 57.88" fill="none" stroke="#262626" stroke-width="0.5"/><circle cx="635.32" cy="70.6" r="2.11" fill="none" stroke="#262626" stroke-width="0.5"/><line x1="624.72" y1="70.27" x2="633.16" y2="70.27" fill="none" stroke="#262626" stroke-width="0.5"/><circle cx="616.31" cy="55.52" r="2.11" fill="none" stroke="#262626" stroke-width="0.5"/><circle cx="625.07" cy="60.51" r="2.11" fill="none" stroke="#262626" stroke-width="0.5"/><circle cx="616.31" cy="55.52" r="2.11" fill="none" stroke="#262626" stroke-width="0.5"/><polyline points="589.39 64.11 574.72 64.11 574.72 72.48 553.92 72.48 553.92 87.71" fill="none" stroke="#262626" stroke-width="0.5"/><polyline points="589.39 71.21 581.72 71.21 581.72 79.26 581.86 79.26 562.64 79.55 562.64 92.81" fill="none" stroke="#262626" stroke-width="0.5"/><circle cx="543.32" cy="80.08" r="2.11" fill="none" stroke="#262626" stroke-width="0.5"/><line x1="553.92" y1="80.42" x2="545.48" y2="80.42" fill="none" stroke="#262626" stroke-width="0.5"/><circle cx="562.32" cy="95.16" r="2.11" fill="none" stroke="#262626" stroke-width="0.5"/><circle cx="553.56" cy="90.17" r="2.11" fill="none" stroke="#262626" stroke-width="0.5"/><circle cx="562.32" cy="95.16" r="2.11" fill="none" stroke="#262626" stroke-width="0.5"/><polygon points="25.63 35.06 59.1 29.41 58.59 62.29 33.84 66.24 25.11 77.58 25.63 35.06" fill="none" stroke-miterlimit="10" stroke-dasharray="1 2" stroke="url(#a)"/><polygon points="47.2 16.22 89.31 9.12 88.67 50.48 57.54 55.45 46.56 69.7 47.2 16.22" fill="none" stroke-miterlimit="10" stroke-dasharray="1 3" stroke="url(#b)"/><line x1="55.53" y1="30.35" x2="81.38" y2="25.64" fill="none" stroke-miterlimit="10" stroke-dasharray="1 3" stroke="url(#c)"/><line x1="55.53" y1="36.33" x2="81.38" y2="31.62" fill="none" stroke-miterlimit="10" stroke-dasharray="1 3" stroke="url(#d)"/><line x1="55.53" y1="42.2" x2="81.38" y2="37.49" fill="none" stroke-miterlimit="10" stroke-dasharray="1 3" stroke="url(#e)"/><line x1="32.62" y1="46.13" x2="52.69" y2="42.47" fill="none" stroke-miterlimit="10" stroke-dasharray="1 2" stroke="url(#f)"/><line x1="32.62" y1="50.78" x2="52.69" y2="47.12" fill="none" stroke-miterlimit="10" stroke-dasharray="1 2" stroke="url(#g)"/><line x1="32.62" y1="55.34" x2="52.69" y2="51.68" fill="none" stroke-miterlimit="10" stroke-dasharray="1 2" stroke="url(#h)"/><g opacity="0.8"><polygon points="10.17 74.01 10.17 74.62 10.43 74.77 27.24 71.95 27.25 71.34 26.99 71.18 10.17 74.01" fill="#575756" stroke-miterlimit="10" stroke="url(#i)"/><polygon points="10.21 69.85 10.21 70.46 10.47 70.62 27.29 67.79 27.29 67.18 27.03 67.03 10.21 69.85" fill="#575756" stroke-miterlimit="10" stroke="url(#j)"/><polygon points="10.44 65.66 10.44 66.27 10.7 66.43 27.51 63.6 27.52 62.99 27.26 62.84 10.44 65.66" fill="#575756" stroke-miterlimit="10" stroke="url(#k)"/></g><polygon points="4.64 57.02 32.83 52.27 32.4 79.95 11.55 83.28 4.2 92.82 4.64 57.02" fill="none" stroke-miterlimit="10" opacity="0.8" stroke="url(#l)"/><path d="M200.83,6.63l38.4-5.49a8,8,0,0,1,9.3,7.64l-.81,77.06a7.79,7.79,0,0,1-6.84,7.49l-37.6,5.53c-4.9.72-9.33-2.87-9.33-7.56V14.2A7.81,7.81,0,0,1,200.83,6.63Z" transform="translate(0 0.62)" fill="none" stroke-miterlimit="10" stroke-dasharray="1 3" stroke="url(#m)"/><path d="M219.27,85.54l.36.18-.12-.07a2.6,2.6,0,0,0,1.67.31,4,4,0,0,0,3.14-3.86,2.86,2.86,0,0,0-1.84-2.87l.1,0,.07,0,.16.07-.37-.18a2,2,0,0,0-.22-.09,2.35,2.35,0,0,0-.35-.11l-.12,0-.28,0h-.14l-.44,0a3,3,0,0,0-.59.15l-.19.08a3.14,3.14,0,0,0-.37.18l-.21.14a3.09,3.09,0,0,0-.31.23l-.14.12a3.89,3.89,0,0,0-.34.36l-.07.07a4.2,4.2,0,0,0-.33.49l-.08.14c-.07.13-.13.27-.19.4l-.09.23a2.9,2.9,0,0,0-.12.42,1.94,1.94,0,0,1-.05.2,4.48,4.48,0,0,0-.06.64A2.94,2.94,0,0,0,219.27,85.54Zm3-5.58a2.29,2.29,0,0,1,1,2.05,2.94,2.94,0,0,1-.05.51s0,.11,0,.16a1.55,1.55,0,0,1-.06.23.3.3,0,0,1,0,.1,1.34,1.34,0,0,1-.07.18s0,.1-.05.15l-.09.17a1.05,1.05,0,0,0-.07.11l0,.06q-.1.16-.21.3l0,0a1.57,1.57,0,0,1-.21.24l-.1.09-.11.1-.08.07-.17.11a.91.91,0,0,1-.16.11l0,0a1.28,1.28,0,0,1-.24.11.94.94,0,0,1-.15.06,1.91,1.91,0,0,1-.47.12,1.94,1.94,0,0,1-.34,0h-.11l-.22,0h0l-.07,0-.26-.08a2.1,2.1,0,0,1-.33-.26,2.46,2.46,0,0,1-.7-1.81,3.26,3.26,0,0,1,.75-2,2.75,2.75,0,0,1,1.74-1A2,2,0,0,1,222.3,80Zm.26.12.09.06Zm.93,3.11-.07.18Zm-.22.5-.06.11Zm-1,1.12a.91.91,0,0,1-.16.11A.91.91,0,0,0,222.25,84.81Zm-.45.25-.15.07Zm-1.63.07.17.06Zm-1.51-.27a3,3,0,0,0,.32.39A3,3,0,0,1,218.66,84.86Zm.34.41a2.38,2.38,0,0,0,.4.31A2.38,2.38,0,0,1,219,85.27Zm1.62,0,.11,0h0Zm1.89-.61.1-.1Zm1.07-1.77s0-.1,0-.16S223.59,82.81,223.58,82.86Zm-1.12-3.64a3.1,3.1,0,0,0-.51-.11l.16,0h0l.08,0Zm-1.2-.1a3.25,3.25,0,0,1,.44,0h.12a2.63,2.63,0,0,0-.56,0,3.1,3.1,0,0,0-.6.15A3.1,3.1,0,0,1,221.26,79.12Zm-.78.23a2.53,2.53,0,0,0-.37.18l.06,0Zm-.58.32-.32.23.1-.09Zm-.46.35a3.89,3.89,0,0,0-.34.36l.21-.24Zm-.43.46,0,0a5.25,5.25,0,0,0-.33.49l0-.08A3.28,3.28,0,0,1,219,80.48Zm-.39.61c-.07.12-.13.26-.19.39,0-.06,0-.13.08-.19A1.28,1.28,0,0,1,218.62,81.09Zm-.28.62c-.05.14-.08.28-.12.42,0-.1,0-.2.07-.3A.61.61,0,0,0,218.34,81.71Zm-.16.62a3.48,3.48,0,0,0-.07.64,4.07,4.07,0,0,0,0,.61,4.07,4.07,0,0,1,0-.61A3.48,3.48,0,0,1,218.18,82.33Zm.41,2.42a2.73,2.73,0,0,1-.25-.48A2.73,2.73,0,0,0,218.59,84.75Zm-.25-.49a2.39,2.39,0,0,1-.15-.54A2.39,2.39,0,0,0,218.34,84.26Z" transform="translate(0 0.62)" fill="#8c8d8e"/><path d="M216.14,18.75l.37.18a0,0,0,0,1,0,0,.23.23,0,0,0,.18.05l8.41-1.19a.39.39,0,0,0,.33-.4.3.3,0,0,0-.19-.31h0l-.36-.19a.27.27,0,0,0-.16,0l-8.41,1.18a.29.29,0,0,0-.13.05h0a.81.81,0,0,0-.1.09h0a.75.75,0,0,0-.07.12h0a.32.32,0,0,0,0,.14A.33.33,0,0,0,216.14,18.75Zm.24.05,0,0Zm8.81-1.75h0a.23.23,0,0,0-.12,0Zm-8.51,1.18-.13.05h0Zm-.17.08,0,0-.09.09s0,0,0,0Zm-.1.11,0,0h0a.67.67,0,0,0-.06.12v0A.08.08,0,0,1,216.41,18.42Zm0,.08a.68.68,0,0,0,0,.14.49.49,0,0,1,0-.12Z" transform="translate(0 0.62)" fill="#8c8d8e"/><path d="M221.23,66l.07-6,3.41-.48v-.75l-.38-.18-3,.42.14-11.93c-.35.06-.7.09-1.06.12l-.23,19.7.38.19,7.82-1.1v-.74L228,65Z" transform="translate(0 0.62)" fill="url(#n)"/><path d="M204.65,12.91l31.09-4.69a6.54,6.54,0,0,1,7.52,6.53l-.65,65.9a6.55,6.55,0,0,1-5.54,6.4l-30.43,4.73a6.54,6.54,0,0,1-7.55-6.46V19.38A6.56,6.56,0,0,1,204.65,12.91Z" transform="translate(0 0.62)" fill="none" stroke-miterlimit="10" stroke="url(#o)"/><line x1="199.09" y1="27.14" x2="243.26" y2="20.94" fill="none" stroke-miterlimit="10" stroke="url(#p)"/><line x1="199.09" y1="78.65" x2="242.7" y2="72.18" fill="none" stroke-miterlimit="10" stroke="url(#q)"/><ellipse cx="220.79" cy="39.65" rx="6.69" ry="8.03" fill="none" stroke-miterlimit="10" stroke="url(#r)"/><path d="M655.61,56.66a2,2,0,0,0-.5,0" transform="translate(0 0.62)" fill="none" stroke-miterlimit="10" stroke="url(#s)"/><path d="M654,59.07a2.06,2.06,0,0,0,1.77,1.3A2.58,2.58,0,0,0,658.5,58a3.21,3.21,0,0,0-3-3.4,4,4,0,0,0-4.25,3.73,5,5,0,0,0,4.66,5.31,6.25,6.25,0,0,0,6.65-5.82,7.81,7.81,0,0,0-7.29-8.31A9.76,9.76,0,0,0,644.9,58.6c-.44,6.72,3.89,19.23,22.34,17.21,0,0,15.22-7.28,28.11,2.11" transform="translate(0 0.62)" fill="none" stroke-miterlimit="10" stroke-dasharray="0.99 2.96" stroke="url(#t)"/><path d="M696.51,78.82l.39.32" transform="translate(0 0.62)" fill="none" stroke-miterlimit="10" stroke="url(#u)"/><path d="M677.63,87.72a1.35,1.35,0,0,0,1.84-.54,1.69,1.69,0,0,0-.68-2.29,2.11,2.11,0,0,0-2.87.85A2.64,2.64,0,0,0,677,89.32,3.3,3.3,0,0,0,681.46,88a4.13,4.13,0,0,0-1.65-5.6,5.17,5.17,0,0,0-7,2.08,6.45,6.45,0,0,0,2.6,8.75c3.91,2.12,6.88-1.4,10.94-3.24,7.36-3.34,11.27,4.88,25.7,6.23" transform="translate(0 0.62)" fill="none" stroke-miterlimit="10" stroke-width="0.75" stroke-dasharray="1 2" stroke="url(#v)"/><path d="M674,19.29a1,1,0,0,0-.43.26" transform="translate(0 0.62)" fill="none" stroke-miterlimit="10" stroke="url(#w)"/><path d="M675,21.28a1.53,1.53,0,0,0,.91-1.84,1.9,1.9,0,0,0-2.36-1.29A2.38,2.38,0,0,0,672,21.09a3,3,0,0,0,3.68,2,3.69,3.69,0,0,0,2.51-4.59,4.63,4.63,0,0,0-5.74-3.15,5.78,5.78,0,0,0-3.93,7.18c1.12,3.84,6.08,9.92,15.94,5,0,0,6.56-6.71,15.23-4.75" transform="translate(0 0.62)" fill="none" stroke-miterlimit="10" stroke-dasharray="1.02 3.05" stroke="url(#x)"/><path d="M701.11,23.24l.48.17" transform="translate(0 0.62)" fill="none" stroke-miterlimit="10" stroke="url(#y)"/><path d="M703.8,8.57a1.12,1.12,0,0,0,1.53-.45,1.41,1.41,0,0,0-.57-1.91,1.74,1.74,0,0,0-2.38.71,2.2,2.2,0,0,0,.88,3A2.75,2.75,0,0,0,707,8.8a3.44,3.44,0,0,0-1.38-4.67,4.3,4.3,0,0,0-5.83,1.73,5.36,5.36,0,0,0,2.16,7.28c3.26,1.77,5.73-1.16,9.11-2.69,6.13-2.78,9.38,4.06,21.39,5.18" transform="translate(0 0.62)" fill="none" stroke-miterlimit="10" stroke-width="0.75" stroke-dasharray="1 2" stroke="url(#z)"/><path d="M711.1,86.87l-5.08,1,.09-58.56L742,22v4.4a3.26,3.26,0,0,1,.8-.13V20.7l-37.49,7.74-.09,60.73L711.11,88A4.88,4.88,0,0,1,711.1,86.87Z" transform="translate(0 0.62)" fill="url(#aa)"/><path d="M705.5,88l-2.94-3,.09-59.23,35.89-7.41v3.72a1.67,1.67,0,0,1,.76-.18h0v-4.8l-37.49,7.74-.09,60.74,3.46,3.57C705.47,89,705.41,87.86,705.5,88Z" transform="translate(0 0.62)" fill="url(#ab)"/><polygon points="703.75 28.16 703.6 27.04 737.87 20.14 739.26 22.01 738.55 22.76 737.51 21.36 703.75 28.16" fill="url(#ac)"/><polygon points="705.49 29.93 701.91 26.36 702.51 25.49 706.1 29.07 705.49 29.93" fill="url(#ad)"/><g opacity="0.8"><polygon points="740.61 57.65 740.61 58.73 727.01 61.54 727.01 60.46 740.61 57.65" fill="url(#ae)"/></g><path d="M722.23,52.07l22.7-4.69,0,14.92L722.21,67Zm22.27,9.76,0-13.82-21.9,4.52,0,13.83,21.89-4.53Z" transform="translate(0 0.62)" fill="url(#af)"/><path d="M714.76,35.59l37.49-7.74-.09,60.73-37.49,7.74Zm36.6,52.07.09-58.56-35.89,7.41-.09,58.56,35.89-7.41Z" transform="translate(0 0.62)" fill="url(#ag)"/><path d="M714.94,95.17l-2.94-3,.09-59.23L748,25.52v3.72a1.71,1.71,0,0,1,.77-.18h0v-4.8L711.3,32l-.1,60.74,3.47,3.57C714.92,96.11,714.86,95,714.94,95.17Z" transform="translate(0 0.62)" fill="url(#ah)"/><g opacity="0.8"><polygon points="740.62 53.45 740.62 54.53 727.02 57.34 727.02 56.26 740.62 53.45" fill="url(#ai)"/></g><polygon points="713.2 35.31 713.04 34.19 747.32 27.29 748.71 29.16 748 29.91 746.96 28.51 713.2 35.31" fill="url(#aj)"/><polygon points="714.94 37.08 711.36 33.51 711.96 32.64 715.54 36.22 714.94 37.08" fill="url(#ak)"/><line x1="420.6" y1="100.1" x2="420.96" y2="99.75" fill="none" stroke-miterlimit="10" stroke="url(#al)"/><line x1="423.05" y1="97.65" x2="452.68" y2="68.03" fill="none" stroke-miterlimit="10" stroke-dasharray="0.99 2.96" stroke="url(#am)"/><polyline points="453.72 66.98 454.08 66.63 453.7 66.3" fill="none" stroke-miterlimit="10" stroke="url(#an)"/><line x1="451.46" y1="64.33" x2="416.66" y2="33.91" fill="none" stroke-miterlimit="10" stroke-dasharray="0.99 2.98" stroke="url(#ao)"/><polyline points="415.53 32.93 415.16 32.6 415.16 33.1" fill="none" stroke-miterlimit="10" stroke="url(#ap)"/><line x1="415.16" y1="36.08" x2="415.16" y2="98.13" fill="none" stroke-miterlimit="10" stroke-dasharray="0.99 2.98" stroke="url(#aq)"/><line x1="415.16" y1="99.62" x2="415.16" y2="100.12" fill="none" stroke-miterlimit="10" stroke="url(#ar)"/><path d="M375.35,100a77.65,77.65,0,0,1-9-36.68c0-27.86,14.13-51.9,34.56-63.06" transform="translate(0 0.62)" fill="none" stroke-miterlimit="10" stroke-dasharray="1 3" stroke="url(#as)"/><path d="M452.36.26c20.43,11.16,34.56,35.2,34.56,63.06a77.54,77.54,0,0,1-9,36.68" transform="translate(0 0.62)" fill="none" stroke-miterlimit="10" stroke-dasharray="1 3" stroke="url(#at)"/><path d="M450.1,49.75l15.35,11.08-15.4,17.41Zm.72,1.7,0,24.79,13.38-15.15-13.34-9.64Z" transform="translate(0 0.62)" fill="url(#au)"/><path d="M454.86,36c11-2.27,20,8,19.94,23s-9,28.93-20,31.21-20-8-19.95-23S443.84,38.29,454.86,36Zm-.08,52.22c10.22-2.11,18.55-15.09,18.57-29S465.07,35.86,454.86,38s-18.55,15.1-18.58,29,8.28,23.41,18.5,21.3Z" transform="translate(0 0.62)" fill="none" stroke-miterlimit="10" stroke-width="0.5" stroke="url(#av)"/><path d="M573.23,43.34l-3.52,2.27-1.28-2a7.69,7.69,0,0,1-1.76.33l-.5,2.31-4.09-.88.5-2.3a7.48,7.48,0,0,1-1.49-1l-2,1.27-2.27-3.51,2-1.27a7.94,7.94,0,0,1-.32-1.78l-2.29-.5.88-4.09,2.31.5a7.71,7.71,0,0,1,1-1.46l-1.28-2,3.51-2.27,1.3,2a8,8,0,0,1,1.74-.31l.51-2.35,4.09.89-.51,2.36a7.41,7.41,0,0,1,1.43,1l2-1.32,2.27,3.52-2,1.31a7.89,7.89,0,0,1,.32,1.72l2.37.51-.89,4.09-2.35-.51a7.56,7.56,0,0,1-1,1.46Z" transform="translate(0 0.62)" fill="none" stroke-miterlimit="10" stroke-width="0.75" stroke-dasharray="1 1" opacity="0.6" stroke="url(#aw)"/><circle cx="566.19" cy="36.89" r="3.49" fill="none" stroke-miterlimit="10" stroke-width="0.75" stroke-dasharray="1 1" opacity="0.6" stroke="url(#ax)"/><path d="M552.78,36.17l-5.29,3.41-1.93-3a11.07,11.07,0,0,1-2.65.5l-.75,3.48L536,39.21l.75-3.45a11.29,11.29,0,0,1-2.24-1.54l-3,1.91-3.41-5.29,3-1.91a11.27,11.27,0,0,1-.48-2.68l-3.45-.75,1.33-6.15,3.47.76a11.63,11.63,0,0,1,1.56-2.21l-1.94-3,5.29-3.41,2,3a11.8,11.8,0,0,1,2.62-.46l.77-3.54,6.14,1.34-.77,3.56a11.76,11.76,0,0,1,2.16,1.5l3.07-2,3.41,5.29-3.08,2a11.58,11.58,0,0,1,.48,2.59l3.56.77-1.33,6.15L552.33,31a11.49,11.49,0,0,1-1.5,2.19Z" transform="translate(0 0.62)" fill="none" stroke-miterlimit="10" stroke-dasharray="1 1" stroke="url(#ay)"/><circle cx="542.19" cy="26.16" r="5.24" fill="none" stroke-miterlimit="10" stroke-dasharray="1 1" stroke="url(#az)"/><path d="M626.63-.2,625,.86A17.13,17.13,0,0,0,623.62-.2" transform="translate(0 0.62)" fill="none" stroke-miterlimit="10" stroke-dasharray="1 1" stroke="url(#ba)"/><path d="M600.62-.2l1.57,2.44A16.07,16.07,0,0,0,600,5.34l-4.88-1.06-1.87,8.64L598.11,14a16.32,16.32,0,0,0,.67,3.76l-4.16,2.68,4.79,7.43,4.16-2.68a15.68,15.68,0,0,0,3.15,2.18l-1.05,4.84,8.63,1.87,1.06-4.87a16.51,16.51,0,0,0,3.72-.71l2.72,4.22,7.43-4.78-2.75-4.26a16.39,16.39,0,0,0,2.12-3.08l5,1.08L635.44,13l-5-1.08a16.42,16.42,0,0,0-.67-3.64l4.32-2.78L630.4-.2" transform="translate(0 0.62)" fill="none" stroke-miterlimit="10" stroke-dasharray="1 1" stroke="url(#bb)"/><circle cx="614.35" cy="13.58" r="7.36" fill="none" stroke-miterlimit="10" stroke-dasharray="1 1" stroke="url(#bc)"/><path d="M517.31-.2,515.51,1l1.28,2a7.48,7.48,0,0,0-1,1.47l-2.31-.5L512.57,8l2.29.49a7.74,7.74,0,0,0,.32,1.78l-2,1.27,2.27,3.52,2-1.27a7.32,7.32,0,0,0,1.49,1l-.5,2.29,4.09.89.5-2.31a7.69,7.69,0,0,0,1.76-.33l1.28,2,3.52-2.26-1.3-2a7.81,7.81,0,0,0,1-1.45l2.35.51.89-4.09-2.37-.51a7.79,7.79,0,0,0-.32-1.72l2-1.32L529.62,1l-2,1.31a7.74,7.74,0,0,0-1.44-1l.33-1.51" transform="translate(0 0.62)" fill="none" stroke-miterlimit="10" stroke-dasharray="1 1" stroke="url(#bd)"/><path d="M522.19-.2l-.13.61a7.49,7.49,0,0,0-1.74.31l-.59-.92" transform="translate(0 0.62)" fill="none" stroke-miterlimit="10" stroke-dasharray="1 1" stroke="url(#be)"/><circle cx="522.55" cy="8.66" r="3.49" fill="none" stroke-miterlimit="10" stroke-dasharray="1 1" stroke="url(#bf)"/><g opacity="0.6"><path d="M587.16,1.93,590.47-.2H588l-2.4,1.54.15.49A14.15,14.15,0,0,1,586.32,5l0,.51,4.43,1-1.43,6.59-4.4-1-.24.45a14.08,14.08,0,0,1-1.84,2.69l-.33.38L585,19.4l-5.67,3.65-2.41-3.74-.49.16a14.44,14.44,0,0,1-3.25.62l-.51,0-.93,4.3L565.11,23l.92-4.29-.45-.23a14.2,14.2,0,0,1-2.75-1.9l-.38-.34-3.68,2.37-3.65-5.68,3.67-2.36-.14-.49a14.42,14.42,0,0,1-.6-3.29l0-.52-4.28-.92,1.2-5.55h-1.38l-1.42,6.58,4.6,1a15.6,15.6,0,0,0,.47,2.6l-4,2.55,5.12,7.94,4-2.55a14.47,14.47,0,0,0,2.17,1.5l-1,4.61,9.23,2,1-4.64a15.4,15.4,0,0,0,2.56-.49l2.58,4,7.94-5.11-2.61-4.05a15.18,15.18,0,0,0,1.45-2.11l4.72,1,2-9.23-4.75-1A15.35,15.35,0,0,0,587.16,1.93Z" transform="translate(0 0.62)" fill="url(#bg)"/><path d="M576.47-.2h-8.41a7.42,7.42,0,1,0,8.41,0ZM575.55,11a6.07,6.07,0,1,1,1.82-8.39A6.06,6.06,0,0,1,575.55,11Z" transform="translate(0 0.62)" fill="url(#bh)"/></g><polygon points="44.7 91.42 52.36 87.23 52.36 95.62 56.5 95.62 56.5 87.23 64.15 91.42 66.22 88.02 58.57 83.82 66.22 79.63 64.15 76.22 56.5 80.42 56.5 72.03 52.36 72.03 52.36 80.42 44.7 76.22 42.63 79.63 50.29 83.82 42.63 88.02 44.7 91.42" fill="none" stroke-miterlimit="10" stroke-dasharray="1 2" stroke="url(#bi)"/><polygon points="81.59 91.42 89.25 87.23 89.25 95.62 93.39 95.62 93.39 87.23 101.04 91.42 103.11 88.02 95.46 83.82 103.11 79.63 101.04 76.22 93.39 80.42 93.39 72.03 89.25 72.03 89.25 80.42 81.59 76.22 79.52 79.63 87.18 83.82 79.52 88.02 81.59 91.42" fill="none" stroke-miterlimit="10" stroke-dasharray="1 2" stroke="url(#bj)"/><polygon points="118.56 91.42 126.22 87.23 126.22 95.62 130.36 95.62 130.36 87.23 138.01 91.42 140.08 88.02 132.43 83.82 140.08 79.63 138.01 76.22 130.36 80.42 130.36 72.03 126.22 72.03 126.22 80.42 118.56 76.22 116.49 79.63 124.15 83.82 116.49 88.02 118.56 91.42" fill="none" stroke-miterlimit="10" stroke-dasharray="1 2" stroke="url(#bk)"/><polygon points="155.45 91.42 163.1 87.23 163.1 95.62 167.25 95.62 167.25 87.23 174.9 91.42 176.97 88.02 169.31 83.82 176.97 79.63 174.9 76.22 167.25 80.42 167.25 72.03 163.1 72.03 163.1 80.42 155.45 76.22 153.38 79.63 161.03 83.82 153.38 88.02 155.45 91.42" fill="none" stroke-miterlimit="10" stroke-dasharray="1 2" stroke="url(#bl)"/><polyline points="319.17 48.12 307.6 54.34 280.28 53.12 304.72 41.74 331.68 41.39 326.28 44.3" fill="none" stroke-miterlimit="10" stroke-width="0.5" stroke="url(#bm)"/><polygon points="325.04 46.4 324.75 45.12 309.44 45.75 320.72 47.28 321.02 48.59 307.89 55.62 280.56 54.41 281 56.38 297.53 56.9 298.89 68.32 310.95 69.12 321.78 63.1 317.97 52.24 321.42 50.37 322.69 55.96 324.37 51.97 326.62 53.33 325.45 48.19 332.38 44.44 331.98 42.68 325.04 46.4" fill="none" stroke-miterlimit="10" stroke-width="0.5" stroke="url(#bn)"/><polygon points="310.76 65.99 311.13 67.62 310.17 67.84 309.71 65.84 310.95 63.66 309.3 64.03 308.81 61.9 305.95 62.55 308.1 58.75 307.73 57.13 308.69 56.91 309.14 58.91 307.9 61.09 309.56 60.72 310.04 62.85 312.91 62.2 310.76 65.99" fill="url(#bo)"/><polyline points="595.83 73.5 584.15 74.44 562.26 63.67 586.31 63.11 608.47 72.48 603.01 72.92" fill="none" stroke-miterlimit="10" stroke-width="0.5" stroke="url(#bp)"/><polygon points="601.25 74.19 601.47 73.04 588.72 68.08 597.4 73.36 597.17 74.55 583.93 75.59 562.02 64.82 561.68 66.59 575 72.93 572.03 82.75 581.6 87.72 592.6 86.68 593.38 76.44 596.87 76.14 595.91 81.16 598.7 78.5 600.06 80.42 600.94 75.8 607.94 75.21 608.24 73.63 601.25 74.19" fill="none" stroke-miterlimit="10" stroke-width="0.5" stroke="url(#bq)"/><polygon points="582.56 85.09 582.28 86.56 581.42 86.39 581.76 84.59 583.56 83.25 582.07 82.97 582.44 81.05 579.86 80.56 582.98 78.23 583.26 76.76 584.12 76.93 583.78 78.72 581.98 80.07 583.47 80.35 583.1 82.27 585.68 82.76 582.56 85.09" fill="url(#br)"/></svg>