<svg id="Layer_1" data-name="Layer 1" xmlns="http://www.w3.org/2000/svg" width="121" height="20" viewBox="0 0 121 20"><title>ps-rating-empty</title><path d="M4.3,19.5l1.2-6.9L.5,7.7l6.9-1L10.5.4l3.1,6.3,6.9,1-5,4.9,1.2,6.9-6.2-3.3Zm6.2-4.4,4.9,2.6-.9-5.4,3.9-3.8L13,7.7,10.6,2.8,8.1,7.6l-5.5.8,3.9,3.8-.9,5.4Z" fill="#b3b3b3"/><path d="M29.3,19.5l1.2-6.9-5-4.9,6.9-1L35.5.4l3.1,6.3,6.9,1-5,4.9,1.2,6.9-6.2-3.3Zm6.2-4.4,4.9,2.6-.9-5.4,3.9-3.8L38,7.7,35.6,2.8,33.2,7.7l-5.4.8,3.9,3.8-.9,5.4Z" fill="#b3b3b3"/><path d="M54.3,19.5l1.2-6.9-5-4.9,6.9-1L60.5.4l3.1,6.3,6.9,1-5,4.9,1.2,6.9-6.2-3.3Zm6.2-4.4,4.9,2.6-.9-5.4,3.9-3.8L63,7.7,60.6,2.8,58.2,7.7l-5.4.8,3.9,3.8-.9,5.4Z" fill="#b3b3b3"/><path d="M79.3,19.5l1.2-6.9-5-4.9,6.9-1L85.5.4l3.1,6.3,6.9,1-5,4.9,1.2,6.9-6.2-3.3Zm6.2-4.4,4.9,2.6-.9-5.4,3.9-3.8L88,7.7,85.6,2.8,83.2,7.7l-5.4.8,3.9,3.8-.9,5.4Z" fill="#b3b3b3"/><path d="M104.3,19.5l1.2-6.9-5-4.9,6.9-1L110.5.4l3.1,6.3,6.9,1-5,4.9,1.2,6.9-6.2-3.3Zm6.2-4.4,4.9,2.6-.9-5.4,3.9-3.8L113,7.7l-2.4-4.9-2.4,4.9-5.4.8,3.9,3.8-.9,5.4Z" fill="#b3b3b3"/></svg>