<svg xmlns="http://www.w3.org/2000/svg" width="807" height="140" viewBox="0 0 807 140"><title>auditing-12</title><circle cx="72.6" cy="38.5" r="17" fill="#ebf0f2" stroke="#cbd0d1" stroke-miterlimit="10"/><path d="M75.79,44.5H73.07V37.06c0-.15,0-.33,0-.54s0-.44,0-.67l0-.7c0-.24,0-.45,0-.64l-.15.16-.23.23-.28.26a2.76,2.76,0,0,1-.27.23l-1.48,1.19L69.42,35l4.14-3.3h2.23Z" fill="#cbd0d1"/><circle cx="265.45" cy="40.5" r="17" fill="#ebf0f2" stroke="#cbd0d1" stroke-miterlimit="10"/><path d="M269.78,46.5h-8.62V44.61l3-3.26,1-1.13a12.54,12.54,0,0,0,.8-1,5.1,5.1,0,0,0,.52-1,3.25,3.25,0,0,0,.18-1.1,1.31,1.31,0,0,0-.39-1,1.49,1.49,0,0,0-1.05-.36,2.82,2.82,0,0,0-1.34.35,6.58,6.58,0,0,0-1.34,1l-1.48-1.75c.26-.24.54-.47.83-.69a5.74,5.74,0,0,1,2.09-1,6,6,0,0,1,1.4-.15,5,5,0,0,1,1.65.25,3.57,3.57,0,0,1,1.26.73,3.12,3.12,0,0,1,.79,1.13,3.83,3.83,0,0,1,.28,1.51,3.92,3.92,0,0,1-.27,1.44,6.17,6.17,0,0,1-.72,1.36,11.14,11.14,0,0,1-1.06,1.32c-.4.43-.83.87-1.28,1.33l-1.55,1.55v.12h5.24Z" fill="#cbd0d1"/><circle cx="461" cy="38.5" r="17" fill="#fcebe8" stroke="#f63" stroke-miterlimit="10"/><path d="M465,34.52a3.21,3.21,0,0,1-.21,1.2,3.12,3.12,0,0,1-.59.94,3.44,3.44,0,0,1-.88.66,4.38,4.38,0,0,1-1.1.41v.06a4,4,0,0,1,2.36.94,2.67,2.67,0,0,1,.8,2,4,4,0,0,1-.3,1.56,3.41,3.41,0,0,1-.94,1.24,4.29,4.29,0,0,1-1.58.82,7.45,7.45,0,0,1-2.24.3,10,10,0,0,1-1.95-.18,7.24,7.24,0,0,1-1.71-.52V41.67a6.45,6.45,0,0,0,.84.37q.43.15.87.27c.3.07.59.12.87.16a7.63,7.63,0,0,0,.8.05,4.47,4.47,0,0,0,1.26-.14,2.06,2.06,0,0,0,.8-.39,1.51,1.51,0,0,0,.43-.61,2.45,2.45,0,0,0,.12-.78,1.55,1.55,0,0,0-.16-.72,1.37,1.37,0,0,0-.53-.54A2.91,2.91,0,0,0,461,39a7.42,7.42,0,0,0-1.45-.12h-.91V37h.89a5.13,5.13,0,0,0,1.35-.15,2.29,2.29,0,0,0,.86-.39,1.42,1.42,0,0,0,.45-.59,1.87,1.87,0,0,0,.13-.71,1.37,1.37,0,0,0-.43-1.07,1.94,1.94,0,0,0-1.35-.39,3.21,3.21,0,0,0-.78.09,3.38,3.38,0,0,0-.68.21,3.78,3.78,0,0,0-.57.28c-.17.1-.33.2-.47.3l-1.37-1.81a5.72,5.72,0,0,1,.8-.5,7.53,7.53,0,0,1,1-.4,8,8,0,0,1,1.1-.27,8.26,8.26,0,0,1,1.25-.09,7.09,7.09,0,0,1,1.73.2,4.17,4.17,0,0,1,1.33.6A2.63,2.63,0,0,1,465,34.52Z" fill="#f63"/><circle cx="655.35" cy="38.5" r="17" fill="#fcebe8" stroke="#f63" stroke-miterlimit="10"/><path d="M660.1,41.84h-1.55V44.5h-2.64V41.84H650.6V40l5.46-8.3h2.49v8.08h1.55Zm-4.19-2.11V37.22c0-.15,0-.31,0-.49s0-.37,0-.56,0-.38,0-.56,0-.32,0-.46,0-.22,0-.28h-.08c-.1.24-.22.5-.35.78s-.28.55-.45.83L653,39.73Z" fill="#f63"/><polygon points="89.5 39.29 236.42 39.29 236.42 45.08 247.81 38.5 236.42 31.92 236.42 37.71 89.5 37.71 89.5 39.29" fill="#d1d5d6"/><polygon points="282.5 39.29 432.42 39.29 432.42 45.08 443.81 38.5 432.42 31.92 432.42 37.71 282.5 37.71 282.5 39.29" fill="#d1d5d6"/><polygon points="478.5 39.29 626.11 39.29 626.11 45.08 637.5 38.5 626.11 31.92 626.11 37.71 478.5 37.71 478.5 39.29" fill="#606467"/><text transform="translate(405.98 121)" font-size="11" fill="#f63" font-family="Arial-BoldMT, Arial" font-weight="700">CSRF token received</text><text transform="translate(596.38 121)" font-size="11" fill="#f63" font-family="Arial-BoldMT, Arial" font-weight="700">CSRF token submitted</text><text transform="translate(50.9 69.5)" font-size="11" fill="#cbd0d1" font-family="Arial-BoldMT, Arial" font-weight="700">Request</text><text transform="translate(243.75 71.5)" font-size="11" fill="#cbd0d1" font-family="Arial-BoldMT, Arial" font-weight="700">Request</text><text transform="translate(439.3 69.5)" font-size="11" fill="#f63" font-family="Arial-BoldMT, Arial" font-weight="700">Request</text><text transform="translate(633.65 69.5)" font-size="11" fill="#f63" font-family="Arial-BoldMT, Arial" font-weight="700">Request</text><text transform="translate(30.41 100)" font-size="11" fill="#cbd0d1" font-family="Arial-BoldMT, Arial" font-weight="700">Cookie received</text><text transform="translate(414.86 102)" font-size="11" fill="#f63" font-family="Arial-BoldMT, Arial" font-weight="700">Cookie submitted</text><text transform="translate(609.21 102)" font-size="11" fill="#f63" font-family="Arial-BoldMT, Arial" font-weight="700">Cookie submitted</text><text transform="translate(219.31 102)" font-size="11" fill="#cbd0d1" font-family="Arial-BoldMT, Arial" font-weight="700">Cookie submitted</text><line x1="585.35" y1="84.5" x2="725.35" y2="84.5" fill="none" stroke="#ebf0f2" stroke-miterlimit="10"/><line x1="2.6" y1="84.5" x2="142.6" y2="84.5" fill="none" stroke="#ebf0f2" stroke-miterlimit="10"/><line x1="195.45" y1="86.5" x2="335.45" y2="86.5" fill="none" stroke="#ebf0f2" stroke-miterlimit="10"/><line x1="391" y1="85.5" x2="531" y2="85.5" fill="none" stroke="#ebf0f2" stroke-miterlimit="10"/></svg>