<svg id="Layer_1" data-name="Layer 1" xmlns="http://www.w3.org/2000/svg" width="73.03mm" height="73.03mm" viewBox="0 0 207.01 207.01"><circle cx="2.8" cy="2.8" r="2.8" fill="#e5e6ed"/><circle cx="57.68" cy="2.8" r="2.8" fill="#e5e6ed"/><circle cx="21.09" cy="2.8" r="2.8" fill="#e5e6ed"/><circle cx="75.98" cy="2.8" r="2.8" fill="#e5e6ed"/><circle cx="39.39" cy="2.8" r="2.8" fill="#e5e6ed"/><circle cx="94.27" cy="2.8" r="2.8" fill="#e5e6ed"/><circle cx="2.8" cy="39.39" r="2.8" fill="#e5e6ed"/><circle cx="57.68" cy="39.39" r="2.8" fill="#e5e6ed"/><circle cx="21.09" cy="39.39" r="2.8" fill="#e5e6ed"/><circle cx="75.98" cy="39.39" r="2.8" fill="#e5e6ed"/><circle cx="39.39" cy="39.39" r="2.8" fill="#e5e6ed"/><circle cx="94.27" cy="39.39" r="2.8" fill="#e5e6ed"/><circle cx="2.8" cy="75.98" r="2.8" fill="#e5e6ed"/><circle cx="57.68" cy="75.98" r="2.8" fill="#e5e6ed"/><circle cx="21.09" cy="75.98" r="2.8" fill="#e5e6ed"/><circle cx="75.98" cy="75.98" r="2.8" fill="#e5e6ed"/><circle cx="39.39" cy="75.98" r="2.8" fill="#e5e6ed"/><circle cx="94.27" cy="75.98" r="2.8" fill="#e5e6ed"/><circle cx="2.8" cy="21.09" r="2.8" fill="#e5e6ed"/><circle cx="57.68" cy="21.09" r="2.8" fill="#e5e6ed"/><circle cx="21.09" cy="21.09" r="2.8" fill="#e5e6ed"/><circle cx="75.98" cy="21.09" r="2.8" fill="#e5e6ed"/><circle cx="39.39" cy="21.09" r="2.8" fill="#e5e6ed"/><circle cx="94.27" cy="21.09" r="2.8" fill="#e5e6ed"/><circle cx="2.8" cy="57.68" r="2.8" fill="#e5e6ed"/><circle cx="57.68" cy="57.68" r="2.8" fill="#e5e6ed"/><circle cx="21.09" cy="57.68" r="2.8" fill="#e5e6ed"/><circle cx="75.98" cy="57.68" r="2.8" fill="#e5e6ed"/><circle cx="39.39" cy="57.68" r="2.8" fill="#e5e6ed"/><circle cx="94.27" cy="57.68" r="2.8" fill="#e5e6ed"/><circle cx="2.8" cy="94.27" r="2.8" fill="#e5e6ed"/><circle cx="57.68" cy="94.27" r="2.8" fill="#e5e6ed"/><circle cx="21.09" cy="94.27" r="2.8" fill="#e5e6ed"/><circle cx="75.98" cy="94.27" r="2.8" fill="#e5e6ed"/><circle cx="39.39" cy="94.27" r="2.8" fill="#e5e6ed"/><circle cx="94.27" cy="94.27" r="2.8" fill="#e5e6ed"/><circle cx="112.73" cy="2.8" r="2.8" fill="#e5e6ed"/><circle cx="167.62" cy="2.8" r="2.8" fill="#e5e6ed"/><circle cx="131.03" cy="2.8" r="2.8" fill="#e5e6ed"/><circle cx="185.92" cy="2.8" r="2.8" fill="#e5e6ed"/><circle cx="149.32" cy="2.8" r="2.8" fill="#e5e6ed"/><circle cx="204.21" cy="2.8" r="2.8" fill="#e5e6ed"/><circle cx="112.73" cy="39.39" r="2.8" fill="#e5e6ed"/><circle cx="167.62" cy="39.39" r="2.8" fill="#e5e6ed"/><circle cx="131.03" cy="39.39" r="2.8" fill="#e5e6ed"/><circle cx="185.92" cy="39.39" r="2.8" fill="#e5e6ed"/><circle cx="149.32" cy="39.39" r="2.8" fill="#e5e6ed"/><circle cx="204.21" cy="39.39" r="2.8" fill="#e5e6ed"/><circle cx="112.73" cy="75.98" r="2.8" fill="#e5e6ed"/><circle cx="167.62" cy="75.98" r="2.8" fill="#e5e6ed"/><circle cx="131.03" cy="75.98" r="2.8" fill="#e5e6ed"/><circle cx="185.92" cy="75.98" r="2.8" fill="#e5e6ed"/><circle cx="149.32" cy="75.98" r="2.8" fill="#e5e6ed"/><circle cx="204.21" cy="75.98" r="2.8" fill="#e5e6ed"/><circle cx="112.73" cy="21.09" r="2.8" fill="#e5e6ed"/><circle cx="167.62" cy="21.09" r="2.8" fill="#e5e6ed"/><circle cx="131.03" cy="21.09" r="2.8" fill="#e5e6ed"/><circle cx="185.92" cy="21.09" r="2.8" fill="#e5e6ed"/><circle cx="149.32" cy="21.09" r="2.8" fill="#e5e6ed"/><circle cx="204.21" cy="21.09" r="2.8" fill="#e5e6ed"/><circle cx="112.73" cy="57.68" r="2.8" fill="#e5e6ed"/><circle cx="167.62" cy="57.68" r="2.8" fill="#e5e6ed"/><circle cx="131.03" cy="57.68" r="2.8" fill="#e5e6ed"/><circle cx="185.92" cy="57.68" r="2.8" fill="#e5e6ed"/><circle cx="149.32" cy="57.68" r="2.8" fill="#e5e6ed"/><circle cx="204.21" cy="57.68" r="2.8" fill="#e5e6ed"/><circle cx="112.73" cy="94.27" r="2.8" fill="#e5e6ed"/><circle cx="167.62" cy="94.27" r="2.8" fill="#e5e6ed"/><circle cx="131.03" cy="94.27" r="2.8" fill="#e5e6ed"/><circle cx="185.92" cy="94.27" r="2.8" fill="#e5e6ed"/><circle cx="149.32" cy="94.27" r="2.8" fill="#e5e6ed"/><circle cx="204.21" cy="94.27" r="2.8" fill="#e5e6ed"/><circle cx="2.8" cy="112.74" r="2.8" fill="#e5e6ed"/><circle cx="57.68" cy="112.74" r="2.8" fill="#e5e6ed"/><circle cx="21.09" cy="112.74" r="2.8" fill="#e5e6ed"/><circle cx="75.98" cy="112.74" r="2.8" fill="#e5e6ed"/><circle cx="39.39" cy="112.74" r="2.8" fill="#e5e6ed"/><circle cx="94.27" cy="112.74" r="2.8" fill="#e5e6ed"/><circle cx="2.8" cy="149.33" r="2.8" fill="#e5e6ed"/><circle cx="57.68" cy="149.33" r="2.8" fill="#e5e6ed"/><circle cx="21.09" cy="149.33" r="2.8" fill="#e5e6ed"/><circle cx="75.98" cy="149.33" r="2.8" fill="#e5e6ed"/><circle cx="39.39" cy="149.33" r="2.8" fill="#e5e6ed"/><circle cx="94.27" cy="149.33" r="2.8" fill="#e5e6ed"/><circle cx="2.8" cy="185.92" r="2.8" fill="#e5e6ed"/><circle cx="57.68" cy="185.92" r="2.8" fill="#e5e6ed"/><circle cx="21.09" cy="185.92" r="2.8" fill="#e5e6ed"/><circle cx="75.98" cy="185.92" r="2.8" fill="#e5e6ed"/><circle cx="39.39" cy="185.92" r="2.8" fill="#e5e6ed"/><circle cx="94.27" cy="185.92" r="2.8" fill="#e5e6ed"/><circle cx="2.8" cy="131.03" r="2.8" fill="#e5e6ed"/><circle cx="57.68" cy="131.03" r="2.8" fill="#e5e6ed"/><circle cx="21.09" cy="131.03" r="2.8" fill="#e5e6ed"/><circle cx="75.98" cy="131.03" r="2.8" fill="#e5e6ed"/><circle cx="39.39" cy="131.03" r="2.8" fill="#e5e6ed"/><circle cx="94.27" cy="131.03" r="2.8" fill="#e5e6ed"/><circle cx="2.8" cy="167.62" r="2.8" fill="#e5e6ed"/><circle cx="57.68" cy="167.62" r="2.8" fill="#e5e6ed"/><circle cx="21.09" cy="167.62" r="2.8" fill="#e5e6ed"/><circle cx="75.98" cy="167.62" r="2.8" fill="#e5e6ed"/><circle cx="39.39" cy="167.62" r="2.8" fill="#e5e6ed"/><circle cx="94.27" cy="167.62" r="2.8" fill="#e5e6ed"/><circle cx="2.8" cy="204.21" r="2.8" fill="#e5e6ed"/><circle cx="57.68" cy="204.21" r="2.8" fill="#e5e6ed"/><circle cx="21.09" cy="204.21" r="2.8" fill="#e5e6ed"/><circle cx="75.98" cy="204.21" r="2.8" fill="#e5e6ed"/><circle cx="39.39" cy="204.21" r="2.8" fill="#e5e6ed"/><circle cx="94.27" cy="204.21" r="2.8" fill="#e5e6ed"/><circle cx="112.73" cy="112.74" r="2.8" fill="#e5e6ed"/><circle cx="167.62" cy="112.74" r="2.8" fill="#e5e6ed"/><circle cx="131.03" cy="112.74" r="2.8" fill="#e5e6ed"/><circle cx="185.92" cy="112.74" r="2.8" fill="#e5e6ed"/><circle cx="149.32" cy="112.74" r="2.8" fill="#e5e6ed"/><circle cx="204.21" cy="112.74" r="2.8" fill="#e5e6ed"/><circle cx="112.73" cy="149.33" r="2.8" fill="#e5e6ed"/><circle cx="167.62" cy="149.33" r="2.8" fill="#e5e6ed"/><circle cx="131.03" cy="149.33" r="2.8" fill="#e5e6ed"/><circle cx="185.92" cy="149.33" r="2.8" fill="#e5e6ed"/><circle cx="149.32" cy="149.33" r="2.8" fill="#e5e6ed"/><circle cx="204.21" cy="149.33" r="2.8" fill="#e5e6ed"/><circle cx="112.73" cy="185.92" r="2.8" fill="#e5e6ed"/><circle cx="167.62" cy="185.92" r="2.8" fill="#e5e6ed"/><circle cx="131.03" cy="185.92" r="2.8" fill="#e5e6ed"/><circle cx="185.92" cy="185.92" r="2.8" fill="#e5e6ed"/><circle cx="149.32" cy="185.92" r="2.8" fill="#e5e6ed"/><circle cx="204.21" cy="185.92" r="2.8" fill="#e5e6ed"/><circle cx="112.73" cy="131.03" r="2.8" fill="#e5e6ed"/><circle cx="167.62" cy="131.03" r="2.8" fill="#e5e6ed"/><circle cx="131.03" cy="131.03" r="2.8" fill="#e5e6ed"/><circle cx="185.92" cy="131.03" r="2.8" fill="#e5e6ed"/><circle cx="149.32" cy="131.03" r="2.8" fill="#e5e6ed"/><circle cx="204.21" cy="131.03" r="2.8" fill="#e5e6ed"/><circle cx="112.73" cy="167.63" r="2.8" fill="#e5e6ed"/><circle cx="167.62" cy="167.63" r="2.8" fill="#e5e6ed"/><circle cx="131.03" cy="167.63" r="2.8" fill="#e5e6ed"/><circle cx="185.92" cy="167.63" r="2.8" fill="#e5e6ed"/><circle cx="149.32" cy="167.63" r="2.8" fill="#e5e6ed"/><circle cx="204.21" cy="167.63" r="2.8" fill="#e5e6ed"/><circle cx="112.73" cy="204.22" r="2.8" fill="#e5e6ed"/><circle cx="167.62" cy="204.22" r="2.8" fill="#e5e6ed"/><circle cx="131.03" cy="204.22" r="2.8" fill="#e5e6ed"/><circle cx="185.92" cy="204.22" r="2.8" fill="#e5e6ed"/><circle cx="149.32" cy="204.22" r="2.8" fill="#e5e6ed"/><circle cx="204.21" cy="204.22" r="2.8" fill="#e5e6ed"/></svg>