<svg xmlns="http://www.w3.org/2000/svg" width="12" height="18" viewBox="0 0 12 18"><title>ps-definition</title><path d="M12,16H4v-.41h8v-.46H1.77v.46h.44V16h.12a3.52,3.52,0,0,1-.56,0h0a1.32,1.32,0,0,1-.55-.24c-.13-.13-.08-.18-.08-.39a.72.72,0,0,1,.77-.7H12V0H1.32a1.76,1.76,0,0,0-1,.56C-.11,1,0,1.43,0,2.18l0,12.09A2.16,2.16,0,0,0,.71,16a1.79,1.79,0,0,0,.57.34,1.68,1.68,0,0,0,.49.12,1.37,1.37,0,0,0,.27,0h.17V18l1-1.52h.12L4,17.85V16.48h8ZM11.56.46V14.19H1.77V.46ZM.43,1.39A1,1,0,0,1,1.32.46V14.19c-.44.15-.6.68-.61,1.2a2,2,0,0,1-.28-1.12S.44,1.83.43,1.39Z" fill="#333332"/><path d="M5.87,9.45l-.31-1.1H4L3.7,9.45h-1L4.2,4.79H5.37L6.84,9.45ZM5.34,7.52l-.29-1s0-.1,0-.19A2,2,0,0,1,4.92,6c0-.1-.06-.21-.08-.31a2,2,0,0,1,0-.27s0,.1,0,.16,0,.13,0,.2L4.65,6l-.05.2a1.36,1.36,0,0,0,0,.17.3.3,0,0,0,0,.11l-.29,1Z" fill="#333332"/><path d="M10.55,9.45H7.44V8.81L9.35,5.62H7.5V4.81h3v.64L8.58,8.64h2Z" fill="#333332"/></svg>