<svg xmlns="http://www.w3.org/2000/svg" width="16" height="18" viewBox="0 0 16 18"><title>ps-lab-instructions</title><path d="M15.35,15.86,10,4.7V1.55h.35a.79.79,0,0,0,.8-.77.79.79,0,0,0-.8-.78H5.69a.8.8,0,0,0-.81.78.8.8,0,0,0,.81.77H6V4.7L.65,15.86a1.43,1.43,0,0,0,.1,1.44,1.57,1.57,0,0,0,1.32.7H13.93a1.57,1.57,0,0,0,1.32-.7A1.43,1.43,0,0,0,15.35,15.86Zm-1.42,1.48H2.07A.89.89,0,0,1,1.33,17a.84.84,0,0,1-.06-.81L6.7,4.92l0-4h-1A.12.12,0,0,1,5.57.78.12.12,0,0,1,5.69.66h4.62a.12.12,0,0,1,.12.12.12.12,0,0,1-.12.11h-1V4.8l5.46,11.34a.84.84,0,0,1-.06.81h0A.89.89,0,0,1,13.93,17.34Z" fill="#333332"/><rect x="6.97" y="10.58" width="1.94" height="5.42" fill="#333332"/><path d="M7.19,8.77A1,1,0,0,0,7.53,9,1.84,1.84,0,0,0,7.94,9,1.77,1.77,0,0,0,8.35,9a.88.88,0,0,0,.33-.18.75.75,0,0,0,.23-.32A1.24,1.24,0,0,0,9,8a1.16,1.16,0,0,0-.09-.49.7.7,0,0,0-.23-.32A.76.76,0,0,0,8.35,7a1.78,1.78,0,0,0-.41,0,1.84,1.84,0,0,0-.41,0,.86.86,0,0,0-.34.18A.76.76,0,0,0,7,7.46,1.16,1.16,0,0,0,6.88,8a1.24,1.24,0,0,0,.09.5A.83.83,0,0,0,7.19,8.77Z" fill="#333332"/></svg>