<svg xmlns="http://www.w3.org/2000/svg" width="18" height="18" viewBox="0 0 18 18"><title>ps-links</title><path d="M16.73,1.27a4.91,4.91,0,0,0-6.92.33L8.64,2.77a2.44,2.44,0,0,1,1.17,0l.6-.6a4,4,0,0,1,5.66-.27,4,4,0,0,1-.27,5.66l-3.29,3.29a4,4,0,0,1-5.66.27,3.41,3.41,0,0,1-.94-1.76l-.74.74a4.19,4.19,0,0,0,1,1.68,4.91,4.91,0,0,0,6.92-.33L16.4,8.19A4.92,4.92,0,0,0,16.73,1.27Z" fill="#333332"/><path d="M8.19,15.2l-.6.6a4,4,0,0,1-5.66.27,4,4,0,0,1,.27-5.66L5.49,7.12a4,4,0,0,1,5.66-.27,3.41,3.41,0,0,1,.94,1.76l.74-.74a4.19,4.19,0,0,0-1-1.68,4.9,4.9,0,0,0-6.91.33L1.6,9.81a4.92,4.92,0,0,0-.33,6.92,4.91,4.91,0,0,0,6.92-.33l1.17-1.17A2.44,2.44,0,0,1,8.19,15.2Z" fill="#333332"/></svg>