<svg xmlns="http://www.w3.org/2000/svg" width="23.11" height="16" viewBox="0 0 23.11 16"><title>ps-quote-close</title><path d="M21.59,1.72A4.7,4.7,0,0,0,17.89,0,3.68,3.68,0,0,0,15,1.11a3.79,3.79,0,0,0-1,2.64,2.83,2.83,0,0,0,1.22,2.59,4.39,4.39,0,0,0,2.24.74c.12,0,.85-.06,2.19-.25a.88.88,0,0,1,.61.19.59.59,0,0,1,.24.55,6.31,6.31,0,0,1-1.58,3.88,13.73,13.73,0,0,1-3.77,3.2L15.82,16a14.29,14.29,0,0,0,5.05-4.12A9.13,9.13,0,0,0,23.11,6,6.1,6.1,0,0,0,21.59,1.72Z" fill="#b3b3b3"/><path d="M4,0a3.62,3.62,0,0,0-3,1.23A4.13,4.13,0,0,0,0,3.75,3.47,3.47,0,0,0,1.22,6.28a4,4,0,0,0,2.3.86c.13,0,.85-.06,2.19-.25a.73.73,0,0,1,.67.25,1,1,0,0,1,.18.61A5.93,5.93,0,0,1,5,11.57a14.56,14.56,0,0,1-3.76,3.14L1.82,16a14.26,14.26,0,0,0,5-4,9.66,9.66,0,0,0,2.3-6.22,6.14,6.14,0,0,0-1.45-4A4.65,4.65,0,0,0,4,0Z" fill="#b3b3b3"/></svg>