<svg xmlns="http://www.w3.org/2000/svg" width="23.11" height="16" viewBox="0 0 23.11 16"><title>ps-quote-open</title><path d="M7.9,9.66a4.42,4.42,0,0,0-2.25-.74c-.12,0-.85.06-2.19.25A.85.85,0,0,1,2.86,9a.58.58,0,0,1-.25-.55A6.31,6.31,0,0,1,4.19,4.55,13.88,13.88,0,0,1,8,1.35L7.29,0a14.35,14.35,0,0,0-5,4.12A9.09,9.09,0,0,0,0,10a6.14,6.14,0,0,0,1.52,4.31A4.72,4.72,0,0,0,5.23,16a3.68,3.68,0,0,0,2.85-1.11,3.79,3.79,0,0,0,1-2.64A2.82,2.82,0,0,0,7.9,9.66Z" fill="#b3b3b3"/><path d="M21.9,9.72a4,4,0,0,0-2.31-.86c-.12,0-.85.06-2.19.25a.76.76,0,0,1-.67-.25,1,1,0,0,1-.18-.61,6,6,0,0,1,1.58-3.82A14.44,14.44,0,0,1,21.9,1.29L21.29,0a14.32,14.32,0,0,0-5,4A9.61,9.61,0,0,0,14,10.22a6.15,6.15,0,0,0,1.46,4A4.63,4.63,0,0,0,19.16,16a3.62,3.62,0,0,0,3-1.23,4.13,4.13,0,0,0,.91-2.52A3.46,3.46,0,0,0,21.9,9.72Z" fill="#b3b3b3"/></svg>