<svg xmlns="http://www.w3.org/2000/svg" width="54.001" height="48.125" viewBox="0 0 54.001 48.125">
  <g id="Group_185" data-name="Group 185" transform="translate(0 0)">
    <path id="Path_835" data-name="Path 835" d="M12495.342,9626.782a12.285,12.285,0,0,0-4.178.728,30.037,30.037,0,0,1,.6-5.435,23.879,23.879,0,0,1,3.155-8,18.318,18.318,0,0,1,2.664-3.284,15.881,15.881,0,0,1,3.368-2.5l-2.309-4.979a21.7,21.7,0,0,0-4.97,2.854,24.629,24.629,0,0,0-4.085,3.98,28.907,28.907,0,0,0-3.11,4.712,32.946,32.946,0,0,0-2.187,5.153,39.436,39.436,0,0,0-1.917,10.924,45,45,0,0,0,.155,5.55q.195,2.149.593,4.273a12.33,12.33,0,1,0,12.218-13.98Z" transform="translate(-12482.35 -9603.316)" fill="#f63"/>
    <path id="Path_836" data-name="Path 836" d="M13053.566,9626.782a12.286,12.286,0,0,0-4.179.728,29.949,29.949,0,0,1,.6-5.435,23.781,23.781,0,0,1,3.157-8,18.3,18.3,0,0,1,2.661-3.284,15.887,15.887,0,0,1,3.369-2.5l-2.311-4.979a21.729,21.729,0,0,0-4.968,2.854,24.629,24.629,0,0,0-4.085,3.98,28.849,28.849,0,0,0-3.111,4.712,33.223,33.223,0,0,0-2.187,5.153,39.4,39.4,0,0,0-1.916,10.924,44.428,44.428,0,0,0,.154,5.55q.192,2.149.593,4.273a12.33,12.33,0,1,0,12.22-13.98Z" transform="translate(-13011.895 -9603.316)" fill="#f63"/>
  </g>
</svg>
