<svg id="Layer_1" data-name="Layer 1" xmlns="http://www.w3.org/2000/svg" width="121" height="20" viewBox="0 0 121 20"><title>ps-rating-full</title><path d="M4.31,19.47l1.18-6.89L.48,7.7l6.92-1L10.5.43,13.59,6.7l6.92,1-5,4.88,1.18,6.89L10.5,16.22Zm6.19-4.38,4.86,2.56-.93-5.41L18.36,8.4l-5.44-.79L10.5,2.69,8.07,7.61,2.63,8.4l3.93,3.83-.93,5.41Z" fill="#ff5a21"/><path d="M29.31,19.47l1.18-6.89-5-4.88,6.92-1L35.5.43,38.59,6.7l6.92,1-5,4.88,1.18,6.89L35.5,16.22Zm6.19-4.38,4.86,2.56-.93-5.41L43.36,8.4l-5.44-.79L35.5,2.69,33.07,7.61l-5.43.79,3.93,3.83-.93,5.41Z" fill="#ff5a21"/><path d="M54.31,19.47l1.18-6.89-5-4.88,6.92-1L60.5.43,63.59,6.7l6.92,1-5,4.88,1.18,6.89L60.5,16.22Zm6.19-4.38,4.86,2.56-.93-5.41L68.36,8.4l-5.44-.79L60.5,2.69,58.07,7.61l-5.43.79,3.93,3.83-.93,5.41Z" fill="#ff5a21"/><path d="M79.31,19.47l1.18-6.89-5-4.88,6.92-1L85.5.43,88.59,6.7l6.92,1-5,4.88,1.18,6.89L85.5,16.22Zm6.19-4.38,4.86,2.56-.93-5.41L93.36,8.4l-5.44-.79L85.5,2.69,83.07,7.61l-5.43.79,3.93,3.83-.93,5.41Z" fill="#ff5a21"/><path d="M104.31,19.47l1.18-6.89-5-4.88,6.92-1L110.5.43l3.09,6.27,6.92,1-5,4.88,1.18,6.89-6.19-3.25Zm6.19-4.38,4.86,2.56-.93-5.41,3.93-3.83-5.44-.79L110.5,2.69l-2.43,4.92-5.43.79,3.93,3.83-.93,5.41Z" fill="#ff5a21"/></svg>