<svg xmlns="http://www.w3.org/2000/svg" width="12" height="18" viewBox="0 0 12 18"><title>ps-solution</title><rect x="2.82" y="14.82" width="6.35" height="0.71" fill="#333332"/><rect x="2.82" y="16.24" width="6.35" height="0.71" fill="#333332"/><rect x="2.82" y="17.65" width="6.35" height="0.35" fill="#333332"/><path d="M6,0C3.55,0,0,2.34,0,6c0,1.41.62,2.82,2.3,5.17l.86,2.95H8.84l.86-2.95C11.38,8.82,12,7.41,12,6,12,2.34,8.45,0,6,0ZM5.6,13.41,4.33,4.5,7.72,6.2,6.41,13.41Zm3.49-2.6-.78,2.6H7.13L8.51,5.8,3.44,3.27,4.89,13.41H3.69L3,10.92l0-.11C1.3,8.56.71,7.26.71,6,.71,2.57,4.2.71,6,.71S11.29,2.57,11.29,6C11.29,7.26,10.7,8.56,9.09,10.81Z" fill="#333332"/></svg>