<svg xmlns="http://www.w3.org/2000/svg" width="26" height="26" viewBox="0 0 26 26"><title>ps-icon-warning</title><path color="" d="M24.45,26H1.55a1.55,1.55,0,0,1-1.32-.73,1.52,1.52,0,0,1-.07-1.49L11.62.85A1.54,1.54,0,0,1,13,0a1.56,1.56,0,0,1,1.39.85L25.84,23.78a1.52,1.52,0,0,1-.07,1.49A1.55,1.55,0,0,1,24.45,26Zm-12-24.73L1,24.2a.6.6,0,0,0,0,.58.58.58,0,0,0,.52.29h22.9a.58.58,0,0,0,.52-.29.6.6,0,0,0,0-.58L13.55,1.27a.63.63,0,0,0-1.1,0Z" fill="#ffaf10"/><path d="M15.34,9.32l-1.86,8.4h-1.1L10.66,9.35ZM12.93,22.21a1.5,1.5,0,1,1,1.5-1.49A1.5,1.5,0,0,1,12.93,22.21Z" fill="#ffaf10"/></svg>