<svg xmlns="http://www.w3.org/2000/svg" width="2300" height="303.97" viewBox="0 0 2300 303.97"><title>banner-map-orange-top</title><g id="Layer_6" data-name="Layer 6"><rect x="-3" y="-9.79" width="2306" height="855" fill="#e24920"/><rect x="15.5" y="-10.29" width="2287" height="857" fill="none" stroke="#ff5a21" stroke-miterlimit="10"/><line x1="16" y1="275.71" x2="2303" y2="275.71" fill="none" stroke="#ff5a21" stroke-miterlimit="10"/><line x1="16" y1="132.71" x2="2303" y2="132.71" fill="none" stroke="#ff5a21" stroke-miterlimit="10"/><line x1="2160.5" y1="-9.79" x2="2160.5" y2="847.21" fill="none" stroke="#ff5a21" stroke-miterlimit="10"/><line x1="2017.5" y1="-9.79" x2="2017.5" y2="847.21" fill="none" stroke="#ff5a21" stroke-miterlimit="10"/><line x1="1874.5" y1="-9.79" x2="1874.5" y2="847.21" fill="none" stroke="#ff5a21" stroke-miterlimit="10"/><line x1="1731.5" y1="-9.79" x2="1731.5" y2="847.21" fill="none" stroke="#ff5a21" stroke-miterlimit="10"/><line x1="1588.5" y1="-9.79" x2="1588.5" y2="847.21" fill="none" stroke="#ff5a21" stroke-miterlimit="10"/><line x1="1458.5" y1="-62.79" x2="1458.5" y2="794.21" fill="none" stroke="#ff5a21" stroke-miterlimit="10"/><line x1="1302.5" y1="-9.79" x2="1302.5" y2="847.21" fill="none" stroke="#ff5a21" stroke-miterlimit="10"/><line x1="1159.5" y1="-9.79" x2="1159.5" y2="847.21" fill="none" stroke="#ff5a21" stroke-miterlimit="10"/><line x1="1017.5" y1="-9.79" x2="1017.5" y2="847.21" fill="none" stroke="#ff5a21" stroke-miterlimit="10"/><line x1="873.5" y1="-9.79" x2="873.5" y2="847.21" fill="none" stroke="#ff5a21" stroke-miterlimit="10"/><line x1="730.5" y1="-9.79" x2="730.5" y2="847.21" fill="none" stroke="#ff5a21" stroke-miterlimit="10"/><line x1="587.5" y1="-9.79" x2="587.5" y2="847.21" fill="none" stroke="#ff5a21" stroke-miterlimit="10"/><line x1="445.5" y1="-9.79" x2="445.5" y2="847.21" fill="none" stroke="#ff5a21" stroke-miterlimit="10"/><line x1="301.5" y1="-9.79" x2="301.5" y2="847.21" fill="none" stroke="#ff5a21" stroke-miterlimit="10"/><line x1="158.5" y1="-9.79" x2="158.5" y2="847.21" fill="none" stroke="#ff5a21" stroke-miterlimit="10"/><g id="layer1"><path id="path2286" d="M709.48-3.88c-1.18.08-2,.33-2.19.68-.55.94-2.78,1.17-5,.55a13.11,13.11,0,0,0-7.74.55,13.07,13.07,0,0,1-6,1.3c-2.21-.36-5.33,4.77-5.8,9.57-.12,1.2-4.13,1.89-9,1.5-6.43-.51-8.67.07-8.25,2.19.37,1.9-1.68,2.92-6.06,3-3.66.07-7.28.81-8.06,1.64s-4.77,1.62-8.83,1.78l-7.41.27,7.22,1.37c4,.74,6.76,2.06,6.19,2.94s1.07,3.19,3.67,5.13c3.64,2.7,5.4,3,7.61,1,1.92-1.69,4.13-1.87,6.64-.48,9.63,5.36,20,5.14,30.37-.68,7.09-4,10.78-5,12.31-3.35,3.32,3.51-2,7.62-16.25,12.58-9.08,3.17-13.58,3.76-16.89,2.19-4.82-2.28-11-.86-11,2.53s14.69,11.44,18.63,10.12c4.84-1.63,6.93,2,3.09,5.4-4.24,3.73-24.82.17-24.82-4.31,0-1.79-1.61-4.55-3.55-6.08s-3-4.26-2.32-6.08.41-3.11-.58-2.87c-2.12.51-8.78-1.9-13.15-4.78-6.14-4.05-8.3-4.7-11.8-3.28-3,1.24-3.12,1.74-.52,3.49,3,2,2.46,2.4-4.71,3-1.42.12-3.67,1.65-5,3.42-3,4.06,2,8.6,9.61,8.75a18.2,18.2,0,0,1,8.25,2.26c2.42,1.63,1.62,2.4-3.8,3.55s-6.32,1.88-3.61,3.49c1.85,1.1,2.85,2.9,2.19,4s2.34,2.05,6.83,2.05c5.43,0,9.29-1.43,11.8-4.37,2.86-3.35,4.36-3.81,6.51-1.91a69.84,69.84,0,0,0,9,6c3.42,1.95,6.41,4.54,6.58,5.74.52,3.69-6.43,3.78-9.86.14-1.79-1.89-2.31-3.42-1.16-3.42a4.49,4.49,0,0,1,3.35,2.19c.7,1.2,2.82,2.19,4.71,2.19,2.65,0,2.33-.82-1.35-3.55-3.94-2.93-5.69-3.06-10.19-.89-4.88,2.36-5.11,2.87-1.87,4.78,3.78,2.24,3,6.28-1.22,6.22-1.48,0-1.21-.91.64-2.19,1.7-1.17,2.17-2.12,1-2.12-3.39,0-8.24,4-6.77,5.54.75.8,9.45,1.79,19.34,2.26s18.51,1.37,19.08,2c1.47,1.56,2.29,1.45,10-1.5,7.1-2.72,9.63-6.51,3.16-4.72-5.12,1.42-15.43-3.11-13.73-6,.76-1.3,3.62-1.76,6.38-1,3,.79,7.75-.16,11.67-2.32,3.64-2,7.91-4.31,9.54-5.13a8.61,8.61,0,0,0,3.87-4.37c.66-2.09-.48-2.49-4.19-1.5-2.82.75-5.72.7-6.45-.07-2.34-2.48,3.14-7.25,8.32-7.25,2.76,0,4.46-.93,3.8-2.05-2.11-3.61,2.27-4.41,9-1.71,5.42,2.17,6.89,2.09,8.38-.48,1-1.72,9.11-6.89,18-11.42s15.06-8.21,13.73-8.27a28.38,28.38,0,0,1-6.19-1.44c-2.81-1-3.09-.74-1,.82s1.3,2.65-3.55,4.44c-6.64,2.45-10.32.29-5.93-3.49,1.41-1.21,6.76-3.65,11.86-5.47,12.33-4.4,20.63-8.51,20.63-10.19,0-.75-2.55-3-5.67-4.85-4.11-2.5-7.38-2.93-11.86-1.57-6.82,2.06-12.29.9-10.44-2.26s-8.74-4.8-20.89-3.55a81.76,81.76,0,0,1-20.12-.82,41.54,41.54,0,0,0-7-.82C710.3-3.89,709.87-3.91,709.48-3.88Zm196.19,0c-5.52.06-9.46,1.17-8.51,2.8,2.37,4.07-4.69,4.71-11.41,1-5-2.75-7.8-3.12-11.28-1.44C871.29,0,869.13,0,867.63-1.56c-2.87-3-8.64-.57-8.64,3.69s3.35,4.32,5-.14c1.09-3,2-2.81,6.25,1.57,3.37,3.44,4.36,6,3,7.66-1.7,2.17-12.12,2.48-22.5.68-7.78-1.35-14.3.23-13.22,3.21,1.61,4.44-2.36,6.22-5.35,2.39s-6.39-4.31-5.67-.62c.37,1.92-3,2.52-11.86,2.05-11.78-.61-25.49,3.6-22.37,6.9,2.06,2.18-3.79,8.39-6.77,7.18a3.17,3.17,0,0,0-3.87.89,3.07,3.07,0,0,1-3.74,1c-3.38-1.37-19.1,6.73-16.44,8.48,1.13.74,5,.46,8.51-.62,8.5-2.59,10,.35,4.19,8.61C771,55.92,767.76,58,763.83,58c-3.12,0-6.25,1-7,2.26a2.34,2.34,0,0,1-3.29.89c-2.58-1.69-16.31,3.14-16.31,5.74,0,2,2.5,2.51,17.34,2.94,4.45.13,8.49,1.43,9,2.94,1,3-.75,3.82-12.89,6.15-7.41,1.43-7.73,1.74-3.09,3,2.84.78,4.69,2.25,4.13,3.28-1.54,2.79,6.61,5.25,11.35,3.42,2.27-.88,11.49-1.75,20.5-2s17.12-.93,18-1.5,2.88,1.71,4.51,5.06a43.37,43.37,0,0,0,7.35,10.25c2.39,2.29,4.32,5.34,4.32,6.77s1.77,4.29,3.93,6.36c2.73,2.62,3.63,5.72,3,10.19-1.1,7.38,2.37,8.82,4.13,1.71.95-3.84,1.71-4.24,4.13-2.12,7,6.2,5.25,13.84-3.8,16.2-2.83.74-2.12,1.12,2.26,1.3,3.51.14,7.91,2.1,9.8,4.31,3.21,3.76,3.22,4.29-.64,8s-4,4.06-.58,6.7,3.14,3-2.06,5.13c-3.12,1.26-5.67,3.4-5.67,4.78,0,1.83.84,1.79,3-.14,4.79-4.22,8.18-.39,4,4.51-2,2.29-2.7,4.2-1.68,4.24s.18,1.43-1.87,3.08c-2.41,1.93-2.91,3.51-1.48,4.44a3.06,3.06,0,0,1,.77,4c-.93,1.65-.31,1.54,1.81-.27,3.75-3.22,6.37-.64,3.8,3.76-1.07,1.83.41,6.22,4.06,12,8,12.58,13.68,17.59,20.18,17.7,3.06.05,5.66,1.3,5.8,2.8s.37,3.3.52,4c.55,2.59,12.68-6.74,12.89-9.91a70.56,70.56,0,0,0-.13-8.07c-.19-2.59.6-5.36,1.81-6.15s2.19-3.24,2.19-5.47c0-4.71,18.14-22.46,21-20.58,1.06.7,4.61.06,7.87-1.37,5.84-2.56,8.7-6.71,9.09-13.12.11-1.8,1.35-3,2.77-2.73s4.41-1.4,6.64-3.76c3.23-3.43,6.71-4.22,17.09-4,8,.14,15.37-1.1,19.15-3.14a66,66,0,0,1,13.35-5.06l7.22-1.71L984.85,143c-4-.92-9.18-1.11-11.61-.48-5.21,1.35-8.68-3.06-3.93-5a4.78,4.78,0,0,0,2.71-4.92c-.38-2.48,1.24-3.75,5.29-4.24,4.47-.54,6,.35,6.9,3.83,1.37,5.54,6.83,6,6.83.62,0-5.1-11.2-12.11-16.51-10.32-5.62,1.89-9.1-.65-6.13-4.44,1.76-2.25,1.25-3.45-2.06-5.33-5.89-3.34-3.06-7.2,4.06-5.54,4.71,1.1,5.73.64,5.48-2.53-.44-5.55,6.71-5.1,13.8.89,3.21,2.71,7.35,4.92,9.22,4.92,2.63,0,2.36-.76-1.22-3.42-5.86-4.35-4.12-7.52,4.19-7.52,6.12,0,6.25-.17,2.45-3.21-2.2-1.77-3.07-3.37-1.93-3.55s-.66-.95-4-1.71c-7.9-1.8-8-5.33-.13-7.11l6.19-1.37-6.58-.27c-3.62-.14-7.14-1.18-7.8-2.32-2-3.47,6.37-6.77,13.48-5.26,5,1.06,6.32.76,5.16-1.23-.86-1.47-2-2.14-2.64-1.5-2,2.14-9.17-3.4-8.12-6.29a5.59,5.59,0,0,0-1.22-5.2c-1.61-1.71-.66-3,3.29-4.58,3-1.22,5.48-3.69,5.48-5.47s1.62-4.27,3.61-5.61c3.05-2.06,2.8-2.31-1.74-1.3-6.43,1.43-8.89-.48-5.74-4.51,1.28-1.64,6.31-2.94,11.35-2.94,6,0,8.86-.87,8.51-2.67-.28-1.48,1.61-3.07,4.19-3.49a37.79,37.79,0,0,0,10-3.62l5.22-2.87-8.25-1.5c-4.55-.81-9.92-.56-12,.62-5.23,3-13.59,3.9-16.7,1.85-1.44-.95-5.37-.29-8.77,1.5-6,3.19-9.85,1.61-7.16-3,.89-1.53-3.63-2.09-13.8-1.57-11,.56-18.62,2.48-28,7-7.36,3.54-14.29,5.54-16.31,4.72C924.83,31,928,28.55,946,20.93c10.21-4.32,19.49-6.7,26.11-6.7,5.64,0,13.33-1.5,17.15-3.35l7-3.35-11.67,1.3C972.31,10.21,967.45,7.65,974,3.3c4.12-2.76-15.52-1.67-37.46,2.05-6.74,1.14-13.1,1.49-14.12.82-3.07-2,1.91-5.58,10.25-7.38,7.16-1.55,6.8-1.7-4.51-1.78-6.81,0-14.24-.28-16.51-.55A47.78,47.78,0,0,0,905.67-3.88ZM848.61-.53c-2.18.09-4.11,2-3,4a4.17,4.17,0,0,0,3,2.05c2.89,0,4.44-4,2.13-5.47A3.66,3.66,0,0,0,848.61-.53ZM839.07,2a2.43,2.43,0,0,0-.9.34,2.52,2.52,0,0,0-.71,3.35,2.22,2.22,0,0,0,3.16.75,2.52,2.52,0,0,0,.71-3.35A2.16,2.16,0,0,0,839.07,2Zm174.6,12.78c-2.18.09-4.11,2-3,4a4.17,4.17,0,0,0,3,2.05c2.89,0,4.43-4,2.13-5.47A3.66,3.66,0,0,0,1013.67,14.78Zm386.72,2.32c-1.11,0-1.47,1.61-1,4.51.18,1-1,1.35-2.64.68-4.15-1.69-5.91.77-3.09,4.37,2.22,2.83,6.34,3.22,5.35.55a.83.83,0,0,0,.52-.75c0-.13-.12-.29-.32-.48a12.56,12.56,0,0,1,2-3.55c1.8-2.3,2-3.9.52-4.85A2.44,2.44,0,0,0,1400.38,17.11Zm19.73,2.05c-2.18.09-4.11,2-3,4a4.17,4.17,0,0,0,3,2.05c2.89,0,4.43-4,2.13-5.47A3.66,3.66,0,0,0,1420.11,19.16Zm-618.24,2c2.81,0,5.69,2,4.51,4-1.61,2.77-6.61,2.84-8.19.14a2.7,2.7,0,0,1,1-3.49A4.75,4.75,0,0,1,801.87,21.14Zm559.18.55a2.43,2.43,0,0,0-.9.34,2.52,2.52,0,0,0-.71,3.35,2.22,2.22,0,0,0,3.16.75,2.52,2.52,0,0,0,.71-3.35A2.16,2.16,0,0,0,1361.06,21.69Zm199.35,1.85c-2.18.09-4.11,2-3,4a4.17,4.17,0,0,0,3,2.05c2.89,0,4.43-4,2.13-5.47A3.66,3.66,0,0,0,1560.41,23.53Zm-175.56.27a11.45,11.45,0,0,0-5.29,2,2.58,2.58,0,0,1-3.74-.62,2.35,2.35,0,0,0-3.29-1,2.52,2.52,0,0,0-.71,3.35,2.11,2.11,0,0,0,3,.89,2.13,2.13,0,0,1,3,.89,3.86,3.86,0,0,0,3.74,1.57c4.26-.68,7.91-3.71,6.77-5.67A3.46,3.46,0,0,0,1384.85,23.8Zm21.6.07a2.43,2.43,0,0,0-.9.34,2.52,2.52,0,0,0-.71,3.35,2.22,2.22,0,0,0,3.16.75,2.52,2.52,0,0,0,.71-3.35A2.16,2.16,0,0,0,1406.45,23.87ZM707.09,25.44c-1.41.26-4.35,1.95-10.44,5.47-9.61,5.55-6.23,6,6.51.89,2.89-1.16,5.22-3.14,5.22-4.37s-.08-1.89-.77-2A1.59,1.59,0,0,0,707.09,25.44Zm52,0A5.38,5.38,0,0,0,755.38,27c-1.53,1.62-.72,1.91,2.71,1,2.79-.77,3.67-1.78,2.13-2.32A3.26,3.26,0,0,0,759.06,25.44Zm823.34,1.37c-1.65.11-3.53,1.2-7,3.35-6.53,4.09-6.86,4.78-3.67,7.25,4,3.07,17.75,1.62,20.05-2.12.79-1.28-.9-4-3.8-6C1585.5,27.53,1584,26.7,1582.4,26.81ZM1428.3,28a5.2,5.2,0,0,0-2.45.82,11.57,11.57,0,0,1-4.47,1.78,1.93,1.93,0,0,0-1.89,1.64v3.14c0,.84,1.39.46,2.66-.89a5.25,5.25,0,0,1,5.13-1.37c3.26,1.33,6.07-2.83,3.18-4.72A3.43,3.43,0,0,0,1428.3,28Zm-84.53.48c-3.72,0-9.49,2.27-11.15,5.13-1.13,1.94,5.74,7.65,9.48,7.86a5.45,5.45,0,0,1,2.9,1.64,2.42,2.42,0,0,0,3.87-2.87,2.1,2.1,0,0,0-2.9-1c-.94.61-2.22-.28-2.84-2a3.55,3.55,0,0,1,2.19-4.37c2.22-.9,2.68-2.08,1.29-3.55A3.93,3.93,0,0,0,1343.78,28.52Zm13.15,0c-1.06-.05-2.19.61-3.87,1.91-3.47,2.69-3.58,3.41-.9,6.84,1.66,2.12,2.8,4.48,2.51,5.2s.31,1.3,1.35,1.3a5.51,5.51,0,0,1,3.42,1.57,2.42,2.42,0,0,0,3.87-2.87,2.11,2.11,0,0,0-3-.89,2.05,2.05,0,0,1-2.9-.82c-.63-1.09.88-2.51,3.42-3.21,6.27-1.74,6.71-1.76,6.71.55,0,3.85,3.06,5.18,6,2.6,2-1.78,3.34-1.85,4.26-.27s2.61,1.53,5.54-.14,3.62-3.07,2.06-4.72-3.08-1.56-5.16.27c-2.33,2-3.21,1.79-4.26-1.09-.73-2-1.92-3-2.64-2.26s-2.45.36-3.87-.89c-1.8-1.59-3-1.49-4,.21s-2.49,1.35-5-1C1359,29.31,1358,28.57,1356.93,28.52Zm56.87.07c-3,.07-10.14,5.76-9,7.79a3.83,3.83,0,0,0,2.77,1.91c2.56,0,8.63-7.87,7.22-9.36A1.34,1.34,0,0,0,1413.8,28.59Zm-23.86,1.85a2.24,2.24,0,0,0-.9.34c-1.07.7-1.24,2.41-.39,3.83a16.66,16.66,0,0,1,1.87,4.24c.16.9.37,2.29.52,3.08s2.08-.31,4.32-2.46c3.84-3.69,3.9-9.14.06-6.63a2.27,2.27,0,0,1-3.09-1.09A2.45,2.45,0,0,0,1389.94,30.43Zm-171.63,6.84c-2.14,0-2.39.65-2.39,2.05,0,1.55-1.56,4.16-3.48,5.81s-2.83,1.88-2,.41c1.82-3.22-1.51-5.51-9.48-6.49-5.33-.66-5.78-.27-3.48,2.67s2,4-1,7.11c-3.24,3.38-3.77,3.36-6,.21-3.89-5.51-8.26-5.95-11.86-1.23-2.32,3-4.55,3.86-7.29,2.73-3.85-1.58-3.86-1.65.06-4.72,4.4-3.43,2.9-3.84-6.83-1.78-3.55.75-6.45,2.29-6.45,3.42s.93,1.43,2.06.68c4.26-2.79,6.51,1.45,3,5.61-1.93,2.26-4.54,3.47-5.8,2.67s-1,.23.52,2.26c3.06,4,7.4,2.83,5.09-1.37-.78-1.42.63-.72,3.09,1.57,4.08,3.8,4.77,3.87,8.06.75,4.72-4.48,11.18-5.62,12.31-2.19.49,1.5-1.45,3.67-4.38,4.85-6.06,2.44-7.16,4.93-1.74,4,5.66-1,4.26,5.53-1.55,7.25-2.84.84-3.65,1.66-1.81,1.78a9.72,9.72,0,0,1,5.93,3.49c3.73,4.76,5.4,4.12,8.32-3.35a62.36,62.36,0,0,1,6.51-12c3.67-4.94,4.37-5.06,8.7-2.05,2.58,1.79,5.4,2.48,6.32,1.57s.57.62-.77,3.35c-2.3,4.69-2.08,4.93,4,4.44,3.54-.29,6.81-1.14,7.22-1.85.75-1.29-9.18-7.16-16.18-9.57-2.06-.71-3.21-2.14-2.58-3.21s-1-2.51-3.48-3.21c-3.56-1-4-1.86-2.06-3.9s5-2,13.8.07c10.75,2.55,11.73,2.4,18.76-2.67l7.41-5.33L1232,39.59C1224.5,38.05,1220.45,37.31,1218.31,37.27Zm47.78,1.37a4.75,4.75,0,0,0-2.64.68,2.7,2.7,0,0,0-1,3.49c1.57,2.7,6.58,2.63,8.19-.14C1271.77,40.65,1268.9,38.66,1266.09,38.64Zm22.76.55a2.43,2.43,0,0,0-.9.34,2.52,2.52,0,0,0-.71,3.35,2.22,2.22,0,0,0,3.16.75,2.52,2.52,0,0,0,.71-3.35A2.16,2.16,0,0,0,1288.84,39.18Zm113.47,0a2.43,2.43,0,0,0-.9.34,2.52,2.52,0,0,0-.71,3.35,2.22,2.22,0,0,0,3.16.75,2.52,2.52,0,0,0,.71-3.35A2.16,2.16,0,0,0,1402.32,39.18Zm167.18.41a13.65,13.65,0,0,0-3.55.48c-2.94.81-3.17,1.43-1,2.87,3.63,2.44,7.38,2.42,8.83-.07C1574.88,41,1572.73,39.59,1569.5,39.59Zm15.47,1c-2.94.18-6.63,1.47-10.9,3.9l-7,4,11.67,2.8c6.4,1.51,13.94,4.06,16.76,5.67,6.43,3.67,7.25,3,7.87-5.47.72-10-1.58-12.41-6.06-6.29l-3.8,5.2-1.29-4.92C1591.36,42,1588.76,40.32,1585,40.55Zm-987.87,1a1.59,1.59,0,0,0-.45.21c-1.14.75-1,2.56.45,4.37s3.26,2.47,4.32,1.78,1-2.5-.45-4.31C599.82,42.15,598.2,41.29,597.1,41.58Zm419.4,4.17a2.43,2.43,0,0,0-.9.34,2.52,2.52,0,0,0-.71,3.35,2.22,2.22,0,0,0,3.16.75,2.52,2.52,0,0,0,.71-3.35A2.16,2.16,0,0,0,1016.51,45.75ZM570.73,48.41c-2.78.11-3.29,1.31.26,3.42,1.87,1.11,2.81,3,2.13,4.17s.66,1.65,3.55.89c3.46-.91,6.87.51,12.06,5.13,8.68,7.73,12,6.81,6.25-1.78-2.46-3.67-8.09-7.6-13.73-9.64a35.43,35.43,0,0,0-9.16-2.19A13.18,13.18,0,0,0,570.73,48.41Zm1049.25,2c-3.16,0-5.89,2-9,6.29-2.84,4-5.16,7.69-5.16,8.34s3.48-.1,7.74-1.71,9.69-3,12.06-3.08c6.38-.14,7.55-2.56,2.9-6C1625.17,51.71,1622.44,50.42,1620,50.39ZM1246.81,52c-2.18.09-4.11,2-3,4a4.17,4.17,0,0,0,3,2.05c2.89,0,4.43-4,2.13-5.47A3.66,3.66,0,0,0,1246.81,52ZM1235.2,54.5a2.43,2.43,0,0,0-.9.34,2.52,2.52,0,0,0-.71,3.35,2.22,2.22,0,0,0,3.16.75,2.52,2.52,0,0,0,.71-3.35A2.16,2.16,0,0,0,1235.2,54.5Zm338.36,4.37a2.43,2.43,0,0,0-.9.34,2.52,2.52,0,0,0-.71,3.35,2.22,2.22,0,0,0,3.16.75,2.52,2.52,0,0,0,.71-3.35A2.16,2.16,0,0,0,1573.56,58.87Zm66,0a2.43,2.43,0,0,0-.9.34,2.52,2.52,0,0,0-.71,3.35,2.22,2.22,0,0,0,3.16.75,2.52,2.52,0,0,0,.71-3.35A2.16,2.16,0,0,0,1639.58,58.87Zm-1094.9.75a37.37,37.37,0,0,1-7.67.55c-3.47,0-5.81.84-5.22,1.85s4.13,1.51,7.87,1.16,4.91-.14,2.64.48c-7.18,1.94-13.31,5.87-12.19,7.79,1.56,2.67,2.66,2.34,10.51-2.8,3.87-2.54,6.69-5.74,6.25-7.11S545.44,59.32,544.68,59.62Zm62.93.48c-.63,0-.07.91,1.48,2.94,3.22,4.2,5.63,4.68,7.48,1.5.7-1.2.4-2.19-.71-2.19a21.17,21.17,0,0,1-5.8-1.5A8.38,8.38,0,0,0,607.61,60.1Zm404.77,3.14a2.43,2.43,0,0,0-.9.34,2.52,2.52,0,0,0-.71,3.35,2.22,2.22,0,0,0,3.16.75,2.52,2.52,0,0,0,.71-3.35A2.16,2.16,0,0,0,1012.38,63.25Zm555,0a2.43,2.43,0,0,0-.9.34,2.52,2.52,0,0,0-.71,3.35,2.22,2.22,0,0,0,3.16.75,2.52,2.52,0,0,0,.71-3.35A2.16,2.16,0,0,0,1567.37,63.25ZM521.54,64.54c-.5,0-.9,1-.9,2.19a2.2,2.2,0,0,0,2.19,2.19c1.2,0,1.6-1,.9-2.19S522,64.54,521.54,64.54Zm47.26,3.08a2.43,2.43,0,0,0-.9.34,2.52,2.52,0,0,0-.71,3.35,2.22,2.22,0,0,0,3.16.75,2.52,2.52,0,0,0,.71-3.35A2.16,2.16,0,0,0,568.8,67.62Zm988.26,0a2.43,2.43,0,0,0-.9.34,2.52,2.52,0,0,0-.71,3.35,2.21,2.21,0,0,0,3.16.75,2.52,2.52,0,0,0,.71-3.35A2.16,2.16,0,0,0,1557.06,67.62Zm69.12.21c-2.7.06-4.73,1.47-7.48,4.72-3.39,4-4.1,6.32-2.58,8.27,3,3.77.38,5.78-5.42,4.24-2.78-.74-8.12.35-12.44,2.53-5.52,2.77-8.48,3.14-11,1.5s-6.67-1.34-14.51.82c-6.12,1.68-14.07,3.08-17.67,3.08-6.56,0-18.09,4.15-19.6,7-.44.85.94,2.91,3.09,4.58,3.81,3,2.9,9.44-1,6.9-1-.69-8-1.56-15.34-1.91-12.9-.63-13.41-.43-13.41,4.51,0,2.93,1.27,5.13,2.9,5.13,5.07,0,11.38,7.44,12,14.15.48,5.27-.21,6.57-3.55,6.56-3.17,0-4-1.35-3.74-5.74.31-4.89-1-6.32-8.83-9.5-6.65-2.69-9.94-3.06-11.86-1.37s-3.36,1.64-5.09-.21-2.45-1.8-2.45-.21c0,1.31,2.46,4,5.42,6.08,7.69,5.34,3.37,9.22-5.09,4.58a17.12,17.12,0,0,1-8.32-10.53c-1.06-3.89-2-5.51-2.13-3.55a10.7,10.7,0,0,1-3.35,6.36,5.84,5.84,0,0,0-1.81,6.29c1.2,3,2,7.41,2.71,13.88.09.9,2.69,1.64,5.74,1.64,6.34,0,15.09,7.69,15.09,13.26a6,6,0,0,0,3.42,5.2c2.42,1,2.83,2.06,1.29,3.69-3,3.22-10.9-1.47-10.9-6.49,0-4.55-3.85-9.09-7.67-9.09-1.48,0-4.12,3.78-5.87,8.41s-6,10.64-9.41,13.33c-6,4.7-6.5,4.75-13.35,1.3-3.92-2-6.59-4.54-5.93-5.67,1.59-2.73,8.64-2.63,10.25.14,6.45,11.06,13.64-27.19,7.35-39.1-1-1.86-.77-5.5.52-8.48,2.57-6-.41-9.17-8.51-9.23-3.41,0-5.32,1.75-6.83,6.36a22.57,22.57,0,0,1-7.09,9.91c-4.4,3.06-4.72,4-2.45,8.27a29.27,29.27,0,0,0,6.19,7.72c2,1.59,3.61,4.38,3.61,6.15,0,5.35-6.11,6.09-11,1.37-2.65-2.59-9-5.06-15.28-5.95-10-1.42-11.11-1-15.67,4.58-3.4,4.19-6,5.54-8.51,4.51-3.14-1.28-3.25-2-.84-5.13,2.23-2.89,1.55-2.8-3.29.55a70.31,70.31,0,0,1-13.15,6.77c-6.29,2.29-7.15,2.13-8.06-1.57s-1.49-3.85-6.9-.89c-3.22,1.77-7.86,3.21-10.32,3.21s-7.66,3-11.54,6.56c-7.88,7.33-11.4,8.08-15.15,3.28-2.1-2.69-1.75-3.55,1.93-5,4.18-1.64,4-2-2.84-5.47-8-4-8.49-3.42-5.09,6.9,2.76,8.39-.51,14.6-6,11.35-3.63-2.15-15.74,5.32-13.86,8.54.57,1-.26,2.89-1.87,4.31-2.27,2-4.37,1.81-9.28-.89-6.86-3.76-8.57-2.33-2.71,2.26,2.7,2.11,3,3.52,1.29,5.4-3.62,3.89-14.85-3.21-16.57-10.46a21.35,21.35,0,0,0-5.67-9.64c-3.83-3.32-4-3.87-.9-5.13,1.88-.78,6.29.16,9.74,2.05,11,6,29.14,2.79,29.14-5.2,0-3.5-23.81-17.64-29.72-17.64-1.54,0-3.92-1.53-5.35-3.35-2-2.51-5-3-12.38-1.91-10.86,1.53-16-2.08-7.87-5.54,4.72-2,4.71-2.05-.77-2.19-3.05-.08-6.13-1.12-6.83-2.32a4.51,4.51,0,0,0-3.35-2.19c-1.13,0-1.37,1.23-.52,2.73,1.23,2.17.93,2.2-1.55.07-2.21-1.89-3.8-2-5.35-.34s-2.62,1.51-3.74-.41-.76-2.17,1.1-1,2.2.93,1.22-.75-2.67-1.86-5.22-.41c-2.05,1.16-4.45,1.41-5.35.55s-1-.4-.19,1c2.17,4-4.9,7.15-10.77,4.78-4.64-1.87-4.84-1.73-2.26,1.85,1.55,2.14,2,3.15,1,2.26s-3.05-.52-4.58.82-2.77,1.72-2.77.82-1.35-.47-3,1-4.17,2.4-5.67,2.19c-6.34-.91-8.42.08-6.19,2.94,2.84,3.63-.31,9.2-5.22,9.23-2.31,0-3.67,1.64-3.67,4.37,0,2.41-.6,3.88-1.35,3.28s-3.65,1.11-6.38,3.83-5.69,4.19-6.64,3.28-1.18.1-.45,2.26.32,4.25-1.16,4.72c-10.09,3.18-10.72,3.65-7.74,5.61,1.62,1.06,3.07,4.52,3.22,7.66.33,6.5-4.93,10.61-9.54,7.52-4-2.7-6.17-2.55-5.54.34.28,1.32-1.25,3.53-3.42,4.92-10.29,6.6-12.15,10.6-8.77,18.93.73,1.8,1.12,6.23.84,9.84-.43,5.61.29,6.68,4.9,7.25,3.46.43,7.64-1.4,11.73-5.06l6.38-5.67,2.9,6.15a124.91,124.91,0,0,1,5.54,14.83c3.7,12.39,4,12.67,9.41,8.89,2.69-1.87,6.91-3.42,9.35-3.42,3.5,0,4.18-.95,3.29-4.58-1.55-6.28,1.87-15.11,5.87-15.11,1.8,0,2.72-.93,2.06-2.05a2.7,2.7,0,0,1,1.1-3.49c1.48-1,.77-3.16-2.06-6.36-3.6-4.07-4-6.3-2.64-13.33,1.54-7.88,5.08-11.68,16.44-17.64,1.42-.74,2.58-3.4,2.58-5.88,0-10.18,12.83-16.55,18.57-9.23,2.88,3.68,2.24,4.91-10.38,18.87-6.37,7-7.21,9.2-6.51,17,1.07,11.92,3.67,13.73,13.8,9.77,9.83-3.85,21-4.07,25.08-.48,5.89,5.18.62,7-24.56,8.27-3.9.2-5.06,7.75-1.55,10,2.82,1.84,2.6,9.23-.32,11.14-1.31.86-3.6-.23-5.09-2.39-4-5.75-9.64-.41-8,7.52,1,4.65-.06,6.76-5.22,10.8s-6.94,4.44-9.35,2.32-5.08-1.47-13.48,3.14c-10,5.49-10.56,5.57-11.54,1.57-.89-3.62-1.83-3.93-7.09-2-5,1.84-6.84,1.57-10.19-1.64-2.41-2.31-3.59-5.37-2.84-7.38,3-8.09,2.82-11.35-.71-10.6s-4.08,4.72-2.32,18.11c.8,6.1.38,6.56-5.87,6.77-3.69.12-8.44,1.84-10.51,3.83s-4.33,3-5.09,2.19-1.42.44-1.42,2.8c0,5.34-3.77,9.57-8.57,9.57-2,0-4.66,2-5.87,4.37-2.48,4.92-13.62,11.74-16.31,10-1-.64-2.3.84-2.9,3.28-.87,3.54-2.14,4.14-6.38,3-6.91-1.84-7.17,2.77-.32,5.54,5.34,2.15,10.87,13,11.15,21.87.23,7.24-5.28,13.38-10.77,12-6.75-1.66-24.62-2.83-27.21-1.78-1.47.6-2,4.83-1.35,11.48.52,5.78-.06,12.47-1.29,14.9-3.15,6.24,1.31,15.9,7.35,15.93a8.05,8.05,0,0,1,6.51,3.76c1.64,3.11,2.78,3.29,6.77,1.23a50.63,50.63,0,0,1,10-3.62c7.68-1.74,12.93-6.6,13.54-12.51.3-2.89.61-6,.71-6.84s3.91-3.63,8.45-6.08c6.1-3.3,8.25-5.82,8.25-9.64,0-6.95,4.95-10.82,11.86-9.36a12.61,12.61,0,0,0,9.67-1.91c5.94-4.62,10.86-3.86,15,2.46,5.6,8.51,16.79,19.27,20.76,19.89,5.37.84,11,9.4,9.54,14.42-.92,3.06-.53,3.89,1.23,2.73,1.48-1,2-4.08,1.35-7.66-1.35-7.15.28-9.67,4.13-6.29,1.86,1.63,2.77,1.68,2.77.14,0-1.27-4.26-4.55-9.48-7.31-6-3.2-10.89-7.8-13.41-12.71-2.17-4.24-5.12-9.4-6.51-11.48-2.05-3.08-1.88-4.5,1-7.52,3.26-3.46,3.6-3.48,4.84-.07.73,2,2.07,3.18,3,2.6s3.11,1.34,4.9,4.24,7.36,8.43,12.44,12.3c6.25,4.76,9.76,9.19,10.7,13.74,1.63,7.85,11,21.12,14.89,21.12,1.49,0,2.13-1,1.42-2.26a2.48,2.48,0,0,0-3.55-.75c-1.37.9-1.65.45-.71-1.16,1.17-2,2.25-2,4.45-.07,3.31,2.92,2,6.43-2.39,6.43a3.14,3.14,0,0,0-3,3.28c0,4.15,1,4.09,7.29-.27s6.39-6.69.64-11.62c-4.07-3.49-3.84-10.54.26-7.86.94.61,2.26-.34,2.9-2.12.83-2.3,3.42-3,9.09-2.39,6.22.64,8.53-.13,10.51-3.49,1.67-2.84,1.91-5.21.58-6.9-2.95-3.76,6.53-23.58,14.12-29.53,5.06-4,7-4.42,10.44-2.46,3.13,1.78,3.73,3.15,2.13,5.2s-1,3.53,2.71,5.61c6.33,3.59,11.29.87,6-3.28-2.44-1.91-3-3.59-1.68-4.92,3-2.91,15.65-7.15,17.6-5.88,2.21,1.44,1.37,6.42-1.74,10.39-2.11,2.69-.82,4.64,7.74,11.55,11.89,9.62,13.8,13.33,9.48,18.39-3.94,4.61-15.94,4.33-26.31-.62-9.25-4.42-13.39-4.52-20.18-.41-2.84,1.72-7.11,3.17-9.54,3.21s-5,1.63-5.67,3.49-2.37,3.21-3.8,3c-6.1-.85-7.28.41-6.64,7.25a52.27,52.27,0,0,0,1,7.66,8.12,8.12,0,0,1,.64,2.53c.3,2.35,3.12,5.61,5.09,5.88a27.78,27.78,0,0,1,5.09,1.91c2.12,1,4.68.78,5.87-.48,1.41-1.5,4.34-1.48,9.09.07,5.08,1.65,8.53,1.56,12.31-.27,7.46-3.6,8-.2,3.16,19.34s-9.75,25.31-17.86,20.85c-3.86-2.12-6.7-2.27-10.83-.62-4.53,1.81-8.58,1.11-21-3.69-22.76-8.78-22.6-8.82-28.82,5.33-2.58,5.86-7.82,4.81-21-4.24-7.1-4.89-14.53-8.89-16.57-8.89s-5.63-2-7.93-4.44c-3.3-3.49-3.7-5.3-2-8.68,2.62-5.18.71-14.58-3.29-16.2-1.59-.65-8.08-.15-14.44,1.09s-12.85,1.74-14.44,1.09-10.7,1.76-20.25,5.33c-18.31,6.85-24.92,7.9-27,4.31-2.18-3.75-4.16-2.42-6.58,4.37a23.55,23.55,0,0,1-8.7,10.39c-5.8,3.5-7.91,8.91-6.51,16.75.85,4.74-5,14.88-10.32,17.77-3.15,1.73-8.59,8.49-12.12,15s-7.49,12.26-8.77,12.71c-3.59,1.27-4.5,7.68-4,28.3.31,12.71-.55,21.51-2.58,26.66-2.79,7.09-2.68,7.91,1,11.42,2.17,2.09,3.93,4.82,3.93,6s3.32,6.41,7.35,11.62,7,11,6.71,12.78c-1,5.26,6.47,15.25,16.25,21.81,8.47,5.68,9.66,5.93,18.57,3.55,5.23-1.4,11.93-2,14.89-1.3s10.23-.62,16.7-3.14c6.22-2.42,13.42-4.44,16-4.44,4.55,0,11.6,5.72,13.15,10.66.54,1.71,2.81,1.86,7.35.48,9.67-2.94,12.91,1.88,11.61,17.29-1.83,21.58-1.2,26.47,4.26,32.54,4.79,5.33,9.39,14.85,8.77,18.11-.15.78,1.27,3.24,3.16,5.47a17.12,17.12,0,0,1,3.48,9.5,60.1,60.1,0,0,0,1.42,11.48c.92,3.84.25,8.66-1.87,13.4a114.77,114.77,0,0,0-5.67,18.32c-2.11,9.68-1.9,12.06,1.81,20.51,4.86,11.06,6.48,17.12,7.93,29.26,1.83,15.29,5.13,25.79,13.41,42.72,8.83,18.07,9.58,21.35,5.09,23.17-4.93,2,6.91,12.37,12.19,10.66,2.31-.75,10.46-2.15,18.12-3.14,15-1.95,21.23-5.18,28.24-14.76,10.67-14.59,15.13-24,15.67-32.95.47-7.9,1.67-10.21,7.48-14.42,6.27-4.54,6.85-5.89,6.32-14.42-.32-5.18-1.49-11.23-2.58-13.4-1.56-3.1-.58-5.4,4.45-10.73a62.23,62.23,0,0,1,12.31-10c5.15-2.82,10.31-9.53,11.35-14.7.18-.9.54-2.38.77-3.28,1.47-5.54-.71-26.16-3.16-29.87a22.82,22.82,0,0,1-3-10.66c0-3.42-.8-7.89-1.81-9.91-3.61-7.28,13-37,26.56-47.44a78.62,78.62,0,0,0,13.09-13.74c7.74-10.83,20-37.61,20.76-45.39.36-3.55,2.28-7,4.51-8,4.76-2.21.15-1.46-19.79,3.28-12.68,3-13.7,3-19.08-1.09-3.13-2.36-5.24-5.12-4.64-6.15a2.56,2.56,0,0,0-1.1-3.28c-1.2-.79-4.46-5.36-7.29-10.12a92.45,92.45,0,0,0-9.22-12.92c-2.23-2.37-4.06-5.76-4.06-7.52s-1.86-4.25-4.13-5.54c-3.24-1.84-4.13-4.58-4.13-12.71,0-5.71-1.24-12.32-2.77-14.7a37.1,37.1,0,0,1-4.06-9.77c-.7-3-4.57-10.74-8.57-17.16s-7.29-13-7.29-14.63c0-5.26,4.12-5.83,5.87-.82,1.6,4.58,1.8,4.61,3.22.68s1.73-3.83,5.54,1.3c5.1,6.86,10.12,19,10.12,24.33,0,2.26,1.37,4.1,3,4.1,3.91,0,7.29,6.82,7.29,14.7,0,6.57,3.43,13.11,12.06,23a22.71,22.71,0,0,1,5.61,14.22c.71,18.11,4.2,23.09,12.83,18.25,2-1.1,10.51-5.61,19-10s18.43-9.74,22.05-11.89c7.55-4.49,22.22-17.66,19.79-17.77-.89,0,.46-1.88,3-4.1s4-4.66,3.29-5.4.33-3.28,2.32-5.61c3.49-4.09,3.34-4.41-4.77-9.84-4.9-3.28-9-8-9.74-11.21l-1.35-5.54-3.09,4.72c-3.49,5.28-16.11,11.63-19.15,9.64a5.5,5.5,0,0,1-2-4.17c0-1.59-1.39-4.11-3.09-5.61a9.88,9.88,0,0,1-3.09-6.29c0-2-2.88-7.94-6.32-13.33-5.58-8.73-5.91-10.09-3-12.37,4.7-3.64,11-1.21,14.31,5.47,4.86,9.91,14.86,16.21,23.15,14.56,6.06-1.21,7.42-.77,8.32,2.87,1.37,5.57,8.12,7.52,28.3,8,14.87.35,16.71.85,20.63,6,2.37,3.12,6.86,6.36,10,7.18,6.95,1.82,9.13,5,4.71,6.77-2.54,1-2.73,2-.9,4.37,3.45,4.41,7.4,3.7,8.7-1.57,2-8.29,5.61-2,5.42,9.64-.1,6.24.23,12.82.71,14.63s2,8,3.48,13.74,3.45,10.9,4.45,11.55,1.81,3,1.81,5.13,3.22,10.52,7.16,18.52l7.16,14.56,3.22-5.26c4.74-7.66,7.22-18.44,7.22-31.38,0-9.61.74-11.81,4.64-14,6.1-3.45,29.28-28.18,31-33.08.9-2.55,3.59-3.83,8-3.83,3.63,0,8.23-1.55,10.25-3.49,3.42-3.28,3.93-3,7.8,3.83a106.11,106.11,0,0,0,8.57,12.65c3.36,4.07,4.22,7.54,3.67,14.76-.58,7.76-.08,9.43,2.84,9.43,1.95,0,5.29-2,7.48-4.51,4.73-5.39,5.52-4.39,7.48,10,.82,6,2.36,12,3.42,13.4s1.5,8.94,1,16.82c-.81,11.89-.3,15.26,3,19.75,2.21,3,4,6.87,4,8.68,0,10,13.72,31.49,17.54,27.41.37-.4-.43-6-1.81-12.51-1.68-7.88-4.3-13.31-7.87-16.41-2.93-2.55-6-7.11-6.9-10.12s-2.88-6.46-4.51-7.72c-2.59-2-2.63-3.77,0-13.19,2.79-10,3.48-10.76,9-10.18,9,.95,11.09,2.15,11.09,6.43,0,2.15,1.86,5.2,4.13,6.7a10.53,10.53,0,0,1,4.13,8.34c0,5.54.18,5.49,10.38-3.83l10.38-9.5-.71-12.37c-.53-9.47-2.14-14.56-6.77-21.46-3.34-5-7.29-10.93-8.83-13.26-2.52-3.8-2.1-5.09,4.64-12.24,7.1-7.53,7.74-7.76,11.35-4.31,3.38,3.25,3.94,3.27,5,.27a5.67,5.67,0,0,1,5-3.35,9,9,0,0,0,5.8-2.19c1.14-1.21,6-2.77,10.83-3.49,6.89-1,10.62-3.44,17.86-11.48,5-5.6,9.19-11.47,9.22-13.06s2.39-6.11,5.22-10c6.1-8.48,6.42-11.26,1.55-13.26-3.37-1.38-3.35-1.67.39-4.58,3.35-2.61,3.46-3.14.64-3.14-5.13,0-6.63-4.51-1.93-5.81,3.95-1.09,3.84-1.6-2.06-10.87s-6-9.94-2.71-15.31a28.37,28.37,0,0,1,10-8.75l6.51-3.21-9.09,1c-9.54,1.09-18.76-3.13-18.76-8.54,0-4.69,19.19-18.5,22.11-15.93,2,1.72,1.79,3.38-.77,7.52-1.81,2.93-2.82,5.9-2.19,6.56s2.22-.84,3.48-3.35c2.51-5,8.37-5.91,14.7-2.32,3.14,1.78,3.53,3.19,1.93,6.36s-1.07,4.78,2.77,7.45,4.76,5,4.38,12c-.46,8.61-.36,8.68,5,6.29,8.87-4,9-4.89,3.61-19.14l-5.22-13.74,4.84-5.67c2.68-3.13,8.14-9.55,12.12-14.29,5.91-7,7.81-8.09,10.25-5.95,4.29,3.77,8.45,1.3,17.34-10.19,16.85-21.75,23.34-38.28,23.73-60.15.13-7.61-5.22-14.12-9.09-11-3.28,2.64-11,2.6-11-.07,0-1.07-2.15-2.8-4.77-3.83-4.35-1.71-4.52-2.25-1.81-6.36,1.63-2.47,10.65-11.39,20-19.76,16.22-14.53,25.06-18.55,29.72-13.6,2,2.14,16.11.74,19.15-1.91,1.62-1.41,4.06-1.21,7.22.62,6.13,3.55,20.83,4.2,18.18.82-2.92-3.73,16.1-19.79,24.11-20.37,6.65-.48,10.75,2.54,6.9,5.06-1.15.76-2.13,2.91-2.13,4.85,0,2.9.85,2.74,4.77-1.16,2.63-2.62,5.88-4.78,7.22-4.78a2.78,2.78,0,0,0,2.45-3c0-4,5.43-8.69,8.06-7,2.87,1.88-4.37,15.23-8.77,16.13-1.91.39-8.23,6.05-14.06,12.58s-11.67,11.89-13,11.89-3.92,2.86-5.87,6.36c-4.1,7.36-4.4,23.32-.71,36.3l2.45,8.75,5-7.11c2.73-3.91,6.25-7.11,7.8-7.11s2.22-1,1.48-2.26c-2.11-3.62,5.05-13.58,8.7-12.1,2.27.92,2.83.29,1.93-2.19-1.54-4.25,2.33-12.5,5-10.73,1.08.71,1.93.31,1.93-.89a4.83,4.83,0,0,0-2.06-3.55,2.73,2.73,0,0,1-.9-3.55c.68-1.17.28-3.34-.9-4.85-2.9-3.7,4.91-17.64,9-16,1.57.64,4-.23,5.35-2s3.5-3,4.77-2.8,5-.41,8.19-1.37c4.25-1.26,6.75-.78,9.09,1.71,2.93,3.11,3.84,2.93,9.74-1.85,11-8.87,28.62-16.2,32.88-13.67,2.25,1.33,4.46,1.36,5.61.14,2.45-2.59-3.71-15.93-7.35-15.93s-8.06-5.8-5.54-7.45c1.09-.72,4.36-.36,7.29.82,7.09,2.86,11.54.7,11.54-5.54,0-6.74,4.1-9.21,5.54-3.35,1.29,5.25,1.61,5.35,6.71,2.46,2.81-1.6,4.64-1.06,7.41,2.19,2,2.37,4.8,4.31,6.19,4.31s3.68,1.48,5.09,3.28c2.91,3.72,7.17,4.52,5.09,1-1.55-2.65,4.68-10.8,8.25-10.8,1.3,0,3.44-1.19,4.77-2.6,1.85-2,.44-3.51-6-6.56-10.61-5-11.38-5-12.77.62-1.33,5.39-5.54,3.57-5.54-2.39,0-9.78-27-23.47-50.16-25.43-9.29-.79-18.6-2.34-20.7-3.49-3.41-1.86-3.66-1.41-2.45,4.44,1.78,8.58-1.18,10.18-9.61,5.2-5.06-3-10.59-4-21.28-3.69-17.12.42-23.73-1.64-23.73-7.38,0-6-4.52-7.09-23-5.61-13.43,1.08-16.41.77-17.41-2-.66-1.83-2.44-2.86-3.93-2.26-2.7,1.1-6.13-2.7-6.19-6.84s-7.31-3.62-14.18.89c-7.63,5-11.41,3.76-6.38-2.12,3-3.55,2.48-3.81-8.77-3.83-6.6,0-13.28-.34-14.89-.75-2-.51-3,1.3-3.09,5.81-.13,5.21-1.1,6.56-4.64,6.56-2.45,0-5.05.65-5.8,1.44s-3.73.1-6.64-1.5c-4.09-2.25-6.18-2.31-9.16-.34s-4.81,1.91-7.8-.07c-3.29-2.18-4.08-1.86-5,1.71-2,8-7.15,7.22-17.67-2.67-10.35-9.73-11.36-12.78-4.26-12.78,3.37,0,3.64-.63,1.68-4-1.8-3-4.81-3.95-12.89-3.83-6.09.09-11.48,1.36-12.7,3-2.84,3.83-24.92,2.71-24.18-1.23.66-3.51-18.33-3.81-21.6-.34-1.67,1.77-3,1-5-2.73-1.48-2.84-2.73-5.76-2.77-6.56-.16-3.14-2.43-3.64-9.35-1.91-5.9,1.47-6.28,1.88-2.06,2.12,5.05.29,15.42,6.7,10.83,6.7a4.71,4.71,0,0,1-3.61-2.19c-.7-1.2-3.72-2.19-6.71-2.19-5.2,0-5.25.15-1.42,3.14s3.95,3.12-.13,4.51a60.69,60.69,0,0,0-7.22,3.08c-4.43,2.34-15.47,1.7-15.47-.89,0-1.2,3.07-3.82,6.83-5.81a57.62,57.62,0,0,0,10.51-7.11c2-1.92,5.43-3.51,7.61-3.55,6-.12,14.28-5.53,11.35-7.45-1.86-1.22-1.78-2.44.26-5.06,2.24-2.88,2.14-3.23-.45-2.26-1.7.64-4.61-.23-6.45-1.91-2.65-2.44-5.29-2.63-12.89-.82-6,1.43-10.89,1.56-13.15.27a55.31,55.31,0,0,0-7.74-3.49c-3.91-1.34-3.92-1.53-.45-4.24s3.2-3-2.06-4.17a12.36,12.36,0,0,0-3-.34h0Zm-981,2a2.43,2.43,0,0,0-.9.34,2.52,2.52,0,0,0-.71,3.35,2.22,2.22,0,0,0,3.16.75,2.52,2.52,0,0,0,.71-3.35A2.16,2.16,0,0,0,645.13,69.81Zm942.87,0a2.43,2.43,0,0,0-.9.34,2.52,2.52,0,0,0-.71,3.35,2.22,2.22,0,0,0,3.16.75,2.52,2.52,0,0,0,.71-3.35A2.16,2.16,0,0,0,1588,69.81ZM512.64,71c-.59,0-1.56.56-2.77,1.85s-4.67,2.6-7.41,2.6-8.33,3.15-12.44,7c-6,5.58-6.61,6.7-2.9,5.67,2.54-.7,5.22-.27,5.93,1s3.16-.87,5.42-4.65c3.11-5.21,4.74-6.29,6.77-4.51s3.51,1.06,5.93-2.6S513.93,71,512.64,71Zm179.43.34a2.47,2.47,0,0,0-1.68.62c-.69.73.53,1.19,2.71,1.09,2.4-.1,2.87-.6,1.22-1.3A5.27,5.27,0,0,0,692.07,71.38Zm858.8.62a2.43,2.43,0,0,0-.9.34,2.52,2.52,0,0,0-.71,3.35,2.22,2.22,0,0,0,3.16.75,2.52,2.52,0,0,0,.71-3.35A2.16,2.16,0,0,0,1550.87,72Zm92.84,0a2.43,2.43,0,0,0-.9.34,2.52,2.52,0,0,0-.71,3.35,2.22,2.22,0,0,0,3.16.75,2.52,2.52,0,0,0,.71-3.35A2.16,2.16,0,0,0,1643.71,72ZM525.47,74.18a2.43,2.43,0,0,0-.9.34,2.52,2.52,0,0,0-.71,3.35,2.22,2.22,0,0,0,3.16.75,2.52,2.52,0,0,0,.71-3.35A2.16,2.16,0,0,0,525.47,74.18Zm212.51,0a2.43,2.43,0,0,0-.9.34,2.52,2.52,0,0,0-.71,3.35,2.22,2.22,0,0,0,3.16.75,2.52,2.52,0,0,0,.71-3.35A2.16,2.16,0,0,0,738,74.18Zm493.1,2.19a2.43,2.43,0,0,0-.9.34,2.52,2.52,0,0,0-.71,3.35,2.22,2.22,0,0,0,3.16.75,2.52,2.52,0,0,0,.71-3.35A2.16,2.16,0,0,0,1231.08,76.37Zm623.08,0a2.43,2.43,0,0,0-.9.34,2.52,2.52,0,0,0-.71,3.35,2.22,2.22,0,0,0,3.16.75,2.52,2.52,0,0,0,.71-3.35A2.16,2.16,0,0,0,1854.15,76.37ZM615.09,77.94c-1.39,0-1.68.65-1.22,2.12.54,1.74,4.85,3.55,10.06,4.17,7.69.92,9.31,1.95,10.19,6.56,1,5.28,2.94,6.3,13.73,7.25,2.46.22,5.24,1.24,6.19,2.26s8.24,1.29,16.18.62,17.52-1.26,21.28-1.3c4.2,0,6.3-.92,5.48-2.32-.73-1.26-.1-4,1.42-6,2.38-3.23,2.35-3.43-.32-1.23-1.7,1.4-5.42,2.5-8.25,2.46s-13.05.45-22.69,1c-18,1.08-26.82-1.62-26.82-8.2,0-1.57-3.39-3.32-7.74-4s-10.4-1.87-13.67-2.73A16.25,16.25,0,0,0,615.09,77.94Zm977,.62a2.43,2.43,0,0,0-.9.34,2.52,2.52,0,0,0-.71,3.35,2.22,2.22,0,0,0,3.16.75,2.52,2.52,0,0,0,.71-3.35A2.16,2.16,0,0,0,1592.13,78.56Zm-145,.55c-2.43,0-6.89,1-11.48,3.14-5.91,2.77-12.27,4.23-16.18,3.62-3.72-.58-10.24.66-15.41,3-4.93,2.24-11.87,4.1-15.41,4.1-5,0-5.86.55-3.93,2.6s1.06,4-3.87,8.82q-6.33,6.13-3.61,7c7.15,2.39,8.39,3.37,3.35,2.67-6.58-.92-7.82-.13-12.83,8.2-3.14,5.22-3.21,6.13-.58,5.06,3.44-1.4,8.66,3.62,6.9,6.63-.59,1,3.26,1.93,8.58,2.05s8.28-.28,6.58-.89c-4.13-1.48-8.25-7.18-8.25-11.42,0-4.6,16.09-23.42,23.47-27.48C1407.7,94.48,1412,93,1414,93c4.1,0,27.28-7.62,32.3-10.6C1449.94,80.22,1449.56,79.14,1447.13,79.1Zm-895.35,1c-1.13.13-1.87,2.08-1.61,5.81.33,4.78-.6,6.13-4.38,6.7a15,15,0,0,1-9.28-2.39c-2.51-1.75-8.32-3.9-12.89-4.72-7.9-1.42-8.32-1.21-8.32,4.1s3.89,7.68,6.25,3.62c1.46-2.51,11.32.12,11.54,3.08.09,1.2-2,2.84-4.58,3.62-4.11,1.23-3.86,1.45,1.81,1.64a34.36,34.36,0,0,0,12.38-2.32,72.11,72.11,0,0,1,13.93-3.83c4.45-.72,8.44-2.51,8.9-4,.52-1.66-.8-2.27-3.55-1.71-3.15.64-4.86-.64-6.25-4.51C554.41,81.58,552.9,79.93,551.78,80.06Zm40.17.41a9.32,9.32,0,0,0-3.68.89c-3.42,1.63-3.31,2.24,1.55,7.79,6.84,7.81,13.35,8,13.35.48C603.16,84.46,597.42,80.28,591.94,80.47ZM577,80.74a2.43,2.43,0,0,0-.9.34,2.52,2.52,0,0,0-.71,3.35,2.22,2.22,0,0,0,3.16.75,2.52,2.52,0,0,0,.71-3.35A2.16,2.16,0,0,0,577,80.74Zm1293.61,0a2.43,2.43,0,0,0-.9.34,2.52,2.52,0,0,0-.71,3.35,2.22,2.22,0,0,0,3.16.75,2.52,2.52,0,0,0,.71-3.35A2.16,2.16,0,0,0,1870.66,80.74ZM590.91,83.14c1.1-.29,2.71.58,3.87,2.05,1.42,1.81,1.59,3.56.45,4.31s-3-.09-4.32-1.78-1.59-3.63-.45-4.37A1.59,1.59,0,0,1,590.91,83.14Zm1210.44,1.78a2.28,2.28,0,0,0-.64.21c-3,1.22-4.07,8.2-1.61,10.8,2.06,2.18,8.53,1.72,9.93-.68.79-1.35,3.11-1.35,6.45,0,7.07,2.85,8,2.65,5-1.09-1.37-1.75-1.89-4.21-1.16-5.47s.43-2.26-.71-2.26a4.7,4.7,0,0,0-3.42,2.32c-.89,1.52-3.05,1.06-6.45-1.3C1806.29,85.73,1803.16,84.71,1801.35,84.91Zm-13.22.34c-1.91.07-3.22,3-1.61,5.74,1,1.71,2,1.71,3.61,0s1.62-3.07,0-4.78A2.59,2.59,0,0,0,1788.13,85.26Zm39.14,1.16c-4.47,0-4.88.51-2.71,3.28,2.95,3.76,2.73,3.73,7,2C1836.25,89.78,1833.5,86.42,1827.27,86.42Zm-1324.49.89a2.43,2.43,0,0,0-.9.34,2.52,2.52,0,0,0-.71,3.35,2.22,2.22,0,0,0,3.16.75A2.52,2.52,0,0,0,505,88.4,2.16,2.16,0,0,0,502.78,87.31Zm107.29,0a2.43,2.43,0,0,0-.9.34,2.52,2.52,0,0,0-.71,3.35,2.22,2.22,0,0,0,3.16.75,2.52,2.52,0,0,0,.71-3.35A2.16,2.16,0,0,0,610.06,87.31Zm-29.46.21a1.59,1.59,0,0,0-.45.21c-1.14.75-1,2.56.45,4.37s3.26,2.47,4.32,1.78,1-2.5-.45-4.31C583.31,88.09,581.7,87.22,580.6,87.51Zm429.72,2a2.43,2.43,0,0,0-.9.34,2.52,2.52,0,0,0-.71,3.35,2.22,2.22,0,0,0,3.16.75,2.52,2.52,0,0,0,.71-3.35A2.16,2.16,0,0,0,1010.32,89.49ZM1843.64,91c-1,.08-.52.57,1.55,2,1.7,1.17,5.42,2,8.25,1.91l5.16-.14L1853.44,93a40.61,40.61,0,0,0-8.25-1.91A14.86,14.86,0,0,0,1843.64,91Zm-1270.72.68a2.43,2.43,0,0,0-.9.34,2.52,2.52,0,0,0-.71,3.35,2.22,2.22,0,0,0,3.16.75,2.52,2.52,0,0,0,.71-3.35A2.16,2.16,0,0,0,572.92,91.68Zm942.87,0a2.43,2.43,0,0,0-.9.34,2.52,2.52,0,0,0-.71,3.35,2.22,2.22,0,0,0,3.16.75,2.52,2.52,0,0,0,.71-3.35A2.16,2.16,0,0,0,1515.79,91.68Zm-895.29.07a6.59,6.59,0,0,0-1.16.07A4.12,4.12,0,0,0,616.77,93c-1.58,1.68-1.36,3,.84,4.44,3.57,2.39,6.63,1.75,7.67-1.57C626,93.66,623.22,91.9,620.51,91.75Zm396,2.12a2.43,2.43,0,0,0-.9.34,2.52,2.52,0,0,0-.71,3.35,2.22,2.22,0,0,0,3.16.75,2.52,2.52,0,0,0,.71-3.35A2.16,2.16,0,0,0,1016.51,93.87Zm183.62,2.19a2.42,2.42,0,0,0-.9.34,2.52,2.52,0,0,0-.71,3.35,2.22,2.22,0,0,0,3.16.75,2.52,2.52,0,0,0,.71-3.35A2.16,2.16,0,0,0,1200.13,96.06Zm585.94,4.37a2.42,2.42,0,0,0-.9.34,2.52,2.52,0,0,0-.71,3.35,2.21,2.21,0,0,0,3.16.75,2.52,2.52,0,0,0,.71-3.35A2.16,2.16,0,0,0,1786.07,100.43Zm28.69,1.44c-.91.06-1.62,1.89-1.81,5.33-.26,4.84.47,5.47,6.77,5.47,4.22,0,6.62-.89,5.87-2.19a5.44,5.44,0,0,0-4.32-2.19,5,5,0,0,1-4.19-3.28C1816.29,102.83,1815.47,101.82,1814.76,101.87Zm-1324.69.21c-4.85,0-10.86,2.79-10.57,5.88.77,8.3-.38,11.52-4.77,13.4-3.53,1.5-3.76,2-1,2.12,2,.08,4.67,2,6,4.24,2.62,4.44,8.34,4,12.25-1,1.31-1.67,3.66-3.08,5.22-3.08s2.84-.95,2.84-2.12,2.78-3.63,6.13-5.47c7.68-4.21,11.12-4.27,4.19-.07-2.84,1.72-4.23,3.12-3.09,3.14,3.55.08,7.94-3.75,8.45-7.38.62-4.47-6.1-8.24-13.22-7.45-3,.34-6.74-.21-8.19-1.16A7.76,7.76,0,0,0,490.07,102.07Zm968,2.73a2.42,2.42,0,0,0-.9.34,2.52,2.52,0,0,0-.71,3.35,2.22,2.22,0,0,0,3.16.75,2.52,2.52,0,0,0,.71-3.35A2.16,2.16,0,0,0,1458,104.81Zm-822.43.14c-4.73.22-10.92,1.53-12.51,3.21-1,1.09-1.23,5.59-.45,10,1.17,6.6,1.94,7.55,4.38,5.4,1.62-1.43,2.43-3.5,1.81-4.58s.52-2.57,2.58-3.35c5.4-2,11-7.62,9.8-9.71C640.72,105.07,638.43,104.81,635.59,104.94Zm-27.4.55c-1,0-2.43.69-4.64,1.91-3,1.68-6.82,3.07-8.38,3.08-2.2,0-2.27.67-.39,3.08,3.43,4.39-.69,6.52-6.51,3.35-6.16-3.36-2.77.34,7.67,8.41,4.54,3.5,8.58,5.53,9,4.51s2.37-1.85,4.45-1.85c5.38,0,6.1-4.47,1.48-9.36-2.69-2.85-3.31-4.9-1.87-6.43a5.44,5.44,0,0,0,1.1-5.06C609.65,106,609.17,105.45,608.19,105.49Zm876.66,1.5a2.43,2.43,0,0,0-.9.34,2.52,2.52,0,0,0-.71,3.35,2.22,2.22,0,0,0,3.16.75,2.52,2.52,0,0,0,.71-3.35A2.16,2.16,0,0,0,1484.85,107Zm-916.76,1.3c-1.13,0-1.83,1.19-1.55,2.67s-1.57,3-4.13,3.42c-3.31.54-4.64,2.25-4.64,5.95,0,6.2-3.63,9.33-5.35,4.58-.67-1.85-3.87-4.79-7.09-6.49-5.12-2.71-6-2.67-7,.21s-1.72,2.81-4.45.41-3.61-2.28-5.29.89c-2.57,4.88-6.41,2.4-4.77-3.08.69-2.3.6-4.17-.19-4.17-1.1,0-12,6.39-17,9.91-.32.23.42,3.17,1.61,6.49,2,5.7,2.76,5.95,11.93,4.85,10-1.19,18,1.43,15.86,5.13-.67,1.14-7.43,2.13-15,2.26-12.94.21-13.35.39-6.25,2.39,4.16,1.17,9.09,3.9,11,6.08,4,4.72,15.82,3.91,28.95-2,7.14-3.21,9.49-3.31,17.28-.89,4.95,1.54,10.52,4,12.38,5.54,2.68,2.19,2.58,1.85-.32-1.78-3.82-4.76-2.63-7.31,4.71-10.19,1.7-.67.25-1.27-3.22-1.37s-7.9-1.42-9.86-2.94c-4.64-3.6-9.88-19.52-7.35-22.28S570.67,108.29,568.09,108.29Zm130.62.21c-2.79-.07-4.77.83-4.77,2.73,0,4.46,2.55,6.17,7.16,4.85a40.54,40.54,0,0,1,8.32-1.3c3.68-.1,3.56-.43-1-3.21A20.66,20.66,0,0,0,698.71,108.5Zm-36.81,2c-6.2,0-15.41,8-15.41,13.47,0,6.22,6.46,17.13,10.25,17.29,1.74.07,12.44.46,23.79.82,14.34.46,23.15,1.84,28.88,4.58,4.54,2.17,9.9,4.1,11.93,4.31,6.29.64,8.71,4.78,5.42,9.23-2.62,3.54-2.55,3.62.58,1,3-2.45,3.79-2.22,5.67,1.5a20.71,20.71,0,0,1,2.19,7.45c0,2.11,1.58,2.86,4.9,2.19,6-1.22,8.55,2.29,4.32,6-2.52,2.22-3.78,2.05-6.77-.82-3.36-3.22-4.11-3.2-8.32-.07-3.67,2.72-4.11,4-2.19,6.49,1.33,1.7,1.57,3.12.58,3.21s-5.94.34-11,.55c-7,.29-9.46,1.35-10,4.24s.66,3.85,4.13,3.83a16.32,16.32,0,0,0,7.54-1.91c3-2,18.89,5,18.89,8.27,0,1,2.48,2.6,5.54,3.42,4.23,1.13,4.92,1.9,2.71,3.35-2,1.32-1,1.84,3.42,1.71,3.49-.11,10,1.81,14.38,4.24,10.42,5.73,10.31,5.76,5.87.55-3.72-4.36-3.74-4.55.32-5.67,6.6-1.83,4.55-9.3-5.54-19.89-8.78-9.21-9-9.73-5.16-12.78,5.4-4.28,6-4.09,13.6,3.49,5.18,5.13,7.29,6,9.48,4.1,1.55-1.36,2.28-3.43,1.61-4.58s.73-2.61,3.16-3.28c4.12-1.14,4.18-1.51,1-5.2-1.85-2.17-4.48-3.5-5.87-2.94s-4.23-1-6.32-3.42a14.33,14.33,0,0,0-9.61-4.44c-6.94,0-12-7.4-7.09-10.32,1.66-1,2.41-2.75,1.61-4-1.85-2.8-13.28-8.51-15.73-7.86a10.5,10.5,0,0,1-5.16-.89c-2.9-1.19-2.8-1.7.71-4.44,3.35-2.61,3.46-3.14.64-3.14-1.85,0-3.94,1-4.64,2.19-.79,1.36-2.61,1.43-4.77.21a19,19,0,0,0-5.54-2.19,2.56,2.56,0,0,1-2.06-2.6c0-4.27-6.92-7.83-13.28-6.84-3.44.53-5.79,1.86-5.16,2.94,1.85,3.18-5.08,4.83-8.32,2-1.64-1.44-3.86-2-5-1.3-2.8,1.83-5.43-3.26-4.71-9.16.47-3.89-.41-4.91-4.19-4.85a14.28,14.28,0,0,0-7.87,2.73c-3.58,3.07-4.66,14.57-1.74,18.32,1.3,1.66,1.11,3.11-.52,4.17-3.77,2.47-8.07-5.42-7.74-14.22l.26-7.79,1.29,8.75c1.1,7.52,1.46,8,2.64,3.62C671.52,118.85,667.43,110.48,661.9,110.48Zm313.92,3.08c-.79-.07-1.29.07-1.29.48s2.09,1.85,4.64,2.94c6.05,2.58,6.15,2.59,4.84.34C983.12,115.79,978.2,113.77,975.82,113.56Zm-10.9,13.12a2.16,2.16,0,0,1,2.26,1.09,2.52,2.52,0,0,1-.71,3.35,2.22,2.22,0,0,1-3.16-.75A2.52,2.52,0,0,1,964,127,2.43,2.43,0,0,1,964.93,126.68Zm1066.66,2.19a2.43,2.43,0,0,0-.9.34,2.52,2.52,0,0,0-.71,3.35,2.22,2.22,0,0,0,3.16.75,2.52,2.52,0,0,0,.71-3.35A2.16,2.16,0,0,0,2031.59,128.87Zm-1407.66.75a4,4,0,0,0-2.13.55c-7.54,4.28-7.73,15.31-.26,15.31,5.61,0,6.24,1.86,3,8.82-3.91,8.3-5.87,9.43-10.83,6.15-3.09-2-5.23-2.13-8.83-.27-8.56,4.42-21.85,5.25-29.53,1.85-4-1.76-7.22-4.2-7.22-5.47,0-2.53-10-3.17-15.47-1-2.74,1.12-2.9,1.81-.71,3.28a11.59,11.59,0,0,0,5.87,1.71c2-.08,1.69-.74-1-2-3.36-1.53-3.49-1.93-.64-2.05,5.33-.23,6.83,4.37,1.87,5.74-3.22.89-4.21,2.71-3.8,6.77.75,7.46-4.14,8.81-6.64,1.85q-3.5-9.76-20.76-7.31c-9.29,1.32-15.19-3.11-9-6.77,3.22-1.91,3.14-2.28-1-4.65-3.42-1.94-5.31-2-7.41-.14s-4.48,1.57-9.67-1.3c-9.07-5-22.71-7.62-25.79-4.92-1.62,1.42-4.47,1-8.64-1.3-5.82-3.19-6.77-3.14-13.09.89-16.66,10.61-22.81,13.48-24.69,11.48-1.22-1.29,1.39-4.16,7-7.72,4.89-3.13,7.77-5.76,6.38-5.81s-5.5,1.88-9.16,4.24c-5.33,3.44-7.29,3.76-9.86,1.64s-2.82-2.13-.9.62c2.82,4,5.19,16.51,3.48,18.32-2.27,2.4-6.83-3.43-6.83-8.75,0-2.86-.7-5.24-1.55-5.33-3.46-.37-8.19-1.83-16.76-5.13-5-1.91-11.17-3.49-13.8-3.49s-5.31-.91-5.93-2-6.7-2-13.54-2.12-14.33-1.19-16.57-2.46a7.47,7.47,0,0,0-8-.14c-2.9,1.65-4.5,1.38-6.38-1-1.39-1.78-5.18-3.21-8.38-3.21s-6.42-1.06-7.16-2.32c-.92-1.59-2.18-1.52-4.06.14s-3.16,1.69-4.06.14-3.1-1.05-6.38,1.23c-2.78,1.93-5,2.68-5,1.64s-.9-.5-1.93,1.23-4.39,3.53-7.48,4-7.44,3.21-9.67,6.22-4.58,5-5.16,4.37-3.7.33-7,2.12l-5.93,3.28,6.71,6.08c6.37,5.82,12.65,9.56,16.83,10,3.71.37,3.45,5.41-.39,7.59-2.8,1.59-5.44,1.33-9.48-.89-3.68-2-6.87-2.38-9.16-1.09a59.35,59.35,0,0,1-7.61,3.42c-4,1.43-3.94,1.53.52,3.35,2.76,1.13,4.15,3.08,3.48,4.92-1.71,4.73,17.73,6.64,20.89,2.05s6.5-2.09,6.06,4.17c-.33,4.76-10.68,13.25-13.86,11.35-.81-.49-3.37,1.11-5.74,3.62-3,3.19-3.93,6.08-3,9.43,2.12,7.39,7.57,12.83,11.67,11.69a5,5,0,0,1,5.48,2.32c2.43,4.6,15.55,9.2,19.54,6.84,4.3-2.55,6,1,3.61,7.59-2.22,6.2-10.07,12.58-21.66,17.7-4.43,2-7.59,4.06-7,4.65,1,1,11.74-3.65,18.18-7.86,1.7-1.11,6.41-3.9,10.44-6.22,8.42-4.85,20.79-17.58,19.41-20-.51-.88.44-2.82,2.13-4.31s3.09-4,3.09-5.47c0-4.35,5.82-8.27,9.8-6.63,3.46,1.42,3.44,1.62,0,4.31-3.15,2.46-5.19,10-2.71,10,4.57,0,11.69-5,10.77-7.52-2-5.52,7.25-9.47,10.57-4.51,2.59,3.86,11.52,7.28,22.37,8.61a70.08,70.08,0,0,1,20.5,6.63c6.77,3.63,10.73,4.67,12.38,3.21s3.46-.51,5.8,3.28c1.85,3,3.35,6.08,3.35,6.84,0,2.23,9.08,9.56,11.93,9.64,4.37.12,9.18,14.65,6.25,18.87-1,1.48.41,3.38,3.74,5,5.32,2.57,5.37,2.68,1.61,7.45-2.1,2.66-2.53,3.7-1,2.26,3.93-3.64,11.68.53,8.51,4.58-2.58,3.29-.84,5.67,4.13,5.67,5.19,0,22.57,18.16,22.57,23.58,0,5.19-3.21,8.27-5.16,4.92-2.87-4.93-4.11-1.59-4.32,11.42-.12,7.52-.58,19.58-1,26.8-.73,13.71,4.33,29.89,9,28.91,1.26-.26,2.41,1.65,2.58,4.24.47,7.2,9.07,20.49,14.7,22.76,2.77,1.12,4.43,3.09,3.68,4.37s.15,2.06,2.45,1.64c3-.54,4.6,1.91,7.54,11.35,2.06,6.62,5.55,14.07,7.74,16.54,2.88,3.26,3.38,5.17,1.74,6.9s-.51,4,4.13,8.41c3.52,3.32,6.45,8.09,6.51,10.6.12,4.9,11.5,15.9,13.86,13.4.79-.83-.15-2.45-2.13-3.62s-3.61-3.17-3.61-4.44-2.79-6.68-6.19-12-6.19-10.44-6.19-11.28-2-5.66-4.58-10.73c-3.56-7.13-4.09-9.82-2.19-11.83,2.82-3,8.83.9,8.83,5.74,0,1.52,4.18,8.85,9.28,16.2s9.28,14.12,9.28,15.11,3.1,5.66,6.9,10.39c9.14,11.39,11.7,16.8,10.38,22.15-1.42,5.75,5.24,11.33,27.66,23.1,14.27,7.49,17.93,8.65,21.08,6.56s5.15-1.54,11.28,2.87c9.72,7,22.93,14.08,26.18,14.08,5.11,0,14.12,11.61,14.12,18.18,0,5.41.47,6,3,3.76s3.44-1.76,5.29,2.53a9.09,9.09,0,0,0,7.61,5.67c2.93.26,6.38,1.39,7.67,2.53,1.58,1.39,3.18.7,4.84-2.12,5.53-9.39,14.88,4.65,14.57,21.87-.14,7.69-1.62,11.74-7,18.66a60.93,60.93,0,0,0-9.35,19.41c-2.28,9.61-2.19,10.86,1.16,12.85,3.51,2.08,3.46,2.4-.64,5.74L690,675.92l6.83,16.41c3.77,9,9.09,23.73,11.8,32.67,4.16,13.76,6.13,17.13,12.77,21.87a167.32,167.32,0,0,1,15.28,12.71l7.41,7.18-2.58,37.66c-1.4,20.74-2.79,43.15-3.09,49.76a62.57,62.57,0,0,1-6.19,23.86c-4.09,8.53-5.34,13.64-4.45,18.39a32.4,32.4,0,0,1-1.22,13.81c-1.93,5.65-1.92,8.31.06,12.24,3,6,2.13,29.11-1.29,32.74-1.78,1.89-2.7,1.58-3.74-1.3s-1.78-3.26-3.16-1c-2.23,3.73-2.3,6.82-.13,5.4,2.37-1.55,13.3,11.24,11.8,13.81a3.26,3.26,0,0,1-4,1c-2.17-.88-2.64,1.18-2.13,9.3.37,5.76-.39,11.83-1.68,13.47-1.8,2.3-1.65,2.84.64,2.32,4.41-1,14.72,7,13.48,10.46-1.93,5.34,2.17,3.07,4.58-2.53,1.29-3,3.29-5.47,4.45-5.47s2.13-2.31,2.13-5.13a14.65,14.65,0,0,1,4.13-9.09c2.28-2.18,3.71-4.48,3.16-5.06s1.89-4.49,5.42-8.75c6.23-7.52,6.27-7.78,2.06-9.43-8.32-3.26-7.52-19.41,1-19.41,1.8,0,2.84-2.48,2.84-6.77,0-5,1.14-7.08,4.19-7.93,3.54-1,3.7-1.53,1.16-3.62a12.6,12.6,0,0,1-3.67-6.84c-.53-3.53.49-4.37,5.29-4.37,5.72,0,8-2.27,10.32-10.32.75-2.6,4.34-4.16,11.67-5.19,16.86-2.37,20.88-10.28,11.35-22.28-6.2-7.81-4.89-10.09,3-5.26,5.43,3.31,6.4,3.28,13-.07,7.18-3.63,12.31-11.15,23.21-34.18,4.41-9.32,5.1-12.69,3.42-16.61-1.16-2.7-1.48-6-.71-7.31,1.53-2.62,16.2-13.6,18.18-13.6.68,0,2.29-1.45,3.55-3.21s6-3.57,10.44-4c7.84-.81,8.32-1.37,13.8-14.83,4.65-11.41,5.74-17.3,5.8-31.92.06-12.61.89-18.46,2.84-19.69,1.52-1,6.16-7.08,10.32-13.53,10-15.47,10.49-27,1.48-31.92-3.34-1.83-7.28-5.13-8.77-7.38-2-3-6-4.35-15.34-5.06-10.85-.83-13.62-2-19.28-8-8-8.45-11.57-8.72-17-1.37-2.93,4-5.76,5.39-9.61,4.92-6.56-.81-6.47-4.57.13-6.22,2.61-.65,5-2.87,5.42-4.92,1-5.53-2.7-4.6-10.57,2.73-3.85,3.58-7.57,5.92-8.25,5.2-2.17-2.3,11-20.64,13.67-19,1.35.83.59-.75-1.68-3.49s-3.91-5.58-3.67-6.36c2.43-8-11-20-22.44-20-5.68,0-8.92-1.79-14.83-8.2-4.16-4.51-9.82-10.53-12.64-13.4s-4.52-6.23-3.8-7.45c.85-1.46-2.32-1.72-9.22-.75-6.58.93-11,.62-11.8-.82a4,4,0,0,0-3.74-1.91c-4.12.69-13.79-4.37-13.93-7.31-.07-1.53-1-.59-2,2.12s-2.74,4.92-3.8,4.92-1.46,1.83-.9,4.1c1.47,6-2.87,7.81-5.61,2.39-1.81-3.59-1.55-5.74,1-9.91,4.24-6.87,1.12-6.86-5,0-2.59,2.92-6,4.74-7.54,4.1-2.62-1.06-3.58.66-8.19,14.42-.79,2.36-2.22,1.84-6.19-2.12-4.66-4.64-5.9-4.91-13.35-2.8-7.86,2.22-8.51,2-13.6-4.37-4.91-6.18-5.26-7.85-4.06-20.23,1.29-13.35,1.26-13.55-4.38-15.24a59.7,59.7,0,0,0-13-1.85c-6.76-.16-7.14-.65-6.51-6.77.37-3.59,1.36-7.53,2.26-8.75s2.23-6.37,3-11.48c1.19-8.24.92-9.3-2.64-9.3-9.07,0-14.35,4-15,11.35-.6,6.63-1.31,7.29-9.8,8.82-11.47,2.06-17-1.33-22.76-14-4.06-8.91-5.73-27.83-2.71-31,.82-.87,1.23-4.89.9-8.89-.52-6.35.38-7.89,7.22-12.37,9.28-6.08,11.58-6.59,18.89-4.17a114.53,114.53,0,0,0,12.51,3.08c6.22,1.14,6.65,1,4.19-2.19-2.34-3-2.15-4,1.29-6.7a10,10,0,0,1,9.22-1.57,37.5,37.5,0,0,0,10.64,1.3c6.27-.31,11.72,6.64,12.77,16.41.8,7.49,5.6,15.93,9.09,15.93s3.28-2.89-1.55-20.78c-2.27-8.41-4.13-16.64-4.13-18.25s5-8.21,11-14.7,10.62-12.32,10.06-12.92.46-1.7,2.32-2.46,2.9-2.15,2.32-3.14a2.55,2.55,0,0,1,1.1-3.21c1.42-.93,1.35-2.81-.13-5.74-2.55-5.06-1.79-16.13,1.1-16.13,1.08,0,2.56,2.46,3.35,5.47,1.17,4.47,1.51,4.64,1.68,1,.31-6.73,10.17-20.71,14.57-20.71,7.73,0,10.4-2.25,7.87-6.56-1.83-3.1-1.59-5.19,1.16-9.64,1.93-3.13,4.93-5.67,6.64-5.67s7.48-2.34,12.83-5.2c6.66-3.54,11-4.61,13.86-3.42,2.38,1,2.92,1.83,1.22,1.91-4.1.22-10.51,6.75-10.51,10.73,0,2.65.94,2.42,4.64-1.09A44.45,44.45,0,0,1,784.08,349c3.61-1.51,7.1-4.18,7.74-5.95s2.08-2.59,3.22-1.85,2.06.46,2.06-.62c0-4.45-2.59-4.09-7.41,1-4.12,4.37-5.72,4.92-8.12,2.8-1.64-1.44-2.32-3.76-1.55-5.13,1-1.86.61-1.86-1.61,0s-4.12,1.23-8.51-3.55c-5.82-6.34-5.66-8.75.71-8.75a3.65,3.65,0,0,0,3.8-3.55c0-5.54-13.83-2.24-21,5-4.12,4.19-6.53,5.31-8.06,3.69-3-3.2,14.65-19.47,23.08-21.26a100.47,100.47,0,0,1,16.63-1.37c5.61,0,12.22-1.19,14.7-2.6a45.83,45.83,0,0,1,10.7-3.9c5.37-1.17,6.19-2.3,6.19-8.54,0-9.62-2.59-11.39-11.86-8-5.25,1.92-8.19,2.15-9.09.62-1.68-2.88,4.92-8.18,10.51-8.41,3-.12,3.35-.5,1.16-1.37a52.06,52.06,0,0,1-8.45-5.26c-3-2.2-5.88-3.47-6.45-2.87s-2.57-1.4-4.45-4.44-2.79-5.54-2-5.54-.65-2.29-3.16-5.13a27.33,27.33,0,0,1-5.61-11.35c-1.69-9.85-2.83-10.31-9-3.28-3.49,4-7.12,6.15-9,5.4a3.69,3.69,0,0,0-4.51,1.23c-1,1.7-2.84.91-5.8-2.46-4.87-5.54-6.12-10-3.29-11.89s2.23-7.52-.9-7.52c-1.54,0-5.48-2.66-8.77-5.95-4.65-4.65-8.17-6.11-15.86-6.36-9.25-.3-10.1.16-12.64,6.56-1.8,4.53-2,8.17-.77,10.8a6.31,6.31,0,0,1-.58,7.11c-1.35,1.73-1.75,3.14-.9,3.14s.51,1.3-.77,2.94c-1.78,2.27-1.35,4.36,1.81,8.61,5.09,6.86,5.25,14.2.52,21.33-2.32,3.5-3.68,10-3.87,18.39-.21,9.58-1.2,13.65-3.87,15.72-3.13,2.42-4.75,1.75-11.8-5.26-7.44-7.41-8.07-8.9-7.22-17.16L681,275l-9.16-1.09c-6-.72-13-3.87-20.24-9.16-6.1-4.46-12-7.5-13.09-6.77-2.5,1.64-5.25-2.77-5.35-8.61-.06-3.27-1.24-4.2-4.71-3.69s-5.17-.83-6.64-4.92c-2.88-8-.5-13.27,12.83-28.09,3.13-3.48,5.18-7.16,4.58-8.2-1.51-2.59,6.33-6.73,9.93-5.26,1.6.65,5.13-.78,7.87-3.14,5.41-4.68,5.7-4.32-6.19-8.2-5.45-1.78,1.05-5.52,8.32-4.78,6.42.65,7,1.31,7.61,8.89.47,6-.25,8.59-2.64,9.57-2.63,1.07-2.14,2,2.45,4.58,5.42,3,6,2.85,9.67-2.32s4.18-5.28,8.64-2.19c2.63,1.82,5.72,2.71,6.83,2,3.27-2.14-6.88-12.05-13.86-13.53a17,17,0,0,1-9.61-6.56c-3.36-5.44-3-6,4.45-5.33,4.89.41,17.15-5.5,17.15-8.27,0-.94-1.29-3.62-2.9-5.95-2.11-3.05-2.29-5-.71-7,2.95-3.77-3.67-9.07-11.41-9.16-4.9-.06-5.44.53-3.74,3.9,1.52,3,.67,5.67-3.42,11.21-5,6.81-5.49,7-8.06,3.28a18.16,18.16,0,0,1-2.77-8.75c0-2.63-1.34-6-3-7.38-2.38-2.1-3.6-1.5-6.38,3-3.73,6-7.16,5.63-7.16-.82a6,6,0,0,0-4.45-5.26c-3.48-1-3.94-1.86-2.13-4.17C636.92,138.66,629.37,129.77,623.92,129.62Zm46.16.55c-.5,0-.9,1-.9,2.19a2.2,2.2,0,0,0,2.19,2.19c1.2,0,1.6-1,.9-2.19S670.59,130.17,670.09,130.17Zm1344.42.89c-4.06.22-9.41,1.79-11.48,3.9-1.62,1.65,9,1.47,17.15-.27.35-.07,0-1.19-.71-2.46C2018.9,131.25,2016.94,130.92,2014.5,131.06ZM453.26,133.24a2.43,2.43,0,0,0-.9.34,2.52,2.52,0,0,0-.71,3.35,2.22,2.22,0,0,0,3.16.75,2.52,2.52,0,0,0,.71-3.35A2.16,2.16,0,0,0,453.26,133.24Zm610.7,0a2.43,2.43,0,0,0-.9.34,2.52,2.52,0,0,0-.71,3.35,2.22,2.22,0,0,0,3.16.75,2.52,2.52,0,0,0,.71-3.35A2.16,2.16,0,0,0,1064,133.24Zm-6.19,4.37a2.43,2.43,0,0,0-.9.34,2.52,2.52,0,0,0-.71,3.35,2.22,2.22,0,0,0,3.16.75,2.52,2.52,0,0,0,.71-3.35A2.16,2.16,0,0,0,1057.77,137.62Zm342.87.75a2.6,2.6,0,0,0-2.06.68c-1.49,1.61-.92,3.29,1.87,5.47,4.67,3.65,6.67,3.91,8.32,1.09C1410.29,143,1404.31,138.48,1400.64,138.37ZM1196,139.8a2.42,2.42,0,0,0-.9.34,2.52,2.52,0,0,0-.71,3.35,2.22,2.22,0,0,0,3.16.75,2.52,2.52,0,0,0,.71-3.35A2.16,2.16,0,0,0,1196,139.8Zm-590.13,4.65c-1,.11-1.9,1.09-3.48,2.94-3.2,3.74-3.2,4.24-.19,5.47,1.82.74,2.79,2.28,2.13,3.42-.75,1.29,1.24,1.32,5.35.07,3.63-1.1,7.34-3.26,8.25-4.78,1.34-2.23,1.72-2.26,1.74,0a4.93,4.93,0,0,1-3.09,4c-1.7.69-2.56,2.14-1.93,3.21,2.1,3.61,4.69,2,7.93-4.85l3.22-6.84-6.51,1.37c-4.41.94-7.58.34-9.93-1.91C607.8,145.08,606.83,144.34,605.87,144.45Zm746.87,1.64c-3.1,0-7.53,5.2-5.93,7.93,1,1.69,2.6,1.73,5.42.14,4.47-2.54,5.14-5.5,1.74-7.72A2.21,2.21,0,0,0,1352.74,146.09ZM831,147.67c-1.77,0-2.64,1-1.93,2.19A4.42,4.42,0,0,0,832.3,152a2.08,2.08,0,0,0,1.93-2.19C834.24,148.65,832.78,147.67,831,147.67Zm-132.24.89a2.43,2.43,0,0,0-.9.34,2.52,2.52,0,0,0-.71,3.35,2.22,2.22,0,0,0,3.16.75,2.52,2.52,0,0,0,.71-3.35,2.16,2.16,0,0,0-2.26-1.09ZM435,152.11a12,12,0,0,0-5.16,2.12c-1.7,1.17-2.17,2.12-1,2.12a12,12,0,0,0,5.16-2.12C435.68,153.06,436.15,152.11,435,152.11Zm742.42.82a2.43,2.43,0,0,0-.9.34,2.52,2.52,0,0,0-.71,3.35,2.22,2.22,0,0,0,3.16.75,2.52,2.52,0,0,0,.71-3.35A2.16,2.16,0,0,0,1177.43,152.93ZM700.84,157.3a2.43,2.43,0,0,0-.9.34,2.52,2.52,0,0,0-.71,3.35,2.22,2.22,0,0,0,3.16.75,2.52,2.52,0,0,0,.71-3.35A2.16,2.16,0,0,0,700.84,157.3Zm468.34,0a2.43,2.43,0,0,0-.9.34,2.52,2.52,0,0,0-.71,3.35,2.22,2.22,0,0,0,3.16.75,2.52,2.52,0,0,0,.71-3.35A2.16,2.16,0,0,0,1169.18,157.3ZM716,161.06a4.15,4.15,0,0,0-.71.14c-5.18,1.06-5.93,6.15-.9,6.15,2.53,0,4.32-1.39,4.32-3.42A2.59,2.59,0,0,0,716,161.06Zm25.4,12.85c-2.4,0-3.8,1-3.09,2.19a3.28,3.28,0,0,0,6.19,0C745.19,174.9,743.8,173.91,741.39,173.91Zm281.56,2.8a44.77,44.77,0,0,0-6.64.75,85.53,85.53,0,0,1-13.48,1.3c-2-.13-3.16.57-2.58,1.57,1.6,2.74-8.3,8.87-14.83,9.16l-5.74.27,6.19,1.37c3.4.77,5.73,2.28,5.16,3.35-1.19,2.25,5.22,5.31,11.61,5.54,2.4.08,9.37-2,15.47-4.65,12.4-5.38,15.48-8.5,11-11.14a6.74,6.74,0,0,1-3-5.13C1026.11,177.42,1025.43,176.72,1023,176.72Zm-33.4,1.64a12.87,12.87,0,0,0-6.77,2.12c-2.42,1.66-1.89,2.16,2.45,2.19,3.05,0,6.13-1,6.83-2.19C992.88,179.08,991.57,178.36,989.56,178.36Zm161.06,16.13a2.43,2.43,0,0,0-.9.34,2.52,2.52,0,0,0-.71,3.35,2.22,2.22,0,0,0,3.16.75,2.52,2.52,0,0,0,.71-3.35A2.16,2.16,0,0,0,1150.61,194.49Zm-397.48,6.22c2.81-.11,10.54,3.5,11.93,5.88.74,1.28.6,2.3-.32,2.26-2.87-.15-13.42-6.76-12.44-7.79A1.17,1.17,0,0,1,753.13,200.71Zm-510.7.34a8.27,8.27,0,0,0-1.55.07,3.17,3.17,0,0,0-1.29.41c-1,.66-.67,2.62.71,4.37,2.73,3.49,13.53,3.26,12.64-.27C252.42,203.6,246.37,201.27,242.43,201.05Zm470.79,0a2.43,2.43,0,0,0-.9.34,2.52,2.52,0,0,0-.71,3.35,2.22,2.22,0,0,0,3.16.75,2.52,2.52,0,0,0,.71-3.35A2.16,2.16,0,0,0,713.22,201.05ZM705,203.24a2.43,2.43,0,0,0-.9.34,2.52,2.52,0,0,0-.71,3.35,2.22,2.22,0,0,0,3.16.75,2.52,2.52,0,0,0,.71-3.35A2.16,2.16,0,0,0,705,203.24Zm-7.67,6.29a3,3,0,0,0-1.61,1.09c-1.25,1.32-1.66,4.07-.9,6.15,1,2.76,2,3.19,3.61,1.44,1.25-1.32,1.66-4.13.9-6.22C698.67,210.26,698.08,209.45,697.29,209.53Zm-15.86.21c-2.88.32-6.3,3.61-4.9,6,.64,1.09,3,.87,5.35-.48,3-1.69,3.62-3.07,2.06-4.72A2.91,2.91,0,0,0,681.43,209.73ZM1066.15,212c-1.56.24-2.93,2.32-2.06,4.72.6,1.64.14,3.58-1,4.31a2.59,2.59,0,0,0-.77,3.42,2.23,2.23,0,0,0,3.22.68c1.13-.74,1.6-1.86,1-2.53s-.19-2.54,1-4.1,1.65-3.85.9-5.13a2.62,2.62,0,0,0-1.68-1.37A1.75,1.75,0,0,0,1066.15,212Zm191.36,7.79a6.6,6.6,0,0,1,1.16,0,8.51,8.51,0,0,1,6.71,4.31c2.88,5.71,2.69,7.4-.71,6a4.52,4.52,0,0,0-4.64.75c-1,1.08-2.8-.36-4.13-3.35s-1.85-5.76-1.22-6.43A4.44,4.44,0,0,1,1257.51,219.78Zm-162.6,5.47c-1.91.07-3.22,3-1.61,5.74,1,1.71,2,1.71,3.61,0s1.62-3.07,0-4.78A2.59,2.59,0,0,0,1094.91,225.25ZM756.55,227.3a2.43,2.43,0,0,0-.9.34,2.52,2.52,0,0,0-.71,3.35,2.22,2.22,0,0,0,3.16.75,2.52,2.52,0,0,0,.71-3.35A2.16,2.16,0,0,0,756.55,227.3Zm445.65,0a2.43,2.43,0,0,0-.9.34,2.52,2.52,0,0,0-.71,3.35,2.22,2.22,0,0,0,3.16.75,2.52,2.52,0,0,0,.71-3.35A2.16,2.16,0,0,0,1202.19,227.3Zm-940.81,2.19a2.43,2.43,0,0,0-.9.34,2.52,2.52,0,0,0-.71,3.35,2.22,2.22,0,0,0,3.16.75,2.52,2.52,0,0,0,.71-3.35A2.16,2.16,0,0,0,261.38,229.49Zm825.4,8.75c-.93.19-3.15,1.84-6.38,5.06-6.52,6.48-9.76,15.1-6.51,17.23,1.16.76,1.21,2.33.13,3.83-2.1,2.91,3.08,9.09,7.61,9.09,1.62,0,3.13,2.69,3.48,6.15.46,4.62-.54,6.62-3.93,8.07-2.48,1.06-3.7,2-2.71,2.05s.64,1.61-.77,3.42c-2.14,2.74-1.87,3.28,1.68,3.28,7.06,0,7.42,4.44.58,7.18-8.71,3.48-8.08,6.1.84,3.49,4-1.16,8.37-2,9.8-1.78,9.6,1.33,14.8-1.22,16.89-8.34,1.06-3.61.6-4.92-1.68-4.92-3.58,0-5.3-2.4-6.51-9.09-.85-4.68-7.89-14.41-12.83-17.77-2-1.35-1.72-3.07,1-7.52,3.5-5.66,3.49-5.77-1-4.51-6.53,1.81-7.71-1.73-2.71-8.48C1087.07,240.19,1088,238,1086.78,238.24Zm-802.7,4.37a2.43,2.43,0,0,0-.9.34,2.52,2.52,0,0,0-.71,3.35,2.22,2.22,0,0,0,3.16.75,2.52,2.52,0,0,0,.71-3.35A2.16,2.16,0,0,0,284.08,242.61Zm781.94,0a2.43,2.43,0,0,0-.9.34,2.52,2.52,0,0,0-.71,3.35,2.22,2.22,0,0,0,3.16.75,2.52,2.52,0,0,0,.71-3.35A2.16,2.16,0,0,0,1066,242.61Zm148.55,0a2.43,2.43,0,0,0-.9.34,2.52,2.52,0,0,0-.71,3.35,2.22,2.22,0,0,0,3.16.75,2.52,2.52,0,0,0,.71-3.35A2.16,2.16,0,0,0,1214.57,242.61Zm-879.69,2.8c-3.09.24-12.31,6.76-12.31,9.23a5.45,5.45,0,0,0,1.42,3.14c1.86,2,13.22-9.6,11.8-12l.19-.27-.32.21a.91.91,0,0,0-.77-.27Zm79.17,3.76a2.43,2.43,0,0,0-.9.34,2.52,2.52,0,0,0-.71,3.35,2.22,2.22,0,0,0,3.16.75,2.52,2.52,0,0,0,.71-3.35A2.16,2.16,0,0,0,414.06,249.18Zm652,2.19a2.43,2.43,0,0,0-.9.34,2.52,2.52,0,0,0-.71,3.35,2.22,2.22,0,0,0,3.16.75,2.52,2.52,0,0,0,.71-3.35A2.16,2.16,0,0,0,1066,251.36Zm127.92.14c-1.91.07-3.22,3-1.61,5.74,1,1.71,2,1.71,3.61,0s1.62-3.07,0-4.78A2.59,2.59,0,0,0,1193.94,251.5Zm-949.06,6.43a2.43,2.43,0,0,0-.9.34,2.52,2.52,0,0,0-.71,3.35,2.22,2.22,0,0,0,3.16.75,2.52,2.52,0,0,0,.71-3.35A2.16,2.16,0,0,0,244.88,257.92Zm76.34,2.19a2.43,2.43,0,0,0-.9.34,2.52,2.52,0,0,0-.71,3.35,2.22,2.22,0,0,0,3.16.75,2.52,2.52,0,0,0,.71-3.35,2.16,2.16,0,0,0-2.26-1.09Zm375.5,2.19a2.43,2.43,0,0,0-.9.34,2.52,2.52,0,0,0-.71,3.35,2.22,2.22,0,0,0,3.16.75,2.52,2.52,0,0,0,.71-3.35A2.16,2.16,0,0,0,696.71,262.3Zm-267.63,2.87a1.21,1.21,0,0,0-.45.07c-2,.57-2.71,4.86-1.35,7.72a1.65,1.65,0,0,0,2.51.48C431.94,272,431.17,265.41,429.08,265.17Zm-112,1.5a2.43,2.43,0,0,0-.9.34,2.52,2.52,0,0,0-.71,3.35,2.22,2.22,0,0,0,3.16.75,2.52,2.52,0,0,0,.71-3.35A2.16,2.16,0,0,0,317.09,266.67Zm1619.59,0a2.43,2.43,0,0,0-.9.34,2.52,2.52,0,0,0-.71,3.35,2.22,2.22,0,0,0,3.16.75,2.52,2.52,0,0,0,.71-3.35A2.16,2.16,0,0,0,1936.68,266.67ZM1158.86,269c-1.91.07-3.22,3-1.61,5.74,1,1.71,2,1.71,3.61,0s1.62-3.07,0-4.78A2.59,2.59,0,0,0,1158.86,269Zm16.51,2.05a2.43,2.43,0,0,0-.9.34,2.52,2.52,0,0,0-.71,3.35,2.22,2.22,0,0,0,3.16.75,2.52,2.52,0,0,0,.71-3.35A2.16,2.16,0,0,0,1175.37,271Zm-113.35.48a3.83,3.83,0,0,0-2.71,1.71c-1.21,1.55-1.57,3.47-.77,4.31s-.63,2.1-3.16,2.8c-3.47,1-4.05,2-2.39,4.1,1.53,2,1.57,3.25.06,4.24-1.89,1.24-3.25,9.91-1.55,9.91a96.61,96.61,0,0,0,9-4.31c7-3.61,8.59-5.55,9.28-11.89.68-6.18,0-8-3.74-9.77A8.2,8.2,0,0,0,1062,271.53Zm-788.26,1.71a2.43,2.43,0,0,0-.9.34,2.52,2.52,0,0,0-.71,3.35,2.22,2.22,0,0,0,3.16.75,2.52,2.52,0,0,0,.71-3.35,2.16,2.16,0,0,0-2.26-1.09Zm1548.86,1.3c-1.33,0-1.91.86-1.29,1.91s-.4,5.07-2.19,8.89c-2.76,5.87-2.82,8-.58,13.74,1.56,4,2.47,13.73,2.19,23.58-.39,13.89.08,16.75,2.71,16.75a3,3,0,0,0,3.16-2.73,5.53,5.53,0,0,0-2.06-4.17c-2.3-1.51-2.83-12.65-.71-14.9.75-.79,2.6-.38,4.13,1,3,2.63,3.86-.28,1.1-3.69-3.35-4.13-6.78-24.74-5.42-32.47C1824.61,277,1824.28,274.54,1822.63,274.54Zm124.37.89a2.43,2.43,0,0,0-.9.34,2.52,2.52,0,0,0-.71,3.35,2.22,2.22,0,0,0,3.16.75,2.52,2.52,0,0,0,.71-3.35A2.16,2.16,0,0,0,1947,275.42ZM260.61,277.27c-2.18.09-4.11,2-3,4a4.17,4.17,0,0,0,3,2.05c2.89,0,4.44-4,2.13-5.47A3.66,3.66,0,0,0,260.61,277.27Zm167.89.48c-1.91.07-3.22,3-1.61,5.74,1,1.71,2,1.71,3.61,0s1.62-3.07,0-4.78A2.59,2.59,0,0,0,428.5,277.75Zm-177.43,6.43a2.43,2.43,0,0,0-.9.34,2.52,2.52,0,0,0-.71,3.35,2.22,2.22,0,0,0,3.16.75,2.52,2.52,0,0,0,.71-3.35A2.16,2.16,0,0,0,251.07,284.17Zm1720.69,2.19a2.43,2.43,0,0,0-.9.34,2.52,2.52,0,0,0-.71,3.35,2.22,2.22,0,0,0,3.16.75,2.52,2.52,0,0,0,.71-3.35A2.16,2.16,0,0,0,1971.75,286.36Zm-1284.91.07a2.22,2.22,0,0,0-1.68.89c-1.55,1.65-1.4,3.3.45,5.67,3.66,4.68,6.76,2,4-3.49C688.62,287.53,687.75,286.49,686.85,286.43Zm-255.77,3.76a.17.17,0,0,0-.19.07c-.52.55.17,4.18,1.55,8.07s2.82,6.13,3.16,5.06-.41-4.71-1.61-8.07C432.93,292.38,431.71,290.31,431.08,290.19ZM1885.1,304c-1.91.07-3.22,3-1.61,5.74,1,1.71,2,1.71,3.61,0s1.62-3.07,0-4.78A2.59,2.59,0,0,0,1885.1,304ZM456.61,308.65c-.83.1-1.2.48-.84,1.09.64,1.09,2.93,2,5.09,2s4.91,2,6.13,4.37,3.18,4.37,4.32,4.37c3.59,0-7.18-10.32-12.06-11.55a9.84,9.84,0,0,0-1.68-.27A4.94,4.94,0,0,0,456.61,308.65Zm361.18.21c-1.95.28-5.85,2.63-10.19,6.84-7.64,7.4-8.19,8.66-5.67,12.3,2.77,4,6.69,4,17-.21,2.54-1,3.22-.71,2.13,1.16a8.78,8.78,0,0,0-.19,6.43c1.26,3.46,1.51,3.4,4.06-.27,1.77-2.55,3.24-3.09,4.13-1.57a2.41,2.41,0,0,0,3.35,1,2.52,2.52,0,0,0,.71-3.35,2.33,2.33,0,0,0-3.35-.62c-1.34.88-1.64-.26-.84-2.94,1.82-6.09-5.26-12.46-11.54-10.39-4.68,1.55-4.69,1.48-1-2.87C819.74,310.31,819.74,308.57,817.8,308.85Zm-165.12,2.87a2.19,2.19,0,1,1-2.06,2.19A2.13,2.13,0,0,1,652.68,311.72Zm127.92,2.87a5.12,5.12,0,0,0-1.68.41c-3.12,1.28-3.11,1.69.52,4.51,4.63,3.61,8.65,4.07,10.38,1.09C791.32,318,785,314.32,780.59,314.59ZM1881,314.8a2.43,2.43,0,0,0-.9.34,2.52,2.52,0,0,0-.71,3.35,2.22,2.22,0,0,0,3.16.75,2.52,2.52,0,0,0,.71-3.35A2.16,2.16,0,0,0,1881,314.8Zm-6.19,6.56a2.43,2.43,0,0,0-.9.34,2.52,2.52,0,0,0-.71,3.35,2.22,2.22,0,0,0,3.16.75,2.52,2.52,0,0,0,.71-3.35A2.16,2.16,0,0,0,1874.79,321.36ZM657.51,323.68a11.75,11.75,0,0,1,4.06,1.37c2.94,1.42,6.76,5.79,8.51,9.71,2.67,6,4.76,7.45,12.83,9,5.3,1,10,3.11,10.51,4.65s-.28,2.53-1.74,2.19-3.16,2.19-3.87,5.95c-1.23,6.55-1.27,6.55-3.87,1.57-1.43-2.74-3.35-4.46-4.32-3.83s-1.34-.7-.77-3c.67-2.71-.43-5.05-3.09-6.56-3.45-2-4.66-1.32-7.8,3.69-2.06,3.28-4.29,10.38-4.9,15.79-.71,6.24-1.7,8.81-2.77,7-.93-1.53-1.42-5.47-1.1-8.75s0-6.92-.71-8.13c-1.8-3.08,2.78-9.19,7.67-10.19,11.73-2.4-6.47-10.69-20.24-9.23-7.65.81-8.1.66-3.55-1.44a40,40,0,0,0,9.54-6.7C654.22,324.52,655.65,323.55,657.51,323.68Zm54.93,6.08a3.66,3.66,0,0,1,2.19.55c2.31,1.51.76,5.47-2.13,5.47a4.17,4.17,0,0,1-3-2.05C708.34,331.77,710.27,329.86,712.45,329.77Zm1156.15.34a2.43,2.43,0,0,0-.9.34,2.52,2.52,0,0,0-.71,3.35,2.22,2.22,0,0,0,3.16.75,2.52,2.52,0,0,0,.71-3.35A2.16,2.16,0,0,0,1868.6,330.11ZM814.31,332.3a2.43,2.43,0,0,0-.9.34,2.52,2.52,0,0,0-.71,3.35,2.22,2.22,0,0,0,3.16.75,2.52,2.52,0,0,0,.71-3.35A2.16,2.16,0,0,0,814.31,332.3Zm550.22,4.51c3.35,0,4.06,1.15,4.06,5.06,0,3.74-.91,4.94-3,4.1-1.62-.66-4,.25-5.35,2s-1.81,3.14-1,3.14.5,1.31-.77,2.94c-1.78,2.27-1.15,4.27,2.64,8.61,2.72,3.11,4.46,6.21,3.87,6.84s-.47,2.9.32,5.06c1.33,3.65,1.63,3.61,4,.21s2.73-3.35,5,.55c2.13,3.62,1.91,4.24-1.55,4.24-5.58,0-7.17,3.64-2.77,6.36,2,1.24,3.08,2.29,2.39,2.32s-.56,4,.26,8.68c1.3,7.56.92,8.69-2.9,9.77-8,2.28-12.94,1.34-16.83-3.21-3.66-4.29-3.68-5-.52-14.35,2.77-8.17,2.85-10.06.52-11-3.83-1.56-11.66-24.33-10.12-29.46,1.49-5,12.18-11.23,20.05-11.76C1363.52,336.84,1364.06,336.81,1364.54,336.81Zm-667.82,2.05A2.16,2.16,0,0,1,699,340a2.52,2.52,0,0,1-.71,3.35,2.22,2.22,0,0,1-3.16-.75,2.52,2.52,0,0,1,.71-3.35A2.43,2.43,0,0,1,696.71,338.86Zm1159.5,0a2.43,2.43,0,0,0-.9.34,2.52,2.52,0,0,0-.71,3.35,2.21,2.21,0,0,0,3.16.75,2.52,2.52,0,0,0,.71-3.35A2.16,2.16,0,0,0,1856.22,338.86Zm-450.16,3.49c2.64,0,2.11,9.73-.71,12.71-3.35,3.56-5.09,3.25-6.64-1C1397.43,350.51,1402.57,342.34,1406.06,342.34Zm443.2,2.73c-2.18.09-4.11,2-3,4a4.17,4.17,0,0,0,3,2.05c2.89,0,4.43-4,2.13-5.47A3.66,3.66,0,0,0,1849.25,345.08Zm-32.75.82V346c-2,.54-2.16,3-2.16,7.38,0,4.14-1.1,6.43-3,6.43-4.46,0-5.58,3.34-3.25,9.84,2,5.58,7.8,6.66,6.63,1.23-.36-1.65.9-2.19,3.35-1.37a6,6,0,0,0,6.51-2c1.43-1.83,3.83-3.35,5.35-3.35,3.49,0,7.74-8,5.16-9.71a5.93,5.93,0,0,0-4.77-.07c-1.58.64-5-1.3-7.67-4.31s-4.72-4.51-6.09-4.1Zm25.27,3.9a2.43,2.43,0,0,0-.9.34,2.52,2.52,0,0,0-.71,3.35,2.22,2.22,0,0,0,3.16.75,2.52,2.52,0,0,0,.71-3.35A2.16,2.16,0,0,0,1841.77,349.8Zm-1127.46,6a1.92,1.92,0,0,1,.58,0c.43.08.56.4.39.89-.61,1.69-4.21,3.95-8,5.06s-10.06,4.6-13.93,7.72-8.21,5.67-9.67,5.67c-4,0,5.52-7,19.92-14.7C708.93,357.62,712.62,356,714.31,355.81Zm1125.4,2.73a2.43,2.43,0,0,0-.9.34,2.52,2.52,0,0,0-.71,3.35,2.22,2.22,0,0,0,3.16.75,2.52,2.52,0,0,0,.71-3.35A2.16,2.16,0,0,0,1839.71,358.55Zm-693.23,6.7c-1.91.07-3.22,3-1.61,5.74,1,1.71,2,1.71,3.61,0s1.62-3.07,0-4.78A2.59,2.59,0,0,0,1146.49,365.24ZM1811,378.3c-2.39.1-4.2,2.08-4.58,5.61-1.37,12.92-2.53,15.79-5.48,13.19-1.79-1.57-3.34-1.7-4.13-.34a2.79,2.79,0,0,0,1,3.62c1.53,1,1.43,2.35-.26,4.51-1.83,2.34-3.13,2.53-5.22.68s-3.2-1.27-4.71,2.94-3.82,5.66-10.64,6.63c-5.74.82-10.5,3.2-13.8,7-3.67,4.19-5.72,5.15-7.61,3.49-4.64-4.08-5.27.3-1,6.7,2.31,3.44,3.58,7.28,2.84,8.54a7.61,7.61,0,0,0-.19,5.54c2,5.59,5.66,3.4,8.9-5.33,2.29-6.17,4.13-8.23,6.71-7.52a6.49,6.49,0,0,0,6.19-2.39c2.26-2.89,1.94-3.78-2.19-5.54-4.83-2-4.84-2.05-.32-2.19,2.68-.08,5.54,1.84,7,4.65,2.38,4.72,2.52,4.43,5.8.25,2.26-2.89,5.92-4.6,11.54-4.6h8.25l3.09-13.17c1.7-7.41,3.79-14.07,4.64-15,2.49-2.6,1.78-13.22-1-15.44A7.28,7.28,0,0,0,1811,378.3Zm-664.79,1.78c-1.31.09-2.51,1.64-2.51,4.65,0,4.14.85,5.27,3.22,4.31a4.39,4.39,0,0,0,2.58-4.65C1149,381.41,1147.54,380,1146.23,380.08Zm-22,2.67a2.71,2.71,0,0,0-.77.07,3.14,3.14,0,0,0-1,.48,10.7,10.7,0,0,1-4.19,1.71,1.79,1.79,0,0,0-1.74,1.64v2.87c0,.67,1.36.41,2.77-.55a15.23,15.23,0,0,1,4.22-2c.85-.17,2.12-.46,2.76-.62s.61-1.31-.1-2.53A2.28,2.28,0,0,0,1124.24,382.74Zm-14.89,8.61a2.43,2.43,0,0,0-.9.34,2.52,2.52,0,0,0-.71,3.35,2.22,2.22,0,0,0,3.16.75,2.52,2.52,0,0,0,.71-3.35A2.16,2.16,0,0,0,1109.35,391.36Zm63.25,7.86c-7.33,0-8,2.77-1.55,6.08,6.69,3.42,7.74,3.19,7.74-1.71C1178.79,400.19,1177.41,399.22,1172.6,399.22Zm31.66.89a2.42,2.42,0,0,0-.9.34,2.52,2.52,0,0,0-.71,3.35,2.22,2.22,0,0,0,3.16.75,2.52,2.52,0,0,0,.71-3.35A2.16,2.16,0,0,0,1204.25,400.11Zm-43.33,6.56a2.43,2.43,0,0,0-.9.34,2.52,2.52,0,0,0-.71,3.35,2.22,2.22,0,0,0,3.16.75,2.52,2.52,0,0,0,.71-3.35A2.16,2.16,0,0,0,1160.93,406.67Zm74.27,0a2.43,2.43,0,0,0-.9.34,2.52,2.52,0,0,0-.71,3.35,2.22,2.22,0,0,0,3.16.75,2.52,2.52,0,0,0,.71-3.35A2.16,2.16,0,0,0,1235.2,406.67Zm-10.32,2.19a2.43,2.43,0,0,0-.9.34,2.52,2.52,0,0,0-.71,3.35,2.22,2.22,0,0,0,3.16.75,2.52,2.52,0,0,0,.71-3.35A2.16,2.16,0,0,0,1224.89,408.86Zm43.26,6a4.75,4.75,0,0,0-2.64.68,2.7,2.7,0,0,0-1,3.49c1.57,2.7,6.58,2.63,8.19-.14C1273.84,416.89,1271,414.89,1268.15,414.87Zm-96.9.55a2.43,2.43,0,0,0-.9.34,2.52,2.52,0,0,0-.71,3.35,2.22,2.22,0,0,0,3.16.75,2.52,2.52,0,0,0,.71-3.35A2.16,2.16,0,0,0,1171.24,415.42Zm-8.25,2.19a2.43,2.43,0,0,0-.9.34,2.52,2.52,0,0,0-.71,3.35,2.22,2.22,0,0,0,3.16.75,2.52,2.52,0,0,0,.71-3.35A2.16,2.16,0,0,0,1163,417.61Zm63.44,1.57a2.47,2.47,0,0,0-1.68.62c-.69.73.53,1.19,2.71,1.09,2.4-.1,2.87-.6,1.23-1.3A5.27,5.27,0,0,0,1226.43,419.18Zm514.25,11.55a2.42,2.42,0,0,0-.9.34,2.52,2.52,0,0,0-.71,3.35,2.22,2.22,0,0,0,3.16.75,2.52,2.52,0,0,0,.71-3.35A2.16,2.16,0,0,0,1740.68,430.73ZM771,435.1a2.43,2.43,0,0,0-.9.34,2.52,2.52,0,0,0-.71,3.35,2.22,2.22,0,0,0,3.16.75,2.52,2.52,0,0,0,.71-3.35A2.16,2.16,0,0,0,771,435.1Zm243.45,2.19a2.43,2.43,0,0,0-.9.34,2.52,2.52,0,0,0-.71,3.35,2.22,2.22,0,0,0,3.16.75,2.52,2.52,0,0,0,.71-3.35A2.16,2.16,0,0,0,1014.44,437.29Zm734.49,0a2.42,2.42,0,0,0-.9.34,2.52,2.52,0,0,0-.71,3.35,2.22,2.22,0,0,0,3.16.75,2.52,2.52,0,0,0,.71-3.35A2.16,2.16,0,0,0,1748.93,437.29Zm-738.62,26.25a2.43,2.43,0,0,0-.9.34,2.52,2.52,0,0,0-.71,3.35,2.22,2.22,0,0,0,3.16.75,2.52,2.52,0,0,0,.71-3.35A2.16,2.16,0,0,0,1010.32,463.54Zm18.57,2.19a2.43,2.43,0,0,0-.9.34,2.52,2.52,0,0,0-.71,3.35,2.22,2.22,0,0,0,3.16.75,2.52,2.52,0,0,0,.71-3.35A2.16,2.16,0,0,0,1028.88,465.73Zm726.24,0a2.43,2.43,0,0,0-.9.34,2.52,2.52,0,0,0-.71,3.35,2.22,2.22,0,0,0,3.16.75,2.52,2.52,0,0,0,.71-3.35A2.16,2.16,0,0,0,1755.12,465.73Zm-736.55,2.19a2.43,2.43,0,0,0-.9.34,2.52,2.52,0,0,0-.71,3.35,2.22,2.22,0,0,0,3.16.75,2.52,2.52,0,0,0,.71-3.35A2.16,2.16,0,0,0,1018.57,467.92ZM702.9,472.29a2.43,2.43,0,0,0-.9.34,2.52,2.52,0,0,0-.71,3.35,2.22,2.22,0,0,0,3.16.75,2.52,2.52,0,0,0,.71-3.35A2.16,2.16,0,0,0,702.9,472.29Zm307.41,0a2.43,2.43,0,0,0-.9.34,2.52,2.52,0,0,0-.71,3.35,2.22,2.22,0,0,0,3.16.75,2.52,2.52,0,0,0,.71-3.35A2.16,2.16,0,0,0,1010.32,472.29Zm-299.16,2.19a2.43,2.43,0,0,0-.9.34,2.52,2.52,0,0,0-.71,3.35,2.22,2.22,0,0,0,3.16.75,2.52,2.52,0,0,0,.71-3.35A2.16,2.16,0,0,0,711.16,474.48Zm1036.1.48c-2.7,0-5.85,4.56-4.13,7.52,1,1.77,2.45,1.44,4.77-1s2.61-4.14,1.1-5.74A2.27,2.27,0,0,0,1747.26,475ZM1375.5,481a2.43,2.43,0,0,0-.9.34,2.52,2.52,0,0,0-.71,3.35,2.22,2.22,0,0,0,3.16.75,2.52,2.52,0,0,0,.71-3.35A2.16,2.16,0,0,0,1375.5,481ZM702.9,483.23a2.43,2.43,0,0,0-.9.34,2.52,2.52,0,0,0-.71,3.35,2.22,2.22,0,0,0,3.16.75,2.52,2.52,0,0,0,.71-3.35A2.16,2.16,0,0,0,702.9,483.23Zm10.32,0a2.43,2.43,0,0,0-.9.34,2.52,2.52,0,0,0-.71,3.35,2.22,2.22,0,0,0,3.16.75,2.52,2.52,0,0,0,.71-3.35A2.16,2.16,0,0,0,713.22,483.23Zm1021.27,4.37a2.43,2.43,0,0,0-.9.34,2.52,2.52,0,0,0-.71,3.35,2.22,2.22,0,0,0,3.16.75,2.52,2.52,0,0,0,.71-3.35A2.16,2.16,0,0,0,1734.49,487.6ZM707,489.79a2.43,2.43,0,0,0-.9.34,2.52,2.52,0,0,0-.71,3.35,2.22,2.22,0,0,0,3.16.75,2.52,2.52,0,0,0,.71-3.35A2.16,2.16,0,0,0,707,489.79Zm10.32,0a2.43,2.43,0,0,0-.9.34,2.52,2.52,0,0,0-.71,3.35,2.22,2.22,0,0,0,3.16.75,2.52,2.52,0,0,0,.71-3.35A2.16,2.16,0,0,0,717.35,489.79Zm1008.89,0a2.43,2.43,0,0,0-.9.34,2.52,2.52,0,0,0-.71,3.35,2.22,2.22,0,0,0,3.16.75,2.52,2.52,0,0,0,.71-3.35A2.16,2.16,0,0,0,1726.24,489.79Zm-12.83.48a4.08,4.08,0,0,0-1.48,1c-3,2.62-4,13.31-1.55,15.93,1.89,2,2.07,1.57,3.35-9.09C1714.45,492.12,1714.48,490,1713.41,490.27ZM713.22,496.35a2.24,2.24,0,0,0-.9.34,2.52,2.52,0,0,0-.71,3.35,2.11,2.11,0,0,0,3,.89,2.27,2.27,0,0,1,3.09,1.09,2.35,2.35,0,0,0,3.29,1,2.52,2.52,0,0,0,.71-3.35,2.11,2.11,0,0,0-3-.89,2.27,2.27,0,0,1-3.09-1.09A2.45,2.45,0,0,0,713.22,496.35Zm-28.69,3.76a12.71,12.71,0,0,0-8.25,2.87c-3.89,3-3.85,3.14,1.16,5.13,2.84,1.12,4.93,2.72,4.64,3.49-1.07,2.88-.42,3.76,1.68,2.39,1.48-1,1.39-2.4-.26-4.51s-1.76-3.08-.19-3.08c3.38,0,25,11.14,24.76,12.78a13.88,13.88,0,0,0,.06,3.08c.43,2.86,12.06,1.76,14.51-1.37,1.9-2.42-.88-4.73-14.44-12C697.07,502.88,689.9,500.12,684.53,500.11Zm43.13,2.8a2.43,2.43,0,0,0-.9.34,2.52,2.52,0,0,0-.71,3.35,2.22,2.22,0,0,0,3.16.75,2.52,2.52,0,0,0,.71-3.35A2.16,2.16,0,0,0,727.66,502.91Zm-431.2,2.19a2.43,2.43,0,0,0-.9.34,2.52,2.52,0,0,0-.71,3.35,2.22,2.22,0,0,0,3.16.75,2.52,2.52,0,0,0,.71-3.35A2.16,2.16,0,0,0,296.46,505.1Zm439.46,0a2.43,2.43,0,0,0-.9.34,2.52,2.52,0,0,0-.71,3.35,2.22,2.22,0,0,0,3.16.75,2.52,2.52,0,0,0,.71-3.35A2.16,2.16,0,0,0,735.91,505.1Zm-432,4c-2.18.09-4.11,2-3,4a4.17,4.17,0,0,0,3,2.05c2.89,0,4.44-4,2.13-5.47A3.66,3.66,0,0,0,303.94,509.13Zm427.85,2.53a2.43,2.43,0,0,0-.9.34,2.52,2.52,0,0,0-.71,3.35,2.22,2.22,0,0,0,3.16.75,2.52,2.52,0,0,0,.71-3.35A2.16,2.16,0,0,0,731.79,511.66ZM312.9,513.85a2.27,2.27,0,0,0-.9.34c-1.3.85-1.25,2.34.13,4.1,1.18,1.51,1.64,3.32,1,4s-.62,2.34.13,3.62c1.78,3.05,4.61,2.95,6.45-.21.81-1.39-.23-3.85-2.32-5.47s-3.11-2.94-2.26-2.94,1-1,.26-2.26A2.45,2.45,0,0,0,312.9,513.85Zm1341.84,7.93a5.28,5.28,0,0,0-4.26,3.35c-.87,2.4-.2,3.23,2.19,2.73a6,6,0,0,0,4.26-3.42C1657.56,522.44,1656.33,521.61,1654.74,521.78Zm-917.79,3.28c-3.15-.08-5.15.41-4.51,1.5s-.71,2.42-2.77,3.28c-5.76,2.41,7.18,4.59,14.64,2.46,3.28-.94,6.76-1.18,7.74-.55s1.74.19,1.74-1-2.55-2.85-5.67-3.83A44,44,0,0,0,736.95,525.06ZM764,528.82c-2.18.09-4.11,2-3,4a4.17,4.17,0,0,0,3,2.05c2.89,0,4.44-4,2.13-5.47A3.66,3.66,0,0,0,764,528.82Zm-57.06,2a4.75,4.75,0,0,0-2.64.68,2.7,2.7,0,0,0-1,3.49c1.57,2.7,6.58,2.63,8.19-.14C712.65,532.82,709.78,530.82,707,530.8Zm1006,.41c-3.09.17-3.77,2.15-4.84,10.66-1.51,12,.25,15.8,8.19,17.91,5.26,1.4,12.21,12.6,9.67,15.59-.81.95-.28,1.2,1.16.32s2-2,1.16-4h-.06c-.83-3,.07-1.48,2.06.23,7.22,6.21,3.1-.43-6.83-11-11.26-11.94-11.81-13.3-7.22-17.34,5-4.43,3.94-12-1.81-12.33A14.45,14.45,0,0,0,1713,531.21Zm-939.9,2.32a2.43,2.43,0,0,0-.9.34,2.52,2.52,0,0,0-.71,3.35,2.22,2.22,0,0,0,3.16.75,2.52,2.52,0,0,0,.71-3.35A2.16,2.16,0,0,0,773.05,533.54Zm-103.16,2.19a2.43,2.43,0,0,0-.9.34,2.52,2.52,0,0,0-.71,3.35,2.22,2.22,0,0,0,3.16.75,2.52,2.52,0,0,0,.71-3.35A2.16,2.16,0,0,0,669.89,535.72Zm111.41,0a2.43,2.43,0,0,0-.9.34,2.52,2.52,0,0,0-.71,3.35,2.22,2.22,0,0,0,3.16.75,2.52,2.52,0,0,0,.71-3.35A2.16,2.16,0,0,0,781.3,535.72Zm8.25,2.19a2.43,2.43,0,0,0-.9.34,2.52,2.52,0,0,0-.71,3.35,2.22,2.22,0,0,0,3.16.75,2.52,2.52,0,0,0,.71-3.35A2.16,2.16,0,0,0,789.56,537.91Zm183.62,4.37a2.43,2.43,0,0,0-.9.34,2.52,2.52,0,0,0-.71,3.35,2.22,2.22,0,0,0,3.16.75,2.52,2.52,0,0,0,.71-3.35A2.16,2.16,0,0,0,973.18,542.29Zm12.38,2.19a2.43,2.43,0,0,0-.9.34,2.52,2.52,0,0,0-.71,3.35,2.22,2.22,0,0,0,3.16.75,2.52,2.52,0,0,0,.71-3.35A2.16,2.16,0,0,0,985.56,544.47Zm-196,2.19a2.43,2.43,0,0,0-.9.34,2.52,2.52,0,0,0-.71,3.35,2.22,2.22,0,0,0,3.16.75,2.52,2.52,0,0,0,.71-3.35A2.16,2.16,0,0,0,789.56,546.66Zm1048.09,2.19a2.43,2.43,0,0,0-.9.34,2.52,2.52,0,0,0-.71,3.35,2.22,2.22,0,0,0,3.16.75,2.52,2.52,0,0,0,.71-3.35A2.16,2.16,0,0,0,1837.65,548.85ZM1947,551a2.43,2.43,0,0,0-.9.34,2.52,2.52,0,0,0-.71,3.35,2.22,2.22,0,0,0,3.16.75,2.52,2.52,0,0,0,.71-3.35A2.16,2.16,0,0,0,1947,551Zm-969.69,2.19a2.43,2.43,0,0,0-.9.34,2.52,2.52,0,0,0-.71,3.35,2.22,2.22,0,0,0,3.16.75,2.52,2.52,0,0,0,.71-3.35A2.16,2.16,0,0,0,977.31,553.22Zm8.25,0a2.43,2.43,0,0,0-.9.34,2.52,2.52,0,0,0-.71,3.35,2.22,2.22,0,0,0,3.16.75,2.52,2.52,0,0,0,.71-3.35A2.16,2.16,0,0,0,985.56,553.22Zm-193.94,2.19a2.43,2.43,0,0,0-.9.34,2.39,2.39,0,0,0-.84,3.14,2.55,2.55,0,0,1-1,3.28,2.66,2.66,0,0,0-.9,3.49,2.22,2.22,0,0,0,3.16.75,2.39,2.39,0,0,0,.84-3.14,2.55,2.55,0,0,1,1-3.28,2.66,2.66,0,0,0,.9-3.49A2.16,2.16,0,0,0,791.62,555.41Zm938.74,0a2.43,2.43,0,0,0-.9.34,2.52,2.52,0,0,0-.71,3.35,2.22,2.22,0,0,0,3.16.75,2.52,2.52,0,0,0,.71-3.35A2.16,2.16,0,0,0,1730.36,555.41Zm101.1,2.19a2.43,2.43,0,0,0-.9.34,2.52,2.52,0,0,0-.71,3.35,2.21,2.21,0,0,0,3.16.75,2.52,2.52,0,0,0,.71-3.35A2.16,2.16,0,0,0,1831.46,557.6ZM799.87,564.16a2.42,2.42,0,0,0-.9.34,2.52,2.52,0,0,0-.71,3.35,2.22,2.22,0,0,0,3.16.75,2.52,2.52,0,0,0,.71-3.35A2.16,2.16,0,0,0,799.87,564.16Zm911.92.14c-1.91.07-3.22,3-1.61,5.74,1,1.71,2,1.71,3.61,0s1.62-3.07,0-4.79A2.59,2.59,0,0,0,1711.8,564.3Zm-957.31,2.05a2.43,2.43,0,0,0-.9.34,2.52,2.52,0,0,0-.71,3.35,2.22,2.22,0,0,0,3.16.75,2.52,2.52,0,0,0,.71-3.35A2.16,2.16,0,0,0,754.48,566.35Zm812.89,0a2.43,2.43,0,0,0-.9.34,2.52,2.52,0,0,0-.71,3.35,2.22,2.22,0,0,0,3.16.75,2.52,2.52,0,0,0,.71-3.35A2.16,2.16,0,0,0,1567.37,566.35Zm-804.64,2.19a2.42,2.42,0,0,0-.9.34,2.52,2.52,0,0,0-.71,3.35,2.22,2.22,0,0,0,3.16.75,2.52,2.52,0,0,0,.71-3.35A2.16,2.16,0,0,0,762.74,568.54Zm608.64,0a2.42,2.42,0,0,0-.9.34,2.52,2.52,0,0,0-.71,3.35,2.22,2.22,0,0,0,3.16.75,2.52,2.52,0,0,0,.71-3.35A2.16,2.16,0,0,0,1371.37,568.54Zm-583.88,2.19a2.43,2.43,0,0,0-.9.34,2.52,2.52,0,0,0-.71,3.35,2.22,2.22,0,0,0,3.16.75,2.52,2.52,0,0,0,.71-3.35A2.16,2.16,0,0,0,787.49,570.72Zm918.11,0a2.43,2.43,0,0,0-.9.34,2.52,2.52,0,0,0-.71,3.35,2.21,2.21,0,0,0,3.16.75,2.52,2.52,0,0,0,.71-3.35A2.16,2.16,0,0,0,1705.61,570.72Zm-138.23,4.37a2.43,2.43,0,0,0-.9.34,2.52,2.52,0,0,0-.71,3.35,2.22,2.22,0,0,0,3.16.75,2.52,2.52,0,0,0,.71-3.35A2.16,2.16,0,0,0,1567.37,575.1Zm150.61,0a2.43,2.43,0,0,0-.9.34,2.52,2.52,0,0,0-.71,3.35,2.22,2.22,0,0,0,3.16.75,2.52,2.52,0,0,0,.71-3.35A2.16,2.16,0,0,0,1718,575.1Zm-924.3,2.19a2.43,2.43,0,0,0-.9.34,2.52,2.52,0,0,0-.71,3.35,2.22,2.22,0,0,0,3.16.75,2.52,2.52,0,0,0,.71-3.35A2.16,2.16,0,0,0,793.68,577.29Zm-57.32,1.64a.37.37,0,0,0-.19.14c-.57.6-.48,2.76.26,4.78s1.82,3.2,2.39,2.6.41-2.76-.32-4.78C737.85,579.89,737,578.77,736.37,578.93Zm964.79,1.85c-1.54,0-6.58,9.33-6.58,12.17s2.3.25,5.16-5.61C1701.5,583.72,1702.14,580.77,1701.16,580.77Zm35.4.89a2.43,2.43,0,0,0-.9.34,2.52,2.52,0,0,0-.71,3.35,2.22,2.22,0,0,0,3.16.75,2.52,2.52,0,0,0,.71-3.35A2.16,2.16,0,0,0,1736.55,581.66Zm-113.47,2.19a2.43,2.43,0,0,0-.9.34,2.52,2.52,0,0,0-.71,3.35,2.22,2.22,0,0,0,3.16.75,2.52,2.52,0,0,0,.71-3.35A2.16,2.16,0,0,0,1623.08,583.85Zm253.77,6.56a2.43,2.43,0,0,0-.9.34,2.52,2.52,0,0,0-.71,3.35,2.22,2.22,0,0,0,3.16.75,2.52,2.52,0,0,0,.71-3.35A2.16,2.16,0,0,0,1876.85,590.41Zm86.65,0a2.43,2.43,0,0,0-.9.34,2.52,2.52,0,0,0-.71,3.35,2.22,2.22,0,0,0,3.16.75,2.52,2.52,0,0,0,.71-3.35A2.16,2.16,0,0,0,1963.5,590.41Zm-227.79,1.64c-1.25,0-3.22.95-6.58,2.8-4.12,2.28-5.69,2.44-5.74.55-.08-3-6.13,4.84-6.13,7.93,0,1.12,1.38.84,3-.62,3.4-3,7.29-1.31,7.29,3.14s4.48,5.17,8.19,1.3c2-2,2.93-5.85,2.45-9.43C1737.71,593.83,1737.32,592.09,1735.71,592.05Zm-229.4.48c-1.47-.1-2.7,1.74-3.22,5.54-1.27,9.2,1.83,13.06,7.41,9.3,2-1.36,2.06-3.34.26-8.82C1509.48,594.63,1507.79,592.63,1506.32,592.53Zm-38,2.26a2.43,2.43,0,0,0-.9.34,2.52,2.52,0,0,0-.71,3.35,2.22,2.22,0,0,0,3.16.75,2.52,2.52,0,0,0,.71-3.35A2.16,2.16,0,0,0,1468.34,594.78Zm394.07,0a2.43,2.43,0,0,0-.9.34,2.52,2.52,0,0,0-.71,3.35,2.22,2.22,0,0,0,3.16.75,2.52,2.52,0,0,0,.71-3.35A2.16,2.16,0,0,0,1862.41,594.78Zm8.25,2.19a2.43,2.43,0,0,0-.9.34,2.52,2.52,0,0,0-.71,3.35,2.22,2.22,0,0,0,3.16.75,2.52,2.52,0,0,0,.71-3.35A2.16,2.16,0,0,0,1870.66,597Zm-90.2,6.29a3,3,0,0,0-1.61,1.09c-1.25,1.32-1.66,4.07-.9,6.15,1,2.76,2,3.19,3.61,1.44,1.25-1.32,1.66-4.13.9-6.22C1781.83,604,1781.24,603.19,1780.46,603.26Zm-312.12.27a2.43,2.43,0,0,0-.9.34,2.52,2.52,0,0,0-.71,3.35,2.22,2.22,0,0,0,3.16.75,2.52,2.52,0,0,0,.71-3.35A2.16,2.16,0,0,0,1468.34,603.53Zm105.22,2.19a2.43,2.43,0,0,0-.9.34,2.52,2.52,0,0,0-.71,3.35,2.22,2.22,0,0,0,3.16.75,2.52,2.52,0,0,0,.71-3.35A2.16,2.16,0,0,0,1573.56,605.72Zm239.33,0a2.42,2.42,0,0,0-.9.34,2.52,2.52,0,0,0-.71,3.35,2.22,2.22,0,0,0,3.16.75,2.52,2.52,0,0,0,.71-3.35A2.16,2.16,0,0,0,1812.89,605.72Zm35.07,0a2.43,2.43,0,0,0-.9.34,2.52,2.52,0,0,0-.71,3.35,2.22,2.22,0,0,0,3.16.75,2.52,2.52,0,0,0,.71-3.35A2.16,2.16,0,0,0,1848,605.72Zm-157.32,1.71-11.28,11.83c-6.19,6.51-12.58,11.83-14.25,11.83s-3.49,1.87-4.06,4.17-3.24,4.52-5.93,4.92c-4.06.61-4.8,1.81-4.26,7.18.36,3.55,3.23,10.44,6.32,15.31,4.83,7.63,6.64,8.89,13.09,8.89,4.12,0,8.12.75,9,1.64s2.65.64,4-.55,3-1.49,3.8-.68.82-1.52.13-5.2c-.75-4-.34-7.31,1-8.2s3.66-4.89,5.29-9,4-7.52,5.35-7.52c1.82,0,1.81-.82-.06-3.21-1.37-1.75-1.94-4.08-1.29-5.2s-.82-2.6-3.29-3.28c-4.42-1.23-4.42-1.33,1.22-7.31l5.74-6-5.29-4.78Zm19.08,2.67a2.42,2.42,0,0,0-.9.34,2.52,2.52,0,0,0-.71,3.35,2.21,2.21,0,0,0,3.16.75,2.52,2.52,0,0,0,.71-3.35A2.16,2.16,0,0,0,1709.73,610.1Zm130,0a2.43,2.43,0,0,0-.9.34,2.52,2.52,0,0,0-.71,3.35,2.22,2.22,0,0,0,3.16.75,2.52,2.52,0,0,0,.71-3.35A2.16,2.16,0,0,0,1839.71,610.1Zm-369.31,2.19a2.43,2.43,0,0,0-.9.34,2.52,2.52,0,0,0-.71,3.35,2.22,2.22,0,0,0,3.16.75,2.52,2.52,0,0,0,.71-3.35A2.16,2.16,0,0,0,1470.4,612.28Zm453.9,2.19a2.43,2.43,0,0,0-.9.34,2.52,2.52,0,0,0-.71,3.35,2.21,2.21,0,0,0,3.16.75,2.52,2.52,0,0,0,.71-3.35A2.16,2.16,0,0,0,1924.3,614.47ZM1583,616l8.32,11.07c4.58,6.1,8.32,12.79,8.32,14.83s2.32,6,5.16,8.82,5.2,6.72,5.22,8.61c0,4.28,16.71,24.23,19.54,23.38,1.13-.34,2.38-3,2.77-5.88s1.65-6.55,2.77-8c2.37-3.07.24-7.84-2.64-5.95-2.31,1.51-14.41-10.06-13-12.44.52-.9-4-6.87-10.12-13.26s-11.46-12.85-11.93-14.35-3.88-3.65-7.61-4.78Zm-114.7,5a2.43,2.43,0,0,0-.9.34,2.52,2.52,0,0,0-.71,3.35,2.22,2.22,0,0,0,3.16.75,2.52,2.52,0,0,0,.71-3.35A2.16,2.16,0,0,0,1468.34,621Zm177.43,2.19a2.43,2.43,0,0,0-.9.34,2.52,2.52,0,0,0-.71,3.35,2.22,2.22,0,0,0,3.16.75,2.52,2.52,0,0,0,.71-3.35A2.16,2.16,0,0,0,1645.77,623.22Zm-505.48,2.19a2.43,2.43,0,0,0-.9.34,2.52,2.52,0,0,0-.71,3.35,2.22,2.22,0,0,0,3.16.75,2.52,2.52,0,0,0,.71-3.35A2.16,2.16,0,0,0,1140.3,625.41Zm443.58,4.37a2.43,2.43,0,0,0-.9.34,2.52,2.52,0,0,0-.71,3.35,2.22,2.22,0,0,0,3.16.75,2.52,2.52,0,0,0,.71-3.35A2.16,2.16,0,0,0,1583.88,629.78Zm165.05,0a2.43,2.43,0,0,0-.9.34,2.52,2.52,0,0,0-.71,3.35,2.22,2.22,0,0,0,3.16.75,2.52,2.52,0,0,0,.71-3.35A2.16,2.16,0,0,0,1748.93,629.78Zm-612.76,4.37a2.43,2.43,0,0,0-.9.34,2.52,2.52,0,0,0-.71,3.35,2.22,2.22,0,0,0,3.16.75,2.52,2.52,0,0,0,.71-3.35A2.16,2.16,0,0,0,1136.17,634.16ZM641,638.53a2.43,2.43,0,0,0-.9.34,2.52,2.52,0,0,0-.71,3.35,2.22,2.22,0,0,0,3.16.75,2.52,2.52,0,0,0,.71-3.35A2.16,2.16,0,0,0,641,638.53Zm1106.38,2.05c-2.26,0-3,2.1-2.84,7.38.29,8.06,2.63,7.14,4.71-1.78C1750.24,642,1749.74,640.58,1747.38,640.58Zm-155.25.14a2.43,2.43,0,0,0-.9.34,2.52,2.52,0,0,0-.71,3.35,2.22,2.22,0,0,0,3.16.75,2.52,2.52,0,0,0,.71-3.35A2.16,2.16,0,0,0,1592.13,640.72Zm375.5,0a2.42,2.42,0,0,0-.9.34,2.52,2.52,0,0,0-.71,3.35,2.22,2.22,0,0,0,3.16.75,2.52,2.52,0,0,0,.71-3.35A2.16,2.16,0,0,0,1967.63,640.72Zm-241.52,2.05c-1.37,0-3.11,0-5.29.07-6.42.21-12.57,1.36-13.6,2.53-3.55,4-6.74,25.4-4.26,28.57,1.25,1.6,1.74,3.85,1,5.06-1.06,1.83,2.7,11.14,4.51,11.14.31,0,0-3.92-.71-8.68-2.52-16.68,4.07-20.42,7.22-4.1,1.75,9.06,5.34,9.6,5.48.82a14.38,14.38,0,0,0-5-11.14c-6.08-5.55-4.3-10.7,3-8.75,3,.79,4.9.34,4.9-1.09s-3-2.12-7.54-1.71c-5.12.47-7.92-.32-8.58-2.39-1.44-4.58,5.49-8.84,12.06-7.45,3.15.67,7.39.24,9.41-1s1.41-1.81-2.71-1.91Zm-596.13.14a2.43,2.43,0,0,0-.9.34,2.52,2.52,0,0,0-.71,3.35,2.22,2.22,0,0,0,3.16.75,2.52,2.52,0,0,0,.71-3.35A2.16,2.16,0,0,0,1130,642.91Zm627.2,4.37a2.43,2.43,0,0,0-.9.34,2.52,2.52,0,0,0-.71,3.35,2.22,2.22,0,0,0,3.16.75,2.52,2.52,0,0,0,.71-3.35A2.16,2.16,0,0,0,1757.18,647.28ZM641,649.47a2.43,2.43,0,0,0-.9.34,2.52,2.52,0,0,0-.71,3.35,2.22,2.22,0,0,0,3.16.75,2.52,2.52,0,0,0,.71-3.35A2.16,2.16,0,0,0,641,649.47Zm1299.8,0a2.43,2.43,0,0,0-.9.34,2.52,2.52,0,0,0-.71,3.35,2.22,2.22,0,0,0,3.16.75,2.52,2.52,0,0,0,.71-3.35A2.16,2.16,0,0,0,1940.81,649.47Zm-1308.05.14c-1.91.07-3.22,3-1.61,5.74,1,1.71,2,1.71,3.61,0s1.62-3.07,0-4.78A2.59,2.59,0,0,0,632.76,649.61Zm16.51,2.05a2.43,2.43,0,0,0-.9.34,2.52,2.52,0,0,0-.71,3.35,2.22,2.22,0,0,0,3.16.75,2.52,2.52,0,0,0,.71-3.35A2.16,2.16,0,0,0,649.26,651.66ZM1765,653.78c-3.25.21-.86,3.4,5.61,6,4.93,2,5.12,2.49,2,4.92-2.14,1.66-2.83,3.78-1.81,5.54,1.15,2,2.13,2.13,3.09.48,1.92-3.3,21.18,7.55,25.34,14.29,3,4.8,2.87,5.59-.71,9.91-3.26,3.94-3.31,4.52-.45,3.42,1.87-.72,6.75.55,10.83,2.87,8.32,4.73,15.93,5.55,15.15,1.64-.28-1.42,2-3.58,5.09-4.78,4.51-1.77,6.43-1.39,9.8,1.85,2.3,2.21,4.19,5.32,4.19,6.9s3,3.79,6.71,4.92c10.7,3.28,11.28,2.68,3.8-4.1-3.87-3.51-7.26-8.66-7.54-11.42s-.61-5.6-.71-6.36c-.42-3.39-23.63-18.09-36.3-23l-14-5.33-4.84,4.78c-4.63,4.61-5,4.64-8.83,1-2.2-2.12-3.51-5.22-2.9-6.9,1.13-3.13-.19-3.91-10.38-6.29A11.07,11.07,0,0,0,1765,653.78Zm206.77.07a2.43,2.43,0,0,0-.9.34,2.52,2.52,0,0,0-.71,3.35,2.22,2.22,0,0,0,3.16.75,2.52,2.52,0,0,0,.71-3.35A2.16,2.16,0,0,0,1971.76,653.84ZM1600.38,656a2.43,2.43,0,0,0-.9.34,2.52,2.52,0,0,0-.71,3.35,2.22,2.22,0,0,0,3.16.75,2.52,2.52,0,0,0,.71-3.35A2.16,2.16,0,0,0,1600.38,656Zm185.69,0a2.43,2.43,0,0,0-.9.34,2.52,2.52,0,0,0-.71,3.35,2.22,2.22,0,0,0,3.16.75,2.52,2.52,0,0,0,.71-3.35A2.16,2.16,0,0,0,1786.07,656Zm33,0a2.42,2.42,0,0,0-.9.34,2.52,2.52,0,0,0-.71,3.35,2.22,2.22,0,0,0,3.16.75,2.52,2.52,0,0,0,.71-3.35A2.16,2.16,0,0,0,1819.08,656Zm39.2,0a2.43,2.43,0,0,0-.9.34,2.52,2.52,0,0,0-.71,3.35,2.22,2.22,0,0,0,3.16.75,2.52,2.52,0,0,0,.71-3.35A2.16,2.16,0,0,0,1858.28,656Zm-101.1.14c-1.91.07-3.22,3-1.61,5.74,1,1.71,2,1.71,3.61,0s1.61-3.07,0-4.78A2.59,2.59,0,0,0,1757.18,656.17Zm-631.33,2.05a2.43,2.43,0,0,0-.9.34,2.52,2.52,0,0,0-.71,3.35,2.22,2.22,0,0,0,3.16.75,2.52,2.52,0,0,0,.71-3.35A2.16,2.16,0,0,0,1125.85,658.22Zm522,0a2.43,2.43,0,0,0-.9.34,2.52,2.52,0,0,0-.71,3.35,2.22,2.22,0,0,0,3.16.75,2.52,2.52,0,0,0,.71-3.35A2.16,2.16,0,0,0,1647.84,658.22Zm193.94,0a2.42,2.42,0,0,0-.9.34,2.52,2.52,0,0,0-.71,3.35,2.22,2.22,0,0,0,3.16.75,2.52,2.52,0,0,0,.71-3.35A2.16,2.16,0,0,0,1841.77,658.22Zm-111.41,2.19a2.43,2.43,0,0,0-.9.34,2.52,2.52,0,0,0-.71,3.35,2.22,2.22,0,0,0,3.16.75,2.52,2.52,0,0,0,.71-3.35A2.16,2.16,0,0,0,1730.36,660.41Zm8.25,0a2.43,2.43,0,0,0-.9.34,2.52,2.52,0,0,0-.71,3.35,2.22,2.22,0,0,0,3.16.75,2.52,2.52,0,0,0,.71-3.35A2.16,2.16,0,0,0,1738.62,660.41Zm239.33,0a2.43,2.43,0,0,0-.9.34,2.52,2.52,0,0,0-.71,3.35,2.22,2.22,0,0,0,3.16.75,2.52,2.52,0,0,0,.71-3.35A2.16,2.16,0,0,0,1977.94,660.41Zm8.25,2.19a2.43,2.43,0,0,0-.9.34,2.52,2.52,0,0,0-.71,3.35,2.22,2.22,0,0,0,3.16.75,2.52,2.52,0,0,0,.71-3.35A2.16,2.16,0,0,0,1986.2,662.59Zm-342.49,2.19a2.43,2.43,0,0,0-.9.34,2.52,2.52,0,0,0-.71,3.35,2.22,2.22,0,0,0,3.16.75,2.52,2.52,0,0,0,.71-3.35A2.16,2.16,0,0,0,1643.71,664.78Zm226.95.27c-1.75-.1-2,2.47.64,6.7,2.31,3.74,4.09,4.75,5.54,3.21s.88-3.57-1.68-6.56C1873.26,666.17,1871.71,665.11,1870.66,665.06Zm-266.09,1.23c-.47-.18-.31.65.39,2.6.77,2.16,1.94,3.41,2.58,2.73s0-2.48-1.42-4A6.39,6.39,0,0,0,1604.57,666.29Zm147.84,0a10.58,10.58,0,0,0-3.42.68c-1.71.69-2.49,2.34-1.74,3.62,1.66,2.85,12.31,1.78,12.31-1.23C1759.57,667.36,1756,666.1,1752.41,666.29Zm-13.8,2.87a2.43,2.43,0,0,0-.9.34,2.52,2.52,0,0,0-.71,3.35,2.22,2.22,0,0,0,3.16.75,2.52,2.52,0,0,0,.71-3.35A2.16,2.16,0,0,0,1738.62,669.16Zm-356.93,4.37a2.43,2.43,0,0,0-.9.34,2.52,2.52,0,0,0-.71,3.35,2.22,2.22,0,0,0,3.16.75,2.52,2.52,0,0,0,.71-3.35A2.16,2.16,0,0,0,1381.69,673.53Zm485.68.07a7.25,7.25,0,0,0-3.48,2.19c-2,1.88-4.6,3.42-5.87,3.42-3.07,0-5.13,3.84-3.55,6.56,2,3.5,5,2.59,10.51-3.28C1869.34,677.87,1869.87,673.24,1867.37,673.6Zm-562,4.31a2.43,2.43,0,0,0-.9.34,2.52,2.52,0,0,0-.71,3.35,2.22,2.22,0,0,0,3.16.75,2.52,2.52,0,0,0,.71-3.35A2.16,2.16,0,0,0,1305.35,677.91Zm466.28,2.19a2.43,2.43,0,0,0-.9.34,2.52,2.52,0,0,0-.71,3.35,2.22,2.22,0,0,0,3.16.75,2.52,2.52,0,0,0,.71-3.35A2.16,2.16,0,0,0,1771.63,680.09Zm76.34,0a2.43,2.43,0,0,0-.9.34,2.52,2.52,0,0,0-.71,3.35,2.22,2.22,0,0,0,3.16.75,2.52,2.52,0,0,0,.71-3.35A2.16,2.16,0,0,0,1848,680.09Zm-119.66,2.19a2.43,2.43,0,0,0-.9.34,2.52,2.52,0,0,0-.71,3.35,2.22,2.22,0,0,0,3.16.75,2.52,2.52,0,0,0,.71-3.35A2.16,2.16,0,0,0,1728.3,682.28Zm51.58,0a2.43,2.43,0,0,0-.9.34,2.52,2.52,0,0,0-.71,3.35,2.22,2.22,0,0,0,3.16.75,2.52,2.52,0,0,0,.71-3.35A2.16,2.16,0,0,0,1779.88,682.28Zm103.16,0a2.43,2.43,0,0,0-.9.34,2.52,2.52,0,0,0-.71,3.35,2.22,2.22,0,0,0,3.16.75,2.52,2.52,0,0,0,.71-3.35A2.16,2.16,0,0,0,1883,682.28Zm-511.67,2.19a2.43,2.43,0,0,0-.9.34,2.52,2.52,0,0,0-.71,3.35,2.22,2.22,0,0,0,3.16.75,2.52,2.52,0,0,0,.71-3.35A2.16,2.16,0,0,0,1371.37,684.47Zm-68.08,2.19a2.42,2.42,0,0,0-.9.34,2.52,2.52,0,0,0-.71,3.35,2.22,2.22,0,0,0,3.16.75,2.52,2.52,0,0,0,.71-3.35A2.16,2.16,0,0,0,1303.29,686.66Zm588,0a2.42,2.42,0,0,0-.9.34,2.52,2.52,0,0,0-.71,3.35,2.22,2.22,0,0,0,3.16.75,2.52,2.52,0,0,0,.71-3.35A2.16,2.16,0,0,0,1891.29,686.66Zm-254.87.89a2.26,2.26,0,0,0-2,1c-1.76,3,5.72,7.21,16.05,9,16.27,2.75,20.08,3.58,21.08,4.65,1.57,1.66,4.46,1.31,4.45-.55,0-3.58-13.59-11.28-17.79-10.12-2.39.66-8.44-.27-13.41-2.05C1640.85,688,1638.13,687.41,1636.42,687.54Zm39.52,1c-2.18.09-4.11,2-3,4a4.17,4.17,0,0,0,3,2.05c2.89,0,4.43-4,2.13-5.47A3.66,3.66,0,0,0,1675.95,688.5Zm9,.34a2.43,2.43,0,0,0-.9.34,2.52,2.52,0,0,0-.71,3.35,2.22,2.22,0,0,0,3.16.75,2.52,2.52,0,0,0,.71-3.35A2.16,2.16,0,0,0,1685,688.84Zm303.29,0a2.42,2.42,0,0,0-.9.34,2.52,2.52,0,0,0-.71,3.35,2.22,2.22,0,0,0,3.16.75,2.52,2.52,0,0,0,.71-3.35A2.16,2.16,0,0,0,1988.26,688.84Zm-87.43,1.85c-2.18.09-4.11,2-3,4a4.17,4.17,0,0,0,3,2.05c2.89,0,4.44-4,2.13-5.47A3.66,3.66,0,0,0,1900.83,690.69Zm-184.91.34a2.43,2.43,0,0,0-.9.34,2.52,2.52,0,0,0-.71,3.35,2.22,2.22,0,0,0,3.16.75,2.52,2.52,0,0,0,.71-3.35A2.16,2.16,0,0,0,1715.92,691Zm28.88,2.19a2.43,2.43,0,0,0-.9.34,2.52,2.52,0,0,0-.71,3.35,2.22,2.22,0,0,0,3.16.75,2.52,2.52,0,0,0,.71-3.35A2.16,2.16,0,0,0,1744.81,693.22Zm17.79,1.85c-2.18.09-4.11,2-3,4a4.17,4.17,0,0,0,3,2.05c2.89,0,4.43-4,2.13-5.47A3.66,3.66,0,0,0,1762.6,695.06Zm130.75.34a2.43,2.43,0,0,0-.9.34,2.52,2.52,0,0,0-.71,3.35,2.22,2.22,0,0,0,3.16.75,2.52,2.52,0,0,0,.71-3.35A2.16,2.16,0,0,0,1893.35,695.41Zm105.22,0a2.42,2.42,0,0,0-.9.34,2.52,2.52,0,0,0-.71,3.35,2.22,2.22,0,0,0,3.16.75,2.52,2.52,0,0,0,.71-3.35A2.16,2.16,0,0,0,1998.58,695.41Zm-87.43,1.78a3.25,3.25,0,0,0-1.93.55c-1.73,1.13-1.65,2.37.19,4.72s3.15,2.47,4.64.89c2.24-2.37-.14-6-2.9-6.15Zm-605.8.41a2.43,2.43,0,0,0-.9.34,2.52,2.52,0,0,0-.71,3.35,2.22,2.22,0,0,0,3.16.75,2.52,2.52,0,0,0,.71-3.35A2.16,2.16,0,0,0,1305.35,697.59Zm447.71,0a2.43,2.43,0,0,0-.9.34,2.52,2.52,0,0,0-.71,3.35,2.22,2.22,0,0,0,3.16.75,2.52,2.52,0,0,0,.71-3.35A2.16,2.16,0,0,0,1753.06,697.59ZM1739.78,699c-5.22.77-17.35,11.54-15.47,14.76.92,1.59,3.63,1,8.32-2,9.67-6,12.24-9.58,9-12.44A2.26,2.26,0,0,0,1739.78,699Zm-56.87.75a2.43,2.43,0,0,0-.9.34,2.52,2.52,0,0,0-.71,3.35,2.22,2.22,0,0,0,3.16.75,2.52,2.52,0,0,0,.71-3.35A2.16,2.16,0,0,0,1682.91,699.78Zm41.26,0a2.43,2.43,0,0,0-.9.34,2.52,2.52,0,0,0-.71,3.35,2.22,2.22,0,0,0,3.16.75,2.52,2.52,0,0,0,.71-3.35A2.16,2.16,0,0,0,1724.17,699.78Zm-14.51,1.64a4.75,4.75,0,0,0-2.64.68,2.7,2.7,0,0,0-1,3.49c1.57,2.7,6.58,2.63,8.19-.14C1715.36,703.44,1712.48,701.44,1709.67,701.42Zm-17,.55a7.08,7.08,0,0,0-2.77.75,1.85,1.85,0,0,0-.58,2.6c1.49,2.55,10.56,1.62,9.35-1-.66-1.4-2.81-2.3-5-2.39A8.23,8.23,0,0,0,1692.71,702Zm213,2.19a2.43,2.43,0,0,0-.9.34,2.52,2.52,0,0,0-.71,3.35,2.22,2.22,0,0,0,3.16.75,2.52,2.52,0,0,0,.71-3.35A2.16,2.16,0,0,0,1905.73,704.15Zm-202.19,4.37a2.43,2.43,0,0,0-.9.34,2.52,2.52,0,0,0-.71,3.35,2.22,2.22,0,0,0,3.16.75,2.52,2.52,0,0,0,.71-3.35A2.16,2.16,0,0,0,1703.54,708.53Zm12.38,2.19a2.42,2.42,0,0,0-.9.34,2.52,2.52,0,0,0-.71,3.35,2.22,2.22,0,0,0,3.16.75,2.52,2.52,0,0,0,.71-3.35A2.16,2.16,0,0,0,1715.92,710.72Zm200.13,0a2.42,2.42,0,0,0-.9.34,2.52,2.52,0,0,0-.71,3.35,2.22,2.22,0,0,0,3.16.75,2.52,2.52,0,0,0,.71-3.35A2.16,2.16,0,0,0,1916,710.72Zm-45.39,4.37a2.43,2.43,0,0,0-.9.34,2.52,2.52,0,0,0-.71,3.35,2.22,2.22,0,0,0,3.16.75,2.52,2.52,0,0,0,.71-3.35A2.16,2.16,0,0,0,1870.66,715.09Zm37.14,2.19a2.42,2.42,0,0,0-.9.34,2.52,2.52,0,0,0-.71,3.35,2.22,2.22,0,0,0,3.16.75,2.52,2.52,0,0,0,.71-3.35A2.16,2.16,0,0,0,1907.8,717.28Zm-140,1.85c-.59.1-.65.52-.19,1.3.75,1.28-1,4-3.87,5.95s-4.74,4.4-4.19,5.33-.42,2.94-2.13,4.44c-2.24,2-2.49,3.45-.9,5.47,1.2,1.54,1.49,3.3.58,3.9-3.27,2.14-15.89-.19-17-3.14-1.61-4.23-6.32-4.78-6.32-.75,0,1.83-2.22,4.41-5,5.74s-4.59,3.62-4,5.26a7.48,7.48,0,0,1-.45,5.54c-1.11,1.9-2.31,1.55-4.32-1.37-2.68-3.89-2.79-3.89-3,.21a50,50,0,0,0,.06,6.84c.32,2.7-12.18,13.81-15.54,13.81-2,0-11.49,5-23,12.24-7.54,4.73-8.88,12.19-3.35,18.66,2,2.38,2.8,5.49,1.93,7.86-1.35,3.69-1.6,3.67-4.38-.34-1.7-2.45-3-3.06-3-1.44s1.93,5.74,4.32,9.3c4.82,7.17,11,34.77,9.54,42.79-.72,4,.45,5.9,5,8.41,5.56,3,6.41,2.92,13.6-2.26,4.28-3.09,10.61-5.54,14.31-5.54a17.85,17.85,0,0,0,12.19-5.47c3.06-3,8-5.47,10.83-5.47a41.38,41.38,0,0,0,11.54-2.32c9.53-3.46,25.57,3.38,29.92,12.71,1.8,3.86,3.74,7,4.38,7s2.8-3.54,4.77-7.93c2.65-5.88,4.16-7.34,5.87-5.54s1.72,4-.06,8.13c-3.17,7.38-3.09,8.66.45,5.54,2.12-1.87,3.28-1.85,4.32-.07.78,1.34.91,3,.26,3.69s1.13,4.12,3.93,7.66,5.09,7.82,5.09,9.5c0,4.77,12.7,7.59,16.89,3.76,3-2.77,3.9-2.61,7.22,1.23,4.86,5.63,4.52,5.65,9.22-.68,2.36-3.18,5.79-5.22,8.32-4.92,3,.34,4.47-.9,4.84-3.9.66-5.52,4.48-17.13,9.35-28.44s10-56.3,6.32-55.16c-2,.6-12.64-7.44-12.64-9.5,0-1-2.28-4.43-5.09-7.66s-4.69-6.69-4.13-7.66-.85-2.37-3.16-3.14c-5.67-1.91-12.38-16.51-12.38-26.93,0-5.64-1.34-9.75-4-12.3-2.21-2.12-4.65-6.95-5.42-10.73a46.62,46.62,0,0,0-2.51-9c-1.56-2.77-6.26,11.33-6.51,19.55-.2,6.62-7.15,25.16-9.41,25.16-.67,0-6.31-4-12.57-8.89-10.64-8.34-11.35-9.37-10.06-15.86.76-3.82,2.21-7.88,3.22-9,2.44-2.75,2.39-8.38-.06-6.77a2.17,2.17,0,0,1-3.09-.82c-.67-1.15-2.87-2-4.84-1.85a26.62,26.62,0,0,1-8.45-1.5A8.2,8.2,0,0,0,1767.82,719.12Zm-450.09,2.53a2.42,2.42,0,0,0-.9.34,2.52,2.52,0,0,0-.71,3.35,2.22,2.22,0,0,0,3.16.75,2.52,2.52,0,0,0,.71-3.35A2.16,2.16,0,0,0,1317.73,721.65Zm6.19,4.37a2.43,2.43,0,0,0-.9.34,2.52,2.52,0,0,0-.71,3.35,2.22,2.22,0,0,0,3.16.75,2.52,2.52,0,0,0,.71-3.35A2.16,2.16,0,0,0,1323.92,726Zm25.14,2.05c-.64.11-1.1,1-1.1,2.46,0,5.92-6.32,14.15-13.8,17.91-8.27,4.16-11.6,11.45-9.8,21.6a17.12,17.12,0,0,1-2.19,12.78c-3.58,5.79-3.29,11.33,1.35,23.79,1.88,5.06,3.09,5.77,7.67,4.58,3-.77,6.11-2.51,7-3.83,1.89-2.91,4.18-12.09,8.77-35.2,1.91-9.62,4.28-19.11,5.22-21.05,2-4.13.22-21.19-2.39-22.9A1,1,0,0,0,1349.06,728.08Zm-19,4.51a2.43,2.43,0,0,0-.9.34,2.52,2.52,0,0,0-.71,3.35,2.22,2.22,0,0,0,3.16.75,2.52,2.52,0,0,0,.71-3.35A2.16,2.16,0,0,0,1330.11,732.59Zm462.15,0a2.43,2.43,0,0,0-.9.34,2.52,2.52,0,0,0-.71,3.35,2.22,2.22,0,0,0,3.16.75,2.52,2.52,0,0,0,.71-3.35A2.16,2.16,0,0,0,1792.26,732.59Zm255.83,2.19a2.24,2.24,0,0,0-.9.34,2.52,2.52,0,0,0-.71,3.35,2.11,2.11,0,0,0,3,.89,2.27,2.27,0,0,1,3.09,1.09,2.35,2.35,0,0,0,3.29,1,2.52,2.52,0,0,0,.71-3.35,2.11,2.11,0,0,0-3-.89,2.27,2.27,0,0,1-3.09-1.09A2.46,2.46,0,0,0,2048.09,734.78Zm-109.35,8.75a2.43,2.43,0,0,0-.9.34,2.52,2.52,0,0,0-.71,3.35,2.22,2.22,0,0,0,3.16.75,2.52,2.52,0,0,0,.71-3.35A2.16,2.16,0,0,0,1938.74,743.53Zm-563.25,6.56a2.43,2.43,0,0,0-.9.34,2.52,2.52,0,0,0-.71,3.35,2.22,2.22,0,0,0,3.16.75,2.52,2.52,0,0,0,.71-3.35A2.16,2.16,0,0,0,1375.5,750.09Zm565.31,2.19a2.43,2.43,0,0,0-.9.34,2.52,2.52,0,0,0-.71,3.35,2.22,2.22,0,0,0,3.16.75,2.52,2.52,0,0,0,.71-3.35A2.16,2.16,0,0,0,1940.81,752.28Zm61.9,0a2.43,2.43,0,0,0-.9.34,2.52,2.52,0,0,0-.71,3.35,2.22,2.22,0,0,0,3.16.75,2.52,2.52,0,0,0,.71-3.35A2.16,2.16,0,0,0,2002.7,752.28ZM1947,756.65a2.43,2.43,0,0,0-.9.34,2.52,2.52,0,0,0-.71,3.35,2.22,2.22,0,0,0,3.16.75,2.52,2.52,0,0,0,.71-3.35A2.16,2.16,0,0,0,1947,756.65ZM346,758.84a2.43,2.43,0,0,0-.9.34,2.52,2.52,0,0,0-.71,3.35,2.22,2.22,0,0,0,3.16.75,2.52,2.52,0,0,0,.71-3.35A2.16,2.16,0,0,0,346,758.84Zm1650.54,0a2.43,2.43,0,0,0-.9.34,2.52,2.52,0,0,0-.71,3.35,2.22,2.22,0,0,0,3.16.75,2.52,2.52,0,0,0,.71-3.35A2.16,2.16,0,0,0,1996.51,758.84ZM352.16,763.21a2.43,2.43,0,0,0-.9.34,2.52,2.52,0,0,0-.71,3.35,2.22,2.22,0,0,0,3.16.75,2.52,2.52,0,0,0,.71-3.35A2.16,2.16,0,0,0,352.16,763.21Zm1681.49,10.94a2.42,2.42,0,0,0-.9.34,2.52,2.52,0,0,0-.71,3.35,2.22,2.22,0,0,0,3.16.75,2.52,2.52,0,0,0,.71-3.35A2.16,2.16,0,0,0,2033.65,774.15ZM409.93,778.53a2.43,2.43,0,0,0-.9.34,2.52,2.52,0,0,0-.71,3.35,2.22,2.22,0,0,0,3.16.75,2.52,2.52,0,0,0,.71-3.35A2.16,2.16,0,0,0,409.93,778.53Zm980,0a2.43,2.43,0,0,0-.9.34,2.52,2.52,0,0,0-.71,3.35,2.22,2.22,0,0,0,3.16.75,2.52,2.52,0,0,0,.71-3.35A2.16,2.16,0,0,0,1389.94,778.53Zm541.13.07a2.42,2.42,0,0,0-1.55.68c-1.47,1.55-.63,3.31,2.64,5.74,5.49,4.07,7.2,4.35,8.9,1.44,1.52-2.61-5.32-7.57-9.35-7.86A3.7,3.7,0,0,0,1931.07,778.59Zm-549.38,2.12a2.43,2.43,0,0,0-.9.34,2.52,2.52,0,0,0-.71,3.35,2.22,2.22,0,0,0,3.16.75,2.52,2.52,0,0,0,.71-3.35A2.16,2.16,0,0,0,1381.69,780.71Zm645.77,0a2.43,2.43,0,0,0-.9.34,2.52,2.52,0,0,0-.71,3.35,2.22,2.22,0,0,0,3.16.75,2.52,2.52,0,0,0,.71-3.35A2.16,2.16,0,0,0,2027.46,780.71ZM389.3,782.9a2.43,2.43,0,0,0-.9.34,2.52,2.52,0,0,0-.71,3.35,2.22,2.22,0,0,0,3.16.75,2.52,2.52,0,0,0,.71-3.35A2.16,2.16,0,0,0,389.3,782.9Zm33,8.75a2.43,2.43,0,0,0-.9.34,2.52,2.52,0,0,0-.71,3.35,2.22,2.22,0,0,0,3.16.75,2.52,2.52,0,0,0,.71-3.35A2.16,2.16,0,0,0,422.31,791.65Zm28.88,8.75a2.43,2.43,0,0,0-.9.34,2.52,2.52,0,0,0-.71,3.35,2.22,2.22,0,0,0,3.16.75,2.52,2.52,0,0,0,.71-3.35A2.16,2.16,0,0,0,451.2,800.4Zm18.57,4.37a2.43,2.43,0,0,0-.9.34,2.52,2.52,0,0,0-.71,3.35,2.22,2.22,0,0,0,3.16.75,2.52,2.52,0,0,0,.71-3.35A2.16,2.16,0,0,0,469.76,804.78Zm101.1,8.75a2.43,2.43,0,0,0-.9.34,2.52,2.52,0,0,0-.71,3.35,2.22,2.22,0,0,0,3.16.75,2.52,2.52,0,0,0,.71-3.35A2.16,2.16,0,0,0,570.86,813.53ZM546.1,817.9a2.43,2.43,0,0,0-.9.34,2.52,2.52,0,0,0-.71,3.35,2.22,2.22,0,0,0,3.16.75,2.52,2.52,0,0,0,.71-3.35A2.16,2.16,0,0,0,546.1,817.9ZM698.78,866a2.43,2.43,0,0,0-.9.34,2.52,2.52,0,0,0-.71,3.35,2.22,2.22,0,0,0,3.16.75,2.52,2.52,0,0,0,.71-3.35A2.16,2.16,0,0,0,698.78,866Zm1273.17,8.61a.4.4,0,0,0-.32.07c-.57.6.79,3.87,3,7.25,6.34,9.55,7.44,15.54,3.87,21.33-2.94,4.76-2.83,5.25.9,6.29a5.72,5.72,0,0,1,4,5.67c0,7.06,3.83,5.42,5.87-2.53,1-3.91,2.89-6.86,4.19-6.56s2.32-.33,2.32-1.44a23.65,23.65,0,0,1,1.42-5.88c1.09-3,.61-3.49-2.26-2.32-2.61,1.06-4,.17-4.77-3-.85-3.46-1.67-3.85-3.87-1.91s-3.18,1.59-4.26-1.57C1980.15,884.39,1973.73,874.77,1971.95,874.64Zm-181.75,4.51a2.42,2.42,0,0,0-.9.34,2.52,2.52,0,0,0-.71,3.35,2.22,2.22,0,0,0,3.16.75,2.52,2.52,0,0,0,.71-3.35A2.16,2.16,0,0,0,1790.2,879.15Zm55.71,28.44a2.43,2.43,0,0,0-.9.34,2.52,2.52,0,0,0-.71,3.35,2.22,2.22,0,0,0,3.16.75,2.52,2.52,0,0,0,.71-3.35A2.16,2.16,0,0,0,1845.9,907.58Zm-18.57,2.19a2.43,2.43,0,0,0-.9.34,2.52,2.52,0,0,0-.71,3.35,2.21,2.21,0,0,0,3.16.75,2.52,2.52,0,0,0,.71-3.35A2.16,2.16,0,0,0,1827.33,909.77Zm7.35,8.61c-3.2.12-3.09,1.1-1.87,4.37,1,2.59,2.21,6.44,2.84,8.54,1.17,3.95,10.41,4.24,10.77.34a27.76,27.76,0,0,1,1.81-5.88c2.19-5.28.36-6.73-9.16-7.25C1837.2,918.42,1835.75,918.34,1834.68,918.38Zm138.43.55c-3.28.35-8.25,5.48-8.25,9.09,0,1.32-2.43,4.48-5.42,7-8.86,7.39-22.24,27.71-15.22,23.1,1.13-.74,3.68-.34,5.67.89,4.88,3,7.82,2.93,10.38-.34,2.23-2.85,2.51-3.79,2.51-9.36,0-1.86,2.36-5.92,5.22-9s4.66-6.39,4-7.52.22-2.7,2-3.42c4-1.63,4.23-8.66.32-10.25a2.13,2.13,0,0,0-.58-.21A3.14,3.14,0,0,0,1973.11,918.93ZM721.47,925.22c-1.91.07-3.22,3-1.61,5.74,1,1.71,2,1.71,3.61,0s1.62-3.07,0-4.78A2.59,2.59,0,0,0,721.47,925.22Zm1227.59,39.24a2.42,2.42,0,0,0-.9.34,2.52,2.52,0,0,0-.71,3.35,2.22,2.22,0,0,0,3.16.75,2.52,2.52,0,0,0,.71-3.35A2.16,2.16,0,0,0,1949.06,964.46ZM717.35,966.64a2.43,2.43,0,0,0-.9.34,2.52,2.52,0,0,0-.71,3.35,2.22,2.22,0,0,0,3.16.75,2.52,2.52,0,0,0,.71-3.35A2.16,2.16,0,0,0,717.35,966.64Zm730.43,6.9c-2.41-.14-3.38,3.09-.71,6.49,3.16,4,5,4,8.19-.07,2-2.56,1.72-4.32-.26-3.08,0-.2-.31-.1-.77.34a10.52,10.52,0,0,1-3.61-2.32A4.9,4.9,0,0,0,1447.77,973.55Zm-730.43,4a2.42,2.42,0,0,0-.9.34,2.52,2.52,0,0,0-.71,3.35,2.22,2.22,0,0,0,3.16.75,2.52,2.52,0,0,0,.71-3.35A2.16,2.16,0,0,0,717.35,977.58Zm1219.34,6.56a2.43,2.43,0,0,0-.9.34,2.52,2.52,0,0,0-.71,3.35,2.22,2.22,0,0,0,3.16.75,2.52,2.52,0,0,0,.71-3.35A2.16,2.16,0,0,0,1936.68,984.14ZM717.35,988.52a2.43,2.43,0,0,0-.9.34,2.52,2.52,0,0,0-.71,3.35,2.22,2.22,0,0,0,3.16.75,2.52,2.52,0,0,0,.71-3.35A2.16,2.16,0,0,0,717.35,988.52Zm84.59,4.37a2.43,2.43,0,0,0-.9.34,2.39,2.39,0,0,0-.84,3.14,2.55,2.55,0,0,1-1,3.28,2.66,2.66,0,0,0-.9,3.49,2.22,2.22,0,0,0,3.16.75,2.39,2.39,0,0,0,.84-3.14,2.55,2.55,0,0,1,1-3.28,2.66,2.66,0,0,0,.9-3.49A2.16,2.16,0,0,0,801.94,992.89Zm-9.09,1.78a4.13,4.13,0,0,0-3,6c1.07,1.84,2.23,1.81,4.45-.14s2.33-3.34.84-4.92A2.75,2.75,0,0,0,792.84,994.67Zm-68.34,9a3.27,3.27,0,0,0-1.81.48c-1.9,1.24-1.56,2.46,1.35,4.72,2.16,1.67,3.7,3.48,3.42,4a5.93,5.93,0,0,0-.52,2.26c0,.67,1,.57,2.19-.21,1.48-1,1.39-2.4-.26-4.51-1.33-1.7-1.64-3.08-.71-3.08s.62-1.12-.64-2.46A4.15,4.15,0,0,0,724.5,1003.62Zm745.9,2.39a2.43,2.43,0,0,0-.9.34,2.52,2.52,0,0,0-.71,3.35,2.21,2.21,0,0,0,3.16.75,2.52,2.52,0,0,0,.71-3.35A2.16,2.16,0,0,0,1470.4,1006Zm-722.76,1.71c-1,.26-1.29,2.18-1.22,5.61.1,5-.68,5.92-4.64,5.47-2.75-.31-4.22.38-3.48,1.64s4,2.19,7.22,2.19,6.45.89,7.09,2c1.28,2.2,5,2,8.7-.41,1.58-1,0-4.13-4.84-9.23-4.36-4.62-6.88-7-8.32-7.25A1.33,1.33,0,0,0,747.65,1007.73Zm160.67,7a4,4,0,0,0-2.32.55c-1.4.92-.86,2.5,1.55,4.37,4.51,3.5,8.48,3.78,10.25.75C919.06,1018.27,912.48,1014.87,908.32,1014.77ZM771,1019.14a2.43,2.43,0,0,0-.9.34,2.52,2.52,0,0,0-.71,3.35,2.22,2.22,0,0,0,3.16.75,2.52,2.52,0,0,0,.71-3.35A2.16,2.16,0,0,0,771,1019.14Zm-23.47,8.41c-2.18.09-4.11,2-3,4a4.17,4.17,0,0,0,3,2.05c2.89,0,4.44-4,2.13-5.47A3.66,3.66,0,0,0,747.52,1027.55Z" fill="none" stroke="#ff5a21" stroke-miterlimit="10"/></g><path d="M737.34,200.28c40.74-25.47,220.45-46.5,352.19,85.44,26.58-21.24,164.29,98,126.45,212.34-84.31,5.75-15.81,231.54,48,272.23-1.77-119.72,137.17-271.9,217.77-241.18,23.58-26.48,125.64-4.38,131.71,75q.09,1.14.16,2.29c56-.23,115.7,76.52,78.9,220.11,43.64-62.09,144-46.46,165.52,4.77,14.94-153.32-145.9-279-239.64-227.19" fill="none" stroke="#ff5a21" stroke-miterlimit="10" stroke-width="0.5"/><path d="M1535.45,156.14c57.22-37.43,151.34,151.27,142.75,228.3C1676,216.32,1803.08,94.92,1855,202.44" fill="none" stroke="#ff5a21" stroke-miterlimit="10" stroke-width="0.5"/><path d="M1056.93,516c-35.92-61.14-47.59-208.22,32.6-230.31-37.91-22.45-285.37-61-355.74,62.07-77.33-85.14-219.55-34.4-251.91,17.51C243.77,276.42,9.67,402.34,1.15,529.57,190.38,376,653.81,499,732,618.86,749.64,544.5,867.32,243,1089.53,285.72c-10.53-24.79,33.19-81.66,58.81-72.55,104.95-86.93,247.2-16.51,257.19,11.51-87.83-50.11-263.51,20-260,70,67.06-94.41,504.61-8.58,532.65,85,16.94-40,86.6-12.4,132.61,32.22,99.45-91.92,376.52-97.7,492.19-20.22C2268.45,320.4,1960.82,124,1855,207.21c-57.19-106.2-292.12-125.57-324.36-51.07-49.54-36.4-138.05,41.09-125.14,68.54" fill="none" stroke="#ff5a21" stroke-miterlimit="10" stroke-width="0.5"/><path d="M1087.25,289.91c7-27.27,47.34-32.31,60.81,4.77,41.82-35.15,207.08,74.62,207.55,126.46,55.89-46.77,126.87,70.39,122.52,111,35.81-81.81,214.92-62.54,235.51-4.2,23-15.62,2-165.68-35.44-148.31-36.62-32.24-195.72,74.5-200.07,157.28" fill="none" stroke="#ff5a21" stroke-miterlimit="10" stroke-width="0.5"/><path d="M733.79,347.79c39.8-45,58.4-131.94,3.55-147.51-49.94-50.17-252.67,48.57-255.46,165" fill="none" stroke="#ff5a21" stroke-miterlimit="10" stroke-width="0.5"/><path d="M733.79,347.79c37.57-3,16.61,217.94-1.84,271.08,59-17.84,63.89,179.79,60.29,239,95.42-471.58,234.32-588.07,302.05-572.18" fill="none" stroke="#ff5a21" stroke-miterlimit="10" stroke-width="0.5"/><circle cx="1089.53" cy="285.72" r="4.77" fill="#e24920" stroke="#ff5a21" stroke-miterlimit="10" stroke-width="0.75"/><circle cx="1145.55" cy="294.68" r="4.77" fill="#e24920" stroke="#ff5a21" stroke-miterlimit="10" stroke-width="0.75"/><circle cx="1148.34" cy="213.17" r="4.77" fill="#e24920" stroke="#ff5a21" stroke-miterlimit="10" stroke-width="0.75"/><circle cx="737.34" cy="200.28" r="4.77" fill="#e24920" stroke="#ff5a21" stroke-miterlimit="10" stroke-width="0.75"/><circle cx="1530.68" cy="156.14" r="4.77" fill="#e24920" stroke="#ff5a21" stroke-miterlimit="10" stroke-width="0.75"/><circle cx="1405.54" cy="224.68" r="4.77" fill="#e24920" stroke="#ff5a21" stroke-miterlimit="10" stroke-width="0.75"/><circle cx="1855.04" cy="207.21" r="4.77" fill="#e24920" stroke="#ff5a21" stroke-miterlimit="10" stroke-width="0.75"/></g></svg>